<?xml version="1.0" encoding="UTF-8" standalone="no"?>
<!DOCTYPE svg PUBLIC "-//W3C//DTD SVG 1.1//EN"
 "http://www.w3.org/Graphics/SVG/1.1/DTD/svg11.dtd">
<!-- Generated by graphviz version 2.43.0 (0)
 -->
<!-- Title: library/lattice/c/include/tetengo/lattice/input.h Pages: 1 -->
<!--zoomable 368 -->

<svg id="main" version="1.1" xmlns="http://www.w3.org/2000/svg" xmlns:xlink="http://www.w3.org/1999/xlink" xml:space="preserve" onload="init(evt)">

<style type="text/css"><![CDATA[
.node, .edge {opacity: 0.7;}
.node.selected, .edge.selected {opacity: 1;}
.edge:hover path { stroke: red; }
.edge:hover polygon { stroke: red; fill: red; }
]]></style>

<defs>
  <circle id="rim" cx="0" cy="0" r="7"/>
  <circle id="rim2" cx="0" cy="0" r="3.5"/>
  <g id="zoomPlus">
    <use xlink:href="#rim" fill="#404040"><set attributeName="fill" to="#808080" begin="zoomplus.mouseover" end="zoomplus.mouseout"/></use>
    <path d="M-4,0h8M0,-4v8" fill="none" stroke="white" stroke-width="1.5" pointer-events="none"/>
  </g>
  <g id="zoomMin">
    <use xlink:href="#rim" fill="#404040"><set attributeName="fill" to="#808080" begin="zoomminus.mouseover" end="zoomminus.mouseout"/></use>
    <path d="M-4,0h8" fill="none" stroke="white" stroke-width="1.5" pointer-events="none"/>
  </g>
  <g id="arrowUp" transform="translate(30 24)">
    <use xlink:href="#rim"/>
    <path pointer-events="none" fill="none" stroke="white" stroke-width="1.5" d="M0,-3.0v7 M-2.5,-0.5L0,-3.0L2.5,-0.5"/>
  </g>
  <g id="arrowRight" transform="rotate(90) translate(36 -43)">
    <use xlink:href="#rim"/>
    <path pointer-events="none" fill="none" stroke="white" stroke-width="1.5" d="M0,-3.0v7 M-2.5,-0.5L0,-3.0L2.5,-0.5"/>
  </g>
  <g id="arrowDown" transform="rotate(180) translate(-30 -48)">
    <use xlink:href="#rim"/>
    <path pointer-events="none" fill="none" stroke="white" stroke-width="1.5" d="M0,-3.0v7 M-2.5,-0.5L0,-3.0L2.5,-0.5"/>
  </g>
  <g id="arrowLeft" transform="rotate(270) translate(-36 17)">
    <use xlink:href="#rim"/>
    <path pointer-events="none" fill="none" stroke="white" stroke-width="1.5" d="M0,-3.0v7 M-2.5,-0.5L0,-3.0L2.5,-0.5"/>
  </g>
  <g id="resetDef">
    <use xlink:href="#rim2" fill="#404040"><set attributeName="fill" to="#808080" begin="reset.mouseover" end="reset.mouseout"/></use>
  </g>
</defs>
<script type="application/ecmascript">
var viewWidth = 533;
var viewHeight = 368;
var sectionId = 'dynsection-1';
</script>
<script type="application/ecmascript" xlink:href="svg.min.js"/>
<svg id="graph" class="graph">
<g id="viewport">
<title>library/lattice/c/include/tetengo/lattice/input.h</title>
<!-- Node1 -->
<g id="Node000001" class="node">
<title>Node1</title>
<g id="a_Node000001"><a xlink:title="An input.">
<polygon fill="#999999" stroke="#666666" points="524.83,-360 396.83,-360 396.83,-330 524.83,-330 524.83,-360"/>
<text text-anchor="start" x="404.83" y="-348" font-family="Helvetica,sans-Serif" font-size="10.00">library/lattice/c/include</text>
<text text-anchor="middle" x="460.83" y="-337" font-family="Helvetica,sans-Serif" font-size="10.00">/tetengo/lattice/input.h</text>
</a>
</g>
</g>
<!-- Node2 -->
<g id="Node000002" class="node">
<title>Node2</title>
<g id="a_Node000002"><a xlink:href="entry_8h.html" target="_top" xlink:title="An entry.">
<polygon fill="white" stroke="#666666" points="406.83,-294 278.83,-294 278.83,-264 406.83,-264 406.83,-294"/>
<text text-anchor="start" x="286.83" y="-282" font-family="Helvetica,sans-Serif" font-size="10.00">library/lattice/c/include</text>
<text text-anchor="middle" x="342.83" y="-271" font-family="Helvetica,sans-Serif" font-size="10.00">/tetengo/lattice/entry.h</text>
</a>
</g>
</g>
<!-- Node1&#45;&gt;Node2 -->
<g id="edge1_Node000001_Node000002" class="edge">
<title>Node1&#45;&gt;Node2</title>
<g id="a_edge1_Node000001_Node000002"><a xlink:title=" ">
<path fill="none" stroke="#63b8ff" d="M425.99,-325.11C407.63,-315.14 385.48,-303.13 368.67,-294.01"/>
<polygon fill="#63b8ff" stroke="#63b8ff" points="424.48,-328.26 434.94,-329.95 427.81,-322.11 424.48,-328.26"/>
</a>
</g>
</g>
<!-- Node4 -->
<g id="Node000004" class="node">
<title>Node4</title>
<g id="a_Node000004"><a xlink:href="vocabulary_8h.html" target="_top" xlink:title="A vocabulary.">
<polygon fill="white" stroke="#666666" points="485.33,-162 330.33,-162 330.33,-132 485.33,-132 485.33,-162"/>
<text text-anchor="start" x="338.33" y="-150" font-family="Helvetica,sans-Serif" font-size="10.00">library/lattice/c/include</text>
<text text-anchor="middle" x="407.83" y="-139" font-family="Helvetica,sans-Serif" font-size="10.00">/tetengo/lattice/vocabulary.h</text>
</a>
</g>
</g>
<!-- Node1&#45;&gt;Node4 -->
<g id="edge18_Node000001_Node000004" class="edge">
<title>Node1&#45;&gt;Node4</title>
<g id="a_edge18_Node000001_Node000004"><a xlink:title=" ">
<path fill="none" stroke="#63b8ff" d="M454.38,-320.16C443.24,-278.93 420.69,-195.55 411.68,-162.23"/>
<polygon fill="#63b8ff" stroke="#63b8ff" points="451.03,-321.16 457.02,-329.9 457.79,-319.34 451.03,-321.16"/>
</a>
</g>
</g>
<!-- Node5 -->
<g id="Node000005" class="node">
<title>Node5</title>
<g id="a_Node000005"><a xlink:href="lattice_8h.html" target="_top" xlink:title="A lattice.">
<polygon fill="white" stroke="#666666" points="474.83,-96 340.83,-96 340.83,-66 474.83,-66 474.83,-96"/>
<text text-anchor="start" x="348.83" y="-84" font-family="Helvetica,sans-Serif" font-size="10.00">library/lattice/c/include</text>
<text text-anchor="middle" x="407.83" y="-73" font-family="Helvetica,sans-Serif" font-size="10.00">/tetengo/lattice/lattice.h</text>
</a>
</g>
</g>
<!-- Node1&#45;&gt;Node5 -->
<g id="edge17_Node000001_Node000005" class="edge">
<title>Node1&#45;&gt;Node5</title>
<g id="a_edge17_Node000001_Node000005"><a xlink:title=" ">
<path fill="none" stroke="#63b8ff" d="M473.59,-321.08C494.47,-280.19 530.26,-193.23 494.83,-132 485.23,-115.41 467.82,-103.85 451.08,-96.05"/>
<polygon fill="#63b8ff" stroke="#63b8ff" points="470.46,-319.51 468.9,-329.99 476.65,-322.77 470.46,-319.51"/>
</a>
</g>
</g>
<!-- Node3 -->
<g id="Node000003" class="node">
<title>Node3</title>
<g id="a_Node000003"><a xlink:href="connection_8h.html" target="_top" xlink:title="A connection.">
<polygon fill="white" stroke="#666666" points="394.83,-228 238.83,-228 238.83,-198 394.83,-198 394.83,-228"/>
<text text-anchor="start" x="246.83" y="-216" font-family="Helvetica,sans-Serif" font-size="10.00">library/lattice/c/include</text>
<text text-anchor="middle" x="316.83" y="-205" font-family="Helvetica,sans-Serif" font-size="10.00">/tetengo/lattice/connection.h</text>
</a>
</g>
</g>
<!-- Node2&#45;&gt;Node3 -->
<g id="edge2_Node000002_Node000003" class="edge">
<title>Node2&#45;&gt;Node3</title>
<g id="a_edge2_Node000002_Node000003"><a xlink:title=" ">
<path fill="none" stroke="#63b8ff" d="M333.24,-254.39C329.66,-245.59 325.71,-235.86 322.58,-228.16"/>
<polygon fill="#63b8ff" stroke="#63b8ff" points="330.05,-255.85 337.06,-263.8 336.54,-253.21 330.05,-255.85"/>
</a>
</g>
</g>
<!-- Node2&#45;&gt;Node4 -->
<g id="edge16_Node000002_Node000004" class="edge">
<title>Node2&#45;&gt;Node4</title>
<g id="a_edge16_Node000002_Node000004"><a xlink:title=" ">
<path fill="none" stroke="#63b8ff" d="M377,-258.03C387.47,-250.09 397.8,-239.96 403.83,-228 414.41,-207.02 412.77,-178.87 410.43,-162.17"/>
<polygon fill="#63b8ff" stroke="#63b8ff" points="374.81,-255.29 368.66,-263.92 378.85,-261.01 374.81,-255.29"/>
</a>
</g>
</g>
<!-- Node7 -->
<g id="Node000007" class="node">
<title>Node7</title>
<g id="a_Node000007"><a xlink:href="node_8h.html" target="_top" xlink:title="A node.">
<polygon fill="white" stroke="#666666" points="220.83,-228 92.83,-228 92.83,-198 220.83,-198 220.83,-228"/>
<text text-anchor="start" x="100.83" y="-216" font-family="Helvetica,sans-Serif" font-size="10.00">library/lattice/c/include</text>
<text text-anchor="middle" x="156.83" y="-205" font-family="Helvetica,sans-Serif" font-size="10.00">/tetengo/lattice/node.h</text>
</a>
</g>
</g>
<!-- Node2&#45;&gt;Node7 -->
<g id="edge6_Node000002_Node000007" class="edge">
<title>Node2&#45;&gt;Node7</title>
<g id="a_edge6_Node000002_Node000007"><a xlink:title=" ">
<path fill="none" stroke="#63b8ff" d="M292.23,-260.59C262.49,-250.36 225.4,-237.59 197.55,-228.01"/>
<polygon fill="#63b8ff" stroke="#63b8ff" points="291.42,-264.01 302.01,-263.95 293.7,-257.39 291.42,-264.01"/>
</a>
</g>
</g>
<!-- Node3&#45;&gt;Node4 -->
<g id="edge3_Node000003_Node000004" class="edge">
<title>Node3&#45;&gt;Node4</title>
<g id="a_edge3_Node000003_Node000004"><a xlink:title=" ">
<path fill="none" stroke="#63b8ff" d="M345.23,-192.03C359,-182.34 375.21,-170.94 387.69,-162.16"/>
<polygon fill="#63b8ff" stroke="#63b8ff" points="343.19,-189.18 337.03,-197.8 347.22,-194.91 343.19,-189.18"/>
</a>
</g>
</g>
<!-- Node4&#45;&gt;Node5 -->
<g id="edge4_Node000004_Node000005" class="edge">
<title>Node4&#45;&gt;Node5</title>
<g id="a_edge4_Node000004_Node000005"><a xlink:title=" ">
<path fill="none" stroke="#63b8ff" d="M407.83,-121.54C407.83,-112.96 407.83,-103.61 407.83,-96.16"/>
<polygon fill="#63b8ff" stroke="#63b8ff" points="404.33,-121.8 407.83,-131.8 411.33,-121.8 404.33,-121.8"/>
</a>
</g>
</g>
<!-- Node6 -->
<g id="Node000006" class="node">
<title>Node6</title>
<g id="a_Node000006"><a xlink:href="nBestIterator_8h.html" target="_top" xlink:title="An N&#45;best lattice path iterator.">
<polygon fill="white" stroke="#666666" points="262.83,-30 96.83,-30 96.83,0 262.83,0 262.83,-30"/>
<text text-anchor="start" x="104.83" y="-18" font-family="Helvetica,sans-Serif" font-size="10.00">library/lattice/c/include</text>
<text text-anchor="middle" x="179.83" y="-7" font-family="Helvetica,sans-Serif" font-size="10.00">/tetengo/lattice/nBestIterator.h</text>
</a>
</g>
</g>
<!-- Node5&#45;&gt;Node6 -->
<g id="edge5_Node000005_Node000006" class="edge">
<title>Node5&#45;&gt;Node6</title>
<g id="a_edge5_Node000005_Node000006"><a xlink:title=" ">
<path fill="none" stroke="#63b8ff" d="M347.7,-63.12C310.94,-52.8 264.47,-39.76 229.75,-30.01"/>
<polygon fill="#63b8ff" stroke="#63b8ff" points="347.22,-66.62 357.8,-65.95 349.11,-59.88 347.22,-66.62"/>
</a>
</g>
</g>
<!-- Node7&#45;&gt;Node4 -->
<g id="edge15_Node000007_Node000004" class="edge">
<title>Node7&#45;&gt;Node4</title>
<g id="a_edge15_Node000007_Node000004"><a xlink:title=" ">
<path fill="none" stroke="#63b8ff" d="M221.73,-195.45C262.4,-185.08 314.24,-171.86 352.88,-162.01"/>
<polygon fill="#63b8ff" stroke="#63b8ff" points="220.74,-192.09 211.91,-197.95 222.47,-198.88 220.74,-192.09"/>
</a>
</g>
</g>
<!-- Node7&#45;&gt;Node5 -->
<g id="edge11_Node000007_Node000005" class="edge">
<title>Node7&#45;&gt;Node5</title>
<g id="a_edge11_Node000007_Node000005"><a xlink:title=" ">
<path fill="none" stroke="#63b8ff" d="M197.66,-193.73C217.75,-184.54 242.23,-173.03 263.83,-162 306.62,-140.15 355.26,-112.52 383.65,-96.11"/>
<polygon fill="#63b8ff" stroke="#63b8ff" points="196.13,-190.58 188.48,-197.91 199.03,-196.96 196.13,-190.58"/>
</a>
</g>
</g>
<!-- Node7&#45;&gt;Node6 -->
<g id="edge12_Node000007_Node000006" class="edge">
<title>Node7&#45;&gt;Node6</title>
<g id="a_edge12_Node000007_Node000006"><a xlink:title=" ">
<path fill="none" stroke="#63b8ff" d="M82.86,-198.6C61.51,-191.21 40.14,-179.75 25.83,-162 -1.09,-128.6 -9.7,-100.47 15.83,-66 34.7,-40.52 66.25,-27.59 96.67,-21.18"/>
<polygon fill="#63b8ff" stroke="#63b8ff" points="82.05,-202.01 92.64,-201.71 84.18,-195.34 82.05,-202.01"/>
</a>
</g>
</g>
<!-- Node8 -->
<g id="Node000008" class="node">
<title>Node8</title>
<g id="a_Node000008"><a xlink:href="constraint_8h.html" target="_top" xlink:title="A constraint.">
<polygon fill="white" stroke="#666666" points="176.83,-96 24.83,-96 24.83,-66 176.83,-66 176.83,-96"/>
<text text-anchor="start" x="32.83" y="-84" font-family="Helvetica,sans-Serif" font-size="10.00">library/lattice/c/include</text>
<text text-anchor="middle" x="100.83" y="-73" font-family="Helvetica,sans-Serif" font-size="10.00">/tetengo/lattice/constraint.h</text>
</a>
</g>
</g>
<!-- Node7&#45;&gt;Node8 -->
<g id="edge7_Node000007_Node000008" class="edge">
<title>Node7&#45;&gt;Node8</title>
<g id="a_edge7_Node000007_Node000008"><a xlink:title=" ">
<path fill="none" stroke="#63b8ff" d="M83.01,-197.41C64.2,-190 46.12,-178.83 34.83,-162 27.4,-150.93 28.9,-143.94 34.83,-132 42.57,-116.42 57.74,-104.4 71.58,-96.05"/>
<polygon fill="#63b8ff" stroke="#63b8ff" points="81.99,-200.76 92.58,-200.85 84.36,-194.18 81.99,-200.76"/>
</a>
</g>
</g>
<!-- Node9 -->
<g id="Node000009" class="node">
<title>Node9</title>
<g id="a_Node000009"><a xlink:href="constraintElement_8h.html" target="_top" xlink:title="A constraint element.">
<polygon fill="white" stroke="#666666" points="235.83,-162 43.83,-162 43.83,-132 235.83,-132 235.83,-162"/>
<text text-anchor="start" x="51.83" y="-150" font-family="Helvetica,sans-Serif" font-size="10.00">library/lattice/c/include</text>
<text text-anchor="middle" x="139.83" y="-139" font-family="Helvetica,sans-Serif" font-size="10.00">/tetengo/lattice/constraintElement.h</text>
</a>
</g>
</g>
<!-- Node7&#45;&gt;Node9 -->
<g id="edge9_Node000007_Node000009" class="edge">
<title>Node7&#45;&gt;Node9</title>
<g id="a_edge9_Node000007_Node000009"><a xlink:title=" ">
<path fill="none" stroke="#63b8ff" d="M150.48,-188.11C148.17,-179.38 145.62,-169.78 143.59,-162.16"/>
<polygon fill="#63b8ff" stroke="#63b8ff" points="147.11,-189.03 153.06,-197.8 153.87,-187.23 147.11,-189.03"/>
</a>
</g>
</g>
<!-- Node10 -->
<g id="Node000010" class="node">
<title>Node10</title>
<g id="a_Node000010"><a xlink:href="path_8h.html" target="_top" xlink:title="A path.">
<polygon fill="white" stroke="#666666" points="322.83,-96 194.83,-96 194.83,-66 322.83,-66 322.83,-96"/>
<text text-anchor="start" x="202.83" y="-84" font-family="Helvetica,sans-Serif" font-size="10.00">library/lattice/c/include</text>
<text text-anchor="middle" x="258.83" y="-73" font-family="Helvetica,sans-Serif" font-size="10.00">/tetengo/lattice/path.h</text>
</a>
</g>
</g>
<!-- Node7&#45;&gt;Node10 -->
<g id="edge13_Node000007_Node000010" class="edge">
<title>Node7&#45;&gt;Node10</title>
<g id="a_edge13_Node000007_Node000010"><a xlink:title=" ">
<path fill="none" stroke="#63b8ff" d="M207.12,-193.18C221.33,-185.54 235.45,-175.32 244.83,-162 258.72,-142.29 260.3,-113.22 259.82,-96.08"/>
<polygon fill="#63b8ff" stroke="#63b8ff" points="205.21,-190.22 197.83,-197.82 208.34,-196.48 205.21,-190.22"/>
</a>
</g>
</g>
<!-- Node8&#45;&gt;Node6 -->
<g id="edge8_Node000008_Node000006" class="edge">
<title>Node8&#45;&gt;Node6</title>
<g id="a_edge8_Node000008_Node000006"><a xlink:title=" ">
<path fill="none" stroke="#63b8ff" d="M126.16,-59.48C137.97,-49.91 151.72,-38.77 162.35,-30.16"/>
<polygon fill="#63b8ff" stroke="#63b8ff" points="123.93,-56.78 118.36,-65.8 128.34,-62.22 123.93,-56.78"/>
</a>
</g>
</g>
<!-- Node9&#45;&gt;Node8 -->
<g id="edge10_Node000009_Node000008" class="edge">
<title>Node9&#45;&gt;Node8</title>
<g id="a_edge10_Node000009_Node000008"><a xlink:title=" ">
<path fill="none" stroke="#63b8ff" d="M125.96,-123.24C120.46,-114.21 114.3,-104.11 109.46,-96.16"/>
<polygon fill="#63b8ff" stroke="#63b8ff" points="122.98,-125.08 131.18,-131.8 128.96,-121.44 122.98,-125.08"/>
</a>
</g>
</g>
<!-- Node10&#45;&gt;Node6 -->
<g id="edge14_Node000010_Node000006" class="edge">
<title>Node10&#45;&gt;Node6</title>
<g id="a_edge14_Node000010_Node000006"><a xlink:title=" ">
<path fill="none" stroke="#63b8ff" d="M233.5,-59.48C221.69,-49.91 207.94,-38.77 197.31,-30.16"/>
<polygon fill="#63b8ff" stroke="#63b8ff" points="231.32,-62.22 241.3,-65.8 235.73,-56.78 231.32,-62.22"/>
</a>
</g>
</g>
</g>
</svg>

<g id="navigator" transform="translate(0 0)" fill="#404254">
  <rect fill="#f2f5e9" fill-opacity="0.5" stroke="#606060" stroke-width=".5" x="0" y="0" width="60" height="60"/>
  <use id="zoomplus" xlink:href="#zoomPlus" x="17" y="9" onmousedown="handleZoom(evt,'in')"/>
  <use id="zoomminus" xlink:href="#zoomMin" x="42" y="9" onmousedown="handleZoom(evt,'out')"/>
  <use id="reset" xlink:href="#resetDef" x="30" y="36" onmousedown="handleReset()"/>
   <use id="arrowup" xlink:href="#arrowUp" x="0" y="0" onmousedown="handlePan(0,-1)"/>
  <use id="arrowright" xlink:href="#arrowRight" x="0" y="0" onmousedown="handlePan(1,0)"/>
  <use id="arrowdown" xlink:href="#arrowDown" x="0" y="0" onmousedown="handlePan(0,1)"/>
  <use id="arrowleft" xlink:href="#arrowLeft" x="0" y="0" onmousedown="handlePan(-1,0)"/>
</g>
<svg viewBox="0 0 15 15" width="100%" height="30px" preserveAspectRatio="xMaxYMin meet">
 <g id="arrow_out" transform="scale(0.3 0.3)">
  <a xlink:href="input_8h__dep__incl_org.svg" target="_base">
   <rect id="button" ry="5" rx="5" y="6" x="6" height="38" width="38"
        fill="#f2f5e9" fill-opacity="0.5" stroke="#606060" stroke-width="1.0"/>
   <path id="arrow"
     d="M 11.500037,31.436501 C 11.940474,20.09759 22.043105,11.32322 32.158766,21.979434 L 37.068811,17.246167 C 37.068811,17.246167 37.088388,32 37.088388,32 L 22.160133,31.978069 C 22.160133,31.978069 26.997745,27.140456 26.997745,27.140456 C 18.528582,18.264221 13.291696,25.230495 11.500037,31.436501 z"
     style="fill:#404040;"/>
  </a>
 </g>
</svg>

<style type='text/css'>
<![CDATA[
[data-mouse-over-selected='false'] { opacity: 0.7; }
[data-mouse-over-selected='true']  { opacity: 1.0; }
]]>
</style>
<script type="application/ecmascript"><![CDATA[
document.addEventListener('DOMContentLoaded', (event) => {
  highlightEdges();
  highlightAdjacentNodes();
});
]]></script>
</svg>
