<?xml version="1.0" encoding="UTF-8" standalone="no"?>
<!DOCTYPE svg PUBLIC "-//W3C//DTD SVG 1.1//EN"
 "http://www.w3.org/Graphics/SVG/1.1/DTD/svg11.dtd">
<!-- Generated by graphviz version 2.43.0 (0)
 -->
<!-- Title: library/lattice/cpp/include/tetengo/lattice/n_best_iterator.hpp Pages: 1 -->
<!--zoomable 335 -->

<svg id="main" version="1.1" xmlns="http://www.w3.org/2000/svg" xmlns:xlink="http://www.w3.org/1999/xlink" xml:space="preserve" onload="init(evt)">

<style type="text/css"><![CDATA[
.node, .edge {opacity: 0.7;}
.node.selected, .edge.selected {opacity: 1;}
.edge:hover path { stroke: red; }
.edge:hover polygon { stroke: red; fill: red; }
]]></style>

<defs>
  <circle id="rim" cx="0" cy="0" r="7"/>
  <circle id="rim2" cx="0" cy="0" r="3.5"/>
  <g id="zoomPlus">
    <use xlink:href="#rim" fill="#404040"><set attributeName="fill" to="#808080" begin="zoomplus.mouseover" end="zoomplus.mouseout"/></use>
    <path d="M-4,0h8M0,-4v8" fill="none" stroke="white" stroke-width="1.5" pointer-events="none"/>
  </g>
  <g id="zoomMin">
    <use xlink:href="#rim" fill="#404040"><set attributeName="fill" to="#808080" begin="zoomminus.mouseover" end="zoomminus.mouseout"/></use>
    <path d="M-4,0h8" fill="none" stroke="white" stroke-width="1.5" pointer-events="none"/>
  </g>
  <g id="arrowUp" transform="translate(30 24)">
    <use xlink:href="#rim"/>
    <path pointer-events="none" fill="none" stroke="white" stroke-width="1.5" d="M0,-3.0v7 M-2.5,-0.5L0,-3.0L2.5,-0.5"/>
  </g>
  <g id="arrowRight" transform="rotate(90) translate(36 -43)">
    <use xlink:href="#rim"/>
    <path pointer-events="none" fill="none" stroke="white" stroke-width="1.5" d="M0,-3.0v7 M-2.5,-0.5L0,-3.0L2.5,-0.5"/>
  </g>
  <g id="arrowDown" transform="rotate(180) translate(-30 -48)">
    <use xlink:href="#rim"/>
    <path pointer-events="none" fill="none" stroke="white" stroke-width="1.5" d="M0,-3.0v7 M-2.5,-0.5L0,-3.0L2.5,-0.5"/>
  </g>
  <g id="arrowLeft" transform="rotate(270) translate(-36 17)">
    <use xlink:href="#rim"/>
    <path pointer-events="none" fill="none" stroke="white" stroke-width="1.5" d="M0,-3.0v7 M-2.5,-0.5L0,-3.0L2.5,-0.5"/>
  </g>
  <g id="resetDef">
    <use xlink:href="#rim2" fill="#404040"><set attributeName="fill" to="#808080" begin="reset.mouseover" end="reset.mouseout"/></use>
  </g>
</defs>
<script type="application/ecmascript">
var viewWidth = 957;
var viewHeight = 335;
var sectionId = 'dynsection-0';
</script>
<script type="application/ecmascript" xlink:href="svg.min.js"/>
<svg id="graph" class="graph">
<g id="viewport">
<title>library/lattice/cpp/include/tetengo/lattice/n_best_iterator.hpp</title>
<!-- Node1 -->
<g id="Node000001" class="node">
<title>Node1</title>
<g id="a_Node000001"><a xlink:title="An N&#45;best lattice path iterator.">
<polygon fill="#999999" stroke="#666666" points="622,-327 493,-327 493,-286 622,-286 622,-327"/>
<text text-anchor="start" x="501" y="-315" font-family="Helvetica,sans-Serif" font-size="10.00">library/lattice/cpp</text>
<text text-anchor="start" x="501" y="-304" font-family="Helvetica,sans-Serif" font-size="10.00">/include/tetengo/lattice</text>
<text text-anchor="middle" x="557.5" y="-293" font-family="Helvetica,sans-Serif" font-size="10.00">/n_best_iterator.hpp</text>
</a>
</g>
</g>
<!-- Node2 -->
<g id="Node000002" class="node">
<title>Node2</title>
<g id="a_Node000002"><a xlink:title=" ">
<polygon fill="#e0e0e0" stroke="#999999" points="53,-19 0,-19 0,0 53,0 53,-19"/>
<text text-anchor="middle" x="26.5" y="-7" font-family="Helvetica,sans-Serif" font-size="10.00">cstddef</text>
</a>
</g>
</g>
<!-- Node1&#45;&gt;Node2 -->
<g id="edge1_Node000001_Node000002" class="edge">
<title>Node1&#45;&gt;Node2</title>
<g id="a_edge1_Node000001_Node000002"><a xlink:title=" ">
<path fill="none" stroke="#63b8ff" d="M492.75,-303.44C349.54,-297.12 18.5,-272.06 18.5,-175.5 18.5,-175.5 18.5,-175.5 18.5,-118.5 18.5,-87.1 21.9,-50.71 24.27,-29.2"/>
<polygon fill="#63b8ff" stroke="#63b8ff" points="27.76,-29.5 25.42,-19.16 20.81,-28.7 27.76,-29.5"/>
</a>
</g>
</g>
<!-- Node3 -->
<g id="Node000003" class="node">
<title>Node3</title>
<g id="a_Node000003"><a xlink:title=" ">
<polygon fill="#e0e0e0" stroke="#999999" points="670,-244.5 605,-244.5 605,-225.5 670,-225.5 670,-244.5"/>
<text text-anchor="middle" x="637.5" y="-232.5" font-family="Helvetica,sans-Serif" font-size="10.00">functional</text>
</a>
</g>
</g>
<!-- Node1&#45;&gt;Node3 -->
<g id="edge2_Node000001_Node000003" class="edge">
<title>Node1&#45;&gt;Node3</title>
<g id="a_edge2_Node000001_Node000003"><a xlink:title=" ">
<path fill="none" stroke="#63b8ff" d="M580.21,-285.77C592.7,-274.92 607.98,-261.65 619.61,-251.54"/>
<polygon fill="#63b8ff" stroke="#63b8ff" points="622.09,-254.02 627.35,-244.82 617.5,-248.74 622.09,-254.02"/>
</a>
</g>
</g>
<!-- Node4 -->
<g id="Node000004" class="node">
<title>Node4</title>
<g id="a_Node000004"><a xlink:title=" ">
<polygon fill="#e0e0e0" stroke="#999999" points="741,-244.5 688,-244.5 688,-225.5 741,-225.5 741,-244.5"/>
<text text-anchor="middle" x="714.5" y="-232.5" font-family="Helvetica,sans-Serif" font-size="10.00">iterator</text>
</a>
</g>
</g>
<!-- Node1&#45;&gt;Node4 -->
<g id="edge3_Node000001_Node000004" class="edge">
<title>Node1&#45;&gt;Node4</title>
<g id="a_edge3_Node000001_Node000004"><a xlink:title=" ">
<path fill="none" stroke="#63b8ff" d="M601.65,-285.96C628.63,-274.01 662.36,-259.08 685.88,-248.67"/>
<polygon fill="#63b8ff" stroke="#63b8ff" points="687.56,-251.75 695.29,-244.5 684.73,-245.35 687.56,-251.75"/>
</a>
</g>
</g>
<!-- Node5 -->
<g id="Node000005" class="node">
<title>Node5</title>
<g id="a_Node000005"><a xlink:title=" ">
<polygon fill="#e0e0e0" stroke="#999999" points="377.5,-19 319.5,-19 319.5,0 377.5,0 377.5,-19"/>
<text text-anchor="middle" x="348.5" y="-7" font-family="Helvetica,sans-Serif" font-size="10.00">memory</text>
</a>
</g>
</g>
<!-- Node1&#45;&gt;Node5 -->
<g id="edge4_Node000001_Node000005" class="edge">
<title>Node1&#45;&gt;Node5</title>
<g id="a_edge4_Node000001_Node000005"><a xlink:title=" ">
<path fill="none" stroke="#63b8ff" d="M552.8,-285.81C547.18,-260.46 538.5,-214.96 538.5,-175.5 538.5,-175.5 538.5,-175.5 538.5,-118.5 538.5,-83.32 438.79,-42.43 383.83,-22.57"/>
<polygon fill="#63b8ff" stroke="#63b8ff" points="384.72,-19.17 374.12,-19.11 382.37,-25.76 384.72,-19.17"/>
</a>
</g>
</g>
<!-- Node6 -->
<g id="Node000006" class="node">
<title>Node6</title>
<g id="a_Node000006"><a xlink:title=" ">
<polygon fill="#e0e0e0" stroke="#999999" points="806,-244.5 759,-244.5 759,-225.5 806,-225.5 806,-244.5"/>
<text text-anchor="middle" x="782.5" y="-232.5" font-family="Helvetica,sans-Serif" font-size="10.00">queue</text>
</a>
</g>
</g>
<!-- Node1&#45;&gt;Node6 -->
<g id="edge5_Node000001_Node000006" class="edge">
<title>Node1&#45;&gt;Node6</title>
<g id="a_edge5_Node000001_Node000006"><a xlink:title=" ">
<path fill="none" stroke="#63b8ff" d="M622.07,-289.23C659.89,-279.13 708.36,-265.2 750.5,-250 751.89,-249.5 753.31,-248.97 754.73,-248.41"/>
<polygon fill="#63b8ff" stroke="#63b8ff" points="756.15,-251.61 764.05,-244.57 753.48,-245.14 756.15,-251.61"/>
</a>
</g>
</g>
<!-- Node7 -->
<g id="Node000007" class="node">
<title>Node7</title>
<g id="a_Node000007"><a xlink:title=" ">
<polygon fill="#e0e0e0" stroke="#999999" points="510,-129 463,-129 463,-110 510,-110 510,-129"/>
<text text-anchor="middle" x="486.5" y="-117" font-family="Helvetica,sans-Serif" font-size="10.00">vector</text>
</a>
</g>
</g>
<!-- Node1&#45;&gt;Node7 -->
<g id="edge6_Node000001_Node000007" class="edge">
<title>Node1&#45;&gt;Node7</title>
<g id="a_edge6_Node000001_Node000007"><a xlink:title=" ">
<path fill="none" stroke="#63b8ff" d="M544.17,-285.85C537.59,-275.51 529.92,-262.43 524.5,-250 507.95,-212.02 496.13,-164.72 490.41,-139.1"/>
<polygon fill="#63b8ff" stroke="#63b8ff" points="493.81,-138.28 488.27,-129.25 486.97,-139.76 493.81,-138.28"/>
</a>
</g>
</g>
<!-- Node8 -->
<g id="Node000008" class="node">
<title>Node8</title>
<g id="a_Node000008"><a xlink:title=" ">
<polygon fill="#e0e0e0" stroke="#999999" points="509.5,-19 395.5,-19 395.5,0 509.5,0 509.5,-19"/>
<text text-anchor="middle" x="452.5" y="-7" font-family="Helvetica,sans-Serif" font-size="10.00">boost/operators.hpp</text>
</a>
</g>
</g>
<!-- Node1&#45;&gt;Node8 -->
<g id="edge7_Node000001_Node000008" class="edge">
<title>Node1&#45;&gt;Node8</title>
<g id="a_edge7_Node000001_Node000008"><a xlink:title=" ">
<path fill="none" stroke="#63b8ff" d="M562.2,-285.81C567.82,-260.46 576.5,-214.96 576.5,-175.5 576.5,-175.5 576.5,-175.5 576.5,-118.5 576.5,-88.33 573.21,-76.94 552.5,-55 537.95,-39.59 517.09,-29.16 498.18,-22.29"/>
<polygon fill="#63b8ff" stroke="#63b8ff" points="499.11,-18.91 488.52,-19.02 496.87,-25.54 499.11,-18.91"/>
</a>
</g>
</g>
<!-- Node9 -->
<g id="Node000009" class="node">
<title>Node9</title>
<g id="a_Node000009"><a xlink:title=" ">
<polygon fill="#e0e0e0" stroke="#999999" points="949,-250 824,-250 824,-220 949,-220 949,-250"/>
<text text-anchor="start" x="832" y="-238" font-family="Helvetica,sans-Serif" font-size="10.00">boost/stl_interfaces</text>
<text text-anchor="middle" x="886.5" y="-227" font-family="Helvetica,sans-Serif" font-size="10.00">/iterator_interface.hpp</text>
</a>
</g>
</g>
<!-- Node1&#45;&gt;Node9 -->
<g id="edge8_Node000001_Node000009" class="edge">
<title>Node1&#45;&gt;Node9</title>
<g id="a_edge8_Node000001_Node000009"><a xlink:title=" ">
<path fill="none" stroke="#63b8ff" d="M622.11,-291.85C677.27,-280.2 756.57,-263.45 813.91,-251.33"/>
<polygon fill="#63b8ff" stroke="#63b8ff" points="814.93,-254.7 823.99,-249.2 813.49,-247.85 814.93,-254.7"/>
</a>
</g>
</g>
<!-- Node10 -->
<g id="Node000010" class="node">
<title>Node10</title>
<g id="a_Node000010"><a xlink:href="node_8hpp.html" target="_top" xlink:title="A node.">
<polygon fill="white" stroke="#666666" points="378.5,-184 242.5,-184 242.5,-165 378.5,-165 378.5,-184"/>
<text text-anchor="middle" x="310.5" y="-172" font-family="Helvetica,sans-Serif" font-size="10.00">tetengo/lattice/node.hpp</text>
</a>
</g>
</g>
<!-- Node1&#45;&gt;Node10 -->
<g id="edge9_Node000001_Node000010" class="edge">
<title>Node1&#45;&gt;Node10</title>
<g id="a_edge9_Node000001_Node000010"><a xlink:title=" ">
<path fill="none" stroke="#63b8ff" d="M492.9,-297.28C433.87,-288.47 352.38,-272.63 329.5,-250 314.85,-235.51 310.96,-211.4 310.18,-194.55"/>
<polygon fill="#63b8ff" stroke="#63b8ff" points="313.68,-194.2 310.04,-184.25 306.68,-194.29 313.68,-194.2"/>
</a>
</g>
</g>
<!-- Node17 -->
<g id="Node000017" class="node">
<title>Node17</title>
<g id="a_Node000017"><a xlink:href="path_8hpp.html" target="_top" xlink:title="A path.">
<polygon fill="white" stroke="#666666" points="472.5,-244.5 338.5,-244.5 338.5,-225.5 472.5,-225.5 472.5,-244.5"/>
<text text-anchor="middle" x="405.5" y="-232.5" font-family="Helvetica,sans-Serif" font-size="10.00">tetengo/lattice/path.hpp</text>
</a>
</g>
</g>
<!-- Node1&#45;&gt;Node17 -->
<g id="edge26_Node000001_Node000017" class="edge">
<title>Node1&#45;&gt;Node17</title>
<g id="a_edge26_Node000001_Node000017"><a xlink:title=" ">
<path fill="none" stroke="#63b8ff" d="M514.76,-285.96C488.63,-274.01 455.98,-259.08 433.21,-248.67"/>
<polygon fill="#63b8ff" stroke="#63b8ff" points="434.65,-245.48 424.1,-244.5 431.74,-251.84 434.65,-245.48"/>
</a>
</g>
</g>
<!-- Node10&#45;&gt;Node2 -->
<g id="edge12_Node000010_Node000002" class="edge">
<title>Node10&#45;&gt;Node2</title>
<g id="a_edge12_Node000010_Node000002"><a xlink:title=" ">
<path fill="none" stroke="#63b8ff" d="M253.81,-164.96C221.68,-158.42 181.62,-147.31 149.5,-129 102.26,-102.07 59.59,-52.91 39.17,-27.2"/>
<polygon fill="#63b8ff" stroke="#63b8ff" points="41.82,-24.89 32.91,-19.15 36.29,-29.19 41.82,-24.89"/>
</a>
</g>
</g>
<!-- Node10&#45;&gt;Node7 -->
<g id="edge13_Node000010_Node000007" class="edge">
<title>Node10&#45;&gt;Node7</title>
<g id="a_edge13_Node000010_Node000007"><a xlink:title=" ">
<path fill="none" stroke="#63b8ff" d="M338.78,-164.98C369.95,-155.6 420.06,-140.51 453.13,-130.55"/>
<polygon fill="#63b8ff" stroke="#63b8ff" points="454.24,-133.87 462.81,-127.63 452.22,-127.17 454.24,-133.87"/>
</a>
</g>
</g>
<!-- Node10&#45;&gt;Node8 -->
<g id="edge14_Node000010_Node000008" class="edge">
<title>Node10&#45;&gt;Node8</title>
<g id="a_edge14_Node000010_Node000008"><a xlink:title=" ">
<path fill="none" stroke="#63b8ff" d="M336.46,-164.96C355.06,-157.77 379.68,-145.94 396.5,-129 425,-100.31 440.92,-54.35 447.99,-28.92"/>
<polygon fill="#63b8ff" stroke="#63b8ff" points="451.41,-29.67 450.56,-19.11 444.64,-27.89 451.41,-29.67"/>
</a>
</g>
</g>
<!-- Node11 -->
<g id="Node000011" class="node">
<title>Node11</title>
<g id="a_Node000011"><a xlink:title=" ">
<polygon fill="#e0e0e0" stroke="#999999" points="415,-74 380,-74 380,-55 415,-55 415,-74"/>
<text text-anchor="middle" x="397.5" y="-62" font-family="Helvetica,sans-Serif" font-size="10.00">any</text>
</a>
</g>
</g>
<!-- Node10&#45;&gt;Node11 -->
<g id="edge10_Node000010_Node000011" class="edge">
<title>Node10&#45;&gt;Node11</title>
<g id="a_edge10_Node000010_Node000011"><a xlink:title=" ">
<path fill="none" stroke="#63b8ff" d="M330.19,-164.94C345.18,-157.48 365.25,-145.29 377.5,-129 387.38,-115.87 392.45,-97.73 395.01,-84.2"/>
<polygon fill="#63b8ff" stroke="#63b8ff" points="398.5,-84.56 396.62,-74.14 391.59,-83.46 398.5,-84.56"/>
</a>
</g>
</g>
<!-- Node12 -->
<g id="Node000012" class="node">
<title>Node12</title>
<g id="a_Node000012"><a xlink:title=" ">
<polygon fill="#e0e0e0" stroke="#999999" points="123.5,-19 71.5,-19 71.5,0 123.5,0 123.5,-19"/>
<text text-anchor="middle" x="97.5" y="-7" font-family="Helvetica,sans-Serif" font-size="10.00">cassert</text>
</a>
</g>
</g>
<!-- Node10&#45;&gt;Node12 -->
<g id="edge11_Node000010_Node000012" class="edge">
<title>Node10&#45;&gt;Node12</title>
<g id="a_edge11_Node000010_Node000012"><a xlink:title=" ">
<path fill="none" stroke="#63b8ff" d="M271.54,-164.92C226.14,-152.78 152.38,-126.02 113.5,-74 103.82,-61.05 99.96,-42.9 98.44,-29.31"/>
<polygon fill="#63b8ff" stroke="#63b8ff" points="101.91,-28.89 97.63,-19.2 94.94,-29.44 101.91,-28.89"/>
</a>
</g>
</g>
<!-- Node13 -->
<g id="Node000013" class="node">
<title>Node13</title>
<g id="a_Node000013"><a xlink:href="entry_8hpp.html" target="_top" xlink:title="An entry.">
<polygon fill="white" stroke="#666666" points="368.5,-129 232.5,-129 232.5,-110 368.5,-110 368.5,-129"/>
<text text-anchor="middle" x="300.5" y="-117" font-family="Helvetica,sans-Serif" font-size="10.00">tetengo/lattice/entry.hpp</text>
</a>
</g>
</g>
<!-- Node10&#45;&gt;Node13 -->
<g id="edge15_Node000010_Node000013" class="edge">
<title>Node10&#45;&gt;Node13</title>
<g id="a_edge15_Node000010_Node000013"><a xlink:title=" ">
<path fill="none" stroke="#63b8ff" d="M308.85,-164.75C307.54,-157.8 305.66,-147.85 304.02,-139.13"/>
<polygon fill="#63b8ff" stroke="#63b8ff" points="307.41,-138.27 302.12,-129.09 300.54,-139.56 307.41,-138.27"/>
</a>
</g>
</g>
<!-- Node15 -->
<g id="Node000015" class="node">
<title>Node15</title>
<g id="a_Node000015"><a xlink:href="input_8hpp.html" target="_top" xlink:title="An input.">
<polygon fill="white" stroke="#666666" points="260,-74 123,-74 123,-55 260,-55 260,-74"/>
<text text-anchor="middle" x="191.5" y="-62" font-family="Helvetica,sans-Serif" font-size="10.00">tetengo/lattice/input.hpp</text>
</a>
</g>
</g>
<!-- Node10&#45;&gt;Node15 -->
<g id="edge25_Node000010_Node000015" class="edge">
<title>Node10&#45;&gt;Node15</title>
<g id="a_edge25_Node000010_Node000015"><a xlink:title=" ">
<path fill="none" stroke="#63b8ff" d="M283.81,-164.9C265.04,-157.74 240.36,-145.97 223.5,-129 211,-116.43 202.46,-97.98 197.36,-84.2"/>
<polygon fill="#63b8ff" stroke="#63b8ff" points="200.54,-82.69 194.01,-74.36 193.92,-84.95 200.54,-82.69"/>
</a>
</g>
</g>
<!-- Node13&#45;&gt;Node5 -->
<g id="edge17_Node000013_Node000005" class="edge">
<title>Node13&#45;&gt;Node5</title>
<g id="a_edge17_Node000013_Node000005"><a xlink:title=" ">
<path fill="none" stroke="#63b8ff" d="M307.89,-109.86C314.89,-101.28 325.23,-87.49 331.5,-74 338.2,-59.59 342.64,-42.07 345.29,-29.09"/>
<polygon fill="#63b8ff" stroke="#63b8ff" points="348.78,-29.52 347.18,-19.04 341.9,-28.22 348.78,-29.52"/>
</a>
</g>
</g>
<!-- Node13&#45;&gt;Node11 -->
<g id="edge16_Node000013_Node000011" class="edge">
<title>Node13&#45;&gt;Node11</title>
<g id="a_edge16_Node000013_Node000011"><a xlink:title=" ">
<path fill="none" stroke="#63b8ff" d="M316.08,-109.98C331.27,-101.69 354.6,-88.94 372.4,-79.22"/>
<polygon fill="#63b8ff" stroke="#63b8ff" points="374.53,-82.04 381.63,-74.17 371.18,-75.89 374.53,-82.04"/>
</a>
</g>
</g>
<!-- Node14 -->
<g id="Node000014" class="node">
<title>Node14</title>
<g id="a_Node000014"><a xlink:title=" ">
<polygon fill="#e0e0e0" stroke="#999999" points="323,-74 278,-74 278,-55 323,-55 323,-74"/>
<text text-anchor="middle" x="300.5" y="-62" font-family="Helvetica,sans-Serif" font-size="10.00">utility</text>
</a>
</g>
</g>
<!-- Node13&#45;&gt;Node14 -->
<g id="edge18_Node000013_Node000014" class="edge">
<title>Node13&#45;&gt;Node14</title>
<g id="a_edge18_Node000013_Node000014"><a xlink:title=" ">
<path fill="none" stroke="#63b8ff" d="M300.5,-109.75C300.5,-102.8 300.5,-92.85 300.5,-84.13"/>
<polygon fill="#63b8ff" stroke="#63b8ff" points="304,-84.09 300.5,-74.09 297,-84.09 304,-84.09"/>
</a>
</g>
</g>
<!-- Node13&#45;&gt;Node15 -->
<g id="edge19_Node000013_Node000015" class="edge">
<title>Node13&#45;&gt;Node15</title>
<g id="a_edge19_Node000013_Node000015"><a xlink:title=" ">
<path fill="none" stroke="#63b8ff" d="M282.99,-109.98C265.53,-101.5 238.49,-88.35 218.33,-78.54"/>
<polygon fill="#63b8ff" stroke="#63b8ff" points="219.86,-75.4 209.33,-74.17 216.79,-81.69 219.86,-75.4"/>
</a>
</g>
</g>
<!-- Node15&#45;&gt;Node2 -->
<g id="edge21_Node000015_Node000002" class="edge">
<title>Node15&#45;&gt;Node2</title>
<g id="a_edge21_Node000015_Node000002"><a xlink:title=" ">
<path fill="none" stroke="#63b8ff" d="M164.99,-54.98C137.29,-46.09 93.64,-32.07 62.76,-22.15"/>
<polygon fill="#63b8ff" stroke="#63b8ff" points="63.81,-18.81 53.22,-19.08 61.67,-25.47 63.81,-18.81"/>
</a>
</g>
</g>
<!-- Node15&#45;&gt;Node5 -->
<g id="edge22_Node000015_Node000005" class="edge">
<title>Node15&#45;&gt;Node5</title>
<g id="a_edge22_Node000015_Node000005"><a xlink:title=" ">
<path fill="none" stroke="#63b8ff" d="M216.72,-54.98C242.86,-46.16 283.9,-32.31 313.23,-22.41"/>
<polygon fill="#63b8ff" stroke="#63b8ff" points="314.72,-25.6 323.08,-19.08 312.48,-18.96 314.72,-25.6"/>
</a>
</g>
</g>
<!-- Node15&#45;&gt;Node8 -->
<g id="edge24_Node000015_Node000008" class="edge">
<title>Node15&#45;&gt;Node8</title>
<g id="a_edge24_Node000015_Node000008"><a xlink:title=" ">
<path fill="none" stroke="#63b8ff" d="M233.43,-54.98C278.77,-45.78 351.11,-31.09 400.15,-21.13"/>
<polygon fill="#63b8ff" stroke="#63b8ff" points="401.13,-24.5 410.24,-19.08 399.74,-17.64 401.13,-24.5"/>
</a>
</g>
</g>
<!-- Node15&#45;&gt;Node12 -->
<g id="edge20_Node000015_Node000012" class="edge">
<title>Node15&#45;&gt;Node12</title>
<g id="a_edge20_Node000015_Node000012"><a xlink:title=" ">
<path fill="none" stroke="#63b8ff" d="M176.4,-54.98C161.68,-46.69 139.08,-33.94 121.83,-24.22"/>
<polygon fill="#63b8ff" stroke="#63b8ff" points="123.31,-21.03 112.88,-19.17 119.87,-27.13 123.31,-21.03"/>
</a>
</g>
</g>
<!-- Node16 -->
<g id="Node000016" class="node">
<title>Node16</title>
<g id="a_Node000016"><a xlink:title=" ">
<polygon fill="#e0e0e0" stroke="#999999" points="295.5,-19 141.5,-19 141.5,0 295.5,0 295.5,-19"/>
<text text-anchor="middle" x="218.5" y="-7" font-family="Helvetica,sans-Serif" font-size="10.00">boost/core/noncopyable.hpp</text>
</a>
</g>
</g>
<!-- Node15&#45;&gt;Node16 -->
<g id="edge23_Node000015_Node000016" class="edge">
<title>Node15&#45;&gt;Node16</title>
<g id="a_edge23_Node000015_Node000016"><a xlink:title=" ">
<path fill="none" stroke="#63b8ff" d="M195.96,-54.75C199.62,-47.57 204.91,-37.18 209.45,-28.27"/>
<polygon fill="#63b8ff" stroke="#63b8ff" points="212.7,-29.59 214.12,-19.09 206.47,-26.41 212.7,-29.59"/>
</a>
</g>
</g>
<!-- Node17&#45;&gt;Node7 -->
<g id="edge27_Node000017_Node000007" class="edge">
<title>Node17&#45;&gt;Node7</title>
<g id="a_edge27_Node000017_Node000007"><a xlink:title=" ">
<path fill="none" stroke="#63b8ff" d="M411.59,-225.47C424.9,-206.82 456.8,-162.11 474.38,-137.49"/>
<polygon fill="#63b8ff" stroke="#63b8ff" points="477.38,-139.3 480.34,-129.13 471.68,-135.24 477.38,-139.3"/>
</a>
</g>
</g>
<!-- Node17&#45;&gt;Node10 -->
<g id="edge28_Node000017_Node000010" class="edge">
<title>Node17&#45;&gt;Node10</title>
<g id="a_edge28_Node000017_Node000010"><a xlink:title=" ">
<path fill="none" stroke="#63b8ff" d="M391.48,-225.37C376.19,-215.95 351.47,-200.73 333.36,-189.58"/>
<polygon fill="#63b8ff" stroke="#63b8ff" points="334.93,-186.43 324.58,-184.17 331.25,-192.39 334.93,-186.43"/>
</a>
</g>
</g>
</g>
</svg>

<g id="navigator" transform="translate(0 0)" fill="#404254">
  <rect fill="#f2f5e9" fill-opacity="0.5" stroke="#606060" stroke-width=".5" x="0" y="0" width="60" height="60"/>
  <use id="zoomplus" xlink:href="#zoomPlus" x="17" y="9" onmousedown="handleZoom(evt,'in')"/>
  <use id="zoomminus" xlink:href="#zoomMin" x="42" y="9" onmousedown="handleZoom(evt,'out')"/>
  <use id="reset" xlink:href="#resetDef" x="30" y="36" onmousedown="handleReset()"/>
   <use id="arrowup" xlink:href="#arrowUp" x="0" y="0" onmousedown="handlePan(0,-1)"/>
  <use id="arrowright" xlink:href="#arrowRight" x="0" y="0" onmousedown="handlePan(1,0)"/>
  <use id="arrowdown" xlink:href="#arrowDown" x="0" y="0" onmousedown="handlePan(0,1)"/>
  <use id="arrowleft" xlink:href="#arrowLeft" x="0" y="0" onmousedown="handlePan(-1,0)"/>
</g>
<svg viewBox="0 0 15 15" width="100%" height="30px" preserveAspectRatio="xMaxYMin meet">
 <g id="arrow_out" transform="scale(0.3 0.3)">
  <a xlink:href="n__best__iterator_8hpp__incl_org.svg" target="_base">
   <rect id="button" ry="5" rx="5" y="6" x="6" height="38" width="38"
        fill="#f2f5e9" fill-opacity="0.5" stroke="#606060" stroke-width="1.0"/>
   <path id="arrow"
     d="M 11.500037,31.436501 C 11.940474,20.09759 22.043105,11.32322 32.158766,21.979434 L 37.068811,17.246167 C 37.068811,17.246167 37.088388,32 37.088388,32 L 22.160133,31.978069 C 22.160133,31.978069 26.997745,27.140456 26.997745,27.140456 C 18.528582,18.264221 13.291696,25.230495 11.500037,31.436501 z"
     style="fill:#404040;"/>
  </a>
 </g>
</svg>

<style type='text/css'>
<![CDATA[
[data-mouse-over-selected='false'] { opacity: 0.7; }
[data-mouse-over-selected='true']  { opacity: 1.0; }
]]>
</style>
<script type="application/ecmascript"><![CDATA[
document.addEventListener('DOMContentLoaded', (event) => {
  highlightEdges();
  highlightAdjacentNodes();
});
]]></script>
</svg>
