<?xml version="1.0" encoding="UTF-8" standalone="no"?>
<!DOCTYPE svg PUBLIC "-//W3C//DTD SVG 1.1//EN"
 "http://www.w3.org/Graphics/SVG/1.1/DTD/svg11.dtd">
<!-- Generated by graphviz version 2.43.0 (0)
 -->
<!-- Title: library/lattice/c/include/tetengo/lattice/nBestIterator.h Pages: 1 -->
<!--zoomable 379 -->

<svg id="main" version="1.1" xmlns="http://www.w3.org/2000/svg" xmlns:xlink="http://www.w3.org/1999/xlink" xml:space="preserve" onload="init(evt)">

<style type="text/css"><![CDATA[
.node, .edge {opacity: 0.7;}
.node.selected, .edge.selected {opacity: 1;}
.edge:hover path { stroke: red; }
.edge:hover polygon { stroke: red; fill: red; }
]]></style>

<defs>
  <circle id="rim" cx="0" cy="0" r="7"/>
  <circle id="rim2" cx="0" cy="0" r="3.5"/>
  <g id="zoomPlus">
    <use xlink:href="#rim" fill="#404040"><set attributeName="fill" to="#808080" begin="zoomplus.mouseover" end="zoomplus.mouseout"/></use>
    <path d="M-4,0h8M0,-4v8" fill="none" stroke="white" stroke-width="1.5" pointer-events="none"/>
  </g>
  <g id="zoomMin">
    <use xlink:href="#rim" fill="#404040"><set attributeName="fill" to="#808080" begin="zoomminus.mouseover" end="zoomminus.mouseout"/></use>
    <path d="M-4,0h8" fill="none" stroke="white" stroke-width="1.5" pointer-events="none"/>
  </g>
  <g id="arrowUp" transform="translate(30 24)">
    <use xlink:href="#rim"/>
    <path pointer-events="none" fill="none" stroke="white" stroke-width="1.5" d="M0,-3.0v7 M-2.5,-0.5L0,-3.0L2.5,-0.5"/>
  </g>
  <g id="arrowRight" transform="rotate(90) translate(36 -43)">
    <use xlink:href="#rim"/>
    <path pointer-events="none" fill="none" stroke="white" stroke-width="1.5" d="M0,-3.0v7 M-2.5,-0.5L0,-3.0L2.5,-0.5"/>
  </g>
  <g id="arrowDown" transform="rotate(180) translate(-30 -48)">
    <use xlink:href="#rim"/>
    <path pointer-events="none" fill="none" stroke="white" stroke-width="1.5" d="M0,-3.0v7 M-2.5,-0.5L0,-3.0L2.5,-0.5"/>
  </g>
  <g id="arrowLeft" transform="rotate(270) translate(-36 17)">
    <use xlink:href="#rim"/>
    <path pointer-events="none" fill="none" stroke="white" stroke-width="1.5" d="M0,-3.0v7 M-2.5,-0.5L0,-3.0L2.5,-0.5"/>
  </g>
  <g id="resetDef">
    <use xlink:href="#rim2" fill="#404040"><set attributeName="fill" to="#808080" begin="reset.mouseover" end="reset.mouseout"/></use>
  </g>
</defs>
<script type="application/ecmascript">
var viewWidth = 847;
var viewHeight = 379;
var sectionId = 'dynsection-0';
</script>
<script type="application/ecmascript" xlink:href="svg.min.js"/>
<svg id="graph" class="graph">
<g id="viewport">
<title>library/lattice/c/include/tetengo/lattice/nBestIterator.h</title>
<!-- Node1 -->
<g id="Node000001" class="node">
<title>Node1</title>
<g id="a_Node000001"><a xlink:title="An N&#45;best lattice path iterator.">
<polygon fill="#999999" stroke="#666666" points="445.18,-371 279.18,-371 279.18,-341 445.18,-341 445.18,-371"/>
<text text-anchor="start" x="287.18" y="-359" font-family="Helvetica,sans-Serif" font-size="10.00">library/lattice/c/include</text>
<text text-anchor="middle" x="362.18" y="-348" font-family="Helvetica,sans-Serif" font-size="10.00">/tetengo/lattice/nBestIterator.h</text>
</a>
</g>
</g>
<!-- Node2 -->
<g id="Node000002" class="node">
<title>Node2</title>
<g id="a_Node000002"><a xlink:title=" ">
<polygon fill="#e0e0e0" stroke="#999999" points="755.18,-19 693.18,-19 693.18,0 755.18,0 755.18,-19"/>
<text text-anchor="middle" x="724.18" y="-7" font-family="Helvetica,sans-Serif" font-size="10.00">stdbool.h</text>
</a>
</g>
</g>
<!-- Node1&#45;&gt;Node2 -->
<g id="edge1_Node000001_Node000002" class="edge">
<title>Node1&#45;&gt;Node2</title>
<g id="a_edge1_Node000001_Node000002"><a xlink:title=" ">
<path fill="none" stroke="#63b8ff" d="M445.27,-351.25C581.93,-342.8 839.18,-316.23 839.18,-236 839.18,-236 839.18,-236 839.18,-118.5 839.18,-72.06 788.73,-39.76 754.66,-23.24"/>
<polygon fill="#63b8ff" stroke="#63b8ff" points="756.08,-20.04 745.54,-19 753.13,-26.39 756.08,-20.04"/>
</a>
</g>
</g>
<!-- Node3 -->
<g id="Node000003" class="node">
<title>Node3</title>
<g id="a_Node000003"><a xlink:href="constraint_8h.html" target="_top" xlink:title="A constraint.">
<polygon fill="white" stroke="#666666" points="245.68,-305 96.68,-305 96.68,-286 245.68,-286 245.68,-305"/>
<text text-anchor="middle" x="171.18" y="-293" font-family="Helvetica,sans-Serif" font-size="10.00">tetengo/lattice/constraint.h</text>
</a>
</g>
</g>
<!-- Node1&#45;&gt;Node3 -->
<g id="edge2_Node000001_Node000003" class="edge">
<title>Node1&#45;&gt;Node3</title>
<g id="a_edge2_Node000001_Node000003"><a xlink:title=" ">
<path fill="none" stroke="#63b8ff" d="M316.43,-340.99C283.61,-330.94 239.91,-317.55 209.05,-308.1"/>
<polygon fill="#63b8ff" stroke="#63b8ff" points="209.69,-304.64 199.11,-305.05 207.64,-311.33 209.69,-304.64"/>
</a>
</g>
</g>
<!-- Node6 -->
<g id="Node000006" class="node">
<title>Node6</title>
<g id="a_Node000006"><a xlink:href="node_8h.html" target="_top" xlink:title="A node.">
<polygon fill="white" stroke="#666666" points="335.18,-184 211.18,-184 211.18,-165 335.18,-165 335.18,-184"/>
<text text-anchor="middle" x="273.18" y="-172" font-family="Helvetica,sans-Serif" font-size="10.00">tetengo/lattice/node.h</text>
</a>
</g>
</g>
<!-- Node1&#45;&gt;Node6 -->
<g id="edge31_Node000001_Node000006" class="edge">
<title>Node1&#45;&gt;Node6</title>
<g id="a_edge31_Node000001_Node000006"><a xlink:title=" ">
<path fill="none" stroke="#63b8ff" d="M350.54,-340.97C335.07,-321.65 307.86,-285.23 292.18,-250 284.05,-231.75 278.93,-209.37 276.08,-193.93"/>
<polygon fill="#63b8ff" stroke="#63b8ff" points="279.53,-193.34 274.4,-184.08 272.63,-194.52 279.53,-193.34"/>
</a>
</g>
</g>
<!-- Node10 -->
<g id="Node000010" class="node">
<title>Node10</title>
<g id="a_Node000010"><a xlink:href="lattice_8h.html" target="_top" xlink:title="A lattice.">
<polygon fill="white" stroke="#666666" points="570.68,-305 439.68,-305 439.68,-286 570.68,-286 570.68,-305"/>
<text text-anchor="middle" x="505.18" y="-293" font-family="Helvetica,sans-Serif" font-size="10.00">tetengo/lattice/lattice.h</text>
</a>
</g>
</g>
<!-- Node1&#45;&gt;Node10 -->
<g id="edge18_Node000001_Node000010" class="edge">
<title>Node1&#45;&gt;Node10</title>
<g id="a_edge18_Node000001_Node000010"><a xlink:title=" ">
<path fill="none" stroke="#63b8ff" d="M396.43,-340.99C420.29,-331.23 451.82,-318.33 474.79,-308.93"/>
<polygon fill="#63b8ff" stroke="#63b8ff" points="476.13,-312.17 484.06,-305.14 473.48,-305.69 476.13,-312.17"/>
</a>
</g>
</g>
<!-- Node13 -->
<g id="Node000013" class="node">
<title>Node13</title>
<g id="a_Node000013"><a xlink:href="path_8h.html" target="_top" xlink:title="A path.">
<polygon fill="white" stroke="#666666" points="423.18,-244.5 301.18,-244.5 301.18,-225.5 423.18,-225.5 423.18,-244.5"/>
<text text-anchor="middle" x="362.18" y="-232.5" font-family="Helvetica,sans-Serif" font-size="10.00">tetengo/lattice/path.h</text>
</a>
</g>
</g>
<!-- Node1&#45;&gt;Node13 -->
<g id="edge32_Node000001_Node000013" class="edge">
<title>Node1&#45;&gt;Node13</title>
<g id="a_edge32_Node000001_Node000013"><a xlink:title=" ">
<path fill="none" stroke="#63b8ff" d="M362.18,-340.88C362.18,-319.51 362.18,-278.89 362.18,-254.96"/>
<polygon fill="#63b8ff" stroke="#63b8ff" points="365.68,-254.71 362.18,-244.71 358.68,-254.71 365.68,-254.71"/>
</a>
</g>
</g>
<!-- Node3&#45;&gt;Node2 -->
<g id="edge3_Node000003_Node000002" class="edge">
<title>Node3&#45;&gt;Node2</title>
<g id="a_edge3_Node000003_Node000002"><a xlink:title=" ">
<path fill="none" stroke="#63b8ff" d="M245.92,-290.98C369.8,-284.61 607.33,-269.97 640.18,-250 715.77,-204.03 721.44,-161.69 733.18,-74 735.21,-58.81 732.46,-41.59 729.47,-28.92"/>
<polygon fill="#63b8ff" stroke="#63b8ff" points="732.83,-27.91 726.91,-19.12 726.05,-29.68 732.83,-27.91"/>
</a>
</g>
</g>
<!-- Node4 -->
<g id="Node000004" class="node">
<title>Node4</title>
<g id="a_Node000004"><a xlink:title=" ">
<polygon fill="#e0e0e0" stroke="#999999" points="249.18,-19 193.18,-19 193.18,0 249.18,0 249.18,-19"/>
<text text-anchor="middle" x="221.18" y="-7" font-family="Helvetica,sans-Serif" font-size="10.00">stddef.h</text>
</a>
</g>
</g>
<!-- Node3&#45;&gt;Node4 -->
<g id="edge4_Node000003_Node000004" class="edge">
<title>Node3&#45;&gt;Node4</title>
<g id="a_edge4_Node000003_Node000004"><a xlink:title=" ">
<path fill="none" stroke="#63b8ff" d="M96.33,-287.88C69.07,-281.86 40.09,-270.66 20.18,-250 -3.53,-225.4 1.18,-209.67 1.18,-175.5 1.18,-175.5 1.18,-175.5 1.18,-118.5 1.18,-38.5 119.87,-17.75 182.89,-12.38"/>
<polygon fill="#63b8ff" stroke="#63b8ff" points="183.16,-15.87 192.87,-11.62 182.63,-8.89 183.16,-15.87"/>
</a>
</g>
</g>
<!-- Node5 -->
<g id="Node000005" class="node">
<title>Node5</title>
<g id="a_Node000005"><a xlink:href="constraintElement_8h.html" target="_top" xlink:title="A constraint element.">
<polygon fill="white" stroke="#666666" points="169.18,-250 29.18,-250 29.18,-220 169.18,-220 169.18,-250"/>
<text text-anchor="start" x="37.18" y="-238" font-family="Helvetica,sans-Serif" font-size="10.00">tetengo/lattice/constraint</text>
<text text-anchor="middle" x="99.18" y="-227" font-family="Helvetica,sans-Serif" font-size="10.00">Element.h</text>
</a>
</g>
</g>
<!-- Node3&#45;&gt;Node5 -->
<g id="edge5_Node000003_Node000005" class="edge">
<title>Node3&#45;&gt;Node5</title>
<g id="a_edge5_Node000003_Node000005"><a xlink:title=" ">
<path fill="none" stroke="#63b8ff" d="M160.55,-285.87C151.06,-278.15 136.76,-266.54 124.36,-256.46"/>
<polygon fill="#63b8ff" stroke="#63b8ff" points="126.52,-253.7 116.55,-250.11 122.1,-259.14 126.52,-253.7"/>
</a>
</g>
</g>
<!-- Node3&#45;&gt;Node6 -->
<g id="edge17_Node000003_Node000006" class="edge">
<title>Node3&#45;&gt;Node6</title>
<g id="a_edge17_Node000003_Node000006"><a xlink:title=" ">
<path fill="none" stroke="#63b8ff" d="M178.51,-285.94C195.34,-266.31 236.95,-217.76 258.98,-192.07"/>
<polygon fill="#63b8ff" stroke="#63b8ff" points="261.78,-194.17 265.63,-184.3 256.47,-189.62 261.78,-194.17"/>
</a>
</g>
</g>
<!-- Node5&#45;&gt;Node4 -->
<g id="edge6_Node000005_Node000004" class="edge">
<title>Node5&#45;&gt;Node4</title>
<g id="a_edge6_Node000005_Node000004"><a xlink:title=" ">
<path fill="none" stroke="#63b8ff" d="M97.7,-219.79C95.08,-187.15 93.07,-105.73 131.18,-55 143.87,-38.11 164.72,-27.23 183.16,-20.47"/>
<polygon fill="#63b8ff" stroke="#63b8ff" points="184.45,-23.73 192.8,-17.21 182.21,-17.09 184.45,-23.73"/>
</a>
</g>
</g>
<!-- Node5&#45;&gt;Node6 -->
<g id="edge7_Node000005_Node000006" class="edge">
<title>Node5&#45;&gt;Node6</title>
<g id="a_edge7_Node000005_Node000006"><a xlink:title=" ">
<path fill="none" stroke="#63b8ff" d="M140.86,-219.99C170.49,-210.02 209.87,-196.78 237.94,-187.35"/>
<polygon fill="#63b8ff" stroke="#63b8ff" points="239.37,-190.56 247.74,-184.05 237.14,-183.92 239.37,-190.56"/>
</a>
</g>
</g>
<!-- Node6&#45;&gt;Node2 -->
<g id="edge8_Node000006_Node000002" class="edge">
<title>Node6&#45;&gt;Node2</title>
<g id="a_edge8_Node000006_Node000002"><a xlink:title=" ">
<path fill="none" stroke="#63b8ff" d="M276.29,-164.75C284.84,-142.13 311.05,-81.62 355.18,-55 409.56,-22.2 598.46,-13.53 682.87,-11.28"/>
<polygon fill="#63b8ff" stroke="#63b8ff" points="683.2,-14.77 693.11,-11.02 683.02,-7.77 683.2,-14.77"/>
</a>
</g>
</g>
<!-- Node6&#45;&gt;Node4 -->
<g id="edge9_Node000006_Node000004" class="edge">
<title>Node6&#45;&gt;Node4</title>
<g id="a_edge9_Node000006_Node000004"><a xlink:title=" ">
<path fill="none" stroke="#63b8ff" d="M270.38,-164.74C262.24,-139.2 238.38,-64.43 227.15,-29.23"/>
<polygon fill="#63b8ff" stroke="#63b8ff" points="230.36,-27.77 223.99,-19.31 223.69,-29.9 230.36,-27.77"/>
</a>
</g>
</g>
<!-- Node7 -->
<g id="Node000007" class="node">
<title>Node7</title>
<g id="a_Node000007"><a xlink:href="entry_8h.html" target="_top" xlink:title="An entry.">
<polygon fill="white" stroke="#666666" points="501.18,-129 377.18,-129 377.18,-110 501.18,-110 501.18,-129"/>
<text text-anchor="middle" x="439.18" y="-117" font-family="Helvetica,sans-Serif" font-size="10.00">tetengo/lattice/entry.h</text>
</a>
</g>
</g>
<!-- Node6&#45;&gt;Node7 -->
<g id="edge10_Node000006_Node000007" class="edge">
<title>Node6&#45;&gt;Node7</title>
<g id="a_edge10_Node000006_Node000007"><a xlink:title=" ">
<path fill="none" stroke="#63b8ff" d="M299.85,-164.98C327.72,-156.09 371.63,-142.07 402.7,-132.15"/>
<polygon fill="#63b8ff" stroke="#63b8ff" points="403.84,-135.46 412.3,-129.08 401.71,-128.79 403.84,-135.46"/>
</a>
</g>
</g>
<!-- Node7&#45;&gt;Node4 -->
<g id="edge11_Node000007_Node000004" class="edge">
<title>Node7&#45;&gt;Node4</title>
<g id="a_edge11_Node000007_Node000004"><a xlink:title=" ">
<path fill="none" stroke="#63b8ff" d="M421.71,-109.84C383.58,-90.96 292.75,-45.96 247.59,-23.59"/>
<polygon fill="#63b8ff" stroke="#63b8ff" points="248.94,-20.35 238.43,-19.05 245.84,-26.62 248.94,-20.35"/>
</a>
</g>
</g>
<!-- Node8 -->
<g id="Node000008" class="node">
<title>Node8</title>
<g id="a_Node000008"><a xlink:href="input_8h.html" target="_top" xlink:title="An input.">
<polygon fill="white" stroke="#666666" points="657.68,-74 532.68,-74 532.68,-55 657.68,-55 657.68,-74"/>
<text text-anchor="middle" x="595.18" y="-62" font-family="Helvetica,sans-Serif" font-size="10.00">tetengo/lattice/input.h</text>
</a>
</g>
</g>
<!-- Node7&#45;&gt;Node8 -->
<g id="edge12_Node000007_Node000008" class="edge">
<title>Node7&#45;&gt;Node8</title>
<g id="a_edge12_Node000007_Node000008"><a xlink:title=" ">
<path fill="none" stroke="#63b8ff" d="M464.24,-109.98C490.21,-101.16 530.99,-87.31 560.14,-77.41"/>
<polygon fill="#63b8ff" stroke="#63b8ff" points="561.58,-80.61 569.92,-74.08 559.32,-73.99 561.58,-80.61"/>
</a>
</g>
</g>
<!-- Node9 -->
<g id="Node000009" class="node">
<title>Node9</title>
<g id="a_Node000009"><a xlink:href="stringView_8h.html" target="_top" xlink:title="A string view.">
<polygon fill="white" stroke="#666666" points="514.68,-74 363.68,-74 363.68,-55 514.68,-55 514.68,-74"/>
<text text-anchor="middle" x="439.18" y="-62" font-family="Helvetica,sans-Serif" font-size="10.00">tetengo/lattice/stringView.h</text>
</a>
</g>
</g>
<!-- Node7&#45;&gt;Node9 -->
<g id="edge15_Node000007_Node000009" class="edge">
<title>Node7&#45;&gt;Node9</title>
<g id="a_edge15_Node000007_Node000009"><a xlink:title=" ">
<path fill="none" stroke="#63b8ff" d="M439.18,-109.75C439.18,-102.8 439.18,-92.85 439.18,-84.13"/>
<polygon fill="#63b8ff" stroke="#63b8ff" points="442.68,-84.09 439.18,-74.09 435.68,-84.09 442.68,-84.09"/>
</a>
</g>
</g>
<!-- Node8&#45;&gt;Node2 -->
<g id="edge13_Node000008_Node000002" class="edge">
<title>Node8&#45;&gt;Node2</title>
<g id="a_edge13_Node000008_Node000002"><a xlink:title=" ">
<path fill="none" stroke="#63b8ff" d="M615.9,-54.98C636.94,-46.34 669.73,-32.87 693.72,-23.02"/>
<polygon fill="#63b8ff" stroke="#63b8ff" points="695.16,-26.21 703.08,-19.17 692.5,-19.73 695.16,-26.21"/>
</a>
</g>
</g>
<!-- Node8&#45;&gt;Node4 -->
<g id="edge14_Node000008_Node000004" class="edge">
<title>Node8&#45;&gt;Node4</title>
<g id="a_edge14_Node000008_Node000004"><a xlink:title=" ">
<path fill="none" stroke="#63b8ff" d="M535.09,-54.98C457.63,-44.01 325.17,-25.24 259.88,-15.98"/>
<polygon fill="#63b8ff" stroke="#63b8ff" points="260.02,-12.47 249.62,-14.53 259.03,-19.4 260.02,-12.47"/>
</a>
</g>
</g>
<!-- Node9&#45;&gt;Node4 -->
<g id="edge16_Node000009_Node000004" class="edge">
<title>Node9&#45;&gt;Node4</title>
<g id="a_edge16_Node000009_Node000004"><a xlink:title=" ">
<path fill="none" stroke="#63b8ff" d="M404.15,-54.98C364.43,-45.33 299.89,-29.64 259.03,-19.7"/>
<polygon fill="#63b8ff" stroke="#63b8ff" points="259.73,-16.27 249.19,-17.31 258.08,-23.07 259.73,-16.27"/>
</a>
</g>
</g>
<!-- Node10&#45;&gt;Node2 -->
<g id="edge19_Node000010_Node000002" class="edge">
<title>Node10&#45;&gt;Node2</title>
<g id="a_edge19_Node000010_Node000002"><a xlink:title=" ">
<path fill="none" stroke="#63b8ff" d="M551.1,-285.94C634.24,-269.13 801.18,-228.74 801.18,-175.5 801.18,-175.5 801.18,-175.5 801.18,-118.5 801.18,-88.17 793.78,-79.7 776.18,-55 767.99,-43.51 756.21,-33.1 745.93,-25.25"/>
<polygon fill="#63b8ff" stroke="#63b8ff" points="747.9,-22.35 737.76,-19.28 743.77,-28.01 747.9,-22.35"/>
</a>
</g>
</g>
<!-- Node10&#45;&gt;Node4 -->
<g id="edge20_Node000010_Node000004" class="edge">
<title>Node10&#45;&gt;Node4</title>
<g id="a_edge20_Node000010_Node000004"><a xlink:title=" ">
<path fill="none" stroke="#63b8ff" d="M439.36,-293.7C363.28,-288.71 241.82,-267.27 189.18,-184 158.54,-135.53 170.03,-108.3 191.18,-55 195.12,-45.06 201.56,-35.08 207.47,-27.11"/>
<polygon fill="#63b8ff" stroke="#63b8ff" points="210.35,-29.09 213.74,-19.06 204.83,-24.79 210.35,-29.09"/>
</a>
</g>
</g>
<!-- Node10&#45;&gt;Node6 -->
<g id="edge22_Node000010_Node000006" class="edge">
<title>Node10&#45;&gt;Node6</title>
<g id="a_edge22_Node000010_Node000006"><a xlink:title=" ">
<path fill="none" stroke="#63b8ff" d="M499.03,-285.69C487.66,-270.07 461.79,-237.52 432.18,-220 404.25,-203.48 369.93,-192.87 340.33,-186.17"/>
<polygon fill="#63b8ff" stroke="#63b8ff" points="341.01,-182.73 330.49,-184.04 339.53,-189.58 341.01,-182.73"/>
</a>
</g>
</g>
<!-- Node10&#45;&gt;Node8 -->
<g id="edge21_Node000010_Node000008" class="edge">
<title>Node10&#45;&gt;Node8</title>
<g id="a_edge21_Node000010_Node000008"><a xlink:title=" ">
<path fill="none" stroke="#63b8ff" d="M570.69,-288.24C596.24,-282.35 623.37,-271.16 640.18,-250 678.93,-201.24 662.23,-165.6 634.18,-110 628.76,-99.27 620.15,-89.05 612.4,-81.12"/>
<polygon fill="#63b8ff" stroke="#63b8ff" points="614.69,-78.47 605.08,-74.02 609.82,-83.49 614.69,-78.47"/>
</a>
</g>
</g>
<!-- Node11 -->
<g id="Node000011" class="node">
<title>Node11</title>
<g id="a_Node000011"><a xlink:href="vocabulary_8h.html" target="_top" xlink:title="A vocabulary.">
<polygon fill="white" stroke="#666666" points="631.18,-244.5 479.18,-244.5 479.18,-225.5 631.18,-225.5 631.18,-244.5"/>
<text text-anchor="middle" x="555.18" y="-232.5" font-family="Helvetica,sans-Serif" font-size="10.00">tetengo/lattice/vocabulary.h</text>
</a>
</g>
</g>
<!-- Node10&#45;&gt;Node11 -->
<g id="edge23_Node000010_Node000011" class="edge">
<title>Node10&#45;&gt;Node11</title>
<g id="a_edge23_Node000010_Node000011"><a xlink:title=" ">
<path fill="none" stroke="#63b8ff" d="M512.56,-285.87C520.09,-277.05 531.97,-263.16 541.27,-252.27"/>
<polygon fill="#63b8ff" stroke="#63b8ff" points="543.93,-254.54 547.77,-244.67 538.61,-250 543.93,-254.54"/>
</a>
</g>
</g>
<!-- Node11&#45;&gt;Node2 -->
<g id="edge24_Node000011_Node000002" class="edge">
<title>Node11&#45;&gt;Node2</title>
<g id="a_edge24_Node000011_Node000002"><a xlink:title=" ">
<path fill="none" stroke="#63b8ff" d="M577.6,-225.39C611.22,-211.13 673.58,-179.1 700.18,-129 717.34,-96.67 722.26,-53.4 723.65,-29.1"/>
<polygon fill="#63b8ff" stroke="#63b8ff" points="727.15,-29.24 724.08,-19.09 720.15,-28.93 727.15,-29.24"/>
</a>
</g>
</g>
<!-- Node11&#45;&gt;Node4 -->
<g id="edge25_Node000011_Node000004" class="edge">
<title>Node11&#45;&gt;Node4</title>
<g id="a_edge25_Node000011_Node000004"><a xlink:title=" ">
<path fill="none" stroke="#63b8ff" d="M532.83,-225.5C509.94,-216.43 473.63,-201.05 444.18,-184 360.47,-135.53 273.41,-58.79 237.82,-26.09"/>
<polygon fill="#63b8ff" stroke="#63b8ff" points="240,-23.34 230.29,-19.11 235.25,-28.47 240,-23.34"/>
</a>
</g>
</g>
<!-- Node11&#45;&gt;Node6 -->
<g id="edge30_Node000011_Node000006" class="edge">
<title>Node11&#45;&gt;Node6</title>
<g id="a_edge30_Node000011_Node000006"><a xlink:title=" ">
<path fill="none" stroke="#63b8ff" d="M514.17,-225.49C463.84,-215.05 378.48,-197.35 324.03,-186.05"/>
<polygon fill="#63b8ff" stroke="#63b8ff" points="324.74,-182.62 314.23,-184.02 323.31,-189.48 324.74,-182.62"/>
</a>
</g>
</g>
<!-- Node11&#45;&gt;Node7 -->
<g id="edge28_Node000011_Node000007" class="edge">
<title>Node11&#45;&gt;Node7</title>
<g id="a_edge28_Node000011_Node000007"><a xlink:title=" ">
<path fill="none" stroke="#63b8ff" d="M525.67,-225.41C504.38,-217.78 476.45,-204.59 459.18,-184 448.62,-171.41 443.62,-153.21 441.26,-139.53"/>
<polygon fill="#63b8ff" stroke="#63b8ff" points="444.68,-138.73 439.84,-129.31 437.75,-139.7 444.68,-138.73"/>
</a>
</g>
</g>
<!-- Node11&#45;&gt;Node8 -->
<g id="edge29_Node000011_Node000008" class="edge">
<title>Node11&#45;&gt;Node8</title>
<g id="a_edge29_Node000011_Node000008"><a xlink:title=" ">
<path fill="none" stroke="#63b8ff" d="M578.85,-225.4C596.52,-217.57 619.4,-204.14 630.18,-184 648.14,-150.44 624.39,-106.47 608.12,-82.65"/>
<polygon fill="#63b8ff" stroke="#63b8ff" points="610.81,-80.4 602.15,-74.29 605.11,-84.47 610.81,-80.4"/>
</a>
</g>
</g>
<!-- Node12 -->
<g id="Node000012" class="node">
<title>Node12</title>
<g id="a_Node000012"><a xlink:href="connection_8h.html" target="_top" xlink:title="A connection.">
<polygon fill="white" stroke="#666666" points="620.68,-184 467.68,-184 467.68,-165 620.68,-165 620.68,-184"/>
<text text-anchor="middle" x="544.18" y="-172" font-family="Helvetica,sans-Serif" font-size="10.00">tetengo/lattice/connection.h</text>
</a>
</g>
</g>
<!-- Node11&#45;&gt;Node12 -->
<g id="edge26_Node000011_Node000012" class="edge">
<title>Node11&#45;&gt;Node12</title>
<g id="a_edge26_Node000011_Node000012"><a xlink:title=" ">
<path fill="none" stroke="#63b8ff" d="M553.56,-225.37C552.01,-217.16 549.64,-204.54 547.67,-194.05"/>
<polygon fill="#63b8ff" stroke="#63b8ff" points="551.1,-193.35 545.81,-184.17 544.22,-194.64 551.1,-193.35"/>
</a>
</g>
</g>
<!-- Node12&#45;&gt;Node7 -->
<g id="edge27_Node000012_Node000007" class="edge">
<title>Node12&#45;&gt;Node7</title>
<g id="a_edge27_Node000012_Node000007"><a xlink:title=" ">
<path fill="none" stroke="#63b8ff" d="M527.31,-164.98C510.57,-156.54 484.68,-143.47 465.29,-133.68"/>
<polygon fill="#63b8ff" stroke="#63b8ff" points="466.86,-130.55 456.36,-129.17 463.71,-136.8 466.86,-130.55"/>
</a>
</g>
</g>
<!-- Node13&#45;&gt;Node2 -->
<g id="edge33_Node000013_Node000002" class="edge">
<title>Node13&#45;&gt;Node2</title>
<g id="a_edge33_Node000013_Node000002"><a xlink:title=" ">
<path fill="none" stroke="#63b8ff" d="M372.75,-225.37C390.07,-211.49 425.91,-183.84 459.18,-165 546.98,-115.27 585.4,-133.11 667.18,-74 685.1,-61.04 701.51,-41.6 712.07,-27.65"/>
<polygon fill="#63b8ff" stroke="#63b8ff" points="715.03,-29.53 718.12,-19.39 709.39,-25.39 715.03,-29.53"/>
</a>
</g>
</g>
<!-- Node13&#45;&gt;Node4 -->
<g id="edge34_Node000013_Node000004" class="edge">
<title>Node13&#45;&gt;Node4</title>
<g id="a_edge34_Node000013_Node000004"><a xlink:title=" ">
<path fill="none" stroke="#63b8ff" d="M301.14,-231.85C266.13,-227.09 224.76,-214.72 202.18,-184 167.53,-136.87 195.94,-62.17 212.01,-28.27"/>
<polygon fill="#63b8ff" stroke="#63b8ff" points="215.23,-29.66 216.51,-19.14 208.95,-26.56 215.23,-29.66"/>
</a>
</g>
</g>
<!-- Node13&#45;&gt;Node6 -->
<g id="edge35_Node000013_Node000006" class="edge">
<title>Node13&#45;&gt;Node6</title>
<g id="a_edge35_Node000013_Node000006"><a xlink:title=" ">
<path fill="none" stroke="#63b8ff" d="M349.05,-225.37C334.85,-216.04 311.98,-201.01 295.06,-189.88"/>
<polygon fill="#63b8ff" stroke="#63b8ff" points="296.64,-186.74 286.36,-184.17 292.8,-192.58 296.64,-186.74"/>
</a>
</g>
</g>
</g>
</svg>

<g id="navigator" transform="translate(0 0)" fill="#404254">
  <rect fill="#f2f5e9" fill-opacity="0.5" stroke="#606060" stroke-width=".5" x="0" y="0" width="60" height="60"/>
  <use id="zoomplus" xlink:href="#zoomPlus" x="17" y="9" onmousedown="handleZoom(evt,'in')"/>
  <use id="zoomminus" xlink:href="#zoomMin" x="42" y="9" onmousedown="handleZoom(evt,'out')"/>
  <use id="reset" xlink:href="#resetDef" x="30" y="36" onmousedown="handleReset()"/>
   <use id="arrowup" xlink:href="#arrowUp" x="0" y="0" onmousedown="handlePan(0,-1)"/>
  <use id="arrowright" xlink:href="#arrowRight" x="0" y="0" onmousedown="handlePan(1,0)"/>
  <use id="arrowdown" xlink:href="#arrowDown" x="0" y="0" onmousedown="handlePan(0,1)"/>
  <use id="arrowleft" xlink:href="#arrowLeft" x="0" y="0" onmousedown="handlePan(-1,0)"/>
</g>
<svg viewBox="0 0 15 15" width="100%" height="30px" preserveAspectRatio="xMaxYMin meet">
 <g id="arrow_out" transform="scale(0.3 0.3)">
  <a xlink:href="nBestIterator_8h__incl_org.svg" target="_base">
   <rect id="button" ry="5" rx="5" y="6" x="6" height="38" width="38"
        fill="#f2f5e9" fill-opacity="0.5" stroke="#606060" stroke-width="1.0"/>
   <path id="arrow"
     d="M 11.500037,31.436501 C 11.940474,20.09759 22.043105,11.32322 32.158766,21.979434 L 37.068811,17.246167 C 37.068811,17.246167 37.088388,32 37.088388,32 L 22.160133,31.978069 C 22.160133,31.978069 26.997745,27.140456 26.997745,27.140456 C 18.528582,18.264221 13.291696,25.230495 11.500037,31.436501 z"
     style="fill:#404040;"/>
  </a>
 </g>
</svg>

<style type='text/css'>
<![CDATA[
[data-mouse-over-selected='false'] { opacity: 0.7; }
[data-mouse-over-selected='true']  { opacity: 1.0; }
]]>
</style>
<script type="application/ecmascript"><![CDATA[
document.addEventListener('DOMContentLoaded', (event) => {
  highlightEdges();
  highlightAdjacentNodes();
});
]]></script>
</svg>
