<?xml version="1.0" encoding="UTF-8" standalone="no"?>
<!DOCTYPE svg PUBLIC "-//W3C//DTD SVG 1.1//EN"
 "http://www.w3.org/Graphics/SVG/1.1/DTD/svg11.dtd">
<!-- Generated by graphviz version 2.43.0 (0)
 -->
<!-- Title: library/lattice/cpp/include/tetengo/lattice/path.hpp Pages: 1 -->
<svg width="559pt" height="269pt"
 viewBox="0.00 0.00 558.50 269.00" xmlns="http://www.w3.org/2000/svg" xmlns:xlink="http://www.w3.org/1999/xlink">
<g id="graph0" class="graph" transform="scale(1 1) rotate(0) translate(4 265)">
<title>library/lattice/cpp/include/tetengo/lattice/path.hpp</title>
<!-- Node1 -->
<g id="Node000001" class="node">
<title>Node1</title>
<g id="a_Node000001"><a xlink:title="A path.">
<polygon fill="#999999" stroke="#666666" points="210,-261 81,-261 81,-220 210,-220 210,-261"/>
<text text-anchor="start" x="89" y="-249" font-family="Helvetica,sans-Serif" font-size="10.00">library/lattice/cpp</text>
<text text-anchor="start" x="89" y="-238" font-family="Helvetica,sans-Serif" font-size="10.00">/include/tetengo/lattice</text>
<text text-anchor="middle" x="145.5" y="-227" font-family="Helvetica,sans-Serif" font-size="10.00">/path.hpp</text>
</a>
</g>
</g>
<!-- Node2 -->
<g id="Node000002" class="node">
<title>Node2</title>
<g id="a_Node000002"><a xlink:title=" ">
<polygon fill="#e0e0e0" stroke="#999999" points="47,-129 0,-129 0,-110 47,-110 47,-129"/>
<text text-anchor="middle" x="23.5" y="-117" font-family="Helvetica,sans-Serif" font-size="10.00">vector</text>
</a>
</g>
</g>
<!-- Node1&#45;&gt;Node2 -->
<g id="edge1_Node000001_Node000002" class="edge">
<title>Node1&#45;&gt;Node2</title>
<g id="a_edge1_Node000001_Node000002"><a xlink:title=" ">
<path fill="none" stroke="#63b8ff" d="M125.35,-219.85C101.36,-196.45 61.77,-157.83 39.68,-136.28"/>
<polygon fill="#63b8ff" stroke="#63b8ff" points="42,-133.65 32.39,-129.18 37.11,-138.66 42,-133.65"/>
</a>
</g>
</g>
<!-- Node3 -->
<g id="Node000003" class="node">
<title>Node3</title>
<g id="a_Node000003"><a xlink:href="node_8hpp.html" target="_top" xlink:title="A node.">
<polygon fill="white" stroke="#666666" points="287.5,-184 151.5,-184 151.5,-165 287.5,-165 287.5,-184"/>
<text text-anchor="middle" x="219.5" y="-172" font-family="Helvetica,sans-Serif" font-size="10.00">tetengo/lattice/node.hpp</text>
</a>
</g>
</g>
<!-- Node1&#45;&gt;Node3 -->
<g id="edge2_Node000001_Node000003" class="edge">
<title>Node1&#45;&gt;Node3</title>
<g id="a_edge2_Node000001_Node000003"><a xlink:title=" ">
<path fill="none" stroke="#63b8ff" d="M168.1,-219.95C178.86,-210.65 191.55,-199.68 201.62,-190.96"/>
<polygon fill="#63b8ff" stroke="#63b8ff" points="204.1,-193.45 209.37,-184.26 199.52,-188.15 204.1,-193.45"/>
</a>
</g>
</g>
<!-- Node3&#45;&gt;Node2 -->
<g id="edge6_Node000003_Node000002" class="edge">
<title>Node3&#45;&gt;Node2</title>
<g id="a_edge6_Node000003_Node000002"><a xlink:title=" ">
<path fill="none" stroke="#63b8ff" d="M188.01,-164.98C152.1,-155.28 93.65,-139.47 56.95,-129.54"/>
<polygon fill="#63b8ff" stroke="#63b8ff" points="57.77,-126.14 47.21,-126.91 55.95,-132.9 57.77,-126.14"/>
</a>
</g>
</g>
<!-- Node4 -->
<g id="Node000004" class="node">
<title>Node4</title>
<g id="a_Node000004"><a xlink:title=" ">
<polygon fill="#e0e0e0" stroke="#999999" points="240,-74 205,-74 205,-55 240,-55 240,-74"/>
<text text-anchor="middle" x="222.5" y="-62" font-family="Helvetica,sans-Serif" font-size="10.00">any</text>
</a>
</g>
</g>
<!-- Node3&#45;&gt;Node4 -->
<g id="edge3_Node000003_Node000004" class="edge">
<title>Node3&#45;&gt;Node4</title>
<g id="a_edge3_Node000003_Node000004"><a xlink:title=" ">
<path fill="none" stroke="#63b8ff" d="M227.44,-164.75C234.53,-156.3 244.4,-142.79 248.5,-129 253.3,-112.83 244.84,-95.11 236.31,-82.52"/>
<polygon fill="#63b8ff" stroke="#63b8ff" points="239.03,-80.31 230.28,-74.34 233.4,-84.47 239.03,-80.31"/>
</a>
</g>
</g>
<!-- Node5 -->
<g id="Node000005" class="node">
<title>Node5</title>
<g id="a_Node000005"><a xlink:title=" ">
<polygon fill="#e0e0e0" stroke="#999999" points="550.5,-19 498.5,-19 498.5,0 550.5,0 550.5,-19"/>
<text text-anchor="middle" x="524.5" y="-7" font-family="Helvetica,sans-Serif" font-size="10.00">cassert</text>
</a>
</g>
</g>
<!-- Node3&#45;&gt;Node5 -->
<g id="edge4_Node000003_Node000005" class="edge">
<title>Node3&#45;&gt;Node5</title>
<g id="a_edge4_Node000003_Node000005"><a xlink:title=" ">
<path fill="none" stroke="#63b8ff" d="M260.59,-164.99C290.67,-157.81 331.92,-145.98 365.5,-129 422.3,-100.28 479.98,-51.24 507.65,-26.21"/>
<polygon fill="#63b8ff" stroke="#63b8ff" points="510.23,-28.59 515.24,-19.26 505.5,-23.43 510.23,-28.59"/>
</a>
</g>
</g>
<!-- Node6 -->
<g id="Node000006" class="node">
<title>Node6</title>
<g id="a_Node000006"><a xlink:title=" ">
<polygon fill="#e0e0e0" stroke="#999999" points="100,-19 47,-19 47,0 100,0 100,-19"/>
<text text-anchor="middle" x="73.5" y="-7" font-family="Helvetica,sans-Serif" font-size="10.00">cstddef</text>
</a>
</g>
</g>
<!-- Node3&#45;&gt;Node6 -->
<g id="edge5_Node000003_Node000006" class="edge">
<title>Node3&#45;&gt;Node6</title>
<g id="a_edge5_Node000003_Node000006"><a xlink:title=" ">
<path fill="none" stroke="#63b8ff" d="M157.93,-164.95C134.87,-158.68 110.42,-147.82 94.5,-129 70.63,-100.78 69.72,-54.97 71.44,-29.36"/>
<polygon fill="#63b8ff" stroke="#63b8ff" points="74.95,-29.42 72.34,-19.15 67.97,-28.81 74.95,-29.42"/>
</a>
</g>
</g>
<!-- Node7 -->
<g id="Node000007" class="node">
<title>Node7</title>
<g id="a_Node000007"><a xlink:title=" ">
<polygon fill="#e0e0e0" stroke="#999999" points="480.5,-19 366.5,-19 366.5,0 480.5,0 480.5,-19"/>
<text text-anchor="middle" x="423.5" y="-7" font-family="Helvetica,sans-Serif" font-size="10.00">boost/operators.hpp</text>
</a>
</g>
</g>
<!-- Node3&#45;&gt;Node7 -->
<g id="edge7_Node000003_Node000007" class="edge">
<title>Node3&#45;&gt;Node7</title>
<g id="a_edge7_Node000003_Node000007"><a xlink:title=" ">
<path fill="none" stroke="#63b8ff" d="M250.52,-165C291.71,-152.12 363.94,-123.75 404.5,-74 414.84,-61.32 419.55,-43.14 421.7,-29.47"/>
<polygon fill="#63b8ff" stroke="#63b8ff" points="425.21,-29.64 422.97,-19.28 418.26,-28.77 425.21,-29.64"/>
</a>
</g>
</g>
<!-- Node8 -->
<g id="Node000008" class="node">
<title>Node8</title>
<g id="a_Node000008"><a xlink:href="entry_8hpp.html" target="_top" xlink:title="An entry.">
<polygon fill="white" stroke="#666666" points="239.5,-129 103.5,-129 103.5,-110 239.5,-110 239.5,-129"/>
<text text-anchor="middle" x="171.5" y="-117" font-family="Helvetica,sans-Serif" font-size="10.00">tetengo/lattice/entry.hpp</text>
</a>
</g>
</g>
<!-- Node3&#45;&gt;Node8 -->
<g id="edge8_Node000003_Node000008" class="edge">
<title>Node3&#45;&gt;Node8</title>
<g id="a_edge8_Node000003_Node000008"><a xlink:title=" ">
<path fill="none" stroke="#63b8ff" d="M211.57,-164.75C204.65,-157.11 194.43,-145.82 186.05,-136.56"/>
<polygon fill="#63b8ff" stroke="#63b8ff" points="188.59,-134.15 179.28,-129.09 183.4,-138.85 188.59,-134.15"/>
</a>
</g>
</g>
<!-- Node11 -->
<g id="Node000011" class="node">
<title>Node11</title>
<g id="a_Node000011"><a xlink:href="input_8hpp.html" target="_top" xlink:title="An input.">
<polygon fill="white" stroke="#666666" points="395,-74 258,-74 258,-55 395,-55 395,-74"/>
<text text-anchor="middle" x="326.5" y="-62" font-family="Helvetica,sans-Serif" font-size="10.00">tetengo/lattice/input.hpp</text>
</a>
</g>
</g>
<!-- Node3&#45;&gt;Node11 -->
<g id="edge18_Node000003_Node000011" class="edge">
<title>Node3&#45;&gt;Node11</title>
<g id="a_edge18_Node000003_Node000011"><a xlink:title=" ">
<path fill="none" stroke="#63b8ff" d="M228.26,-164.66C246.29,-146.46 287.81,-104.55 310.68,-81.47"/>
<polygon fill="#63b8ff" stroke="#63b8ff" points="313.37,-83.73 317.92,-74.16 308.4,-78.8 313.37,-83.73"/>
</a>
</g>
</g>
<!-- Node8&#45;&gt;Node4 -->
<g id="edge9_Node000008_Node000004" class="edge">
<title>Node8&#45;&gt;Node4</title>
<g id="a_edge9_Node000008_Node000004"><a xlink:title=" ">
<path fill="none" stroke="#63b8ff" d="M179.92,-109.75C187.27,-102.11 198.13,-90.82 207.04,-81.56"/>
<polygon fill="#63b8ff" stroke="#63b8ff" points="209.82,-83.72 214.24,-74.09 204.78,-78.87 209.82,-83.72"/>
</a>
</g>
</g>
<!-- Node9 -->
<g id="Node000009" class="node">
<title>Node9</title>
<g id="a_Node000009"><a xlink:title=" ">
<polygon fill="#e0e0e0" stroke="#999999" points="176.5,-19 118.5,-19 118.5,0 176.5,0 176.5,-19"/>
<text text-anchor="middle" x="147.5" y="-7" font-family="Helvetica,sans-Serif" font-size="10.00">memory</text>
</a>
</g>
</g>
<!-- Node8&#45;&gt;Node9 -->
<g id="edge10_Node000008_Node000009" class="edge">
<title>Node8&#45;&gt;Node9</title>
<g id="a_edge10_Node000008_Node000009"><a xlink:title=" ">
<path fill="none" stroke="#63b8ff" d="M160.51,-109.99C151.05,-101.9 138.07,-88.81 132.5,-74 126.9,-59.11 131.96,-41.44 137.67,-28.53"/>
<polygon fill="#63b8ff" stroke="#63b8ff" points="140.92,-29.85 142.19,-19.34 134.64,-26.76 140.92,-29.85"/>
</a>
</g>
</g>
<!-- Node10 -->
<g id="Node000010" class="node">
<title>Node10</title>
<g id="a_Node000010"><a xlink:title=" ">
<polygon fill="#e0e0e0" stroke="#999999" points="187,-74 142,-74 142,-55 187,-55 187,-74"/>
<text text-anchor="middle" x="164.5" y="-62" font-family="Helvetica,sans-Serif" font-size="10.00">utility</text>
</a>
</g>
</g>
<!-- Node8&#45;&gt;Node10 -->
<g id="edge11_Node000008_Node000010" class="edge">
<title>Node8&#45;&gt;Node10</title>
<g id="a_edge11_Node000008_Node000010"><a xlink:title=" ">
<path fill="none" stroke="#63b8ff" d="M170.34,-109.75C169.43,-102.8 168.11,-92.85 166.96,-84.13"/>
<polygon fill="#63b8ff" stroke="#63b8ff" points="170.41,-83.54 165.63,-74.09 163.47,-84.46 170.41,-83.54"/>
</a>
</g>
</g>
<!-- Node8&#45;&gt;Node11 -->
<g id="edge12_Node000008_Node000011" class="edge">
<title>Node8&#45;&gt;Node11</title>
<g id="a_edge12_Node000008_Node000011"><a xlink:title=" ">
<path fill="none" stroke="#63b8ff" d="M196.4,-109.98C222.2,-101.16 262.72,-87.31 291.68,-77.41"/>
<polygon fill="#63b8ff" stroke="#63b8ff" points="293.07,-80.63 301.4,-74.08 290.81,-74.01 293.07,-80.63"/>
</a>
</g>
</g>
<!-- Node11&#45;&gt;Node5 -->
<g id="edge13_Node000011_Node000005" class="edge">
<title>Node11&#45;&gt;Node5</title>
<g id="a_edge13_Node000011_Node000005"><a xlink:title=" ">
<path fill="none" stroke="#63b8ff" d="M358.31,-54.98C393.88,-45.46 451.37,-30.08 488.54,-20.12"/>
<polygon fill="#63b8ff" stroke="#63b8ff" points="489.7,-23.44 498.46,-17.47 487.89,-16.68 489.7,-23.44"/>
</a>
</g>
</g>
<!-- Node11&#45;&gt;Node6 -->
<g id="edge14_Node000011_Node000006" class="edge">
<title>Node11&#45;&gt;Node6</title>
<g id="a_edge14_Node000011_Node000006"><a xlink:title=" ">
<path fill="none" stroke="#63b8ff" d="M282.78,-54.93C241.04,-46.66 176.13,-33.57 110.35,-19.13"/>
<polygon fill="#63b8ff" stroke="#63b8ff" points="110.74,-15.63 100.22,-16.9 109.23,-22.47 110.74,-15.63"/>
</a>
</g>
</g>
<!-- Node11&#45;&gt;Node7 -->
<g id="edge17_Node000011_Node000007" class="edge">
<title>Node11&#45;&gt;Node7</title>
<g id="a_edge17_Node000011_Node000007"><a xlink:title=" ">
<path fill="none" stroke="#63b8ff" d="M342.08,-54.98C357.27,-46.69 380.6,-33.94 398.4,-24.22"/>
<polygon fill="#63b8ff" stroke="#63b8ff" points="400.53,-27.04 407.63,-19.17 397.18,-20.89 400.53,-27.04"/>
</a>
</g>
</g>
<!-- Node11&#45;&gt;Node9 -->
<g id="edge15_Node000011_Node000009" class="edge">
<title>Node11&#45;&gt;Node9</title>
<g id="a_edge15_Node000011_Node000009"><a xlink:title=" ">
<path fill="none" stroke="#63b8ff" d="M297.74,-54.98C267.56,-46.05 219.93,-31.94 186.4,-22.02"/>
<polygon fill="#63b8ff" stroke="#63b8ff" points="187.07,-18.57 176.48,-19.08 185.08,-25.28 187.07,-18.57"/>
</a>
</g>
</g>
<!-- Node12 -->
<g id="Node000012" class="node">
<title>Node12</title>
<g id="a_Node000012"><a xlink:title=" ">
<polygon fill="#e0e0e0" stroke="#999999" points="348.5,-19 194.5,-19 194.5,0 348.5,0 348.5,-19"/>
<text text-anchor="middle" x="271.5" y="-7" font-family="Helvetica,sans-Serif" font-size="10.00">boost/core/noncopyable.hpp</text>
</a>
</g>
</g>
<!-- Node11&#45;&gt;Node12 -->
<g id="edge16_Node000011_Node000012" class="edge">
<title>Node11&#45;&gt;Node12</title>
<g id="a_edge16_Node000011_Node000012"><a xlink:title=" ">
<path fill="none" stroke="#63b8ff" d="M317.42,-54.75C309.41,-47.03 297.54,-35.6 287.88,-26.28"/>
<polygon fill="#63b8ff" stroke="#63b8ff" points="290.04,-23.51 280.41,-19.09 285.19,-28.55 290.04,-23.51"/>
</a>
</g>
</g>
</g>
</svg>
