<?xml version="1.0" encoding="UTF-8" standalone="no"?>
<!DOCTYPE svg PUBLIC "-//W3C//DTD SVG 1.1//EN"
 "http://www.w3.org/Graphics/SVG/1.1/DTD/svg11.dtd">
<!-- Generated by graphviz version 2.43.0 (0)
 -->
<!-- Title: library/property/cpp/include/tetengo/property/memory_storage.hpp Pages: 1 -->
<svg width="709pt" height="159pt"
 viewBox="0.00 0.00 709.00 159.00" xmlns="http://www.w3.org/2000/svg" xmlns:xlink="http://www.w3.org/1999/xlink">
<g id="graph0" class="graph" transform="scale(1 1) rotate(0) translate(4 155)">
<title>library/property/cpp/include/tetengo/property/memory_storage.hpp</title>
<!-- Node1 -->
<g id="Node000001" class="node">
<title>Node1</title>
<g id="a_Node000001"><a xlink:title="A memory storage.">
<polygon fill="#999999" stroke="#666666" points="185,-151 45,-151 45,-110 185,-110 185,-151"/>
<text text-anchor="start" x="53" y="-139" font-family="Helvetica,sans-Serif" font-size="10.00">library/property/cpp</text>
<text text-anchor="start" x="53" y="-128" font-family="Helvetica,sans-Serif" font-size="10.00">/include/tetengo/property</text>
<text text-anchor="middle" x="115" y="-117" font-family="Helvetica,sans-Serif" font-size="10.00">/memory_storage.hpp</text>
</a>
</g>
</g>
<!-- Node2 -->
<g id="Node000002" class="node">
<title>Node2</title>
<g id="a_Node000002"><a xlink:title=" ">
<polygon fill="#e0e0e0" stroke="#999999" points="68,-19 0,-19 0,0 68,0 68,-19"/>
<text text-anchor="middle" x="34" y="-7" font-family="Helvetica,sans-Serif" font-size="10.00">filesystem</text>
</a>
</g>
</g>
<!-- Node1&#45;&gt;Node2 -->
<g id="edge1_Node000001_Node000002" class="edge">
<title>Node1&#45;&gt;Node2</title>
<g id="a_edge1_Node000001_Node000002"><a xlink:title=" ">
<path fill="none" stroke="#63b8ff" d="M101.62,-109.85C86.05,-86.96 60.56,-49.52 45.72,-27.72"/>
<polygon fill="#63b8ff" stroke="#63b8ff" points="48.43,-25.47 39.9,-19.18 42.64,-29.41 48.43,-25.47"/>
</a>
</g>
</g>
<!-- Node3 -->
<g id="Node000003" class="node">
<title>Node3</title>
<g id="a_Node000003"><a xlink:title=" ">
<polygon fill="#e0e0e0" stroke="#999999" points="144,-19 86,-19 86,0 144,0 144,-19"/>
<text text-anchor="middle" x="115" y="-7" font-family="Helvetica,sans-Serif" font-size="10.00">memory</text>
</a>
</g>
</g>
<!-- Node1&#45;&gt;Node3 -->
<g id="edge2_Node000001_Node000003" class="edge">
<title>Node1&#45;&gt;Node3</title>
<g id="a_edge2_Node000001_Node000003"><a xlink:title=" ">
<path fill="none" stroke="#63b8ff" d="M115,-109.85C115,-87.48 115,-51.19 115,-29.21"/>
<polygon fill="#63b8ff" stroke="#63b8ff" points="118.5,-29.18 115,-19.18 111.5,-29.18 118.5,-29.18"/>
</a>
</g>
</g>
<!-- Node4 -->
<g id="Node000004" class="node">
<title>Node4</title>
<g id="a_Node000004"><a xlink:href="property_2cpp_2include_2tetengo_2property_2storage_8hpp.html" target="_top" xlink:title="A storage.">
<polygon fill="white" stroke="#666666" points="337.5,-74 178.5,-74 178.5,-55 337.5,-55 337.5,-74"/>
<text text-anchor="middle" x="258" y="-62" font-family="Helvetica,sans-Serif" font-size="10.00">tetengo/property/storage.hpp</text>
</a>
</g>
</g>
<!-- Node1&#45;&gt;Node4 -->
<g id="edge3_Node000001_Node000004" class="edge">
<title>Node1&#45;&gt;Node4</title>
<g id="a_edge3_Node000001_Node000004"><a xlink:title=" ">
<path fill="none" stroke="#63b8ff" d="M158.68,-109.95C181.69,-99.65 209.26,-87.31 229.5,-78.25"/>
<polygon fill="#63b8ff" stroke="#63b8ff" points="231.1,-81.37 238.8,-74.09 228.25,-74.98 231.1,-81.37"/>
</a>
</g>
</g>
<!-- Node4&#45;&gt;Node2 -->
<g id="edge5_Node000004_Node000002" class="edge">
<title>Node4&#45;&gt;Node2</title>
<g id="a_edge5_Node000004_Node000002"><a xlink:title=" ">
<path fill="none" stroke="#63b8ff" d="M222.01,-54.98C182.82,-45.71 120.13,-30.88 78.03,-20.92"/>
<polygon fill="#63b8ff" stroke="#63b8ff" points="78.6,-17.46 68.06,-18.56 76.99,-24.27 78.6,-17.46"/>
</a>
</g>
</g>
<!-- Node4&#45;&gt;Node3 -->
<g id="edge6_Node000004_Node000003" class="edge">
<title>Node4&#45;&gt;Node3</title>
<g id="a_edge6_Node000004_Node000003"><a xlink:title=" ">
<path fill="none" stroke="#63b8ff" d="M235.02,-54.98C211.5,-46.27 174.71,-32.63 148.06,-22.75"/>
<polygon fill="#63b8ff" stroke="#63b8ff" points="148.99,-19.36 138.39,-19.17 146.55,-25.93 148.99,-19.36"/>
</a>
</g>
</g>
<!-- Node5 -->
<g id="Node000005" class="node">
<title>Node5</title>
<g id="a_Node000005"><a xlink:title=" ">
<polygon fill="#e0e0e0" stroke="#999999" points="212,-19 162,-19 162,0 212,0 212,-19"/>
<text text-anchor="middle" x="187" y="-7" font-family="Helvetica,sans-Serif" font-size="10.00">cstdint</text>
</a>
</g>
</g>
<!-- Node4&#45;&gt;Node5 -->
<g id="edge4_Node000004_Node000005" class="edge">
<title>Node4&#45;&gt;Node5</title>
<g id="a_edge4_Node000004_Node000005"><a xlink:title=" ">
<path fill="none" stroke="#63b8ff" d="M246.59,-54.98C235.89,-47 219.66,-34.88 206.84,-25.31"/>
<polygon fill="#63b8ff" stroke="#63b8ff" points="208.72,-22.35 198.61,-19.17 204.53,-27.96 208.72,-22.35"/>
</a>
</g>
</g>
<!-- Node6 -->
<g id="Node000006" class="node">
<title>Node6</title>
<g id="a_Node000006"><a xlink:title=" ">
<polygon fill="#e0e0e0" stroke="#999999" points="286,-19 230,-19 230,0 286,0 286,-19"/>
<text text-anchor="middle" x="258" y="-7" font-family="Helvetica,sans-Serif" font-size="10.00">optional</text>
</a>
</g>
</g>
<!-- Node4&#45;&gt;Node6 -->
<g id="edge7_Node000004_Node000006" class="edge">
<title>Node4&#45;&gt;Node6</title>
<g id="a_edge7_Node000004_Node000006"><a xlink:title=" ">
<path fill="none" stroke="#63b8ff" d="M258,-54.75C258,-47.8 258,-37.85 258,-29.13"/>
<polygon fill="#63b8ff" stroke="#63b8ff" points="261.5,-29.09 258,-19.09 254.5,-29.09 261.5,-29.09"/>
</a>
</g>
</g>
<!-- Node7 -->
<g id="Node000007" class="node">
<title>Node7</title>
<g id="a_Node000007"><a xlink:title=" ">
<polygon fill="#e0e0e0" stroke="#999999" points="348,-19 304,-19 304,0 348,0 348,-19"/>
<text text-anchor="middle" x="326" y="-7" font-family="Helvetica,sans-Serif" font-size="10.00">string</text>
</a>
</g>
</g>
<!-- Node4&#45;&gt;Node7 -->
<g id="edge8_Node000004_Node000007" class="edge">
<title>Node4&#45;&gt;Node7</title>
<g id="a_edge8_Node000004_Node000007"><a xlink:title=" ">
<path fill="none" stroke="#63b8ff" d="M268.93,-54.98C279.08,-47.07 294.42,-35.11 306.65,-25.58"/>
<polygon fill="#63b8ff" stroke="#63b8ff" points="309.14,-28.08 314.88,-19.17 304.84,-22.56 309.14,-28.08"/>
</a>
</g>
</g>
<!-- Node8 -->
<g id="Node000008" class="node">
<title>Node8</title>
<g id="a_Node000008"><a xlink:title=" ">
<polygon fill="#e0e0e0" stroke="#999999" points="459.5,-19 366.5,-19 366.5,0 459.5,0 459.5,-19"/>
<text text-anchor="middle" x="413" y="-7" font-family="Helvetica,sans-Serif" font-size="10.00">unordered_map</text>
</a>
</g>
</g>
<!-- Node4&#45;&gt;Node8 -->
<g id="edge9_Node000004_Node000008" class="edge">
<title>Node4&#45;&gt;Node8</title>
<g id="a_edge9_Node000004_Node000008"><a xlink:title=" ">
<path fill="none" stroke="#63b8ff" d="M282.9,-54.98C308.7,-46.16 349.22,-32.31 378.18,-22.41"/>
<polygon fill="#63b8ff" stroke="#63b8ff" points="379.57,-25.63 387.9,-19.08 377.31,-19.01 379.57,-25.63"/>
</a>
</g>
</g>
<!-- Node9 -->
<g id="Node000009" class="node">
<title>Node9</title>
<g id="a_Node000009"><a xlink:title=" ">
<polygon fill="#e0e0e0" stroke="#999999" points="528.5,-19 477.5,-19 477.5,0 528.5,0 528.5,-19"/>
<text text-anchor="middle" x="503" y="-7" font-family="Helvetica,sans-Serif" font-size="10.00">variant</text>
</a>
</g>
</g>
<!-- Node4&#45;&gt;Node9 -->
<g id="edge10_Node000004_Node000009" class="edge">
<title>Node4&#45;&gt;Node9</title>
<g id="a_edge10_Node000004_Node000009"><a xlink:title=" ">
<path fill="none" stroke="#63b8ff" d="M300.94,-54.93C341.48,-46.73 404.22,-33.76 467.28,-19.33"/>
<polygon fill="#63b8ff" stroke="#63b8ff" points="468.44,-22.66 477.4,-17.01 466.87,-15.84 468.44,-22.66"/>
</a>
</g>
</g>
<!-- Node10 -->
<g id="Node000010" class="node">
<title>Node10</title>
<g id="a_Node000010"><a xlink:title=" ">
<polygon fill="#e0e0e0" stroke="#999999" points="701,-19 547,-19 547,0 701,0 701,-19"/>
<text text-anchor="middle" x="624" y="-7" font-family="Helvetica,sans-Serif" font-size="10.00">boost/core/noncopyable.hpp</text>
</a>
</g>
</g>
<!-- Node4&#45;&gt;Node10 -->
<g id="edge11_Node000004_Node000010" class="edge">
<title>Node4&#45;&gt;Node10</title>
<g id="a_edge11_Node000004_Node000010"><a xlink:title=" ">
<path fill="none" stroke="#63b8ff" d="M316.8,-54.98C381.67,-45.59 485.96,-30.49 554.74,-20.53"/>
<polygon fill="#63b8ff" stroke="#63b8ff" points="555.64,-23.94 565.04,-19.04 554.64,-17.01 555.64,-23.94"/>
</a>
</g>
</g>
</g>
</svg>
