<?xml version="1.0" encoding="UTF-8" standalone="no"?>
<!DOCTYPE svg PUBLIC "-//W3C//DTD SVG 1.1//EN"
 "http://www.w3.org/Graphics/SVG/1.1/DTD/svg11.dtd">
<!-- Generated by graphviz version 2.43.0 (0)
 -->
<!-- Title: library/json/cpp/include/tetengo/json/stream_reader.hpp Pages: 1 -->
<svg width="371pt" height="148pt"
 viewBox="0.00 0.00 370.50 148.00" xmlns="http://www.w3.org/2000/svg" xmlns:xlink="http://www.w3.org/1999/xlink">

<svg id="main" version="1.1" xmlns="http://www.w3.org/2000/svg" xmlns:xlink="http://www.w3.org/1999/xlink" xml:space="preserve">

<style type="text/css"><![CDATA[
.node, .edge {opacity: 0.7;}
.node.selected, .edge.selected {opacity: 1;}
.edge:hover path { stroke: red; }
.edge:hover polygon { stroke: red; fill: red; }
]]></style>
<script type="application/ecmascript" xlink:href="svg.min.js"/>
<svg id="graph" class="graph">
<g id="graph0" class="graph" transform="scale(1 1) rotate(0) translate(4 144)">
<title>library/json/cpp/include/tetengo/json/stream_reader.hpp</title>
<!-- Node1 -->
<g id="Node000001" class="node">
<title>Node1</title>
<g id="a_Node000001"><a xlink:title="A stream reader.">
<polygon fill="#999999" stroke="#666666" points="223,-140 48,-140 48,-110 223,-110 223,-140"/>
<text text-anchor="start" x="56" y="-128" font-family="Helvetica,sans-Serif" font-size="10.00">library/json/cpp/include</text>
<text text-anchor="middle" x="135.5" y="-117" font-family="Helvetica,sans-Serif" font-size="10.00">/tetengo/json/stream_reader.hpp</text>
</a>
</g>
</g>
<!-- Node2 -->
<g id="Node000002" class="node">
<title>Node2</title>
<g id="a_Node000002"><a xlink:title=" ">
<polygon fill="#e0e0e0" stroke="#999999" points="53,-74 0,-74 0,-55 53,-55 53,-74"/>
<text text-anchor="middle" x="26.5" y="-62" font-family="Helvetica,sans-Serif" font-size="10.00">cstddef</text>
</a>
</g>
</g>
<!-- Node1&#45;&gt;Node2 -->
<g id="edge1_Node000001_Node000002" class="edge">
<title>Node1&#45;&gt;Node2</title>
<g id="a_edge1_Node000001_Node000002"><a xlink:title=" ">
<path fill="none" stroke="#63b8ff" d="M109.39,-109.99C91.86,-100.58 68.88,-88.24 51.56,-78.95"/>
<polygon fill="#63b8ff" stroke="#63b8ff" points="53.06,-75.78 42.6,-74.14 49.75,-81.95 53.06,-75.78"/>
</a>
</g>
</g>
<!-- Node3 -->
<g id="Node000003" class="node">
<title>Node3</title>
<g id="a_Node000003"><a xlink:title=" ">
<polygon fill="#e0e0e0" stroke="#999999" points="125.5,-74 71.5,-74 71.5,-55 125.5,-55 125.5,-74"/>
<text text-anchor="middle" x="98.5" y="-62" font-family="Helvetica,sans-Serif" font-size="10.00">istream</text>
</a>
</g>
</g>
<!-- Node1&#45;&gt;Node3 -->
<g id="edge2_Node000001_Node000003" class="edge">
<title>Node1&#45;&gt;Node3</title>
<g id="a_edge2_Node000001_Node000003"><a xlink:title=" ">
<path fill="none" stroke="#63b8ff" d="M126.54,-109.84C121.39,-101.69 114.88,-91.4 109.43,-82.78"/>
<polygon fill="#63b8ff" stroke="#63b8ff" points="112.35,-80.85 104.04,-74.27 106.43,-84.59 112.35,-80.85"/>
</a>
</g>
</g>
<!-- Node4 -->
<g id="Node000004" class="node">
<title>Node4</title>
<g id="a_Node000004"><a xlink:title=" ">
<polygon fill="#e0e0e0" stroke="#999999" points="201.5,-74 143.5,-74 143.5,-55 201.5,-55 201.5,-74"/>
<text text-anchor="middle" x="172.5" y="-62" font-family="Helvetica,sans-Serif" font-size="10.00">memory</text>
</a>
</g>
</g>
<!-- Node1&#45;&gt;Node4 -->
<g id="edge3_Node000001_Node000004" class="edge">
<title>Node1&#45;&gt;Node4</title>
<g id="a_edge3_Node000001_Node000004"><a xlink:title=" ">
<path fill="none" stroke="#63b8ff" d="M144.46,-109.84C149.61,-101.69 156.12,-91.4 161.57,-82.78"/>
<polygon fill="#63b8ff" stroke="#63b8ff" points="164.57,-84.59 166.96,-74.27 158.65,-80.85 164.57,-84.59"/>
</a>
</g>
</g>
<!-- Node5 -->
<g id="Node000005" class="node">
<title>Node5</title>
<g id="a_Node000005"><a xlink:href="reader_8hpp.html" target="_top" xlink:title="A reader.">
<polygon fill="white" stroke="#666666" points="351.5,-74 219.5,-74 219.5,-55 351.5,-55 351.5,-74"/>
<text text-anchor="middle" x="285.5" y="-62" font-family="Helvetica,sans-Serif" font-size="10.00">tetengo/json/reader.hpp</text>
</a>
</g>
</g>
<!-- Node1&#45;&gt;Node5 -->
<g id="edge4_Node000001_Node000005" class="edge">
<title>Node1&#45;&gt;Node5</title>
<g id="a_edge4_Node000001_Node000005"><a xlink:title=" ">
<path fill="none" stroke="#63b8ff" d="M171.43,-109.99C196.57,-100.18 229.83,-87.21 253.95,-77.81"/>
<polygon fill="#63b8ff" stroke="#63b8ff" points="255.3,-81.03 263.35,-74.14 252.76,-74.51 255.3,-81.03"/>
</a>
</g>
</g>
<!-- Node6 -->
<g id="Node000006" class="node">
<title>Node6</title>
<g id="a_Node000006"><a xlink:title=" ">
<polygon fill="#e0e0e0" stroke="#999999" points="362.5,-19 208.5,-19 208.5,0 362.5,0 362.5,-19"/>
<text text-anchor="middle" x="285.5" y="-7" font-family="Helvetica,sans-Serif" font-size="10.00">boost/core/noncopyable.hpp</text>
</a>
</g>
</g>
<!-- Node5&#45;&gt;Node6 -->
<g id="edge5_Node000005_Node000006" class="edge">
<title>Node5&#45;&gt;Node6</title>
<g id="a_edge5_Node000005_Node000006"><a xlink:title=" ">
<path fill="none" stroke="#63b8ff" d="M285.5,-54.75C285.5,-47.8 285.5,-37.85 285.5,-29.13"/>
<polygon fill="#63b8ff" stroke="#63b8ff" points="289,-29.09 285.5,-19.09 282,-29.09 289,-29.09"/>
</a>
</g>
</g>
</g>
</svg>
</svg>

<style type='text/css'>
<![CDATA[
[data-mouse-over-selected='false'] { opacity: 0.7; }
[data-mouse-over-selected='true']  { opacity: 1.0; }
]]>
</style>
<script type="application/ecmascript"><![CDATA[
document.addEventListener('DOMContentLoaded', (event) => {
  highlightEdges();
  highlightAdjacentNodes();
});
]]></script>
</svg>
