<?xml version="1.0" encoding="UTF-8" standalone="no"?>
<!DOCTYPE svg PUBLIC "-//W3C//DTD SVG 1.1//EN"
 "http://www.w3.org/Graphics/SVG/1.1/DTD/svg11.dtd">
<!-- Generated by graphviz version 2.43.0 (0)
 -->
<!-- Title: library/lattice/c/include/tetengo/lattice/stringView.h Pages: 1 -->
<svg width="603pt" height="368pt"
 viewBox="0.00 0.00 603.00 368.00" xmlns="http://www.w3.org/2000/svg" xmlns:xlink="http://www.w3.org/1999/xlink">
<g id="graph0" class="graph" transform="scale(1 1) rotate(0) translate(4 364)">
<title>library/lattice/c/include/tetengo/lattice/stringView.h</title>
<!-- Node1 -->
<g id="Node000001" class="node">
<title>Node1</title>
<g id="a_Node000001"><a xlink:title="A string view.">
<polygon fill="#999999" stroke="#666666" points="261,-360 107,-360 107,-330 261,-330 261,-360"/>
<text text-anchor="start" x="115" y="-348" font-family="Helvetica,sans-Serif" font-size="10.00">library/lattice/c/include</text>
<text text-anchor="middle" x="184" y="-337" font-family="Helvetica,sans-Serif" font-size="10.00">/tetengo/lattice/stringView.h</text>
</a>
</g>
</g>
<!-- Node2 -->
<g id="Node000002" class="node">
<title>Node2</title>
<g id="a_Node000002"><a xlink:href="entry_8h.html" target="_top" xlink:title="An entry.">
<polygon fill="white" stroke="#666666" points="248,-294 120,-294 120,-264 248,-264 248,-294"/>
<text text-anchor="start" x="128" y="-282" font-family="Helvetica,sans-Serif" font-size="10.00">library/lattice/c/include</text>
<text text-anchor="middle" x="184" y="-271" font-family="Helvetica,sans-Serif" font-size="10.00">/tetengo/lattice/entry.h</text>
</a>
</g>
</g>
<!-- Node1&#45;&gt;Node2 -->
<g id="edge1_Node000001_Node000002" class="edge">
<title>Node1&#45;&gt;Node2</title>
<g id="a_edge1_Node000001_Node000002"><a xlink:title=" ">
<path fill="none" stroke="#63b8ff" d="M184,-319.54C184,-310.96 184,-301.61 184,-294.16"/>
<polygon fill="#63b8ff" stroke="#63b8ff" points="180.5,-319.8 184,-329.8 187.5,-319.8 180.5,-319.8"/>
</a>
</g>
</g>
<!-- Node3 -->
<g id="Node000003" class="node">
<title>Node3</title>
<g id="a_Node000003"><a xlink:href="connection_8h.html" target="_top" xlink:title="A connection.">
<polygon fill="white" stroke="#666666" points="156,-228 0,-228 0,-198 156,-198 156,-228"/>
<text text-anchor="start" x="8" y="-216" font-family="Helvetica,sans-Serif" font-size="10.00">library/lattice/c/include</text>
<text text-anchor="middle" x="78" y="-205" font-family="Helvetica,sans-Serif" font-size="10.00">/tetengo/lattice/connection.h</text>
</a>
</g>
</g>
<!-- Node2&#45;&gt;Node3 -->
<g id="edge2_Node000002_Node000003" class="edge">
<title>Node2&#45;&gt;Node3</title>
<g id="a_edge2_Node000002_Node000003"><a xlink:title=" ">
<path fill="none" stroke="#63b8ff" d="M152.03,-258.69C135.66,-248.82 116.11,-237.01 101.21,-228.01"/>
<polygon fill="#63b8ff" stroke="#63b8ff" points="150.37,-261.78 160.74,-263.95 153.99,-255.79 150.37,-261.78"/>
</a>
</g>
</g>
<!-- Node4 -->
<g id="Node000004" class="node">
<title>Node4</title>
<g id="a_Node000004"><a xlink:href="vocabulary_8h.html" target="_top" xlink:title="A vocabulary.">
<polygon fill="white" stroke="#666666" points="190.5,-162 35.5,-162 35.5,-132 190.5,-132 190.5,-162"/>
<text text-anchor="start" x="43.5" y="-150" font-family="Helvetica,sans-Serif" font-size="10.00">library/lattice/c/include</text>
<text text-anchor="middle" x="113" y="-139" font-family="Helvetica,sans-Serif" font-size="10.00">/tetengo/lattice/vocabulary.h</text>
</a>
</g>
</g>
<!-- Node2&#45;&gt;Node4 -->
<g id="edge16_Node000002_Node000004" class="edge">
<title>Node2&#45;&gt;Node4</title>
<g id="a_edge16_Node000002_Node000004"><a xlink:title=" ">
<path fill="none" stroke="#63b8ff" d="M181.87,-253.81C179.57,-237.22 174.82,-215.18 165,-198 156.92,-183.86 143.64,-171.19 132.52,-162.14"/>
<polygon fill="#63b8ff" stroke="#63b8ff" points="178.41,-254.3 183.06,-263.82 185.36,-253.48 178.41,-254.3"/>
</a>
</g>
</g>
<!-- Node7 -->
<g id="Node000007" class="node">
<title>Node7</title>
<g id="a_Node000007"><a xlink:href="node_8h.html" target="_top" xlink:title="A node.">
<polygon fill="white" stroke="#666666" points="340,-228 212,-228 212,-198 340,-198 340,-228"/>
<text text-anchor="start" x="220" y="-216" font-family="Helvetica,sans-Serif" font-size="10.00">library/lattice/c/include</text>
<text text-anchor="middle" x="276" y="-205" font-family="Helvetica,sans-Serif" font-size="10.00">/tetengo/lattice/node.h</text>
</a>
</g>
</g>
<!-- Node2&#45;&gt;Node7 -->
<g id="edge6_Node000002_Node000007" class="edge">
<title>Node2&#45;&gt;Node7</title>
<g id="a_edge6_Node000002_Node000007"><a xlink:title=" ">
<path fill="none" stroke="#63b8ff" d="M212.71,-258.03C226.63,-248.34 243.03,-236.94 255.64,-228.16"/>
<polygon fill="#63b8ff" stroke="#63b8ff" points="210.63,-255.21 204.42,-263.8 214.63,-260.96 210.63,-255.21"/>
</a>
</g>
</g>
<!-- Node3&#45;&gt;Node4 -->
<g id="edge3_Node000003_Node000004" class="edge">
<title>Node3&#45;&gt;Node4</title>
<g id="a_edge3_Node000003_Node000004"><a xlink:title=" ">
<path fill="none" stroke="#63b8ff" d="M90.6,-188.96C95.5,-180 100.95,-170.03 105.25,-162.16"/>
<polygon fill="#63b8ff" stroke="#63b8ff" points="87.5,-187.34 85.77,-197.8 93.64,-190.7 87.5,-187.34"/>
</a>
</g>
</g>
<!-- Node5 -->
<g id="Node000005" class="node">
<title>Node5</title>
<g id="a_Node000005"><a xlink:href="lattice_8h.html" target="_top" xlink:title="A lattice.">
<polygon fill="white" stroke="#666666" points="229,-96 95,-96 95,-66 229,-66 229,-96"/>
<text text-anchor="start" x="103" y="-84" font-family="Helvetica,sans-Serif" font-size="10.00">library/lattice/c/include</text>
<text text-anchor="middle" x="162" y="-73" font-family="Helvetica,sans-Serif" font-size="10.00">/tetengo/lattice/lattice.h</text>
</a>
</g>
</g>
<!-- Node4&#45;&gt;Node5 -->
<g id="edge4_Node000004_Node000005" class="edge">
<title>Node4&#45;&gt;Node5</title>
<g id="a_edge4_Node000004_Node000005"><a xlink:title=" ">
<path fill="none" stroke="#63b8ff" d="M129.99,-123.81C137.01,-114.64 144.94,-104.28 151.16,-96.16"/>
<polygon fill="#63b8ff" stroke="#63b8ff" points="127.17,-121.73 123.87,-131.8 132.73,-125.98 127.17,-121.73"/>
</a>
</g>
</g>
<!-- Node6 -->
<g id="Node000006" class="node">
<title>Node6</title>
<g id="a_Node000006"><a xlink:href="nBestIterator_8h.html" target="_top" xlink:title="An N&#45;best lattice path iterator.">
<polygon fill="white" stroke="#666666" points="392,-30 226,-30 226,0 392,0 392,-30"/>
<text text-anchor="start" x="234" y="-18" font-family="Helvetica,sans-Serif" font-size="10.00">library/lattice/c/include</text>
<text text-anchor="middle" x="309" y="-7" font-family="Helvetica,sans-Serif" font-size="10.00">/tetengo/lattice/nBestIterator.h</text>
</a>
</g>
</g>
<!-- Node5&#45;&gt;Node6 -->
<g id="edge5_Node000005_Node000006" class="edge">
<title>Node5&#45;&gt;Node6</title>
<g id="a_edge5_Node000005_Node000006"><a xlink:title=" ">
<path fill="none" stroke="#63b8ff" d="M203.53,-61.92C226.76,-51.8 255.29,-39.38 276.82,-30.01"/>
<polygon fill="#63b8ff" stroke="#63b8ff" points="202.03,-58.75 194.26,-65.95 204.83,-65.17 202.03,-58.75"/>
</a>
</g>
</g>
<!-- Node7&#45;&gt;Node4 -->
<g id="edge15_Node000007_Node000004" class="edge">
<title>Node7&#45;&gt;Node4</title>
<g id="a_edge15_Node000007_Node000004"><a xlink:title=" ">
<path fill="none" stroke="#63b8ff" d="M230.64,-194.19C204.75,-184.02 172.77,-171.47 148.69,-162.01"/>
<polygon fill="#63b8ff" stroke="#63b8ff" points="229.64,-197.56 240.23,-197.95 232.2,-191.04 229.64,-197.56"/>
</a>
</g>
</g>
<!-- Node7&#45;&gt;Node5 -->
<g id="edge11_Node000007_Node000005" class="edge">
<title>Node7&#45;&gt;Node5</title>
<g id="a_edge11_Node000007_Node000005"><a xlink:title=" ">
<path fill="none" stroke="#63b8ff" d="M256.84,-190.15C233.36,-163.38 194.26,-118.79 174.4,-96.14"/>
<polygon fill="#63b8ff" stroke="#63b8ff" points="254.36,-192.63 263.58,-197.84 259.62,-188.01 254.36,-192.63"/>
</a>
</g>
</g>
<!-- Node7&#45;&gt;Node6 -->
<g id="edge12_Node000007_Node000006" class="edge">
<title>Node7&#45;&gt;Node6</title>
<g id="a_edge12_Node000007_Node000006"><a xlink:title=" ">
<path fill="none" stroke="#63b8ff" d="M271.82,-187.74C267.69,-158.26 263.59,-107.33 276,-66 280.01,-52.65 288.86,-39.58 296.39,-30.15"/>
<polygon fill="#63b8ff" stroke="#63b8ff" points="268.41,-188.57 273.38,-197.93 275.33,-187.51 268.41,-188.57"/>
</a>
</g>
</g>
<!-- Node8 -->
<g id="Node000008" class="node">
<title>Node8</title>
<g id="a_Node000008"><a xlink:href="constraint_8h.html" target="_top" xlink:title="A constraint.">
<polygon fill="white" stroke="#666666" points="437,-96 285,-96 285,-66 437,-66 437,-96"/>
<text text-anchor="start" x="293" y="-84" font-family="Helvetica,sans-Serif" font-size="10.00">library/lattice/c/include</text>
<text text-anchor="middle" x="361" y="-73" font-family="Helvetica,sans-Serif" font-size="10.00">/tetengo/lattice/constraint.h</text>
</a>
</g>
</g>
<!-- Node7&#45;&gt;Node8 -->
<g id="edge7_Node000007_Node000008" class="edge">
<title>Node7&#45;&gt;Node8</title>
<g id="a_edge7_Node000007_Node000008"><a xlink:title=" ">
<path fill="none" stroke="#63b8ff" d="M284.87,-188.54C291.64,-172.02 301.87,-149.77 314,-132 323,-118.81 335.46,-105.73 345.28,-96.26"/>
<polygon fill="#63b8ff" stroke="#63b8ff" points="281.55,-187.41 281.11,-198 288.05,-190 281.55,-187.41"/>
</a>
</g>
</g>
<!-- Node9 -->
<g id="Node000009" class="node">
<title>Node9</title>
<g id="a_Node000009"><a xlink:href="constraintElement_8h.html" target="_top" xlink:title="A constraint element.">
<polygon fill="white" stroke="#666666" points="515,-162 323,-162 323,-132 515,-132 515,-162"/>
<text text-anchor="start" x="331" y="-150" font-family="Helvetica,sans-Serif" font-size="10.00">library/lattice/c/include</text>
<text text-anchor="middle" x="419" y="-139" font-family="Helvetica,sans-Serif" font-size="10.00">/tetengo/lattice/constraintElement.h</text>
</a>
</g>
</g>
<!-- Node7&#45;&gt;Node9 -->
<g id="edge9_Node000007_Node000009" class="edge">
<title>Node7&#45;&gt;Node9</title>
<g id="a_edge9_Node000007_Node000009"><a xlink:title=" ">
<path fill="none" stroke="#63b8ff" d="M316.7,-193.78C339.25,-183.69 366.84,-171.34 387.69,-162.01"/>
<polygon fill="#63b8ff" stroke="#63b8ff" points="315.08,-190.68 307.38,-197.95 317.94,-197.06 315.08,-190.68"/>
</a>
</g>
</g>
<!-- Node10 -->
<g id="Node000010" class="node">
<title>Node10</title>
<g id="a_Node000010"><a xlink:href="path_8h.html" target="_top" xlink:title="A path.">
<polygon fill="white" stroke="#666666" points="595,-96 467,-96 467,-66 595,-66 595,-96"/>
<text text-anchor="start" x="475" y="-84" font-family="Helvetica,sans-Serif" font-size="10.00">library/lattice/c/include</text>
<text text-anchor="middle" x="531" y="-73" font-family="Helvetica,sans-Serif" font-size="10.00">/tetengo/lattice/path.h</text>
</a>
</g>
</g>
<!-- Node7&#45;&gt;Node10 -->
<g id="edge13_Node000007_Node000010" class="edge">
<title>Node7&#45;&gt;Node10</title>
<g id="a_edge13_Node000007_Node000010"><a xlink:title=" ">
<path fill="none" stroke="#63b8ff" d="M350.21,-206.69C414.7,-200.42 501.25,-187.45 524,-162 540.08,-144.02 537.62,-113.81 534.34,-96.11"/>
<polygon fill="#63b8ff" stroke="#63b8ff" points="349.69,-203.23 340.06,-207.64 350.35,-210.2 349.69,-203.23"/>
</a>
</g>
</g>
<!-- Node8&#45;&gt;Node6 -->
<g id="edge8_Node000008_Node000006" class="edge">
<title>Node8&#45;&gt;Node6</title>
<g id="a_edge8_Node000008_Node000006"><a xlink:title=" ">
<path fill="none" stroke="#63b8ff" d="M342.97,-57.81C335.52,-48.64 327.1,-38.28 320.51,-30.16"/>
<polygon fill="#63b8ff" stroke="#63b8ff" points="340.44,-60.24 349.46,-65.8 345.87,-55.83 340.44,-60.24"/>
</a>
</g>
</g>
<!-- Node9&#45;&gt;Node8 -->
<g id="edge10_Node000009_Node000008" class="edge">
<title>Node9&#45;&gt;Node8</title>
<g id="a_edge10_Node000009_Node000008"><a xlink:title=" ">
<path fill="none" stroke="#63b8ff" d="M399.4,-124.37C390.96,-115.06 381.34,-104.44 373.84,-96.16"/>
<polygon fill="#63b8ff" stroke="#63b8ff" points="396.82,-126.74 406.13,-131.8 402.01,-122.04 396.82,-126.74"/>
</a>
</g>
</g>
<!-- Node10&#45;&gt;Node6 -->
<g id="edge14_Node000010_Node000006" class="edge">
<title>Node10&#45;&gt;Node6</title>
<g id="a_edge14_Node000010_Node000006"><a xlink:title=" ">
<path fill="none" stroke="#63b8ff" d="M472.45,-63.12C436.66,-52.8 391.41,-39.76 357.61,-30.01"/>
<polygon fill="#63b8ff" stroke="#63b8ff" points="471.7,-66.55 482.28,-65.95 473.64,-59.82 471.7,-66.55"/>
</a>
</g>
</g>
</g>
</svg>
