<?xml version="1.0" encoding="UTF-8"?>
<!-- Created with Inkscape (http://www.inkscape.org/) -->
<svg width="1e3" height="1e3" version="1.1" viewBox="0 0 264.58 264.58" xmlns="http://www.w3.org/2000/svg" xmlns:cc="http://creativecommons.org/ns#" xmlns:dc="http://purl.org/dc/elements/1.1/" xmlns:rdf="http://www.w3.org/1999/02/22-rdf-syntax-ns#" xmlns:xlink="http://www.w3.org/1999/xlink">
 <defs>
  <linearGradient id="linearGradient6155">
   <stop stop-color="#e04040" offset="0"/>
   <stop stop-color="#ff6061" offset="1"/>
  </linearGradient>
  <linearGradient id="linearGradient6139" x1="190.5" x2="-21.167" y1="270.54" y2="58.875" gradientTransform="matrix(.9 0 0 .9 8.3656 11.28)" gradientUnits="userSpaceOnUse" xlink:href="#linearGradient6155"/>
  <linearGradient id="linearGradient6181" x1="248.71" x2="195.79" y1="127.67" y2="74.75" gradientTransform="translate(-42.333 -37.042)" gradientUnits="userSpaceOnUse" xlink:href="#linearGradient6155"/>
  <linearGradient id="linearGradient6181-7" x1="248.71" x2="195.79" y1="127.67" y2="74.75" gradientTransform="translate(-4.4963e-5 21.167)" gradientUnits="userSpaceOnUse" xlink:href="#linearGradient6155"/>
  <linearGradient id="linearGradient6181-7-6" x1="248.71" x2="195.79" y1="127.67" y2="74.75" gradientTransform="translate(-5.2917 95.25)" gradientUnits="userSpaceOnUse" xlink:href="#linearGradient6155"/>
 </defs>
 <metadata>
  <rdf:RDF>
   <cc:Work rdf:about="">
    <dc:format>image/svg+xml</dc:format>
    <dc:type rdf:resource="http://purl.org/dc/dcmitype/StillImage"/>
    <dc:title/>
   </cc:Work>
  </rdf:RDF>
 </metadata>
 <g transform="translate(0 -32.417)">
  <g>
   <circle cx="84.667" cy="159.42" r="95.25" fill="url(#linearGradient6139)" stroke-width=".9"/>
   <g stroke-width=".26458">
    <circle cx="179.92" cy="64.167" r="26.458" fill="url(#linearGradient6181)"/>
    <circle cx="222.25" cy="122.38" r="26.458" fill="url(#linearGradient6181-7)"/>
    <circle cx="216.96" cy="196.46" r="26.458" fill="url(#linearGradient6181-7-6)"/>
   </g>
  </g>
  <g transform="translate(-6.2839 -12.245)" fill="#fff" stroke-width=".77496" style="font-feature-settings:normal;font-variant-caps:normal;font-variant-ligatures:normal;font-variant-numeric:normal" aria-label="tetengo.">
   <path d="m24.548 126.36h1.7487v5.0106h2.7533v1.4883h-2.7533v12.005h-1.7487v-12.005h-2.3688v-1.4883h2.3688z" style="font-feature-settings:normal;font-variant-caps:normal;font-variant-ligatures:normal;font-variant-numeric:normal"/>
   <path d="m43.028 140.38 1.4635 0.76895q-0.71934 1.4139-1.6619 2.282-0.94258 0.86816-2.1208 1.327-1.1782 0.44648-2.6665 0.44648-3.299 0-5.1594-2.158-1.8604-2.1704-1.8604-4.8989 0-2.5673 1.5751-4.5765 1.9968-2.5549 5.3454-2.5549 3.4479 0 5.5066 2.6169 1.4635 1.848 1.4883 4.6137h-12.129q0.04961 2.3564 1.5007 3.8695 1.4511 1.5007 3.5843 1.5007 1.0294 0 1.9968-0.35966 0.97978-0.35967 1.6619-0.95498 0.68213-0.59532 1.4759-1.9224zm0-3.6339q-0.34727-1.3891-1.017-2.22-0.65732-0.83096-1.7487-1.3395-1.0914-0.50849-2.2944-0.50849-1.9844 0-3.4106 1.2774-1.0418 0.93017-1.5751 2.7905z" style="font-feature-settings:normal;font-variant-caps:normal;font-variant-ligatures:normal;font-variant-numeric:normal"/>
   <path d="m49.7 126.36h1.7487v5.0106h2.7533v1.4883h-2.7533v12.005h-1.7487v-12.005h-2.3688v-1.4883h2.3688z" style="font-feature-settings:normal;font-variant-caps:normal;font-variant-ligatures:normal;font-variant-numeric:normal"/>
   <path d="m68.18 140.38 1.4635 0.76895q-0.71934 1.4139-1.6619 2.282t-2.1208 1.327q-1.1782 0.44648-2.6665 0.44648-3.299 0-5.1594-2.158-1.8604-2.1704-1.8604-4.8989 0-2.5673 1.5751-4.5765 1.9968-2.5549 5.3454-2.5549 3.4479 0 5.5066 2.6169 1.4635 1.848 1.4883 4.6137h-12.129q0.04961 2.3564 1.5007 3.8695 1.4511 1.5007 3.5843 1.5007 1.0294 0 1.9968-0.35966 0.97978-0.35967 1.6619-0.95498 0.68213-0.59532 1.4759-1.9224zm0-3.6339q-0.34727-1.3891-1.017-2.22-0.65732-0.83096-1.7487-1.3395-1.0914-0.50849-2.2944-0.50849-1.9844 0-3.4106 1.2774-1.0418 0.93017-1.5751 2.7905z" style="font-feature-settings:normal;font-variant-caps:normal;font-variant-ligatures:normal;font-variant-numeric:normal"/>
   <path d="m73.339 131.37h1.7363v2.4185q1.0418-1.3891 2.3068-2.0712 1.265-0.69453 2.7533-0.69453 1.5131 0 2.6789 0.76895 1.1782 0.76894 1.7363 2.0712 0.5581 1.3022 0.5581 4.0556v6.9453h-1.7239v-6.4368q0-2.3316-0.19844-3.113-0.31006-1.3394-1.1658-2.0092-0.85576-0.68212-2.2324-0.68212-1.5751 0-2.8277 1.0418-1.2402 1.0418-1.6371 2.5797-0.24805 1.0046-0.24805 3.6711v4.9485h-1.7363z" style="font-feature-settings:normal;font-variant-caps:normal;font-variant-ligatures:normal;font-variant-numeric:normal"/>
   <path d="m100.44 131.37h1.7487v10.753q0 2.8401-0.49609 4.1548-0.68213 1.8604-2.3689 2.8649-1.6867 1.0046-4.0556 1.0046-1.7363 0-3.1254-0.4961-1.3767-0.48369-2.2448-1.3146-0.86816-0.81856-1.5999-2.4061h1.8852q0.76894 1.3394 1.9844 1.9844 1.2154 0.64492 3.0138 0.64492 1.7735 0 2.989-0.66973 1.2278-0.65732 1.7487-1.6619 0.5209-1.0046 0.5209-3.237v-0.69454q-0.97979 1.2402-2.3937 1.91-1.4139 0.65733-3.0014 0.65733-1.8604 0-3.4975-0.91777-1.6371-0.93018-2.5301-2.4929-0.89297-1.5627-0.89297-3.4354 0-1.8728 0.93018-3.4851 0.93018-1.6247 2.5673-2.5673 1.6495-0.94258 3.4727-0.94258 1.5131 0 2.8153 0.63252 1.3146 0.62012 2.5301 2.0588zm-5.1222 1.327q-1.4759 0-2.7409 0.71934-1.265 0.70693-1.9844 1.972-0.71934 1.2526-0.71934 2.7161 0 2.22 1.4883 3.6711 1.4883 1.4511 3.8571 1.4511 2.3937 0 3.8447-1.4387 1.4635-1.4387 1.4635-3.7827 0-1.5255-0.66973-2.7161-0.66973-1.203-1.8976-1.8976t-2.6417-0.69453z" style="font-feature-settings:normal;font-variant-caps:normal;font-variant-ligatures:normal;font-variant-numeric:normal"/>
   <path d="m112.32 131.02q3.113 0 5.1594 2.2572 1.8604 2.0588 1.8604 4.8741 0 2.8277-1.972 4.9485-1.9596 2.1084-5.0478 2.1084-3.1006 0-5.0726-2.1084-1.9596-2.1208-1.9596-4.9485 0-2.8029 1.8604-4.8617 2.0464-2.2696 5.1718-2.2696zm0 1.6991q-2.158 0-3.7083 1.5999-1.5503 1.5999-1.5503 3.8695 0 1.4635 0.70693 2.7285 0.70694 1.265 1.91 1.9596 1.203 0.68213 2.6417 0.68213 1.4387 0 2.6417-0.68213 1.203-0.69453 1.91-1.9596 0.70694-1.265 0.70694-2.7285 0-2.2696-1.5627-3.8695-1.5503-1.5999-3.6959-1.5999z" style="font-feature-settings:normal;font-variant-caps:normal;font-variant-ligatures:normal;font-variant-numeric:normal"/>
   <path d="m124.46 142.13q0.63252 0 1.079 0.44649 0.44649 0.44648 0.44649 1.0914 0 0.63252-0.44649 1.0914-0.44648 0.44648-1.079 0.44648t-1.079-0.44648q-0.44648-0.45889-0.44648-1.0914 0-0.64492 0.44648-1.0914 0.44649-0.44649 1.079-0.44649z" style="font-feature-settings:normal;font-variant-caps:normal;font-variant-ligatures:normal;font-variant-numeric:normal"/>
  </g>
 </g>
</svg>
