<?xml version="1.0" encoding="UTF-8" standalone="no"?>
<!DOCTYPE svg PUBLIC "-//W3C//DTD SVG 1.1//EN"
 "http://www.w3.org/Graphics/SVG/1.1/DTD/svg11.dtd">
<!-- Generated by graphviz version 2.43.0 (0)
 -->
<!-- Title: library/json/cpp/include/tetengo/json/channel.hpp Pages: 1 -->
<svg width="393pt" height="93pt"
 viewBox="0.00 0.00 392.50 93.00" xmlns="http://www.w3.org/2000/svg" xmlns:xlink="http://www.w3.org/1999/xlink">
<g id="graph0" class="graph" transform="scale(1 1) rotate(0) translate(4 89)">
<title>library/json/cpp/include/tetengo/json/channel.hpp</title>
<!-- Node1 -->
<g id="node1" class="node">
<title>Node1</title>
<g id="a_node1"><a xlink:title="A channel.">
<polygon fill="#999999" stroke="#666666" points="215,-85 72,-85 72,-55 215,-55 215,-85"/>
<text text-anchor="start" x="80" y="-73" font-family="Helvetica,sans-Serif" font-size="10.00">library/json/cpp/include</text>
<text text-anchor="middle" x="143.5" y="-62" font-family="Helvetica,sans-Serif" font-size="10.00">/tetengo/json/channel.hpp</text>
</a>
</g>
</g>
<!-- Node2 -->
<g id="node2" class="node">
<title>Node2</title>
<g id="a_node2"><a xlink:title=" ">
<polygon fill="#e0e0e0" stroke="#999999" points="53,-19 0,-19 0,0 53,0 53,-19"/>
<text text-anchor="middle" x="26.5" y="-7" font-family="Helvetica,sans-Serif" font-size="10.00">cstddef</text>
</a>
</g>
</g>
<!-- Node1&#45;&gt;Node2 -->
<g id="edge1" class="edge">
<title>Node1&#45;&gt;Node2</title>
<path fill="none" stroke="#63b8ff" d="M115.48,-54.99C96.48,-45.49 71.53,-33.02 52.89,-23.69"/>
<polygon fill="#63b8ff" stroke="#63b8ff" points="54.29,-20.48 43.78,-19.14 51.16,-26.74 54.29,-20.48"/>
</g>
<!-- Node3 -->
<g id="node3" class="node">
<title>Node3</title>
<g id="a_node3"><a xlink:title=" ">
<polygon fill="#e0e0e0" stroke="#999999" points="136,-19 71,-19 71,0 136,0 136,-19"/>
<text text-anchor="middle" x="103.5" y="-7" font-family="Helvetica,sans-Serif" font-size="10.00">exception</text>
</a>
</g>
</g>
<!-- Node1&#45;&gt;Node3 -->
<g id="edge2" class="edge">
<title>Node1&#45;&gt;Node3</title>
<path fill="none" stroke="#63b8ff" d="M133.82,-54.84C128.25,-46.69 121.21,-36.4 115.32,-27.78"/>
<polygon fill="#63b8ff" stroke="#63b8ff" points="118.03,-25.55 109.49,-19.27 112.25,-29.5 118.03,-25.55"/>
</g>
<!-- Node4 -->
<g id="node4" class="node">
<title>Node4</title>
<g id="a_node4"><a xlink:title=" ">
<polygon fill="#e0e0e0" stroke="#999999" points="212.5,-19 154.5,-19 154.5,0 212.5,0 212.5,-19"/>
<text text-anchor="middle" x="183.5" y="-7" font-family="Helvetica,sans-Serif" font-size="10.00">memory</text>
</a>
</g>
</g>
<!-- Node1&#45;&gt;Node4 -->
<g id="edge3" class="edge">
<title>Node1&#45;&gt;Node4</title>
<path fill="none" stroke="#63b8ff" d="M153.18,-54.84C158.75,-46.69 165.79,-36.4 171.68,-27.78"/>
<polygon fill="#63b8ff" stroke="#63b8ff" points="174.75,-29.5 177.51,-19.27 168.97,-25.55 174.75,-29.5"/>
</g>
<!-- Node5 -->
<g id="node5" class="node">
<title>Node5</title>
<g id="a_node5"><a xlink:title=" ">
<polygon fill="#e0e0e0" stroke="#999999" points="384.5,-19 230.5,-19 230.5,0 384.5,0 384.5,-19"/>
<text text-anchor="middle" x="307.5" y="-7" font-family="Helvetica,sans-Serif" font-size="10.00">boost/core/noncopyable.hpp</text>
</a>
</g>
</g>
<!-- Node1&#45;&gt;Node5 -->
<g id="edge4" class="edge">
<title>Node1&#45;&gt;Node5</title>
<path fill="none" stroke="#63b8ff" d="M182.78,-54.99C210.51,-45.1 247.28,-31.98 273.7,-22.56"/>
<polygon fill="#63b8ff" stroke="#63b8ff" points="275.04,-25.8 283.28,-19.14 272.69,-19.2 275.04,-25.8"/>
</g>
</g>
</svg>
