<?xml version="1.0" encoding="UTF-8" standalone="no"?>
<!DOCTYPE svg PUBLIC "-//W3C//DTD SVG 1.1//EN"
 "http://www.w3.org/Graphics/SVG/1.1/DTD/svg11.dtd">
<!-- Generated by graphviz version 2.43.0 (0)
 -->
<!-- Title: library/text/cpp/include/tetengo/text/grapheme_splitting/character_width.hpp Pages: 1 -->
<svg width="386pt" height="128pt"
 viewBox="0.00 0.00 386.00 128.00" xmlns="http://www.w3.org/2000/svg" xmlns:xlink="http://www.w3.org/1999/xlink">
<g id="graph0" class="graph" transform="scale(1 1) rotate(0) translate(4 124)">
<title>library/text/cpp/include/tetengo/text/grapheme_splitting/character_width.hpp</title>
<polygon fill="white" stroke="transparent" points="-4,4 -4,-124 382,-124 382,4 -4,4"/>
<!-- Node1 -->
<g id="node1" class="node">
<title>Node1</title>
<g id="a_node1"><a xlink:title="A character width.">
<polygon fill="#bfbfbf" stroke="black" points="106,-78.5 106,-119.5 270,-119.5 270,-78.5 106,-78.5"/>
<text text-anchor="start" x="114" y="-107.5" font-family="Helvetica,sans-Serif" font-size="10.00">library/text/cpp/include</text>
<text text-anchor="start" x="114" y="-96.5" font-family="Helvetica,sans-Serif" font-size="10.00">/tetengo/text/grapheme</text>
<text text-anchor="middle" x="188" y="-85.5" font-family="Helvetica,sans-Serif" font-size="10.00">_splitting/character_width.hpp</text>
</a>
</g>
</g>
<!-- Node2 -->
<g id="node2" class="node">
<title>Node2</title>
<g id="a_node2"><a xlink:href="default__characterX_8hpp.html" target="_top" xlink:title="A default character width.">
<polygon fill="white" stroke="black" points="0,-0.5 0,-41.5 178,-41.5 178,-0.5 0,-0.5"/>
<text text-anchor="start" x="8" y="-29.5" font-family="Helvetica,sans-Serif" font-size="10.00">library/text/cpp/include</text>
<text text-anchor="start" x="8" y="-18.5" font-family="Helvetica,sans-Serif" font-size="10.00">/tetengo/text/grapheme</text>
<text text-anchor="middle" x="89" y="-7.5" font-family="Helvetica,sans-Serif" font-size="10.00">_splitting/default_characterX.hpp</text>
</a>
</g>
</g>
<!-- Node1&#45;&gt;Node2 -->
<g id="edge1" class="edge">
<title>Node1&#45;&gt;Node2</title>
<path fill="none" stroke="midnightblue" d="M154.22,-72.06C141.18,-62.06 126.52,-50.8 114.41,-41.51"/>
<polygon fill="midnightblue" stroke="midnightblue" points="152.44,-75.11 162.51,-78.43 156.7,-69.56 152.44,-75.11"/>
</g>
<!-- Node3 -->
<g id="node3" class="node">
<title>Node3</title>
<g id="a_node3"><a xlink:href="east__asian__characX_8hpp.html" target="_top" xlink:title="An east Asian character width.">
<polygon fill="white" stroke="black" points="196,-0.5 196,-41.5 378,-41.5 378,-0.5 196,-0.5"/>
<text text-anchor="start" x="204" y="-29.5" font-family="Helvetica,sans-Serif" font-size="10.00">library/text/cpp/include</text>
<text text-anchor="start" x="204" y="-18.5" font-family="Helvetica,sans-Serif" font-size="10.00">/tetengo/text/grapheme</text>
<text text-anchor="middle" x="287" y="-7.5" font-family="Helvetica,sans-Serif" font-size="10.00">_splitting/east_asian_characX.hpp</text>
</a>
</g>
</g>
<!-- Node1&#45;&gt;Node3 -->
<g id="edge2" class="edge">
<title>Node1&#45;&gt;Node3</title>
<path fill="none" stroke="midnightblue" d="M221.78,-72.06C234.82,-62.06 249.48,-50.8 261.59,-41.51"/>
<polygon fill="midnightblue" stroke="midnightblue" points="219.3,-69.56 213.49,-78.43 223.56,-75.11 219.3,-69.56"/>
</g>
</g>
</svg>
