<?xml version="1.0" encoding="UTF-8" standalone="no"?>
<!DOCTYPE svg PUBLIC "-//W3C//DTD SVG 1.1//EN"
 "http://www.w3.org/Graphics/SVG/1.1/DTD/svg11.dtd">
<!-- Generated by graphviz version 2.43.0 (0)
 -->
<!-- Title: library/text/cpp/include/tetengo/text/grapheme_splitting/character_width.hpp Pages: 1 -->
<svg width="386pt" height="126pt"
 viewBox="0.00 0.00 386.00 126.00" xmlns="http://www.w3.org/2000/svg" xmlns:xlink="http://www.w3.org/1999/xlink">
<g id="graph0" class="graph" transform="scale(1 1) rotate(0) translate(4 122)">
<title>library/text/cpp/include/tetengo/text/grapheme_splitting/character_width.hpp</title>
<!-- Node1 -->
<g id="node1" class="node">
<title>Node1</title>
<g id="a_node1"><a xlink:title="A character width.">
<polygon fill="#999999" stroke="#666666" points="270,-118 106,-118 106,-77 270,-77 270,-118"/>
<text text-anchor="start" x="114" y="-106" font-family="Helvetica,sans-Serif" font-size="10.00">library/text/cpp/include</text>
<text text-anchor="start" x="114" y="-95" font-family="Helvetica,sans-Serif" font-size="10.00">/tetengo/text/grapheme</text>
<text text-anchor="middle" x="188" y="-84" font-family="Helvetica,sans-Serif" font-size="10.00">_splitting/character_width.hpp</text>
</a>
</g>
</g>
<!-- Node2 -->
<g id="node2" class="node">
<title>Node2</title>
<g id="a_node2"><a xlink:href="default__characterX_8hpp.html" target="_top" xlink:title="A default character width.">
<polygon fill="white" stroke="#666666" points="178,-41 0,-41 0,0 178,0 178,-41"/>
<text text-anchor="start" x="8" y="-29" font-family="Helvetica,sans-Serif" font-size="10.00">library/text/cpp/include</text>
<text text-anchor="start" x="8" y="-18" font-family="Helvetica,sans-Serif" font-size="10.00">/tetengo/text/grapheme</text>
<text text-anchor="middle" x="89" y="-7" font-family="Helvetica,sans-Serif" font-size="10.00">_splitting/default_characterX.hpp</text>
</a>
</g>
</g>
<!-- Node1&#45;&gt;Node2 -->
<g id="edge1" class="edge">
<title>Node1&#45;&gt;Node2</title>
<path fill="none" stroke="#63b8ff" d="M154.1,-70.82C141.29,-61.11 126.93,-50.24 114.97,-41.17"/>
<polygon fill="#63b8ff" stroke="#63b8ff" points="152.16,-73.74 162.25,-76.99 156.39,-68.16 152.16,-73.74"/>
</g>
<!-- Node3 -->
<g id="node3" class="node">
<title>Node3</title>
<g id="a_node3"><a xlink:href="east__asian__characX_8hpp.html" target="_top" xlink:title="An east Asian character width.">
<polygon fill="white" stroke="#666666" points="378,-41 196,-41 196,0 378,0 378,-41"/>
<text text-anchor="start" x="204" y="-29" font-family="Helvetica,sans-Serif" font-size="10.00">library/text/cpp/include</text>
<text text-anchor="start" x="204" y="-18" font-family="Helvetica,sans-Serif" font-size="10.00">/tetengo/text/grapheme</text>
<text text-anchor="middle" x="287" y="-7" font-family="Helvetica,sans-Serif" font-size="10.00">_splitting/east_asian_characX.hpp</text>
</a>
</g>
</g>
<!-- Node1&#45;&gt;Node3 -->
<g id="edge2" class="edge">
<title>Node1&#45;&gt;Node3</title>
<path fill="none" stroke="#63b8ff" d="M221.9,-70.82C234.71,-61.11 249.07,-50.24 261.03,-41.17"/>
<polygon fill="#63b8ff" stroke="#63b8ff" points="219.61,-68.16 213.75,-76.99 223.84,-73.74 219.61,-68.16"/>
</g>
</g>
</svg>
