<?xml version="1.0" encoding="UTF-8" standalone="no"?>
<!DOCTYPE svg PUBLIC "-//W3C//DTD SVG 1.1//EN"
 "http://www.w3.org/Graphics/SVG/1.1/DTD/svg11.dtd">
<!-- Generated by graphviz version 2.43.0 (0)
 -->
<!-- Title: tetengo::json::reader Pages: 1 -->
<svg width="443pt" height="134pt"
 viewBox="0.00 0.00 443.00 134.00" xmlns="http://www.w3.org/2000/svg" xmlns:xlink="http://www.w3.org/1999/xlink">
<g id="graph0" class="graph" transform="scale(1 1) rotate(0) translate(4 130)">
<title>tetengo::json::reader</title>
<!-- Node1 -->
<g id="node1" class="node">
<title>Node1</title>
<g id="a_node1"><a xlink:title="A reader.">
<polygon fill="#999999" stroke="#666666" points="266,-72.5 148,-72.5 148,-53.5 266,-53.5 266,-72.5"/>
<text text-anchor="middle" x="207" y="-60.5" font-family="Helvetica,sans-Serif" font-size="10.00">tetengo::json::reader</text>
</a>
</g>
</g>
<!-- Node3 -->
<g id="node3" class="node">
<title>Node3</title>
<g id="a_node3"><a xlink:href="classtetengo_1_1json_1_1comment__removing__reader.html" target="_top" xlink:title="A comment removing reader.">
<polygon fill="white" stroke="#666666" points="435,-126 302,-126 302,-96 435,-96 435,-126"/>
<text text-anchor="start" x="310" y="-114" font-family="Helvetica,sans-Serif" font-size="10.00">tetengo::json::comment</text>
<text text-anchor="middle" x="368.5" y="-103" font-family="Helvetica,sans-Serif" font-size="10.00">_removing_reader</text>
</a>
</g>
</g>
<!-- Node1&#45;&gt;Node3 -->
<g id="edge2" class="edge">
<title>Node1&#45;&gt;Node3</title>
<path fill="none" stroke="#63b8ff" d="M249.68,-75.54C270.43,-81.79 295.66,-89.38 317.45,-95.94"/>
<polygon fill="#63b8ff" stroke="#63b8ff" points="250.48,-72.13 239.89,-72.6 248.46,-78.83 250.48,-72.13"/>
</g>
<!-- Node4 -->
<g id="node4" class="node">
<title>Node4</title>
<g id="a_node4"><a xlink:href="classtetengo_1_1json_1_1line__counting__reader.html" target="_top" xlink:title="A line counting reader.">
<polygon fill="white" stroke="#666666" points="420.5,-78 316.5,-78 316.5,-48 420.5,-48 420.5,-78"/>
<text text-anchor="start" x="324.5" y="-66" font-family="Helvetica,sans-Serif" font-size="10.00">tetengo::json::line</text>
<text text-anchor="middle" x="368.5" y="-55" font-family="Helvetica,sans-Serif" font-size="10.00">_counting_reader</text>
</a>
</g>
</g>
<!-- Node1&#45;&gt;Node4 -->
<g id="edge3" class="edge">
<title>Node1&#45;&gt;Node4</title>
<path fill="none" stroke="#63b8ff" d="M276.22,-63C289.68,-63 303.59,-63 316.37,-63"/>
<polygon fill="#63b8ff" stroke="#63b8ff" points="276.03,-59.5 266.03,-63 276.03,-66.5 276.03,-59.5"/>
</g>
<!-- Node5 -->
<g id="node5" class="node">
<title>Node5</title>
<g id="a_node5"><a xlink:href="classtetengo_1_1json_1_1stream__reader.html" target="_top" xlink:title="A stream reader.">
<polygon fill="white" stroke="#666666" points="429,-30 308,-30 308,0 429,0 429,-30"/>
<text text-anchor="start" x="316" y="-18" font-family="Helvetica,sans-Serif" font-size="10.00">tetengo::json::stream</text>
<text text-anchor="middle" x="368.5" y="-7" font-family="Helvetica,sans-Serif" font-size="10.00">_reader</text>
</a>
</g>
</g>
<!-- Node1&#45;&gt;Node5 -->
<g id="edge4" class="edge">
<title>Node1&#45;&gt;Node5</title>
<path fill="none" stroke="#63b8ff" d="M249.68,-50.46C270.43,-44.21 295.66,-36.62 317.45,-30.06"/>
<polygon fill="#63b8ff" stroke="#63b8ff" points="248.46,-47.17 239.89,-53.4 250.48,-53.87 248.46,-47.17"/>
</g>
<!-- Node2 -->
<g id="node2" class="node">
<title>Node2</title>
<g id="a_node2"><a xlink:title=" ">
<polygon fill="white" stroke="#bfbfbf" points="112,-72.5 0,-72.5 0,-53.5 112,-53.5 112,-72.5"/>
<text text-anchor="middle" x="56" y="-60.5" font-family="Helvetica,sans-Serif" font-size="10.00">boost::noncopyable</text>
</a>
</g>
</g>
<!-- Node2&#45;&gt;Node1 -->
<g id="edge1" class="edge">
<title>Node2&#45;&gt;Node1</title>
<path fill="none" stroke="#8b1a1a" d="M122.34,-63C130.85,-63 139.53,-63 147.92,-63"/>
<polygon fill="#8b1a1a" stroke="#8b1a1a" points="122.06,-59.5 112.06,-63 122.06,-66.5 122.06,-59.5"/>
</g>
</g>
</svg>
