<?xml version="1.0" encoding="UTF-8" standalone="no"?>
<!DOCTYPE svg PUBLIC "-//W3C//DTD SVG 1.1//EN"
 "http://www.w3.org/Graphics/SVG/1.1/DTD/svg11.dtd">
<!-- Generated by graphviz version 2.43.0 (0)
 -->
<!-- Title: tetengo::json::line_counting_reader Pages: 1 -->
<svg width="126pt" height="148pt"
 viewBox="0.00 0.00 126.00 148.00" xmlns="http://www.w3.org/2000/svg" xmlns:xlink="http://www.w3.org/1999/xlink">
<g id="graph0" class="graph" transform="scale(1 1) rotate(0) translate(4 144)">
<title>tetengo::json::line_counting_reader</title>
<!-- Node1 -->
<g id="node1" class="node">
<title>Node1</title>
<g id="a_node1"><a xlink:title="A line counting reader.">
<polygon fill="#999999" stroke="#666666" points="111,-30 7,-30 7,0 111,0 111,-30"/>
<text text-anchor="start" x="15" y="-18" font-family="Helvetica,sans-Serif" font-size="10.00">tetengo::json::line</text>
<text text-anchor="middle" x="59" y="-7" font-family="Helvetica,sans-Serif" font-size="10.00">_counting_reader</text>
</a>
</g>
</g>
<!-- Node2 -->
<g id="node2" class="node">
<title>Node2</title>
<g id="a_node2"><a xlink:href="classtetengo_1_1json_1_1reader.html" target="_top" xlink:title="A reader.">
<polygon fill="white" stroke="#666666" points="118,-85 0,-85 0,-66 118,-66 118,-85"/>
<text text-anchor="middle" x="59" y="-73" font-family="Helvetica,sans-Serif" font-size="10.00">tetengo::json::reader</text>
</a>
</g>
</g>
<!-- Node2&#45;&gt;Node1 -->
<g id="edge1" class="edge">
<title>Node2&#45;&gt;Node1</title>
<path fill="none" stroke="#63b8ff" d="M59,-55.65C59,-47.36 59,-37.78 59,-30.11"/>
<polygon fill="#63b8ff" stroke="#63b8ff" points="55.5,-55.87 59,-65.87 62.5,-55.87 55.5,-55.87"/>
</g>
<!-- Node3 -->
<g id="node3" class="node">
<title>Node3</title>
<g id="a_node3"><a xlink:title=" ">
<polygon fill="white" stroke="#bfbfbf" points="115,-140 3,-140 3,-121 115,-121 115,-140"/>
<text text-anchor="middle" x="59" y="-128" font-family="Helvetica,sans-Serif" font-size="10.00">boost::noncopyable</text>
</a>
</g>
</g>
<!-- Node3&#45;&gt;Node2 -->
<g id="edge2" class="edge">
<title>Node3&#45;&gt;Node2</title>
<path fill="none" stroke="#8b1a1a" d="M59,-110.66C59,-101.93 59,-91.99 59,-85.09"/>
<polygon fill="#8b1a1a" stroke="#8b1a1a" points="55.5,-110.75 59,-120.75 62.5,-110.75 55.5,-110.75"/>
</g>
</g>
</svg>
