<?xml version="1.0" encoding="UTF-8" standalone="no"?>
<!DOCTYPE svg PUBLIC "-//W3C//DTD SVG 1.1//EN"
 "http://www.w3.org/Graphics/SVG/1.1/DTD/svg11.dtd">
<!-- Generated by graphviz version 2.43.0 (0)
 -->
<!-- Title: tetengo::lattice::input Pages: 1 -->
<svg width="290pt" height="95pt"
 viewBox="0.00 0.00 290.00 95.00" xmlns="http://www.w3.org/2000/svg" xmlns:xlink="http://www.w3.org/1999/xlink">
<g id="graph0" class="graph" transform="scale(1 1) rotate(0) translate(4 91)">
<title>tetengo::lattice::input</title>
<polygon fill="white" stroke="transparent" points="-4,4 -4,-91 286,-91 286,4 -4,4"/>
<!-- Node1 -->
<g id="node1" class="node">
<title>Node1</title>
<g id="a_node1"><a xlink:title="An input.">
<polygon fill="#bfbfbf" stroke="black" points="90,-0.5 90,-19.5 212,-19.5 212,-0.5 90,-0.5"/>
<text text-anchor="middle" x="151" y="-7.5" font-family="Helvetica,sans-Serif" font-size="10.00">tetengo::lattice::input</text>
</a>
</g>
</g>
<!-- Node2 -->
<g id="node2" class="node">
<title>Node2</title>
<g id="a_node2"><a xlink:title=" ">
<polygon fill="white" stroke="#bfbfbf" points="0,-56.5 0,-86.5 152,-86.5 152,-56.5 0,-56.5"/>
<text text-anchor="start" x="8" y="-74.5" font-family="Helvetica,sans-Serif" font-size="10.00">boost::equality_comparable</text>
<text text-anchor="middle" x="76" y="-63.5" font-family="Helvetica,sans-Serif" font-size="10.00">&lt; input &gt;</text>
</a>
</g>
</g>
<!-- Node2&#45;&gt;Node1 -->
<g id="edge1" class="edge">
<title>Node2&#45;&gt;Node1</title>
<path fill="none" stroke="midnightblue" d="M101.97,-49.89C115.02,-39.54 130.13,-27.56 140.09,-19.66"/>
<polygon fill="midnightblue" stroke="midnightblue" points="99.43,-47.44 93.77,-56.4 103.78,-52.93 99.43,-47.44"/>
</g>
<!-- Node3 -->
<g id="node3" class="node">
<title>Node3</title>
<g id="a_node3"><a xlink:title=" ">
<polygon fill="white" stroke="#bfbfbf" points="170,-62 170,-81 282,-81 282,-62 170,-62"/>
<text text-anchor="middle" x="226" y="-69" font-family="Helvetica,sans-Serif" font-size="10.00">boost::noncopyable</text>
</a>
</g>
</g>
<!-- Node3&#45;&gt;Node1 -->
<g id="edge2" class="edge">
<title>Node3&#45;&gt;Node1</title>
<path fill="none" stroke="#8b1a1a" d="M207.06,-55.47C192.71,-44.09 173.52,-28.87 161.73,-19.51"/>
<polygon fill="#8b1a1a" stroke="#8b1a1a" points="205.24,-58.5 215.25,-61.98 209.6,-53.02 205.24,-58.5"/>
</g>
</g>
</svg>
