<?xml version="1.0" encoding="UTF-8" standalone="no"?>
<!DOCTYPE svg PUBLIC "-//W3C//DTD SVG 1.1//EN"
 "http://www.w3.org/Graphics/SVG/1.1/DTD/svg11.dtd">
<!-- Generated by graphviz version 2.43.0 (0)
 -->
<!-- Title: tetengo::trie::storage Pages: 1 -->
<svg width="435pt" height="134pt"
 viewBox="0.00 0.00 435.00 134.00" xmlns="http://www.w3.org/2000/svg" xmlns:xlink="http://www.w3.org/1999/xlink">
<g id="graph0" class="graph" transform="scale(1 1) rotate(0) translate(4 130)">
<title>tetengo::trie::storage</title>
<!-- Node1 -->
<g id="node1" class="node">
<title>Node1</title>
<g id="a_node1"><a xlink:title="A storage.">
<polygon fill="#999999" stroke="#666666" points="267,-72.5 148,-72.5 148,-53.5 267,-53.5 267,-72.5"/>
<text text-anchor="middle" x="207.5" y="-60.5" font-family="Helvetica,sans-Serif" font-size="10.00">tetengo::trie::storage</text>
</a>
</g>
</g>
<!-- Node3 -->
<g id="node3" class="node">
<title>Node3</title>
<g id="a_node3"><a xlink:href="classtetengo_1_1trie_1_1memory__storage.html" target="_top" xlink:title="A memory storage.">
<polygon fill="white" stroke="#666666" points="427,-126 303,-126 303,-96 427,-96 427,-126"/>
<text text-anchor="start" x="311" y="-114" font-family="Helvetica,sans-Serif" font-size="10.00">tetengo::trie::memory</text>
<text text-anchor="middle" x="365" y="-103" font-family="Helvetica,sans-Serif" font-size="10.00">_storage</text>
</a>
</g>
</g>
<!-- Node1&#45;&gt;Node3 -->
<g id="edge2" class="edge">
<title>Node1&#45;&gt;Node3</title>
<path fill="none" stroke="#63b8ff" d="M249.41,-75.63C269.58,-81.86 294.06,-89.41 315.2,-95.94"/>
<polygon fill="#63b8ff" stroke="#63b8ff" points="250.18,-72.2 239.59,-72.6 248.12,-78.89 250.18,-72.2"/>
</g>
<!-- Node4 -->
<g id="node4" class="node">
<title>Node4</title>
<g id="a_node4"><a xlink:href="classtetengo_1_1trie_1_1mmap__storage.html" target="_top" xlink:title="An mmap storage.">
<polygon fill="white" stroke="#666666" points="422,-78 308,-78 308,-48 422,-48 422,-78"/>
<text text-anchor="start" x="316" y="-66" font-family="Helvetica,sans-Serif" font-size="10.00">tetengo::trie::mmap</text>
<text text-anchor="middle" x="365" y="-55" font-family="Helvetica,sans-Serif" font-size="10.00">_storage</text>
</a>
</g>
</g>
<!-- Node1&#45;&gt;Node4 -->
<g id="edge3" class="edge">
<title>Node1&#45;&gt;Node4</title>
<path fill="none" stroke="#63b8ff" d="M277.41,-63C287.62,-63 298.05,-63 307.96,-63"/>
<polygon fill="#63b8ff" stroke="#63b8ff" points="277.29,-59.5 267.29,-63 277.29,-66.5 277.29,-59.5"/>
</g>
<!-- Node5 -->
<g id="node5" class="node">
<title>Node5</title>
<g id="a_node5"><a xlink:href="classtetengo_1_1trie_1_1shared__storage.html" target="_top" xlink:title="A shared storage.">
<polygon fill="white" stroke="#666666" points="423,-30 307,-30 307,0 423,0 423,-30"/>
<text text-anchor="start" x="315" y="-18" font-family="Helvetica,sans-Serif" font-size="10.00">tetengo::trie::shared</text>
<text text-anchor="middle" x="365" y="-7" font-family="Helvetica,sans-Serif" font-size="10.00">_storage</text>
</a>
</g>
</g>
<!-- Node1&#45;&gt;Node5 -->
<g id="edge4" class="edge">
<title>Node1&#45;&gt;Node5</title>
<path fill="none" stroke="#63b8ff" d="M249.41,-50.37C269.58,-44.14 294.06,-36.59 315.2,-30.06"/>
<polygon fill="#63b8ff" stroke="#63b8ff" points="248.12,-47.11 239.59,-53.4 250.18,-53.8 248.12,-47.11"/>
</g>
<!-- Node2 -->
<g id="node2" class="node">
<title>Node2</title>
<g id="a_node2"><a xlink:title=" ">
<polygon fill="white" stroke="#bfbfbf" points="112,-72.5 0,-72.5 0,-53.5 112,-53.5 112,-72.5"/>
<text text-anchor="middle" x="56" y="-60.5" font-family="Helvetica,sans-Serif" font-size="10.00">boost::noncopyable</text>
</a>
</g>
</g>
<!-- Node2&#45;&gt;Node1 -->
<g id="edge1" class="edge">
<title>Node2&#45;&gt;Node1</title>
<path fill="none" stroke="#8b1a1a" d="M122.48,-63C130.97,-63 139.61,-63 147.97,-63"/>
<polygon fill="#8b1a1a" stroke="#8b1a1a" points="122.24,-59.5 112.24,-63 122.24,-66.5 122.24,-59.5"/>
</g>
</g>
</svg>
