<?xml version="1.0" encoding="UTF-8" standalone="no"?>
<!DOCTYPE svg PUBLIC "-//W3C//DTD SVG 1.1//EN"
 "http://www.w3.org/Graphics/SVG/1.1/DTD/svg11.dtd">
<!-- Generated by graphviz version 2.43.0 (0)
 -->
<!-- Title: tetengo::property::storage Pages: 1 -->
<svg width="443pt" height="186pt"
 viewBox="0.00 0.00 443.00 186.00" xmlns="http://www.w3.org/2000/svg" xmlns:xlink="http://www.w3.org/1999/xlink">
<g id="graph0" class="graph" transform="scale(1 1) rotate(0) translate(4 182)">
<title>tetengo::property::storage</title>
<polygon fill="white" stroke="transparent" points="-4,4 -4,-182 439,-182 439,4 -4,4"/>
<!-- Node1 -->
<g id="node1" class="node">
<title>Node1</title>
<g id="a_node1"><a xlink:title="A storage.">
<polygon fill="#bfbfbf" stroke="black" points="148,-73.5 148,-103.5 255,-103.5 255,-73.5 148,-73.5"/>
<text text-anchor="start" x="156" y="-91.5" font-family="Helvetica,sans-Serif" font-size="10.00">tetengo::property::</text>
<text text-anchor="middle" x="201.5" y="-80.5" font-family="Helvetica,sans-Serif" font-size="10.00">storage</text>
</a>
</g>
</g>
<!-- Node3 -->
<g id="node3" class="node">
<title>Node3</title>
<g id="a_node3"><a xlink:href="classtetengo_1_1property_1_1file__storage.html" target="_top" xlink:title="A file storage.">
<polygon fill="white" stroke="black" points="309.5,-147.5 309.5,-177.5 416.5,-177.5 416.5,-147.5 309.5,-147.5"/>
<text text-anchor="start" x="317.5" y="-165.5" font-family="Helvetica,sans-Serif" font-size="10.00">tetengo::property::</text>
<text text-anchor="middle" x="363" y="-154.5" font-family="Helvetica,sans-Serif" font-size="10.00">file_storage</text>
</a>
</g>
</g>
<!-- Node1&#45;&gt;Node3 -->
<g id="edge2" class="edge">
<title>Node1&#45;&gt;Node3</title>
<path fill="none" stroke="midnightblue" d="M234.95,-108.78C251.37,-118.53 271.83,-129.94 291,-138.5 298.13,-141.68 305.81,-144.69 313.41,-147.44"/>
<polygon fill="midnightblue" stroke="midnightblue" points="236.65,-105.72 226.28,-103.56 233.04,-111.72 236.65,-105.72"/>
</g>
<!-- Node4 -->
<g id="node4" class="node">
<title>Node4</title>
<g id="a_node4"><a xlink:href="classtetengo_1_1property_1_1memory__storage.html" target="_top" xlink:title="A memory storage.">
<polygon fill="white" stroke="black" points="309.5,-98.5 309.5,-128.5 416.5,-128.5 416.5,-98.5 309.5,-98.5"/>
<text text-anchor="start" x="317.5" y="-116.5" font-family="Helvetica,sans-Serif" font-size="10.00">tetengo::property::</text>
<text text-anchor="middle" x="363" y="-105.5" font-family="Helvetica,sans-Serif" font-size="10.00">memory_storage</text>
</a>
</g>
</g>
<!-- Node1&#45;&gt;Node4 -->
<g id="edge3" class="edge">
<title>Node1&#45;&gt;Node4</title>
<path fill="none" stroke="midnightblue" d="M265.15,-98.32C279.79,-100.61 295.23,-103.04 309.39,-105.25"/>
<polygon fill="midnightblue" stroke="midnightblue" points="265.59,-94.85 255.17,-96.76 264.51,-101.76 265.59,-94.85"/>
</g>
<!-- Node5 -->
<g id="node5" class="node">
<title>Node5</title>
<g id="a_node5"><a xlink:href="classtetengo_1_1property_1_1storage__proxy.html" target="_top" xlink:title="A storage proxy.">
<polygon fill="white" stroke="black" points="309.5,-49.5 309.5,-79.5 416.5,-79.5 416.5,-49.5 309.5,-49.5"/>
<text text-anchor="start" x="317.5" y="-67.5" font-family="Helvetica,sans-Serif" font-size="10.00">tetengo::property::</text>
<text text-anchor="middle" x="363" y="-56.5" font-family="Helvetica,sans-Serif" font-size="10.00">storage_proxy</text>
</a>
</g>
</g>
<!-- Node1&#45;&gt;Node5 -->
<g id="edge4" class="edge">
<title>Node1&#45;&gt;Node5</title>
<path fill="none" stroke="midnightblue" d="M265.15,-79.07C279.79,-76.87 295.23,-74.55 309.39,-72.42"/>
<polygon fill="midnightblue" stroke="midnightblue" points="264.54,-75.63 255.17,-80.57 265.58,-82.55 264.54,-75.63"/>
</g>
<!-- Node6 -->
<g id="node6" class="node">
<title>Node6</title>
<g id="a_node6"><a xlink:href="classtetengo_1_1property_1_1windows__registry__storage.html" target="_top" xlink:title="A Windows registry storage.">
<polygon fill="white" stroke="black" points="291,-0.5 291,-30.5 435,-30.5 435,-0.5 291,-0.5"/>
<text text-anchor="start" x="299" y="-18.5" font-family="Helvetica,sans-Serif" font-size="10.00">tetengo::property::</text>
<text text-anchor="middle" x="363" y="-7.5" font-family="Helvetica,sans-Serif" font-size="10.00">windows_registry_storage</text>
</a>
</g>
</g>
<!-- Node1&#45;&gt;Node6 -->
<g id="edge5" class="edge">
<title>Node1&#45;&gt;Node6</title>
<path fill="none" stroke="midnightblue" d="M235.7,-68.26C252.01,-58.8 272.16,-47.82 291,-39.5 298.14,-36.35 305.84,-33.35 313.43,-30.62"/>
<polygon fill="midnightblue" stroke="midnightblue" points="233.92,-65.25 227.07,-73.33 237.46,-71.28 233.92,-65.25"/>
</g>
<!-- Node2 -->
<g id="node2" class="node">
<title>Node2</title>
<g id="a_node2"><a xlink:title=" ">
<polygon fill="white" stroke="#bfbfbf" points="0,-79 0,-98 112,-98 112,-79 0,-79"/>
<text text-anchor="middle" x="56" y="-86" font-family="Helvetica,sans-Serif" font-size="10.00">boost::noncopyable</text>
</a>
</g>
</g>
<!-- Node2&#45;&gt;Node1 -->
<g id="edge1" class="edge">
<title>Node2&#45;&gt;Node1</title>
<path fill="none" stroke="#8b1a1a" d="M122.34,-88.5C130.83,-88.5 139.45,-88.5 147.7,-88.5"/>
<polygon fill="#8b1a1a" stroke="#8b1a1a" points="122.07,-85 112.07,-88.5 122.07,-92 122.07,-85"/>
</g>
</g>
</svg>
