<?xml version="1.0" encoding="UTF-8" standalone="no"?>
<!DOCTYPE svg PUBLIC "-//W3C//DTD SVG 1.1//EN"
 "http://www.w3.org/Graphics/SVG/1.1/DTD/svg11.dtd">
<!-- Generated by graphviz version 2.43.0 (0)
 -->
<!-- Title: tetengo::text::grapheme_splitting::default_character_width Pages: 1 -->
<svg width="193pt" height="159pt"
 viewBox="0.00 0.00 193.00 159.00" xmlns="http://www.w3.org/2000/svg" xmlns:xlink="http://www.w3.org/1999/xlink">
<g id="graph0" class="graph" transform="scale(1 1) rotate(0) translate(4 155)">
<title>tetengo::text::grapheme_splitting::default_character_width</title>
<!-- Node1 -->
<g id="node1" class="node">
<title>Node1</title>
<g id="a_node1"><a xlink:title="A default character width.">
<polygon fill="#999999" stroke="#666666" points="185,-30 0,-30 0,0 185,0 185,-30"/>
<text text-anchor="start" x="8" y="-18" font-family="Helvetica,sans-Serif" font-size="10.00">tetengo::text::grapheme</text>
<text text-anchor="middle" x="92.5" y="-7" font-family="Helvetica,sans-Serif" font-size="10.00">_splitting::default_character_width</text>
</a>
</g>
</g>
<!-- Node2 -->
<g id="node2" class="node">
<title>Node2</title>
<g id="a_node2"><a xlink:href="classtetengo_1_1text_1_1grapheme__splitting_1_1character__width.html" target="_top" xlink:title="A character width.">
<polygon fill="white" stroke="#666666" points="165.5,-96 19.5,-96 19.5,-66 165.5,-66 165.5,-96"/>
<text text-anchor="start" x="27.5" y="-84" font-family="Helvetica,sans-Serif" font-size="10.00">tetengo::text::grapheme</text>
<text text-anchor="middle" x="92.5" y="-73" font-family="Helvetica,sans-Serif" font-size="10.00">_splitting::character_width</text>
</a>
</g>
</g>
<!-- Node2&#45;&gt;Node1 -->
<g id="edge1" class="edge">
<title>Node2&#45;&gt;Node1</title>
<path fill="none" stroke="#63b8ff" d="M92.5,-55.54C92.5,-46.96 92.5,-37.61 92.5,-30.16"/>
<polygon fill="#63b8ff" stroke="#63b8ff" points="89,-55.8 92.5,-65.8 96,-55.8 89,-55.8"/>
</g>
<!-- Node3 -->
<g id="node3" class="node">
<title>Node3</title>
<g id="a_node3"><a xlink:title=" ">
<polygon fill="white" stroke="#bfbfbf" points="148.5,-151 36.5,-151 36.5,-132 148.5,-132 148.5,-151"/>
<text text-anchor="middle" x="92.5" y="-139" font-family="Helvetica,sans-Serif" font-size="10.00">boost::noncopyable</text>
</a>
</g>
</g>
<!-- Node3&#45;&gt;Node2 -->
<g id="edge2" class="edge">
<title>Node3&#45;&gt;Node2</title>
<path fill="none" stroke="#8b1a1a" d="M92.5,-121.65C92.5,-113.36 92.5,-103.78 92.5,-96.11"/>
<polygon fill="#8b1a1a" stroke="#8b1a1a" points="89,-121.87 92.5,-131.87 96,-121.87 89,-121.87"/>
</g>
</g>
</svg>
