<?xml version="1.0" encoding="UTF-8" standalone="no"?>
<!DOCTYPE svg PUBLIC "-//W3C//DTD SVG 1.1//EN"
 "http://www.w3.org/Graphics/SVG/1.1/DTD/svg11.dtd">
<!-- Generated by graphviz version 2.43.0 (0)
 -->
<!-- Title: tetengo::property::storage_loader Pages: 1 -->
<svg width="443pt" height="198pt"
 viewBox="0.00 0.00 443.00 197.50" xmlns="http://www.w3.org/2000/svg" xmlns:xlink="http://www.w3.org/1999/xlink">
<g id="graph0" class="graph" transform="scale(1 1) rotate(0) translate(4 193.5)">
<title>tetengo::property::storage_loader</title>
<polygon fill="white" stroke="transparent" points="-4,4 -4,-193.5 439,-193.5 439,4 -4,4"/>
<!-- Node1 -->
<g id="node1" class="node">
<title>Node1</title>
<g id="a_node1"><a xlink:title="A storage loader.">
<polygon fill="#bfbfbf" stroke="black" points="148,-85 148,-115 255,-115 255,-85 148,-85"/>
<text text-anchor="start" x="156" y="-103" font-family="Helvetica,sans-Serif" font-size="10.00">tetengo::property::</text>
<text text-anchor="middle" x="201.5" y="-92" font-family="Helvetica,sans-Serif" font-size="10.00">storage_loader</text>
</a>
</g>
</g>
<!-- Node3 -->
<g id="node3" class="node">
<title>Node3</title>
<g id="a_node3"><a xlink:href="classtetengo_1_1property_1_1file__storage__loader.html" target="_top" xlink:title="A file storage loader.">
<polygon fill="white" stroke="black" points="308,-159 308,-189 418,-189 418,-159 308,-159"/>
<text text-anchor="start" x="316" y="-177" font-family="Helvetica,sans-Serif" font-size="10.00">tetengo::property::</text>
<text text-anchor="middle" x="363" y="-166" font-family="Helvetica,sans-Serif" font-size="10.00">file_storage_loader</text>
</a>
</g>
</g>
<!-- Node1&#45;&gt;Node3 -->
<g id="edge2" class="edge">
<title>Node1&#45;&gt;Node3</title>
<path fill="none" stroke="midnightblue" d="M234.95,-120.28C251.37,-130.03 271.83,-141.44 291,-150 298.13,-153.18 305.81,-156.19 313.41,-158.94"/>
<polygon fill="midnightblue" stroke="midnightblue" points="236.65,-117.22 226.28,-115.06 233.04,-123.22 236.65,-117.22"/>
</g>
<!-- Node4 -->
<g id="node4" class="node">
<title>Node4</title>
<g id="a_node4"><a xlink:href="classtetengo_1_1property_1_1memory__storage__loader.html" target="_top" xlink:title="A memory storage loader.">
<polygon fill="white" stroke="black" points="295,-110 295,-140 431,-140 431,-110 295,-110"/>
<text text-anchor="start" x="303" y="-128" font-family="Helvetica,sans-Serif" font-size="10.00">tetengo::property::</text>
<text text-anchor="middle" x="363" y="-117" font-family="Helvetica,sans-Serif" font-size="10.00">memory_storage_loader</text>
</a>
</g>
</g>
<!-- Node1&#45;&gt;Node4 -->
<g id="edge3" class="edge">
<title>Node1&#45;&gt;Node4</title>
<path fill="none" stroke="midnightblue" d="M265.18,-109.82C274.93,-111.35 285.04,-112.94 294.88,-114.48"/>
<polygon fill="midnightblue" stroke="midnightblue" points="265.59,-106.35 255.17,-108.26 264.51,-113.26 265.59,-106.35"/>
</g>
<!-- Node5 -->
<g id="node5" class="node">
<title>Node5</title>
<g id="a_node5"><a xlink:href="classtetengo_1_1property_1_1storage__loader__proxy.html" target="_top" xlink:title="A storage loader proxy.">
<polygon fill="white" stroke="black" points="302,-61 302,-91 424,-91 424,-61 302,-61"/>
<text text-anchor="start" x="310" y="-79" font-family="Helvetica,sans-Serif" font-size="10.00">tetengo::property::</text>
<text text-anchor="middle" x="363" y="-68" font-family="Helvetica,sans-Serif" font-size="10.00">storage_loader_proxy</text>
</a>
</g>
</g>
<!-- Node1&#45;&gt;Node5 -->
<g id="edge4" class="edge">
<title>Node1&#45;&gt;Node5</title>
<path fill="none" stroke="midnightblue" d="M265.18,-90.57C277.27,-88.75 289.92,-86.85 301.93,-85.04"/>
<polygon fill="midnightblue" stroke="midnightblue" points="264.54,-87.13 255.17,-92.07 265.58,-94.05 264.54,-87.13"/>
</g>
<!-- Node6 -->
<g id="node6" class="node">
<title>Node6</title>
<g id="a_node6"><a xlink:href="classtetengo_1_1property_1_1windows__registry__storage__loader.html" target="_top" xlink:title="A Windows registry storage loader.">
<polygon fill="white" stroke="black" points="291,-0.5 291,-41.5 435,-41.5 435,-0.5 291,-0.5"/>
<text text-anchor="start" x="299" y="-29.5" font-family="Helvetica,sans-Serif" font-size="10.00">tetengo::property::</text>
<text text-anchor="start" x="299" y="-18.5" font-family="Helvetica,sans-Serif" font-size="10.00">windows_registry_storage</text>
<text text-anchor="middle" x="363" y="-7.5" font-family="Helvetica,sans-Serif" font-size="10.00">_loader</text>
</a>
</g>
</g>
<!-- Node1&#45;&gt;Node6 -->
<g id="edge5" class="edge">
<title>Node1&#45;&gt;Node6</title>
<path fill="none" stroke="midnightblue" d="M237.14,-79.71C253.3,-70.53 272.91,-59.8 291,-51 297.5,-47.84 304.41,-44.68 311.28,-41.65"/>
<polygon fill="midnightblue" stroke="midnightblue" points="235,-76.9 228.06,-84.9 238.48,-82.97 235,-76.9"/>
</g>
<!-- Node2 -->
<g id="node2" class="node">
<title>Node2</title>
<g id="a_node2"><a xlink:title=" ">
<polygon fill="white" stroke="#bfbfbf" points="0,-90.5 0,-109.5 112,-109.5 112,-90.5 0,-90.5"/>
<text text-anchor="middle" x="56" y="-97.5" font-family="Helvetica,sans-Serif" font-size="10.00">boost::noncopyable</text>
</a>
</g>
</g>
<!-- Node2&#45;&gt;Node1 -->
<g id="edge1" class="edge">
<title>Node2&#45;&gt;Node1</title>
<path fill="none" stroke="#8b1a1a" d="M122.34,-100C130.83,-100 139.45,-100 147.7,-100"/>
<polygon fill="#8b1a1a" stroke="#8b1a1a" points="122.07,-96.5 112.07,-100 122.07,-103.5 122.07,-96.5"/>
</g>
</g>
</svg>
