<?xml version="1.0" encoding="UTF-8" standalone="no"?>
<!DOCTYPE svg PUBLIC "-//W3C//DTD SVG 1.1//EN"
 "http://www.w3.org/Graphics/SVG/1.1/DTD/svg11.dtd">
<!-- Generated by graphviz version 2.43.0 (0)
 -->
<!-- Title: tetengo::property::file_storage Pages: 1 -->
<svg width="120pt" height="159pt"
 viewBox="0.00 0.00 120.00 159.00" xmlns="http://www.w3.org/2000/svg" xmlns:xlink="http://www.w3.org/1999/xlink">
<g id="graph0" class="graph" transform="scale(1 1) rotate(0) translate(4 155)">
<title>tetengo::property::file_storage</title>
<!-- Node1 -->
<g id="node1" class="node">
<title>Node1</title>
<g id="a_node1"><a xlink:title="A file storage.">
<polygon fill="#999999" stroke="#666666" points="109.5,-30 2.5,-30 2.5,0 109.5,0 109.5,-30"/>
<text text-anchor="start" x="10.5" y="-18" font-family="Helvetica,sans-Serif" font-size="10.00">tetengo::property::</text>
<text text-anchor="middle" x="56" y="-7" font-family="Helvetica,sans-Serif" font-size="10.00">file_storage</text>
</a>
</g>
</g>
<!-- Node2 -->
<g id="node2" class="node">
<title>Node2</title>
<g id="a_node2"><a xlink:href="classtetengo_1_1property_1_1storage.html" target="_top" xlink:title="A storage.">
<polygon fill="white" stroke="#666666" points="109.5,-96 2.5,-96 2.5,-66 109.5,-66 109.5,-96"/>
<text text-anchor="start" x="10.5" y="-84" font-family="Helvetica,sans-Serif" font-size="10.00">tetengo::property::</text>
<text text-anchor="middle" x="56" y="-73" font-family="Helvetica,sans-Serif" font-size="10.00">storage</text>
</a>
</g>
</g>
<!-- Node2&#45;&gt;Node1 -->
<g id="edge1" class="edge">
<title>Node2&#45;&gt;Node1</title>
<path fill="none" stroke="#63b8ff" d="M56,-55.54C56,-46.96 56,-37.61 56,-30.16"/>
<polygon fill="#63b8ff" stroke="#63b8ff" points="52.5,-55.8 56,-65.8 59.5,-55.8 52.5,-55.8"/>
</g>
<!-- Node3 -->
<g id="node3" class="node">
<title>Node3</title>
<g id="a_node3"><a xlink:title=" ">
<polygon fill="white" stroke="#bfbfbf" points="112,-151 0,-151 0,-132 112,-132 112,-151"/>
<text text-anchor="middle" x="56" y="-139" font-family="Helvetica,sans-Serif" font-size="10.00">boost::noncopyable</text>
</a>
</g>
</g>
<!-- Node3&#45;&gt;Node2 -->
<g id="edge2" class="edge">
<title>Node3&#45;&gt;Node2</title>
<path fill="none" stroke="#8b1a1a" d="M56,-121.65C56,-113.36 56,-103.78 56,-96.11"/>
<polygon fill="#8b1a1a" stroke="#8b1a1a" points="52.5,-121.87 56,-131.87 59.5,-121.87 52.5,-121.87"/>
</g>
</g>
</svg>
