<?xml version="1.0" encoding="UTF-8" standalone="no"?>
<!DOCTYPE svg PUBLIC "-//W3C//DTD SVG 1.1//EN"
 "http://www.w3.org/Graphics/SVG/1.1/DTD/svg11.dtd">
<!-- Generated by graphviz version 2.43.0 (0)
 -->
<!-- Title: tetengo::lattice::string_input Pages: 1 -->
<svg width="290pt" height="159pt"
 viewBox="0.00 0.00 290.00 159.00" xmlns="http://www.w3.org/2000/svg" xmlns:xlink="http://www.w3.org/1999/xlink">
<g id="graph0" class="graph" transform="scale(1 1) rotate(0) translate(4 155)">
<title>tetengo::lattice::string_input</title>
<!-- Node1 -->
<g id="node1" class="node">
<title>Node1</title>
<g id="a_node1"><a xlink:title="A string input.">
<polygon fill="#999999" stroke="#666666" points="213.5,-30 88.5,-30 88.5,0 213.5,0 213.5,-30"/>
<text text-anchor="start" x="96.5" y="-18" font-family="Helvetica,sans-Serif" font-size="10.00">tetengo::lattice::string</text>
<text text-anchor="middle" x="151" y="-7" font-family="Helvetica,sans-Serif" font-size="10.00">_input</text>
</a>
</g>
</g>
<!-- Node2 -->
<g id="node2" class="node">
<title>Node2</title>
<g id="a_node2"><a xlink:href="classtetengo_1_1lattice_1_1input.html" target="_top" xlink:title="An input.">
<polygon fill="white" stroke="#666666" points="212,-85 90,-85 90,-66 212,-66 212,-85"/>
<text text-anchor="middle" x="151" y="-73" font-family="Helvetica,sans-Serif" font-size="10.00">tetengo::lattice::input</text>
</a>
</g>
</g>
<!-- Node2&#45;&gt;Node1 -->
<g id="edge1" class="edge">
<title>Node2&#45;&gt;Node1</title>
<path fill="none" stroke="#63b8ff" d="M151,-55.65C151,-47.36 151,-37.78 151,-30.11"/>
<polygon fill="#63b8ff" stroke="#63b8ff" points="147.5,-55.87 151,-65.87 154.5,-55.87 147.5,-55.87"/>
</g>
<!-- Node3 -->
<g id="node3" class="node">
<title>Node3</title>
<g id="a_node3"><a xlink:title=" ">
<polygon fill="white" stroke="#bfbfbf" points="152,-151 0,-151 0,-121 152,-121 152,-151"/>
<text text-anchor="start" x="8" y="-139" font-family="Helvetica,sans-Serif" font-size="10.00">boost::equality_comparable</text>
<text text-anchor="middle" x="76" y="-128" font-family="Helvetica,sans-Serif" font-size="10.00">&lt; input &gt;</text>
</a>
</g>
</g>
<!-- Node3&#45;&gt;Node2 -->
<g id="edge2" class="edge">
<title>Node3&#45;&gt;Node2</title>
<path fill="none" stroke="#63b8ff" d="M102.24,-114.53C115.09,-104.51 129.87,-92.98 139.76,-85.27"/>
<polygon fill="#63b8ff" stroke="#63b8ff" points="99.89,-111.93 94.16,-120.84 104.19,-117.45 99.89,-111.93"/>
</g>
<!-- Node4 -->
<g id="node4" class="node">
<title>Node4</title>
<g id="a_node4"><a xlink:title=" ">
<polygon fill="white" stroke="#bfbfbf" points="282,-145.5 170,-145.5 170,-126.5 282,-126.5 282,-145.5"/>
<text text-anchor="middle" x="226" y="-133.5" font-family="Helvetica,sans-Serif" font-size="10.00">boost::noncopyable</text>
</a>
</g>
</g>
<!-- Node4&#45;&gt;Node2 -->
<g id="edge3" class="edge">
<title>Node4&#45;&gt;Node2</title>
<path fill="none" stroke="#8b1a1a" d="M206.82,-120.04C192.65,-108.99 173.87,-94.34 162.11,-85.17"/>
<polygon fill="#8b1a1a" stroke="#8b1a1a" points="204.9,-122.98 214.93,-126.37 209.2,-117.46 204.9,-122.98"/>
</g>
</g>
</svg>
