<?xml version="1.0" encoding="UTF-8" standalone="no"?>
<!DOCTYPE svg PUBLIC "-//W3C//DTD SVG 1.1//EN"
 "http://www.w3.org/Graphics/SVG/1.1/DTD/svg11.dtd">
<!-- Generated by graphviz version 2.43.0 (0)
 -->
<!-- Title: tetengo::text::grapheme_splitting::character_width Pages: 1 -->
<svg width="523pt" height="100pt"
 viewBox="0.00 0.00 523.00 99.50" xmlns="http://www.w3.org/2000/svg" xmlns:xlink="http://www.w3.org/1999/xlink">
<g id="graph0" class="graph" transform="scale(1 1) rotate(0) translate(4 95.5)">
<title>tetengo::text::grapheme_splitting::character_width</title>
<polygon fill="white" stroke="transparent" points="-4,4 -4,-95.5 519,-95.5 519,4 -4,4"/>
<!-- Node1 -->
<g id="node1" class="node">
<title>Node1</title>
<g id="a_node1"><a xlink:title="A character width.">
<polygon fill="#bfbfbf" stroke="black" points="148,-33 148,-63 294,-63 294,-33 148,-33"/>
<text text-anchor="start" x="156" y="-51" font-family="Helvetica,sans-Serif" font-size="10.00">tetengo::text::grapheme</text>
<text text-anchor="middle" x="221" y="-40" font-family="Helvetica,sans-Serif" font-size="10.00">_splitting::character_width</text>
</a>
</g>
</g>
<!-- Node3 -->
<g id="node3" class="node">
<title>Node3</title>
<g id="a_node3"><a xlink:href="classtetengo_1_1text_1_1grapheme__splitting_1_1default__character__width.html" target="_top" xlink:title="A default character width.">
<polygon fill="white" stroke="black" points="330,-61 330,-91 515,-91 515,-61 330,-61"/>
<text text-anchor="start" x="338" y="-79" font-family="Helvetica,sans-Serif" font-size="10.00">tetengo::text::grapheme</text>
<text text-anchor="middle" x="422.5" y="-68" font-family="Helvetica,sans-Serif" font-size="10.00">_splitting::default_character_width</text>
</a>
</g>
</g>
<!-- Node1&#45;&gt;Node3 -->
<g id="edge2" class="edge">
<title>Node1&#45;&gt;Node3</title>
<path fill="none" stroke="midnightblue" d="M303.93,-59.5C312.45,-60.7 321.16,-61.92 329.78,-63.13"/>
<polygon fill="midnightblue" stroke="midnightblue" points="304.41,-56.03 294.02,-58.11 303.44,-62.96 304.41,-56.03"/>
</g>
<!-- Node4 -->
<g id="node4" class="node">
<title>Node4</title>
<g id="a_node4"><a xlink:href="classtetengo_1_1text_1_1grapheme__splitting_1_1east__asian__character__width.html" target="_top" xlink:title="An east Asian character width.">
<polygon fill="white" stroke="black" points="355,-0.5 355,-41.5 490,-41.5 490,-0.5 355,-0.5"/>
<text text-anchor="start" x="363" y="-29.5" font-family="Helvetica,sans-Serif" font-size="10.00">tetengo::text::grapheme</text>
<text text-anchor="start" x="363" y="-18.5" font-family="Helvetica,sans-Serif" font-size="10.00">_splitting::east_asian</text>
<text text-anchor="middle" x="422.5" y="-7.5" font-family="Helvetica,sans-Serif" font-size="10.00">_character_width</text>
</a>
</g>
</g>
<!-- Node1&#45;&gt;Node4 -->
<g id="edge3" class="edge">
<title>Node1&#45;&gt;Node4</title>
<path fill="none" stroke="midnightblue" d="M304.39,-36.85C321.21,-34.57 338.71,-32.2 354.9,-30.01"/>
<polygon fill="midnightblue" stroke="midnightblue" points="303.46,-33.44 294.02,-38.25 304.4,-40.38 303.46,-33.44"/>
</g>
<!-- Node2 -->
<g id="node2" class="node">
<title>Node2</title>
<g id="a_node2"><a xlink:title=" ">
<polygon fill="white" stroke="#bfbfbf" points="0,-38.5 0,-57.5 112,-57.5 112,-38.5 0,-38.5"/>
<text text-anchor="middle" x="56" y="-45.5" font-family="Helvetica,sans-Serif" font-size="10.00">boost::noncopyable</text>
</a>
</g>
</g>
<!-- Node2&#45;&gt;Node1 -->
<g id="edge1" class="edge">
<title>Node2&#45;&gt;Node1</title>
<path fill="none" stroke="#8b1a1a" d="M122.29,-48C130.68,-48 139.32,-48 147.82,-48"/>
<polygon fill="#8b1a1a" stroke="#8b1a1a" points="122.18,-44.5 112.18,-48 122.18,-51.5 122.18,-44.5"/>
</g>
</g>
</svg>
