<?xml version="1.0" encoding="UTF-8" standalone="no"?>
<!DOCTYPE svg PUBLIC "-//W3C//DTD SVG 1.1//EN"
 "http://www.w3.org/Graphics/SVG/1.1/DTD/svg11.dtd">
<!-- Generated by graphviz version 2.43.0 (0)
 -->
<!-- Title: tetengo::trie::storage Pages: 1 -->
<svg width="435pt" height="137pt"
 viewBox="0.00 0.00 435.00 137.00" xmlns="http://www.w3.org/2000/svg" xmlns:xlink="http://www.w3.org/1999/xlink">
<g id="graph0" class="graph" transform="scale(1 1) rotate(0) translate(4 133)">
<title>tetengo::trie::storage</title>
<polygon fill="white" stroke="transparent" points="-4,4 -4,-133 431,-133 431,4 -4,4"/>
<!-- Node1 -->
<g id="node1" class="node">
<title>Node1</title>
<g id="a_node1"><a xlink:title="A storage.">
<polygon fill="#bfbfbf" stroke="black" points="148,-55 148,-74 267,-74 267,-55 148,-55"/>
<text text-anchor="middle" x="207.5" y="-62" font-family="Helvetica,sans-Serif" font-size="10.00">tetengo::trie::storage</text>
</a>
</g>
</g>
<!-- Node3 -->
<g id="node3" class="node">
<title>Node3</title>
<g id="a_node3"><a xlink:href="classtetengo_1_1trie_1_1memory__storage.html" target="_top" xlink:title="A memory storage.">
<polygon fill="white" stroke="black" points="303,-98.5 303,-128.5 427,-128.5 427,-98.5 303,-98.5"/>
<text text-anchor="start" x="311" y="-116.5" font-family="Helvetica,sans-Serif" font-size="10.00">tetengo::trie::memory</text>
<text text-anchor="middle" x="365" y="-105.5" font-family="Helvetica,sans-Serif" font-size="10.00">_storage</text>
</a>
</g>
</g>
<!-- Node1&#45;&gt;Node3 -->
<g id="edge2" class="edge">
<title>Node1&#45;&gt;Node3</title>
<path fill="none" stroke="midnightblue" d="M248.59,-77.13C269.25,-83.64 294.61,-91.63 316.28,-98.46"/>
<polygon fill="midnightblue" stroke="midnightblue" points="249.44,-73.73 238.85,-74.06 247.34,-80.41 249.44,-73.73"/>
</g>
<!-- Node4 -->
<g id="node4" class="node">
<title>Node4</title>
<g id="a_node4"><a xlink:href="classtetengo_1_1trie_1_1mmap__storage.html" target="_top" xlink:title="An mmap storage.">
<polygon fill="white" stroke="black" points="308,-49.5 308,-79.5 422,-79.5 422,-49.5 308,-49.5"/>
<text text-anchor="start" x="316" y="-67.5" font-family="Helvetica,sans-Serif" font-size="10.00">tetengo::trie::mmap</text>
<text text-anchor="middle" x="365" y="-56.5" font-family="Helvetica,sans-Serif" font-size="10.00">_storage</text>
</a>
</g>
</g>
<!-- Node1&#45;&gt;Node4 -->
<g id="edge3" class="edge">
<title>Node1&#45;&gt;Node4</title>
<path fill="none" stroke="midnightblue" d="M277.41,-64.5C287.62,-64.5 298.05,-64.5 307.96,-64.5"/>
<polygon fill="midnightblue" stroke="midnightblue" points="277.29,-61 267.29,-64.5 277.29,-68 277.29,-61"/>
</g>
<!-- Node5 -->
<g id="node5" class="node">
<title>Node5</title>
<g id="a_node5"><a xlink:href="classtetengo_1_1trie_1_1shared__storage.html" target="_top" xlink:title="A shared storage.">
<polygon fill="white" stroke="black" points="307,-0.5 307,-30.5 423,-30.5 423,-0.5 307,-0.5"/>
<text text-anchor="start" x="315" y="-18.5" font-family="Helvetica,sans-Serif" font-size="10.00">tetengo::trie::shared</text>
<text text-anchor="middle" x="365" y="-7.5" font-family="Helvetica,sans-Serif" font-size="10.00">_storage</text>
</a>
</g>
</g>
<!-- Node1&#45;&gt;Node5 -->
<g id="edge4" class="edge">
<title>Node1&#45;&gt;Node5</title>
<path fill="none" stroke="midnightblue" d="M248.59,-51.87C269.25,-45.36 294.61,-37.37 316.28,-30.54"/>
<polygon fill="midnightblue" stroke="midnightblue" points="247.34,-48.59 238.85,-54.94 249.44,-55.27 247.34,-48.59"/>
</g>
<!-- Node2 -->
<g id="node2" class="node">
<title>Node2</title>
<g id="a_node2"><a xlink:title=" ">
<polygon fill="white" stroke="#bfbfbf" points="0,-55 0,-74 112,-74 112,-55 0,-55"/>
<text text-anchor="middle" x="56" y="-62" font-family="Helvetica,sans-Serif" font-size="10.00">boost::noncopyable</text>
</a>
</g>
</g>
<!-- Node2&#45;&gt;Node1 -->
<g id="edge1" class="edge">
<title>Node2&#45;&gt;Node1</title>
<path fill="none" stroke="#8b1a1a" d="M122.48,-64.5C130.97,-64.5 139.61,-64.5 147.97,-64.5"/>
<polygon fill="#8b1a1a" stroke="#8b1a1a" points="122.24,-61 112.24,-64.5 122.24,-68 122.24,-61"/>
</g>
</g>
</svg>
