<?xml version="1.0" encoding="UTF-8" standalone="no"?>
<!DOCTYPE svg PUBLIC "-//W3C//DTD SVG 1.1//EN"
 "http://www.w3.org/Graphics/SVG/1.1/DTD/svg11.dtd">
<!-- Generated by graphviz version 2.43.0 (0)
 -->
<!-- Title: tetengo::json::reader Pages: 1 -->
<svg width="443pt" height="137pt"
 viewBox="0.00 0.00 443.00 137.00" xmlns="http://www.w3.org/2000/svg" xmlns:xlink="http://www.w3.org/1999/xlink">
<g id="graph0" class="graph" transform="scale(1 1) rotate(0) translate(4 133)">
<title>tetengo::json::reader</title>
<polygon fill="white" stroke="transparent" points="-4,4 -4,-133 439,-133 439,4 -4,4"/>
<!-- Node1 -->
<g id="node1" class="node">
<title>Node1</title>
<g id="a_node1"><a xlink:title="A reader.">
<polygon fill="#bfbfbf" stroke="black" points="148,-55 148,-74 266,-74 266,-55 148,-55"/>
<text text-anchor="middle" x="207" y="-62" font-family="Helvetica,sans-Serif" font-size="10.00">tetengo::json::reader</text>
</a>
</g>
</g>
<!-- Node3 -->
<g id="node3" class="node">
<title>Node3</title>
<g id="a_node3"><a xlink:href="classtetengo_1_1json_1_1comment__removing__reader.html" target="_top" xlink:title="A comment removing reader.">
<polygon fill="white" stroke="black" points="302,-98.5 302,-128.5 435,-128.5 435,-98.5 302,-98.5"/>
<text text-anchor="start" x="310" y="-116.5" font-family="Helvetica,sans-Serif" font-size="10.00">tetengo::json::comment</text>
<text text-anchor="middle" x="368.5" y="-105.5" font-family="Helvetica,sans-Serif" font-size="10.00">_removing_reader</text>
</a>
</g>
</g>
<!-- Node1&#45;&gt;Node3 -->
<g id="edge2" class="edge">
<title>Node1&#45;&gt;Node3</title>
<path fill="none" stroke="midnightblue" d="M248.83,-77.04C270.08,-83.57 296.22,-91.6 318.55,-98.46"/>
<polygon fill="midnightblue" stroke="midnightblue" points="249.72,-73.66 239.13,-74.06 247.66,-80.35 249.72,-73.66"/>
</g>
<!-- Node4 -->
<g id="node4" class="node">
<title>Node4</title>
<g id="a_node4"><a xlink:href="classtetengo_1_1json_1_1line__counting__reader.html" target="_top" xlink:title="A line counting reader.">
<polygon fill="white" stroke="black" points="316.5,-49.5 316.5,-79.5 420.5,-79.5 420.5,-49.5 316.5,-49.5"/>
<text text-anchor="start" x="324.5" y="-67.5" font-family="Helvetica,sans-Serif" font-size="10.00">tetengo::json::line</text>
<text text-anchor="middle" x="368.5" y="-56.5" font-family="Helvetica,sans-Serif" font-size="10.00">_counting_reader</text>
</a>
</g>
</g>
<!-- Node1&#45;&gt;Node4 -->
<g id="edge3" class="edge">
<title>Node1&#45;&gt;Node4</title>
<path fill="none" stroke="midnightblue" d="M276.22,-64.5C289.68,-64.5 303.59,-64.5 316.37,-64.5"/>
<polygon fill="midnightblue" stroke="midnightblue" points="276.03,-61 266.03,-64.5 276.03,-68 276.03,-61"/>
</g>
<!-- Node5 -->
<g id="node5" class="node">
<title>Node5</title>
<g id="a_node5"><a xlink:href="classtetengo_1_1json_1_1stream__reader.html" target="_top" xlink:title="A stream reader.">
<polygon fill="white" stroke="black" points="308,-0.5 308,-30.5 429,-30.5 429,-0.5 308,-0.5"/>
<text text-anchor="start" x="316" y="-18.5" font-family="Helvetica,sans-Serif" font-size="10.00">tetengo::json::stream</text>
<text text-anchor="middle" x="368.5" y="-7.5" font-family="Helvetica,sans-Serif" font-size="10.00">_reader</text>
</a>
</g>
</g>
<!-- Node1&#45;&gt;Node5 -->
<g id="edge4" class="edge">
<title>Node1&#45;&gt;Node5</title>
<path fill="none" stroke="midnightblue" d="M248.83,-51.96C270.08,-45.43 296.22,-37.4 318.55,-30.54"/>
<polygon fill="midnightblue" stroke="midnightblue" points="247.66,-48.65 239.13,-54.94 249.72,-55.34 247.66,-48.65"/>
</g>
<!-- Node2 -->
<g id="node2" class="node">
<title>Node2</title>
<g id="a_node2"><a xlink:title=" ">
<polygon fill="white" stroke="#bfbfbf" points="0,-55 0,-74 112,-74 112,-55 0,-55"/>
<text text-anchor="middle" x="56" y="-62" font-family="Helvetica,sans-Serif" font-size="10.00">boost::noncopyable</text>
</a>
</g>
</g>
<!-- Node2&#45;&gt;Node1 -->
<g id="edge1" class="edge">
<title>Node2&#45;&gt;Node1</title>
<path fill="none" stroke="#8b1a1a" d="M122.34,-64.5C130.85,-64.5 139.53,-64.5 147.92,-64.5"/>
<polygon fill="#8b1a1a" stroke="#8b1a1a" points="122.06,-61 112.06,-64.5 122.06,-68 122.06,-61"/>
</g>
</g>
</svg>
