<?xml version="1.0" encoding="UTF-8" standalone="no"?>
<!DOCTYPE svg PUBLIC "-//W3C//DTD SVG 1.1//EN"
 "http://www.w3.org/Graphics/SVG/1.1/DTD/svg11.dtd">
<!-- Generated by graphviz version 2.43.0 (0)
 -->
<!-- Title: tetengo::lattice::n_best_iterator Pages: 1 -->
<svg width="272pt" height="72pt"
 viewBox="0.00 0.00 272.00 72.00" xmlns="http://www.w3.org/2000/svg" xmlns:xlink="http://www.w3.org/1999/xlink">
<g id="graph0" class="graph" transform="scale(1 1) rotate(0) translate(4 68)">
<title>tetengo::lattice::n_best_iterator</title>
<polygon fill="white" stroke="transparent" points="-4,4 -4,-68 268,-68 268,4 -4,4"/>
<!-- Node1 -->
<g id="node1" class="node">
<title>Node1</title>
<g id="a_node1"><a xlink:title="An N&#45;best lattice path iterator.">
<polygon fill="#bfbfbf" stroke="black" points="161,-17 161,-47 264,-47 264,-17 161,-17"/>
<text text-anchor="start" x="169" y="-35" font-family="Helvetica,sans-Serif" font-size="10.00">tetengo::lattice::n</text>
<text text-anchor="middle" x="212.5" y="-24" font-family="Helvetica,sans-Serif" font-size="10.00">_best_iterator</text>
</a>
</g>
</g>
<!-- Node2 -->
<g id="node2" class="node">
<title>Node2</title>
<g id="a_node2"><a xlink:title=" ">
<polygon fill="white" stroke="#bfbfbf" points="0,-0.5 0,-63.5 125,-63.5 125,-0.5 0,-0.5"/>
<text text-anchor="start" x="8" y="-51.5" font-family="Helvetica,sans-Serif" font-size="10.00">boost::stl_interfaces</text>
<text text-anchor="start" x="8" y="-40.5" font-family="Helvetica,sans-Serif" font-size="10.00">::iterator_interface</text>
<text text-anchor="start" x="8" y="-29.5" font-family="Helvetica,sans-Serif" font-size="10.00">&lt; n_best_iterator, std</text>
<text text-anchor="start" x="8" y="-18.5" font-family="Helvetica,sans-Serif" font-size="10.00">::forward_iterator_tag,</text>
<text text-anchor="middle" x="62.5" y="-7.5" font-family="Helvetica,sans-Serif" font-size="10.00"> path &gt;</text>
</a>
</g>
</g>
<!-- Node2&#45;&gt;Node1 -->
<g id="edge1" class="edge">
<title>Node2&#45;&gt;Node1</title>
<path fill="none" stroke="midnightblue" d="M135.65,-32C144.08,-32 152.55,-32 160.61,-32"/>
<polygon fill="midnightblue" stroke="midnightblue" points="135.41,-28.5 125.41,-32 135.41,-35.5 135.41,-28.5"/>
</g>
</g>
</svg>
