<?xml version="1.0" encoding="UTF-8" standalone="no"?>
<!DOCTYPE svg PUBLIC "-//W3C//DTD SVG 1.1//EN"
 "http://www.w3.org/Graphics/SVG/1.1/DTD/svg11.dtd">
<!-- Generated by graphviz version 2.43.0 (0)
 -->
<!-- Title: tetengo::text::grapheme_splitting::east_asian_character_width Pages: 1 -->
<svg width="154pt" height="173pt"
 viewBox="0.00 0.00 154.00 173.00" xmlns="http://www.w3.org/2000/svg" xmlns:xlink="http://www.w3.org/1999/xlink">
<g id="graph0" class="graph" transform="scale(1 1) rotate(0) translate(4 169)">
<title>tetengo::text::grapheme_splitting::east_asian_character_width</title>
<polygon fill="white" stroke="transparent" points="-4,4 -4,-169 150,-169 150,4 -4,4"/>
<!-- Node1 -->
<g id="node1" class="node">
<title>Node1</title>
<g id="a_node1"><a xlink:title="An east Asian character width.">
<polygon fill="#bfbfbf" stroke="black" points="5.5,-0.5 5.5,-41.5 140.5,-41.5 140.5,-0.5 5.5,-0.5"/>
<text text-anchor="start" x="13.5" y="-29.5" font-family="Helvetica,sans-Serif" font-size="10.00">tetengo::text::grapheme</text>
<text text-anchor="start" x="13.5" y="-18.5" font-family="Helvetica,sans-Serif" font-size="10.00">_splitting::east_asian</text>
<text text-anchor="middle" x="73" y="-7.5" font-family="Helvetica,sans-Serif" font-size="10.00">_character_width</text>
</a>
</g>
</g>
<!-- Node2 -->
<g id="node2" class="node">
<title>Node2</title>
<g id="a_node2"><a xlink:href="classtetengo_1_1text_1_1grapheme__splitting_1_1character__width.html" target="_top" xlink:title="A character width.">
<polygon fill="white" stroke="black" points="0,-78.5 0,-108.5 146,-108.5 146,-78.5 0,-78.5"/>
<text text-anchor="start" x="8" y="-96.5" font-family="Helvetica,sans-Serif" font-size="10.00">tetengo::text::grapheme</text>
<text text-anchor="middle" x="73" y="-85.5" font-family="Helvetica,sans-Serif" font-size="10.00">_splitting::character_width</text>
</a>
</g>
</g>
<!-- Node2&#45;&gt;Node1 -->
<g id="edge1" class="edge">
<title>Node2&#45;&gt;Node1</title>
<path fill="none" stroke="midnightblue" d="M73,-67.98C73,-59.35 73,-49.76 73,-41.59"/>
<polygon fill="midnightblue" stroke="midnightblue" points="69.5,-68.23 73,-78.23 76.5,-68.23 69.5,-68.23"/>
</g>
<!-- Node3 -->
<g id="node3" class="node">
<title>Node3</title>
<g id="a_node3"><a xlink:title=" ">
<polygon fill="white" stroke="#bfbfbf" points="17,-145.5 17,-164.5 129,-164.5 129,-145.5 17,-145.5"/>
<text text-anchor="middle" x="73" y="-152.5" font-family="Helvetica,sans-Serif" font-size="10.00">boost::noncopyable</text>
</a>
</g>
</g>
<!-- Node3&#45;&gt;Node2 -->
<g id="edge2" class="edge">
<title>Node3&#45;&gt;Node2</title>
<path fill="none" stroke="#8b1a1a" d="M73,-135.23C73,-126.59 73,-116.5 73,-108.52"/>
<polygon fill="#8b1a1a" stroke="#8b1a1a" points="69.5,-135.48 73,-145.48 76.5,-135.48 69.5,-135.48"/>
</g>
</g>
</svg>
