<?xml version="1.0" encoding="UTF-8" standalone="no"?>
<!DOCTYPE svg PUBLIC "-//W3C//DTD SVG 1.1//EN"
 "http://www.w3.org/Graphics/SVG/1.1/DTD/svg11.dtd">
<!-- Generated by graphviz version 2.43.0 (0)
 -->
<!-- Title: tetengo::text::grapheme_splitting::character_width Pages: 1 -->
<svg width="523pt" height="98pt"
 viewBox="0.00 0.00 523.00 97.50" xmlns="http://www.w3.org/2000/svg" xmlns:xlink="http://www.w3.org/1999/xlink">
<g id="graph0" class="graph" transform="scale(1 1) rotate(0) translate(4 93.5)">
<title>tetengo::text::grapheme_splitting::character_width</title>
<!-- Node1 -->
<g id="node1" class="node">
<title>Node1</title>
<g id="a_node1"><a xlink:title="A character width.">
<polygon fill="#999999" stroke="#666666" points="294,-62.5 148,-62.5 148,-32.5 294,-32.5 294,-62.5"/>
<text text-anchor="start" x="156" y="-50.5" font-family="Helvetica,sans-Serif" font-size="10.00">tetengo::text::grapheme</text>
<text text-anchor="middle" x="221" y="-39.5" font-family="Helvetica,sans-Serif" font-size="10.00">_splitting::character_width</text>
</a>
</g>
</g>
<!-- Node3 -->
<g id="node3" class="node">
<title>Node3</title>
<g id="a_node3"><a xlink:href="classtetengo_1_1text_1_1grapheme__splitting_1_1default__character__width.html" target="_top" xlink:title="A default character width.">
<polygon fill="white" stroke="#666666" points="515,-89.5 330,-89.5 330,-59.5 515,-59.5 515,-89.5"/>
<text text-anchor="start" x="338" y="-77.5" font-family="Helvetica,sans-Serif" font-size="10.00">tetengo::text::grapheme</text>
<text text-anchor="middle" x="422.5" y="-66.5" font-family="Helvetica,sans-Serif" font-size="10.00">_splitting::default_character_width</text>
</a>
</g>
</g>
<!-- Node1&#45;&gt;Node3 -->
<g id="edge2" class="edge">
<title>Node1&#45;&gt;Node3</title>
<path fill="none" stroke="#63b8ff" d="M304.21,-58.63C312.64,-59.77 321.25,-60.93 329.78,-62.09"/>
<polygon fill="#63b8ff" stroke="#63b8ff" points="304.4,-55.12 294.02,-57.25 303.46,-62.06 304.4,-55.12"/>
</g>
<!-- Node4 -->
<g id="node4" class="node">
<title>Node4</title>
<g id="a_node4"><a xlink:href="classtetengo_1_1text_1_1grapheme__splitting_1_1east__asian__character__width.html" target="_top" xlink:title="An east Asian character width.">
<polygon fill="white" stroke="#666666" points="490,-41 355,-41 355,0 490,0 490,-41"/>
<text text-anchor="start" x="363" y="-29" font-family="Helvetica,sans-Serif" font-size="10.00">tetengo::text::grapheme</text>
<text text-anchor="start" x="363" y="-18" font-family="Helvetica,sans-Serif" font-size="10.00">_splitting::east_asian</text>
<text text-anchor="middle" x="422.5" y="-7" font-family="Helvetica,sans-Serif" font-size="10.00">_character_width</text>
</a>
</g>
</g>
<!-- Node1&#45;&gt;Node4 -->
<g id="edge3" class="edge">
<title>Node1&#45;&gt;Node4</title>
<path fill="none" stroke="#63b8ff" d="M304.39,-36.35C321.21,-34.07 338.71,-31.7 354.9,-29.51"/>
<polygon fill="#63b8ff" stroke="#63b8ff" points="303.46,-32.94 294.02,-37.75 304.4,-39.88 303.46,-32.94"/>
</g>
<!-- Node2 -->
<g id="node2" class="node">
<title>Node2</title>
<g id="a_node2"><a xlink:title=" ">
<polygon fill="white" stroke="#bfbfbf" points="112,-57 0,-57 0,-38 112,-38 112,-57"/>
<text text-anchor="middle" x="56" y="-45" font-family="Helvetica,sans-Serif" font-size="10.00">boost::noncopyable</text>
</a>
</g>
</g>
<!-- Node2&#45;&gt;Node1 -->
<g id="edge1" class="edge">
<title>Node2&#45;&gt;Node1</title>
<path fill="none" stroke="#8b1a1a" d="M122.29,-47.5C130.68,-47.5 139.32,-47.5 147.82,-47.5"/>
<polygon fill="#8b1a1a" stroke="#8b1a1a" points="122.18,-44 112.18,-47.5 122.18,-51 122.18,-44"/>
</g>
</g>
</svg>
