<?xml version="1.0" encoding="UTF-8" standalone="no"?>
<!DOCTYPE svg PUBLIC "-//W3C//DTD SVG 1.1//EN"
 "http://www.w3.org/Graphics/SVG/1.1/DTD/svg11.dtd">
<!-- Generated by graphviz version 2.43.0 (0)
 -->
<!-- Title: tetengo::property::windows_registry_storage_loader Pages: 1 -->
<svg width="152pt" height="173pt"
 viewBox="0.00 0.00 152.00 173.00" xmlns="http://www.w3.org/2000/svg" xmlns:xlink="http://www.w3.org/1999/xlink">
<g id="graph0" class="graph" transform="scale(1 1) rotate(0) translate(4 169)">
<title>tetengo::property::windows_registry_storage_loader</title>
<polygon fill="white" stroke="transparent" points="-4,4 -4,-169 148,-169 148,4 -4,4"/>
<!-- Node1 -->
<g id="node1" class="node">
<title>Node1</title>
<g id="a_node1"><a xlink:title="A Windows registry storage loader.">
<polygon fill="#bfbfbf" stroke="black" points="0,-0.5 0,-41.5 144,-41.5 144,-0.5 0,-0.5"/>
<text text-anchor="start" x="8" y="-29.5" font-family="Helvetica,sans-Serif" font-size="10.00">tetengo::property::</text>
<text text-anchor="start" x="8" y="-18.5" font-family="Helvetica,sans-Serif" font-size="10.00">windows_registry_storage</text>
<text text-anchor="middle" x="72" y="-7.5" font-family="Helvetica,sans-Serif" font-size="10.00">_loader</text>
</a>
</g>
</g>
<!-- Node2 -->
<g id="node2" class="node">
<title>Node2</title>
<g id="a_node2"><a xlink:href="classtetengo_1_1property_1_1storage__loader.html" target="_top" xlink:title="A storage loader.">
<polygon fill="white" stroke="black" points="18.5,-78.5 18.5,-108.5 125.5,-108.5 125.5,-78.5 18.5,-78.5"/>
<text text-anchor="start" x="26.5" y="-96.5" font-family="Helvetica,sans-Serif" font-size="10.00">tetengo::property::</text>
<text text-anchor="middle" x="72" y="-85.5" font-family="Helvetica,sans-Serif" font-size="10.00">storage_loader</text>
</a>
</g>
</g>
<!-- Node2&#45;&gt;Node1 -->
<g id="edge1" class="edge">
<title>Node2&#45;&gt;Node1</title>
<path fill="none" stroke="midnightblue" d="M72,-67.98C72,-59.35 72,-49.76 72,-41.59"/>
<polygon fill="midnightblue" stroke="midnightblue" points="68.5,-68.23 72,-78.23 75.5,-68.23 68.5,-68.23"/>
</g>
<!-- Node3 -->
<g id="node3" class="node">
<title>Node3</title>
<g id="a_node3"><a xlink:title=" ">
<polygon fill="white" stroke="#bfbfbf" points="16,-145.5 16,-164.5 128,-164.5 128,-145.5 16,-145.5"/>
<text text-anchor="middle" x="72" y="-152.5" font-family="Helvetica,sans-Serif" font-size="10.00">boost::noncopyable</text>
</a>
</g>
</g>
<!-- Node3&#45;&gt;Node2 -->
<g id="edge2" class="edge">
<title>Node3&#45;&gt;Node2</title>
<path fill="none" stroke="#8b1a1a" d="M72,-135.23C72,-126.59 72,-116.5 72,-108.52"/>
<polygon fill="#8b1a1a" stroke="#8b1a1a" points="68.5,-135.48 72,-145.48 75.5,-135.48 68.5,-135.48"/>
</g>
</g>
</svg>
