<?xml version="1.0" encoding="UTF-8" standalone="no"?>
<!DOCTYPE svg PUBLIC "-//W3C//DTD SVG 1.1//EN"
 "http://www.w3.org/Graphics/SVG/1.1/DTD/svg11.dtd">
<!-- Generated by graphviz version 2.43.0 (0)
 -->
<!-- Title: tetengo::text::encoder&lt; Encoding &gt; Pages: 1 -->
<svg width="161pt" height="148pt"
 viewBox="0.00 0.00 161.00 148.00" xmlns="http://www.w3.org/2000/svg" xmlns:xlink="http://www.w3.org/1999/xlink">
<g id="graph0" class="graph" transform="scale(1 1) rotate(0) translate(4 144)">
<title>tetengo::text::encoder&lt; Encoding &gt;</title>
<!-- Node1 -->
<g id="node1" class="node">
<title>Node1</title>
<g id="a_node1"><a xlink:title="An encoder.">
<polygon fill="#999999" stroke="#666666" points="139,-30 14,-30 14,0 139,0 139,-30"/>
<text text-anchor="start" x="22" y="-18" font-family="Helvetica,sans-Serif" font-size="10.00">tetengo::text::encoder</text>
<text text-anchor="middle" x="76.5" y="-7" font-family="Helvetica,sans-Serif" font-size="10.00">&lt; Encoding &gt;</text>
</a>
</g>
</g>
<!-- Node2 -->
<g id="node2" class="node">
<title>Node2</title>
<g id="a_node2"><a xlink:href="classtetengo_1_1text_1_1encoder__base.html" target="_top" xlink:title="An encoder base.">
<polygon fill="white" stroke="#666666" points="153,-85 0,-85 0,-66 153,-66 153,-85"/>
<text text-anchor="middle" x="76.5" y="-73" font-family="Helvetica,sans-Serif" font-size="10.00">tetengo::text::encoder_base</text>
</a>
</g>
</g>
<!-- Node2&#45;&gt;Node1 -->
<g id="edge1" class="edge">
<title>Node2&#45;&gt;Node1</title>
<path fill="none" stroke="#63b8ff" d="M76.5,-55.65C76.5,-47.36 76.5,-37.78 76.5,-30.11"/>
<polygon fill="#63b8ff" stroke="#63b8ff" points="73,-55.87 76.5,-65.87 80,-55.87 73,-55.87"/>
</g>
<!-- Node3 -->
<g id="node3" class="node">
<title>Node3</title>
<g id="a_node3"><a xlink:title=" ">
<polygon fill="white" stroke="#bfbfbf" points="132.5,-140 20.5,-140 20.5,-121 132.5,-121 132.5,-140"/>
<text text-anchor="middle" x="76.5" y="-128" font-family="Helvetica,sans-Serif" font-size="10.00">boost::noncopyable</text>
</a>
</g>
</g>
<!-- Node3&#45;&gt;Node2 -->
<g id="edge2" class="edge">
<title>Node3&#45;&gt;Node2</title>
<path fill="none" stroke="#8b1a1a" d="M76.5,-110.66C76.5,-101.93 76.5,-91.99 76.5,-85.09"/>
<polygon fill="#8b1a1a" stroke="#8b1a1a" points="73,-110.75 76.5,-120.75 80,-110.75 73,-110.75"/>
</g>
</g>
</svg>
