<?xml version="1.0" encoding="UTF-8" standalone="no"?>
<!DOCTYPE svg PUBLIC "-//W3C//DTD SVG 1.1//EN"
 "http://www.w3.org/Graphics/SVG/1.1/DTD/svg11.dtd">
<!-- Generated by graphviz version 2.43.0 (0)
 -->
<!-- Title: tetengo::property::memory_storage_loader Pages: 1 -->
<svg width="144pt" height="162pt"
 viewBox="0.00 0.00 144.00 162.00" xmlns="http://www.w3.org/2000/svg" xmlns:xlink="http://www.w3.org/1999/xlink">
<g id="graph0" class="graph" transform="scale(1 1) rotate(0) translate(4 158)">
<title>tetengo::property::memory_storage_loader</title>
<polygon fill="white" stroke="transparent" points="-4,4 -4,-158 140,-158 140,4 -4,4"/>
<!-- Node1 -->
<g id="node1" class="node">
<title>Node1</title>
<g id="a_node1"><a xlink:title="A memory storage loader.">
<polygon fill="#bfbfbf" stroke="black" points="0,-0.5 0,-30.5 136,-30.5 136,-0.5 0,-0.5"/>
<text text-anchor="start" x="8" y="-18.5" font-family="Helvetica,sans-Serif" font-size="10.00">tetengo::property::</text>
<text text-anchor="middle" x="68" y="-7.5" font-family="Helvetica,sans-Serif" font-size="10.00">memory_storage_loader</text>
</a>
</g>
</g>
<!-- Node2 -->
<g id="node2" class="node">
<title>Node2</title>
<g id="a_node2"><a xlink:href="classtetengo_1_1property_1_1storage__loader.html" target="_top" xlink:title="A storage loader.">
<polygon fill="white" stroke="black" points="14.5,-67.5 14.5,-97.5 121.5,-97.5 121.5,-67.5 14.5,-67.5"/>
<text text-anchor="start" x="22.5" y="-85.5" font-family="Helvetica,sans-Serif" font-size="10.00">tetengo::property::</text>
<text text-anchor="middle" x="68" y="-74.5" font-family="Helvetica,sans-Serif" font-size="10.00">storage_loader</text>
</a>
</g>
</g>
<!-- Node2&#45;&gt;Node1 -->
<g id="edge1" class="edge">
<title>Node2&#45;&gt;Node1</title>
<path fill="none" stroke="midnightblue" d="M68,-57.11C68,-48.15 68,-38.32 68,-30.58"/>
<polygon fill="midnightblue" stroke="midnightblue" points="64.5,-57.4 68,-67.4 71.5,-57.4 64.5,-57.4"/>
</g>
<!-- Node3 -->
<g id="node3" class="node">
<title>Node3</title>
<g id="a_node3"><a xlink:title=" ">
<polygon fill="white" stroke="#bfbfbf" points="12,-134.5 12,-153.5 124,-153.5 124,-134.5 12,-134.5"/>
<text text-anchor="middle" x="68" y="-141.5" font-family="Helvetica,sans-Serif" font-size="10.00">boost::noncopyable</text>
</a>
</g>
</g>
<!-- Node3&#45;&gt;Node2 -->
<g id="edge2" class="edge">
<title>Node3&#45;&gt;Node2</title>
<path fill="none" stroke="#8b1a1a" d="M68,-124.23C68,-115.59 68,-105.5 68,-97.52"/>
<polygon fill="#8b1a1a" stroke="#8b1a1a" points="64.5,-124.48 68,-134.48 71.5,-124.48 64.5,-124.48"/>
</g>
</g>
</svg>
