<?xml version="1.0" encoding="UTF-8" standalone="no"?>
<!DOCTYPE svg PUBLIC "-//W3C//DTD SVG 1.1//EN"
 "http://www.w3.org/Graphics/SVG/1.1/DTD/svg11.dtd">
<!-- Generated by graphviz version 2.43.0 (0)
 -->
<!-- Title: tetengo::property::windows_registry_storage_loader Pages: 1 -->
<svg width="152pt" height="170pt"
 viewBox="0.00 0.00 152.00 170.00" xmlns="http://www.w3.org/2000/svg" xmlns:xlink="http://www.w3.org/1999/xlink">
<g id="graph0" class="graph" transform="scale(1 1) rotate(0) translate(4 166)">
<title>tetengo::property::windows_registry_storage_loader</title>
<!-- Node1 -->
<g id="node1" class="node">
<title>Node1</title>
<g id="a_node1"><a xlink:title="A Windows registry storage loader.">
<polygon fill="#999999" stroke="#666666" points="144,-41 0,-41 0,0 144,0 144,-41"/>
<text text-anchor="start" x="8" y="-29" font-family="Helvetica,sans-Serif" font-size="10.00">tetengo::property::</text>
<text text-anchor="start" x="8" y="-18" font-family="Helvetica,sans-Serif" font-size="10.00">windows_registry_storage</text>
<text text-anchor="middle" x="72" y="-7" font-family="Helvetica,sans-Serif" font-size="10.00">_loader</text>
</a>
</g>
</g>
<!-- Node2 -->
<g id="node2" class="node">
<title>Node2</title>
<g id="a_node2"><a xlink:href="classtetengo_1_1property_1_1storage__loader.html" target="_top" xlink:title="A storage loader.">
<polygon fill="white" stroke="#666666" points="125.5,-107 18.5,-107 18.5,-77 125.5,-77 125.5,-107"/>
<text text-anchor="start" x="26.5" y="-95" font-family="Helvetica,sans-Serif" font-size="10.00">tetengo::property::</text>
<text text-anchor="middle" x="72" y="-84" font-family="Helvetica,sans-Serif" font-size="10.00">storage_loader</text>
</a>
</g>
</g>
<!-- Node2&#45;&gt;Node1 -->
<g id="edge1" class="edge">
<title>Node2&#45;&gt;Node1</title>
<path fill="none" stroke="#63b8ff" d="M72,-66.91C72,-58.47 72,-49.1 72,-41.07"/>
<polygon fill="#63b8ff" stroke="#63b8ff" points="68.5,-66.94 72,-76.94 75.5,-66.94 68.5,-66.94"/>
</g>
<!-- Node3 -->
<g id="node3" class="node">
<title>Node3</title>
<g id="a_node3"><a xlink:title=" ">
<polygon fill="white" stroke="#bfbfbf" points="128,-162 16,-162 16,-143 128,-143 128,-162"/>
<text text-anchor="middle" x="72" y="-150" font-family="Helvetica,sans-Serif" font-size="10.00">boost::noncopyable</text>
</a>
</g>
</g>
<!-- Node3&#45;&gt;Node2 -->
<g id="edge2" class="edge">
<title>Node3&#45;&gt;Node2</title>
<path fill="none" stroke="#8b1a1a" d="M72,-132.65C72,-124.36 72,-114.78 72,-107.11"/>
<polygon fill="#8b1a1a" stroke="#8b1a1a" points="68.5,-132.87 72,-142.87 75.5,-132.87 68.5,-132.87"/>
</g>
</g>
</svg>
