<?xml version="1.0" encoding="UTF-8" standalone="no"?>
<!DOCTYPE svg PUBLIC "-//W3C//DTD SVG 1.1//EN"
 "http://www.w3.org/Graphics/SVG/1.1/DTD/svg11.dtd">
<!-- Generated by graphviz version 2.43.0 (0)
 -->
<!-- Title: tetengo::lattice::constraint_element Pages: 1 -->
<svg width="476pt" height="88pt"
 viewBox="0.00 0.00 476.00 88.00" xmlns="http://www.w3.org/2000/svg" xmlns:xlink="http://www.w3.org/1999/xlink">
<g id="graph0" class="graph" transform="scale(1 1) rotate(0) translate(4 84)">
<title>tetengo::lattice::constraint_element</title>
<polygon fill="white" stroke="transparent" points="-4,4 -4,-84 472,-84 472,4 -4,4"/>
<!-- Node1 -->
<g id="node1" class="node">
<title>Node1</title>
<g id="a_node1"><a xlink:title="A constraint element.">
<polygon fill="#bfbfbf" stroke="black" points="148,-24.5 148,-54.5 294,-54.5 294,-24.5 148,-24.5"/>
<text text-anchor="start" x="156" y="-42.5" font-family="Helvetica,sans-Serif" font-size="10.00">tetengo::lattice::constraint</text>
<text text-anchor="middle" x="221" y="-31.5" font-family="Helvetica,sans-Serif" font-size="10.00">_element</text>
</a>
</g>
</g>
<!-- Node3 -->
<g id="node3" class="node">
<title>Node3</title>
<g id="a_node3"><a xlink:href="classtetengo_1_1lattice_1_1node__constraint__element.html" target="_top" xlink:title="A node constraint element.">
<polygon fill="white" stroke="black" points="338.5,-49.5 338.5,-79.5 459.5,-79.5 459.5,-49.5 338.5,-49.5"/>
<text text-anchor="start" x="346.5" y="-67.5" font-family="Helvetica,sans-Serif" font-size="10.00">tetengo::lattice::node</text>
<text text-anchor="middle" x="399" y="-56.5" font-family="Helvetica,sans-Serif" font-size="10.00">_constraint_element</text>
</a>
</g>
</g>
<!-- Node1&#45;&gt;Node3 -->
<g id="edge2" class="edge">
<title>Node1&#45;&gt;Node3</title>
<path fill="none" stroke="midnightblue" d="M304.17,-51.17C315.7,-52.81 327.36,-54.47 338.36,-56.03"/>
<polygon fill="midnightblue" stroke="midnightblue" points="304.49,-47.68 294.09,-49.74 303.5,-54.61 304.49,-47.68"/>
</g>
<!-- Node4 -->
<g id="node4" class="node">
<title>Node4</title>
<g id="a_node4"><a xlink:href="classtetengo_1_1lattice_1_1wildcard__constraint__element.html" target="_top" xlink:title="A wildcard constraint element.">
<polygon fill="white" stroke="black" points="330,-0.5 330,-30.5 468,-30.5 468,-0.5 330,-0.5"/>
<text text-anchor="start" x="338" y="-18.5" font-family="Helvetica,sans-Serif" font-size="10.00">tetengo::lattice::wildcard</text>
<text text-anchor="middle" x="399" y="-7.5" font-family="Helvetica,sans-Serif" font-size="10.00">_constraint_element</text>
</a>
</g>
</g>
<!-- Node1&#45;&gt;Node4 -->
<g id="edge3" class="edge">
<title>Node1&#45;&gt;Node4</title>
<path fill="none" stroke="midnightblue" d="M304.18,-28.29C312.82,-27.12 321.53,-25.93 329.99,-24.77"/>
<polygon fill="midnightblue" stroke="midnightblue" points="303.53,-24.85 294.09,-29.67 304.47,-31.79 303.53,-24.85"/>
</g>
<!-- Node2 -->
<g id="node2" class="node">
<title>Node2</title>
<g id="a_node2"><a xlink:title=" ">
<polygon fill="white" stroke="#bfbfbf" points="0,-30 0,-49 112,-49 112,-30 0,-30"/>
<text text-anchor="middle" x="56" y="-37" font-family="Helvetica,sans-Serif" font-size="10.00">boost::noncopyable</text>
</a>
</g>
</g>
<!-- Node2&#45;&gt;Node1 -->
<g id="edge1" class="edge">
<title>Node2&#45;&gt;Node1</title>
<path fill="none" stroke="#8b1a1a" d="M122.29,-39.5C130.68,-39.5 139.32,-39.5 147.82,-39.5"/>
<polygon fill="#8b1a1a" stroke="#8b1a1a" points="122.18,-36 112.18,-39.5 122.18,-43 122.18,-36"/>
</g>
</g>
</svg>
