<?xml version="1.0" encoding="UTF-8" standalone="no"?>
<!DOCTYPE svg PUBLIC "-//W3C//DTD SVG 1.1//EN"
 "http://www.w3.org/Graphics/SVG/1.1/DTD/svg11.dtd">
<!-- Generated by graphviz version 2.43.0 (0)
 -->
<!-- Title: tetengo::lattice::node_constraint_element Pages: 1 -->
<svg width="154pt" height="159pt"
 viewBox="0.00 0.00 154.00 159.00" xmlns="http://www.w3.org/2000/svg" xmlns:xlink="http://www.w3.org/1999/xlink">
<g id="graph0" class="graph" transform="scale(1 1) rotate(0) translate(4 155)">
<title>tetengo::lattice::node_constraint_element</title>
<!-- Node1 -->
<g id="node1" class="node">
<title>Node1</title>
<g id="a_node1"><a xlink:title="A node constraint element.">
<polygon fill="#999999" stroke="#666666" points="133.5,-30 12.5,-30 12.5,0 133.5,0 133.5,-30"/>
<text text-anchor="start" x="20.5" y="-18" font-family="Helvetica,sans-Serif" font-size="10.00">tetengo::lattice::node</text>
<text text-anchor="middle" x="73" y="-7" font-family="Helvetica,sans-Serif" font-size="10.00">_constraint_element</text>
</a>
</g>
</g>
<!-- Node2 -->
<g id="node2" class="node">
<title>Node2</title>
<g id="a_node2"><a xlink:href="classtetengo_1_1lattice_1_1constraint__element.html" target="_top" xlink:title="A constraint element.">
<polygon fill="white" stroke="#666666" points="146,-96 0,-96 0,-66 146,-66 146,-96"/>
<text text-anchor="start" x="8" y="-84" font-family="Helvetica,sans-Serif" font-size="10.00">tetengo::lattice::constraint</text>
<text text-anchor="middle" x="73" y="-73" font-family="Helvetica,sans-Serif" font-size="10.00">_element</text>
</a>
</g>
</g>
<!-- Node2&#45;&gt;Node1 -->
<g id="edge1" class="edge">
<title>Node2&#45;&gt;Node1</title>
<path fill="none" stroke="#63b8ff" d="M73,-55.54C73,-46.96 73,-37.61 73,-30.16"/>
<polygon fill="#63b8ff" stroke="#63b8ff" points="69.5,-55.8 73,-65.8 76.5,-55.8 69.5,-55.8"/>
</g>
<!-- Node3 -->
<g id="node3" class="node">
<title>Node3</title>
<g id="a_node3"><a xlink:title=" ">
<polygon fill="white" stroke="#bfbfbf" points="129,-151 17,-151 17,-132 129,-132 129,-151"/>
<text text-anchor="middle" x="73" y="-139" font-family="Helvetica,sans-Serif" font-size="10.00">boost::noncopyable</text>
</a>
</g>
</g>
<!-- Node3&#45;&gt;Node2 -->
<g id="edge2" class="edge">
<title>Node3&#45;&gt;Node2</title>
<path fill="none" stroke="#8b1a1a" d="M73,-121.65C73,-113.36 73,-103.78 73,-96.11"/>
<polygon fill="#8b1a1a" stroke="#8b1a1a" points="69.5,-121.87 73,-131.87 76.5,-121.87 69.5,-121.87"/>
</g>
</g>
</svg>
