<?xml version="1.0" encoding="UTF-8" standalone="no"?>
<!DOCTYPE svg PUBLIC "-//W3C//DTD SVG 1.1//EN"
 "http://www.w3.org/Graphics/SVG/1.1/DTD/svg11.dtd">
<!-- Generated by graphviz version 2.43.0 (0)
 -->
<!-- Title: tetengo::lattice::input Pages: 1 -->
<svg width="290pt" height="162pt"
 viewBox="0.00 0.00 290.00 162.00" xmlns="http://www.w3.org/2000/svg" xmlns:xlink="http://www.w3.org/1999/xlink">
<g id="graph0" class="graph" transform="scale(1 1) rotate(0) translate(4 158)">
<title>tetengo::lattice::input</title>
<polygon fill="white" stroke="transparent" points="-4,4 -4,-158 286,-158 286,4 -4,4"/>
<!-- Node1 -->
<g id="node1" class="node">
<title>Node1</title>
<g id="a_node1"><a xlink:title="An input.">
<polygon fill="#bfbfbf" stroke="black" points="90,-67.5 90,-86.5 212,-86.5 212,-67.5 90,-67.5"/>
<text text-anchor="middle" x="151" y="-74.5" font-family="Helvetica,sans-Serif" font-size="10.00">tetengo::lattice::input</text>
</a>
</g>
</g>
<!-- Node4 -->
<g id="node4" class="node">
<title>Node4</title>
<g id="a_node4"><a xlink:href="classtetengo_1_1lattice_1_1string__input.html" target="_top" xlink:title="A string input.">
<polygon fill="white" stroke="black" points="88.5,-0.5 88.5,-30.5 213.5,-30.5 213.5,-0.5 88.5,-0.5"/>
<text text-anchor="start" x="96.5" y="-18.5" font-family="Helvetica,sans-Serif" font-size="10.00">tetengo::lattice::string</text>
<text text-anchor="middle" x="151" y="-7.5" font-family="Helvetica,sans-Serif" font-size="10.00">_input</text>
</a>
</g>
</g>
<!-- Node1&#45;&gt;Node4 -->
<g id="edge3" class="edge">
<title>Node1&#45;&gt;Node4</title>
<path fill="none" stroke="midnightblue" d="M151,-57.23C151,-48.59 151,-38.5 151,-30.52"/>
<polygon fill="midnightblue" stroke="midnightblue" points="147.5,-57.48 151,-67.48 154.5,-57.48 147.5,-57.48"/>
</g>
<!-- Node2 -->
<g id="node2" class="node">
<title>Node2</title>
<g id="a_node2"><a xlink:title=" ">
<polygon fill="white" stroke="#bfbfbf" points="0,-123.5 0,-153.5 152,-153.5 152,-123.5 0,-123.5"/>
<text text-anchor="start" x="8" y="-141.5" font-family="Helvetica,sans-Serif" font-size="10.00">boost::equality_comparable</text>
<text text-anchor="middle" x="76" y="-130.5" font-family="Helvetica,sans-Serif" font-size="10.00">&lt; input &gt;</text>
</a>
</g>
</g>
<!-- Node2&#45;&gt;Node1 -->
<g id="edge1" class="edge">
<title>Node2&#45;&gt;Node1</title>
<path fill="none" stroke="midnightblue" d="M101.97,-116.89C115.02,-106.54 130.13,-94.56 140.09,-86.66"/>
<polygon fill="midnightblue" stroke="midnightblue" points="99.43,-114.44 93.77,-123.4 103.78,-119.93 99.43,-114.44"/>
</g>
<!-- Node3 -->
<g id="node3" class="node">
<title>Node3</title>
<g id="a_node3"><a xlink:title=" ">
<polygon fill="white" stroke="#bfbfbf" points="170,-129 170,-148 282,-148 282,-129 170,-129"/>
<text text-anchor="middle" x="226" y="-136" font-family="Helvetica,sans-Serif" font-size="10.00">boost::noncopyable</text>
</a>
</g>
</g>
<!-- Node3&#45;&gt;Node1 -->
<g id="edge2" class="edge">
<title>Node3&#45;&gt;Node1</title>
<path fill="none" stroke="#8b1a1a" d="M207.06,-122.47C192.71,-111.09 173.52,-95.87 161.73,-86.51"/>
<polygon fill="#8b1a1a" stroke="#8b1a1a" points="205.24,-125.5 215.25,-128.98 209.6,-120.02 205.24,-125.5"/>
</g>
</g>
</svg>
