<?xml version="1.0" encoding="UTF-8" standalone="no"?>
<!DOCTYPE svg PUBLIC "-//W3C//DTD SVG 1.1//EN"
 "http://www.w3.org/Graphics/SVG/1.1/DTD/svg11.dtd">
<!-- Generated by graphviz version 2.43.0 (0)
 -->
<!-- Title: tetengo::json::line_counting_reader Pages: 1 -->
<svg width="126pt" height="151pt"
 viewBox="0.00 0.00 126.00 151.00" xmlns="http://www.w3.org/2000/svg" xmlns:xlink="http://www.w3.org/1999/xlink">
<g id="graph0" class="graph" transform="scale(1 1) rotate(0) translate(4 147)">
<title>tetengo::json::line_counting_reader</title>
<polygon fill="white" stroke="transparent" points="-4,4 -4,-147 122,-147 122,4 -4,4"/>
<!-- Node1 -->
<g id="node1" class="node">
<title>Node1</title>
<g id="a_node1"><a xlink:title="A line counting reader.">
<polygon fill="#bfbfbf" stroke="black" points="7,-0.5 7,-30.5 111,-30.5 111,-0.5 7,-0.5"/>
<text text-anchor="start" x="15" y="-18.5" font-family="Helvetica,sans-Serif" font-size="10.00">tetengo::json::line</text>
<text text-anchor="middle" x="59" y="-7.5" font-family="Helvetica,sans-Serif" font-size="10.00">_counting_reader</text>
</a>
</g>
</g>
<!-- Node2 -->
<g id="node2" class="node">
<title>Node2</title>
<g id="a_node2"><a xlink:href="classtetengo_1_1json_1_1reader.html" target="_top" xlink:title="A reader.">
<polygon fill="white" stroke="black" points="0,-67.5 0,-86.5 118,-86.5 118,-67.5 0,-67.5"/>
<text text-anchor="middle" x="59" y="-74.5" font-family="Helvetica,sans-Serif" font-size="10.00">tetengo::json::reader</text>
</a>
</g>
</g>
<!-- Node2&#45;&gt;Node1 -->
<g id="edge1" class="edge">
<title>Node2&#45;&gt;Node1</title>
<path fill="none" stroke="midnightblue" d="M59,-57.23C59,-48.59 59,-38.5 59,-30.52"/>
<polygon fill="midnightblue" stroke="midnightblue" points="55.5,-57.48 59,-67.48 62.5,-57.48 55.5,-57.48"/>
</g>
<!-- Node3 -->
<g id="node3" class="node">
<title>Node3</title>
<g id="a_node3"><a xlink:title=" ">
<polygon fill="white" stroke="#bfbfbf" points="3,-123.5 3,-142.5 115,-142.5 115,-123.5 3,-123.5"/>
<text text-anchor="middle" x="59" y="-130.5" font-family="Helvetica,sans-Serif" font-size="10.00">boost::noncopyable</text>
</a>
</g>
</g>
<!-- Node3&#45;&gt;Node2 -->
<g id="edge2" class="edge">
<title>Node3&#45;&gt;Node2</title>
<path fill="none" stroke="#8b1a1a" d="M59,-112.8C59,-103.91 59,-93.78 59,-86.75"/>
<polygon fill="#8b1a1a" stroke="#8b1a1a" points="55.5,-113.08 59,-123.08 62.5,-113.08 55.5,-113.08"/>
</g>
</g>
</svg>
