<?xml version="1.0" encoding="UTF-8" standalone="no"?>
<!DOCTYPE svg PUBLIC "-//W3C//DTD SVG 1.1//EN"
 "http://www.w3.org/Graphics/SVG/1.1/DTD/svg11.dtd">
<!-- Generated by graphviz version 2.43.0 (0)
 -->
<!-- Title: tetengo::text::grapheme_splitting::east_asian_character_width Pages: 1 -->
<svg width="154pt" height="170pt"
 viewBox="0.00 0.00 154.00 170.00" xmlns="http://www.w3.org/2000/svg" xmlns:xlink="http://www.w3.org/1999/xlink">
<g id="graph0" class="graph" transform="scale(1 1) rotate(0) translate(4 166)">
<title>tetengo::text::grapheme_splitting::east_asian_character_width</title>
<!-- Node1 -->
<g id="node1" class="node">
<title>Node1</title>
<g id="a_node1"><a xlink:title="An east Asian character width.">
<polygon fill="#999999" stroke="#666666" points="140.5,-41 5.5,-41 5.5,0 140.5,0 140.5,-41"/>
<text text-anchor="start" x="13.5" y="-29" font-family="Helvetica,sans-Serif" font-size="10.00">tetengo::text::grapheme</text>
<text text-anchor="start" x="13.5" y="-18" font-family="Helvetica,sans-Serif" font-size="10.00">_splitting::east_asian</text>
<text text-anchor="middle" x="73" y="-7" font-family="Helvetica,sans-Serif" font-size="10.00">_character_width</text>
</a>
</g>
</g>
<!-- Node2 -->
<g id="node2" class="node">
<title>Node2</title>
<g id="a_node2"><a xlink:href="classtetengo_1_1text_1_1grapheme__splitting_1_1character__width.html" target="_top" xlink:title="A character width.">
<polygon fill="white" stroke="#666666" points="146,-107 0,-107 0,-77 146,-77 146,-107"/>
<text text-anchor="start" x="8" y="-95" font-family="Helvetica,sans-Serif" font-size="10.00">tetengo::text::grapheme</text>
<text text-anchor="middle" x="73" y="-84" font-family="Helvetica,sans-Serif" font-size="10.00">_splitting::character_width</text>
</a>
</g>
</g>
<!-- Node2&#45;&gt;Node1 -->
<g id="edge1" class="edge">
<title>Node2&#45;&gt;Node1</title>
<path fill="none" stroke="#63b8ff" d="M73,-66.91C73,-58.47 73,-49.1 73,-41.07"/>
<polygon fill="#63b8ff" stroke="#63b8ff" points="69.5,-66.94 73,-76.94 76.5,-66.94 69.5,-66.94"/>
</g>
<!-- Node3 -->
<g id="node3" class="node">
<title>Node3</title>
<g id="a_node3"><a xlink:title=" ">
<polygon fill="white" stroke="#bfbfbf" points="129,-162 17,-162 17,-143 129,-143 129,-162"/>
<text text-anchor="middle" x="73" y="-150" font-family="Helvetica,sans-Serif" font-size="10.00">boost::noncopyable</text>
</a>
</g>
</g>
<!-- Node3&#45;&gt;Node2 -->
<g id="edge2" class="edge">
<title>Node3&#45;&gt;Node2</title>
<path fill="none" stroke="#8b1a1a" d="M73,-132.65C73,-124.36 73,-114.78 73,-107.11"/>
<polygon fill="#8b1a1a" stroke="#8b1a1a" points="69.5,-132.87 73,-142.87 76.5,-132.87 69.5,-132.87"/>
</g>
</g>
</svg>
