<?xml version="1.0" encoding="UTF-8" standalone="no"?>
<!DOCTYPE svg PUBLIC "-//W3C//DTD SVG 1.1//EN"
 "http://www.w3.org/Graphics/SVG/1.1/DTD/svg11.dtd">
<!-- Generated by graphviz version 2.43.0 (0)
 -->
<!-- Title: tetengo::property::memory_storage_loader Pages: 1 -->
<svg width="144pt" height="159pt"
 viewBox="0.00 0.00 144.00 159.00" xmlns="http://www.w3.org/2000/svg" xmlns:xlink="http://www.w3.org/1999/xlink">
<g id="graph0" class="graph" transform="scale(1 1) rotate(0) translate(4 155)">
<title>tetengo::property::memory_storage_loader</title>
<!-- Node1 -->
<g id="node1" class="node">
<title>Node1</title>
<g id="a_node1"><a xlink:title="A memory storage loader.">
<polygon fill="#999999" stroke="#666666" points="136,-30 0,-30 0,0 136,0 136,-30"/>
<text text-anchor="start" x="8" y="-18" font-family="Helvetica,sans-Serif" font-size="10.00">tetengo::property::</text>
<text text-anchor="middle" x="68" y="-7" font-family="Helvetica,sans-Serif" font-size="10.00">memory_storage_loader</text>
</a>
</g>
</g>
<!-- Node2 -->
<g id="node2" class="node">
<title>Node2</title>
<g id="a_node2"><a xlink:href="classtetengo_1_1property_1_1storage__loader.html" target="_top" xlink:title="A storage loader.">
<polygon fill="white" stroke="#666666" points="121.5,-96 14.5,-96 14.5,-66 121.5,-66 121.5,-96"/>
<text text-anchor="start" x="22.5" y="-84" font-family="Helvetica,sans-Serif" font-size="10.00">tetengo::property::</text>
<text text-anchor="middle" x="68" y="-73" font-family="Helvetica,sans-Serif" font-size="10.00">storage_loader</text>
</a>
</g>
</g>
<!-- Node2&#45;&gt;Node1 -->
<g id="edge1" class="edge">
<title>Node2&#45;&gt;Node1</title>
<path fill="none" stroke="#63b8ff" d="M68,-55.54C68,-46.96 68,-37.61 68,-30.16"/>
<polygon fill="#63b8ff" stroke="#63b8ff" points="64.5,-55.8 68,-65.8 71.5,-55.8 64.5,-55.8"/>
</g>
<!-- Node3 -->
<g id="node3" class="node">
<title>Node3</title>
<g id="a_node3"><a xlink:title=" ">
<polygon fill="white" stroke="#bfbfbf" points="124,-151 12,-151 12,-132 124,-132 124,-151"/>
<text text-anchor="middle" x="68" y="-139" font-family="Helvetica,sans-Serif" font-size="10.00">boost::noncopyable</text>
</a>
</g>
</g>
<!-- Node3&#45;&gt;Node2 -->
<g id="edge2" class="edge">
<title>Node3&#45;&gt;Node2</title>
<path fill="none" stroke="#8b1a1a" d="M68,-121.65C68,-113.36 68,-103.78 68,-96.11"/>
<polygon fill="#8b1a1a" stroke="#8b1a1a" points="64.5,-121.87 68,-131.87 71.5,-121.87 64.5,-121.87"/>
</g>
</g>
</svg>
