<?xml version="1.0" encoding="UTF-8" standalone="no"?>
<!DOCTYPE svg PUBLIC "-//W3C//DTD SVG 1.1//EN"
 "http://www.w3.org/Graphics/SVG/1.1/DTD/svg11.dtd">
<!-- Generated by graphviz version 2.43.0 (0)
 -->
<!-- Title: tetengo::trie::mmap_storage Pages: 1 -->
<svg width="127pt" height="148pt"
 viewBox="0.00 0.00 127.00 148.00" xmlns="http://www.w3.org/2000/svg" xmlns:xlink="http://www.w3.org/1999/xlink">
<g id="graph0" class="graph" transform="scale(1 1) rotate(0) translate(4 144)">
<title>tetengo::trie::mmap_storage</title>
<!-- Node1 -->
<g id="node1" class="node">
<title>Node1</title>
<g id="a_node1"><a xlink:title="An mmap storage.">
<polygon fill="#999999" stroke="#666666" points="116.5,-30 2.5,-30 2.5,0 116.5,0 116.5,-30"/>
<text text-anchor="start" x="10.5" y="-18" font-family="Helvetica,sans-Serif" font-size="10.00">tetengo::trie::mmap</text>
<text text-anchor="middle" x="59.5" y="-7" font-family="Helvetica,sans-Serif" font-size="10.00">_storage</text>
</a>
</g>
</g>
<!-- Node2 -->
<g id="node2" class="node">
<title>Node2</title>
<g id="a_node2"><a xlink:href="classtetengo_1_1trie_1_1storage.html" target="_top" xlink:title="A storage.">
<polygon fill="white" stroke="#666666" points="119,-85 0,-85 0,-66 119,-66 119,-85"/>
<text text-anchor="middle" x="59.5" y="-73" font-family="Helvetica,sans-Serif" font-size="10.00">tetengo::trie::storage</text>
</a>
</g>
</g>
<!-- Node2&#45;&gt;Node1 -->
<g id="edge1" class="edge">
<title>Node2&#45;&gt;Node1</title>
<path fill="none" stroke="#63b8ff" d="M59.5,-55.65C59.5,-47.36 59.5,-37.78 59.5,-30.11"/>
<polygon fill="#63b8ff" stroke="#63b8ff" points="56,-55.87 59.5,-65.87 63,-55.87 56,-55.87"/>
</g>
<!-- Node3 -->
<g id="node3" class="node">
<title>Node3</title>
<g id="a_node3"><a xlink:title=" ">
<polygon fill="white" stroke="#bfbfbf" points="115.5,-140 3.5,-140 3.5,-121 115.5,-121 115.5,-140"/>
<text text-anchor="middle" x="59.5" y="-128" font-family="Helvetica,sans-Serif" font-size="10.00">boost::noncopyable</text>
</a>
</g>
</g>
<!-- Node3&#45;&gt;Node2 -->
<g id="edge2" class="edge">
<title>Node3&#45;&gt;Node2</title>
<path fill="none" stroke="#8b1a1a" d="M59.5,-110.66C59.5,-101.93 59.5,-91.99 59.5,-85.09"/>
<polygon fill="#8b1a1a" stroke="#8b1a1a" points="56,-110.75 59.5,-120.75 63,-110.75 56,-110.75"/>
</g>
</g>
</svg>
