<?xml version="1.0" encoding="UTF-8" standalone="no"?>
<!DOCTYPE svg PUBLIC "-//W3C//DTD SVG 1.1//EN"
 "http://www.w3.org/Graphics/SVG/1.1/DTD/svg11.dtd">
<!-- Generated by graphviz version 2.43.0 (0)
 -->
<!-- Title: tetengo::property::windows_registry_storage Pages: 1 -->
<svg width="152pt" height="159pt"
 viewBox="0.00 0.00 152.00 159.00" xmlns="http://www.w3.org/2000/svg" xmlns:xlink="http://www.w3.org/1999/xlink">
<g id="graph0" class="graph" transform="scale(1 1) rotate(0) translate(4 155)">
<title>tetengo::property::windows_registry_storage</title>
<!-- Node1 -->
<g id="node1" class="node">
<title>Node1</title>
<g id="a_node1"><a xlink:title="A Windows registry storage.">
<polygon fill="#999999" stroke="#666666" points="144,-30 0,-30 0,0 144,0 144,-30"/>
<text text-anchor="start" x="8" y="-18" font-family="Helvetica,sans-Serif" font-size="10.00">tetengo::property::</text>
<text text-anchor="middle" x="72" y="-7" font-family="Helvetica,sans-Serif" font-size="10.00">windows_registry_storage</text>
</a>
</g>
</g>
<!-- Node2 -->
<g id="node2" class="node">
<title>Node2</title>
<g id="a_node2"><a xlink:href="classtetengo_1_1property_1_1storage.html" target="_top" xlink:title="A storage.">
<polygon fill="white" stroke="#666666" points="125.5,-96 18.5,-96 18.5,-66 125.5,-66 125.5,-96"/>
<text text-anchor="start" x="26.5" y="-84" font-family="Helvetica,sans-Serif" font-size="10.00">tetengo::property::</text>
<text text-anchor="middle" x="72" y="-73" font-family="Helvetica,sans-Serif" font-size="10.00">storage</text>
</a>
</g>
</g>
<!-- Node2&#45;&gt;Node1 -->
<g id="edge1" class="edge">
<title>Node2&#45;&gt;Node1</title>
<path fill="none" stroke="#63b8ff" d="M72,-55.54C72,-46.96 72,-37.61 72,-30.16"/>
<polygon fill="#63b8ff" stroke="#63b8ff" points="68.5,-55.8 72,-65.8 75.5,-55.8 68.5,-55.8"/>
</g>
<!-- Node3 -->
<g id="node3" class="node">
<title>Node3</title>
<g id="a_node3"><a xlink:title=" ">
<polygon fill="white" stroke="#bfbfbf" points="128,-151 16,-151 16,-132 128,-132 128,-151"/>
<text text-anchor="middle" x="72" y="-139" font-family="Helvetica,sans-Serif" font-size="10.00">boost::noncopyable</text>
</a>
</g>
</g>
<!-- Node3&#45;&gt;Node2 -->
<g id="edge2" class="edge">
<title>Node3&#45;&gt;Node2</title>
<path fill="none" stroke="#8b1a1a" d="M72,-121.65C72,-113.36 72,-103.78 72,-96.11"/>
<polygon fill="#8b1a1a" stroke="#8b1a1a" points="68.5,-121.87 72,-131.87 75.5,-121.87 68.5,-121.87"/>
</g>
</g>
</svg>
