<?xml version="1.0" encoding="UTF-8" standalone="no"?>
<!DOCTYPE svg PUBLIC "-//W3C//DTD SVG 1.1//EN"
 "http://www.w3.org/Graphics/SVG/1.1/DTD/svg11.dtd">
<!-- Generated by graphviz version 2.43.0 (0)
 -->
<!-- Title: library/lattice/c/include/tetengo/lattice/connection.h Pages: 1 -->
<svg width="315pt" height="207pt"
 viewBox="0.00 0.00 315.29 207.00" xmlns="http://www.w3.org/2000/svg" xmlns:xlink="http://www.w3.org/1999/xlink">
<g id="graph0" class="graph" transform="scale(1 1) rotate(0) translate(4 203)">
<title>library/lattice/c/include/tetengo/lattice/connection.h</title>
<polygon fill="white" stroke="transparent" points="-4,4 -4,-203 311.29,-203 311.29,4 -4,4"/>
<!-- Node1 -->
<g id="node1" class="node">
<title>Node1</title>
<g id="a_node1"><a xlink:title="A connection.">
<polygon fill="#bfbfbf" stroke="black" points="10.79,-168.5 10.79,-198.5 166.79,-198.5 166.79,-168.5 10.79,-168.5"/>
<text text-anchor="start" x="18.79" y="-186.5" font-family="Helvetica,sans-Serif" font-size="10.00">library/lattice/c/include</text>
<text text-anchor="middle" x="88.79" y="-175.5" font-family="Helvetica,sans-Serif" font-size="10.00">/tetengo/lattice/connection.h</text>
</a>
</g>
</g>
<!-- Node2 -->
<g id="node2" class="node">
<title>Node2</title>
<g id="a_node2"><a xlink:href="entry_8h.html" target="_top" xlink:title="An entry.">
<polygon fill="white" stroke="black" points="26.79,-112.5 26.79,-131.5 150.79,-131.5 150.79,-112.5 26.79,-112.5"/>
<text text-anchor="middle" x="88.79" y="-119.5" font-family="Helvetica,sans-Serif" font-size="10.00">tetengo/lattice/entry.h</text>
</a>
</g>
</g>
<!-- Node1&#45;&gt;Node2 -->
<g id="edge1" class="edge">
<title>Node1&#45;&gt;Node2</title>
<path fill="none" stroke="midnightblue" d="M88.79,-168.4C88.79,-160.47 88.79,-150.46 88.79,-141.86"/>
<polygon fill="midnightblue" stroke="midnightblue" points="92.29,-141.66 88.79,-131.66 85.29,-141.66 92.29,-141.66"/>
</g>
<!-- Node3 -->
<g id="node3" class="node">
<title>Node3</title>
<g id="a_node3"><a xlink:title=" ">
<polygon fill="white" stroke="#bfbfbf" points="60.79,-0.5 60.79,-19.5 116.79,-19.5 116.79,-0.5 60.79,-0.5"/>
<text text-anchor="middle" x="88.79" y="-7.5" font-family="Helvetica,sans-Serif" font-size="10.00">stddef.h</text>
</a>
</g>
</g>
<!-- Node2&#45;&gt;Node3 -->
<g id="edge2" class="edge">
<title>Node2&#45;&gt;Node3</title>
<path fill="none" stroke="midnightblue" d="M54.99,-112.39C36.4,-105.74 14.9,-94.45 3.79,-76 -10.8,-51.76 22.04,-33.36 51.05,-22.43"/>
<polygon fill="midnightblue" stroke="midnightblue" points="52.42,-25.66 60.67,-19.01 50.08,-19.06 52.42,-25.66"/>
</g>
<!-- Node4 -->
<g id="node4" class="node">
<title>Node4</title>
<g id="a_node4"><a xlink:href="input_8h.html" target="_top" xlink:title="An input.">
<polygon fill="white" stroke="black" points="182.29,-56.5 182.29,-75.5 307.29,-75.5 307.29,-56.5 182.29,-56.5"/>
<text text-anchor="middle" x="244.79" y="-63.5" font-family="Helvetica,sans-Serif" font-size="10.00">tetengo/lattice/input.h</text>
</a>
</g>
</g>
<!-- Node2&#45;&gt;Node4 -->
<g id="edge3" class="edge">
<title>Node2&#45;&gt;Node4</title>
<path fill="none" stroke="midnightblue" d="M113.51,-112.44C139.64,-103.4 181.05,-89.06 210.37,-78.92"/>
<polygon fill="midnightblue" stroke="midnightblue" points="211.88,-82.1 220.19,-75.52 209.59,-75.48 211.88,-82.1"/>
</g>
<!-- Node6 -->
<g id="node6" class="node">
<title>Node6</title>
<g id="a_node6"><a xlink:href="stringView_8h.html" target="_top" xlink:title="A string view.">
<polygon fill="white" stroke="black" points="13.29,-56.5 13.29,-75.5 164.29,-75.5 164.29,-56.5 13.29,-56.5"/>
<text text-anchor="middle" x="88.79" y="-63.5" font-family="Helvetica,sans-Serif" font-size="10.00">tetengo/lattice/stringView.h</text>
</a>
</g>
</g>
<!-- Node2&#45;&gt;Node6 -->
<g id="edge6" class="edge">
<title>Node2&#45;&gt;Node6</title>
<path fill="none" stroke="midnightblue" d="M88.79,-112.08C88.79,-105.01 88.79,-94.86 88.79,-85.99"/>
<polygon fill="midnightblue" stroke="midnightblue" points="92.29,-85.75 88.79,-75.75 85.29,-85.75 92.29,-85.75"/>
</g>
<!-- Node4&#45;&gt;Node3 -->
<g id="edge5" class="edge">
<title>Node4&#45;&gt;Node3</title>
<path fill="none" stroke="midnightblue" d="M220.07,-56.44C193.94,-47.4 152.53,-33.06 123.21,-22.92"/>
<polygon fill="midnightblue" stroke="midnightblue" points="123.99,-19.48 113.39,-19.52 121.7,-26.1 123.99,-19.48"/>
</g>
<!-- Node5 -->
<g id="node5" class="node">
<title>Node5</title>
<g id="a_node5"><a xlink:title=" ">
<polygon fill="white" stroke="#bfbfbf" points="213.79,-0.5 213.79,-19.5 275.79,-19.5 275.79,-0.5 213.79,-0.5"/>
<text text-anchor="middle" x="244.79" y="-7.5" font-family="Helvetica,sans-Serif" font-size="10.00">stdbool.h</text>
</a>
</g>
</g>
<!-- Node4&#45;&gt;Node5 -->
<g id="edge4" class="edge">
<title>Node4&#45;&gt;Node5</title>
<path fill="none" stroke="midnightblue" d="M244.79,-56.08C244.79,-49.01 244.79,-38.86 244.79,-29.99"/>
<polygon fill="midnightblue" stroke="midnightblue" points="248.29,-29.75 244.79,-19.75 241.29,-29.75 248.29,-29.75"/>
</g>
<!-- Node6&#45;&gt;Node3 -->
<g id="edge7" class="edge">
<title>Node6&#45;&gt;Node3</title>
<path fill="none" stroke="midnightblue" d="M88.79,-56.08C88.79,-49.01 88.79,-38.86 88.79,-29.99"/>
<polygon fill="midnightblue" stroke="midnightblue" points="92.29,-29.75 88.79,-19.75 85.29,-29.75 92.29,-29.75"/>
</g>
</g>
</svg>
