<?xml version="1.0" encoding="UTF-8" standalone="no"?>
<!DOCTYPE svg PUBLIC "-//W3C//DTD SVG 1.1//EN"
 "http://www.w3.org/Graphics/SVG/1.1/DTD/svg11.dtd">
<!-- Generated by graphviz version 2.43.0 (0)
 -->
<!-- Title: library/lattice/cpp/include/tetengo/lattice/constraint_element.hpp Pages: 1 -->
<svg width="372pt" height="126pt"
 viewBox="0.00 0.00 372.00 126.00" xmlns="http://www.w3.org/2000/svg" xmlns:xlink="http://www.w3.org/1999/xlink">
<g id="graph0" class="graph" transform="scale(1 1) rotate(0) translate(4 122)">
<title>library/lattice/cpp/include/tetengo/lattice/constraint_element.hpp</title>
<!-- Node1 -->
<g id="node1" class="node">
<title>Node1</title>
<g id="a_node1"><a xlink:title="A constraint element.">
<polygon fill="#999999" stroke="#666666" points="244.5,-118 109.5,-118 109.5,-77 244.5,-77 244.5,-118"/>
<text text-anchor="start" x="117.5" y="-106" font-family="Helvetica,sans-Serif" font-size="10.00">library/lattice/cpp</text>
<text text-anchor="start" x="117.5" y="-95" font-family="Helvetica,sans-Serif" font-size="10.00">/include/tetengo/lattice</text>
<text text-anchor="middle" x="177" y="-84" font-family="Helvetica,sans-Serif" font-size="10.00">/constraint_element.hpp</text>
</a>
</g>
</g>
<!-- Node2 -->
<g id="node2" class="node">
<title>Node2</title>
<g id="a_node2"><a xlink:href="node__constraint__element_8hpp.html" target="_top" xlink:title="A node constraint element.">
<polygon fill="white" stroke="#666666" points="164,-41 0,-41 0,0 164,0 164,-41"/>
<text text-anchor="start" x="8" y="-29" font-family="Helvetica,sans-Serif" font-size="10.00">library/lattice/cpp</text>
<text text-anchor="start" x="8" y="-18" font-family="Helvetica,sans-Serif" font-size="10.00">/include/tetengo/lattice</text>
<text text-anchor="middle" x="82" y="-7" font-family="Helvetica,sans-Serif" font-size="10.00">/node_constraint_element.hpp</text>
</a>
</g>
</g>
<!-- Node1&#45;&gt;Node2 -->
<g id="edge1" class="edge">
<title>Node1&#45;&gt;Node2</title>
<path fill="none" stroke="#63b8ff" d="M143.87,-70.35C131.69,-60.73 118.12,-50.01 106.79,-41.07"/>
<polygon fill="#63b8ff" stroke="#63b8ff" points="142.02,-73.35 152.04,-76.79 146.36,-67.85 142.02,-73.35"/>
</g>
<!-- Node3 -->
<g id="node3" class="node">
<title>Node3</title>
<g id="a_node3"><a xlink:href="wildcard__constraint__element_8hpp.html" target="_top" xlink:title="A wildcard constraint element.">
<polygon fill="white" stroke="#666666" points="364,-41 182,-41 182,0 364,0 364,-41"/>
<text text-anchor="start" x="190" y="-29" font-family="Helvetica,sans-Serif" font-size="10.00">library/lattice/cpp</text>
<text text-anchor="start" x="190" y="-18" font-family="Helvetica,sans-Serif" font-size="10.00">/include/tetengo/lattice</text>
<text text-anchor="middle" x="273" y="-7" font-family="Helvetica,sans-Serif" font-size="10.00">/wildcard_constraint_element.hpp</text>
</a>
</g>
</g>
<!-- Node1&#45;&gt;Node3 -->
<g id="edge2" class="edge">
<title>Node1&#45;&gt;Node3</title>
<path fill="none" stroke="#63b8ff" d="M209.88,-70.82C222.29,-61.11 236.22,-50.24 247.82,-41.17"/>
<polygon fill="#63b8ff" stroke="#63b8ff" points="207.7,-68.08 201.97,-76.99 212.01,-73.59 207.7,-68.08"/>
</g>
</g>
</svg>
