<?xml version="1.0" encoding="UTF-8" standalone="no"?>
<!DOCTYPE svg PUBLIC "-//W3C//DTD SVG 1.1//EN"
 "http://www.w3.org/Graphics/SVG/1.1/DTD/svg11.dtd">
<!-- Generated by graphviz version 2.43.0 (0)
 -->
<!-- Title: library/lattice/c/include/tetengo/lattice/constraintElement.h Pages: 1 -->
<svg width="426pt" height="263pt"
 viewBox="0.00 0.00 426.41 263.00" xmlns="http://www.w3.org/2000/svg" xmlns:xlink="http://www.w3.org/1999/xlink">
<g id="graph0" class="graph" transform="scale(1 1) rotate(0) translate(4 259)">
<title>library/lattice/c/include/tetengo/lattice/constraintElement.h</title>
<polygon fill="white" stroke="transparent" points="-4,4 -4,-259 422.41,-259 422.41,4 -4,4"/>
<!-- Node1 -->
<g id="node1" class="node">
<title>Node1</title>
<g id="a_node1"><a xlink:title="A constraint element.">
<polygon fill="#bfbfbf" stroke="black" points="226.41,-224.5 226.41,-254.5 418.41,-254.5 418.41,-224.5 226.41,-224.5"/>
<text text-anchor="start" x="234.41" y="-242.5" font-family="Helvetica,sans-Serif" font-size="10.00">library/lattice/c/include</text>
<text text-anchor="middle" x="322.41" y="-231.5" font-family="Helvetica,sans-Serif" font-size="10.00">/tetengo/lattice/constraintElement.h</text>
</a>
</g>
</g>
<!-- Node2 -->
<g id="node2" class="node">
<title>Node2</title>
<g id="a_node2"><a xlink:title=" ">
<polygon fill="white" stroke="#bfbfbf" points="308.41,-0.5 308.41,-19.5 364.41,-19.5 364.41,-0.5 308.41,-0.5"/>
<text text-anchor="middle" x="336.41" y="-7.5" font-family="Helvetica,sans-Serif" font-size="10.00">stddef.h</text>
</a>
</g>
</g>
<!-- Node1&#45;&gt;Node2 -->
<g id="edge1" class="edge">
<title>Node1&#45;&gt;Node2</title>
<path fill="none" stroke="midnightblue" d="M331.88,-224.15C337.79,-214.39 344.91,-200.94 348.41,-188 363.77,-131.31 365.52,-113.67 354.41,-56 352.62,-46.7 348.93,-36.89 345.35,-28.8"/>
<polygon fill="midnightblue" stroke="midnightblue" points="348.47,-27.21 341.03,-19.66 342.14,-30.2 348.47,-27.21"/>
</g>
<!-- Node3 -->
<g id="node3" class="node">
<title>Node3</title>
<g id="a_node3"><a xlink:href="node_8h.html" target="_top" xlink:title="A node.">
<polygon fill="white" stroke="black" points="215.41,-168.5 215.41,-187.5 339.41,-187.5 339.41,-168.5 215.41,-168.5"/>
<text text-anchor="middle" x="277.41" y="-175.5" font-family="Helvetica,sans-Serif" font-size="10.00">tetengo/lattice/node.h</text>
</a>
</g>
</g>
<!-- Node1&#45;&gt;Node3 -->
<g id="edge2" class="edge">
<title>Node1&#45;&gt;Node3</title>
<path fill="none" stroke="midnightblue" d="M311.75,-224.4C305.28,-215.84 296.98,-204.87 290.16,-195.86"/>
<polygon fill="midnightblue" stroke="midnightblue" points="292.78,-193.52 283.96,-187.66 287.2,-197.74 292.78,-193.52"/>
</g>
<!-- Node3&#45;&gt;Node2 -->
<g id="edge4" class="edge">
<title>Node3&#45;&gt;Node2</title>
<path fill="none" stroke="midnightblue" d="M290.58,-168.27C301.66,-160.2 317,-147.19 325.41,-132 343.4,-99.52 341.85,-54.49 339.13,-29.53"/>
<polygon fill="midnightblue" stroke="midnightblue" points="342.6,-29.07 337.86,-19.59 335.66,-29.96 342.6,-29.07"/>
</g>
<!-- Node4 -->
<g id="node4" class="node">
<title>Node4</title>
<g id="a_node4"><a xlink:title=" ">
<polygon fill="white" stroke="#bfbfbf" points="0.41,-0.5 0.41,-19.5 62.41,-19.5 62.41,-0.5 0.41,-0.5"/>
<text text-anchor="middle" x="31.41" y="-7.5" font-family="Helvetica,sans-Serif" font-size="10.00">stdbool.h</text>
</a>
</g>
</g>
<!-- Node3&#45;&gt;Node4 -->
<g id="edge3" class="edge">
<title>Node3&#45;&gt;Node4</title>
<path fill="none" stroke="midnightblue" d="M215.33,-173.6C150.49,-166.34 51.77,-144.02 4.41,-76 -6.11,-60.89 5.12,-41.04 16.13,-27.27"/>
<polygon fill="midnightblue" stroke="midnightblue" points="18.88,-29.44 22.76,-19.58 13.58,-24.86 18.88,-29.44"/>
</g>
<!-- Node5 -->
<g id="node5" class="node">
<title>Node5</title>
<g id="a_node5"><a xlink:href="entry_8h.html" target="_top" xlink:title="An entry.">
<polygon fill="white" stroke="black" points="192.41,-112.5 192.41,-131.5 316.41,-131.5 316.41,-112.5 192.41,-112.5"/>
<text text-anchor="middle" x="254.41" y="-119.5" font-family="Helvetica,sans-Serif" font-size="10.00">tetengo/lattice/entry.h</text>
</a>
</g>
</g>
<!-- Node3&#45;&gt;Node5 -->
<g id="edge5" class="edge">
<title>Node3&#45;&gt;Node5</title>
<path fill="none" stroke="midnightblue" d="M273.62,-168.08C270.5,-160.77 265.99,-150.18 262.12,-141.1"/>
<polygon fill="midnightblue" stroke="midnightblue" points="265.28,-139.58 258.14,-131.75 258.84,-142.32 265.28,-139.58"/>
</g>
<!-- Node5&#45;&gt;Node2 -->
<g id="edge6" class="edge">
<title>Node5&#45;&gt;Node2</title>
<path fill="none" stroke="midnightblue" d="M272.44,-112.39C286.64,-104.73 305.9,-92.22 317.41,-76 327.09,-62.37 331.88,-43.83 334.23,-30.04"/>
<polygon fill="midnightblue" stroke="midnightblue" points="337.74,-30.17 335.67,-19.78 330.81,-29.19 337.74,-30.17"/>
</g>
<!-- Node6 -->
<g id="node6" class="node">
<title>Node6</title>
<g id="a_node6"><a xlink:href="input_8h.html" target="_top" xlink:title="An input.">
<polygon fill="white" stroke="black" points="13.91,-56.5 13.91,-75.5 138.91,-75.5 138.91,-56.5 13.91,-56.5"/>
<text text-anchor="middle" x="76.41" y="-63.5" font-family="Helvetica,sans-Serif" font-size="10.00">tetengo/lattice/input.h</text>
</a>
</g>
</g>
<!-- Node5&#45;&gt;Node6 -->
<g id="edge7" class="edge">
<title>Node5&#45;&gt;Node6</title>
<path fill="none" stroke="midnightblue" d="M226.21,-112.44C196,-103.28 147.9,-88.69 114.38,-78.52"/>
<polygon fill="midnightblue" stroke="midnightblue" points="115.07,-75.07 104.49,-75.52 113.04,-81.77 115.07,-75.07"/>
</g>
<!-- Node7 -->
<g id="node7" class="node">
<title>Node7</title>
<g id="a_node7"><a xlink:href="stringView_8h.html" target="_top" xlink:title="A string view.">
<polygon fill="white" stroke="black" points="156.91,-56.5 156.91,-75.5 307.91,-75.5 307.91,-56.5 156.91,-56.5"/>
<text text-anchor="middle" x="232.41" y="-63.5" font-family="Helvetica,sans-Serif" font-size="10.00">tetengo/lattice/stringView.h</text>
</a>
</g>
</g>
<!-- Node5&#45;&gt;Node7 -->
<g id="edge10" class="edge">
<title>Node5&#45;&gt;Node7</title>
<path fill="none" stroke="midnightblue" d="M250.78,-112.08C247.8,-104.77 243.49,-94.18 239.79,-85.1"/>
<polygon fill="midnightblue" stroke="midnightblue" points="242.99,-83.69 235.98,-75.75 236.51,-86.33 242.99,-83.69"/>
</g>
<!-- Node6&#45;&gt;Node2 -->
<g id="edge9" class="edge">
<title>Node6&#45;&gt;Node2</title>
<path fill="none" stroke="midnightblue" d="M117.61,-56.44C167.24,-46.14 249.93,-28.96 298.19,-18.94"/>
<polygon fill="midnightblue" stroke="midnightblue" points="299.15,-22.31 308.23,-16.85 297.73,-15.46 299.15,-22.31"/>
</g>
<!-- Node6&#45;&gt;Node4 -->
<g id="edge8" class="edge">
<title>Node6&#45;&gt;Node4</title>
<path fill="none" stroke="midnightblue" d="M68.98,-56.08C62.56,-48.38 53.11,-37.03 45.29,-27.65"/>
<polygon fill="midnightblue" stroke="midnightblue" points="47.8,-25.19 38.71,-19.75 42.42,-29.67 47.8,-25.19"/>
</g>
<!-- Node7&#45;&gt;Node2 -->
<g id="edge11" class="edge">
<title>Node7&#45;&gt;Node2</title>
<path fill="none" stroke="midnightblue" d="M249.12,-56.32C265.73,-47.7 291.42,-34.36 310.63,-24.39"/>
<polygon fill="midnightblue" stroke="midnightblue" points="312.48,-27.37 319.75,-19.65 309.26,-21.16 312.48,-27.37"/>
</g>
</g>
</svg>
