<?xml version="1.0" encoding="UTF-8" standalone="no"?>
<!DOCTYPE svg PUBLIC "-//W3C//DTD SVG 1.1//EN"
 "http://www.w3.org/Graphics/SVG/1.1/DTD/svg11.dtd">
<!-- Generated by graphviz version 2.43.0 (0)
 -->
<!-- Title: library/lattice/c/include/tetengo/lattice/constraintElement.h Pages: 1 -->
<svg width="426pt" height="258pt"
 viewBox="0.00 0.00 426.32 258.00" xmlns="http://www.w3.org/2000/svg" xmlns:xlink="http://www.w3.org/1999/xlink">

<svg id="main" version="1.1" xmlns="http://www.w3.org/2000/svg" xmlns:xlink="http://www.w3.org/1999/xlink" xml:space="preserve" onload="init(evt)">
<style type="text/css"><![CDATA[
.node, .edge {opacity: 0.7;}
.node.selected, .edge.selected {opacity: 1;}
.edge:hover path { stroke: red; }
.edge:hover polygon { stroke: red; fill: red; }
]]></style>
<script type="application/ecmascript" xlink:href="svg.min.js"/>
<svg id="graph" class="graph">
<g id="graph0" class="graph" transform="scale(1 1) rotate(0) translate(4 254)">
<title>library/lattice/c/include/tetengo/lattice/constraintElement.h</title>
<!-- Node1 -->
<g id="Node000001" class="node">
<title>Node1</title>
<g id="a_Node000001"><a xlink:title="A constraint element.">
<polygon fill="#999999" stroke="#666666" points="418.32,-250 226.32,-250 226.32,-220 418.32,-220 418.32,-250"/>
<text text-anchor="start" x="234.32" y="-238" font-family="Helvetica,sans-Serif" font-size="10.00">library/lattice/c/include</text>
<text text-anchor="middle" x="322.32" y="-227" font-family="Helvetica,sans-Serif" font-size="10.00">/tetengo/lattice/constraintElement.h</text>
</a>
</g>
</g>
<!-- Node2 -->
<g id="Node000002" class="node">
<title>Node2</title>
<g id="a_Node000002"><a xlink:title=" ">
<polygon fill="#e0e0e0" stroke="#999999" points="364.32,-19 308.32,-19 308.32,0 364.32,0 364.32,-19"/>
<text text-anchor="middle" x="336.32" y="-7" font-family="Helvetica,sans-Serif" font-size="10.00">stddef.h</text>
</a>
</g>
</g>
<!-- Node1&#45;&gt;Node2 -->
<g id="edge1_Node000001_Node000002" class="edge">
<title>Node1&#45;&gt;Node2</title>
<g id="a_edge1_Node000001_Node000002"><a xlink:title=" ">
<path fill="none" stroke="#63b8ff" d="M331.83,-219.81C337.74,-210.16 344.87,-196.85 348.32,-184 363.21,-128.59 363.73,-111.42 353.32,-55 351.65,-45.95 348.22,-36.36 344.88,-28.41"/>
<polygon fill="#63b8ff" stroke="#63b8ff" points="347.98,-26.78 340.69,-19.09 341.59,-29.65 347.98,-26.78"/>
</a>
</g>
</g>
<!-- Node3 -->
<g id="Node000003" class="node">
<title>Node3</title>
<g id="a_Node000003"><a xlink:href="node_8h.html" target="_top" xlink:title="A node.">
<polygon fill="white" stroke="#666666" points="339.32,-184 215.32,-184 215.32,-165 339.32,-165 339.32,-184"/>
<text text-anchor="middle" x="277.32" y="-172" font-family="Helvetica,sans-Serif" font-size="10.00">tetengo/lattice/node.h</text>
</a>
</g>
</g>
<!-- Node1&#45;&gt;Node3 -->
<g id="edge2_Node000001_Node000003" class="edge">
<title>Node1&#45;&gt;Node3</title>
<g id="a_edge2_Node000001_Node000003"><a xlink:title=" ">
<path fill="none" stroke="#63b8ff" d="M311.43,-219.84C305.03,-211.52 296.9,-200.96 290.19,-192.23"/>
<polygon fill="#63b8ff" stroke="#63b8ff" points="292.93,-190.06 284.06,-184.27 287.39,-194.33 292.93,-190.06"/>
</a>
</g>
</g>
<!-- Node3&#45;&gt;Node2 -->
<g id="edge4_Node000003_Node000002" class="edge">
<title>Node3&#45;&gt;Node2</title>
<g id="a_edge4_Node000003_Node000002"><a xlink:title=" ">
<path fill="none" stroke="#63b8ff" d="M290.54,-164.93C301.65,-156.99 317.02,-144.15 325.32,-129 342.64,-97.41 341.47,-53.87 338.96,-29.32"/>
<polygon fill="#63b8ff" stroke="#63b8ff" points="342.41,-28.72 337.74,-19.21 335.46,-29.56 342.41,-28.72"/>
</a>
</g>
</g>
<!-- Node4 -->
<g id="Node000004" class="node">
<title>Node4</title>
<g id="a_Node000004"><a xlink:title=" ">
<polygon fill="#e0e0e0" stroke="#999999" points="62.32,-19 0.32,-19 0.32,0 62.32,0 62.32,-19"/>
<text text-anchor="middle" x="31.32" y="-7" font-family="Helvetica,sans-Serif" font-size="10.00">stdbool.h</text>
</a>
</g>
</g>
<!-- Node3&#45;&gt;Node4 -->
<g id="edge3_Node000003_Node000004" class="edge">
<title>Node3&#45;&gt;Node4</title>
<g id="a_edge3_Node000003_Node000004"><a xlink:title=" ">
<path fill="none" stroke="#63b8ff" d="M215.27,-170.45C150.45,-163.55 51.76,-141.78 4.32,-74 -5.82,-59.51 4.72,-40.61 15.45,-27.21"/>
<polygon fill="#63b8ff" stroke="#63b8ff" points="18.41,-29.14 22.32,-19.3 13.13,-24.55 18.41,-29.14"/>
</a>
</g>
</g>
<!-- Node5 -->
<g id="Node000005" class="node">
<title>Node5</title>
<g id="a_Node000005"><a xlink:href="entry_8h.html" target="_top" xlink:title="An entry.">
<polygon fill="white" stroke="#666666" points="316.32,-129 192.32,-129 192.32,-110 316.32,-110 316.32,-129"/>
<text text-anchor="middle" x="254.32" y="-117" font-family="Helvetica,sans-Serif" font-size="10.00">tetengo/lattice/entry.h</text>
</a>
</g>
</g>
<!-- Node3&#45;&gt;Node5 -->
<g id="edge5_Node000003_Node000005" class="edge">
<title>Node3&#45;&gt;Node5</title>
<g id="a_edge5_Node000003_Node000005"><a xlink:title=" ">
<path fill="none" stroke="#63b8ff" d="M273.52,-164.75C270.41,-157.57 265.9,-147.18 262.03,-138.27"/>
<polygon fill="#63b8ff" stroke="#63b8ff" points="265.24,-136.87 258.05,-129.09 258.82,-139.66 265.24,-136.87"/>
</a>
</g>
</g>
<!-- Node5&#45;&gt;Node2 -->
<g id="edge6_Node000005_Node000002" class="edge">
<title>Node5&#45;&gt;Node2</title>
<g id="a_edge6_Node000005_Node000002"><a xlink:title=" ">
<path fill="none" stroke="#63b8ff" d="M272.61,-109.86C286.76,-102.28 305.83,-89.98 317.32,-74 326.87,-60.71 331.67,-42.6 334.06,-29.12"/>
<polygon fill="#63b8ff" stroke="#63b8ff" points="337.54,-29.49 335.54,-19.09 330.61,-28.47 337.54,-29.49"/>
</a>
</g>
</g>
<!-- Node6 -->
<g id="Node000006" class="node">
<title>Node6</title>
<g id="a_Node000006"><a xlink:href="input_8h.html" target="_top" xlink:title="An input.">
<polygon fill="white" stroke="#666666" points="138.82,-74 13.82,-74 13.82,-55 138.82,-55 138.82,-74"/>
<text text-anchor="middle" x="76.32" y="-62" font-family="Helvetica,sans-Serif" font-size="10.00">tetengo/lattice/input.h</text>
</a>
</g>
</g>
<!-- Node5&#45;&gt;Node6 -->
<g id="edge7_Node000005_Node000006" class="edge">
<title>Node5&#45;&gt;Node6</title>
<g id="a_edge7_Node000005_Node000006"><a xlink:title=" ">
<path fill="none" stroke="#63b8ff" d="M225.72,-109.98C195.71,-101.05 148.34,-86.94 115,-77.02"/>
<polygon fill="#63b8ff" stroke="#63b8ff" points="115.73,-73.58 105.14,-74.08 113.73,-80.29 115.73,-73.58"/>
</a>
</g>
</g>
<!-- Node7 -->
<g id="Node000007" class="node">
<title>Node7</title>
<g id="a_Node000007"><a xlink:href="stringView_8h.html" target="_top" xlink:title="A string view.">
<polygon fill="white" stroke="#666666" points="307.82,-74 156.82,-74 156.82,-55 307.82,-55 307.82,-74"/>
<text text-anchor="middle" x="232.32" y="-62" font-family="Helvetica,sans-Serif" font-size="10.00">tetengo/lattice/stringView.h</text>
</a>
</g>
</g>
<!-- Node5&#45;&gt;Node7 -->
<g id="edge10_Node000005_Node000007" class="edge">
<title>Node5&#45;&gt;Node7</title>
<g id="a_edge10_Node000005_Node000007"><a xlink:title=" ">
<path fill="none" stroke="#63b8ff" d="M250.69,-109.75C247.74,-102.65 243.49,-92.4 239.81,-83.56"/>
<polygon fill="#63b8ff" stroke="#63b8ff" points="242.95,-81.98 235.88,-74.09 236.49,-84.67 242.95,-81.98"/>
</a>
</g>
</g>
<!-- Node6&#45;&gt;Node2 -->
<g id="edge9_Node000006_Node000002" class="edge">
<title>Node6&#45;&gt;Node2</title>
<g id="a_edge9_Node000006_Node000002"><a xlink:title=" ">
<path fill="none" stroke="#63b8ff" d="M118.09,-54.98C167.84,-44.84 250.23,-28.05 298.28,-18.26"/>
<polygon fill="#63b8ff" stroke="#63b8ff" points="299.17,-21.64 308.27,-16.22 297.77,-14.79 299.17,-21.64"/>
</a>
</g>
</g>
<!-- Node6&#45;&gt;Node4 -->
<g id="edge8_Node000006_Node000004" class="edge">
<title>Node6&#45;&gt;Node4</title>
<g id="a_edge8_Node000006_Node000004"><a xlink:title=" ">
<path fill="none" stroke="#63b8ff" d="M68.89,-54.75C62.47,-47.18 53.01,-36.05 45.2,-26.84"/>
<polygon fill="#63b8ff" stroke="#63b8ff" points="47.75,-24.45 38.61,-19.09 42.42,-28.98 47.75,-24.45"/>
</a>
</g>
</g>
<!-- Node7&#45;&gt;Node2 -->
<g id="edge11_Node000007_Node000002" class="edge">
<title>Node7&#45;&gt;Node2</title>
<g id="a_edge11_Node000007_Node000002"><a xlink:title=" ">
<path fill="none" stroke="#63b8ff" d="M249.03,-54.98C265.53,-46.57 291.02,-33.59 310.2,-23.81"/>
<polygon fill="#63b8ff" stroke="#63b8ff" points="311.99,-26.83 319.31,-19.17 308.81,-20.59 311.99,-26.83"/>
</a>
</g>
</g>
</g>
</svg>
</svg>

<style type='text/css'>
<![CDATA[
[data-mouse-over-selected='false'] { opacity: 0.7; }
[data-mouse-over-selected='true']  { opacity: 1.0; }
]]>
</style>
<script type="application/ecmascript"><![CDATA[
document.addEventListener('DOMContentLoaded', (event) => {
  highlightEdges();
  highlightAdjacentNodes();
});
]]></script>
</svg>
