<?xml version="1.0" encoding="UTF-8" standalone="no"?>
<!DOCTYPE svg PUBLIC "-//W3C//DTD SVG 1.1//EN"
 "http://www.w3.org/Graphics/SVG/1.1/DTD/svg11.dtd">
<!-- Generated by graphviz version 2.43.0 (0)
 -->
<!-- Title: library/lattice/c/include/tetengo/lattice/constraint.h Pages: 1 -->
<svg width="511pt" height="330pt"
 viewBox="0.00 0.00 511.01 330.00" xmlns="http://www.w3.org/2000/svg" xmlns:xlink="http://www.w3.org/1999/xlink">
<g id="graph0" class="graph" transform="scale(1 1) rotate(0) translate(4 326)">
<title>library/lattice/c/include/tetengo/lattice/constraint.h</title>
<polygon fill="white" stroke="transparent" points="-4,4 -4,-326 507.01,-326 507.01,4 -4,4"/>
<!-- Node1 -->
<g id="node1" class="node">
<title>Node1</title>
<g id="a_node1"><a xlink:title="A constraint.">
<polygon fill="#bfbfbf" stroke="black" points="275,-291.5 275,-321.5 427,-321.5 427,-291.5 275,-291.5"/>
<text text-anchor="start" x="283" y="-309.5" font-family="Helvetica,sans-Serif" font-size="10.00">library/lattice/c/include</text>
<text text-anchor="middle" x="351" y="-298.5" font-family="Helvetica,sans-Serif" font-size="10.00">/tetengo/lattice/constraint.h</text>
</a>
</g>
</g>
<!-- Node2 -->
<g id="node2" class="node">
<title>Node2</title>
<g id="a_node2"><a xlink:title=" ">
<polygon fill="white" stroke="#bfbfbf" points="7,-0.5 7,-19.5 69,-19.5 69,-0.5 7,-0.5"/>
<text text-anchor="middle" x="38" y="-7.5" font-family="Helvetica,sans-Serif" font-size="10.00">stdbool.h</text>
</a>
</g>
</g>
<!-- Node1&#45;&gt;Node2 -->
<g id="edge1" class="edge">
<title>Node1&#45;&gt;Node2</title>
<path fill="none" stroke="midnightblue" d="M274.84,-293.79C171.61,-275.72 0,-236.97 0,-179 0,-179 0,-179 0,-121 0,-86.81 16.6,-49.76 27.86,-28.57"/>
<polygon fill="midnightblue" stroke="midnightblue" points="30.95,-30.22 32.72,-19.77 24.82,-26.83 30.95,-30.22"/>
</g>
<!-- Node3 -->
<g id="node3" class="node">
<title>Node3</title>
<g id="a_node3"><a xlink:title=" ">
<polygon fill="white" stroke="#bfbfbf" points="380,-0.5 380,-19.5 436,-19.5 436,-0.5 380,-0.5"/>
<text text-anchor="middle" x="408" y="-7.5" font-family="Helvetica,sans-Serif" font-size="10.00">stddef.h</text>
</a>
</g>
</g>
<!-- Node1&#45;&gt;Node3 -->
<g id="edge2" class="edge">
<title>Node1&#45;&gt;Node3</title>
<path fill="none" stroke="midnightblue" d="M417.85,-291.45C439.84,-283.88 462.79,-272.38 479,-255 503.16,-229.09 503,-214.42 503,-179 503,-179 503,-179 503,-121 503,-77.74 460.39,-43.09 432.25,-24.91"/>
<polygon fill="midnightblue" stroke="midnightblue" points="434.03,-21.9 423.69,-19.6 430.34,-27.85 434.03,-21.9"/>
</g>
<!-- Node4 -->
<g id="node4" class="node">
<title>Node4</title>
<g id="a_node4"><a xlink:href="constraintElement_8h.html" target="_top" xlink:title="A constraint element.">
<polygon fill="white" stroke="black" points="330,-224.5 330,-254.5 470,-254.5 470,-224.5 330,-224.5"/>
<text text-anchor="start" x="338" y="-242.5" font-family="Helvetica,sans-Serif" font-size="10.00">tetengo/lattice/constraint</text>
<text text-anchor="middle" x="400" y="-231.5" font-family="Helvetica,sans-Serif" font-size="10.00">Element.h</text>
</a>
</g>
</g>
<!-- Node1&#45;&gt;Node4 -->
<g id="edge3" class="edge">
<title>Node1&#45;&gt;Node4</title>
<path fill="none" stroke="midnightblue" d="M361.63,-291.4C367.92,-283.05 376.04,-272.29 383.18,-262.81"/>
<polygon fill="midnightblue" stroke="midnightblue" points="386.16,-264.67 389.39,-254.58 380.57,-260.45 386.16,-264.67"/>
</g>
<!-- Node5 -->
<g id="node5" class="node">
<title>Node5</title>
<g id="a_node5"><a xlink:href="node_8h.html" target="_top" xlink:title="A node.">
<polygon fill="white" stroke="black" points="240,-168.5 240,-187.5 364,-187.5 364,-168.5 240,-168.5"/>
<text text-anchor="middle" x="302" y="-175.5" font-family="Helvetica,sans-Serif" font-size="10.00">tetengo/lattice/node.h</text>
</a>
</g>
</g>
<!-- Node1&#45;&gt;Node5 -->
<g id="edge15" class="edge">
<title>Node1&#45;&gt;Node5</title>
<path fill="none" stroke="midnightblue" d="M341.17,-291.5C334.66,-281.67 326.36,-268.01 321,-255 313.25,-236.18 308.07,-213.38 305.1,-197.7"/>
<polygon fill="midnightblue" stroke="midnightblue" points="308.52,-196.93 303.32,-187.69 301.63,-198.15 308.52,-196.93"/>
</g>
<!-- Node4&#45;&gt;Node3 -->
<g id="edge4" class="edge">
<title>Node4&#45;&gt;Node3</title>
<path fill="none" stroke="midnightblue" d="M401.28,-224.31C403.93,-193.63 409.7,-118.81 409,-56 408.9,-47.4 408.71,-37.87 408.51,-29.8"/>
<polygon fill="midnightblue" stroke="midnightblue" points="412.01,-29.53 408.25,-19.63 405.01,-29.71 412.01,-29.53"/>
</g>
<!-- Node4&#45;&gt;Node5 -->
<g id="edge5" class="edge">
<title>Node4&#45;&gt;Node5</title>
<path fill="none" stroke="midnightblue" d="M376.78,-224.4C361.21,-214.95 340.8,-202.56 325.24,-193.11"/>
<polygon fill="midnightblue" stroke="midnightblue" points="326.62,-189.86 316.26,-187.66 322.99,-195.84 326.62,-189.86"/>
</g>
<!-- Node5&#45;&gt;Node2 -->
<g id="edge6" class="edge">
<title>Node5&#45;&gt;Node2</title>
<path fill="none" stroke="midnightblue" d="M246.8,-168.46C191.17,-157 106.66,-131.26 57,-76 45.59,-63.3 41.01,-44.1 39.18,-29.86"/>
<polygon fill="midnightblue" stroke="midnightblue" points="42.65,-29.34 38.23,-19.71 35.68,-30 42.65,-29.34"/>
</g>
<!-- Node5&#45;&gt;Node3 -->
<g id="edge7" class="edge">
<title>Node5&#45;&gt;Node3</title>
<path fill="none" stroke="midnightblue" d="M317.07,-168.39C330.21,-160.31 349.13,-147.2 362,-132 387.81,-101.52 399.95,-55.05 404.97,-29.48"/>
<polygon fill="midnightblue" stroke="midnightblue" points="408.41,-30.08 406.74,-19.62 401.52,-28.84 408.41,-30.08"/>
</g>
<!-- Node6 -->
<g id="node6" class="node">
<title>Node6</title>
<g id="a_node6"><a xlink:href="entry_8h.html" target="_top" xlink:title="An entry.">
<polygon fill="white" stroke="black" points="229,-112.5 229,-131.5 353,-131.5 353,-112.5 229,-112.5"/>
<text text-anchor="middle" x="291" y="-119.5" font-family="Helvetica,sans-Serif" font-size="10.00">tetengo/lattice/entry.h</text>
</a>
</g>
</g>
<!-- Node5&#45;&gt;Node6 -->
<g id="edge8" class="edge">
<title>Node5&#45;&gt;Node6</title>
<path fill="none" stroke="midnightblue" d="M300.18,-168.08C298.73,-160.93 296.63,-150.64 294.81,-141.69"/>
<polygon fill="midnightblue" stroke="midnightblue" points="298.21,-140.85 292.78,-131.75 291.35,-142.25 298.21,-140.85"/>
</g>
<!-- Node6&#45;&gt;Node3 -->
<g id="edge9" class="edge">
<title>Node6&#45;&gt;Node3</title>
<path fill="none" stroke="midnightblue" d="M312.8,-112.35C329.9,-104.73 353.5,-92.31 370,-76 383.63,-62.52 394.11,-43.16 400.58,-29.08"/>
<polygon fill="midnightblue" stroke="midnightblue" points="403.96,-30.09 404.73,-19.52 397.54,-27.3 403.96,-30.09"/>
</g>
<!-- Node7 -->
<g id="node7" class="node">
<title>Node7</title>
<g id="a_node7"><a xlink:href="input_8h.html" target="_top" xlink:title="An input.">
<polygon fill="white" stroke="black" points="66.5,-56.5 66.5,-75.5 191.5,-75.5 191.5,-56.5 66.5,-56.5"/>
<text text-anchor="middle" x="129" y="-63.5" font-family="Helvetica,sans-Serif" font-size="10.00">tetengo/lattice/input.h</text>
</a>
</g>
</g>
<!-- Node6&#45;&gt;Node7 -->
<g id="edge10" class="edge">
<title>Node6&#45;&gt;Node7</title>
<path fill="none" stroke="midnightblue" d="M265.33,-112.44C238.08,-103.36 194.82,-88.94 164.35,-78.78"/>
<polygon fill="midnightblue" stroke="midnightblue" points="165.14,-75.36 154.55,-75.52 162.93,-82 165.14,-75.36"/>
</g>
<!-- Node8 -->
<g id="node8" class="node">
<title>Node8</title>
<g id="a_node8"><a xlink:href="stringView_8h.html" target="_top" xlink:title="A string view.">
<polygon fill="white" stroke="black" points="209.5,-56.5 209.5,-75.5 360.5,-75.5 360.5,-56.5 209.5,-56.5"/>
<text text-anchor="middle" x="285" y="-63.5" font-family="Helvetica,sans-Serif" font-size="10.00">tetengo/lattice/stringView.h</text>
</a>
</g>
</g>
<!-- Node6&#45;&gt;Node8 -->
<g id="edge13" class="edge">
<title>Node6&#45;&gt;Node8</title>
<path fill="none" stroke="midnightblue" d="M290.01,-112.08C289.21,-104.93 288.07,-94.64 287.08,-85.69"/>
<polygon fill="midnightblue" stroke="midnightblue" points="290.56,-85.3 285.97,-75.75 283.6,-86.08 290.56,-85.3"/>
</g>
<!-- Node7&#45;&gt;Node2 -->
<g id="edge11" class="edge">
<title>Node7&#45;&gt;Node2</title>
<path fill="none" stroke="midnightblue" d="M114.38,-56.32C100.05,-47.82 77.99,-34.73 61.25,-24.8"/>
<polygon fill="midnightblue" stroke="midnightblue" points="62.97,-21.75 52.58,-19.65 59.4,-27.77 62.97,-21.75"/>
</g>
<!-- Node7&#45;&gt;Node3 -->
<g id="edge12" class="edge">
<title>Node7&#45;&gt;Node3</title>
<path fill="none" stroke="midnightblue" d="M173.21,-56.44C227.4,-45.95 318.35,-28.35 369.7,-18.41"/>
<polygon fill="midnightblue" stroke="midnightblue" points="370.57,-21.81 379.72,-16.47 369.24,-14.94 370.57,-21.81"/>
</g>
<!-- Node8&#45;&gt;Node3 -->
<g id="edge14" class="edge">
<title>Node8&#45;&gt;Node3</title>
<path fill="none" stroke="midnightblue" d="M304.49,-56.44C324.64,-47.6 356.32,-33.69 379.33,-23.59"/>
<polygon fill="midnightblue" stroke="midnightblue" points="380.85,-26.74 388.6,-19.52 378.04,-20.33 380.85,-26.74"/>
</g>
</g>
</svg>
