<?xml version="1.0" encoding="UTF-8" standalone="no"?>
<!DOCTYPE svg PUBLIC "-//W3C//DTD SVG 1.1//EN"
 "http://www.w3.org/Graphics/SVG/1.1/DTD/svg11.dtd">
<!-- Generated by graphviz version 2.43.0 (0)
 -->
<!-- Title: library/lattice/c/include/tetengo/lattice/constraint.h Pages: 1 -->
<!--zoomable 324 -->
<svg id="main" version="1.1" xmlns="http://www.w3.org/2000/svg" xmlns:xlink="http://www.w3.org/1999/xlink" xml:space="preserve" onload="init(evt)">
<style type="text/css"><![CDATA[
.edge:hover path { stroke: red; }
.edge:hover polygon { stroke: red; fill: red; }
]]></style>
<script type="text/javascript"><![CDATA[
var edges = document.getElementsByTagName('g');
if (edges && edges.length) {
  for (var i=0;i<edges.length;i++) {
    if (edges[i].id.substr(0,4)=='edge') {
      edges[i].setAttribute('class','edge');
    }
  }
}
]]></script>
        <defs>
                <circle id="rim" cx="0" cy="0" r="7"/>
                <circle id="rim2" cx="0" cy="0" r="3.5"/>
                <g id="zoomPlus">
                        <use xlink:href="#rim" fill="#404040">
                                <set attributeName="fill" to="#808080" begin="zoomplus.mouseover" end="zoomplus.mouseout"/>
                        </use>
                        <path d="M-4,0h8M0,-4v8" fill="none" stroke="white" stroke-width="1.5" pointer-events="none"/>
                </g>
                <g id="zoomMin">
                        <use xlink:href="#rim" fill="#404040">
                                <set attributeName="fill" to="#808080" begin="zoomminus.mouseover" end="zoomminus.mouseout"/>
                        </use>
                        <path d="M-4,0h8" fill="none" stroke="white" stroke-width="1.5" pointer-events="none"/>
                </g>
                <g id="dirArrow">
                        <path fill="none" stroke="white" stroke-width="1.5" d="M0,-3.0v7 M-2.5,-0.5L0,-3.0L2.5,-0.5"/>
                </g>
               <g id="resetDef">
                       <use xlink:href="#rim2" fill="#404040">
                               <set attributeName="fill" to="#808080" begin="reset.mouseover" end="reset.mouseout"/>
                       </use>
               </g>
        </defs>

<script type="text/javascript">
var viewWidth = 511;
var viewHeight = 324;
var sectionId = 'dynsection-0';
</script>
<script xlink:href="svgpan.js"/>
<svg id="graph" class="graph">
<g id="viewport">
<title>library/lattice/c/include/tetengo/lattice/constraint.h</title>
<!-- Node1 -->
<g id="node1" class="node">
<title>Node1</title>
<g id="a_node1"><a xlink:title="A constraint.">
<polygon fill="#999999" stroke="#666666" points="427,-316 275,-316 275,-286 427,-286 427,-316"/>
<text text-anchor="start" x="283" y="-304" font-family="Helvetica,sans-Serif" font-size="10.00">library/lattice/c/include</text>
<text text-anchor="middle" x="351" y="-293" font-family="Helvetica,sans-Serif" font-size="10.00">/tetengo/lattice/constraint.h</text>
</a>
</g>
</g>
<!-- Node2 -->
<g id="node2" class="node">
<title>Node2</title>
<g id="a_node2"><a xlink:title=" ">
<polygon fill="#e0e0e0" stroke="#999999" points="69,-19 7,-19 7,0 69,0 69,-19"/>
<text text-anchor="middle" x="38" y="-7" font-family="Helvetica,sans-Serif" font-size="10.00">stdbool.h</text>
</a>
</g>
</g>
<!-- Node1&#45;&gt;Node2 -->
<g id="edge1" class="edge">
<title>Node1&#45;&gt;Node2</title>
<path fill="none" stroke="#63b8ff" d="M274.84,-288.69C171.61,-271.18 0,-233.37 0,-175.5 0,-175.5 0,-175.5 0,-118.5 0,-85.02 16.45,-48.84 27.7,-28.01"/>
<polygon fill="#63b8ff" stroke="#63b8ff" points="30.87,-29.53 32.72,-19.1 24.76,-26.1 30.87,-29.53"/>
</g>
<!-- Node3 -->
<g id="node3" class="node">
<title>Node3</title>
<g id="a_node3"><a xlink:title=" ">
<polygon fill="#e0e0e0" stroke="#999999" points="436,-19 380,-19 380,0 436,0 436,-19"/>
<text text-anchor="middle" x="408" y="-7" font-family="Helvetica,sans-Serif" font-size="10.00">stddef.h</text>
</a>
</g>
</g>
<!-- Node1&#45;&gt;Node3 -->
<g id="edge2" class="edge">
<title>Node1&#45;&gt;Node3</title>
<path fill="none" stroke="#63b8ff" d="M418.45,-285.94C440.23,-278.46 462.9,-267.11 479,-250 502.84,-224.67 503,-210.29 503,-175.5 503,-175.5 503,-175.5 503,-118.5 503,-75.91 460.84,-42.14 432.69,-24.33"/>
<polygon fill="#63b8ff" stroke="#63b8ff" points="434.48,-21.32 424.12,-19.12 430.84,-27.31 434.48,-21.32"/>
</g>
<!-- Node4 -->
<g id="node4" class="node">
<title>Node4</title>
<g id="a_node4"><a xlink:href="constraintElement_8h.html" target="_top" xlink:title="A constraint element.">
<polygon fill="white" stroke="#666666" points="470,-250 330,-250 330,-220 470,-220 470,-250"/>
<text text-anchor="start" x="338" y="-238" font-family="Helvetica,sans-Serif" font-size="10.00">tetengo/lattice/constraint</text>
<text text-anchor="middle" x="400" y="-227" font-family="Helvetica,sans-Serif" font-size="10.00">Element.h</text>
</a>
</g>
</g>
<!-- Node1&#45;&gt;Node4 -->
<g id="edge3" class="edge">
<title>Node1&#45;&gt;Node4</title>
<path fill="none" stroke="#63b8ff" d="M361.87,-285.8C368.09,-277.68 376.02,-267.31 383.04,-258.15"/>
<polygon fill="#63b8ff" stroke="#63b8ff" points="385.86,-260.23 389.16,-250.16 380.3,-255.98 385.86,-260.23"/>
</g>
<!-- Node5 -->
<g id="node5" class="node">
<title>Node5</title>
<g id="a_node5"><a xlink:href="node_8h.html" target="_top" xlink:title="A node.">
<polygon fill="white" stroke="#666666" points="364,-184 240,-184 240,-165 364,-165 364,-184"/>
<text text-anchor="middle" x="302" y="-172" font-family="Helvetica,sans-Serif" font-size="10.00">tetengo/lattice/node.h</text>
</a>
</g>
</g>
<!-- Node1&#45;&gt;Node5 -->
<g id="edge15" class="edge">
<title>Node1&#45;&gt;Node5</title>
<path fill="none" stroke="#63b8ff" d="M340.9,-285.72C334.43,-276.02 326.3,-262.71 321,-250 313.39,-231.74 308.22,-209.65 305.22,-194.29"/>
<polygon fill="#63b8ff" stroke="#63b8ff" points="308.58,-193.23 303.34,-184.02 301.7,-194.49 308.58,-193.23"/>
</g>
<!-- Node4&#45;&gt;Node3 -->
<g id="edge4" class="edge">
<title>Node4&#45;&gt;Node3</title>
<path fill="none" stroke="#63b8ff" d="M401.32,-219.63C403.99,-189.25 409.69,-116.29 409,-55 408.9,-46.49 408.71,-37.07 408.51,-29.09"/>
<polygon fill="#63b8ff" stroke="#63b8ff" points="412.01,-28.94 408.25,-19.03 405.01,-29.12 412.01,-28.94"/>
</g>
<!-- Node4&#45;&gt;Node5 -->
<g id="edge5" class="edge">
<title>Node4&#45;&gt;Node5</title>
<path fill="none" stroke="#63b8ff" d="M376.28,-219.84C360.8,-210.6 340.68,-198.59 325.29,-189.4"/>
<polygon fill="#63b8ff" stroke="#63b8ff" points="326.78,-186.21 316.4,-184.09 323.19,-192.23 326.78,-186.21"/>
</g>
<!-- Node5&#45;&gt;Node2 -->
<g id="edge6" class="edge">
<title>Node5&#45;&gt;Node2</title>
<path fill="none" stroke="#63b8ff" d="M245.59,-165C190.02,-153.71 106.49,-128.43 57,-74 45.87,-61.76 41.25,-43.24 39.34,-29.36"/>
<polygon fill="#63b8ff" stroke="#63b8ff" points="42.78,-28.62 38.28,-19.03 35.82,-29.33 42.78,-28.62"/>
</g>
<!-- Node5&#45;&gt;Node3 -->
<g id="edge7" class="edge">
<title>Node5&#45;&gt;Node3</title>
<path fill="none" stroke="#63b8ff" d="M317.31,-164.84C330.42,-156.85 349.17,-143.96 362,-129 387.29,-99.51 399.55,-54.54 404.74,-29.33"/>
<polygon fill="#63b8ff" stroke="#63b8ff" points="408.23,-29.74 406.65,-19.26 401.35,-28.43 408.23,-29.74"/>
</g>
<!-- Node6 -->
<g id="node6" class="node">
<title>Node6</title>
<g id="a_node6"><a xlink:href="entry_8h.html" target="_top" xlink:title="An entry.">
<polygon fill="white" stroke="#666666" points="353,-129 229,-129 229,-110 353,-110 353,-129"/>
<text text-anchor="middle" x="291" y="-117" font-family="Helvetica,sans-Serif" font-size="10.00">tetengo/lattice/entry.h</text>
</a>
</g>
</g>
<!-- Node5&#45;&gt;Node6 -->
<g id="edge8" class="edge">
<title>Node5&#45;&gt;Node6</title>
<path fill="none" stroke="#63b8ff" d="M300.18,-164.75C298.74,-157.8 296.68,-147.85 294.87,-139.13"/>
<polygon fill="#63b8ff" stroke="#63b8ff" points="298.24,-138.17 292.78,-129.09 291.39,-139.59 298.24,-138.17"/>
</g>
<!-- Node6&#45;&gt;Node3 -->
<g id="edge9" class="edge">
<title>Node6&#45;&gt;Node3</title>
<path fill="none" stroke="#63b8ff" d="M312.75,-109.95C329.84,-102.42 353.42,-90.15 370,-74 383.35,-61 393.77,-42.35 400.29,-28.62"/>
<polygon fill="#63b8ff" stroke="#63b8ff" points="403.59,-29.82 404.51,-19.26 397.21,-26.94 403.59,-29.82"/>
</g>
<!-- Node7 -->
<g id="node7" class="node">
<title>Node7</title>
<g id="a_node7"><a xlink:href="input_8h.html" target="_top" xlink:title="An input.">
<polygon fill="white" stroke="#666666" points="191.5,-74 66.5,-74 66.5,-55 191.5,-55 191.5,-74"/>
<text text-anchor="middle" x="129" y="-62" font-family="Helvetica,sans-Serif" font-size="10.00">tetengo/lattice/input.h</text>
</a>
</g>
</g>
<!-- Node6&#45;&gt;Node7 -->
<g id="edge10" class="edge">
<title>Node6&#45;&gt;Node7</title>
<path fill="none" stroke="#63b8ff" d="M264.97,-109.98C237.89,-101.13 195.29,-87.19 164.99,-77.28"/>
<polygon fill="#63b8ff" stroke="#63b8ff" points="165.82,-73.87 155.23,-74.08 163.65,-80.52 165.82,-73.87"/>
</g>
<!-- Node8 -->
<g id="node8" class="node">
<title>Node8</title>
<g id="a_node8"><a xlink:href="stringView_8h.html" target="_top" xlink:title="A string view.">
<polygon fill="white" stroke="#666666" points="360.5,-74 209.5,-74 209.5,-55 360.5,-55 360.5,-74"/>
<text text-anchor="middle" x="285" y="-62" font-family="Helvetica,sans-Serif" font-size="10.00">tetengo/lattice/stringView.h</text>
</a>
</g>
</g>
<!-- Node6&#45;&gt;Node8 -->
<g id="edge13" class="edge">
<title>Node6&#45;&gt;Node8</title>
<path fill="none" stroke="#63b8ff" d="M290.01,-109.75C289.22,-102.8 288.1,-92.85 287.11,-84.13"/>
<polygon fill="#63b8ff" stroke="#63b8ff" points="290.58,-83.63 285.97,-74.09 283.62,-84.42 290.58,-83.63"/>
</g>
<!-- Node7&#45;&gt;Node2 -->
<g id="edge11" class="edge">
<title>Node7&#45;&gt;Node2</title>
<path fill="none" stroke="#63b8ff" d="M114.38,-54.98C100.14,-46.69 78.25,-33.94 61.55,-24.22"/>
<polygon fill="#63b8ff" stroke="#63b8ff" points="63.29,-21.18 52.89,-19.17 59.77,-27.23 63.29,-21.18"/>
</g>
<!-- Node7&#45;&gt;Node3 -->
<g id="edge12" class="edge">
<title>Node7&#45;&gt;Node3</title>
<path fill="none" stroke="#63b8ff" d="M173.83,-54.98C228.16,-44.66 318.76,-27.45 369.88,-17.74"/>
<polygon fill="#63b8ff" stroke="#63b8ff" points="370.68,-21.15 379.86,-15.85 369.38,-14.27 370.68,-21.15"/>
</g>
<!-- Node8&#45;&gt;Node3 -->
<g id="edge14" class="edge">
<title>Node8&#45;&gt;Node3</title>
<path fill="none" stroke="#63b8ff" d="M304.76,-54.98C324.73,-46.38 355.8,-32.99 378.65,-23.15"/>
<polygon fill="#63b8ff" stroke="#63b8ff" points="380.08,-26.34 387.88,-19.17 377.31,-19.91 380.08,-26.34"/>
</g>
</g>
</svg>
        <g id="navigator" transform="translate(0 0)" fill="#404254">
                <rect fill="#f2f5e9" fill-opacity="0.5" stroke="#606060" stroke-width=".5" x="0" y="0" width="60" height="60"/>
                <use id="zoomplus" xlink:href="#zoomPlus" x="17" y="9" onmousedown="handleZoom(evt,'in')"/>
                <use id="zoomminus" xlink:href="#zoomMin" x="42" y="9" onmousedown="handleZoom(evt,'out')"/>
                <use id="reset" xlink:href="#resetDef" x="30" y="36" onmousedown="handleReset()"/>
                <g id="arrowUp" xlink:href="#dirArrow" transform="translate(30 24)" onmousedown="handlePan(0,-1)">
                  <use xlink:href="#rim" fill="#404040">
                        <set attributeName="fill" to="#808080" begin="arrowUp.mouseover" end="arrowUp.mouseout"/>
                  </use>
                  <path fill="none" stroke="white" stroke-width="1.5" d="M0,-3.0v7 M-2.5,-0.5L0,-3.0L2.5,-0.5"/>
                </g>
                <g id="arrowRight" xlink:href="#dirArrow" transform="rotate(90) translate(36 -43)" onmousedown="handlePan(1,0)">
                  <use xlink:href="#rim" fill="#404040">
                        <set attributeName="fill" to="#808080" begin="arrowRight.mouseover" end="arrowRight.mouseout"/>
                  </use>
                  <path fill="none" stroke="white" stroke-width="1.5" d="M0,-3.0v7 M-2.5,-0.5L0,-3.0L2.5,-0.5"/>
                </g>
                <g id="arrowDown" xlink:href="#dirArrow" transform="rotate(180) translate(-30 -48)" onmousedown="handlePan(0,1)">
                  <use xlink:href="#rim" fill="#404040">
                        <set attributeName="fill" to="#808080" begin="arrowDown.mouseover" end="arrowDown.mouseout"/>
                  </use>
                  <path fill="none" stroke="white" stroke-width="1.5" d="M0,-3.0v7 M-2.5,-0.5L0,-3.0L2.5,-0.5"/>
                </g>
                <g id="arrowLeft" xlink:href="#dirArrow" transform="rotate(270) translate(-36 17)" onmousedown="handlePan(-1,0)">
                  <use xlink:href="#rim" fill="#404040">
                        <set attributeName="fill" to="#808080" begin="arrowLeft.mouseover" end="arrowLeft.mouseout"/>
                  </use>
                  <path fill="none" stroke="white" stroke-width="1.5" d="M0,-3.0v7 M-2.5,-0.5L0,-3.0L2.5,-0.5"/>
                </g>
        </g>
        <svg viewBox="0 0 15 15" width="100%" height="30px" preserveAspectRatio="xMaxYMin meet">
         <g id="arrow_out" transform="scale(0.3 0.3)">
          <a xlink:href="constraint_8h__incl_org.svg" target="_base">
           <rect id="button" ry="5" rx="5" y="6" x="6" height="38" width="38"
                fill="#f2f5e9" fill-opacity="0.5" stroke="#606060" stroke-width="1.0"/>
           <path id="arrow"
             d="M 11.500037,31.436501 C 11.940474,20.09759 22.043105,11.32322 32.158766,21.979434 L 37.068811,17.246167 C 37.068811,17.246167 37.088388,32 37.088388,32 L 22.160133,31.978069 C 22.160133,31.978069 26.997745,27.140456 26.997745,27.140456 C 18.528582,18.264221 13.291696,25.230495 11.500037,31.436501 z"
             style="fill:#404040;"/>
          </a>
         </g>
        </svg>
</svg>
