<?xml version="1.0" encoding="UTF-8" standalone="no"?>
<!DOCTYPE svg PUBLIC "-//W3C//DTD SVG 1.1//EN"
 "http://www.w3.org/Graphics/SVG/1.1/DTD/svg11.dtd">
<!-- Generated by graphviz version 2.43.0 (0)
 -->
<!-- Title: library/trie/cpp/include/tetengo/trie/default_serializer.hpp Pages: 1 -->
<svg width="296pt" height="93pt"
 viewBox="0.00 0.00 295.50 93.00" xmlns="http://www.w3.org/2000/svg" xmlns:xlink="http://www.w3.org/1999/xlink">
<g id="graph0" class="graph" transform="scale(1 1) rotate(0) translate(4 89)">
<title>library/trie/cpp/include/tetengo/trie/default_serializer.hpp</title>
<!-- Node1 -->
<g id="node1" class="node">
<title>Node1</title>
<g id="a_node1"><a xlink:title="A default serializer.">
<polygon fill="#999999" stroke="#666666" points="235.5,-85 50.5,-85 50.5,-55 235.5,-55 235.5,-85"/>
<text text-anchor="start" x="58.5" y="-73" font-family="Helvetica,sans-Serif" font-size="10.00">library/trie/cpp/include</text>
<text text-anchor="middle" x="143" y="-62" font-family="Helvetica,sans-Serif" font-size="10.00">/tetengo/trie/default_serializer.hpp</text>
</a>
</g>
</g>
<!-- Node2 -->
<g id="node2" class="node">
<title>Node2</title>
<g id="a_node2"><a xlink:title=" ">
<polygon fill="#e0e0e0" stroke="#999999" points="44,-19 0,-19 0,0 44,0 44,-19"/>
<text text-anchor="middle" x="22" y="-7" font-family="Helvetica,sans-Serif" font-size="10.00">string</text>
</a>
</g>
</g>
<!-- Node1&#45;&gt;Node2 -->
<g id="edge1" class="edge">
<title>Node1&#45;&gt;Node2</title>
<path fill="none" stroke="#63b8ff" d="M114.02,-54.99C94.28,-45.45 68.33,-32.9 49.03,-23.57"/>
<polygon fill="#63b8ff" stroke="#63b8ff" points="50.4,-20.34 39.87,-19.14 47.35,-26.64 50.4,-20.34"/>
</g>
<!-- Node3 -->
<g id="node3" class="node">
<title>Node3</title>
<g id="a_node3"><a xlink:title=" ">
<polygon fill="#e0e0e0" stroke="#999999" points="135.5,-19 62.5,-19 62.5,0 135.5,0 135.5,-19"/>
<text text-anchor="middle" x="99" y="-7" font-family="Helvetica,sans-Serif" font-size="10.00">string_view</text>
</a>
</g>
</g>
<!-- Node1&#45;&gt;Node3 -->
<g id="edge2" class="edge">
<title>Node1&#45;&gt;Node3</title>
<path fill="none" stroke="#63b8ff" d="M132.35,-54.84C126.16,-46.61 118.31,-36.18 111.79,-27.51"/>
<polygon fill="#63b8ff" stroke="#63b8ff" points="114.4,-25.15 105.59,-19.27 108.81,-29.36 114.4,-25.15"/>
</g>
<!-- Node4 -->
<g id="node4" class="node">
<title>Node4</title>
<g id="a_node4"><a xlink:title=" ">
<polygon fill="#e0e0e0" stroke="#999999" points="222.5,-19 153.5,-19 153.5,0 222.5,0 222.5,-19"/>
<text text-anchor="middle" x="188" y="-7" font-family="Helvetica,sans-Serif" font-size="10.00">type_traits</text>
</a>
</g>
</g>
<!-- Node1&#45;&gt;Node4 -->
<g id="edge3" class="edge">
<title>Node1&#45;&gt;Node4</title>
<path fill="none" stroke="#63b8ff" d="M153.89,-54.84C160.29,-46.52 168.42,-35.96 175.13,-27.23"/>
<polygon fill="#63b8ff" stroke="#63b8ff" points="177.93,-29.33 181.26,-19.27 172.39,-25.06 177.93,-29.33"/>
</g>
<!-- Node5 -->
<g id="node5" class="node">
<title>Node5</title>
<g id="a_node5"><a xlink:title=" ">
<polygon fill="#e0e0e0" stroke="#999999" points="287.5,-19 240.5,-19 240.5,0 287.5,0 287.5,-19"/>
<text text-anchor="middle" x="264" y="-7" font-family="Helvetica,sans-Serif" font-size="10.00">vector</text>
</a>
</g>
</g>
<!-- Node1&#45;&gt;Node5 -->
<g id="edge4" class="edge">
<title>Node1&#45;&gt;Node5</title>
<path fill="none" stroke="#63b8ff" d="M171.98,-54.99C191.72,-45.45 217.67,-32.9 236.97,-23.57"/>
<polygon fill="#63b8ff" stroke="#63b8ff" points="238.65,-26.64 246.13,-19.14 235.6,-20.34 238.65,-26.64"/>
</g>
</g>
</svg>
