<?xml version="1.0" encoding="UTF-8" standalone="no"?>
<!DOCTYPE svg PUBLIC "-//W3C//DTD SVG 1.1//EN"
 "http://www.w3.org/Graphics/SVG/1.1/DTD/svg11.dtd">
<!-- Generated by graphviz version 2.43.0 (0)
 -->
<!-- Title: library/text/cpp/include/tetengo/text/grapheme_splitting/default_characterX.hpp Pages: 1 -->
<svg width="286pt" height="184pt"
 viewBox="0.00 0.00 286.00 184.00" xmlns="http://www.w3.org/2000/svg" xmlns:xlink="http://www.w3.org/1999/xlink">
<g id="graph0" class="graph" transform="scale(1 1) rotate(0) translate(4 180)">
<title>library/text/cpp/include/tetengo/text/grapheme_splitting/default_characterX.hpp</title>
<polygon fill="white" stroke="transparent" points="-4,4 -4,-180 282,-180 282,4 -4,4"/>
<!-- Node1 -->
<g id="node1" class="node">
<title>Node1</title>
<g id="a_node1"><a xlink:title="A default character width.">
<polygon fill="#bfbfbf" stroke="black" points="0,-134.5 0,-175.5 178,-175.5 178,-134.5 0,-134.5"/>
<text text-anchor="start" x="8" y="-163.5" font-family="Helvetica,sans-Serif" font-size="10.00">library/text/cpp/include</text>
<text text-anchor="start" x="8" y="-152.5" font-family="Helvetica,sans-Serif" font-size="10.00">/tetengo/text/grapheme</text>
<text text-anchor="middle" x="89" y="-141.5" font-family="Helvetica,sans-Serif" font-size="10.00">_splitting/default_characterX.hpp</text>
</a>
</g>
</g>
<!-- Node2 -->
<g id="node2" class="node">
<title>Node2</title>
<g id="a_node2"><a xlink:title=" ">
<polygon fill="white" stroke="#bfbfbf" points="29.5,-0.5 29.5,-19.5 82.5,-19.5 82.5,-0.5 29.5,-0.5"/>
<text text-anchor="middle" x="56" y="-7.5" font-family="Helvetica,sans-Serif" font-size="10.00">cstddef</text>
</a>
</g>
</g>
<!-- Node1&#45;&gt;Node2 -->
<g id="edge1" class="edge">
<title>Node1&#45;&gt;Node2</title>
<path fill="none" stroke="midnightblue" d="M71.33,-134.28C63.46,-124.19 55.07,-111.25 51,-98 43.97,-75.13 47.54,-47.31 51.29,-29.38"/>
<polygon fill="midnightblue" stroke="midnightblue" points="54.7,-30.17 53.56,-19.64 47.88,-28.58 54.7,-30.17"/>
</g>
<!-- Node3 -->
<g id="node3" class="node">
<title>Node3</title>
<g id="a_node3"><a xlink:title=" ">
<polygon fill="white" stroke="#bfbfbf" points="60,-67.5 60,-86.5 118,-86.5 118,-67.5 60,-67.5"/>
<text text-anchor="middle" x="89" y="-74.5" font-family="Helvetica,sans-Serif" font-size="10.00">memory</text>
</a>
</g>
</g>
<!-- Node1&#45;&gt;Node3 -->
<g id="edge2" class="edge">
<title>Node1&#45;&gt;Node3</title>
<path fill="none" stroke="midnightblue" d="M89,-134.43C89,-122.82 89,-108.18 89,-96.72"/>
<polygon fill="midnightblue" stroke="midnightblue" points="92.5,-96.55 89,-86.55 85.5,-96.55 92.5,-96.55"/>
</g>
<!-- Node4 -->
<g id="node4" class="node">
<title>Node4</title>
<g id="a_node4"><a xlink:href="character__width_8hpp.html" target="_top" xlink:title="A character width.">
<polygon fill="white" stroke="black" points="136.5,-56.5 136.5,-97.5 265.5,-97.5 265.5,-56.5 136.5,-56.5"/>
<text text-anchor="start" x="144.5" y="-85.5" font-family="Helvetica,sans-Serif" font-size="10.00">tetengo/text/grapheme</text>
<text text-anchor="start" x="144.5" y="-74.5" font-family="Helvetica,sans-Serif" font-size="10.00">_splitting/character</text>
<text text-anchor="middle" x="201" y="-63.5" font-family="Helvetica,sans-Serif" font-size="10.00">_width.hpp</text>
</a>
</g>
</g>
<!-- Node1&#45;&gt;Node4 -->
<g id="edge3" class="edge">
<title>Node1&#45;&gt;Node4</title>
<path fill="none" stroke="midnightblue" d="M117.84,-134.43C131.82,-124.94 148.78,-113.44 163.72,-103.29"/>
<polygon fill="midnightblue" stroke="midnightblue" points="165.95,-106.02 172.25,-97.51 162.01,-100.22 165.95,-106.02"/>
</g>
<!-- Node4&#45;&gt;Node2 -->
<g id="edge4" class="edge">
<title>Node4&#45;&gt;Node2</title>
<path fill="none" stroke="midnightblue" d="M157.5,-56.5C133.87,-45.91 105.34,-33.12 84.55,-23.8"/>
<polygon fill="midnightblue" stroke="midnightblue" points="85.86,-20.55 75.3,-19.65 83,-26.94 85.86,-20.55"/>
</g>
<!-- Node5 -->
<g id="node5" class="node">
<title>Node5</title>
<g id="a_node5"><a xlink:title=" ">
<polygon fill="white" stroke="#bfbfbf" points="124,-0.5 124,-19.5 278,-19.5 278,-0.5 124,-0.5"/>
<text text-anchor="middle" x="201" y="-7.5" font-family="Helvetica,sans-Serif" font-size="10.00">boost/core/noncopyable.hpp</text>
</a>
</g>
</g>
<!-- Node4&#45;&gt;Node5 -->
<g id="edge5" class="edge">
<title>Node4&#45;&gt;Node5</title>
<path fill="none" stroke="midnightblue" d="M201,-56.5C201,-48.07 201,-38.24 201,-29.87"/>
<polygon fill="midnightblue" stroke="midnightblue" points="204.5,-29.65 201,-19.65 197.5,-29.65 204.5,-29.65"/>
</g>
</g>
</svg>
