<?xml version="1.0" encoding="UTF-8" standalone="no"?>
<!DOCTYPE svg PUBLIC "-//W3C//DTD SVG 1.1//EN"
 "http://www.w3.org/Graphics/SVG/1.1/DTD/svg11.dtd">
<!-- Generated by graphviz version 2.43.0 (0)
 -->
<!-- Title: library/trie/cpp/include/tetengo/trie/default_serializer.hpp Pages: 1 -->
<svg width="296pt" height="95pt"
 viewBox="0.00 0.00 295.50 95.00" xmlns="http://www.w3.org/2000/svg" xmlns:xlink="http://www.w3.org/1999/xlink">
<g id="graph0" class="graph" transform="scale(1 1) rotate(0) translate(4 91)">
<title>library/trie/cpp/include/tetengo/trie/default_serializer.hpp</title>
<polygon fill="white" stroke="transparent" points="-4,4 -4,-91 291.5,-91 291.5,4 -4,4"/>
<!-- Node1 -->
<g id="node1" class="node">
<title>Node1</title>
<g id="a_node1"><a xlink:title="A default serializer.">
<polygon fill="#bfbfbf" stroke="black" points="50.5,-56.5 50.5,-86.5 235.5,-86.5 235.5,-56.5 50.5,-56.5"/>
<text text-anchor="start" x="58.5" y="-74.5" font-family="Helvetica,sans-Serif" font-size="10.00">library/trie/cpp/include</text>
<text text-anchor="middle" x="143" y="-63.5" font-family="Helvetica,sans-Serif" font-size="10.00">/tetengo/trie/default_serializer.hpp</text>
</a>
</g>
</g>
<!-- Node2 -->
<g id="node2" class="node">
<title>Node2</title>
<g id="a_node2"><a xlink:title=" ">
<polygon fill="white" stroke="#bfbfbf" points="0,-0.5 0,-19.5 44,-19.5 44,-0.5 0,-0.5"/>
<text text-anchor="middle" x="22" y="-7.5" font-family="Helvetica,sans-Serif" font-size="10.00">string</text>
</a>
</g>
</g>
<!-- Node1&#45;&gt;Node2 -->
<g id="edge1" class="edge">
<title>Node1&#45;&gt;Node2</title>
<path fill="none" stroke="midnightblue" d="M114.32,-56.4C94.48,-46.64 68.24,-33.74 48.81,-24.18"/>
<polygon fill="midnightblue" stroke="midnightblue" points="50.12,-20.93 39.61,-19.66 47.04,-27.21 50.12,-20.93"/>
</g>
<!-- Node3 -->
<g id="node3" class="node">
<title>Node3</title>
<g id="a_node3"><a xlink:title=" ">
<polygon fill="white" stroke="#bfbfbf" points="62.5,-0.5 62.5,-19.5 135.5,-19.5 135.5,-0.5 62.5,-0.5"/>
<text text-anchor="middle" x="99" y="-7.5" font-family="Helvetica,sans-Serif" font-size="10.00">string_view</text>
</a>
</g>
</g>
<!-- Node1&#45;&gt;Node3 -->
<g id="edge2" class="edge">
<title>Node1&#45;&gt;Node3</title>
<path fill="none" stroke="midnightblue" d="M132.57,-56.4C126.24,-47.84 118.13,-36.87 111.47,-27.86"/>
<polygon fill="midnightblue" stroke="midnightblue" points="114.16,-25.62 105.4,-19.66 108.53,-29.78 114.16,-25.62"/>
</g>
<!-- Node4 -->
<g id="node4" class="node">
<title>Node4</title>
<g id="a_node4"><a xlink:title=" ">
<polygon fill="white" stroke="#bfbfbf" points="153.5,-0.5 153.5,-19.5 222.5,-19.5 222.5,-0.5 153.5,-0.5"/>
<text text-anchor="middle" x="188" y="-7.5" font-family="Helvetica,sans-Serif" font-size="10.00">type_traits</text>
</a>
</g>
</g>
<!-- Node1&#45;&gt;Node4 -->
<g id="edge3" class="edge">
<title>Node1&#45;&gt;Node4</title>
<path fill="none" stroke="midnightblue" d="M153.66,-56.4C160.14,-47.84 168.43,-36.87 175.25,-27.86"/>
<polygon fill="midnightblue" stroke="midnightblue" points="178.21,-29.74 181.45,-19.66 172.63,-25.52 178.21,-29.74"/>
</g>
<!-- Node5 -->
<g id="node5" class="node">
<title>Node5</title>
<g id="a_node5"><a xlink:title=" ">
<polygon fill="white" stroke="#bfbfbf" points="240.5,-0.5 240.5,-19.5 287.5,-19.5 287.5,-0.5 240.5,-0.5"/>
<text text-anchor="middle" x="264" y="-7.5" font-family="Helvetica,sans-Serif" font-size="10.00">vector</text>
</a>
</g>
</g>
<!-- Node1&#45;&gt;Node5 -->
<g id="edge4" class="edge">
<title>Node1&#45;&gt;Node5</title>
<path fill="none" stroke="midnightblue" d="M171.68,-56.4C191.52,-46.64 217.76,-33.74 237.19,-24.18"/>
<polygon fill="midnightblue" stroke="midnightblue" points="238.96,-27.21 246.39,-19.66 235.88,-20.93 238.96,-27.21"/>
</g>
</g>
</svg>
