<?xml version="1.0" encoding="UTF-8" standalone="no"?>
<!DOCTYPE svg PUBLIC "-//W3C//DTD SVG 1.1//EN"
 "http://www.w3.org/Graphics/SVG/1.1/DTD/svg11.dtd">
<!-- Generated by graphviz version 2.43.0 (0)
 -->
<!-- Title: library/property Pages: 1 -->
<svg width="258pt" height="111pt"
 viewBox="0.00 0.00 258.00 111.00" xmlns="http://www.w3.org/2000/svg" xmlns:xlink="http://www.w3.org/1999/xlink">
<g id="graph0" class="graph" transform="scale(1 1) rotate(0) translate(4 107)">
<title>library/property</title>
<polygon fill="white" stroke="transparent" points="-4,4 -4,-107 254,-107 254,4 -4,4"/>
<g id="clust1" class="cluster">
<title>clusterdir_e3d620c6b6fdb93ed3bc6186215bde2e</title>
<g id="a_clust1"><a xlink:href="dir_e3d620c6b6fdb93ed3bc6186215bde2e.html" target="_top" xlink:title="library">
<polygon fill="#edf0f7" stroke="#404040" stroke-dasharray="5,2" points="8,-8 8,-95 242,-95 242,-8 8,-8"/>
<text text-anchor="middle" x="125" y="-83" font-family="Helvetica,sans-Serif" font-size="10.00">library</text>
</a>
</g>
</g>
<g id="clust2" class="cluster">
<title>clusterdir_c998fc05e68026c80e97346ebde53008</title>
<g id="a_clust2"><a xlink:href="dir_c998fc05e68026c80e97346ebde53008.html" target="_top">
<polygon fill="#edf0f7" stroke="#404040" stroke-width="2" points="16,-16 16,-68 234,-68 234,-16 16,-16"/>
</a>
</g>
</g>
<!-- dir_c998fc05e68026c80e97346ebde53008 -->
<g id="node1" class="node">
<title>dir_c998fc05e68026c80e97346ebde53008</title>
<text text-anchor="middle" x="197" y="-39.5" font-family="Helvetica,sans-Serif" font-size="10.00">property</text>
</g>
<!-- dir_c12a3c8ed6624e243b12be37957ceb0e -->
<g id="node2" class="node">
<title>dir_c12a3c8ed6624e243b12be37957ceb0e</title>
<g id="a_node2"><a xlink:href="dir_c12a3c8ed6624e243b12be37957ceb0e.html" target="_top" xlink:title="c">
<polygon fill="#a2b4d6" stroke="#404040" points="150,-60 96,-60 96,-24 150,-24 150,-60"/>
<text text-anchor="middle" x="123" y="-39.5" font-family="Helvetica,sans-Serif" font-size="10.00">c</text>
</a>
</g>
</g>
<!-- dir_2a1e58becf1a483695777741c98f50c5 -->
<g id="node3" class="node">
<title>dir_2a1e58becf1a483695777741c98f50c5</title>
<g id="a_node3"><a xlink:href="dir_2a1e58becf1a483695777741c98f50c5.html" target="_top" xlink:title="cpp">
<polygon fill="#a2b4d6" stroke="#404040" points="78,-60 24,-60 24,-24 78,-24 78,-60"/>
<text text-anchor="middle" x="51" y="-39.5" font-family="Helvetica,sans-Serif" font-size="10.00">cpp</text>
</a>
</g>
</g>
</g>
</svg>
