<?xml version="1.0" encoding="UTF-8" standalone="no"?>
<!DOCTYPE svg PUBLIC "-//W3C//DTD SVG 1.1//EN"
 "http://www.w3.org/Graphics/SVG/1.1/DTD/svg11.dtd">
<!-- Generated by graphviz version 2.43.0 (0)
 -->
<!-- Title: library/text/cpp/include/tetengo/text Pages: 1 -->
<svg width="318pt" height="111pt"
 viewBox="0.00 0.00 318.00 111.00" xmlns="http://www.w3.org/2000/svg" xmlns:xlink="http://www.w3.org/1999/xlink">
<g id="graph0" class="graph" transform="scale(1 1) rotate(0) translate(4 107)">
<title>library/text/cpp/include/tetengo/text</title>
<polygon fill="white" stroke="transparent" points="-4,4 -4,-107 314,-107 314,4 -4,4"/>
<g id="clust1" class="cluster">
<title>clusterdir_3a034e7accb0412c91eec13d53ce3f37</title>
<g id="a_clust1"><a xlink:href="dir_3a034e7accb0412c91eec13d53ce3f37.html" target="_top" xlink:title="tetengo">
<polygon fill="#edf0f7" stroke="#7f7f7f" stroke-dasharray="5,2" points="8,-8 8,-95 302,-95 302,-8 8,-8"/>
<text text-anchor="middle" x="155" y="-83" font-family="Helvetica,sans-Serif" font-size="10.00">tetengo</text>
</a>
</g>
</g>
<g id="clust2" class="cluster">
<title>clusterdir_f465c8172f2859323ab1819ddb42bcaf</title>
<g id="a_clust2"><a xlink:href="dir_f465c8172f2859323ab1819ddb42bcaf.html" target="_top">
<polygon fill="#edf0f7" stroke="#404040" stroke-width="2" points="16,-16 16,-68 294,-68 294,-16 16,-16"/>
</a>
</g>
</g>
<!-- dir_f465c8172f2859323ab1819ddb42bcaf -->
<g id="node1" class="node">
<title>dir_f465c8172f2859323ab1819ddb42bcaf</title>
<text text-anchor="middle" x="259" y="-39.5" font-family="Helvetica,sans-Serif" font-size="10.00">text</text>
</g>
<!-- dir_fde794cfa7c4e782c27de64a8ba3e6ac -->
<g id="node2" class="node">
<title>dir_fde794cfa7c4e782c27de64a8ba3e6ac</title>
<g id="a_node2"><a xlink:href="dir_fde794cfa7c4e782c27de64a8ba3e6ac.html" target="_top" xlink:title="encoding">
<polygon fill="#a2b4d6" stroke="#404040" points="213.5,-60 152.5,-60 152.5,-24 213.5,-24 213.5,-60"/>
<text text-anchor="middle" x="183" y="-39.5" font-family="Helvetica,sans-Serif" font-size="10.00">encoding</text>
</a>
</g>
</g>
<!-- dir_8fd7b9961c7946177a727e4878df8219 -->
<g id="node3" class="node">
<title>dir_8fd7b9961c7946177a727e4878df8219</title>
<g id="a_node3"><a xlink:href="dir_8fd7b9961c7946177a727e4878df8219.html" target="_top" xlink:title="grapheme_splitting">
<polygon fill="#a2b4d6" stroke="#404040" points="134.5,-60 23.5,-60 23.5,-24 134.5,-24 134.5,-60"/>
<text text-anchor="middle" x="79" y="-39.5" font-family="Helvetica,sans-Serif" font-size="10.00">grapheme_splitting</text>
</a>
</g>
</g>
</g>
</svg>
