<?xml version="1.0" encoding="UTF-8" standalone="no"?>
<!DOCTYPE svg PUBLIC "-//W3C//DTD SVG 1.1//EN"
 "http://www.w3.org/Graphics/SVG/1.1/DTD/svg11.dtd">
<!-- Generated by graphviz version 2.43.0 (0)
 -->
<!-- Title: library/lattice Pages: 1 -->
<svg width="254pt" height="111pt"
 viewBox="0.00 0.00 254.00 111.00" xmlns="http://www.w3.org/2000/svg" xmlns:xlink="http://www.w3.org/1999/xlink">
<g id="graph0" class="graph" transform="scale(1 1) rotate(0) translate(4 107)">
<title>library/lattice</title>
<polygon fill="white" stroke="transparent" points="-4,4 -4,-107 250,-107 250,4 -4,4"/>
<g id="clust1" class="cluster">
<title>clusterdir_e3d620c6b6fdb93ed3bc6186215bde2e</title>
<g id="a_clust1"><a xlink:href="dir_e3d620c6b6fdb93ed3bc6186215bde2e.html" target="_top" xlink:title="library">
<polygon fill="#edf0f7" stroke="#404040" stroke-dasharray="5,2" points="8,-8 8,-95 238,-95 238,-8 8,-8"/>
<text text-anchor="middle" x="123" y="-83" font-family="Helvetica,sans-Serif" font-size="10.00">library</text>
</a>
</g>
</g>
<g id="clust2" class="cluster">
<title>clusterdir_78c62c6a2a625d59a6eb56e05bf112c4</title>
<g id="a_clust2"><a xlink:href="dir_78c62c6a2a625d59a6eb56e05bf112c4.html" target="_top">
<polygon fill="#edf0f7" stroke="#404040" stroke-width="2" points="16,-16 16,-68 230,-68 230,-16 16,-16"/>
</a>
</g>
</g>
<!-- dir_78c62c6a2a625d59a6eb56e05bf112c4 -->
<g id="node1" class="node">
<title>dir_78c62c6a2a625d59a6eb56e05bf112c4</title>
<text text-anchor="middle" x="195" y="-39.5" font-family="Helvetica,sans-Serif" font-size="10.00">lattice</text>
</g>
<!-- dir_3f8047babad39e1424535c2438d7ded3 -->
<g id="node2" class="node">
<title>dir_3f8047babad39e1424535c2438d7ded3</title>
<g id="a_node2"><a xlink:href="dir_3f8047babad39e1424535c2438d7ded3.html" target="_top" xlink:title="c">
<polygon fill="#a2b4d6" stroke="#404040" points="150,-60 96,-60 96,-24 150,-24 150,-60"/>
<text text-anchor="middle" x="123" y="-39.5" font-family="Helvetica,sans-Serif" font-size="10.00">c</text>
</a>
</g>
</g>
<!-- dir_0560ddb97ea969809091a04dd0e01090 -->
<g id="node3" class="node">
<title>dir_0560ddb97ea969809091a04dd0e01090</title>
<g id="a_node3"><a xlink:href="dir_0560ddb97ea969809091a04dd0e01090.html" target="_top" xlink:title="cpp">
<polygon fill="#a2b4d6" stroke="#404040" points="78,-60 24,-60 24,-24 78,-24 78,-60"/>
<text text-anchor="middle" x="51" y="-39.5" font-family="Helvetica,sans-Serif" font-size="10.00">cpp</text>
</a>
</g>
</g>
</g>
</svg>
