<?xml version="1.0" encoding="UTF-8" standalone="no"?>
<!DOCTYPE svg PUBLIC "-//W3C//DTD SVG 1.1//EN"
 "http://www.w3.org/Graphics/SVG/1.1/DTD/svg11.dtd">
<!-- Generated by graphviz version 2.43.0 (0)
 -->
<!-- Title: library/trie/cpp/include/tetengo/trie/double_array.hpp Pages: 1 -->
<!--zoomable 173 -->
<svg id="main" version="1.1" xmlns="http://www.w3.org/2000/svg" xmlns:xlink="http://www.w3.org/1999/xlink" xml:space="preserve" onload="init(evt)">
<style type="text/css"><![CDATA[
.edge:hover path { stroke: red; }
.edge:hover polygon { stroke: red; fill: red; }
]]></style>
<script type="text/javascript"><![CDATA[
var edges = document.getElementsByTagName('g');
if (edges && edges.length) {
  for (var i=0;i<edges.length;i++) {
    if (edges[i].id.substr(0,4)=='edge') {
      edges[i].setAttribute('class','edge');
    }
  }
}
]]></script>
        <defs>
                <circle id="rim" cx="0" cy="0" r="7"/>
                <circle id="rim2" cx="0" cy="0" r="3.5"/>
                <g id="zoomPlus">
                        <use xlink:href="#rim" fill="#404040">
                                <set attributeName="fill" to="#808080" begin="zoomplus.mouseover" end="zoomplus.mouseout"/>
                        </use>
                        <path d="M-4,0h8M0,-4v8" fill="none" stroke="white" stroke-width="1.5" pointer-events="none"/>
                </g>
                <g id="zoomMin">
                        <use xlink:href="#rim" fill="#404040">
                                <set attributeName="fill" to="#808080" begin="zoomminus.mouseover" end="zoomminus.mouseout"/>
                        </use>
                        <path d="M-4,0h8" fill="none" stroke="white" stroke-width="1.5" pointer-events="none"/>
                </g>
                <g id="dirArrow">
                        <path fill="none" stroke="white" stroke-width="1.5" d="M0,-3.0v7 M-2.5,-0.5L0,-3.0L2.5,-0.5"/>
                </g>
               <g id="resetDef">
                       <use xlink:href="#rim2" fill="#404040">
                               <set attributeName="fill" to="#808080" begin="reset.mouseover" end="reset.mouseout"/>
                       </use>
               </g>
        </defs>

<script type="text/javascript">
var viewWidth = 866;
var viewHeight = 173;
var sectionId = 'dynsection-0';
</script>
<script xlink:href="svgpan.js"/>
<svg id="graph" class="graph">
<g id="viewport">
<title>library/trie/cpp/include/tetengo/trie/double_array.hpp</title>
<polygon fill="white" stroke="transparent" points="-4,4 -4,-169 861.5,-169 861.5,4 -4,4"/>
<!-- Node1 -->
<g id="node1" class="node">
<title>Node1</title>
<g id="a_node1"><a xlink:title="A double array.">
<polygon fill="#bfbfbf" stroke="black" points="304,-134.5 304,-164.5 467,-164.5 467,-134.5 304,-134.5"/>
<text text-anchor="start" x="312" y="-152.5" font-family="Helvetica,sans-Serif" font-size="10.00">library/trie/cpp/include</text>
<text text-anchor="middle" x="385.5" y="-141.5" font-family="Helvetica,sans-Serif" font-size="10.00">/tetengo/trie/double_array.hpp</text>
</a>
</g>
</g>
<!-- Node2 -->
<g id="node2" class="node">
<title>Node2</title>
<g id="a_node2"><a xlink:title=" ">
<polygon fill="white" stroke="#bfbfbf" points="0,-6 0,-25 53,-25 53,-6 0,-6"/>
<text text-anchor="middle" x="26.5" y="-13" font-family="Helvetica,sans-Serif" font-size="10.00">cstddef</text>
</a>
</g>
</g>
<!-- Node1&#45;&gt;Node2 -->
<g id="edge1" class="edge">
<title>Node1&#45;&gt;Node2</title>
<path fill="none" stroke="midnightblue" d="M303.74,-139.24C256.43,-131.93 196.54,-119.3 146.5,-98 106.81,-81.11 66.52,-50.34 44.19,-31.82"/>
<polygon fill="midnightblue" stroke="midnightblue" points="46.2,-28.93 36.3,-25.16 41.68,-34.28 46.2,-28.93"/>
</g>
<!-- Node3 -->
<g id="node3" class="node">
<title>Node3</title>
<g id="a_node3"><a xlink:title=" ">
<polygon fill="white" stroke="#bfbfbf" points="71.5,-6 71.5,-25 121.5,-25 121.5,-6 71.5,-6"/>
<text text-anchor="middle" x="96.5" y="-13" font-family="Helvetica,sans-Serif" font-size="10.00">cstdint</text>
</a>
</g>
</g>
<!-- Node1&#45;&gt;Node3 -->
<g id="edge2" class="edge">
<title>Node1&#45;&gt;Node3</title>
<path fill="none" stroke="midnightblue" d="M303.66,-135.54C268.15,-127.81 226.91,-115.91 192.5,-98 159.73,-80.94 128.39,-50.89 110.87,-32.43"/>
<polygon fill="midnightblue" stroke="midnightblue" points="113.41,-30.03 104.04,-25.08 108.29,-34.79 113.41,-30.03"/>
</g>
<!-- Node4 -->
<g id="node4" class="node">
<title>Node4</title>
<g id="a_node4"><a xlink:title=" ">
<polygon fill="white" stroke="#bfbfbf" points="452,-73 452,-92 517,-92 517,-73 452,-73"/>
<text text-anchor="middle" x="484.5" y="-80" font-family="Helvetica,sans-Serif" font-size="10.00">functional</text>
</a>
</g>
</g>
<!-- Node1&#45;&gt;Node4 -->
<g id="edge3" class="edge">
<title>Node1&#45;&gt;Node4</title>
<path fill="none" stroke="midnightblue" d="M406.98,-134.4C423.58,-123.5 446.46,-108.48 463.05,-97.58"/>
<polygon fill="midnightblue" stroke="midnightblue" points="465.1,-100.42 471.54,-92.01 461.26,-94.57 465.1,-100.42"/>
</g>
<!-- Node5 -->
<g id="node5" class="node">
<title>Node5</title>
<g id="a_node5"><a xlink:title=" ">
<polygon fill="white" stroke="#bfbfbf" points="535.5,-73 535.5,-92 593.5,-92 593.5,-73 535.5,-73"/>
<text text-anchor="middle" x="564.5" y="-80" font-family="Helvetica,sans-Serif" font-size="10.00">memory</text>
</a>
</g>
</g>
<!-- Node1&#45;&gt;Node5 -->
<g id="edge4" class="edge">
<title>Node1&#45;&gt;Node5</title>
<path fill="none" stroke="midnightblue" d="M425.39,-134.46C453.67,-124.45 492.48,-110.58 526.5,-98 528.6,-97.22 530.76,-96.42 532.94,-95.6"/>
<polygon fill="midnightblue" stroke="midnightblue" points="534.31,-98.82 542.43,-92.01 531.83,-92.28 534.31,-98.82"/>
</g>
<!-- Node6 -->
<g id="node6" class="node">
<title>Node6</title>
<g id="a_node6"><a xlink:title=" ">
<polygon fill="white" stroke="#bfbfbf" points="139.5,-6 139.5,-25 195.5,-25 195.5,-6 139.5,-6"/>
<text text-anchor="middle" x="167.5" y="-13" font-family="Helvetica,sans-Serif" font-size="10.00">optional</text>
</a>
</g>
</g>
<!-- Node1&#45;&gt;Node6 -->
<g id="edge5" class="edge">
<title>Node1&#45;&gt;Node6</title>
<path fill="none" stroke="midnightblue" d="M305.75,-134.49C278.17,-126.92 248.25,-115.4 224.5,-98 201.7,-81.3 184.75,-52.63 175.5,-34.13"/>
<polygon fill="midnightblue" stroke="midnightblue" points="178.62,-32.56 171.16,-25.04 172.3,-35.57 178.62,-32.56"/>
</g>
<!-- Node7 -->
<g id="node7" class="node">
<title>Node7</title>
<g id="a_node7"><a xlink:title=" ">
<polygon fill="white" stroke="#bfbfbf" points="213.5,-6 213.5,-25 257.5,-25 257.5,-6 213.5,-6"/>
<text text-anchor="middle" x="235.5" y="-13" font-family="Helvetica,sans-Serif" font-size="10.00">string</text>
</a>
</g>
</g>
<!-- Node1&#45;&gt;Node7 -->
<g id="edge6" class="edge">
<title>Node1&#45;&gt;Node7</title>
<path fill="none" stroke="midnightblue" d="M303.87,-138.58C278.98,-131.36 254.1,-119.02 238.5,-98 225.09,-79.92 227.18,-52.86 230.69,-34.95"/>
<polygon fill="midnightblue" stroke="midnightblue" points="234.11,-35.67 232.93,-25.14 227.29,-34.11 234.11,-35.67"/>
</g>
<!-- Node8 -->
<g id="node8" class="node">
<title>Node8</title>
<g id="a_node8"><a xlink:title=" ">
<polygon fill="white" stroke="#bfbfbf" points="612,-73 612,-92 685,-92 685,-73 612,-73"/>
<text text-anchor="middle" x="648.5" y="-80" font-family="Helvetica,sans-Serif" font-size="10.00">string_view</text>
</a>
</g>
</g>
<!-- Node1&#45;&gt;Node8 -->
<g id="edge7" class="edge">
<title>Node1&#45;&gt;Node8</title>
<path fill="none" stroke="midnightblue" d="M451.83,-134.45C494.97,-124.97 552.32,-111.73 602.5,-98 605.83,-97.09 609.28,-96.09 612.73,-95.07"/>
<polygon fill="midnightblue" stroke="midnightblue" points="613.79,-98.4 622.33,-92.13 611.74,-91.71 613.79,-98.4"/>
</g>
<!-- Node9 -->
<g id="node9" class="node">
<title>Node9</title>
<g id="a_node9"><a xlink:title=" ">
<polygon fill="white" stroke="#bfbfbf" points="551,-6 551,-25 596,-25 596,-6 551,-6"/>
<text text-anchor="middle" x="573.5" y="-13" font-family="Helvetica,sans-Serif" font-size="10.00">utility</text>
</a>
</g>
</g>
<!-- Node1&#45;&gt;Node9 -->
<g id="edge8" class="edge">
<title>Node1&#45;&gt;Node9</title>
<path fill="none" stroke="midnightblue" d="M385.66,-134.3C386.66,-116.15 391.15,-84.95 409.5,-67 453.28,-24.18 484.99,-52.05 542.5,-31 544.11,-30.41 545.75,-29.77 547.4,-29.1"/>
<polygon fill="midnightblue" stroke="midnightblue" points="548.93,-32.25 556.67,-25.02 546.11,-25.84 548.93,-32.25"/>
</g>
<!-- Node10 -->
<g id="node10" class="node">
<title>Node10</title>
<g id="a_node10"><a xlink:title=" ">
<polygon fill="white" stroke="#bfbfbf" points="614,-6 614,-25 661,-25 661,-6 614,-6"/>
<text text-anchor="middle" x="637.5" y="-13" font-family="Helvetica,sans-Serif" font-size="10.00">vector</text>
</a>
</g>
</g>
<!-- Node1&#45;&gt;Node10 -->
<g id="edge9" class="edge">
<title>Node1&#45;&gt;Node10</title>
<path fill="none" stroke="midnightblue" d="M391.64,-134.23C400.37,-115.71 418.17,-83.79 443.5,-67 504.97,-26.24 535.54,-54.35 605.5,-31 607.17,-30.44 608.87,-29.83 610.57,-29.17"/>
<polygon fill="midnightblue" stroke="midnightblue" points="612.29,-32.25 620.16,-25.14 609.58,-25.79 612.29,-32.25"/>
</g>
<!-- Node11 -->
<g id="node11" class="node">
<title>Node11</title>
<g id="a_node11"><a xlink:title=" ">
<polygon fill="white" stroke="#bfbfbf" points="703.5,-73 703.5,-92 857.5,-92 857.5,-73 703.5,-73"/>
<text text-anchor="middle" x="780.5" y="-80" font-family="Helvetica,sans-Serif" font-size="10.00">boost/core/noncopyable.hpp</text>
</a>
</g>
</g>
<!-- Node1&#45;&gt;Node11 -->
<g id="edge10" class="edge">
<title>Node1&#45;&gt;Node11</title>
<path fill="none" stroke="midnightblue" d="M467.17,-135.27C529.47,-125.15 617.42,-110.8 694.5,-98 702.77,-96.63 711.48,-95.17 720.06,-93.73"/>
<polygon fill="midnightblue" stroke="midnightblue" points="720.75,-97.16 730.03,-92.05 719.59,-90.26 720.75,-97.16"/>
</g>
<!-- Node12 -->
<g id="node12" class="node">
<title>Node12</title>
<g id="a_node12"><a xlink:href="double__array__iterator_8hpp.html" target="_top" xlink:title="A double array iterator.">
<polygon fill="white" stroke="black" points="247.5,-67.5 247.5,-97.5 357.5,-97.5 357.5,-67.5 247.5,-67.5"/>
<text text-anchor="start" x="255.5" y="-85.5" font-family="Helvetica,sans-Serif" font-size="10.00">tetengo/trie/double</text>
<text text-anchor="middle" x="302.5" y="-74.5" font-family="Helvetica,sans-Serif" font-size="10.00">_array_iterator.hpp</text>
</a>
</g>
</g>
<!-- Node1&#45;&gt;Node12 -->
<g id="edge11" class="edge">
<title>Node1&#45;&gt;Node12</title>
<path fill="none" stroke="midnightblue" d="M367.49,-134.4C356.07,-125.45 341.11,-113.74 328.42,-103.8"/>
<polygon fill="midnightblue" stroke="midnightblue" points="330.51,-100.99 320.47,-97.58 326.19,-106.5 330.51,-100.99"/>
</g>
<!-- Node12&#45;&gt;Node2 -->
<g id="edge12" class="edge">
<title>Node12&#45;&gt;Node2</title>
<path fill="none" stroke="midnightblue" d="M247.48,-72.76C198.38,-64.29 124.83,-49.95 62.5,-31 60.22,-30.31 57.87,-29.53 55.53,-28.7"/>
<polygon fill="midnightblue" stroke="midnightblue" points="56.67,-25.39 46.08,-25.11 54.19,-31.93 56.67,-25.39"/>
</g>
<!-- Node12&#45;&gt;Node3 -->
<g id="edge13" class="edge">
<title>Node12&#45;&gt;Node3</title>
<path fill="none" stroke="midnightblue" d="M248.52,-67.41C214.36,-58.06 169.46,-44.97 130.5,-31 128.64,-30.33 126.74,-29.62 124.83,-28.88"/>
<polygon fill="midnightblue" stroke="midnightblue" points="125.99,-25.57 115.4,-25.03 123.34,-32.05 125.99,-25.57"/>
</g>
<!-- Node12&#45;&gt;Node6 -->
<g id="edge15" class="edge">
<title>Node12&#45;&gt;Node6</title>
<path fill="none" stroke="midnightblue" d="M273.21,-67.4C249.73,-56.09 217.06,-40.36 194.27,-29.39"/>
<polygon fill="midnightblue" stroke="midnightblue" points="195.7,-26.19 185.17,-25.01 192.66,-32.5 195.7,-26.19"/>
</g>
<!-- Node12&#45;&gt;Node7 -->
<g id="edge17" class="edge">
<title>Node12&#45;&gt;Node7</title>
<path fill="none" stroke="midnightblue" d="M287.96,-67.4C277.31,-57.06 262.84,-43.02 251.8,-32.31"/>
<polygon fill="midnightblue" stroke="midnightblue" points="254.08,-29.65 244.46,-25.19 249.2,-34.67 254.08,-29.65"/>
</g>
<!-- Node12&#45;&gt;Node9 -->
<g id="edge18" class="edge">
<title>Node12&#45;&gt;Node9</title>
<path fill="none" stroke="midnightblue" d="M357.7,-69.9C428.39,-55.05 541.94,-31.19 542.5,-31 544.17,-30.44 545.86,-29.82 547.55,-29.16"/>
<polygon fill="midnightblue" stroke="midnightblue" points="549.27,-32.23 557.06,-25.05 546.49,-25.81 549.27,-32.23"/>
</g>
<!-- Node12&#45;&gt;Node10 -->
<g id="edge19" class="edge">
<title>Node12&#45;&gt;Node10</title>
<path fill="none" stroke="midnightblue" d="M357.73,-74.05C432.06,-63.73 560.22,-44.77 605.5,-31 607.43,-30.41 609.39,-29.74 611.34,-29.01"/>
<polygon fill="midnightblue" stroke="midnightblue" points="613,-32.11 620.88,-25.02 610.3,-25.65 613,-32.11"/>
</g>
<!-- Node13 -->
<g id="node13" class="node">
<title>Node13</title>
<g id="a_node13"><a xlink:title=" ">
<polygon fill="white" stroke="#bfbfbf" points="276,-6 276,-25 329,-25 329,-6 276,-6"/>
<text text-anchor="middle" x="302.5" y="-13" font-family="Helvetica,sans-Serif" font-size="10.00">iterator</text>
</a>
</g>
</g>
<!-- Node12&#45;&gt;Node13 -->
<g id="edge14" class="edge">
<title>Node12&#45;&gt;Node13</title>
<path fill="none" stroke="midnightblue" d="M302.5,-67.4C302.5,-58.06 302.5,-45.71 302.5,-35.52"/>
<polygon fill="midnightblue" stroke="midnightblue" points="306,-35.19 302.5,-25.19 299,-35.19 306,-35.19"/>
</g>
<!-- Node14 -->
<g id="node14" class="node">
<title>Node14</title>
<g id="a_node14"><a xlink:title=" ">
<polygon fill="white" stroke="#bfbfbf" points="347,-6 347,-25 390,-25 390,-6 347,-6"/>
<text text-anchor="middle" x="368.5" y="-13" font-family="Helvetica,sans-Serif" font-size="10.00">stack</text>
</a>
</g>
</g>
<!-- Node12&#45;&gt;Node14 -->
<g id="edge16" class="edge">
<title>Node12&#45;&gt;Node14</title>
<path fill="none" stroke="midnightblue" d="M316.82,-67.4C327.32,-57.06 341.57,-43.02 352.45,-32.31"/>
<polygon fill="midnightblue" stroke="midnightblue" points="355,-34.71 359.67,-25.19 350.09,-29.72 355,-34.71"/>
</g>
<!-- Node15 -->
<g id="node15" class="node">
<title>Node15</title>
<g id="a_node15"><a xlink:title=" ">
<polygon fill="white" stroke="#bfbfbf" points="408,-0.5 408,-30.5 533,-30.5 533,-0.5 408,-0.5"/>
<text text-anchor="start" x="416" y="-18.5" font-family="Helvetica,sans-Serif" font-size="10.00">boost/stl_interfaces</text>
<text text-anchor="middle" x="470.5" y="-7.5" font-family="Helvetica,sans-Serif" font-size="10.00">/iterator_interface.hpp</text>
</a>
</g>
</g>
<!-- Node12&#45;&gt;Node15 -->
<g id="edge20" class="edge">
<title>Node12&#45;&gt;Node15</title>
<path fill="none" stroke="midnightblue" d="M338.95,-67.4C364.05,-57.69 397.59,-44.71 424.52,-34.29"/>
<polygon fill="midnightblue" stroke="midnightblue" points="426.05,-37.45 434.12,-30.58 423.53,-30.92 426.05,-37.45"/>
</g>
</g>
</svg>
        <g id="navigator" transform="translate(0 0)" fill="#404254">
                <rect fill="#f2f5e9" fill-opacity="0.5" stroke="#606060" stroke-width=".5" x="0" y="0" width="60" height="60"/>
                <use id="zoomplus" xlink:href="#zoomPlus" x="17" y="9" onmousedown="handleZoom(evt,'in')"/>
                <use id="zoomminus" xlink:href="#zoomMin" x="42" y="9" onmousedown="handleZoom(evt,'out')"/>
                <use id="reset" xlink:href="#resetDef" x="30" y="36" onmousedown="handleReset()"/>
                <g id="arrowUp" xlink:href="#dirArrow" transform="translate(30 24)" onmousedown="handlePan(0,-1)">
                  <use xlink:href="#rim" fill="#404040">
                        <set attributeName="fill" to="#808080" begin="arrowUp.mouseover" end="arrowUp.mouseout"/>
                  </use>
                  <path fill="none" stroke="white" stroke-width="1.5" d="M0,-3.0v7 M-2.5,-0.5L0,-3.0L2.5,-0.5"/>
                </g>
                <g id="arrowRight" xlink:href="#dirArrow" transform="rotate(90) translate(36 -43)" onmousedown="handlePan(1,0)">
                  <use xlink:href="#rim" fill="#404040">
                        <set attributeName="fill" to="#808080" begin="arrowRight.mouseover" end="arrowRight.mouseout"/>
                  </use>
                  <path fill="none" stroke="white" stroke-width="1.5" d="M0,-3.0v7 M-2.5,-0.5L0,-3.0L2.5,-0.5"/>
                </g>
                <g id="arrowDown" xlink:href="#dirArrow" transform="rotate(180) translate(-30 -48)" onmousedown="handlePan(0,1)">
                  <use xlink:href="#rim" fill="#404040">
                        <set attributeName="fill" to="#808080" begin="arrowDown.mouseover" end="arrowDown.mouseout"/>
                  </use>
                  <path fill="none" stroke="white" stroke-width="1.5" d="M0,-3.0v7 M-2.5,-0.5L0,-3.0L2.5,-0.5"/>
                </g>
                <g id="arrowLeft" xlink:href="#dirArrow" transform="rotate(270) translate(-36 17)" onmousedown="handlePan(-1,0)">
                  <use xlink:href="#rim" fill="#404040">
                        <set attributeName="fill" to="#808080" begin="arrowLeft.mouseover" end="arrowLeft.mouseout"/>
                  </use>
                  <path fill="none" stroke="white" stroke-width="1.5" d="M0,-3.0v7 M-2.5,-0.5L0,-3.0L2.5,-0.5"/>
                </g>
        </g>
        <svg viewBox="0 0 15 15" width="100%" height="30px" preserveAspectRatio="xMaxYMin meet">
         <g id="arrow_out" transform="scale(0.3 0.3)">
          <a xlink:href="double__array_8hpp__incl_org.svg" target="_base">
           <rect id="button" ry="5" rx="5" y="6" x="6" height="38" width="38"
                fill="#f2f5e9" fill-opacity="0.5" stroke="#606060" stroke-width="1.0"/>
           <path id="arrow"
             d="M 11.500037,31.436501 C 11.940474,20.09759 22.043105,11.32322 32.158766,21.979434 L 37.068811,17.246167 C 37.068811,17.246167 37.088388,32 37.088388,32 L 22.160133,31.978069 C 22.160133,31.978069 26.997745,27.140456 26.997745,27.140456 C 18.528582,18.264221 13.291696,25.230495 11.500037,31.436501 z"
             style="fill:#404040;"/>
          </a>
         </g>
        </svg>
</svg>
