<?xml version="1.0" encoding="UTF-8" standalone="no"?>
<!DOCTYPE svg PUBLIC "-//W3C//DTD SVG 1.1//EN"
 "http://www.w3.org/Graphics/SVG/1.1/DTD/svg11.dtd">
<!-- Generated by graphviz version 2.43.0 (0)
 -->
<!-- Title: library/trie/cpp/include/tetengo/trie/double_array_iterator.hpp Pages: 1 -->
<svg width="348pt" height="184pt"
 viewBox="0.00 0.00 347.50 184.00" xmlns="http://www.w3.org/2000/svg" xmlns:xlink="http://www.w3.org/1999/xlink">
<g id="graph0" class="graph" transform="scale(1 1) rotate(0) translate(4 180)">
<title>library/trie/cpp/include/tetengo/trie/double_array_iterator.hpp</title>
<polygon fill="white" stroke="transparent" points="-4,4 -4,-180 343.5,-180 343.5,4 -4,4"/>
<!-- Node1 -->
<g id="node1" class="node">
<title>Node1</title>
<g id="a_node1"><a xlink:title="A double array iterator.">
<polygon fill="#bfbfbf" stroke="black" points="99,-134.5 99,-175.5 242,-175.5 242,-134.5 99,-134.5"/>
<text text-anchor="start" x="107" y="-163.5" font-family="Helvetica,sans-Serif" font-size="10.00">library/trie/cpp/include</text>
<text text-anchor="start" x="107" y="-152.5" font-family="Helvetica,sans-Serif" font-size="10.00">/tetengo/trie/double_array</text>
<text text-anchor="middle" x="170.5" y="-141.5" font-family="Helvetica,sans-Serif" font-size="10.00">_iterator.hpp</text>
</a>
</g>
</g>
<!-- Node2 -->
<g id="node2" class="node">
<title>Node2</title>
<g id="a_node2"><a xlink:href="double__array_8hpp.html" target="_top" xlink:title="A double array.">
<polygon fill="white" stroke="black" points="0,-67.5 0,-97.5 163,-97.5 163,-67.5 0,-67.5"/>
<text text-anchor="start" x="8" y="-85.5" font-family="Helvetica,sans-Serif" font-size="10.00">library/trie/cpp/include</text>
<text text-anchor="middle" x="81.5" y="-74.5" font-family="Helvetica,sans-Serif" font-size="10.00">/tetengo/trie/double_array.hpp</text>
</a>
</g>
</g>
<!-- Node1&#45;&gt;Node2 -->
<g id="edge1" class="edge">
<title>Node1&#45;&gt;Node2</title>
<path fill="none" stroke="midnightblue" d="M137.85,-128.14C124.85,-117.84 110.4,-106.39 99.39,-97.67"/>
<polygon fill="midnightblue" stroke="midnightblue" points="135.7,-130.9 145.71,-134.36 140.04,-125.41 135.7,-130.9"/>
</g>
<!-- Node3 -->
<g id="node3" class="node">
<title>Node3</title>
<g id="a_node3"><a xlink:href="trie__iterator_8hpp.html" target="_top" xlink:title="A trie iterator.">
<polygon fill="white" stroke="black" points="181.5,-67.5 181.5,-97.5 339.5,-97.5 339.5,-67.5 181.5,-67.5"/>
<text text-anchor="start" x="189.5" y="-85.5" font-family="Helvetica,sans-Serif" font-size="10.00">library/trie/cpp/include</text>
<text text-anchor="middle" x="260.5" y="-74.5" font-family="Helvetica,sans-Serif" font-size="10.00">/tetengo/trie/trie_iterator.hpp</text>
</a>
</g>
</g>
<!-- Node1&#45;&gt;Node3 -->
<g id="edge2" class="edge">
<title>Node1&#45;&gt;Node3</title>
<path fill="none" stroke="midnightblue" d="M203.52,-128.14C216.66,-117.84 231.27,-106.39 242.41,-97.67"/>
<polygon fill="midnightblue" stroke="midnightblue" points="201.28,-125.44 195.57,-134.36 205.6,-130.95 201.28,-125.44"/>
</g>
<!-- Node4 -->
<g id="node4" class="node">
<title>Node4</title>
<g id="a_node4"><a xlink:href="trie_8hpp.html" target="_top" xlink:title="A trie.">
<polygon fill="white" stroke="black" points="197.5,-0.5 197.5,-30.5 323.5,-30.5 323.5,-0.5 197.5,-0.5"/>
<text text-anchor="start" x="205.5" y="-18.5" font-family="Helvetica,sans-Serif" font-size="10.00">library/trie/cpp/include</text>
<text text-anchor="middle" x="260.5" y="-7.5" font-family="Helvetica,sans-Serif" font-size="10.00">/tetengo/trie/trie.hpp</text>
</a>
</g>
</g>
<!-- Node3&#45;&gt;Node4 -->
<g id="edge3" class="edge">
<title>Node3&#45;&gt;Node4</title>
<path fill="none" stroke="midnightblue" d="M260.5,-57.11C260.5,-48.15 260.5,-38.32 260.5,-30.58"/>
<polygon fill="midnightblue" stroke="midnightblue" points="257,-57.4 260.5,-67.4 264,-57.4 257,-57.4"/>
</g>
</g>
</svg>
