<?xml version="1.0" encoding="UTF-8" standalone="no"?>
<!DOCTYPE svg PUBLIC "-//W3C//DTD SVG 1.1//EN"
 "http://www.w3.org/Graphics/SVG/1.1/DTD/svg11.dtd">
<!-- Generated by graphviz version 2.43.0 (0)
 -->
<!-- Title: library/trie/cpp/include/tetengo/trie/double_array_iterator.hpp Pages: 1 -->
<svg width="671pt" height="117pt"
 viewBox="0.00 0.00 671.00 117.00" xmlns="http://www.w3.org/2000/svg" xmlns:xlink="http://www.w3.org/1999/xlink">
<g id="graph0" class="graph" transform="scale(1 1) rotate(0) translate(4 113)">
<title>library/trie/cpp/include/tetengo/trie/double_array_iterator.hpp</title>
<polygon fill="white" stroke="transparent" points="-4,4 -4,-113 667,-113 667,4 -4,4"/>
<!-- Node1 -->
<g id="node1" class="node">
<title>Node1</title>
<g id="a_node1"><a xlink:title="A double array iterator.">
<polygon fill="#bfbfbf" stroke="black" points="236,-67.5 236,-108.5 379,-108.5 379,-67.5 236,-67.5"/>
<text text-anchor="start" x="244" y="-96.5" font-family="Helvetica,sans-Serif" font-size="10.00">library/trie/cpp/include</text>
<text text-anchor="start" x="244" y="-85.5" font-family="Helvetica,sans-Serif" font-size="10.00">/tetengo/trie/double_array</text>
<text text-anchor="middle" x="307.5" y="-74.5" font-family="Helvetica,sans-Serif" font-size="10.00">_iterator.hpp</text>
</a>
</g>
</g>
<!-- Node2 -->
<g id="node2" class="node">
<title>Node2</title>
<g id="a_node2"><a xlink:title=" ">
<polygon fill="white" stroke="#bfbfbf" points="0,-6 0,-25 53,-25 53,-6 0,-6"/>
<text text-anchor="middle" x="26.5" y="-13" font-family="Helvetica,sans-Serif" font-size="10.00">cstddef</text>
</a>
</g>
</g>
<!-- Node1&#45;&gt;Node2 -->
<g id="edge1" class="edge">
<title>Node1&#45;&gt;Node2</title>
<path fill="none" stroke="midnightblue" d="M235.95,-73.76C186.66,-63.88 119.95,-49.01 62.5,-31 60.22,-30.29 57.88,-29.49 55.55,-28.65"/>
<polygon fill="midnightblue" stroke="midnightblue" points="56.69,-25.34 46.1,-25.05 54.2,-31.88 56.69,-25.34"/>
</g>
<!-- Node3 -->
<g id="node3" class="node">
<title>Node3</title>
<g id="a_node3"><a xlink:title=" ">
<polygon fill="white" stroke="#bfbfbf" points="71.5,-6 71.5,-25 121.5,-25 121.5,-6 71.5,-6"/>
<text text-anchor="middle" x="96.5" y="-13" font-family="Helvetica,sans-Serif" font-size="10.00">cstdint</text>
</a>
</g>
</g>
<!-- Node1&#45;&gt;Node3 -->
<g id="edge2" class="edge">
<title>Node1&#45;&gt;Node3</title>
<path fill="none" stroke="midnightblue" d="M240.58,-67.5C207.24,-57.36 166.47,-44.32 130.5,-31 128.85,-30.39 127.15,-29.74 125.45,-29.07"/>
<polygon fill="midnightblue" stroke="midnightblue" points="126.37,-25.66 115.79,-25.11 123.71,-32.14 126.37,-25.66"/>
</g>
<!-- Node4 -->
<g id="node4" class="node">
<title>Node4</title>
<g id="a_node4"><a xlink:title=" ">
<polygon fill="white" stroke="#bfbfbf" points="140,-6 140,-25 193,-25 193,-6 140,-6"/>
<text text-anchor="middle" x="166.5" y="-13" font-family="Helvetica,sans-Serif" font-size="10.00">iterator</text>
</a>
</g>
</g>
<!-- Node1&#45;&gt;Node4 -->
<g id="edge3" class="edge">
<title>Node1&#45;&gt;Node4</title>
<path fill="none" stroke="midnightblue" d="M268.22,-67.36C244.2,-55.35 214.11,-40.3 192.91,-29.7"/>
<polygon fill="midnightblue" stroke="midnightblue" points="194.36,-26.52 183.85,-25.17 191.23,-32.78 194.36,-26.52"/>
</g>
<!-- Node5 -->
<g id="node5" class="node">
<title>Node5</title>
<g id="a_node5"><a xlink:title=" ">
<polygon fill="white" stroke="#bfbfbf" points="211.5,-6 211.5,-25 267.5,-25 267.5,-6 211.5,-6"/>
<text text-anchor="middle" x="239.5" y="-13" font-family="Helvetica,sans-Serif" font-size="10.00">optional</text>
</a>
</g>
</g>
<!-- Node1&#45;&gt;Node5 -->
<g id="edge4" class="edge">
<title>Node1&#45;&gt;Node5</title>
<path fill="none" stroke="midnightblue" d="M288.56,-67.36C278.02,-56.43 265.05,-42.99 255.1,-32.67"/>
<polygon fill="midnightblue" stroke="midnightblue" points="257.33,-29.94 247.87,-25.17 252.29,-34.8 257.33,-29.94"/>
</g>
<!-- Node6 -->
<g id="node6" class="node">
<title>Node6</title>
<g id="a_node6"><a xlink:title=" ">
<polygon fill="white" stroke="#bfbfbf" points="286,-6 286,-25 329,-25 329,-6 286,-6"/>
<text text-anchor="middle" x="307.5" y="-13" font-family="Helvetica,sans-Serif" font-size="10.00">stack</text>
</a>
</g>
</g>
<!-- Node1&#45;&gt;Node6 -->
<g id="edge5" class="edge">
<title>Node1&#45;&gt;Node6</title>
<path fill="none" stroke="midnightblue" d="M307.5,-67.36C307.5,-57.3 307.5,-45.1 307.5,-35.18"/>
<polygon fill="midnightblue" stroke="midnightblue" points="311,-35.17 307.5,-25.17 304,-35.17 311,-35.17"/>
</g>
<!-- Node7 -->
<g id="node7" class="node">
<title>Node7</title>
<g id="a_node7"><a xlink:title=" ">
<polygon fill="white" stroke="#bfbfbf" points="347.5,-6 347.5,-25 391.5,-25 391.5,-6 347.5,-6"/>
<text text-anchor="middle" x="369.5" y="-13" font-family="Helvetica,sans-Serif" font-size="10.00">string</text>
</a>
</g>
</g>
<!-- Node1&#45;&gt;Node7 -->
<g id="edge6" class="edge">
<title>Node1&#45;&gt;Node7</title>
<path fill="none" stroke="midnightblue" d="M324.77,-67.36C334.29,-56.54 345.97,-43.26 355.01,-32.98"/>
<polygon fill="midnightblue" stroke="midnightblue" points="357.9,-34.99 361.87,-25.17 352.64,-30.37 357.9,-34.99"/>
</g>
<!-- Node8 -->
<g id="node8" class="node">
<title>Node8</title>
<g id="a_node8"><a xlink:title=" ">
<polygon fill="white" stroke="#bfbfbf" points="410,-6 410,-25 455,-25 455,-6 410,-6"/>
<text text-anchor="middle" x="432.5" y="-13" font-family="Helvetica,sans-Serif" font-size="10.00">utility</text>
</a>
</g>
</g>
<!-- Node1&#45;&gt;Node8 -->
<g id="edge7" class="edge">
<title>Node1&#45;&gt;Node8</title>
<path fill="none" stroke="midnightblue" d="M342.32,-67.36C363.33,-55.51 389.57,-40.71 408.32,-30.14"/>
<polygon fill="midnightblue" stroke="midnightblue" points="410.13,-33.13 417.12,-25.17 406.69,-27.04 410.13,-33.13"/>
</g>
<!-- Node9 -->
<g id="node9" class="node">
<title>Node9</title>
<g id="a_node9"><a xlink:title=" ">
<polygon fill="white" stroke="#bfbfbf" points="473,-6 473,-25 520,-25 520,-6 473,-6"/>
<text text-anchor="middle" x="496.5" y="-13" font-family="Helvetica,sans-Serif" font-size="10.00">vector</text>
</a>
</g>
</g>
<!-- Node1&#45;&gt;Node9 -->
<g id="edge8" class="edge">
<title>Node1&#45;&gt;Node9</title>
<path fill="none" stroke="midnightblue" d="M366.09,-67.39C395.79,-57.13 432.3,-44.01 464.5,-31 465.91,-30.43 467.36,-29.83 468.81,-29.22"/>
<polygon fill="midnightblue" stroke="midnightblue" points="470.58,-32.26 478.34,-25.04 467.77,-25.85 470.58,-32.26"/>
</g>
<!-- Node10 -->
<g id="node10" class="node">
<title>Node10</title>
<g id="a_node10"><a xlink:title=" ">
<polygon fill="white" stroke="#bfbfbf" points="538,-0.5 538,-30.5 663,-30.5 663,-0.5 538,-0.5"/>
<text text-anchor="start" x="546" y="-18.5" font-family="Helvetica,sans-Serif" font-size="10.00">boost/stl_interfaces</text>
<text text-anchor="middle" x="600.5" y="-7.5" font-family="Helvetica,sans-Serif" font-size="10.00">/iterator_interface.hpp</text>
</a>
</g>
</g>
<!-- Node1&#45;&gt;Node10 -->
<g id="edge9" class="edge">
<title>Node1&#45;&gt;Node10</title>
<path fill="none" stroke="midnightblue" d="M379.18,-69.75C425.74,-58.55 486.08,-44.03 532,-32.98"/>
<polygon fill="midnightblue" stroke="midnightblue" points="532.96,-36.35 541.86,-30.61 531.32,-29.55 532.96,-36.35"/>
</g>
</g>
</svg>
