<?xml version="1.0" encoding="UTF-8" standalone="no"?>
<!DOCTYPE svg PUBLIC "-//W3C//DTD SVG 1.1//EN"
 "http://www.w3.org/Graphics/SVG/1.1/DTD/svg11.dtd">
<!-- Generated by graphviz version 2.43.0 (0)
 -->
<!-- Title: library/text/cpp/include/tetengo/text/grapheme_splitting/east_asian_characX.hpp Pages: 1 -->
<svg width="288pt" height="184pt"
 viewBox="0.00 0.00 288.00 184.00" xmlns="http://www.w3.org/2000/svg" xmlns:xlink="http://www.w3.org/1999/xlink">
<g id="graph0" class="graph" transform="scale(1 1) rotate(0) translate(4 180)">
<title>library/text/cpp/include/tetengo/text/grapheme_splitting/east_asian_characX.hpp</title>
<polygon fill="white" stroke="transparent" points="-4,4 -4,-180 284,-180 284,4 -4,4"/>
<!-- Node1 -->
<g id="node1" class="node">
<title>Node1</title>
<g id="a_node1"><a xlink:title="An east Asian character width.">
<polygon fill="#bfbfbf" stroke="black" points="0,-134.5 0,-175.5 182,-175.5 182,-134.5 0,-134.5"/>
<text text-anchor="start" x="8" y="-163.5" font-family="Helvetica,sans-Serif" font-size="10.00">library/text/cpp/include</text>
<text text-anchor="start" x="8" y="-152.5" font-family="Helvetica,sans-Serif" font-size="10.00">/tetengo/text/grapheme</text>
<text text-anchor="middle" x="91" y="-141.5" font-family="Helvetica,sans-Serif" font-size="10.00">_splitting/east_asian_characX.hpp</text>
</a>
</g>
</g>
<!-- Node2 -->
<g id="node2" class="node">
<title>Node2</title>
<g id="a_node2"><a xlink:title=" ">
<polygon fill="white" stroke="#bfbfbf" points="31.5,-0.5 31.5,-19.5 84.5,-19.5 84.5,-0.5 31.5,-0.5"/>
<text text-anchor="middle" x="58" y="-7.5" font-family="Helvetica,sans-Serif" font-size="10.00">cstddef</text>
</a>
</g>
</g>
<!-- Node1&#45;&gt;Node2 -->
<g id="edge1" class="edge">
<title>Node1&#45;&gt;Node2</title>
<path fill="none" stroke="midnightblue" d="M73.33,-134.28C65.46,-124.19 57.07,-111.25 53,-98 45.97,-75.13 49.54,-47.31 53.29,-29.38"/>
<polygon fill="midnightblue" stroke="midnightblue" points="56.7,-30.17 55.56,-19.64 49.88,-28.58 56.7,-30.17"/>
</g>
<!-- Node3 -->
<g id="node3" class="node">
<title>Node3</title>
<g id="a_node3"><a xlink:title=" ">
<polygon fill="white" stroke="#bfbfbf" points="62,-67.5 62,-86.5 120,-86.5 120,-67.5 62,-67.5"/>
<text text-anchor="middle" x="91" y="-74.5" font-family="Helvetica,sans-Serif" font-size="10.00">memory</text>
</a>
</g>
</g>
<!-- Node1&#45;&gt;Node3 -->
<g id="edge2" class="edge">
<title>Node1&#45;&gt;Node3</title>
<path fill="none" stroke="midnightblue" d="M91,-134.43C91,-122.82 91,-108.18 91,-96.72"/>
<polygon fill="midnightblue" stroke="midnightblue" points="94.5,-96.55 91,-86.55 87.5,-96.55 94.5,-96.55"/>
</g>
<!-- Node4 -->
<g id="node4" class="node">
<title>Node4</title>
<g id="a_node4"><a xlink:href="character__width_8hpp.html" target="_top" xlink:title="A character width.">
<polygon fill="white" stroke="black" points="138.5,-56.5 138.5,-97.5 267.5,-97.5 267.5,-56.5 138.5,-56.5"/>
<text text-anchor="start" x="146.5" y="-85.5" font-family="Helvetica,sans-Serif" font-size="10.00">tetengo/text/grapheme</text>
<text text-anchor="start" x="146.5" y="-74.5" font-family="Helvetica,sans-Serif" font-size="10.00">_splitting/character</text>
<text text-anchor="middle" x="203" y="-63.5" font-family="Helvetica,sans-Serif" font-size="10.00">_width.hpp</text>
</a>
</g>
</g>
<!-- Node1&#45;&gt;Node4 -->
<g id="edge3" class="edge">
<title>Node1&#45;&gt;Node4</title>
<path fill="none" stroke="midnightblue" d="M119.84,-134.43C133.82,-124.94 150.78,-113.44 165.72,-103.29"/>
<polygon fill="midnightblue" stroke="midnightblue" points="167.95,-106.02 174.25,-97.51 164.01,-100.22 167.95,-106.02"/>
</g>
<!-- Node4&#45;&gt;Node2 -->
<g id="edge4" class="edge">
<title>Node4&#45;&gt;Node2</title>
<path fill="none" stroke="midnightblue" d="M159.5,-56.5C135.87,-45.91 107.34,-33.12 86.55,-23.8"/>
<polygon fill="midnightblue" stroke="midnightblue" points="87.86,-20.55 77.3,-19.65 85,-26.94 87.86,-20.55"/>
</g>
<!-- Node5 -->
<g id="node5" class="node">
<title>Node5</title>
<g id="a_node5"><a xlink:title=" ">
<polygon fill="white" stroke="#bfbfbf" points="126,-0.5 126,-19.5 280,-19.5 280,-0.5 126,-0.5"/>
<text text-anchor="middle" x="203" y="-7.5" font-family="Helvetica,sans-Serif" font-size="10.00">boost/core/noncopyable.hpp</text>
</a>
</g>
</g>
<!-- Node4&#45;&gt;Node5 -->
<g id="edge5" class="edge">
<title>Node4&#45;&gt;Node5</title>
<path fill="none" stroke="midnightblue" d="M203,-56.5C203,-48.07 203,-38.24 203,-29.87"/>
<polygon fill="midnightblue" stroke="midnightblue" points="206.5,-29.65 203,-19.65 199.5,-29.65 206.5,-29.65"/>
</g>
</g>
</svg>
