<?xml version="1.0" encoding="UTF-8" standalone="no"?>
<!DOCTYPE svg PUBLIC "-//W3C//DTD SVG 1.1//EN"
 "http://www.w3.org/Graphics/SVG/1.1/DTD/svg11.dtd">
<!-- Generated by graphviz version 2.43.0 (0)
 -->
<!-- Title: library/text/cpp/include/tetengo/text/grapheme_splitting/east_asian_characX.hpp Pages: 1 -->
<svg width="288pt" height="181pt"
 viewBox="0.00 0.00 288.00 181.00" xmlns="http://www.w3.org/2000/svg" xmlns:xlink="http://www.w3.org/1999/xlink">
<g id="graph0" class="graph" transform="scale(1 1) rotate(0) translate(4 177)">
<title>library/text/cpp/include/tetengo/text/grapheme_splitting/east_asian_characX.hpp</title>
<!-- Node1 -->
<g id="node1" class="node">
<title>Node1</title>
<g id="a_node1"><a xlink:title="An east Asian character width.">
<polygon fill="#999999" stroke="#666666" points="182,-173 0,-173 0,-132 182,-132 182,-173"/>
<text text-anchor="start" x="8" y="-161" font-family="Helvetica,sans-Serif" font-size="10.00">library/text/cpp/include</text>
<text text-anchor="start" x="8" y="-150" font-family="Helvetica,sans-Serif" font-size="10.00">/tetengo/text/grapheme</text>
<text text-anchor="middle" x="91" y="-139" font-family="Helvetica,sans-Serif" font-size="10.00">_splitting/east_asian_characX.hpp</text>
</a>
</g>
</g>
<!-- Node2 -->
<g id="node2" class="node">
<title>Node2</title>
<g id="a_node2"><a xlink:title=" ">
<polygon fill="#e0e0e0" stroke="#999999" points="84.5,-19 31.5,-19 31.5,0 84.5,0 84.5,-19"/>
<text text-anchor="middle" x="58" y="-7" font-family="Helvetica,sans-Serif" font-size="10.00">cstddef</text>
</a>
</g>
</g>
<!-- Node1&#45;&gt;Node2 -->
<g id="edge1" class="edge">
<title>Node1&#45;&gt;Node2</title>
<path fill="none" stroke="#63b8ff" d="M73.33,-131.98C65.47,-121.98 57.07,-109.16 53,-96 46.11,-73.76 49.52,-46.73 53.21,-29.1"/>
<polygon fill="#63b8ff" stroke="#63b8ff" points="56.65,-29.77 55.51,-19.24 49.83,-28.18 56.65,-29.77"/>
</g>
<!-- Node3 -->
<g id="node3" class="node">
<title>Node3</title>
<g id="a_node3"><a xlink:title=" ">
<polygon fill="#e0e0e0" stroke="#999999" points="120,-85 62,-85 62,-66 120,-66 120,-85"/>
<text text-anchor="middle" x="91" y="-73" font-family="Helvetica,sans-Serif" font-size="10.00">memory</text>
</a>
</g>
</g>
<!-- Node1&#45;&gt;Node3 -->
<g id="edge2" class="edge">
<title>Node1&#45;&gt;Node3</title>
<path fill="none" stroke="#63b8ff" d="M91,-131.79C91,-120.59 91,-106.61 91,-95.52"/>
<polygon fill="#63b8ff" stroke="#63b8ff" points="94.5,-95.24 91,-85.24 87.5,-95.24 94.5,-95.24"/>
</g>
<!-- Node4 -->
<g id="node4" class="node">
<title>Node4</title>
<g id="a_node4"><a xlink:href="character__width_8hpp.html" target="_top" xlink:title="A character width.">
<polygon fill="white" stroke="#666666" points="267.5,-96 138.5,-96 138.5,-55 267.5,-55 267.5,-96"/>
<text text-anchor="start" x="146.5" y="-84" font-family="Helvetica,sans-Serif" font-size="10.00">tetengo/text/grapheme</text>
<text text-anchor="start" x="146.5" y="-73" font-family="Helvetica,sans-Serif" font-size="10.00">_splitting/character</text>
<text text-anchor="middle" x="203" y="-62" font-family="Helvetica,sans-Serif" font-size="10.00">_width.hpp</text>
</a>
</g>
</g>
<!-- Node1&#45;&gt;Node4 -->
<g id="edge3" class="edge">
<title>Node1&#45;&gt;Node4</title>
<path fill="none" stroke="#63b8ff" d="M120.13,-131.99C133.9,-122.77 150.5,-111.66 165.21,-101.81"/>
<polygon fill="#63b8ff" stroke="#63b8ff" points="167.26,-104.64 173.62,-96.17 163.37,-98.83 167.26,-104.64"/>
</g>
<!-- Node4&#45;&gt;Node2 -->
<g id="edge4" class="edge">
<title>Node4&#45;&gt;Node2</title>
<path fill="none" stroke="#63b8ff" d="M158.71,-54.95C135.27,-44.6 107.17,-32.2 86.62,-23.13"/>
<polygon fill="#63b8ff" stroke="#63b8ff" points="88.03,-19.93 77.47,-19.09 85.2,-26.33 88.03,-19.93"/>
</g>
<!-- Node5 -->
<g id="node5" class="node">
<title>Node5</title>
<g id="a_node5"><a xlink:title=" ">
<polygon fill="#e0e0e0" stroke="#999999" points="280,-19 126,-19 126,0 280,0 280,-19"/>
<text text-anchor="middle" x="203" y="-7" font-family="Helvetica,sans-Serif" font-size="10.00">boost/core/noncopyable.hpp</text>
</a>
</g>
</g>
<!-- Node4&#45;&gt;Node5 -->
<g id="edge5" class="edge">
<title>Node4&#45;&gt;Node5</title>
<path fill="none" stroke="#63b8ff" d="M203,-54.95C203,-46.85 203,-37.5 203,-29.47"/>
<polygon fill="#63b8ff" stroke="#63b8ff" points="206.5,-29.26 203,-19.26 199.5,-29.26 206.5,-29.26"/>
</g>
</g>
</svg>
