<?xml version="1.0" encoding="UTF-8" standalone="no"?>
<!DOCTYPE svg PUBLIC "-//W3C//DTD SVG 1.1//EN"
 "http://www.w3.org/Graphics/SVG/1.1/DTD/svg11.dtd">
<!-- Generated by graphviz version 2.43.0 (0)
 -->
<!-- Title: library/json/cpp/include/tetengo/json/element.hpp Pages: 1 -->
<svg width="334pt" height="151pt"
 viewBox="0.00 0.00 333.50 151.00" xmlns="http://www.w3.org/2000/svg" xmlns:xlink="http://www.w3.org/1999/xlink">
<g id="graph0" class="graph" transform="scale(1 1) rotate(0) translate(4 147)">
<title>library/json/cpp/include/tetengo/json/element.hpp</title>
<polygon fill="white" stroke="transparent" points="-4,4 -4,-147 329.5,-147 329.5,4 -4,4"/>
<!-- Node1 -->
<g id="node1" class="node">
<title>Node1</title>
<g id="a_node1"><a xlink:title="An element.">
<polygon fill="#bfbfbf" stroke="black" points="0,-112.5 0,-142.5 145,-142.5 145,-112.5 0,-112.5"/>
<text text-anchor="start" x="8" y="-130.5" font-family="Helvetica,sans-Serif" font-size="10.00">library/json/cpp/include</text>
<text text-anchor="middle" x="72.5" y="-119.5" font-family="Helvetica,sans-Serif" font-size="10.00">/tetengo/json/element.hpp</text>
</a>
</g>
</g>
<!-- Node2 -->
<g id="node2" class="node">
<title>Node2</title>
<g id="a_node2"><a xlink:title=" ">
<polygon fill="white" stroke="#bfbfbf" points="52.5,-0.5 52.5,-19.5 96.5,-19.5 96.5,-0.5 52.5,-0.5"/>
<text text-anchor="middle" x="74.5" y="-7.5" font-family="Helvetica,sans-Serif" font-size="10.00">string</text>
</a>
</g>
</g>
<!-- Node1&#45;&gt;Node2 -->
<g id="edge1" class="edge">
<title>Node1&#45;&gt;Node2</title>
<path fill="none" stroke="midnightblue" d="M48.25,-112.4C28.62,-99.01 5.84,-77.76 16.5,-56 23.02,-42.68 35.6,-32.18 47.37,-24.68"/>
<polygon fill="midnightblue" stroke="midnightblue" points="49.27,-27.62 56.11,-19.53 45.72,-21.59 49.27,-27.62"/>
</g>
<!-- Node3 -->
<g id="node3" class="node">
<title>Node3</title>
<g id="a_node3"><a xlink:title=" ">
<polygon fill="white" stroke="#bfbfbf" points="26,-56.5 26,-75.5 119,-75.5 119,-56.5 26,-56.5"/>
<text text-anchor="middle" x="72.5" y="-63.5" font-family="Helvetica,sans-Serif" font-size="10.00">unordered_map</text>
</a>
</g>
</g>
<!-- Node1&#45;&gt;Node3 -->
<g id="edge2" class="edge">
<title>Node1&#45;&gt;Node3</title>
<path fill="none" stroke="midnightblue" d="M72.5,-112.4C72.5,-104.47 72.5,-94.46 72.5,-85.86"/>
<polygon fill="midnightblue" stroke="midnightblue" points="76,-85.66 72.5,-75.66 69,-85.66 76,-85.66"/>
</g>
<!-- Node4 -->
<g id="node4" class="node">
<title>Node4</title>
<g id="a_node4"><a xlink:href="file__location_8hpp.html" target="_top" xlink:title="A file location.">
<polygon fill="white" stroke="black" points="137,-56.5 137,-75.5 298,-75.5 298,-56.5 137,-56.5"/>
<text text-anchor="middle" x="217.5" y="-63.5" font-family="Helvetica,sans-Serif" font-size="10.00">tetengo/json/file_location.hpp</text>
</a>
</g>
</g>
<!-- Node1&#45;&gt;Node4 -->
<g id="edge3" class="edge">
<title>Node1&#45;&gt;Node4</title>
<path fill="none" stroke="midnightblue" d="M106.86,-112.4C131.19,-102.42 163.53,-89.15 186.96,-79.53"/>
<polygon fill="midnightblue" stroke="midnightblue" points="188.48,-82.69 196.4,-75.66 185.82,-76.22 188.48,-82.69"/>
</g>
<!-- Node4&#45;&gt;Node2 -->
<g id="edge5" class="edge">
<title>Node4&#45;&gt;Node2</title>
<path fill="none" stroke="midnightblue" d="M194.84,-56.44C170.96,-47.42 133.15,-33.15 106.29,-23"/>
<polygon fill="midnightblue" stroke="midnightblue" points="107.17,-19.6 96.58,-19.34 104.7,-26.15 107.17,-19.6"/>
</g>
<!-- Node5 -->
<g id="node5" class="node">
<title>Node5</title>
<g id="a_node5"><a xlink:title=" ">
<polygon fill="white" stroke="#bfbfbf" points="140,-0.5 140,-19.5 193,-19.5 193,-0.5 140,-0.5"/>
<text text-anchor="middle" x="166.5" y="-7.5" font-family="Helvetica,sans-Serif" font-size="10.00">cstddef</text>
</a>
</g>
</g>
<!-- Node4&#45;&gt;Node5 -->
<g id="edge4" class="edge">
<title>Node4&#45;&gt;Node5</title>
<path fill="none" stroke="midnightblue" d="M209.08,-56.08C201.65,-48.22 190.65,-36.57 181.69,-27.08"/>
<polygon fill="midnightblue" stroke="midnightblue" points="184.18,-24.62 174.76,-19.75 179.09,-29.42 184.18,-24.62"/>
</g>
<!-- Node6 -->
<g id="node6" class="node">
<title>Node6</title>
<g id="a_node6"><a xlink:title=" ">
<polygon fill="white" stroke="#bfbfbf" points="211.5,-0.5 211.5,-19.5 325.5,-19.5 325.5,-0.5 211.5,-0.5"/>
<text text-anchor="middle" x="268.5" y="-7.5" font-family="Helvetica,sans-Serif" font-size="10.00">boost/operators.hpp</text>
</a>
</g>
</g>
<!-- Node4&#45;&gt;Node6 -->
<g id="edge6" class="edge">
<title>Node4&#45;&gt;Node6</title>
<path fill="none" stroke="midnightblue" d="M225.92,-56.08C233.35,-48.22 244.35,-36.57 253.31,-27.08"/>
<polygon fill="midnightblue" stroke="midnightblue" points="255.91,-29.42 260.24,-19.75 250.82,-24.62 255.91,-29.42"/>
</g>
</g>
</svg>
