<?xml version="1.0" encoding="UTF-8" standalone="no"?>
<!DOCTYPE svg PUBLIC "-//W3C//DTD SVG 1.1//EN"
 "http://www.w3.org/Graphics/SVG/1.1/DTD/svg11.dtd">
<!-- Generated by graphviz version 2.43.0 (0)
 -->
<!-- Title: library/json/cpp/include/tetengo/json/element.hpp Pages: 1 -->
<svg width="334pt" height="148pt"
 viewBox="0.00 0.00 333.50 148.00" xmlns="http://www.w3.org/2000/svg" xmlns:xlink="http://www.w3.org/1999/xlink">
<g id="graph0" class="graph" transform="scale(1 1) rotate(0) translate(4 144)">
<title>library/json/cpp/include/tetengo/json/element.hpp</title>
<!-- Node1 -->
<g id="node1" class="node">
<title>Node1</title>
<g id="a_node1"><a xlink:title="An element.">
<polygon fill="#999999" stroke="#666666" points="145,-140 0,-140 0,-110 145,-110 145,-140"/>
<text text-anchor="start" x="8" y="-128" font-family="Helvetica,sans-Serif" font-size="10.00">library/json/cpp/include</text>
<text text-anchor="middle" x="72.5" y="-117" font-family="Helvetica,sans-Serif" font-size="10.00">/tetengo/json/element.hpp</text>
</a>
</g>
</g>
<!-- Node2 -->
<g id="node2" class="node">
<title>Node2</title>
<g id="a_node2"><a xlink:title=" ">
<polygon fill="#e0e0e0" stroke="#999999" points="96.5,-19 52.5,-19 52.5,0 96.5,0 96.5,-19"/>
<text text-anchor="middle" x="74.5" y="-7" font-family="Helvetica,sans-Serif" font-size="10.00">string</text>
</a>
</g>
</g>
<!-- Node1&#45;&gt;Node2 -->
<g id="edge1" class="edge">
<title>Node1&#45;&gt;Node2</title>
<path fill="none" stroke="#63b8ff" d="M47.53,-109.76C28.1,-96.68 6.06,-76.17 16.5,-55 22.99,-41.85 35.43,-31.5 47.14,-24.11"/>
<polygon fill="#63b8ff" stroke="#63b8ff" points="48.96,-27.1 55.83,-19.03 45.43,-21.05 48.96,-27.1"/>
</g>
<!-- Node3 -->
<g id="node3" class="node">
<title>Node3</title>
<g id="a_node3"><a xlink:title=" ">
<polygon fill="#e0e0e0" stroke="#999999" points="119,-74 26,-74 26,-55 119,-55 119,-74"/>
<text text-anchor="middle" x="72.5" y="-62" font-family="Helvetica,sans-Serif" font-size="10.00">unordered_map</text>
</a>
</g>
</g>
<!-- Node1&#45;&gt;Node3 -->
<g id="edge2" class="edge">
<title>Node1&#45;&gt;Node3</title>
<path fill="none" stroke="#63b8ff" d="M72.5,-109.84C72.5,-102.21 72.5,-92.7 72.5,-84.45"/>
<polygon fill="#63b8ff" stroke="#63b8ff" points="76,-84.27 72.5,-74.27 69,-84.27 76,-84.27"/>
</g>
<!-- Node4 -->
<g id="node4" class="node">
<title>Node4</title>
<g id="a_node4"><a xlink:href="file__location_8hpp.html" target="_top" xlink:title="A file location.">
<polygon fill="white" stroke="#666666" points="298,-74 137,-74 137,-55 298,-55 298,-74"/>
<text text-anchor="middle" x="217.5" y="-62" font-family="Helvetica,sans-Serif" font-size="10.00">tetengo/json/file_location.hpp</text>
</a>
</g>
</g>
<!-- Node1&#45;&gt;Node4 -->
<g id="edge3" class="edge">
<title>Node1&#45;&gt;Node4</title>
<path fill="none" stroke="#63b8ff" d="M107.23,-109.99C131.42,-100.23 163.4,-87.33 186.69,-77.93"/>
<polygon fill="#63b8ff" stroke="#63b8ff" points="188.12,-81.13 196.09,-74.14 185.5,-74.63 188.12,-81.13"/>
</g>
<!-- Node4&#45;&gt;Node2 -->
<g id="edge5" class="edge">
<title>Node4&#45;&gt;Node2</title>
<path fill="none" stroke="#63b8ff" d="M194.52,-54.98C170.72,-46.16 133.34,-32.31 106.61,-22.4"/>
<polygon fill="#63b8ff" stroke="#63b8ff" points="107.54,-19.01 96.95,-18.82 105.11,-25.58 107.54,-19.01"/>
</g>
<!-- Node5 -->
<g id="node5" class="node">
<title>Node5</title>
<g id="a_node5"><a xlink:title=" ">
<polygon fill="#e0e0e0" stroke="#999999" points="193,-19 140,-19 140,0 193,0 193,-19"/>
<text text-anchor="middle" x="166.5" y="-7" font-family="Helvetica,sans-Serif" font-size="10.00">cstddef</text>
</a>
</g>
</g>
<!-- Node4&#45;&gt;Node5 -->
<g id="edge4" class="edge">
<title>Node4&#45;&gt;Node5</title>
<path fill="none" stroke="#63b8ff" d="M209.08,-54.75C201.73,-47.11 190.87,-35.82 181.96,-26.56"/>
<polygon fill="#63b8ff" stroke="#63b8ff" points="184.22,-23.87 174.76,-19.09 179.18,-28.72 184.22,-23.87"/>
</g>
<!-- Node6 -->
<g id="node6" class="node">
<title>Node6</title>
<g id="a_node6"><a xlink:title=" ">
<polygon fill="#e0e0e0" stroke="#999999" points="325.5,-19 211.5,-19 211.5,0 325.5,0 325.5,-19"/>
<text text-anchor="middle" x="268.5" y="-7" font-family="Helvetica,sans-Serif" font-size="10.00">boost/operators.hpp</text>
</a>
</g>
</g>
<!-- Node4&#45;&gt;Node6 -->
<g id="edge6" class="edge">
<title>Node4&#45;&gt;Node6</title>
<path fill="none" stroke="#63b8ff" d="M225.92,-54.75C233.27,-47.11 244.13,-35.82 253.04,-26.56"/>
<polygon fill="#63b8ff" stroke="#63b8ff" points="255.82,-28.72 260.24,-19.09 250.78,-23.87 255.82,-28.72"/>
</g>
</g>
</svg>
