<?xml version="1.0" encoding="UTF-8" standalone="no"?>
<!DOCTYPE svg PUBLIC "-//W3C//DTD SVG 1.1//EN"
 "http://www.w3.org/Graphics/SVG/1.1/DTD/svg11.dtd">
<!-- Generated by graphviz version 2.43.0 (0)
 -->
<!-- Title: library/lattice/cpp/include/tetengo/lattice/entry.hpp Pages: 1 -->
<svg width="385pt" height="284pt"
 viewBox="0.00 0.00 385.00 284.00" xmlns="http://www.w3.org/2000/svg" xmlns:xlink="http://www.w3.org/1999/xlink">
<g id="graph0" class="graph" transform="scale(1 1) rotate(0) translate(4 280)">
<title>library/lattice/cpp/include/tetengo/lattice/entry.hpp</title>
<polygon fill="white" stroke="transparent" points="-4,4 -4,-280 381,-280 381,4 -4,4"/>
<!-- Node1 -->
<g id="node1" class="node">
<title>Node1</title>
<g id="a_node1"><a xlink:title="An entry.">
<polygon fill="#bfbfbf" stroke="black" points="136,-234.5 136,-275.5 265,-275.5 265,-234.5 136,-234.5"/>
<text text-anchor="start" x="144" y="-263.5" font-family="Helvetica,sans-Serif" font-size="10.00">library/lattice/cpp</text>
<text text-anchor="start" x="144" y="-252.5" font-family="Helvetica,sans-Serif" font-size="10.00">/include/tetengo/lattice</text>
<text text-anchor="middle" x="200.5" y="-241.5" font-family="Helvetica,sans-Serif" font-size="10.00">/entry.hpp</text>
</a>
</g>
</g>
<!-- Node2 -->
<g id="node2" class="node">
<title>Node2</title>
<g id="a_node2"><a xlink:href="node_8hpp.html" target="_top" xlink:title="A node.">
<polygon fill="white" stroke="black" points="43,-156.5 43,-197.5 172,-197.5 172,-156.5 43,-156.5"/>
<text text-anchor="start" x="51" y="-185.5" font-family="Helvetica,sans-Serif" font-size="10.00">library/lattice/cpp</text>
<text text-anchor="start" x="51" y="-174.5" font-family="Helvetica,sans-Serif" font-size="10.00">/include/tetengo/lattice</text>
<text text-anchor="middle" x="107.5" y="-163.5" font-family="Helvetica,sans-Serif" font-size="10.00">/node.hpp</text>
</a>
</g>
</g>
<!-- Node1&#45;&gt;Node2 -->
<g id="edge1" class="edge">
<title>Node1&#45;&gt;Node2</title>
<path fill="none" stroke="midnightblue" d="M168.76,-228.06C156.52,-218.06 142.75,-206.8 131.37,-197.51"/>
<polygon fill="midnightblue" stroke="midnightblue" points="166.59,-230.81 176.55,-234.43 171.02,-225.39 166.59,-230.81"/>
</g>
<!-- Node5 -->
<g id="node5" class="node">
<title>Node5</title>
<g id="a_node5"><a xlink:href="unordered__map__vocabulary_8hpp.html" target="_top" xlink:title="An unordered map vocabulary.">
<polygon fill="white" stroke="black" points="202,-78.5 202,-119.5 377,-119.5 377,-78.5 202,-78.5"/>
<text text-anchor="start" x="210" y="-107.5" font-family="Helvetica,sans-Serif" font-size="10.00">library/lattice/cpp</text>
<text text-anchor="start" x="210" y="-96.5" font-family="Helvetica,sans-Serif" font-size="10.00">/include/tetengo/lattice</text>
<text text-anchor="middle" x="289.5" y="-85.5" font-family="Helvetica,sans-Serif" font-size="10.00">/unordered_map_vocabulary.hpp</text>
</a>
</g>
</g>
<!-- Node1&#45;&gt;Node5 -->
<g id="edge5" class="edge">
<title>Node1&#45;&gt;Node5</title>
<path fill="none" stroke="midnightblue" d="M201.38,-224.15C203.18,-203.68 208,-176.61 220.5,-156 229.3,-141.49 243.28,-129.11 256.36,-119.71"/>
<polygon fill="midnightblue" stroke="midnightblue" points="197.88,-223.96 200.69,-234.18 204.87,-224.44 197.88,-223.96"/>
</g>
<!-- Node6 -->
<g id="node6" class="node">
<title>Node6</title>
<g id="a_node6"><a xlink:href="vocabulary_8hpp.html" target="_top" xlink:title="A vocabulary.">
<polygon fill="white" stroke="black" points="229,-156.5 229,-197.5 358,-197.5 358,-156.5 229,-156.5"/>
<text text-anchor="start" x="237" y="-185.5" font-family="Helvetica,sans-Serif" font-size="10.00">library/lattice/cpp</text>
<text text-anchor="start" x="237" y="-174.5" font-family="Helvetica,sans-Serif" font-size="10.00">/include/tetengo/lattice</text>
<text text-anchor="middle" x="293.5" y="-163.5" font-family="Helvetica,sans-Serif" font-size="10.00">/vocabulary.hpp</text>
</a>
</g>
</g>
<!-- Node1&#45;&gt;Node6 -->
<g id="edge6" class="edge">
<title>Node1&#45;&gt;Node6</title>
<path fill="none" stroke="midnightblue" d="M232.24,-228.06C244.48,-218.06 258.25,-206.8 269.63,-197.51"/>
<polygon fill="midnightblue" stroke="midnightblue" points="229.98,-225.39 224.45,-234.43 234.41,-230.81 229.98,-225.39"/>
</g>
<!-- Node3 -->
<g id="node3" class="node">
<title>Node3</title>
<g id="a_node3"><a xlink:href="n__best__iterator_8hpp.html" target="_top" xlink:title="An N&#45;best lattice path iterator.">
<polygon fill="white" stroke="black" points="0,-0.5 0,-41.5 129,-41.5 129,-0.5 0,-0.5"/>
<text text-anchor="start" x="8" y="-29.5" font-family="Helvetica,sans-Serif" font-size="10.00">library/lattice/cpp</text>
<text text-anchor="start" x="8" y="-18.5" font-family="Helvetica,sans-Serif" font-size="10.00">/include/tetengo/lattice</text>
<text text-anchor="middle" x="64.5" y="-7.5" font-family="Helvetica,sans-Serif" font-size="10.00">/n_best_iterator.hpp</text>
</a>
</g>
</g>
<!-- Node2&#45;&gt;Node3 -->
<g id="edge2" class="edge">
<title>Node2&#45;&gt;Node3</title>
<path fill="none" stroke="midnightblue" d="M62.99,-150.21C52.74,-141.97 43.19,-131.84 37.5,-120 25.12,-94.23 39.22,-61.83 51.24,-41.51"/>
<polygon fill="midnightblue" stroke="midnightblue" points="61.19,-153.24 71.3,-156.42 65.38,-147.63 61.19,-153.24"/>
</g>
<!-- Node4 -->
<g id="node4" class="node">
<title>Node4</title>
<g id="a_node4"><a xlink:href="path_8hpp.html" target="_top" xlink:title="A path.">
<polygon fill="white" stroke="black" points="47,-78.5 47,-119.5 176,-119.5 176,-78.5 47,-78.5"/>
<text text-anchor="start" x="55" y="-107.5" font-family="Helvetica,sans-Serif" font-size="10.00">library/lattice/cpp</text>
<text text-anchor="start" x="55" y="-96.5" font-family="Helvetica,sans-Serif" font-size="10.00">/include/tetengo/lattice</text>
<text text-anchor="middle" x="111.5" y="-85.5" font-family="Helvetica,sans-Serif" font-size="10.00">/path.hpp</text>
</a>
</g>
</g>
<!-- Node2&#45;&gt;Node4 -->
<g id="edge3" class="edge">
<title>Node2&#45;&gt;Node4</title>
<path fill="none" stroke="midnightblue" d="M109.06,-146.3C109.54,-137.3 110.04,-127.65 110.47,-119.51"/>
<polygon fill="midnightblue" stroke="midnightblue" points="105.56,-146.26 108.53,-156.43 112.55,-146.63 105.56,-146.26"/>
</g>
<!-- Node4&#45;&gt;Node3 -->
<g id="edge4" class="edge">
<title>Node4&#45;&gt;Node3</title>
<path fill="none" stroke="midnightblue" d="M94.03,-69.76C88.22,-60.35 81.88,-50.1 76.56,-41.51"/>
<polygon fill="midnightblue" stroke="midnightblue" points="91.16,-71.76 99.4,-78.43 97.11,-68.08 91.16,-71.76"/>
</g>
<!-- Node6&#45;&gt;Node5 -->
<g id="edge7" class="edge">
<title>Node6&#45;&gt;Node5</title>
<path fill="none" stroke="midnightblue" d="M291.94,-146.3C291.46,-137.3 290.96,-127.65 290.53,-119.51"/>
<polygon fill="midnightblue" stroke="midnightblue" points="288.45,-146.63 292.47,-156.43 295.44,-146.26 288.45,-146.63"/>
</g>
</g>
</svg>
