<?xml version="1.0" encoding="UTF-8" standalone="no"?>
<!DOCTYPE svg PUBLIC "-//W3C//DTD SVG 1.1//EN"
 "http://www.w3.org/Graphics/SVG/1.1/DTD/svg11.dtd">
<!-- Generated by graphviz version 2.43.0 (0)
 -->
<!-- Title: library/lattice/cpp/include/tetengo/lattice/entry.hpp Pages: 1 -->
<svg width="559pt" height="162pt"
 viewBox="0.00 0.00 558.50 162.00" xmlns="http://www.w3.org/2000/svg" xmlns:xlink="http://www.w3.org/1999/xlink">
<g id="graph0" class="graph" transform="scale(1 1) rotate(0) translate(4 158)">
<title>library/lattice/cpp/include/tetengo/lattice/entry.hpp</title>
<polygon fill="white" stroke="transparent" points="-4,4 -4,-158 554.5,-158 554.5,4 -4,4"/>
<!-- Node1 -->
<g id="node1" class="node">
<title>Node1</title>
<g id="a_node1"><a xlink:title="An entry.">
<polygon fill="#bfbfbf" stroke="black" points="24,-112.5 24,-153.5 153,-153.5 153,-112.5 24,-112.5"/>
<text text-anchor="start" x="32" y="-141.5" font-family="Helvetica,sans-Serif" font-size="10.00">library/lattice/cpp</text>
<text text-anchor="start" x="32" y="-130.5" font-family="Helvetica,sans-Serif" font-size="10.00">/include/tetengo/lattice</text>
<text text-anchor="middle" x="88.5" y="-119.5" font-family="Helvetica,sans-Serif" font-size="10.00">/entry.hpp</text>
</a>
</g>
</g>
<!-- Node2 -->
<g id="node2" class="node">
<title>Node2</title>
<g id="a_node2"><a xlink:title=" ">
<polygon fill="white" stroke="#bfbfbf" points="0,-56.5 0,-75.5 35,-75.5 35,-56.5 0,-56.5"/>
<text text-anchor="middle" x="17.5" y="-63.5" font-family="Helvetica,sans-Serif" font-size="10.00">any</text>
</a>
</g>
</g>
<!-- Node1&#45;&gt;Node2 -->
<g id="edge1" class="edge">
<title>Node1&#45;&gt;Node2</title>
<path fill="none" stroke="midnightblue" d="M67.2,-112.5C56.73,-102.92 44.29,-91.53 34.48,-82.54"/>
<polygon fill="midnightblue" stroke="midnightblue" points="36.69,-79.82 26.95,-75.65 31.96,-84.99 36.69,-79.82"/>
</g>
<!-- Node3 -->
<g id="node3" class="node">
<title>Node3</title>
<g id="a_node3"><a xlink:title=" ">
<polygon fill="white" stroke="#bfbfbf" points="42.5,-0.5 42.5,-19.5 100.5,-19.5 100.5,-0.5 42.5,-0.5"/>
<text text-anchor="middle" x="71.5" y="-7.5" font-family="Helvetica,sans-Serif" font-size="10.00">memory</text>
</a>
</g>
</g>
<!-- Node1&#45;&gt;Node3 -->
<g id="edge2" class="edge">
<title>Node1&#45;&gt;Node3</title>
<path fill="none" stroke="midnightblue" d="M85.73,-112.29C82.53,-89.48 77.29,-52.19 74.14,-29.78"/>
<polygon fill="midnightblue" stroke="midnightblue" points="77.56,-28.99 72.7,-19.57 70.63,-29.96 77.56,-28.99"/>
</g>
<!-- Node4 -->
<g id="node4" class="node">
<title>Node4</title>
<g id="a_node4"><a xlink:title=" ">
<polygon fill="white" stroke="#bfbfbf" points="92,-56.5 92,-75.5 137,-75.5 137,-56.5 92,-56.5"/>
<text text-anchor="middle" x="114.5" y="-63.5" font-family="Helvetica,sans-Serif" font-size="10.00">utility</text>
</a>
</g>
</g>
<!-- Node1&#45;&gt;Node4 -->
<g id="edge3" class="edge">
<title>Node1&#45;&gt;Node4</title>
<path fill="none" stroke="midnightblue" d="M96.3,-112.5C99.79,-103.78 103.87,-93.56 107.29,-85.02"/>
<polygon fill="midnightblue" stroke="midnightblue" points="110.57,-86.24 111.04,-75.65 104.08,-83.64 110.57,-86.24"/>
</g>
<!-- Node5 -->
<g id="node5" class="node">
<title>Node5</title>
<g id="a_node5"><a xlink:href="input_8hpp.html" target="_top" xlink:title="An input.">
<polygon fill="white" stroke="black" points="155,-56.5 155,-75.5 292,-75.5 292,-56.5 155,-56.5"/>
<text text-anchor="middle" x="223.5" y="-63.5" font-family="Helvetica,sans-Serif" font-size="10.00">tetengo/lattice/input.hpp</text>
</a>
</g>
</g>
<!-- Node1&#45;&gt;Node5 -->
<g id="edge4" class="edge">
<title>Node1&#45;&gt;Node5</title>
<path fill="none" stroke="midnightblue" d="M129,-112.5C150.8,-102.01 177.08,-89.35 196.39,-80.05"/>
<polygon fill="midnightblue" stroke="midnightblue" points="198.04,-83.14 205.53,-75.65 195,-76.84 198.04,-83.14"/>
</g>
<!-- Node5&#45;&gt;Node3 -->
<g id="edge7" class="edge">
<title>Node5&#45;&gt;Node3</title>
<path fill="none" stroke="midnightblue" d="M199.42,-56.44C173.96,-47.4 133.61,-33.06 105.04,-22.92"/>
<polygon fill="midnightblue" stroke="midnightblue" points="106.07,-19.57 95.47,-19.52 103.72,-26.16 106.07,-19.57"/>
</g>
<!-- Node6 -->
<g id="node6" class="node">
<title>Node6</title>
<g id="a_node6"><a xlink:title=" ">
<polygon fill="white" stroke="#bfbfbf" points="122.5,-0.5 122.5,-19.5 174.5,-19.5 174.5,-0.5 122.5,-0.5"/>
<text text-anchor="middle" x="148.5" y="-7.5" font-family="Helvetica,sans-Serif" font-size="10.00">cassert</text>
</a>
</g>
</g>
<!-- Node5&#45;&gt;Node6 -->
<g id="edge5" class="edge">
<title>Node5&#45;&gt;Node6</title>
<path fill="none" stroke="midnightblue" d="M211.45,-56.32C200.04,-48.11 182.67,-35.6 169.07,-25.81"/>
<polygon fill="midnightblue" stroke="midnightblue" points="170.93,-22.84 160.77,-19.83 166.84,-28.52 170.93,-22.84"/>
</g>
<!-- Node7 -->
<g id="node7" class="node">
<title>Node7</title>
<g id="a_node7"><a xlink:title=" ">
<polygon fill="white" stroke="#bfbfbf" points="193,-0.5 193,-19.5 246,-19.5 246,-0.5 193,-0.5"/>
<text text-anchor="middle" x="219.5" y="-7.5" font-family="Helvetica,sans-Serif" font-size="10.00">cstddef</text>
</a>
</g>
</g>
<!-- Node5&#45;&gt;Node7 -->
<g id="edge6" class="edge">
<title>Node5&#45;&gt;Node7</title>
<path fill="none" stroke="midnightblue" d="M222.84,-56.08C222.32,-49.01 221.56,-38.86 220.91,-29.99"/>
<polygon fill="midnightblue" stroke="midnightblue" points="224.38,-29.47 220.15,-19.75 217.4,-29.98 224.38,-29.47"/>
</g>
<!-- Node8 -->
<g id="node8" class="node">
<title>Node8</title>
<g id="a_node8"><a xlink:title=" ">
<polygon fill="white" stroke="#bfbfbf" points="264.5,-0.5 264.5,-19.5 418.5,-19.5 418.5,-0.5 264.5,-0.5"/>
<text text-anchor="middle" x="341.5" y="-7.5" font-family="Helvetica,sans-Serif" font-size="10.00">boost/core/noncopyable.hpp</text>
</a>
</g>
</g>
<!-- Node5&#45;&gt;Node8 -->
<g id="edge8" class="edge">
<title>Node5&#45;&gt;Node8</title>
<path fill="none" stroke="midnightblue" d="M242.2,-56.44C261.44,-47.64 291.65,-33.81 313.7,-23.72"/>
<polygon fill="midnightblue" stroke="midnightblue" points="315.25,-26.86 322.89,-19.52 312.34,-20.5 315.25,-26.86"/>
</g>
<!-- Node9 -->
<g id="node9" class="node">
<title>Node9</title>
<g id="a_node9"><a xlink:title=" ">
<polygon fill="white" stroke="#bfbfbf" points="436.5,-0.5 436.5,-19.5 550.5,-19.5 550.5,-0.5 436.5,-0.5"/>
<text text-anchor="middle" x="493.5" y="-7.5" font-family="Helvetica,sans-Serif" font-size="10.00">boost/operators.hpp</text>
</a>
</g>
</g>
<!-- Node5&#45;&gt;Node9 -->
<g id="edge9" class="edge">
<title>Node5&#45;&gt;Node9</title>
<path fill="none" stroke="midnightblue" d="M266.28,-56.44C313.68,-46.96 390.13,-31.67 441.08,-21.48"/>
<polygon fill="midnightblue" stroke="midnightblue" points="441.8,-24.91 450.92,-19.52 440.43,-18.05 441.8,-24.91"/>
</g>
</g>
</svg>
