<?xml version="1.0" encoding="UTF-8" standalone="no"?>
<!DOCTYPE svg PUBLIC "-//W3C//DTD SVG 1.1//EN"
 "http://www.w3.org/Graphics/SVG/1.1/DTD/svg11.dtd">
<!-- Generated by graphviz version 2.43.0 (0)
 -->
<!-- Title: library/lattice/c/include/tetengo/lattice/entry.h Pages: 1 -->
<svg width="315pt" height="151pt"
 viewBox="0.00 0.00 315.46 151.00" xmlns="http://www.w3.org/2000/svg" xmlns:xlink="http://www.w3.org/1999/xlink">
<g id="graph0" class="graph" transform="scale(1 1) rotate(0) translate(4 147)">
<title>library/lattice/c/include/tetengo/lattice/entry.h</title>
<polygon fill="white" stroke="transparent" points="-4,4 -4,-147 311.46,-147 311.46,4 -4,4"/>
<!-- Node1 -->
<g id="node1" class="node">
<title>Node1</title>
<g id="a_node1"><a xlink:title="An entry.">
<polygon fill="#bfbfbf" stroke="black" points="24.96,-112.5 24.96,-142.5 152.96,-142.5 152.96,-112.5 24.96,-112.5"/>
<text text-anchor="start" x="32.96" y="-130.5" font-family="Helvetica,sans-Serif" font-size="10.00">library/lattice/c/include</text>
<text text-anchor="middle" x="88.96" y="-119.5" font-family="Helvetica,sans-Serif" font-size="10.00">/tetengo/lattice/entry.h</text>
</a>
</g>
</g>
<!-- Node2 -->
<g id="node2" class="node">
<title>Node2</title>
<g id="a_node2"><a xlink:title=" ">
<polygon fill="white" stroke="#bfbfbf" points="60.96,-0.5 60.96,-19.5 116.96,-19.5 116.96,-0.5 60.96,-0.5"/>
<text text-anchor="middle" x="88.96" y="-7.5" font-family="Helvetica,sans-Serif" font-size="10.00">stddef.h</text>
</a>
</g>
</g>
<!-- Node1&#45;&gt;Node2 -->
<g id="edge1" class="edge">
<title>Node1&#45;&gt;Node2</title>
<path fill="none" stroke="midnightblue" d="M48.53,-112.42C20.02,-100.07 -10.67,-80.31 3.96,-56 14.28,-38.86 33.56,-27.91 51.15,-21.1"/>
<polygon fill="midnightblue" stroke="midnightblue" points="52.42,-24.37 60.68,-17.74 50.09,-17.77 52.42,-24.37"/>
</g>
<!-- Node3 -->
<g id="node3" class="node">
<title>Node3</title>
<g id="a_node3"><a xlink:href="input_8h.html" target="_top" xlink:title="An input.">
<polygon fill="white" stroke="black" points="182.46,-56.5 182.46,-75.5 307.46,-75.5 307.46,-56.5 182.46,-56.5"/>
<text text-anchor="middle" x="244.96" y="-63.5" font-family="Helvetica,sans-Serif" font-size="10.00">tetengo/lattice/input.h</text>
</a>
</g>
</g>
<!-- Node1&#45;&gt;Node3 -->
<g id="edge2" class="edge">
<title>Node1&#45;&gt;Node3</title>
<path fill="none" stroke="midnightblue" d="M125.93,-112.4C152.34,-102.33 187.52,-88.91 212.77,-79.28"/>
<polygon fill="midnightblue" stroke="midnightblue" points="214.17,-82.49 222.26,-75.66 211.67,-75.95 214.17,-82.49"/>
</g>
<!-- Node5 -->
<g id="node5" class="node">
<title>Node5</title>
<g id="a_node5"><a xlink:href="stringView_8h.html" target="_top" xlink:title="A string view.">
<polygon fill="white" stroke="black" points="13.46,-56.5 13.46,-75.5 164.46,-75.5 164.46,-56.5 13.46,-56.5"/>
<text text-anchor="middle" x="88.96" y="-63.5" font-family="Helvetica,sans-Serif" font-size="10.00">tetengo/lattice/stringView.h</text>
</a>
</g>
</g>
<!-- Node1&#45;&gt;Node5 -->
<g id="edge5" class="edge">
<title>Node1&#45;&gt;Node5</title>
<path fill="none" stroke="midnightblue" d="M88.96,-112.4C88.96,-104.47 88.96,-94.46 88.96,-85.86"/>
<polygon fill="midnightblue" stroke="midnightblue" points="92.46,-85.66 88.96,-75.66 85.46,-85.66 92.46,-85.66"/>
</g>
<!-- Node3&#45;&gt;Node2 -->
<g id="edge4" class="edge">
<title>Node3&#45;&gt;Node2</title>
<path fill="none" stroke="midnightblue" d="M220.24,-56.44C194.11,-47.4 152.7,-33.06 123.39,-22.92"/>
<polygon fill="midnightblue" stroke="midnightblue" points="124.16,-19.48 113.57,-19.52 121.87,-26.1 124.16,-19.48"/>
</g>
<!-- Node4 -->
<g id="node4" class="node">
<title>Node4</title>
<g id="a_node4"><a xlink:title=" ">
<polygon fill="white" stroke="#bfbfbf" points="213.96,-0.5 213.96,-19.5 275.96,-19.5 275.96,-0.5 213.96,-0.5"/>
<text text-anchor="middle" x="244.96" y="-7.5" font-family="Helvetica,sans-Serif" font-size="10.00">stdbool.h</text>
</a>
</g>
</g>
<!-- Node3&#45;&gt;Node4 -->
<g id="edge3" class="edge">
<title>Node3&#45;&gt;Node4</title>
<path fill="none" stroke="midnightblue" d="M244.96,-56.08C244.96,-49.01 244.96,-38.86 244.96,-29.99"/>
<polygon fill="midnightblue" stroke="midnightblue" points="248.46,-29.75 244.96,-19.75 241.46,-29.75 248.46,-29.75"/>
</g>
<!-- Node5&#45;&gt;Node2 -->
<g id="edge6" class="edge">
<title>Node5&#45;&gt;Node2</title>
<path fill="none" stroke="midnightblue" d="M88.96,-56.08C88.96,-49.01 88.96,-38.86 88.96,-29.99"/>
<polygon fill="midnightblue" stroke="midnightblue" points="92.46,-29.75 88.96,-19.75 85.46,-29.75 92.46,-29.75"/>
</g>
</g>
</svg>
