<?xml version="1.0" encoding="UTF-8" standalone="no"?>
<!DOCTYPE svg PUBLIC "-//W3C//DTD SVG 1.1//EN"
 "http://www.w3.org/Graphics/SVG/1.1/DTD/svg11.dtd">
<!-- Generated by graphviz version 2.43.0 (0)
 -->
<!-- Title: library/lattice/cpp/include/tetengo/lattice/entry.hpp Pages: 1 -->
<svg width="559pt" height="159pt"
 viewBox="0.00 0.00 558.50 159.00" xmlns="http://www.w3.org/2000/svg" xmlns:xlink="http://www.w3.org/1999/xlink">
<g id="graph0" class="graph" transform="scale(1 1) rotate(0) translate(4 155)">
<title>library/lattice/cpp/include/tetengo/lattice/entry.hpp</title>
<!-- Node1 -->
<g id="node1" class="node">
<title>Node1</title>
<g id="a_node1"><a xlink:title="An entry.">
<polygon fill="#999999" stroke="#666666" points="153,-151 24,-151 24,-110 153,-110 153,-151"/>
<text text-anchor="start" x="32" y="-139" font-family="Helvetica,sans-Serif" font-size="10.00">library/lattice/cpp</text>
<text text-anchor="start" x="32" y="-128" font-family="Helvetica,sans-Serif" font-size="10.00">/include/tetengo/lattice</text>
<text text-anchor="middle" x="88.5" y="-117" font-family="Helvetica,sans-Serif" font-size="10.00">/entry.hpp</text>
</a>
</g>
</g>
<!-- Node2 -->
<g id="node2" class="node">
<title>Node2</title>
<g id="a_node2"><a xlink:title=" ">
<polygon fill="#e0e0e0" stroke="#999999" points="35,-74 0,-74 0,-55 35,-55 35,-74"/>
<text text-anchor="middle" x="17.5" y="-62" font-family="Helvetica,sans-Serif" font-size="10.00">any</text>
</a>
</g>
</g>
<!-- Node1&#45;&gt;Node2 -->
<g id="edge1" class="edge">
<title>Node1&#45;&gt;Node2</title>
<path fill="none" stroke="#63b8ff" d="M66.81,-109.95C56.49,-100.65 44.32,-89.68 34.65,-80.96"/>
<polygon fill="#63b8ff" stroke="#63b8ff" points="36.99,-78.36 27.22,-74.26 32.3,-83.56 36.99,-78.36"/>
</g>
<!-- Node3 -->
<g id="node3" class="node">
<title>Node3</title>
<g id="a_node3"><a xlink:title=" ">
<polygon fill="#e0e0e0" stroke="#999999" points="100.5,-19 42.5,-19 42.5,0 100.5,0 100.5,-19"/>
<text text-anchor="middle" x="71.5" y="-7" font-family="Helvetica,sans-Serif" font-size="10.00">memory</text>
</a>
</g>
</g>
<!-- Node1&#45;&gt;Node3 -->
<g id="edge2" class="edge">
<title>Node1&#45;&gt;Node3</title>
<path fill="none" stroke="#63b8ff" d="M85.69,-109.85C82.5,-87.48 77.31,-51.19 74.17,-29.21"/>
<polygon fill="#63b8ff" stroke="#63b8ff" points="77.62,-28.58 72.74,-19.18 70.69,-29.57 77.62,-28.58"/>
</g>
<!-- Node4 -->
<g id="node4" class="node">
<title>Node4</title>
<g id="a_node4"><a xlink:title=" ">
<polygon fill="#e0e0e0" stroke="#999999" points="137,-74 92,-74 92,-55 137,-55 137,-74"/>
<text text-anchor="middle" x="114.5" y="-62" font-family="Helvetica,sans-Serif" font-size="10.00">utility</text>
</a>
</g>
</g>
<!-- Node1&#45;&gt;Node4 -->
<g id="edge3" class="edge">
<title>Node1&#45;&gt;Node4</title>
<path fill="none" stroke="#63b8ff" d="M96.44,-109.95C99.84,-101.58 103.79,-91.85 107.13,-83.64"/>
<polygon fill="#63b8ff" stroke="#63b8ff" points="110.42,-84.84 110.94,-74.26 103.93,-82.21 110.42,-84.84"/>
</g>
<!-- Node5 -->
<g id="node5" class="node">
<title>Node5</title>
<g id="a_node5"><a xlink:href="input_8hpp.html" target="_top" xlink:title="An input.">
<polygon fill="white" stroke="#666666" points="292,-74 155,-74 155,-55 292,-55 292,-74"/>
<text text-anchor="middle" x="223.5" y="-62" font-family="Helvetica,sans-Serif" font-size="10.00">tetengo/lattice/input.hpp</text>
</a>
</g>
</g>
<!-- Node1&#45;&gt;Node5 -->
<g id="edge4" class="edge">
<title>Node1&#45;&gt;Node5</title>
<path fill="none" stroke="#63b8ff" d="M129.74,-109.95C151.36,-99.7 177.25,-87.43 196.34,-78.38"/>
<polygon fill="#63b8ff" stroke="#63b8ff" points="197.84,-81.54 205.38,-74.09 194.84,-75.21 197.84,-81.54"/>
</g>
<!-- Node5&#45;&gt;Node3 -->
<g id="edge7" class="edge">
<title>Node5&#45;&gt;Node3</title>
<path fill="none" stroke="#63b8ff" d="M199.08,-54.98C173.78,-46.16 134.05,-32.31 105.64,-22.41"/>
<polygon fill="#63b8ff" stroke="#63b8ff" points="106.71,-19.07 96.11,-19.08 104.4,-25.68 106.71,-19.07"/>
</g>
<!-- Node6 -->
<g id="node6" class="node">
<title>Node6</title>
<g id="a_node6"><a xlink:title=" ">
<polygon fill="#e0e0e0" stroke="#999999" points="174.5,-19 122.5,-19 122.5,0 174.5,0 174.5,-19"/>
<text text-anchor="middle" x="148.5" y="-7" font-family="Helvetica,sans-Serif" font-size="10.00">cassert</text>
</a>
</g>
</g>
<!-- Node5&#45;&gt;Node6 -->
<g id="edge5" class="edge">
<title>Node5&#45;&gt;Node6</title>
<path fill="none" stroke="#63b8ff" d="M211.45,-54.98C200.04,-46.92 182.67,-34.65 169.07,-25.03"/>
<polygon fill="#63b8ff" stroke="#63b8ff" points="170.96,-22.08 160.77,-19.17 166.92,-27.8 170.96,-22.08"/>
</g>
<!-- Node7 -->
<g id="node7" class="node">
<title>Node7</title>
<g id="a_node7"><a xlink:title=" ">
<polygon fill="#e0e0e0" stroke="#999999" points="246,-19 193,-19 193,0 246,0 246,-19"/>
<text text-anchor="middle" x="219.5" y="-7" font-family="Helvetica,sans-Serif" font-size="10.00">cstddef</text>
</a>
</g>
</g>
<!-- Node5&#45;&gt;Node7 -->
<g id="edge6" class="edge">
<title>Node5&#45;&gt;Node7</title>
<path fill="none" stroke="#63b8ff" d="M222.84,-54.75C222.32,-47.8 221.56,-37.85 220.91,-29.13"/>
<polygon fill="#63b8ff" stroke="#63b8ff" points="224.39,-28.8 220.15,-19.09 217.41,-29.32 224.39,-28.8"/>
</g>
<!-- Node8 -->
<g id="node8" class="node">
<title>Node8</title>
<g id="a_node8"><a xlink:title=" ">
<polygon fill="#e0e0e0" stroke="#999999" points="418.5,-19 264.5,-19 264.5,0 418.5,0 418.5,-19"/>
<text text-anchor="middle" x="341.5" y="-7" font-family="Helvetica,sans-Serif" font-size="10.00">boost/core/noncopyable.hpp</text>
</a>
</g>
</g>
<!-- Node5&#45;&gt;Node8 -->
<g id="edge8" class="edge">
<title>Node5&#45;&gt;Node8</title>
<path fill="none" stroke="#63b8ff" d="M242.46,-54.98C261.53,-46.42 291.16,-33.11 313.05,-23.28"/>
<polygon fill="#63b8ff" stroke="#63b8ff" points="314.51,-26.46 322.2,-19.17 311.64,-20.07 314.51,-26.46"/>
</g>
<!-- Node9 -->
<g id="node9" class="node">
<title>Node9</title>
<g id="a_node9"><a xlink:title=" ">
<polygon fill="#e0e0e0" stroke="#999999" points="550.5,-19 436.5,-19 436.5,0 550.5,0 550.5,-19"/>
<text text-anchor="middle" x="493.5" y="-7" font-family="Helvetica,sans-Serif" font-size="10.00">boost/operators.hpp</text>
</a>
</g>
</g>
<!-- Node5&#45;&gt;Node9 -->
<g id="edge9" class="edge">
<title>Node5&#45;&gt;Node9</title>
<path fill="none" stroke="#63b8ff" d="M266.88,-54.98C313.88,-45.76 388.93,-31.03 439.66,-21.07"/>
<polygon fill="#63b8ff" stroke="#63b8ff" points="440.64,-24.44 449.78,-19.08 439.29,-17.57 440.64,-24.44"/>
</g>
</g>
</svg>
