<?xml version="1.0" encoding="UTF-8" standalone="no"?>
<!DOCTYPE svg PUBLIC "-//W3C//DTD SVG 1.1//EN"
 "http://www.w3.org/Graphics/SVG/1.1/DTD/svg11.dtd">
<!-- Generated by graphviz version 2.43.0 (0)
 -->
<!-- Title: library/lattice/cpp/include/tetengo/lattice/entry.hpp Pages: 1 -->
<svg width="385pt" height="280pt"
 viewBox="0.00 0.00 385.00 280.00" xmlns="http://www.w3.org/2000/svg" xmlns:xlink="http://www.w3.org/1999/xlink">
<g id="graph0" class="graph" transform="scale(1 1) rotate(0) translate(4 276)">
<title>library/lattice/cpp/include/tetengo/lattice/entry.hpp</title>
<!-- Node1 -->
<g id="node1" class="node">
<title>Node1</title>
<g id="a_node1"><a xlink:title="An entry.">
<polygon fill="#999999" stroke="#666666" points="265,-272 136,-272 136,-231 265,-231 265,-272"/>
<text text-anchor="start" x="144" y="-260" font-family="Helvetica,sans-Serif" font-size="10.00">library/lattice/cpp</text>
<text text-anchor="start" x="144" y="-249" font-family="Helvetica,sans-Serif" font-size="10.00">/include/tetengo/lattice</text>
<text text-anchor="middle" x="200.5" y="-238" font-family="Helvetica,sans-Serif" font-size="10.00">/entry.hpp</text>
</a>
</g>
</g>
<!-- Node2 -->
<g id="node2" class="node">
<title>Node2</title>
<g id="a_node2"><a xlink:href="node_8hpp.html" target="_top" xlink:title="A node.">
<polygon fill="white" stroke="#666666" points="172,-195 43,-195 43,-154 172,-154 172,-195"/>
<text text-anchor="start" x="51" y="-183" font-family="Helvetica,sans-Serif" font-size="10.00">library/lattice/cpp</text>
<text text-anchor="start" x="51" y="-172" font-family="Helvetica,sans-Serif" font-size="10.00">/include/tetengo/lattice</text>
<text text-anchor="middle" x="107.5" y="-161" font-family="Helvetica,sans-Serif" font-size="10.00">/node.hpp</text>
</a>
</g>
</g>
<!-- Node1&#45;&gt;Node2 -->
<g id="edge1" class="edge">
<title>Node1&#45;&gt;Node2</title>
<path fill="none" stroke="#63b8ff" d="M168.07,-224.35C156.15,-214.73 142.86,-204.01 131.77,-195.07"/>
<polygon fill="#63b8ff" stroke="#63b8ff" points="166.08,-227.24 176.07,-230.79 170.48,-221.79 166.08,-227.24"/>
</g>
<!-- Node5 -->
<g id="node5" class="node">
<title>Node5</title>
<g id="a_node5"><a xlink:href="unordered__map__vocabulary_8hpp.html" target="_top" xlink:title="An unordered map vocabulary.">
<polygon fill="white" stroke="#666666" points="377,-118 202,-118 202,-77 377,-77 377,-118"/>
<text text-anchor="start" x="210" y="-106" font-family="Helvetica,sans-Serif" font-size="10.00">library/lattice/cpp</text>
<text text-anchor="start" x="210" y="-95" font-family="Helvetica,sans-Serif" font-size="10.00">/include/tetengo/lattice</text>
<text text-anchor="middle" x="289.5" y="-84" font-family="Helvetica,sans-Serif" font-size="10.00">/unordered_map_vocabulary.hpp</text>
</a>
</g>
</g>
<!-- Node1&#45;&gt;Node5 -->
<g id="edge5" class="edge">
<title>Node1&#45;&gt;Node5</title>
<path fill="none" stroke="#63b8ff" d="M201.47,-220.81C203.32,-200.68 208.17,-174.17 220.5,-154 229.24,-139.7 243.05,-127.52 256.02,-118.24"/>
<polygon fill="#63b8ff" stroke="#63b8ff" points="197.97,-220.74 200.74,-230.97 204.95,-221.24 197.97,-220.74"/>
</g>
<!-- Node6 -->
<g id="node6" class="node">
<title>Node6</title>
<g id="a_node6"><a xlink:href="vocabulary_8hpp.html" target="_top" xlink:title="A vocabulary.">
<polygon fill="white" stroke="#666666" points="358,-195 229,-195 229,-154 358,-154 358,-195"/>
<text text-anchor="start" x="237" y="-183" font-family="Helvetica,sans-Serif" font-size="10.00">library/lattice/cpp</text>
<text text-anchor="start" x="237" y="-172" font-family="Helvetica,sans-Serif" font-size="10.00">/include/tetengo/lattice</text>
<text text-anchor="middle" x="293.5" y="-161" font-family="Helvetica,sans-Serif" font-size="10.00">/vocabulary.hpp</text>
</a>
</g>
</g>
<!-- Node1&#45;&gt;Node6 -->
<g id="edge6" class="edge">
<title>Node1&#45;&gt;Node6</title>
<path fill="none" stroke="#63b8ff" d="M232.93,-224.35C244.85,-214.73 258.14,-204.01 269.23,-195.07"/>
<polygon fill="#63b8ff" stroke="#63b8ff" points="230.52,-221.79 224.93,-230.79 234.92,-227.24 230.52,-221.79"/>
</g>
<!-- Node3 -->
<g id="node3" class="node">
<title>Node3</title>
<g id="a_node3"><a xlink:href="n__best__iterator_8hpp.html" target="_top" xlink:title="An N&#45;best lattice path iterator.">
<polygon fill="white" stroke="#666666" points="129,-41 0,-41 0,0 129,0 129,-41"/>
<text text-anchor="start" x="8" y="-29" font-family="Helvetica,sans-Serif" font-size="10.00">library/lattice/cpp</text>
<text text-anchor="start" x="8" y="-18" font-family="Helvetica,sans-Serif" font-size="10.00">/include/tetengo/lattice</text>
<text text-anchor="middle" x="64.5" y="-7" font-family="Helvetica,sans-Serif" font-size="10.00">/n_best_iterator.hpp</text>
</a>
</g>
</g>
<!-- Node2&#45;&gt;Node3 -->
<g id="edge2" class="edge">
<title>Node2&#45;&gt;Node3</title>
<path fill="none" stroke="#63b8ff" d="M62.71,-147.78C52.57,-139.65 43.14,-129.68 37.5,-118 25.31,-92.78 39.13,-61.12 51.07,-41.09"/>
<polygon fill="#63b8ff" stroke="#63b8ff" points="60.82,-150.74 70.93,-153.91 65.01,-145.13 60.82,-150.74"/>
</g>
<!-- Node4 -->
<g id="node4" class="node">
<title>Node4</title>
<g id="a_node4"><a xlink:href="path_8hpp.html" target="_top" xlink:title="A path.">
<polygon fill="white" stroke="#666666" points="176,-118 47,-118 47,-77 176,-77 176,-118"/>
<text text-anchor="start" x="55" y="-106" font-family="Helvetica,sans-Serif" font-size="10.00">library/lattice/cpp</text>
<text text-anchor="start" x="55" y="-95" font-family="Helvetica,sans-Serif" font-size="10.00">/include/tetengo/lattice</text>
<text text-anchor="middle" x="111.5" y="-84" font-family="Helvetica,sans-Serif" font-size="10.00">/path.hpp</text>
</a>
</g>
</g>
<!-- Node2&#45;&gt;Node4 -->
<g id="edge3" class="edge">
<title>Node2&#45;&gt;Node4</title>
<path fill="none" stroke="#63b8ff" d="M109.09,-143.69C109.55,-135.08 110.04,-125.9 110.46,-118.07"/>
<polygon fill="#63b8ff" stroke="#63b8ff" points="105.59,-143.62 108.55,-153.79 112.58,-144 105.59,-143.62"/>
</g>
<!-- Node4&#45;&gt;Node3 -->
<g id="edge4" class="edge">
<title>Node4&#45;&gt;Node3</title>
<path fill="none" stroke="#63b8ff" d="M93.71,-68.11C88.06,-59.09 81.94,-49.33 76.77,-41.07"/>
<polygon fill="#63b8ff" stroke="#63b8ff" points="90.88,-70.18 99.15,-76.79 96.81,-66.46 90.88,-70.18"/>
</g>
<!-- Node6&#45;&gt;Node5 -->
<g id="edge7" class="edge">
<title>Node6&#45;&gt;Node5</title>
<path fill="none" stroke="#63b8ff" d="M291.91,-143.69C291.45,-135.08 290.96,-125.9 290.54,-118.07"/>
<polygon fill="#63b8ff" stroke="#63b8ff" points="288.42,-144 292.45,-153.79 295.41,-143.62 288.42,-144"/>
</g>
</g>
</svg>
