<?xml version="1.0" encoding="UTF-8" standalone="no"?>
<!DOCTYPE svg PUBLIC "-//W3C//DTD SVG 1.1//EN"
 "http://www.w3.org/Graphics/SVG/1.1/DTD/svg11.dtd">
<!-- Generated by graphviz version 2.43.0 (0)
 -->
<!-- Title: library/json/cpp/include/tetengo/json/file_location.hpp Pages: 1 -->
<svg width="256pt" height="93pt"
 viewBox="0.00 0.00 255.50 93.00" xmlns="http://www.w3.org/2000/svg" xmlns:xlink="http://www.w3.org/1999/xlink">
<g id="graph0" class="graph" transform="scale(1 1) rotate(0) translate(4 89)">
<title>library/json/cpp/include/tetengo/json/file_location.hpp</title>
<!-- Node1 -->
<g id="node1" class="node">
<title>Node1</title>
<g id="a_node1"><a xlink:title="A file location.">
<polygon fill="#999999" stroke="#666666" points="175.5,-85 11.5,-85 11.5,-55 175.5,-55 175.5,-85"/>
<text text-anchor="start" x="19.5" y="-73" font-family="Helvetica,sans-Serif" font-size="10.00">library/json/cpp/include</text>
<text text-anchor="middle" x="93.5" y="-62" font-family="Helvetica,sans-Serif" font-size="10.00">/tetengo/json/file_location.hpp</text>
</a>
</g>
</g>
<!-- Node2 -->
<g id="node2" class="node">
<title>Node2</title>
<g id="a_node2"><a xlink:title=" ">
<polygon fill="#e0e0e0" stroke="#999999" points="53,-19 0,-19 0,0 53,0 53,-19"/>
<text text-anchor="middle" x="26.5" y="-7" font-family="Helvetica,sans-Serif" font-size="10.00">cstddef</text>
</a>
</g>
</g>
<!-- Node1&#45;&gt;Node2 -->
<g id="edge1" class="edge">
<title>Node1&#45;&gt;Node2</title>
<path fill="none" stroke="#63b8ff" d="M77.28,-54.84C67.26,-46.09 54.39,-34.85 44.12,-25.88"/>
<polygon fill="#63b8ff" stroke="#63b8ff" points="46.37,-23.21 36.54,-19.27 41.77,-28.48 46.37,-23.21"/>
</g>
<!-- Node3 -->
<g id="node3" class="node">
<title>Node3</title>
<g id="a_node3"><a xlink:title=" ">
<polygon fill="#e0e0e0" stroke="#999999" points="115.5,-19 71.5,-19 71.5,0 115.5,0 115.5,-19"/>
<text text-anchor="middle" x="93.5" y="-7" font-family="Helvetica,sans-Serif" font-size="10.00">string</text>
</a>
</g>
</g>
<!-- Node1&#45;&gt;Node3 -->
<g id="edge2" class="edge">
<title>Node1&#45;&gt;Node3</title>
<path fill="none" stroke="#63b8ff" d="M93.5,-54.84C93.5,-47.21 93.5,-37.7 93.5,-29.45"/>
<polygon fill="#63b8ff" stroke="#63b8ff" points="97,-29.27 93.5,-19.27 90,-29.27 97,-29.27"/>
</g>
<!-- Node4 -->
<g id="node4" class="node">
<title>Node4</title>
<g id="a_node4"><a xlink:title=" ">
<polygon fill="#e0e0e0" stroke="#999999" points="247.5,-19 133.5,-19 133.5,0 247.5,0 247.5,-19"/>
<text text-anchor="middle" x="190.5" y="-7" font-family="Helvetica,sans-Serif" font-size="10.00">boost/operators.hpp</text>
</a>
</g>
</g>
<!-- Node1&#45;&gt;Node4 -->
<g id="edge3" class="edge">
<title>Node1&#45;&gt;Node4</title>
<path fill="none" stroke="#63b8ff" d="M116.98,-54.84C132.3,-45.6 152.21,-33.59 167.45,-24.4"/>
<polygon fill="#63b8ff" stroke="#63b8ff" points="169.49,-27.26 176.25,-19.09 165.88,-21.26 169.49,-27.26"/>
</g>
</g>
</svg>
