<?xml version="1.0" encoding="UTF-8" standalone="no"?>
<!DOCTYPE svg PUBLIC "-//W3C//DTD SVG 1.1//EN"
 "http://www.w3.org/Graphics/SVG/1.1/DTD/svg11.dtd">
<!-- Generated by graphviz version 2.43.0 (0)
 -->
<!-- Title: library/text/cpp/include/tetengo/text/grapheme_splitting/grapheme_segment.hpp Pages: 1 -->
<svg width="376pt" height="106pt"
 viewBox="0.00 0.00 375.50 106.00" xmlns="http://www.w3.org/2000/svg" xmlns:xlink="http://www.w3.org/1999/xlink">
<g id="graph0" class="graph" transform="scale(1 1) rotate(0) translate(4 102)">
<title>library/text/cpp/include/tetengo/text/grapheme_splitting/grapheme_segment.hpp</title>
<polygon fill="white" stroke="transparent" points="-4,4 -4,-102 371.5,-102 371.5,4 -4,4"/>
<!-- Node1 -->
<g id="node1" class="node">
<title>Node1</title>
<g id="a_node1"><a xlink:title="A grapheme segment.">
<polygon fill="#bfbfbf" stroke="black" points="44,-56.5 44,-97.5 227,-97.5 227,-56.5 44,-56.5"/>
<text text-anchor="start" x="52" y="-85.5" font-family="Helvetica,sans-Serif" font-size="10.00">library/text/cpp/include</text>
<text text-anchor="start" x="52" y="-74.5" font-family="Helvetica,sans-Serif" font-size="10.00">/tetengo/text/grapheme</text>
<text text-anchor="middle" x="135.5" y="-63.5" font-family="Helvetica,sans-Serif" font-size="10.00">_splitting/grapheme_segment.hpp</text>
</a>
</g>
</g>
<!-- Node2 -->
<g id="node2" class="node">
<title>Node2</title>
<g id="a_node2"><a xlink:title=" ">
<polygon fill="white" stroke="#bfbfbf" points="0,-0.5 0,-19.5 53,-19.5 53,-0.5 0,-0.5"/>
<text text-anchor="middle" x="26.5" y="-7.5" font-family="Helvetica,sans-Serif" font-size="10.00">cstddef</text>
</a>
</g>
</g>
<!-- Node1&#45;&gt;Node2 -->
<g id="edge1" class="edge">
<title>Node1&#45;&gt;Node2</title>
<path fill="none" stroke="midnightblue" d="M102.8,-56.5C85.76,-46.34 65.33,-34.16 49.9,-24.95"/>
<polygon fill="midnightblue" stroke="midnightblue" points="51.39,-21.77 41.01,-19.65 47.81,-27.78 51.39,-21.77"/>
</g>
<!-- Node3 -->
<g id="node3" class="node">
<title>Node3</title>
<g id="a_node3"><a xlink:title=" ">
<polygon fill="white" stroke="#bfbfbf" points="71.5,-0.5 71.5,-19.5 129.5,-19.5 129.5,-0.5 71.5,-0.5"/>
<text text-anchor="middle" x="100.5" y="-7.5" font-family="Helvetica,sans-Serif" font-size="10.00">memory</text>
</a>
</g>
</g>
<!-- Node1&#45;&gt;Node3 -->
<g id="edge2" class="edge">
<title>Node1&#45;&gt;Node3</title>
<path fill="none" stroke="midnightblue" d="M125,-56.5C120.2,-47.59 114.56,-37.11 109.9,-28.46"/>
<polygon fill="midnightblue" stroke="midnightblue" points="112.98,-26.8 105.16,-19.65 106.82,-30.12 112.98,-26.8"/>
</g>
<!-- Node4 -->
<g id="node4" class="node">
<title>Node4</title>
<g id="a_node4"><a xlink:title=" ">
<polygon fill="white" stroke="#bfbfbf" points="148,-0.5 148,-19.5 195,-19.5 195,-0.5 148,-0.5"/>
<text text-anchor="middle" x="171.5" y="-7.5" font-family="Helvetica,sans-Serif" font-size="10.00">vector</text>
</a>
</g>
</g>
<!-- Node1&#45;&gt;Node4 -->
<g id="edge3" class="edge">
<title>Node1&#45;&gt;Node4</title>
<path fill="none" stroke="midnightblue" d="M146.3,-56.5C151.24,-47.59 157.04,-37.11 161.83,-28.46"/>
<polygon fill="midnightblue" stroke="midnightblue" points="164.92,-30.1 166.71,-19.65 158.8,-26.7 164.92,-30.1"/>
</g>
<!-- Node5 -->
<g id="node5" class="node">
<title>Node5</title>
<g id="a_node5"><a xlink:title=" ">
<polygon fill="white" stroke="#bfbfbf" points="213.5,-0.5 213.5,-19.5 367.5,-19.5 367.5,-0.5 213.5,-0.5"/>
<text text-anchor="middle" x="290.5" y="-7.5" font-family="Helvetica,sans-Serif" font-size="10.00">boost/core/noncopyable.hpp</text>
</a>
</g>
</g>
<!-- Node1&#45;&gt;Node5 -->
<g id="edge4" class="edge">
<title>Node1&#45;&gt;Node5</title>
<path fill="none" stroke="midnightblue" d="M182.01,-56.5C207.48,-45.81 238.31,-32.89 260.59,-23.54"/>
<polygon fill="midnightblue" stroke="midnightblue" points="262,-26.75 269.87,-19.65 259.29,-20.29 262,-26.75"/>
</g>
</g>
</svg>
