<?xml version="1.0" encoding="UTF-8" standalone="no"?>
<!DOCTYPE svg PUBLIC "-//W3C//DTD SVG 1.1//EN"
 "http://www.w3.org/Graphics/SVG/1.1/DTD/svg11.dtd">
<!-- Generated by graphviz version 2.43.0 (0)
 -->
<!-- Title: library/text/cpp/include/tetengo/text/grapheme_splitter.hpp Pages: 1 -->
<svg width="663pt" height="106pt"
 viewBox="0.00 0.00 662.50 106.00" xmlns="http://www.w3.org/2000/svg" xmlns:xlink="http://www.w3.org/1999/xlink">
<g id="graph0" class="graph" transform="scale(1 1) rotate(0) translate(4 102)">
<title>library/text/cpp/include/tetengo/text/grapheme_splitter.hpp</title>
<polygon fill="white" stroke="transparent" points="-4,4 -4,-102 658.5,-102 658.5,4 -4,4"/>
<!-- Node1 -->
<g id="node1" class="node">
<title>Node1</title>
<g id="a_node1"><a xlink:title="A grapheme splitter.">
<polygon fill="#bfbfbf" stroke="black" points="182.5,-56.5 182.5,-97.5 314.5,-97.5 314.5,-56.5 182.5,-56.5"/>
<text text-anchor="start" x="190.5" y="-85.5" font-family="Helvetica,sans-Serif" font-size="10.00">library/text/cpp/include</text>
<text text-anchor="start" x="190.5" y="-74.5" font-family="Helvetica,sans-Serif" font-size="10.00">/tetengo/text/grapheme</text>
<text text-anchor="middle" x="248.5" y="-63.5" font-family="Helvetica,sans-Serif" font-size="10.00">_splitter.hpp</text>
</a>
</g>
</g>
<!-- Node2 -->
<g id="node2" class="node">
<title>Node2</title>
<g id="a_node2"><a xlink:title=" ">
<polygon fill="white" stroke="#bfbfbf" points="0,-0.5 0,-19.5 53,-19.5 53,-0.5 0,-0.5"/>
<text text-anchor="middle" x="26.5" y="-7.5" font-family="Helvetica,sans-Serif" font-size="10.00">cstddef</text>
</a>
</g>
</g>
<!-- Node1&#45;&gt;Node2 -->
<g id="edge1" class="edge">
<title>Node1&#45;&gt;Node2</title>
<path fill="none" stroke="midnightblue" d="M182.49,-56.67C143.4,-45.23 95.34,-31.15 62.98,-21.68"/>
<polygon fill="midnightblue" stroke="midnightblue" points="63.63,-18.23 53.05,-18.77 61.67,-24.94 63.63,-18.23"/>
</g>
<!-- Node3 -->
<g id="node3" class="node">
<title>Node3</title>
<g id="a_node3"><a xlink:title=" ">
<polygon fill="white" stroke="#bfbfbf" points="71.5,-0.5 71.5,-19.5 117.5,-19.5 117.5,-0.5 71.5,-0.5"/>
<text text-anchor="middle" x="94.5" y="-7.5" font-family="Helvetica,sans-Serif" font-size="10.00">locale</text>
</a>
</g>
</g>
<!-- Node1&#45;&gt;Node3 -->
<g id="edge2" class="edge">
<title>Node1&#45;&gt;Node3</title>
<path fill="none" stroke="midnightblue" d="M202.29,-56.5C176.98,-45.81 146.35,-32.89 124.22,-23.54"/>
<polygon fill="midnightblue" stroke="midnightblue" points="125.57,-20.32 115,-19.65 122.85,-26.77 125.57,-20.32"/>
</g>
<!-- Node4 -->
<g id="node4" class="node">
<title>Node4</title>
<g id="a_node4"><a xlink:title=" ">
<polygon fill="white" stroke="#bfbfbf" points="135.5,-0.5 135.5,-19.5 193.5,-19.5 193.5,-0.5 135.5,-0.5"/>
<text text-anchor="middle" x="164.5" y="-7.5" font-family="Helvetica,sans-Serif" font-size="10.00">memory</text>
</a>
</g>
</g>
<!-- Node1&#45;&gt;Node4 -->
<g id="edge3" class="edge">
<title>Node1&#45;&gt;Node4</title>
<path fill="none" stroke="midnightblue" d="M223.3,-56.5C210.67,-46.72 195.61,-35.07 183.89,-26.01"/>
<polygon fill="midnightblue" stroke="midnightblue" points="185.73,-23 175.68,-19.65 181.45,-28.54 185.73,-23"/>
</g>
<!-- Node5 -->
<g id="node5" class="node">
<title>Node5</title>
<g id="a_node5"><a xlink:title=" ">
<polygon fill="white" stroke="#bfbfbf" points="212,-0.5 212,-19.5 285,-19.5 285,-0.5 212,-0.5"/>
<text text-anchor="middle" x="248.5" y="-7.5" font-family="Helvetica,sans-Serif" font-size="10.00">string_view</text>
</a>
</g>
</g>
<!-- Node1&#45;&gt;Node5 -->
<g id="edge4" class="edge">
<title>Node1&#45;&gt;Node5</title>
<path fill="none" stroke="midnightblue" d="M248.5,-56.5C248.5,-48.07 248.5,-38.24 248.5,-29.87"/>
<polygon fill="midnightblue" stroke="midnightblue" points="252,-29.65 248.5,-19.65 245,-29.65 252,-29.65"/>
</g>
<!-- Node6 -->
<g id="node6" class="node">
<title>Node6</title>
<g id="a_node6"><a xlink:title=" ">
<polygon fill="white" stroke="#bfbfbf" points="303,-0.5 303,-19.5 350,-19.5 350,-0.5 303,-0.5"/>
<text text-anchor="middle" x="326.5" y="-7.5" font-family="Helvetica,sans-Serif" font-size="10.00">vector</text>
</a>
</g>
</g>
<!-- Node1&#45;&gt;Node6 -->
<g id="edge5" class="edge">
<title>Node1&#45;&gt;Node6</title>
<path fill="none" stroke="midnightblue" d="M271.9,-56.5C283.52,-46.82 297.34,-35.3 308.17,-26.27"/>
<polygon fill="midnightblue" stroke="midnightblue" points="310.68,-28.74 316.12,-19.65 306.19,-23.37 310.68,-28.74"/>
</g>
<!-- Node7 -->
<g id="node7" class="node">
<title>Node7</title>
<g id="a_node7"><a xlink:title=" ">
<polygon fill="white" stroke="#bfbfbf" points="368.5,-0.5 368.5,-19.5 522.5,-19.5 522.5,-0.5 368.5,-0.5"/>
<text text-anchor="middle" x="445.5" y="-7.5" font-family="Helvetica,sans-Serif" font-size="10.00">boost/core/noncopyable.hpp</text>
</a>
</g>
</g>
<!-- Node1&#45;&gt;Node7 -->
<g id="edge6" class="edge">
<title>Node1&#45;&gt;Node7</title>
<path fill="none" stroke="midnightblue" d="M307.61,-56.5C340.96,-45.49 381.53,-32.11 410,-22.71"/>
<polygon fill="midnightblue" stroke="midnightblue" points="411.14,-26.02 419.54,-19.57 408.94,-19.38 411.14,-26.02"/>
</g>
<!-- Node8 -->
<g id="node8" class="node">
<title>Node8</title>
<g id="a_node8"><a xlink:title=" ">
<polygon fill="white" stroke="#bfbfbf" points="540.5,-0.5 540.5,-19.5 654.5,-19.5 654.5,-0.5 540.5,-0.5"/>
<text text-anchor="middle" x="597.5" y="-7.5" font-family="Helvetica,sans-Serif" font-size="10.00">boost/operators.hpp</text>
</a>
</g>
</g>
<!-- Node1&#45;&gt;Node8 -->
<g id="edge7" class="edge">
<title>Node1&#45;&gt;Node8</title>
<path fill="none" stroke="midnightblue" d="M314.55,-63.7C380.26,-51.46 479.95,-32.89 541.78,-21.38"/>
<polygon fill="midnightblue" stroke="midnightblue" points="542.55,-24.79 551.74,-19.52 541.27,-17.91 542.55,-24.79"/>
</g>
</g>
</svg>
