<?xml version="1.0" encoding="UTF-8" standalone="no"?>
<!DOCTYPE svg PUBLIC "-//W3C//DTD SVG 1.1//EN"
 "http://www.w3.org/Graphics/SVG/1.1/DTD/svg11.dtd">
<!-- Generated by graphviz version 2.43.0 (0)
 -->
<!-- Title: Graphical Class Hierarchy Pages: 1 -->
<svg width="582pt" height="1345pt"
 viewBox="0.00 0.00 582.00 1344.50" xmlns="http://www.w3.org/2000/svg" xmlns:xlink="http://www.w3.org/1999/xlink">
<g id="graph0" class="graph" transform="scale(1 1) rotate(0) translate(4 1340.5)">
<title>Graphical Class Hierarchy</title>
<polygon fill="white" stroke="transparent" points="-4,4 -4,-1340.5 578,-1340.5 578,4 -4,4"/>
<!-- Node0 -->
<g id="node1" class="node">
<title>Node0</title>
<g id="a_node1"><a xlink:title=" ">
<polygon fill="white" stroke="#bfbfbf" points="0,-1248.5 0,-1267.5 152,-1267.5 152,-1248.5 0,-1248.5"/>
<text text-anchor="middle" x="76" y="-1255.5" font-family="Helvetica,sans-Serif" font-size="10.00">boost::equality_comparable</text>
</a>
</g>
</g>
<!-- Node1 -->
<g id="node2" class="node">
<title>Node1</title>
<g id="a_node2"><a xlink:href="classtetengo_1_1json_1_1file__location.html" target="_top" xlink:title="A file location.">
<polygon fill="white" stroke="black" points="220,-1306 220,-1336 321,-1336 321,-1306 220,-1306"/>
<text text-anchor="start" x="228" y="-1324" font-family="Helvetica,sans-Serif" font-size="10.00">tetengo::json::file</text>
<text text-anchor="middle" x="270.5" y="-1313" font-family="Helvetica,sans-Serif" font-size="10.00">_location</text>
</a>
</g>
</g>
<!-- Node0&#45;&gt;Node1 -->
<g id="edge1" class="edge">
<title>Node0&#45;&gt;Node1</title>
<path fill="none" stroke="midnightblue" d="M114.02,-1271.01C135.55,-1278.49 163.25,-1287.97 188,-1296 198.28,-1299.33 209.32,-1302.8 219.86,-1306.05"/>
<polygon fill="midnightblue" stroke="midnightblue" points="114.88,-1267.6 104.29,-1267.62 112.58,-1274.21 114.88,-1267.6"/>
</g>
<!-- Node2 -->
<g id="node3" class="node">
<title>Node2</title>
<g id="a_node3"><a xlink:href="classtetengo_1_1lattice_1_1input.html" target="_top" xlink:title="An input.">
<polygon fill="white" stroke="black" points="209.5,-1191.5 209.5,-1210.5 331.5,-1210.5 331.5,-1191.5 209.5,-1191.5"/>
<text text-anchor="middle" x="270.5" y="-1198.5" font-family="Helvetica,sans-Serif" font-size="10.00">tetengo::lattice::input</text>
</a>
</g>
</g>
<!-- Node0&#45;&gt;Node2 -->
<g id="edge2" class="edge">
<title>Node0&#45;&gt;Node2</title>
<path fill="none" stroke="midnightblue" d="M112.23,-1244.92C133.91,-1237.13 162.36,-1227.36 188,-1220 199.87,-1216.59 212.84,-1213.35 224.88,-1210.55"/>
<polygon fill="midnightblue" stroke="midnightblue" points="110.99,-1241.65 102.78,-1248.35 113.38,-1248.23 110.99,-1241.65"/>
</g>
<!-- Node51 -->
<g id="node5" class="node">
<title>Node51</title>
<g id="a_node5"><a xlink:href="classtetengo_1_1lattice_1_1node.html" target="_top" xlink:title="A node.">
<polygon fill="white" stroke="black" points="210,-1267.5 210,-1286.5 331,-1286.5 331,-1267.5 210,-1267.5"/>
<text text-anchor="middle" x="270.5" y="-1274.5" font-family="Helvetica,sans-Serif" font-size="10.00">tetengo::lattice::node</text>
</a>
</g>
</g>
<!-- Node0&#45;&gt;Node51 -->
<g id="edge4" class="edge">
<title>Node0&#45;&gt;Node51</title>
<path fill="none" stroke="midnightblue" d="M162.64,-1266.45C178.55,-1268.02 194.85,-1269.63 209.78,-1271.11"/>
<polygon fill="midnightblue" stroke="midnightblue" points="162.55,-1262.93 152.25,-1265.43 161.86,-1269.89 162.55,-1262.93"/>
</g>
<!-- Node52 -->
<g id="node6" class="node">
<title>Node52</title>
<g id="a_node6"><a xlink:href="classtetengo_1_1text_1_1grapheme.html" target="_top" xlink:title="A grapheme.">
<polygon fill="white" stroke="black" points="203,-1229.5 203,-1248.5 338,-1248.5 338,-1229.5 203,-1229.5"/>
<text text-anchor="middle" x="270.5" y="-1236.5" font-family="Helvetica,sans-Serif" font-size="10.00">tetengo::text::grapheme</text>
</a>
</g>
</g>
<!-- Node0&#45;&gt;Node52 -->
<g id="edge5" class="edge">
<title>Node0&#45;&gt;Node52</title>
<path fill="none" stroke="midnightblue" d="M162.5,-1249.56C175.99,-1248.23 189.77,-1246.87 202.75,-1245.59"/>
<polygon fill="midnightblue" stroke="midnightblue" points="161.86,-1246.11 152.25,-1250.57 162.55,-1253.07 161.86,-1246.11"/>
</g>
<!-- Node3 -->
<g id="node4" class="node">
<title>Node3</title>
<g id="a_node4"><a xlink:href="classtetengo_1_1lattice_1_1string__input.html" target="_top" xlink:title="A string input.">
<polygon fill="white" stroke="black" points="419,-1186 419,-1216 544,-1216 544,-1186 419,-1186"/>
<text text-anchor="start" x="427" y="-1204" font-family="Helvetica,sans-Serif" font-size="10.00">tetengo::lattice::string</text>
<text text-anchor="middle" x="481.5" y="-1193" font-family="Helvetica,sans-Serif" font-size="10.00">_input</text>
</a>
</g>
</g>
<!-- Node2&#45;&gt;Node3 -->
<g id="edge3" class="edge">
<title>Node2&#45;&gt;Node3</title>
<path fill="none" stroke="midnightblue" d="M341.82,-1201C366.81,-1201 394.74,-1201 418.94,-1201"/>
<polygon fill="midnightblue" stroke="midnightblue" points="341.67,-1197.5 331.67,-1201 341.67,-1204.5 341.67,-1197.5"/>
</g>
<!-- Node4 -->
<g id="node7" class="node">
<title>Node4</title>
<g id="a_node7"><a xlink:title=" ">
<polygon fill="white" stroke="#bfbfbf" points="20,-612.5 20,-631.5 132,-631.5 132,-612.5 20,-612.5"/>
<text text-anchor="middle" x="76" y="-619.5" font-family="Helvetica,sans-Serif" font-size="10.00">boost::noncopyable</text>
</a>
</g>
</g>
<!-- Node4&#45;&gt;Node2 -->
<g id="edge17" class="edge">
<title>Node4&#45;&gt;Node2</title>
<path fill="none" stroke="#8b1a1a" d="M78.12,-641.83C83.62,-731.98 110.69,-1102.06 188,-1182 193.86,-1188.06 201.25,-1192.34 209.17,-1195.35"/>
<polygon fill="#8b1a1a" stroke="#8b1a1a" points="81.62,-641.63 77.53,-631.85 74.63,-642.04 81.62,-641.63"/>
</g>
<!-- Node5 -->
<g id="node8" class="node">
<title>Node5</title>
<g id="a_node8"><a xlink:href="classtetengo_1_1json_1_1channel.html" target="_top" xlink:title="A channel.">
<polygon fill="white" stroke="black" points="208,-1153.5 208,-1172.5 333,-1172.5 333,-1153.5 208,-1153.5"/>
<text text-anchor="middle" x="270.5" y="-1160.5" font-family="Helvetica,sans-Serif" font-size="10.00">tetengo::json::channel</text>
</a>
</g>
</g>
<!-- Node4&#45;&gt;Node5 -->
<g id="edge6" class="edge">
<title>Node4&#45;&gt;Node5</title>
<path fill="none" stroke="#8b1a1a" d="M78.43,-641.83C85.06,-728.16 115.59,-1070.16 188,-1144 193.49,-1149.6 200.3,-1153.69 207.61,-1156.64"/>
<polygon fill="#8b1a1a" stroke="#8b1a1a" points="81.9,-641.31 77.67,-631.6 74.92,-641.83 81.9,-641.31"/>
</g>
<!-- Node6 -->
<g id="node9" class="node">
<title>Node6</title>
<g id="a_node9"><a xlink:href="classtetengo_1_1json_1_1json__grammar.html" target="_top" xlink:title="A JSON grammar.">
<polygon fill="white" stroke="black" points="217,-1104 217,-1134 324,-1134 324,-1104 217,-1104"/>
<text text-anchor="start" x="225" y="-1122" font-family="Helvetica,sans-Serif" font-size="10.00">tetengo::json::json</text>
<text text-anchor="middle" x="270.5" y="-1111" font-family="Helvetica,sans-Serif" font-size="10.00">_grammar</text>
</a>
</g>
</g>
<!-- Node4&#45;&gt;Node6 -->
<g id="edge7" class="edge">
<title>Node4&#45;&gt;Node6</title>
<path fill="none" stroke="#8b1a1a" d="M79.05,-642.17C87.73,-723.63 123.92,-1027.24 188,-1095 195.7,-1103.15 206.01,-1108.57 216.71,-1112.17"/>
<polygon fill="#8b1a1a" stroke="#8b1a1a" points="82.49,-641.4 77.97,-631.82 75.53,-642.13 82.49,-641.4"/>
</g>
<!-- Node7 -->
<g id="node10" class="node">
<title>Node7</title>
<g id="a_node10"><a xlink:href="classtetengo_1_1json_1_1json__parser.html" target="_top" xlink:title="A JSON parser.">
<polygon fill="white" stroke="black" points="217,-1055 217,-1085 324,-1085 324,-1055 217,-1055"/>
<text text-anchor="start" x="225" y="-1073" font-family="Helvetica,sans-Serif" font-size="10.00">tetengo::json::json</text>
<text text-anchor="middle" x="270.5" y="-1062" font-family="Helvetica,sans-Serif" font-size="10.00">_parser</text>
</a>
</g>
</g>
<!-- Node4&#45;&gt;Node7 -->
<g id="edge8" class="edge">
<title>Node4&#45;&gt;Node7</title>
<path fill="none" stroke="#8b1a1a" d="M79.58,-641.45C89.86,-716.34 130.24,-984.82 188,-1045 195.79,-1053.11 206.14,-1058.62 216.84,-1062.34"/>
<polygon fill="#8b1a1a" stroke="#8b1a1a" points="83.04,-640.95 78.23,-631.5 76.1,-641.88 83.04,-640.95"/>
</g>
<!-- Node8 -->
<g id="node11" class="node">
<title>Node8</title>
<g id="a_node11"><a xlink:href="classtetengo_1_1json_1_1reader.html" target="_top" xlink:title="A reader.">
<polygon fill="white" stroke="black" points="211.5,-1016.5 211.5,-1035.5 329.5,-1035.5 329.5,-1016.5 211.5,-1016.5"/>
<text text-anchor="middle" x="270.5" y="-1023.5" font-family="Helvetica,sans-Serif" font-size="10.00">tetengo::json::reader</text>
</a>
</g>
</g>
<!-- Node4&#45;&gt;Node8 -->
<g id="edge9" class="edge">
<title>Node4&#45;&gt;Node8</title>
<path fill="none" stroke="#8b1a1a" d="M76.26,-641.68C75.03,-704.89 80.21,-904.63 188,-1007 194.53,-1013.2 202.68,-1017.52 211.28,-1020.49"/>
<polygon fill="#8b1a1a" stroke="#8b1a1a" points="79.76,-641.61 76.54,-631.52 72.77,-641.42 79.76,-641.61"/>
</g>
<!-- Node12 -->
<g id="node15" class="node">
<title>Node12</title>
<g id="a_node15"><a xlink:href="classtetengo_1_1lattice_1_1constraint.html" target="_top" xlink:title="A constraint.">
<polygon fill="white" stroke="black" points="197.5,-978.5 197.5,-997.5 343.5,-997.5 343.5,-978.5 197.5,-978.5"/>
<text text-anchor="middle" x="270.5" y="-985.5" font-family="Helvetica,sans-Serif" font-size="10.00">tetengo::lattice::constraint</text>
</a>
</g>
</g>
<!-- Node4&#45;&gt;Node12 -->
<g id="edge13" class="edge">
<title>Node4&#45;&gt;Node12</title>
<path fill="none" stroke="#8b1a1a" d="M76.99,-642.06C78.11,-701.56 89.94,-878.53 188,-969 192.16,-972.84 196.95,-975.95 202.08,-978.47"/>
<polygon fill="#8b1a1a" stroke="#8b1a1a" points="80.49,-641.75 76.89,-631.79 73.49,-641.82 80.49,-641.75"/>
</g>
<!-- Node13 -->
<g id="node16" class="node">
<title>Node13</title>
<g id="a_node16"><a xlink:href="classtetengo_1_1lattice_1_1constraint__element.html" target="_top" xlink:title="A constraint element.">
<polygon fill="white" stroke="black" points="197.5,-929 197.5,-959 343.5,-959 343.5,-929 197.5,-929"/>
<text text-anchor="start" x="205.5" y="-947" font-family="Helvetica,sans-Serif" font-size="10.00">tetengo::lattice::constraint</text>
<text text-anchor="middle" x="270.5" y="-936" font-family="Helvetica,sans-Serif" font-size="10.00">_element</text>
</a>
</g>
</g>
<!-- Node4&#45;&gt;Node13 -->
<g id="edge14" class="edge">
<title>Node4&#45;&gt;Node13</title>
<path fill="none" stroke="#8b1a1a" d="M78.5,-641.67C83.61,-694.5 104.93,-840.77 188,-919 192.09,-922.86 196.77,-926.12 201.76,-928.88"/>
<polygon fill="#8b1a1a" stroke="#8b1a1a" points="81.98,-641.27 77.62,-631.61 75.01,-641.88 81.98,-641.27"/>
</g>
<!-- Node16 -->
<g id="node19" class="node">
<title>Node16</title>
<g id="a_node19"><a xlink:href="classtetengo_1_1lattice_1_1lattice.html" target="_top" xlink:title="A lattice.">
<polygon fill="white" stroke="black" points="206.5,-890.5 206.5,-909.5 334.5,-909.5 334.5,-890.5 206.5,-890.5"/>
<text text-anchor="middle" x="270.5" y="-897.5" font-family="Helvetica,sans-Serif" font-size="10.00">tetengo::lattice::lattice</text>
</a>
</g>
</g>
<!-- Node4&#45;&gt;Node16 -->
<g id="edge18" class="edge">
<title>Node4&#45;&gt;Node16</title>
<path fill="none" stroke="#8b1a1a" d="M79.4,-641.69C86.41,-690.33 111.46,-816.86 188,-881 193.35,-885.48 199.55,-888.95 206.11,-891.62"/>
<polygon fill="#8b1a1a" stroke="#8b1a1a" points="82.84,-641.01 78.04,-631.56 75.9,-641.94 82.84,-641.01"/>
</g>
<!-- Node17 -->
<g id="node20" class="node">
<title>Node17</title>
<g id="a_node20"><a xlink:href="classtetengo_1_1lattice_1_1vocabulary.html" target="_top" xlink:title="A vocabulary.">
<polygon fill="white" stroke="black" points="195,-852.5 195,-871.5 346,-871.5 346,-852.5 195,-852.5"/>
<text text-anchor="middle" x="270.5" y="-859.5" font-family="Helvetica,sans-Serif" font-size="10.00">tetengo::lattice::vocabulary</text>
</a>
</g>
</g>
<!-- Node4&#45;&gt;Node17 -->
<g id="edge19" class="edge">
<title>Node4&#45;&gt;Node17</title>
<path fill="none" stroke="#8b1a1a" d="M80.98,-641.72C90.85,-685.26 120.67,-789.96 188,-843 192.91,-846.87 198.47,-849.97 204.32,-852.46"/>
<polygon fill="#8b1a1a" stroke="#8b1a1a" points="84.38,-640.85 78.85,-631.81 77.53,-642.32 84.38,-640.85"/>
</g>
<!-- Node19 -->
<g id="node22" class="node">
<title>Node19</title>
<g id="a_node22"><a xlink:href="classtetengo_1_1platform__dependent_1_1property__set__file__path.html" target="_top" xlink:title="A property set file path.">
<polygon fill="white" stroke="black" points="191,-803 191,-833 350,-833 350,-803 191,-803"/>
<text text-anchor="start" x="199" y="-821" font-family="Helvetica,sans-Serif" font-size="10.00">tetengo::platform_dependent</text>
<text text-anchor="middle" x="270.5" y="-810" font-family="Helvetica,sans-Serif" font-size="10.00">::property_set_file_path</text>
</a>
</g>
</g>
<!-- Node4&#45;&gt;Node19 -->
<g id="edge21" class="edge">
<title>Node4&#45;&gt;Node19</title>
<path fill="none" stroke="#8b1a1a" d="M84.27,-641.65C98.52,-677.44 133.57,-753.3 188,-794 192.61,-797.44 197.7,-800.4 203.03,-802.93"/>
<polygon fill="#8b1a1a" stroke="#8b1a1a" points="87.38,-639.98 80.52,-631.91 80.85,-642.5 87.38,-639.98"/>
</g>
<!-- Node20 -->
<g id="node23" class="node">
<title>Node20</title>
<g id="a_node23"><a xlink:href="classtetengo_1_1platform__dependent_1_1text__encoder.html" target="_top" xlink:title="A text encoder.">
<polygon fill="white" stroke="black" points="191,-754 191,-784 350,-784 350,-754 191,-754"/>
<text text-anchor="start" x="199" y="-772" font-family="Helvetica,sans-Serif" font-size="10.00">tetengo::platform_dependent</text>
<text text-anchor="middle" x="270.5" y="-761" font-family="Helvetica,sans-Serif" font-size="10.00">::text_encoder</text>
</a>
</g>
</g>
<!-- Node4&#45;&gt;Node20 -->
<g id="edge22" class="edge">
<title>Node4&#45;&gt;Node20</title>
<path fill="none" stroke="#8b1a1a" d="M88.48,-640.09C106.45,-666.94 143.79,-717.19 188,-745 193.49,-748.46 199.51,-751.43 205.7,-753.99"/>
<polygon fill="#8b1a1a" stroke="#8b1a1a" points="91.35,-638.09 82.95,-631.64 85.49,-641.92 91.35,-638.09"/>
</g>
<!-- Node21 -->
<g id="node24" class="node">
<title>Node21</title>
<g id="a_node24"><a xlink:href="classtetengo_1_1platform__dependent_1_1windows__registry__reader.html" target="_top" xlink:title="A Windows registry reader.">
<polygon fill="white" stroke="black" points="191,-705 191,-735 350,-735 350,-705 191,-705"/>
<text text-anchor="start" x="199" y="-723" font-family="Helvetica,sans-Serif" font-size="10.00">tetengo::platform_dependent</text>
<text text-anchor="middle" x="270.5" y="-712" font-family="Helvetica,sans-Serif" font-size="10.00">::windows_registry_reader</text>
</a>
</g>
</g>
<!-- Node4&#45;&gt;Node21 -->
<g id="edge23" class="edge">
<title>Node4&#45;&gt;Node21</title>
<path fill="none" stroke="#8b1a1a" d="M96.92,-638C118.33,-654.51 153.88,-680.06 188,-696 195.08,-699.31 202.73,-702.28 210.39,-704.9"/>
<polygon fill="#8b1a1a" stroke="#8b1a1a" points="98.95,-635.14 88.92,-631.73 94.64,-640.65 98.95,-635.14"/>
</g>
<!-- Node22 -->
<g id="node25" class="node">
<title>Node22</title>
<g id="a_node25"><a xlink:href="classtetengo_1_1platform__dependent_1_1windows__registry__writer.html" target="_top" xlink:title="A Windows registry writer.">
<polygon fill="white" stroke="black" points="191,-656 191,-686 350,-686 350,-656 191,-656"/>
<text text-anchor="start" x="199" y="-674" font-family="Helvetica,sans-Serif" font-size="10.00">tetengo::platform_dependent</text>
<text text-anchor="middle" x="270.5" y="-663" font-family="Helvetica,sans-Serif" font-size="10.00">::windows_registry_writer</text>
</a>
</g>
</g>
<!-- Node4&#45;&gt;Node22 -->
<g id="edge24" class="edge">
<title>Node4&#45;&gt;Node22</title>
<path fill="none" stroke="#8b1a1a" d="M124.54,-634.1C150.5,-640.71 182.86,-648.95 210.43,-655.96"/>
<polygon fill="#8b1a1a" stroke="#8b1a1a" points="125.13,-630.64 114.57,-631.56 123.4,-637.42 125.13,-630.64"/>
</g>
<!-- Node23 -->
<g id="node26" class="node">
<title>Node23</title>
<g id="a_node26"><a xlink:href="classtetengo_1_1property_1_1property__set.html" target="_top" xlink:title="A property set.">
<polygon fill="white" stroke="black" points="217,-607 217,-637 324,-637 324,-607 217,-607"/>
<text text-anchor="start" x="225" y="-625" font-family="Helvetica,sans-Serif" font-size="10.00">tetengo::property::</text>
<text text-anchor="middle" x="270.5" y="-614" font-family="Helvetica,sans-Serif" font-size="10.00">property_set</text>
</a>
</g>
</g>
<!-- Node4&#45;&gt;Node23 -->
<g id="edge25" class="edge">
<title>Node4&#45;&gt;Node23</title>
<path fill="none" stroke="#8b1a1a" d="M142.38,-622C166.7,-622 193.96,-622 216.98,-622"/>
<polygon fill="#8b1a1a" stroke="#8b1a1a" points="142.16,-618.5 132.16,-622 142.16,-625.5 142.16,-618.5"/>
</g>
<!-- Node24 -->
<g id="node27" class="node">
<title>Node24</title>
<g id="a_node27"><a xlink:href="classtetengo_1_1property_1_1storage.html" target="_top" xlink:title="A storage.">
<polygon fill="white" stroke="black" points="217,-558 217,-588 324,-588 324,-558 217,-558"/>
<text text-anchor="start" x="225" y="-576" font-family="Helvetica,sans-Serif" font-size="10.00">tetengo::property::</text>
<text text-anchor="middle" x="270.5" y="-565" font-family="Helvetica,sans-Serif" font-size="10.00">storage</text>
</a>
</g>
</g>
<!-- Node4&#45;&gt;Node24 -->
<g id="edge26" class="edge">
<title>Node4&#45;&gt;Node24</title>
<path fill="none" stroke="#8b1a1a" d="M124.51,-609.91C152.48,-602.79 187.9,-593.77 216.73,-586.43"/>
<polygon fill="#8b1a1a" stroke="#8b1a1a" points="123.4,-606.58 114.57,-612.44 125.13,-613.36 123.4,-606.58"/>
</g>
<!-- Node29 -->
<g id="node32" class="node">
<title>Node29</title>
<g id="a_node32"><a xlink:href="classtetengo_1_1property_1_1storage__loader.html" target="_top" xlink:title="A storage loader.">
<polygon fill="white" stroke="black" points="217,-509 217,-539 324,-539 324,-509 217,-509"/>
<text text-anchor="start" x="225" y="-527" font-family="Helvetica,sans-Serif" font-size="10.00">tetengo::property::</text>
<text text-anchor="middle" x="270.5" y="-516" font-family="Helvetica,sans-Serif" font-size="10.00">storage_loader</text>
</a>
</g>
</g>
<!-- Node4&#45;&gt;Node29 -->
<g id="edge31" class="edge">
<title>Node4&#45;&gt;Node29</title>
<path fill="none" stroke="#8b1a1a" d="M96.99,-606.31C118.46,-590.1 154.06,-564.96 188,-549 197.11,-544.72 207.13,-540.94 216.93,-537.71"/>
<polygon fill="#8b1a1a" stroke="#8b1a1a" points="94.78,-603.6 88.97,-612.46 99.04,-609.16 94.78,-603.6"/>
</g>
<!-- Node34 -->
<g id="node37" class="node">
<title>Node34</title>
<g id="a_node37"><a xlink:href="classtetengo_1_1text_1_1encoder__base.html" target="_top" xlink:title="An encoder base.">
<polygon fill="white" stroke="black" points="194,-470.5 194,-489.5 347,-489.5 347,-470.5 194,-470.5"/>
<text text-anchor="middle" x="270.5" y="-477.5" font-family="Helvetica,sans-Serif" font-size="10.00">tetengo::text::encoder_base</text>
</a>
</g>
</g>
<!-- Node4&#45;&gt;Node34 -->
<g id="edge36" class="edge">
<title>Node4&#45;&gt;Node34</title>
<path fill="none" stroke="#8b1a1a" d="M88.36,-603.81C106.17,-576.84 143.31,-526.58 188,-500 195.26,-495.68 203.42,-492.29 211.69,-489.63"/>
<polygon fill="#8b1a1a" stroke="#8b1a1a" points="85.36,-602 82.88,-612.3 91.24,-605.79 85.36,-602"/>
</g>
<!-- Node36 -->
<g id="node39" class="node">
<title>Node36</title>
<g id="a_node39"><a xlink:href="classtetengo_1_1text_1_1encoding_1_1cp932.html" target="_top" xlink:title="A CP932 encoding.">
<polygon fill="white" stroke="black" points="205.5,-421 205.5,-451 335.5,-451 335.5,-421 205.5,-421"/>
<text text-anchor="start" x="213.5" y="-439" font-family="Helvetica,sans-Serif" font-size="10.00">tetengo::text::encoding</text>
<text text-anchor="middle" x="270.5" y="-428" font-family="Helvetica,sans-Serif" font-size="10.00">::cp932</text>
</a>
</g>
</g>
<!-- Node4&#45;&gt;Node36 -->
<g id="edge38" class="edge">
<title>Node4&#45;&gt;Node36</title>
<path fill="none" stroke="#8b1a1a" d="M84.88,-603.18C99.91,-569.58 135.88,-499.19 188,-461 193.25,-457.15 199.11,-453.89 205.2,-451.12"/>
<polygon fill="#8b1a1a" stroke="#8b1a1a" points="81.67,-601.79 80.89,-612.36 88.09,-604.58 81.67,-601.79"/>
</g>
<!-- Node37 -->
<g id="node40" class="node">
<title>Node37</title>
<g id="a_node40"><a xlink:href="classtetengo_1_1text_1_1encoding_1_1utf16.html" target="_top" xlink:title="A UTF&#45;16 encoding.">
<polygon fill="white" stroke="black" points="205.5,-372 205.5,-402 335.5,-402 335.5,-372 205.5,-372"/>
<text text-anchor="start" x="213.5" y="-390" font-family="Helvetica,sans-Serif" font-size="10.00">tetengo::text::encoding</text>
<text text-anchor="middle" x="270.5" y="-379" font-family="Helvetica,sans-Serif" font-size="10.00">::utf16</text>
</a>
</g>
</g>
<!-- Node4&#45;&gt;Node37 -->
<g id="edge39" class="edge">
<title>Node4&#45;&gt;Node37</title>
<path fill="none" stroke="#8b1a1a" d="M81.85,-602.47C93.14,-561.07 125.13,-464.01 188,-412 193.13,-407.76 198.98,-404.23 205.13,-401.3"/>
<polygon fill="#8b1a1a" stroke="#8b1a1a" points="78.4,-601.82 79.26,-612.38 85.17,-603.59 78.4,-601.82"/>
</g>
<!-- Node38 -->
<g id="node41" class="node">
<title>Node38</title>
<g id="a_node41"><a xlink:href="classtetengo_1_1text_1_1encoding_1_1utf8.html" target="_top" xlink:title="A UTF&#45;8 encoding.">
<polygon fill="white" stroke="black" points="205.5,-323 205.5,-353 335.5,-353 335.5,-323 205.5,-323"/>
<text text-anchor="start" x="213.5" y="-341" font-family="Helvetica,sans-Serif" font-size="10.00">tetengo::text::encoding</text>
<text text-anchor="middle" x="270.5" y="-330" font-family="Helvetica,sans-Serif" font-size="10.00">::utf8</text>
</a>
</g>
</g>
<!-- Node4&#45;&gt;Node38 -->
<g id="edge40" class="edge">
<title>Node4&#45;&gt;Node38</title>
<path fill="none" stroke="#8b1a1a" d="M79.73,-602.3C87.44,-554.16 113.87,-429.58 188,-363 193.07,-358.45 198.94,-354.73 205.17,-351.69"/>
<polygon fill="#8b1a1a" stroke="#8b1a1a" points="76.24,-601.93 78.22,-612.34 83.16,-602.97 76.24,-601.93"/>
</g>
<!-- Node39 -->
<g id="node42" class="node">
<title>Node39</title>
<g id="a_node42"><a xlink:href="classtetengo_1_1text_1_1grapheme__splitter.html" target="_top" xlink:title="A grapheme splitter.">
<polygon fill="white" stroke="black" points="203,-274 203,-304 338,-304 338,-274 203,-274"/>
<text text-anchor="start" x="211" y="-292" font-family="Helvetica,sans-Serif" font-size="10.00">tetengo::text::grapheme</text>
<text text-anchor="middle" x="270.5" y="-281" font-family="Helvetica,sans-Serif" font-size="10.00">_splitter</text>
</a>
</g>
</g>
<!-- Node4&#45;&gt;Node39 -->
<g id="edge41" class="edge">
<title>Node4&#45;&gt;Node39</title>
<path fill="none" stroke="#8b1a1a" d="M78.2,-602.33C82.59,-548.19 102.33,-395.63 188,-314 192.39,-309.81 197.47,-306.33 202.9,-303.42"/>
<polygon fill="#8b1a1a" stroke="#8b1a1a" points="74.71,-602.1 77.48,-612.32 81.69,-602.6 74.71,-602.1"/>
</g>
<!-- Node40 -->
<g id="node43" class="node">
<title>Node40</title>
<g id="a_node43"><a xlink:href="classtetengo_1_1text_1_1grapheme__splitting_1_1character__width.html" target="_top" xlink:title="A character width.">
<polygon fill="white" stroke="black" points="197.5,-225 197.5,-255 343.5,-255 343.5,-225 197.5,-225"/>
<text text-anchor="start" x="205.5" y="-243" font-family="Helvetica,sans-Serif" font-size="10.00">tetengo::text::grapheme</text>
<text text-anchor="middle" x="270.5" y="-232" font-family="Helvetica,sans-Serif" font-size="10.00">_splitting::character_width</text>
</a>
</g>
</g>
<!-- Node4&#45;&gt;Node40 -->
<g id="edge42" class="edge">
<title>Node4&#45;&gt;Node40</title>
<path fill="none" stroke="#8b1a1a" d="M77.08,-602.09C78.44,-542.2 90.79,-361.84 188,-265 191.88,-261.14 196.34,-257.87 201.13,-255.1"/>
<polygon fill="#8b1a1a" stroke="#8b1a1a" points="73.58,-602.36 76.94,-612.4 80.58,-602.45 73.58,-602.36"/>
</g>
<!-- Node43 -->
<g id="node46" class="node">
<title>Node43</title>
<g id="a_node46"><a xlink:href="classtetengo_1_1text_1_1grapheme__splitting_1_1grapheme__segment.html" target="_top" xlink:title="A grapheme segment.">
<polygon fill="white" stroke="black" points="188,-176 188,-206 353,-206 353,-176 188,-176"/>
<text text-anchor="start" x="196" y="-194" font-family="Helvetica,sans-Serif" font-size="10.00">tetengo::text::grapheme</text>
<text text-anchor="middle" x="270.5" y="-183" font-family="Helvetica,sans-Serif" font-size="10.00">_splitting::grapheme_segment</text>
</a>
</g>
</g>
<!-- Node4&#45;&gt;Node43 -->
<g id="edge45" class="edge">
<title>Node4&#45;&gt;Node43</title>
<path fill="none" stroke="#8b1a1a" d="M76.21,-602.43C74.69,-537.74 78.83,-328.58 188,-216 191.71,-212.18 195.99,-208.93 200.6,-206.18"/>
<polygon fill="#8b1a1a" stroke="#8b1a1a" points="72.71,-602.58 76.52,-612.46 79.7,-602.36 72.71,-602.58"/>
</g>
<!-- Node44 -->
<g id="node47" class="node">
<title>Node44</title>
<g id="a_node47"><a xlink:href="classtetengo_1_1trie_1_1double__array.html" target="_top" xlink:title="A double array.">
<polygon fill="white" stroke="black" points="212.5,-127 212.5,-157 328.5,-157 328.5,-127 212.5,-127"/>
<text text-anchor="start" x="220.5" y="-145" font-family="Helvetica,sans-Serif" font-size="10.00">tetengo::trie::double</text>
<text text-anchor="middle" x="270.5" y="-134" font-family="Helvetica,sans-Serif" font-size="10.00">_array</text>
</a>
</g>
</g>
<!-- Node4&#45;&gt;Node44 -->
<g id="edge46" class="edge">
<title>Node4&#45;&gt;Node44</title>
<path fill="none" stroke="#8b1a1a" d="M79.24,-602.1C88.54,-523.03 126.45,-232.25 188,-167 194.6,-160 203.1,-154.95 212.12,-151.3"/>
<polygon fill="#8b1a1a" stroke="#8b1a1a" points="75.75,-601.84 78.08,-612.18 82.7,-602.64 75.75,-601.84"/>
</g>
<!-- Node45 -->
<g id="node48" class="node">
<title>Node45</title>
<g id="a_node48"><a xlink:href="classtetengo_1_1trie_1_1storage.html" target="_top" xlink:title="A storage.">
<polygon fill="white" stroke="black" points="211,-88.5 211,-107.5 330,-107.5 330,-88.5 211,-88.5"/>
<text text-anchor="middle" x="270.5" y="-95.5" font-family="Helvetica,sans-Serif" font-size="10.00">tetengo::trie::storage</text>
</a>
</g>
</g>
<!-- Node4&#45;&gt;Node45 -->
<g id="edge47" class="edge">
<title>Node4&#45;&gt;Node45</title>
<path fill="none" stroke="#8b1a1a" d="M78.6,-602.33C85.85,-518.16 118.28,-189.4 188,-118 194.31,-111.54 202.34,-107.03 210.9,-103.91"/>
<polygon fill="#8b1a1a" stroke="#8b1a1a" points="75.11,-602.08 77.76,-612.33 82.09,-602.66 75.11,-602.08"/>
</g>
<!-- Node49 -->
<g id="node52" class="node">
<title>Node49</title>
<g id="a_node52"><a xlink:href="classtetengo_1_1trie_1_1trie.html" target="_top" xlink:title="A trie.">
<polygon fill="white" stroke="black" points="190.5,-39 190.5,-69 350.5,-69 350.5,-39 190.5,-39"/>
<text text-anchor="start" x="198.5" y="-57" font-family="Helvetica,sans-Serif" font-size="10.00">tetengo::trie::trie</text>
<text text-anchor="middle" x="270.5" y="-46" font-family="Helvetica,sans-Serif" font-size="10.00">&lt; Key, Value, KeySerializer &gt;</text>
</a>
</g>
</g>
<!-- Node4&#45;&gt;Node49 -->
<g id="edge51" class="edge">
<title>Node4&#45;&gt;Node49</title>
<path fill="none" stroke="#8b1a1a" d="M78.4,-602.05C84.98,-513.71 115.64,-158.66 188,-79 191.48,-75.17 195.54,-71.91 199.94,-69.15"/>
<polygon fill="#8b1a1a" stroke="#8b1a1a" points="74.9,-601.85 77.67,-612.08 81.89,-602.36 74.9,-601.85"/>
</g>
<!-- Node50 -->
<g id="node53" class="node">
<title>Node50</title>
<g id="a_node53"><a xlink:href="classtetengo_1_1trie_1_1trie__impl.html" target="_top" xlink:title="An implementation of trie.">
<polygon fill="white" stroke="black" points="207.5,-0.5 207.5,-19.5 333.5,-19.5 333.5,-0.5 207.5,-0.5"/>
<text text-anchor="middle" x="270.5" y="-7.5" font-family="Helvetica,sans-Serif" font-size="10.00">tetengo::trie::trie_impl</text>
</a>
</g>
</g>
<!-- Node4&#45;&gt;Node50 -->
<g id="edge52" class="edge">
<title>Node4&#45;&gt;Node50</title>
<path fill="none" stroke="#8b1a1a" d="M77.88,-602.22C82.45,-508.96 106.4,-114.27 188,-29 193.42,-23.33 200.19,-19.21 207.48,-16.23"/>
<polygon fill="#8b1a1a" stroke="#8b1a1a" points="74.37,-602.33 77.4,-612.48 81.37,-602.65 74.37,-602.33"/>
</g>
<!-- Node9 -->
<g id="node12" class="node">
<title>Node9</title>
<g id="a_node12"><a xlink:href="classtetengo_1_1json_1_1comment__removing__reader.html" target="_top" xlink:title="A comment removing reader.">
<polygon fill="white" stroke="black" points="415,-1084 415,-1114 548,-1114 548,-1084 415,-1084"/>
<text text-anchor="start" x="423" y="-1102" font-family="Helvetica,sans-Serif" font-size="10.00">tetengo::json::comment</text>
<text text-anchor="middle" x="481.5" y="-1091" font-family="Helvetica,sans-Serif" font-size="10.00">_removing_reader</text>
</a>
</g>
</g>
<!-- Node8&#45;&gt;Node9 -->
<g id="edge10" class="edge">
<title>Node8&#45;&gt;Node9</title>
<path fill="none" stroke="midnightblue" d="M334.8,-1038.59C341.08,-1040.71 347.26,-1043.16 353,-1046 371.42,-1055.11 370.66,-1065.74 389,-1075 397.06,-1079.07 405.89,-1082.5 414.77,-1085.37"/>
<polygon fill="midnightblue" stroke="midnightblue" points="335.46,-1035.13 324.87,-1035.53 333.4,-1041.82 335.46,-1035.13"/>
</g>
<!-- Node10 -->
<g id="node13" class="node">
<title>Node10</title>
<g id="a_node13"><a xlink:href="classtetengo_1_1json_1_1line__counting__reader.html" target="_top" xlink:title="A line counting reader.">
<polygon fill="white" stroke="black" points="429.5,-1035 429.5,-1065 533.5,-1065 533.5,-1035 429.5,-1035"/>
<text text-anchor="start" x="437.5" y="-1053" font-family="Helvetica,sans-Serif" font-size="10.00">tetengo::json::line</text>
<text text-anchor="middle" x="481.5" y="-1042" font-family="Helvetica,sans-Serif" font-size="10.00">_counting_reader</text>
</a>
</g>
</g>
<!-- Node8&#45;&gt;Node10 -->
<g id="edge11" class="edge">
<title>Node8&#45;&gt;Node10</title>
<path fill="none" stroke="midnightblue" d="M339.83,-1033.85C368.97,-1037.19 402.4,-1041.03 429.35,-1044.13"/>
<polygon fill="midnightblue" stroke="midnightblue" points="340.05,-1030.35 329.72,-1032.69 339.25,-1037.3 340.05,-1030.35"/>
</g>
<!-- Node11 -->
<g id="node14" class="node">
<title>Node11</title>
<g id="a_node14"><a xlink:href="classtetengo_1_1json_1_1stream__reader.html" target="_top" xlink:title="A stream reader.">
<polygon fill="white" stroke="black" points="421,-986 421,-1016 542,-1016 542,-986 421,-986"/>
<text text-anchor="start" x="429" y="-1004" font-family="Helvetica,sans-Serif" font-size="10.00">tetengo::json::stream</text>
<text text-anchor="middle" x="481.5" y="-993" font-family="Helvetica,sans-Serif" font-size="10.00">_reader</text>
</a>
</g>
</g>
<!-- Node8&#45;&gt;Node11 -->
<g id="edge12" class="edge">
<title>Node8&#45;&gt;Node11</title>
<path fill="none" stroke="midnightblue" d="M339.91,-1017.82C366.02,-1014.69 395.54,-1011.16 420.78,-1008.14"/>
<polygon fill="midnightblue" stroke="midnightblue" points="339.23,-1014.37 329.72,-1019.04 340.06,-1021.32 339.23,-1014.37"/>
</g>
<!-- Node14 -->
<g id="node17" class="node">
<title>Node14</title>
<g id="a_node17"><a xlink:href="classtetengo_1_1lattice_1_1node__constraint__element.html" target="_top" xlink:title="A node constraint element.">
<polygon fill="white" stroke="black" points="421,-937 421,-967 542,-967 542,-937 421,-937"/>
<text text-anchor="start" x="429" y="-955" font-family="Helvetica,sans-Serif" font-size="10.00">tetengo::lattice::node</text>
<text text-anchor="middle" x="481.5" y="-944" font-family="Helvetica,sans-Serif" font-size="10.00">_constraint_element</text>
</a>
</g>
</g>
<!-- Node13&#45;&gt;Node14 -->
<g id="edge15" class="edge">
<title>Node13&#45;&gt;Node14</title>
<path fill="none" stroke="midnightblue" d="M353.86,-947.15C376.19,-948.01 399.93,-948.92 420.75,-949.71"/>
<polygon fill="midnightblue" stroke="midnightblue" points="353.85,-943.65 343.72,-946.76 353.58,-950.64 353.85,-943.65"/>
</g>
<!-- Node15 -->
<g id="node18" class="node">
<title>Node15</title>
<g id="a_node18"><a xlink:href="classtetengo_1_1lattice_1_1wildcard__constraint__element.html" target="_top" xlink:title="A wildcard constraint element.">
<polygon fill="white" stroke="black" points="412.5,-888 412.5,-918 550.5,-918 550.5,-888 412.5,-888"/>
<text text-anchor="start" x="420.5" y="-906" font-family="Helvetica,sans-Serif" font-size="10.00">tetengo::lattice::wildcard</text>
<text text-anchor="middle" x="481.5" y="-895" font-family="Helvetica,sans-Serif" font-size="10.00">_constraint_element</text>
</a>
</g>
</g>
<!-- Node13&#45;&gt;Node15 -->
<g id="edge16" class="edge">
<title>Node13&#45;&gt;Node15</title>
<path fill="none" stroke="midnightblue" d="M353.78,-927.86C373.23,-924.04 393.76,-920.02 412.5,-916.34"/>
<polygon fill="midnightblue" stroke="midnightblue" points="352.86,-924.47 343.72,-929.83 354.21,-931.34 352.86,-924.47"/>
</g>
<!-- Node18 -->
<g id="node21" class="node">
<title>Node18</title>
<g id="a_node21"><a xlink:href="classtetengo_1_1lattice_1_1unordered__map__vocabulary.html" target="_top" xlink:title="An unordered map vocabulary.">
<polygon fill="white" stroke="black" points="408.5,-839 408.5,-869 554.5,-869 554.5,-839 408.5,-839"/>
<text text-anchor="start" x="416.5" y="-857" font-family="Helvetica,sans-Serif" font-size="10.00">tetengo::lattice::unordered</text>
<text text-anchor="middle" x="481.5" y="-846" font-family="Helvetica,sans-Serif" font-size="10.00">_map_vocabulary</text>
</a>
</g>
</g>
<!-- Node17&#45;&gt;Node18 -->
<g id="edge20" class="edge">
<title>Node17&#45;&gt;Node18</title>
<path fill="none" stroke="midnightblue" d="M356.17,-858.76C373.5,-858.1 391.58,-857.4 408.41,-856.76"/>
<polygon fill="midnightblue" stroke="midnightblue" points="355.93,-855.27 346.07,-859.15 356.2,-862.26 355.93,-855.27"/>
</g>
<!-- Node25 -->
<g id="node28" class="node">
<title>Node25</title>
<g id="a_node28"><a xlink:href="classtetengo_1_1property_1_1file__storage.html" target="_top" xlink:title="A file storage.">
<polygon fill="white" stroke="black" points="428,-705 428,-735 535,-735 535,-705 428,-705"/>
<text text-anchor="start" x="436" y="-723" font-family="Helvetica,sans-Serif" font-size="10.00">tetengo::property::</text>
<text text-anchor="middle" x="481.5" y="-712" font-family="Helvetica,sans-Serif" font-size="10.00">file_storage</text>
</a>
</g>
</g>
<!-- Node24&#45;&gt;Node25 -->
<g id="edge27" class="edge">
<title>Node24&#45;&gt;Node25</title>
<path fill="none" stroke="midnightblue" d="M333.33,-585.1C340.54,-588.42 347.33,-592.63 353,-598 386.69,-629.91 354.66,-664.79 389,-696 399.7,-705.72 413.85,-711.59 427.82,-715.12"/>
<polygon fill="midnightblue" stroke="midnightblue" points="334.61,-581.85 324.03,-581.37 332.01,-588.34 334.61,-581.85"/>
</g>
<!-- Node26 -->
<g id="node29" class="node">
<title>Node26</title>
<g id="a_node29"><a xlink:href="classtetengo_1_1property_1_1memory__storage.html" target="_top" xlink:title="A memory storage.">
<polygon fill="white" stroke="black" points="428,-656 428,-686 535,-686 535,-656 428,-656"/>
<text text-anchor="start" x="436" y="-674" font-family="Helvetica,sans-Serif" font-size="10.00">tetengo::property::</text>
<text text-anchor="middle" x="481.5" y="-663" font-family="Helvetica,sans-Serif" font-size="10.00">memory_storage</text>
</a>
</g>
</g>
<!-- Node24&#45;&gt;Node26 -->
<g id="edge28" class="edge">
<title>Node24&#45;&gt;Node26</title>
<path fill="none" stroke="midnightblue" d="M333.67,-587.4C340.5,-590.32 347.11,-593.82 353,-598 375.03,-613.64 366.65,-631.81 389,-647 400.41,-654.75 414.18,-660 427.54,-663.56"/>
<polygon fill="midnightblue" stroke="midnightblue" points="334.84,-584.1 324.25,-583.77 332.32,-590.63 334.84,-584.1"/>
</g>
<!-- Node27 -->
<g id="node30" class="node">
<title>Node27</title>
<g id="a_node30"><a xlink:href="classtetengo_1_1property_1_1storage__proxy.html" target="_top" xlink:title="A storage proxy.">
<polygon fill="white" stroke="black" points="428,-607 428,-637 535,-637 535,-607 428,-607"/>
<text text-anchor="start" x="436" y="-625" font-family="Helvetica,sans-Serif" font-size="10.00">tetengo::property::</text>
<text text-anchor="middle" x="481.5" y="-614" font-family="Helvetica,sans-Serif" font-size="10.00">storage_proxy</text>
</a>
</g>
</g>
<!-- Node24&#45;&gt;Node27 -->
<g id="edge29" class="edge">
<title>Node24&#45;&gt;Node27</title>
<path fill="none" stroke="midnightblue" d="M334.14,-587.69C364,-594.69 399.32,-602.97 427.78,-609.64"/>
<polygon fill="midnightblue" stroke="midnightblue" points="334.77,-584.24 324.24,-585.36 333.18,-591.06 334.77,-584.24"/>
</g>
<!-- Node28 -->
<g id="node31" class="node">
<title>Node28</title>
<g id="a_node31"><a xlink:href="classtetengo_1_1property_1_1windows__registry__storage.html" target="_top" xlink:title="A Windows registry storage.">
<polygon fill="white" stroke="black" points="409.5,-558 409.5,-588 553.5,-588 553.5,-558 409.5,-558"/>
<text text-anchor="start" x="417.5" y="-576" font-family="Helvetica,sans-Serif" font-size="10.00">tetengo::property::</text>
<text text-anchor="middle" x="481.5" y="-565" font-family="Helvetica,sans-Serif" font-size="10.00">windows_registry_storage</text>
</a>
</g>
</g>
<!-- Node24&#45;&gt;Node28 -->
<g id="edge30" class="edge">
<title>Node24&#45;&gt;Node28</title>
<path fill="none" stroke="midnightblue" d="M334.46,-573C358.03,-573 384.96,-573 409.22,-573"/>
<polygon fill="midnightblue" stroke="midnightblue" points="334.24,-569.5 324.24,-573 334.24,-576.5 334.24,-569.5"/>
</g>
<!-- Node30 -->
<g id="node33" class="node">
<title>Node30</title>
<g id="a_node33"><a xlink:href="classtetengo_1_1property_1_1file__storage__loader.html" target="_top" xlink:title="A file storage loader.">
<polygon fill="white" stroke="black" points="426.5,-509 426.5,-539 536.5,-539 536.5,-509 426.5,-509"/>
<text text-anchor="start" x="434.5" y="-527" font-family="Helvetica,sans-Serif" font-size="10.00">tetengo::property::</text>
<text text-anchor="middle" x="481.5" y="-516" font-family="Helvetica,sans-Serif" font-size="10.00">file_storage_loader</text>
</a>
</g>
</g>
<!-- Node29&#45;&gt;Node30 -->
<g id="edge32" class="edge">
<title>Node29&#45;&gt;Node30</title>
<path fill="none" stroke="midnightblue" d="M334.37,-524C363.67,-524 398.19,-524 426.32,-524"/>
<polygon fill="midnightblue" stroke="midnightblue" points="334.24,-520.5 324.24,-524 334.24,-527.5 334.24,-520.5"/>
</g>
<!-- Node31 -->
<g id="node34" class="node">
<title>Node31</title>
<g id="a_node34"><a xlink:href="classtetengo_1_1property_1_1memory__storage__loader.html" target="_top" xlink:title="A memory storage loader.">
<polygon fill="white" stroke="black" points="413.5,-460 413.5,-490 549.5,-490 549.5,-460 413.5,-460"/>
<text text-anchor="start" x="421.5" y="-478" font-family="Helvetica,sans-Serif" font-size="10.00">tetengo::property::</text>
<text text-anchor="middle" x="481.5" y="-467" font-family="Helvetica,sans-Serif" font-size="10.00">memory_storage_loader</text>
</a>
</g>
</g>
<!-- Node29&#45;&gt;Node31 -->
<g id="edge33" class="edge">
<title>Node29&#45;&gt;Node31</title>
<path fill="none" stroke="midnightblue" d="M334.31,-509.27C360.2,-503.2 390.17,-496.18 416.2,-490.07"/>
<polygon fill="midnightblue" stroke="midnightblue" points="333.18,-505.94 324.24,-511.64 334.77,-512.76 333.18,-505.94"/>
</g>
<!-- Node32 -->
<g id="node35" class="node">
<title>Node32</title>
<g id="a_node35"><a xlink:href="classtetengo_1_1property_1_1storage__loader__proxy.html" target="_top" xlink:title="A storage loader proxy.">
<polygon fill="white" stroke="black" points="420.5,-411 420.5,-441 542.5,-441 542.5,-411 420.5,-411"/>
<text text-anchor="start" x="428.5" y="-429" font-family="Helvetica,sans-Serif" font-size="10.00">tetengo::property::</text>
<text text-anchor="middle" x="481.5" y="-418" font-family="Helvetica,sans-Serif" font-size="10.00">storage_loader_proxy</text>
</a>
</g>
</g>
<!-- Node29&#45;&gt;Node32 -->
<g id="edge34" class="edge">
<title>Node29&#45;&gt;Node32</title>
<path fill="none" stroke="midnightblue" d="M333.63,-509.54C340.47,-506.63 347.09,-503.15 353,-499 374.82,-483.67 366.95,-465.99 389,-451 398.4,-444.61 409.38,-439.85 420.4,-436.31"/>
<polygon fill="midnightblue" stroke="midnightblue" points="332.28,-506.31 324.2,-513.17 334.79,-512.84 332.28,-506.31"/>
</g>
<!-- Node33 -->
<g id="node36" class="node">
<title>Node33</title>
<g id="a_node36"><a xlink:href="classtetengo_1_1property_1_1windows__registry__storage__loader.html" target="_top" xlink:title="A Windows registry storage loader.">
<polygon fill="white" stroke="black" points="409.5,-350.5 409.5,-391.5 553.5,-391.5 553.5,-350.5 409.5,-350.5"/>
<text text-anchor="start" x="417.5" y="-379.5" font-family="Helvetica,sans-Serif" font-size="10.00">tetengo::property::</text>
<text text-anchor="start" x="417.5" y="-368.5" font-family="Helvetica,sans-Serif" font-size="10.00">windows_registry_storage</text>
<text text-anchor="middle" x="481.5" y="-357.5" font-family="Helvetica,sans-Serif" font-size="10.00">_loader</text>
</a>
</g>
</g>
<!-- Node29&#45;&gt;Node33 -->
<g id="edge35" class="edge">
<title>Node29&#45;&gt;Node33</title>
<path fill="none" stroke="midnightblue" d="M333.32,-511.88C340.53,-508.57 347.32,-504.36 353,-499 386.44,-467.44 356.02,-434.05 389,-402 394.89,-396.27 401.88,-391.6 409.33,-387.79"/>
<polygon fill="midnightblue" stroke="midnightblue" points="331.99,-508.64 324.01,-515.61 334.59,-515.14 331.99,-508.64"/>
</g>
<!-- Node35 -->
<g id="node38" class="node">
<title>Node35</title>
<g id="a_node38"><a xlink:href="classtetengo_1_1text_1_1encoder.html" target="_top" xlink:title="An encoder.">
<polygon fill="white" stroke="black" points="419,-301 419,-331 544,-331 544,-301 419,-301"/>
<text text-anchor="start" x="427" y="-319" font-family="Helvetica,sans-Serif" font-size="10.00">tetengo::text::encoder</text>
<text text-anchor="middle" x="481.5" y="-308" font-family="Helvetica,sans-Serif" font-size="10.00">&lt; Encoding &gt;</text>
</a>
</g>
</g>
<!-- Node34&#45;&gt;Node35 -->
<g id="edge37" class="edge">
<title>Node34&#45;&gt;Node35</title>
<path fill="none" stroke="midnightblue" d="M348.23,-464.96C349.9,-463.74 351.49,-462.42 353,-461 393.58,-422.87 349.14,-379.88 389,-341 397.25,-332.95 407.83,-327.43 418.85,-323.67"/>
<polygon fill="midnightblue" stroke="midnightblue" points="346.11,-462.16 339.39,-470.36 349.75,-468.14 346.11,-462.16"/>
</g>
<!-- Node41 -->
<g id="node44" class="node">
<title>Node41</title>
<g id="a_node44"><a xlink:href="classtetengo_1_1text_1_1grapheme__splitting_1_1default__character__width.html" target="_top" xlink:title="A default character width.">
<polygon fill="white" stroke="black" points="389,-247 389,-277 574,-277 574,-247 389,-247"/>
<text text-anchor="start" x="397" y="-265" font-family="Helvetica,sans-Serif" font-size="10.00">tetengo::text::grapheme</text>
<text text-anchor="middle" x="481.5" y="-254" font-family="Helvetica,sans-Serif" font-size="10.00">_splitting::default_character_width</text>
</a>
</g>
</g>
<!-- Node40&#45;&gt;Node41 -->
<g id="edge43" class="edge">
<title>Node40&#45;&gt;Node41</title>
<path fill="none" stroke="midnightblue" d="M353.71,-248.65C365.21,-249.86 377.08,-251.11 388.74,-252.34"/>
<polygon fill="midnightblue" stroke="midnightblue" points="354.03,-245.17 343.72,-247.6 353.3,-252.13 354.03,-245.17"/>
</g>
<!-- Node42 -->
<g id="node45" class="node">
<title>Node42</title>
<g id="a_node45"><a xlink:href="classtetengo_1_1text_1_1grapheme__splitting_1_1east__asian__character__width.html" target="_top" xlink:title="An east Asian character width.">
<polygon fill="white" stroke="black" points="414,-186.5 414,-227.5 549,-227.5 549,-186.5 414,-186.5"/>
<text text-anchor="start" x="422" y="-215.5" font-family="Helvetica,sans-Serif" font-size="10.00">tetengo::text::grapheme</text>
<text text-anchor="start" x="422" y="-204.5" font-family="Helvetica,sans-Serif" font-size="10.00">_splitting::east_asian</text>
<text text-anchor="middle" x="481.5" y="-193.5" font-family="Helvetica,sans-Serif" font-size="10.00">_character_width</text>
</a>
</g>
</g>
<!-- Node40&#45;&gt;Node42 -->
<g id="edge44" class="edge">
<title>Node40&#45;&gt;Node42</title>
<path fill="none" stroke="midnightblue" d="M353.72,-227.02C373.67,-223.87 394.76,-220.54 413.89,-217.52"/>
<polygon fill="midnightblue" stroke="midnightblue" points="353.05,-223.58 343.72,-228.6 354.14,-230.49 353.05,-223.58"/>
</g>
<!-- Node46 -->
<g id="node49" class="node">
<title>Node46</title>
<g id="a_node49"><a xlink:href="classtetengo_1_1trie_1_1memory__storage.html" target="_top" xlink:title="A memory storage.">
<polygon fill="white" stroke="black" points="419.5,-132 419.5,-162 543.5,-162 543.5,-132 419.5,-132"/>
<text text-anchor="start" x="427.5" y="-150" font-family="Helvetica,sans-Serif" font-size="10.00">tetengo::trie::memory</text>
<text text-anchor="middle" x="481.5" y="-139" font-family="Helvetica,sans-Serif" font-size="10.00">_storage</text>
</a>
</g>
</g>
<!-- Node45&#45;&gt;Node46 -->
<g id="edge48" class="edge">
<title>Node45&#45;&gt;Node46</title>
<path fill="none" stroke="midnightblue" d="M322.28,-109.91C351.49,-116.75 388.39,-125.4 419.21,-132.63"/>
<polygon fill="midnightblue" stroke="midnightblue" points="322.83,-106.44 312.29,-107.56 321.23,-113.25 322.83,-106.44"/>
</g>
<!-- Node47 -->
<g id="node50" class="node">
<title>Node47</title>
<g id="a_node50"><a xlink:href="classtetengo_1_1trie_1_1mmap__storage.html" target="_top" xlink:title="An mmap storage.">
<polygon fill="white" stroke="black" points="424.5,-83 424.5,-113 538.5,-113 538.5,-83 424.5,-83"/>
<text text-anchor="start" x="432.5" y="-101" font-family="Helvetica,sans-Serif" font-size="10.00">tetengo::trie::mmap</text>
<text text-anchor="middle" x="481.5" y="-90" font-family="Helvetica,sans-Serif" font-size="10.00">_storage</text>
</a>
</g>
</g>
<!-- Node45&#45;&gt;Node47 -->
<g id="edge49" class="edge">
<title>Node45&#45;&gt;Node47</title>
<path fill="none" stroke="midnightblue" d="M340.5,-98C367.69,-98 398.53,-98 424.32,-98"/>
<polygon fill="midnightblue" stroke="midnightblue" points="340.27,-94.5 330.27,-98 340.27,-101.5 340.27,-94.5"/>
</g>
<!-- Node48 -->
<g id="node51" class="node">
<title>Node48</title>
<g id="a_node51"><a xlink:href="classtetengo_1_1trie_1_1shared__storage.html" target="_top" xlink:title="A shared storage.">
<polygon fill="white" stroke="black" points="423.5,-34 423.5,-64 539.5,-64 539.5,-34 423.5,-34"/>
<text text-anchor="start" x="431.5" y="-52" font-family="Helvetica,sans-Serif" font-size="10.00">tetengo::trie::shared</text>
<text text-anchor="middle" x="481.5" y="-41" font-family="Helvetica,sans-Serif" font-size="10.00">_storage</text>
</a>
</g>
</g>
<!-- Node45&#45;&gt;Node48 -->
<g id="edge50" class="edge">
<title>Node45&#45;&gt;Node48</title>
<path fill="none" stroke="midnightblue" d="M322.29,-86.09C352.77,-78.95 391.63,-69.84 423.21,-62.43"/>
<polygon fill="midnightblue" stroke="midnightblue" points="321.23,-82.75 312.29,-88.44 322.83,-89.56 321.23,-82.75"/>
</g>
</g>
</svg>
