<?xml version="1.0" encoding="UTF-8" standalone="no"?>
<!DOCTYPE svg PUBLIC "-//W3C//DTD SVG 1.1//EN"
 "http://www.w3.org/Graphics/SVG/1.1/DTD/svg11.dtd">
<!-- Generated by graphviz version 2.43.0 (0)
 -->
<!-- Title: Graphical Class Hierarchy Pages: 1 -->
<svg width="278pt" height="186pt"
 viewBox="0.00 0.00 278.00 186.00" xmlns="http://www.w3.org/2000/svg" xmlns:xlink="http://www.w3.org/1999/xlink">
<g id="graph0" class="graph" transform="scale(1 1) rotate(0) translate(4 182)">
<title>Graphical Class Hierarchy</title>
<polygon fill="white" stroke="transparent" points="-4,4 -4,-182 274,-182 274,4 -4,4"/>
<!-- Node0 -->
<g id="node1" class="node">
<title>Node0</title>
<g id="a_node1"><a xlink:title=" ">
<polygon fill="white" stroke="#bfbfbf" points="0,-73.5 0,-103.5 116,-103.5 116,-73.5 0,-73.5"/>
<text text-anchor="start" x="8" y="-91.5" font-family="Helvetica,sans-Serif" font-size="10.00">boost::stl_interfaces</text>
<text text-anchor="middle" x="58" y="-80.5" font-family="Helvetica,sans-Serif" font-size="10.00">::iterator_interface</text>
</a>
</g>
</g>
<!-- Node1 -->
<g id="node2" class="node">
<title>Node1</title>
<g id="a_node2"><a xlink:href="classtetengo_1_1json_1_1reader__iterator.html" target="_top" xlink:title="A reader iterator.">
<polygon fill="white" stroke="black" points="152,-147.5 152,-177.5 270,-177.5 270,-147.5 152,-147.5"/>
<text text-anchor="start" x="160" y="-165.5" font-family="Helvetica,sans-Serif" font-size="10.00">tetengo::json::reader</text>
<text text-anchor="middle" x="211" y="-154.5" font-family="Helvetica,sans-Serif" font-size="10.00">_iterator</text>
</a>
</g>
</g>
<!-- Node0&#45;&gt;Node1 -->
<g id="edge1" class="edge">
<title>Node0&#45;&gt;Node1</title>
<path fill="none" stroke="midnightblue" d="M94.59,-108.72C111.73,-118.18 132.71,-129.35 152,-138.5 158.4,-141.54 165.29,-144.58 172.01,-147.42"/>
<polygon fill="midnightblue" stroke="midnightblue" points="95.93,-105.47 85.49,-103.67 92.53,-111.59 95.93,-105.47"/>
</g>
<!-- Node2 -->
<g id="node3" class="node">
<title>Node2</title>
<g id="a_node3"><a xlink:href="classtetengo_1_1lattice_1_1n__best__iterator.html" target="_top" xlink:title="An N&#45;best lattice path iterator.">
<polygon fill="white" stroke="black" points="159.5,-98.5 159.5,-128.5 262.5,-128.5 262.5,-98.5 159.5,-98.5"/>
<text text-anchor="start" x="167.5" y="-116.5" font-family="Helvetica,sans-Serif" font-size="10.00">tetengo::lattice::n</text>
<text text-anchor="middle" x="211" y="-105.5" font-family="Helvetica,sans-Serif" font-size="10.00">_best_iterator</text>
</a>
</g>
</g>
<!-- Node0&#45;&gt;Node2 -->
<g id="edge2" class="edge">
<title>Node0&#45;&gt;Node2</title>
<path fill="none" stroke="midnightblue" d="M126.19,-99.62C137.3,-101.46 148.66,-103.34 159.28,-105.1"/>
<polygon fill="midnightblue" stroke="midnightblue" points="126.52,-96.13 116.09,-97.95 125.38,-103.04 126.52,-96.13"/>
</g>
<!-- Node3 -->
<g id="node4" class="node">
<title>Node3</title>
<g id="a_node4"><a xlink:href="classtetengo_1_1trie_1_1double__array__iterator.html" target="_top" xlink:title="A double array iterator.">
<polygon fill="white" stroke="black" points="153,-49.5 153,-79.5 269,-79.5 269,-49.5 153,-49.5"/>
<text text-anchor="start" x="161" y="-67.5" font-family="Helvetica,sans-Serif" font-size="10.00">tetengo::trie::double</text>
<text text-anchor="middle" x="211" y="-56.5" font-family="Helvetica,sans-Serif" font-size="10.00">_array_iterator</text>
</a>
</g>
</g>
<!-- Node0&#45;&gt;Node3 -->
<g id="edge3" class="edge">
<title>Node0&#45;&gt;Node3</title>
<path fill="none" stroke="midnightblue" d="M126.07,-77.84C135,-76.42 144.09,-74.98 152.83,-73.59"/>
<polygon fill="midnightblue" stroke="midnightblue" points="125.41,-74.4 116.09,-79.43 126.51,-81.31 125.41,-74.4"/>
</g>
<!-- Node4 -->
<g id="node5" class="node">
<title>Node4</title>
<g id="a_node5"><a xlink:href="classtetengo_1_1trie_1_1trie__iterator.html" target="_top" xlink:title="A trie iterator.">
<polygon fill="white" stroke="black" points="157.5,-0.5 157.5,-30.5 264.5,-30.5 264.5,-0.5 157.5,-0.5"/>
<text text-anchor="start" x="165.5" y="-18.5" font-family="Helvetica,sans-Serif" font-size="10.00">tetengo::trie::trie</text>
<text text-anchor="middle" x="211" y="-7.5" font-family="Helvetica,sans-Serif" font-size="10.00">_iterator&lt; Value &gt;</text>
</a>
</g>
</g>
<!-- Node0&#45;&gt;Node4 -->
<g id="edge4" class="edge">
<title>Node0&#45;&gt;Node4</title>
<path fill="none" stroke="midnightblue" d="M95.86,-68.73C112.82,-59.82 133.29,-49.35 152,-40.5 159.04,-37.17 166.63,-33.77 173.94,-30.58"/>
<polygon fill="midnightblue" stroke="midnightblue" points="94.04,-65.73 86.83,-73.49 97.31,-71.92 94.04,-65.73"/>
</g>
</g>
</svg>
