<?xml version="1.0" encoding="UTF-8" standalone="no"?>
<!DOCTYPE svg PUBLIC "-//W3C//DTD SVG 1.1//EN"
 "http://www.w3.org/Graphics/SVG/1.1/DTD/svg11.dtd">
<!-- Generated by graphviz version 2.43.0 (0)
 -->
<!-- Title: library/lattice/c/include/tetengo/lattice/input.h Pages: 1 -->
<svg width="533pt" height="374pt"
 viewBox="0.00 0.00 533.18 374.00" xmlns="http://www.w3.org/2000/svg" xmlns:xlink="http://www.w3.org/1999/xlink">
<g id="graph0" class="graph" transform="scale(1 1) rotate(0) translate(4 370)">
<title>library/lattice/c/include/tetengo/lattice/input.h</title>
<polygon fill="white" stroke="transparent" points="-4,4 -4,-370 529.18,-370 529.18,4 -4,4"/>
<!-- Node1 -->
<g id="node1" class="node">
<title>Node1</title>
<g id="a_node1"><a xlink:title="An input.">
<polygon fill="#bfbfbf" stroke="black" points="397.18,-335.5 397.18,-365.5 525.18,-365.5 525.18,-335.5 397.18,-335.5"/>
<text text-anchor="start" x="405.18" y="-353.5" font-family="Helvetica,sans-Serif" font-size="10.00">library/lattice/c/include</text>
<text text-anchor="middle" x="461.18" y="-342.5" font-family="Helvetica,sans-Serif" font-size="10.00">/tetengo/lattice/input.h</text>
</a>
</g>
</g>
<!-- Node2 -->
<g id="node2" class="node">
<title>Node2</title>
<g id="a_node2"><a xlink:href="entry_8h.html" target="_top" xlink:title="An entry.">
<polygon fill="white" stroke="black" points="279.18,-268.5 279.18,-298.5 407.18,-298.5 407.18,-268.5 279.18,-268.5"/>
<text text-anchor="start" x="287.18" y="-286.5" font-family="Helvetica,sans-Serif" font-size="10.00">library/lattice/c/include</text>
<text text-anchor="middle" x="343.18" y="-275.5" font-family="Helvetica,sans-Serif" font-size="10.00">/tetengo/lattice/entry.h</text>
</a>
</g>
</g>
<!-- Node1&#45;&gt;Node2 -->
<g id="edge1" class="edge">
<title>Node1&#45;&gt;Node2</title>
<path fill="none" stroke="midnightblue" d="M426.57,-330.44C408.06,-320.24 385.66,-307.9 368.74,-298.58"/>
<polygon fill="midnightblue" stroke="midnightblue" points="425.13,-333.64 435.58,-335.4 428.51,-327.51 425.13,-333.64"/>
</g>
<!-- Node4 -->
<g id="node4" class="node">
<title>Node4</title>
<g id="a_node4"><a xlink:href="vocabulary_8h.html" target="_top" xlink:title="A vocabulary.">
<polygon fill="white" stroke="black" points="330.68,-134.5 330.68,-164.5 485.68,-164.5 485.68,-134.5 330.68,-134.5"/>
<text text-anchor="start" x="338.68" y="-152.5" font-family="Helvetica,sans-Serif" font-size="10.00">library/lattice/c/include</text>
<text text-anchor="middle" x="408.18" y="-141.5" font-family="Helvetica,sans-Serif" font-size="10.00">/tetengo/lattice/vocabulary.h</text>
</a>
</g>
</g>
<!-- Node1&#45;&gt;Node4 -->
<g id="edge18" class="edge">
<title>Node1&#45;&gt;Node4</title>
<path fill="none" stroke="midnightblue" d="M454.73,-325.27C443.55,-283.29 420.92,-198.33 411.96,-164.68"/>
<polygon fill="midnightblue" stroke="midnightblue" points="451.42,-326.43 457.37,-335.19 458.18,-324.62 451.42,-326.43"/>
</g>
<!-- Node5 -->
<g id="node5" class="node">
<title>Node5</title>
<g id="a_node5"><a xlink:href="lattice_8h.html" target="_top" xlink:title="A lattice.">
<polygon fill="white" stroke="black" points="341.18,-67.5 341.18,-97.5 475.18,-97.5 475.18,-67.5 341.18,-67.5"/>
<text text-anchor="start" x="349.18" y="-85.5" font-family="Helvetica,sans-Serif" font-size="10.00">library/lattice/c/include</text>
<text text-anchor="middle" x="408.18" y="-74.5" font-family="Helvetica,sans-Serif" font-size="10.00">/tetengo/lattice/lattice.h</text>
</a>
</g>
</g>
<!-- Node1&#45;&gt;Node5 -->
<g id="edge17" class="edge">
<title>Node1&#45;&gt;Node5</title>
<path fill="none" stroke="midnightblue" d="M474.03,-326.21C495.05,-284.66 531.05,-196.29 495.18,-134 485.51,-117.2 467.87,-105.48 450.99,-97.58"/>
<polygon fill="midnightblue" stroke="midnightblue" points="470.83,-324.78 469.31,-335.26 477.04,-328.01 470.83,-324.78"/>
</g>
<!-- Node3 -->
<g id="node3" class="node">
<title>Node3</title>
<g id="a_node3"><a xlink:href="connection_8h.html" target="_top" xlink:title="A connection.">
<polygon fill="white" stroke="black" points="239.18,-201.5 239.18,-231.5 395.18,-231.5 395.18,-201.5 239.18,-201.5"/>
<text text-anchor="start" x="247.18" y="-219.5" font-family="Helvetica,sans-Serif" font-size="10.00">library/lattice/c/include</text>
<text text-anchor="middle" x="317.18" y="-208.5" font-family="Helvetica,sans-Serif" font-size="10.00">/tetengo/lattice/connection.h</text>
</a>
</g>
</g>
<!-- Node2&#45;&gt;Node3 -->
<g id="edge2" class="edge">
<title>Node2&#45;&gt;Node3</title>
<path fill="none" stroke="midnightblue" d="M333.78,-258.99C330.1,-249.8 326.01,-239.58 322.81,-231.58"/>
<polygon fill="midnightblue" stroke="midnightblue" points="330.58,-260.41 337.54,-268.4 337.08,-257.81 330.58,-260.41"/>
</g>
<!-- Node2&#45;&gt;Node4 -->
<g id="edge16" class="edge">
<title>Node2&#45;&gt;Node4</title>
<path fill="none" stroke="midnightblue" d="M377.11,-262.46C387.66,-254.4 398.11,-244.13 404.18,-232 414.96,-210.47 413.19,-181.59 410.78,-164.62"/>
<polygon fill="midnightblue" stroke="midnightblue" points="374.83,-259.79 368.71,-268.43 378.89,-265.49 374.83,-259.79"/>
</g>
<!-- Node7 -->
<g id="node7" class="node">
<title>Node7</title>
<g id="a_node7"><a xlink:href="node_8h.html" target="_top" xlink:title="A node.">
<polygon fill="white" stroke="black" points="93.18,-201.5 93.18,-231.5 221.18,-231.5 221.18,-201.5 93.18,-201.5"/>
<text text-anchor="start" x="101.18" y="-219.5" font-family="Helvetica,sans-Serif" font-size="10.00">library/lattice/c/include</text>
<text text-anchor="middle" x="157.18" y="-208.5" font-family="Helvetica,sans-Serif" font-size="10.00">/tetengo/lattice/node.h</text>
</a>
</g>
</g>
<!-- Node2&#45;&gt;Node7 -->
<g id="edge6" class="edge">
<title>Node2&#45;&gt;Node7</title>
<path fill="none" stroke="midnightblue" d="M293.37,-265.09C263.34,-254.6 225.6,-241.41 197.46,-231.58"/>
<polygon fill="midnightblue" stroke="midnightblue" points="292.23,-268.4 302.82,-268.4 294.54,-261.79 292.23,-268.4"/>
</g>
<!-- Node3&#45;&gt;Node4 -->
<g id="edge3" class="edge">
<title>Node3&#45;&gt;Node4</title>
<path fill="none" stroke="midnightblue" d="M345.25,-195.45C359.25,-185.45 375.84,-173.6 388.48,-164.58"/>
<polygon fill="midnightblue" stroke="midnightblue" points="343.03,-192.74 336.93,-201.4 347.1,-198.43 343.03,-192.74"/>
</g>
<!-- Node4&#45;&gt;Node5 -->
<g id="edge4" class="edge">
<title>Node4&#45;&gt;Node5</title>
<path fill="none" stroke="midnightblue" d="M408.18,-124.11C408.18,-115.15 408.18,-105.32 408.18,-97.58"/>
<polygon fill="midnightblue" stroke="midnightblue" points="404.68,-124.4 408.18,-134.4 411.68,-124.4 404.68,-124.4"/>
</g>
<!-- Node6 -->
<g id="node6" class="node">
<title>Node6</title>
<g id="a_node6"><a xlink:href="nBestIterator_8h.html" target="_top" xlink:title="An N&#45;best lattice path iterator.">
<polygon fill="white" stroke="black" points="97.18,-0.5 97.18,-30.5 263.18,-30.5 263.18,-0.5 97.18,-0.5"/>
<text text-anchor="start" x="105.18" y="-18.5" font-family="Helvetica,sans-Serif" font-size="10.00">library/lattice/c/include</text>
<text text-anchor="middle" x="180.18" y="-7.5" font-family="Helvetica,sans-Serif" font-size="10.00">/tetengo/lattice/nBestIterator.h</text>
</a>
</g>
</g>
<!-- Node5&#45;&gt;Node6 -->
<g id="edge5" class="edge">
<title>Node5&#45;&gt;Node6</title>
<path fill="none" stroke="midnightblue" d="M349.31,-64.71C312.2,-54.14 264.84,-40.63 229.68,-30.61"/>
<polygon fill="midnightblue" stroke="midnightblue" points="348.41,-68.1 358.99,-67.48 350.33,-61.37 348.41,-68.1"/>
</g>
<!-- Node7&#45;&gt;Node4 -->
<g id="edge15" class="edge">
<title>Node7&#45;&gt;Node4</title>
<path fill="none" stroke="midnightblue" d="M221.22,-198.92C262.18,-188.31 314.74,-174.7 353.69,-164.61"/>
<polygon fill="midnightblue" stroke="midnightblue" points="220.14,-195.58 211.34,-201.48 221.9,-202.36 220.14,-195.58"/>
</g>
<!-- Node7&#45;&gt;Node5 -->
<g id="edge11" class="edge">
<title>Node7&#45;&gt;Node5</title>
<path fill="none" stroke="midnightblue" d="M198.45,-197.15C218.74,-187.89 243.44,-176.25 265.18,-165 308.07,-142.8 356.65,-114.39 384.72,-97.65"/>
<polygon fill="midnightblue" stroke="midnightblue" points="196.83,-194.04 189.17,-201.36 199.73,-200.41 196.83,-194.04"/>
</g>
<!-- Node7&#45;&gt;Node6 -->
<g id="edge12" class="edge">
<title>Node7&#45;&gt;Node6</title>
<path fill="none" stroke="midnightblue" d="M83.18,-201.82C61.82,-194.35 40.46,-182.81 26.18,-165 -1.19,-130.83 -9.82,-102.22 16.18,-67 35.03,-41.48 66.58,-28.45 97,-21.94"/>
<polygon fill="midnightblue" stroke="midnightblue" points="82.37,-205.24 92.96,-204.98 84.52,-198.58 82.37,-205.24"/>
</g>
<!-- Node8 -->
<g id="node8" class="node">
<title>Node8</title>
<g id="a_node8"><a xlink:href="constraint_8h.html" target="_top" xlink:title="A constraint.">
<polygon fill="white" stroke="black" points="25.18,-67.5 25.18,-97.5 177.18,-97.5 177.18,-67.5 25.18,-67.5"/>
<text text-anchor="start" x="33.18" y="-85.5" font-family="Helvetica,sans-Serif" font-size="10.00">library/lattice/c/include</text>
<text text-anchor="middle" x="101.18" y="-74.5" font-family="Helvetica,sans-Serif" font-size="10.00">/tetengo/lattice/constraint.h</text>
</a>
</g>
</g>
<!-- Node7&#45;&gt;Node8 -->
<g id="edge7" class="edge">
<title>Node7&#45;&gt;Node8</title>
<path fill="none" stroke="midnightblue" d="M83.35,-200.61C64.53,-193.12 46.46,-181.87 35.18,-165 27.53,-153.55 29.08,-146.35 35.18,-134 42.98,-118.22 58.33,-106.01 72.27,-97.55"/>
<polygon fill="midnightblue" stroke="midnightblue" points="82.32,-203.96 92.92,-204.09 84.72,-197.38 82.32,-203.96"/>
</g>
<!-- Node9 -->
<g id="node9" class="node">
<title>Node9</title>
<g id="a_node9"><a xlink:href="constraintElement_8h.html" target="_top" xlink:title="A constraint element.">
<polygon fill="white" stroke="black" points="44.18,-134.5 44.18,-164.5 236.18,-164.5 236.18,-134.5 44.18,-134.5"/>
<text text-anchor="start" x="52.18" y="-152.5" font-family="Helvetica,sans-Serif" font-size="10.00">library/lattice/c/include</text>
<text text-anchor="middle" x="140.18" y="-141.5" font-family="Helvetica,sans-Serif" font-size="10.00">/tetengo/lattice/constraintElement.h</text>
</a>
</g>
</g>
<!-- Node7&#45;&gt;Node9 -->
<g id="edge9" class="edge">
<title>Node7&#45;&gt;Node9</title>
<path fill="none" stroke="midnightblue" d="M150.96,-191.7C148.58,-182.59 145.94,-172.49 143.86,-164.58"/>
<polygon fill="midnightblue" stroke="midnightblue" points="147.58,-192.61 153.49,-201.4 154.35,-190.84 147.58,-192.61"/>
</g>
<!-- Node10 -->
<g id="node10" class="node">
<title>Node10</title>
<g id="a_node10"><a xlink:href="path_8h.html" target="_top" xlink:title="A path.">
<polygon fill="white" stroke="black" points="195.18,-67.5 195.18,-97.5 323.18,-97.5 323.18,-67.5 195.18,-67.5"/>
<text text-anchor="start" x="203.18" y="-85.5" font-family="Helvetica,sans-Serif" font-size="10.00">library/lattice/c/include</text>
<text text-anchor="middle" x="259.18" y="-74.5" font-family="Helvetica,sans-Serif" font-size="10.00">/tetengo/lattice/path.h</text>
</a>
</g>
</g>
<!-- Node7&#45;&gt;Node10 -->
<g id="edge13" class="edge">
<title>Node7&#45;&gt;Node10</title>
<path fill="none" stroke="midnightblue" d="M206.72,-196.83C221.19,-189.08 235.66,-178.63 245.18,-165 259.33,-144.76 260.79,-114.93 260.22,-97.53"/>
<polygon fill="midnightblue" stroke="midnightblue" points="205.13,-193.71 197.76,-201.32 208.26,-199.97 205.13,-193.71"/>
</g>
<!-- Node8&#45;&gt;Node6 -->
<g id="edge8" class="edge">
<title>Node8&#45;&gt;Node6</title>
<path fill="none" stroke="midnightblue" d="M126.24,-60.88C138.25,-51.01 152.32,-39.43 163.07,-30.58"/>
<polygon fill="midnightblue" stroke="midnightblue" points="123.82,-58.34 118.33,-67.4 128.27,-63.75 123.82,-58.34"/>
</g>
<!-- Node9&#45;&gt;Node8 -->
<g id="edge10" class="edge">
<title>Node9&#45;&gt;Node8</title>
<path fill="none" stroke="midnightblue" d="M126.43,-125.58C120.83,-116.24 114.53,-105.75 109.63,-97.58"/>
<polygon fill="midnightblue" stroke="midnightblue" points="123.57,-127.62 131.72,-134.4 129.58,-124.02 123.57,-127.62"/>
</g>
<!-- Node10&#45;&gt;Node6 -->
<g id="edge14" class="edge">
<title>Node10&#45;&gt;Node6</title>
<path fill="none" stroke="midnightblue" d="M234.13,-60.88C222.12,-51.01 208.05,-39.43 197.29,-30.58"/>
<polygon fill="midnightblue" stroke="midnightblue" points="232.1,-63.75 242.04,-67.4 236.54,-58.34 232.1,-63.75"/>
</g>
</g>
</svg>
