<?xml version="1.0" encoding="UTF-8" standalone="no"?>
<!DOCTYPE svg PUBLIC "-//W3C//DTD SVG 1.1//EN"
 "http://www.w3.org/Graphics/SVG/1.1/DTD/svg11.dtd">
<!-- Generated by graphviz version 2.43.0 (0)
 -->
<!-- Title: library/lattice/cpp/include/tetengo/lattice/input.hpp Pages: 1 -->
<svg width="512pt" height="104pt"
 viewBox="0.00 0.00 512.00 104.00" xmlns="http://www.w3.org/2000/svg" xmlns:xlink="http://www.w3.org/1999/xlink">
<g id="graph0" class="graph" transform="scale(1 1) rotate(0) translate(4 100)">
<title>library/lattice/cpp/include/tetengo/lattice/input.hpp</title>
<!-- Node1 -->
<g id="node1" class="node">
<title>Node1</title>
<g id="a_node1"><a xlink:title="An input.">
<polygon fill="#999999" stroke="#666666" points="235.5,-96 106.5,-96 106.5,-55 235.5,-55 235.5,-96"/>
<text text-anchor="start" x="114.5" y="-84" font-family="Helvetica,sans-Serif" font-size="10.00">library/lattice/cpp</text>
<text text-anchor="start" x="114.5" y="-73" font-family="Helvetica,sans-Serif" font-size="10.00">/include/tetengo/lattice</text>
<text text-anchor="middle" x="171" y="-62" font-family="Helvetica,sans-Serif" font-size="10.00">/input.hpp</text>
</a>
</g>
</g>
<!-- Node2 -->
<g id="node2" class="node">
<title>Node2</title>
<g id="a_node2"><a xlink:title=" ">
<polygon fill="#e0e0e0" stroke="#999999" points="52,-19 0,-19 0,0 52,0 52,-19"/>
<text text-anchor="middle" x="26" y="-7" font-family="Helvetica,sans-Serif" font-size="10.00">cassert</text>
</a>
</g>
</g>
<!-- Node1&#45;&gt;Node2 -->
<g id="edge1" class="edge">
<title>Node1&#45;&gt;Node2</title>
<path fill="none" stroke="#63b8ff" d="M126.71,-54.95C103.27,-44.6 75.17,-32.2 54.62,-23.13"/>
<polygon fill="#63b8ff" stroke="#63b8ff" points="56.03,-19.93 45.47,-19.09 53.2,-26.33 56.03,-19.93"/>
</g>
<!-- Node3 -->
<g id="node3" class="node">
<title>Node3</title>
<g id="a_node3"><a xlink:title=" ">
<polygon fill="#e0e0e0" stroke="#999999" points="123.5,-19 70.5,-19 70.5,0 123.5,0 123.5,-19"/>
<text text-anchor="middle" x="97" y="-7" font-family="Helvetica,sans-Serif" font-size="10.00">cstddef</text>
</a>
</g>
</g>
<!-- Node1&#45;&gt;Node3 -->
<g id="edge2" class="edge">
<title>Node1&#45;&gt;Node3</title>
<path fill="none" stroke="#63b8ff" d="M148.4,-54.95C137.64,-45.65 124.95,-34.68 114.88,-25.96"/>
<polygon fill="#63b8ff" stroke="#63b8ff" points="116.98,-23.15 107.13,-19.26 112.4,-28.45 116.98,-23.15"/>
</g>
<!-- Node4 -->
<g id="node4" class="node">
<title>Node4</title>
<g id="a_node4"><a xlink:title=" ">
<polygon fill="#e0e0e0" stroke="#999999" points="200,-19 142,-19 142,0 200,0 200,-19"/>
<text text-anchor="middle" x="171" y="-7" font-family="Helvetica,sans-Serif" font-size="10.00">memory</text>
</a>
</g>
</g>
<!-- Node1&#45;&gt;Node4 -->
<g id="edge3" class="edge">
<title>Node1&#45;&gt;Node4</title>
<path fill="none" stroke="#63b8ff" d="M171,-54.95C171,-46.85 171,-37.5 171,-29.47"/>
<polygon fill="#63b8ff" stroke="#63b8ff" points="174.5,-29.26 171,-19.26 167.5,-29.26 174.5,-29.26"/>
</g>
<!-- Node5 -->
<g id="node5" class="node">
<title>Node5</title>
<g id="a_node5"><a xlink:title=" ">
<polygon fill="#e0e0e0" stroke="#999999" points="372,-19 218,-19 218,0 372,0 372,-19"/>
<text text-anchor="middle" x="295" y="-7" font-family="Helvetica,sans-Serif" font-size="10.00">boost/core/noncopyable.hpp</text>
</a>
</g>
</g>
<!-- Node1&#45;&gt;Node5 -->
<g id="edge4" class="edge">
<title>Node1&#45;&gt;Node5</title>
<path fill="none" stroke="#63b8ff" d="M208.88,-54.95C228.47,-44.84 251.87,-32.76 269.33,-23.75"/>
<polygon fill="#63b8ff" stroke="#63b8ff" points="271.07,-26.79 278.35,-19.09 267.86,-20.57 271.07,-26.79"/>
</g>
<!-- Node6 -->
<g id="node6" class="node">
<title>Node6</title>
<g id="a_node6"><a xlink:title=" ">
<polygon fill="#e0e0e0" stroke="#999999" points="504,-19 390,-19 390,0 504,0 504,-19"/>
<text text-anchor="middle" x="447" y="-7" font-family="Helvetica,sans-Serif" font-size="10.00">boost/operators.hpp</text>
</a>
</g>
</g>
<!-- Node1&#45;&gt;Node6 -->
<g id="edge5" class="edge">
<title>Node1&#45;&gt;Node6</title>
<path fill="none" stroke="#63b8ff" d="M235.71,-59.49C286.22,-47.78 355.19,-31.79 400.39,-21.31"/>
<polygon fill="#63b8ff" stroke="#63b8ff" points="401.27,-24.7 410.22,-19.03 399.69,-17.88 401.27,-24.7"/>
</g>
</g>
</svg>
