<?xml version="1.0" encoding="UTF-8" standalone="no"?>
<!DOCTYPE svg PUBLIC "-//W3C//DTD SVG 1.1//EN"
 "http://www.w3.org/Graphics/SVG/1.1/DTD/svg11.dtd">
<!-- Generated by graphviz version 2.43.0 (0)
 -->
<!-- Title: library/json/cpp/include/tetengo/json/json_grammar.hpp Pages: 1 -->
<svg width="525pt" height="95pt"
 viewBox="0.00 0.00 524.50 95.00" xmlns="http://www.w3.org/2000/svg" xmlns:xlink="http://www.w3.org/1999/xlink">
<g id="graph0" class="graph" transform="scale(1 1) rotate(0) translate(4 91)">
<title>library/json/cpp/include/tetengo/json/json_grammar.hpp</title>
<polygon fill="white" stroke="transparent" points="-4,4 -4,-91 520.5,-91 520.5,4 -4,4"/>
<!-- Node1 -->
<g id="node1" class="node">
<title>Node1</title>
<g id="a_node1"><a xlink:title="A JSON grammar.">
<polygon fill="#bfbfbf" stroke="black" points="109.5,-56.5 109.5,-86.5 283.5,-86.5 283.5,-56.5 109.5,-56.5"/>
<text text-anchor="start" x="117.5" y="-74.5" font-family="Helvetica,sans-Serif" font-size="10.00">library/json/cpp/include</text>
<text text-anchor="middle" x="196.5" y="-63.5" font-family="Helvetica,sans-Serif" font-size="10.00">/tetengo/json/json_grammar.hpp</text>
</a>
</g>
</g>
<!-- Node2 -->
<g id="node2" class="node">
<title>Node2</title>
<g id="a_node2"><a xlink:title=" ">
<polygon fill="white" stroke="#bfbfbf" points="0,-0.5 0,-19.5 65,-19.5 65,-0.5 0,-0.5"/>
<text text-anchor="middle" x="32.5" y="-7.5" font-family="Helvetica,sans-Serif" font-size="10.00">functional</text>
</a>
</g>
</g>
<!-- Node1&#45;&gt;Node2 -->
<g id="edge1" class="edge">
<title>Node1&#45;&gt;Node2</title>
<path fill="none" stroke="midnightblue" d="M157.63,-56.4C129.75,-46.28 92.56,-32.79 65.99,-23.15"/>
<polygon fill="midnightblue" stroke="midnightblue" points="66.96,-19.78 56.36,-19.66 64.57,-26.36 66.96,-19.78"/>
</g>
<!-- Node3 -->
<g id="node3" class="node">
<title>Node3</title>
<g id="a_node3"><a xlink:title=" ">
<polygon fill="white" stroke="#bfbfbf" points="83.5,-0.5 83.5,-19.5 141.5,-19.5 141.5,-0.5 83.5,-0.5"/>
<text text-anchor="middle" x="112.5" y="-7.5" font-family="Helvetica,sans-Serif" font-size="10.00">memory</text>
</a>
</g>
</g>
<!-- Node1&#45;&gt;Node3 -->
<g id="edge2" class="edge">
<title>Node1&#45;&gt;Node3</title>
<path fill="none" stroke="midnightblue" d="M176.59,-56.4C163.51,-47.13 146.42,-35.03 133.18,-25.65"/>
<polygon fill="midnightblue" stroke="midnightblue" points="134.91,-22.58 124.72,-19.66 130.86,-28.29 134.91,-22.58"/>
</g>
<!-- Node4 -->
<g id="node4" class="node">
<title>Node4</title>
<g id="a_node4"><a xlink:title=" ">
<polygon fill="white" stroke="#bfbfbf" points="160,-0.5 160,-19.5 233,-19.5 233,-0.5 160,-0.5"/>
<text text-anchor="middle" x="196.5" y="-7.5" font-family="Helvetica,sans-Serif" font-size="10.00">string_view</text>
</a>
</g>
</g>
<!-- Node1&#45;&gt;Node4 -->
<g id="edge3" class="edge">
<title>Node1&#45;&gt;Node4</title>
<path fill="none" stroke="midnightblue" d="M196.5,-56.4C196.5,-48.47 196.5,-38.46 196.5,-29.86"/>
<polygon fill="midnightblue" stroke="midnightblue" points="200,-29.66 196.5,-19.66 193,-29.66 200,-29.66"/>
</g>
<!-- Node5 -->
<g id="node5" class="node">
<title>Node5</title>
<g id="a_node5"><a xlink:title=" ">
<polygon fill="white" stroke="#bfbfbf" points="251,-0.5 251,-19.5 344,-19.5 344,-0.5 251,-0.5"/>
<text text-anchor="middle" x="297.5" y="-7.5" font-family="Helvetica,sans-Serif" font-size="10.00">unordered_map</text>
</a>
</g>
</g>
<!-- Node1&#45;&gt;Node5 -->
<g id="edge4" class="edge">
<title>Node1&#45;&gt;Node5</title>
<path fill="none" stroke="midnightblue" d="M220.44,-56.4C236.63,-46.86 257.91,-34.32 274,-24.84"/>
<polygon fill="midnightblue" stroke="midnightblue" points="275.96,-27.75 282.8,-19.66 272.41,-21.72 275.96,-27.75"/>
</g>
<!-- Node6 -->
<g id="node6" class="node">
<title>Node6</title>
<g id="a_node6"><a xlink:title=" ">
<polygon fill="white" stroke="#bfbfbf" points="362.5,-0.5 362.5,-19.5 516.5,-19.5 516.5,-0.5 362.5,-0.5"/>
<text text-anchor="middle" x="439.5" y="-7.5" font-family="Helvetica,sans-Serif" font-size="10.00">boost/core/noncopyable.hpp</text>
</a>
</g>
</g>
<!-- Node1&#45;&gt;Node6 -->
<g id="edge5" class="edge">
<title>Node1&#45;&gt;Node6</title>
<path fill="none" stroke="midnightblue" d="M253.78,-56.47C296.89,-45.92 355.14,-31.66 394.84,-21.94"/>
<polygon fill="midnightblue" stroke="midnightblue" points="395.88,-25.28 404.76,-19.51 394.21,-18.49 395.88,-25.28"/>
</g>
</g>
</svg>
