<?xml version="1.0" encoding="UTF-8" standalone="no"?>
<!DOCTYPE svg PUBLIC "-//W3C//DTD SVG 1.1//EN"
 "http://www.w3.org/Graphics/SVG/1.1/DTD/svg11.dtd">
<!-- Generated by graphviz version 2.43.0 (0)
 -->
<!-- Title: library/json/c/include/tetengo/json/jsonParser.h Pages: 1 -->
<svg width="329pt" height="151pt"
 viewBox="0.00 0.00 329.00 151.00" xmlns="http://www.w3.org/2000/svg" xmlns:xlink="http://www.w3.org/1999/xlink">
<g id="graph0" class="graph" transform="scale(1 1) rotate(0) translate(4 147)">
<title>library/json/c/include/tetengo/json/jsonParser.h</title>
<polygon fill="white" stroke="transparent" points="-4,4 -4,-147 325,-147 325,4 -4,4"/>
<!-- Node1 -->
<g id="node1" class="node">
<title>Node1</title>
<g id="a_node1"><a xlink:title="A JSON parser.">
<polygon fill="#bfbfbf" stroke="black" points="48,-112.5 48,-142.5 190,-142.5 190,-112.5 48,-112.5"/>
<text text-anchor="start" x="56" y="-130.5" font-family="Helvetica,sans-Serif" font-size="10.00">library/json/c/include</text>
<text text-anchor="middle" x="119" y="-119.5" font-family="Helvetica,sans-Serif" font-size="10.00">/tetengo/json/jsonParser.h</text>
</a>
</g>
</g>
<!-- Node2 -->
<g id="node2" class="node">
<title>Node2</title>
<g id="a_node2"><a xlink:title=" ">
<polygon fill="white" stroke="#bfbfbf" points="0,-0.5 0,-19.5 62,-19.5 62,-0.5 0,-0.5"/>
<text text-anchor="middle" x="31" y="-7.5" font-family="Helvetica,sans-Serif" font-size="10.00">stdbool.h</text>
</a>
</g>
</g>
<!-- Node1&#45;&gt;Node2 -->
<g id="edge1" class="edge">
<title>Node1&#45;&gt;Node2</title>
<path fill="none" stroke="midnightblue" d="M55.5,-112.5C36.31,-104.97 17.34,-93.49 6,-76 -3.82,-60.85 6.32,-41.27 16.47,-27.57"/>
<polygon fill="midnightblue" stroke="midnightblue" points="19.4,-29.51 22.94,-19.53 13.95,-25.13 19.4,-29.51"/>
</g>
<!-- Node3 -->
<g id="node3" class="node">
<title>Node3</title>
<g id="a_node3"><a xlink:title=" ">
<polygon fill="white" stroke="#bfbfbf" points="135,-0.5 135,-19.5 191,-19.5 191,-0.5 135,-0.5"/>
<text text-anchor="middle" x="163" y="-7.5" font-family="Helvetica,sans-Serif" font-size="10.00">stddef.h</text>
</a>
</g>
</g>
<!-- Node1&#45;&gt;Node3 -->
<g id="edge2" class="edge">
<title>Node1&#45;&gt;Node3</title>
<path fill="none" stroke="midnightblue" d="M126.91,-112.22C132.21,-102.27 139.09,-88.58 144,-76 150.01,-60.6 155.15,-42.5 158.56,-29.32"/>
<polygon fill="midnightblue" stroke="midnightblue" points="161.97,-30.12 161,-19.57 155.18,-28.42 161.97,-30.12"/>
</g>
<!-- Node4 -->
<g id="node4" class="node">
<title>Node4</title>
<g id="a_node4"><a xlink:href="element_8h.html" target="_top" xlink:title="An element.">
<polygon fill="white" stroke="black" points="191,-56.5 191,-75.5 321,-75.5 321,-56.5 191,-56.5"/>
<text text-anchor="middle" x="256" y="-63.5" font-family="Helvetica,sans-Serif" font-size="10.00">tetengo/json/element.h</text>
</a>
</g>
</g>
<!-- Node1&#45;&gt;Node4 -->
<g id="edge3" class="edge">
<title>Node1&#45;&gt;Node4</title>
<path fill="none" stroke="midnightblue" d="M151.47,-112.4C174.35,-102.46 204.73,-89.26 226.84,-79.66"/>
<polygon fill="midnightblue" stroke="midnightblue" points="228.29,-82.85 236.07,-75.66 225.5,-76.43 228.29,-82.85"/>
</g>
<!-- Node5 -->
<g id="node5" class="node">
<title>Node5</title>
<g id="a_node5"><a xlink:href="reader_8h.html" target="_top" xlink:title="A reader.">
<polygon fill="white" stroke="black" points="15,-56.5 15,-75.5 135,-75.5 135,-56.5 15,-56.5"/>
<text text-anchor="middle" x="75" y="-63.5" font-family="Helvetica,sans-Serif" font-size="10.00">tetengo/json/reader.h</text>
</a>
</g>
</g>
<!-- Node1&#45;&gt;Node5 -->
<g id="edge5" class="edge">
<title>Node1&#45;&gt;Node5</title>
<path fill="none" stroke="midnightblue" d="M108.57,-112.4C102.24,-103.84 94.13,-92.87 87.47,-83.86"/>
<polygon fill="midnightblue" stroke="midnightblue" points="90.16,-81.62 81.4,-75.66 84.53,-85.78 90.16,-81.62"/>
</g>
<!-- Node4&#45;&gt;Node3 -->
<g id="edge4" class="edge">
<title>Node4&#45;&gt;Node3</title>
<path fill="none" stroke="midnightblue" d="M241.06,-56.32C226.41,-47.82 203.87,-34.73 186.76,-24.8"/>
<polygon fill="midnightblue" stroke="midnightblue" points="188.31,-21.65 177.9,-19.65 184.8,-27.7 188.31,-21.65"/>
</g>
<!-- Node5&#45;&gt;Node2 -->
<g id="edge6" class="edge">
<title>Node5&#45;&gt;Node2</title>
<path fill="none" stroke="midnightblue" d="M67.73,-56.08C61.46,-48.38 52.21,-37.03 44.57,-27.65"/>
<polygon fill="midnightblue" stroke="midnightblue" points="47.16,-25.29 38.13,-19.75 41.73,-29.71 47.16,-25.29"/>
</g>
<!-- Node5&#45;&gt;Node3 -->
<g id="edge7" class="edge">
<title>Node5&#45;&gt;Node3</title>
<path fill="none" stroke="midnightblue" d="M89.14,-56.32C102.87,-47.9 123.94,-34.97 140.06,-25.07"/>
<polygon fill="midnightblue" stroke="midnightblue" points="142.2,-27.87 148.9,-19.65 138.54,-21.9 142.2,-27.87"/>
</g>
</g>
</svg>
