<?xml version="1.0" encoding="UTF-8" standalone="no"?>
<!DOCTYPE svg PUBLIC "-//W3C//DTD SVG 1.1//EN"
 "http://www.w3.org/Graphics/SVG/1.1/DTD/svg11.dtd">
<!-- Generated by graphviz version 2.43.0 (0)
 -->
<!-- Title: library/lattice/c/include/tetengo/lattice/lattice.h Pages: 1 -->
<svg width="568pt" height="319pt"
 viewBox="0.00 0.00 568.00 319.00" xmlns="http://www.w3.org/2000/svg" xmlns:xlink="http://www.w3.org/1999/xlink">
<g id="graph0" class="graph" transform="scale(1 1) rotate(0) translate(4 315)">
<title>library/lattice/c/include/tetengo/lattice/lattice.h</title>
<polygon fill="white" stroke="transparent" points="-4,4 -4,-315 564,-315 564,4 -4,4"/>
<!-- Node1 -->
<g id="node1" class="node">
<title>Node1</title>
<g id="a_node1"><a xlink:title="A lattice.">
<polygon fill="#bfbfbf" stroke="black" points="202,-280.5 202,-310.5 336,-310.5 336,-280.5 202,-280.5"/>
<text text-anchor="start" x="210" y="-298.5" font-family="Helvetica,sans-Serif" font-size="10.00">library/lattice/c/include</text>
<text text-anchor="middle" x="269" y="-287.5" font-family="Helvetica,sans-Serif" font-size="10.00">/tetengo/lattice/lattice.h</text>
</a>
</g>
</g>
<!-- Node2 -->
<g id="node2" class="node">
<title>Node2</title>
<g id="a_node2"><a xlink:title=" ">
<polygon fill="white" stroke="#bfbfbf" points="53,-0.5 53,-19.5 115,-19.5 115,-0.5 53,-0.5"/>
<text text-anchor="middle" x="84" y="-7.5" font-family="Helvetica,sans-Serif" font-size="10.00">stdbool.h</text>
</a>
</g>
</g>
<!-- Node1&#45;&gt;Node2 -->
<g id="edge1" class="edge">
<title>Node1&#45;&gt;Node2</title>
<path fill="none" stroke="midnightblue" d="M201.81,-293.63C122.14,-288.63 0,-266.67 0,-179 0,-179 0,-179 0,-121 0,-79.73 37.81,-44.32 62.69,-25.49"/>
<polygon fill="midnightblue" stroke="midnightblue" points="64.85,-28.25 70.88,-19.54 60.73,-22.59 64.85,-28.25"/>
</g>
<!-- Node3 -->
<g id="node3" class="node">
<title>Node3</title>
<g id="a_node3"><a xlink:title=" ">
<polygon fill="white" stroke="#bfbfbf" points="399,-0.5 399,-19.5 455,-19.5 455,-0.5 399,-0.5"/>
<text text-anchor="middle" x="427" y="-7.5" font-family="Helvetica,sans-Serif" font-size="10.00">stddef.h</text>
</a>
</g>
</g>
<!-- Node1&#45;&gt;Node3 -->
<g id="edge2" class="edge">
<title>Node1&#45;&gt;Node3</title>
<path fill="none" stroke="midnightblue" d="M336.13,-281.8C422.07,-263.59 560,-226.9 560,-179 560,-179 560,-179 560,-121 560,-70.73 502.87,-39.1 463.5,-23.27"/>
<polygon fill="midnightblue" stroke="midnightblue" points="464.5,-19.91 453.91,-19.59 461.99,-26.45 464.5,-19.91"/>
</g>
<!-- Node4 -->
<g id="node4" class="node">
<title>Node4</title>
<g id="a_node4"><a xlink:href="input_8h.html" target="_top" xlink:title="An input.">
<polygon fill="white" stroke="black" points="66.5,-56.5 66.5,-75.5 191.5,-75.5 191.5,-56.5 66.5,-56.5"/>
<text text-anchor="middle" x="129" y="-63.5" font-family="Helvetica,sans-Serif" font-size="10.00">tetengo/lattice/input.h</text>
</a>
</g>
</g>
<!-- Node1&#45;&gt;Node4 -->
<g id="edge3" class="edge">
<title>Node1&#45;&gt;Node4</title>
<path fill="none" stroke="midnightblue" d="M238.87,-280.46C206.6,-263.59 157.05,-231.96 135,-188 118.47,-155.05 121.76,-110.51 125.48,-85.69"/>
<polygon fill="midnightblue" stroke="midnightblue" points="128.99,-85.95 127.2,-75.5 122.08,-84.78 128.99,-85.95"/>
</g>
<!-- Node5 -->
<g id="node5" class="node">
<title>Node5</title>
<g id="a_node5"><a xlink:href="node_8h.html" target="_top" xlink:title="A node.">
<polygon fill="white" stroke="black" points="408,-168.5 408,-187.5 532,-187.5 532,-168.5 408,-168.5"/>
<text text-anchor="middle" x="470" y="-175.5" font-family="Helvetica,sans-Serif" font-size="10.00">tetengo/lattice/node.h</text>
</a>
</g>
</g>
<!-- Node1&#45;&gt;Node5 -->
<g id="edge6" class="edge">
<title>Node1&#45;&gt;Node5</title>
<path fill="none" stroke="midnightblue" d="M293.65,-280.34C332.59,-257.96 407.87,-214.7 446.25,-192.65"/>
<polygon fill="midnightblue" stroke="midnightblue" points="448.24,-195.54 455.17,-187.52 444.75,-189.47 448.24,-195.54"/>
</g>
<!-- Node8 -->
<g id="node8" class="node">
<title>Node8</title>
<g id="a_node8"><a xlink:href="vocabulary_8h.html" target="_top" xlink:title="A vocabulary.">
<polygon fill="white" stroke="black" points="193,-224.5 193,-243.5 345,-243.5 345,-224.5 193,-224.5"/>
<text text-anchor="middle" x="269" y="-231.5" font-family="Helvetica,sans-Serif" font-size="10.00">tetengo/lattice/vocabulary.h</text>
</a>
</g>
</g>
<!-- Node1&#45;&gt;Node8 -->
<g id="edge14" class="edge">
<title>Node1&#45;&gt;Node8</title>
<path fill="none" stroke="midnightblue" d="M269,-280.4C269,-272.47 269,-262.46 269,-253.86"/>
<polygon fill="midnightblue" stroke="midnightblue" points="272.5,-253.66 269,-243.66 265.5,-253.66 272.5,-253.66"/>
</g>
<!-- Node4&#45;&gt;Node2 -->
<g id="edge4" class="edge">
<title>Node4&#45;&gt;Node2</title>
<path fill="none" stroke="midnightblue" d="M121.57,-56.08C115.15,-48.38 105.69,-37.03 97.88,-27.65"/>
<polygon fill="midnightblue" stroke="midnightblue" points="100.38,-25.19 91.29,-19.75 95.01,-29.67 100.38,-25.19"/>
</g>
<!-- Node4&#45;&gt;Node3 -->
<g id="edge5" class="edge">
<title>Node4&#45;&gt;Node3</title>
<path fill="none" stroke="midnightblue" d="M176.22,-56.44C235.12,-45.77 334.65,-27.73 388.93,-17.9"/>
<polygon fill="midnightblue" stroke="midnightblue" points="389.62,-21.33 398.83,-16.1 388.37,-14.44 389.62,-21.33"/>
</g>
<!-- Node5&#45;&gt;Node2 -->
<g id="edge7" class="edge">
<title>Node5&#45;&gt;Node2</title>
<path fill="none" stroke="midnightblue" d="M465.8,-168.47C454.14,-145.81 419.01,-83.94 370,-56 328.98,-32.62 194.16,-19.32 125.29,-13.9"/>
<polygon fill="midnightblue" stroke="midnightblue" points="125.46,-10.4 115.22,-13.12 124.93,-17.38 125.46,-10.4"/>
</g>
<!-- Node5&#45;&gt;Node3 -->
<g id="edge8" class="edge">
<title>Node5&#45;&gt;Node3</title>
<path fill="none" stroke="midnightblue" d="M473.39,-168.29C480.86,-147.66 496.69,-94.7 479,-56 473.22,-43.36 461.95,-32.91 451.37,-25.27"/>
<polygon fill="midnightblue" stroke="midnightblue" points="453.04,-22.18 442.78,-19.53 449.15,-28 453.04,-22.18"/>
</g>
<!-- Node6 -->
<g id="node6" class="node">
<title>Node6</title>
<g id="a_node6"><a xlink:href="entry_8h.html" target="_top" xlink:title="An entry.">
<polygon fill="white" stroke="black" points="227,-112.5 227,-131.5 351,-131.5 351,-112.5 227,-112.5"/>
<text text-anchor="middle" x="289" y="-119.5" font-family="Helvetica,sans-Serif" font-size="10.00">tetengo/lattice/entry.h</text>
</a>
</g>
</g>
<!-- Node5&#45;&gt;Node6 -->
<g id="edge9" class="edge">
<title>Node5&#45;&gt;Node6</title>
<path fill="none" stroke="midnightblue" d="M441.32,-168.44C410.47,-159.24 361.27,-144.56 327.17,-134.39"/>
<polygon fill="midnightblue" stroke="midnightblue" points="328.13,-131.02 317.55,-131.52 326.13,-137.73 328.13,-131.02"/>
</g>
<!-- Node6&#45;&gt;Node3 -->
<g id="edge10" class="edge">
<title>Node6&#45;&gt;Node3</title>
<path fill="none" stroke="midnightblue" d="M308.82,-112.36C325.98,-104.34 350.97,-91.36 370,-76 387.44,-61.93 403.92,-42.16 414.64,-28.13"/>
<polygon fill="midnightblue" stroke="midnightblue" points="417.63,-29.97 420.79,-19.85 412.02,-25.79 417.63,-29.97"/>
</g>
<!-- Node6&#45;&gt;Node4 -->
<g id="edge11" class="edge">
<title>Node6&#45;&gt;Node4</title>
<path fill="none" stroke="midnightblue" d="M263.65,-112.44C236.73,-103.36 194,-88.94 163.91,-78.78"/>
<polygon fill="midnightblue" stroke="midnightblue" points="164.83,-75.4 154.23,-75.52 162.59,-82.03 164.83,-75.4"/>
</g>
<!-- Node7 -->
<g id="node7" class="node">
<title>Node7</title>
<g id="a_node7"><a xlink:href="stringView_8h.html" target="_top" xlink:title="A string view.">
<polygon fill="white" stroke="black" points="209.5,-56.5 209.5,-75.5 360.5,-75.5 360.5,-56.5 209.5,-56.5"/>
<text text-anchor="middle" x="285" y="-63.5" font-family="Helvetica,sans-Serif" font-size="10.00">tetengo/lattice/stringView.h</text>
</a>
</g>
</g>
<!-- Node6&#45;&gt;Node7 -->
<g id="edge12" class="edge">
<title>Node6&#45;&gt;Node7</title>
<path fill="none" stroke="midnightblue" d="M288.34,-112.08C287.82,-105.01 287.06,-94.86 286.41,-85.99"/>
<polygon fill="midnightblue" stroke="midnightblue" points="289.88,-85.47 285.65,-75.75 282.9,-85.98 289.88,-85.47"/>
</g>
<!-- Node7&#45;&gt;Node3 -->
<g id="edge13" class="edge">
<title>Node7&#45;&gt;Node3</title>
<path fill="none" stroke="midnightblue" d="M307.5,-56.44C331.08,-47.48 368.32,-33.31 394.96,-23.18"/>
<polygon fill="midnightblue" stroke="midnightblue" points="396.5,-26.34 404.6,-19.52 394.01,-19.8 396.5,-26.34"/>
</g>
<!-- Node8&#45;&gt;Node2 -->
<g id="edge15" class="edge">
<title>Node8&#45;&gt;Node2</title>
<path fill="none" stroke="midnightblue" d="M219.85,-224.46C192.79,-217.9 159.78,-206.69 135,-188 86.77,-151.62 75.92,-133.69 58,-76 52.84,-59.37 61.59,-41.01 70.3,-28.05"/>
<polygon fill="midnightblue" stroke="midnightblue" points="73.35,-29.81 76.44,-19.67 67.71,-25.67 73.35,-29.81"/>
</g>
<!-- Node8&#45;&gt;Node3 -->
<g id="edge16" class="edge">
<title>Node8&#45;&gt;Node3</title>
<path fill="none" stroke="midnightblue" d="M287.34,-224.47C302.47,-216.69 323.7,-203.99 338,-188 382.06,-138.71 410.13,-63.66 421.38,-29.32"/>
<polygon fill="midnightblue" stroke="midnightblue" points="424.75,-30.27 424.44,-19.68 418.08,-28.15 424.75,-30.27"/>
</g>
<!-- Node8&#45;&gt;Node4 -->
<g id="edge20" class="edge">
<title>Node8&#45;&gt;Node4</title>
<path fill="none" stroke="midnightblue" d="M215.92,-224.48C193.06,-218.15 167.97,-207.13 152,-188 127.65,-158.83 126.02,-111.86 127.3,-85.85"/>
<polygon fill="midnightblue" stroke="midnightblue" points="130.8,-86.02 128,-75.8 123.82,-85.54 130.8,-86.02"/>
</g>
<!-- Node8&#45;&gt;Node5 -->
<g id="edge21" class="edge">
<title>Node8&#45;&gt;Node5</title>
<path fill="none" stroke="midnightblue" d="M300.85,-224.44C335.4,-215.16 390.68,-200.31 428.58,-190.13"/>
<polygon fill="midnightblue" stroke="midnightblue" points="429.55,-193.49 438.3,-187.52 427.73,-186.73 429.55,-193.49"/>
</g>
<!-- Node8&#45;&gt;Node6 -->
<g id="edge19" class="edge">
<title>Node8&#45;&gt;Node6</title>
<path fill="none" stroke="midnightblue" d="M285.63,-224.46C298.49,-216.84 315.34,-204.36 323,-188 330.96,-171 318.48,-152.03 306.46,-138.99"/>
<polygon fill="midnightblue" stroke="midnightblue" points="308.76,-136.33 299.22,-131.71 303.79,-141.27 308.76,-136.33"/>
</g>
<!-- Node9 -->
<g id="node9" class="node">
<title>Node9</title>
<g id="a_node9"><a xlink:href="connection_8h.html" target="_top" xlink:title="A connection.">
<polygon fill="white" stroke="black" points="160.5,-168.5 160.5,-187.5 313.5,-187.5 313.5,-168.5 160.5,-168.5"/>
<text text-anchor="middle" x="237" y="-175.5" font-family="Helvetica,sans-Serif" font-size="10.00">tetengo/lattice/connection.h</text>
</a>
</g>
</g>
<!-- Node8&#45;&gt;Node9 -->
<g id="edge17" class="edge">
<title>Node8&#45;&gt;Node9</title>
<path fill="none" stroke="midnightblue" d="M263.72,-224.08C259.29,-216.61 252.84,-205.72 247.38,-196.52"/>
<polygon fill="midnightblue" stroke="midnightblue" points="250.29,-194.57 242.19,-187.75 244.27,-198.14 250.29,-194.57"/>
</g>
<!-- Node9&#45;&gt;Node6 -->
<g id="edge18" class="edge">
<title>Node9&#45;&gt;Node6</title>
<path fill="none" stroke="midnightblue" d="M245.59,-168.08C253.16,-160.22 264.38,-148.57 273.51,-139.08"/>
<polygon fill="midnightblue" stroke="midnightblue" points="276.16,-141.38 280.57,-131.75 271.12,-136.53 276.16,-141.38"/>
</g>
</g>
</svg>
