<?xml version="1.0" encoding="UTF-8" standalone="no"?>
<!DOCTYPE svg PUBLIC "-//W3C//DTD SVG 1.1//EN"
 "http://www.w3.org/Graphics/SVG/1.1/DTD/svg11.dtd">
<!-- Generated by graphviz version 2.43.0 (0)
 -->
<!-- Title: library/json/cpp/include/tetengo/json/line_counting_reader.hpp Pages: 1 -->
<svg width="227pt" height="162pt"
 viewBox="0.00 0.00 227.00 162.00" xmlns="http://www.w3.org/2000/svg" xmlns:xlink="http://www.w3.org/1999/xlink">
<g id="graph0" class="graph" transform="scale(1 1) rotate(0) translate(4 158)">
<title>library/json/cpp/include/tetengo/json/line_counting_reader.hpp</title>
<polygon fill="white" stroke="transparent" points="-4,4 -4,-158 223,-158 223,4 -4,4"/>
<!-- Node1 -->
<g id="node1" class="node">
<title>Node1</title>
<g id="a_node1"><a xlink:title="A line counting reader.">
<polygon fill="#bfbfbf" stroke="black" points="10.5,-112.5 10.5,-153.5 159.5,-153.5 159.5,-112.5 10.5,-112.5"/>
<text text-anchor="start" x="18.5" y="-141.5" font-family="Helvetica,sans-Serif" font-size="10.00">library/json/cpp/include</text>
<text text-anchor="start" x="18.5" y="-130.5" font-family="Helvetica,sans-Serif" font-size="10.00">/tetengo/json/line_counting</text>
<text text-anchor="middle" x="85" y="-119.5" font-family="Helvetica,sans-Serif" font-size="10.00">_reader.hpp</text>
</a>
</g>
</g>
<!-- Node2 -->
<g id="node2" class="node">
<title>Node2</title>
<g id="a_node2"><a xlink:title=" ">
<polygon fill="white" stroke="#bfbfbf" points="0,-56.5 0,-75.5 58,-75.5 58,-56.5 0,-56.5"/>
<text text-anchor="middle" x="29" y="-63.5" font-family="Helvetica,sans-Serif" font-size="10.00">memory</text>
</a>
</g>
</g>
<!-- Node1&#45;&gt;Node2 -->
<g id="edge1" class="edge">
<title>Node1&#45;&gt;Node2</title>
<path fill="none" stroke="midnightblue" d="M68.2,-112.5C60.19,-103.2 50.72,-92.21 43.09,-83.36"/>
<polygon fill="midnightblue" stroke="midnightblue" points="45.63,-80.94 36.45,-75.65 40.33,-85.51 45.63,-80.94"/>
</g>
<!-- Node3 -->
<g id="node3" class="node">
<title>Node3</title>
<g id="a_node3"><a xlink:href="reader_8hpp.html" target="_top" xlink:title="A reader.">
<polygon fill="white" stroke="black" points="76,-56.5 76,-75.5 208,-75.5 208,-56.5 76,-56.5"/>
<text text-anchor="middle" x="142" y="-63.5" font-family="Helvetica,sans-Serif" font-size="10.00">tetengo/json/reader.hpp</text>
</a>
</g>
</g>
<!-- Node1&#45;&gt;Node3 -->
<g id="edge2" class="edge">
<title>Node1&#45;&gt;Node3</title>
<path fill="none" stroke="midnightblue" d="M102.1,-112.5C110.25,-103.2 119.89,-92.21 127.66,-83.36"/>
<polygon fill="midnightblue" stroke="midnightblue" points="130.45,-85.48 134.41,-75.65 125.19,-80.86 130.45,-85.48"/>
</g>
<!-- Node4 -->
<g id="node4" class="node">
<title>Node4</title>
<g id="a_node4"><a xlink:title=" ">
<polygon fill="white" stroke="#bfbfbf" points="65,-0.5 65,-19.5 219,-19.5 219,-0.5 65,-0.5"/>
<text text-anchor="middle" x="142" y="-7.5" font-family="Helvetica,sans-Serif" font-size="10.00">boost/core/noncopyable.hpp</text>
</a>
</g>
</g>
<!-- Node3&#45;&gt;Node4 -->
<g id="edge3" class="edge">
<title>Node3&#45;&gt;Node4</title>
<path fill="none" stroke="midnightblue" d="M142,-56.08C142,-49.01 142,-38.86 142,-29.99"/>
<polygon fill="midnightblue" stroke="midnightblue" points="145.5,-29.75 142,-19.75 138.5,-29.75 145.5,-29.75"/>
</g>
</g>
</svg>
