<?xml version="1.0" encoding="UTF-8" standalone="no"?>
<!DOCTYPE svg PUBLIC "-//W3C//DTD SVG 1.1//EN"
 "http://www.w3.org/Graphics/SVG/1.1/DTD/svg11.dtd">
<!-- Generated by graphviz version 2.43.0 (0)
 -->
<!-- Title: library/trie/cpp/include/tetengo/trie/mmap_storage.hpp Pages: 1 -->
<svg width="662pt" height="162pt"
 viewBox="0.00 0.00 661.50 162.00" xmlns="http://www.w3.org/2000/svg" xmlns:xlink="http://www.w3.org/1999/xlink">
<g id="graph0" class="graph" transform="scale(1 1) rotate(0) translate(4 158)">
<title>library/trie/cpp/include/tetengo/trie/mmap_storage.hpp</title>
<polygon fill="white" stroke="transparent" points="-4,4 -4,-158 657.5,-158 657.5,4 -4,4"/>
<!-- Node1 -->
<g id="node1" class="node">
<title>Node1</title>
<g id="a_node1"><a xlink:title="An mmap storage.">
<polygon fill="#bfbfbf" stroke="black" points="178,-123.5 178,-153.5 352,-153.5 352,-123.5 178,-123.5"/>
<text text-anchor="start" x="186" y="-141.5" font-family="Helvetica,sans-Serif" font-size="10.00">library/trie/cpp/include</text>
<text text-anchor="middle" x="265" y="-130.5" font-family="Helvetica,sans-Serif" font-size="10.00">/tetengo/trie/mmap_storage.hpp</text>
</a>
</g>
</g>
<!-- Node2 -->
<g id="node2" class="node">
<title>Node2</title>
<g id="a_node2"><a xlink:title=" ">
<polygon fill="white" stroke="#bfbfbf" points="388.5,-0.5 388.5,-19.5 423.5,-19.5 423.5,-0.5 388.5,-0.5"/>
<text text-anchor="middle" x="406" y="-7.5" font-family="Helvetica,sans-Serif" font-size="10.00">any</text>
</a>
</g>
</g>
<!-- Node1&#45;&gt;Node2 -->
<g id="edge1" class="edge">
<title>Node1&#45;&gt;Node2</title>
<path fill="none" stroke="midnightblue" d="M274.64,-123.34C286.84,-106.07 309.18,-76.63 333,-56 347.21,-43.68 365.18,-32.57 379.73,-24.46"/>
<polygon fill="midnightblue" stroke="midnightblue" points="381.6,-27.43 388.72,-19.59 378.26,-21.27 381.6,-27.43"/>
</g>
<!-- Node3 -->
<g id="node3" class="node">
<title>Node3</title>
<g id="a_node3"><a xlink:title=" ">
<polygon fill="white" stroke="#bfbfbf" points="450.5,-0.5 450.5,-19.5 503.5,-19.5 503.5,-0.5 450.5,-0.5"/>
<text text-anchor="middle" x="477" y="-7.5" font-family="Helvetica,sans-Serif" font-size="10.00">cstddef</text>
</a>
</g>
</g>
<!-- Node1&#45;&gt;Node3 -->
<g id="edge2" class="edge">
<title>Node1&#45;&gt;Node3</title>
<path fill="none" stroke="midnightblue" d="M352.15,-123.61C395.85,-114.94 442.69,-102.48 458,-87 472.84,-71.99 476.67,-47.25 477.39,-30.09"/>
<polygon fill="midnightblue" stroke="midnightblue" points="480.89,-29.67 477.48,-19.64 473.89,-29.61 480.89,-29.67"/>
</g>
<!-- Node4 -->
<g id="node4" class="node">
<title>Node4</title>
<g id="a_node4"><a xlink:title=" ">
<polygon fill="white" stroke="#bfbfbf" points="0,-0.5 0,-19.5 50,-19.5 50,-0.5 0,-0.5"/>
<text text-anchor="middle" x="25" y="-7.5" font-family="Helvetica,sans-Serif" font-size="10.00">cstdint</text>
</a>
</g>
</g>
<!-- Node1&#45;&gt;Node4 -->
<g id="edge3" class="edge">
<title>Node1&#45;&gt;Node4</title>
<path fill="none" stroke="midnightblue" d="M199.26,-123.4C169.78,-115.38 135.35,-103.55 107,-87 79.74,-71.08 54.02,-44.71 38.88,-27.6"/>
<polygon fill="midnightblue" stroke="midnightblue" points="41.16,-24.88 31.98,-19.6 35.86,-29.45 41.16,-24.88"/>
</g>
<!-- Node5 -->
<g id="node5" class="node">
<title>Node5</title>
<g id="a_node5"><a xlink:title=" ">
<polygon fill="white" stroke="#bfbfbf" points="68,-0.5 68,-19.5 122,-19.5 122,-0.5 68,-0.5"/>
<text text-anchor="middle" x="95" y="-7.5" font-family="Helvetica,sans-Serif" font-size="10.00">istream</text>
</a>
</g>
</g>
<!-- Node1&#45;&gt;Node5 -->
<g id="edge4" class="edge">
<title>Node1&#45;&gt;Node5</title>
<path fill="none" stroke="midnightblue" d="M200.99,-123.47C177.48,-115.79 152,-104.22 133,-87 115.96,-71.56 105.59,-46.75 100.07,-29.7"/>
<polygon fill="midnightblue" stroke="midnightblue" points="103.33,-28.39 97.13,-19.8 96.62,-30.38 103.33,-28.39"/>
</g>
<!-- Node6 -->
<g id="node6" class="node">
<title>Node6</title>
<g id="a_node6"><a xlink:title=" ">
<polygon fill="white" stroke="#bfbfbf" points="140,-0.5 140,-19.5 198,-19.5 198,-0.5 140,-0.5"/>
<text text-anchor="middle" x="169" y="-7.5" font-family="Helvetica,sans-Serif" font-size="10.00">memory</text>
</a>
</g>
</g>
<!-- Node1&#45;&gt;Node6 -->
<g id="edge5" class="edge">
<title>Node1&#45;&gt;Node6</title>
<path fill="none" stroke="midnightblue" d="M192.48,-123.47C172.83,-116 153.76,-104.54 142,-87 129.63,-68.55 142.96,-43.79 154.88,-27.61"/>
<polygon fill="midnightblue" stroke="midnightblue" points="157.75,-29.63 161.19,-19.61 152.25,-25.3 157.75,-29.63"/>
</g>
<!-- Node7 -->
<g id="node7" class="node">
<title>Node7</title>
<g id="a_node7"><a xlink:title=" ">
<polygon fill="white" stroke="#bfbfbf" points="341.5,-56.5 341.5,-86.5 448.5,-86.5 448.5,-56.5 341.5,-56.5"/>
<text text-anchor="start" x="349.5" y="-74.5" font-family="Helvetica,sans-Serif" font-size="10.00">boost/interprocess</text>
<text text-anchor="middle" x="395" y="-63.5" font-family="Helvetica,sans-Serif" font-size="10.00">/file_mapping.hpp</text>
</a>
</g>
</g>
<!-- Node1&#45;&gt;Node7 -->
<g id="edge6" class="edge">
<title>Node1&#45;&gt;Node7</title>
<path fill="none" stroke="midnightblue" d="M293.21,-123.4C312.12,-113.94 337.22,-101.39 357.77,-91.12"/>
<polygon fill="midnightblue" stroke="midnightblue" points="359.47,-94.18 366.85,-86.58 356.34,-87.92 359.47,-94.18"/>
</g>
<!-- Node8 -->
<g id="node8" class="node">
<title>Node8</title>
<g id="a_node8"><a xlink:href="trie_2cpp_2include_2tetengo_2trie_2storage_8hpp.html" target="_top" xlink:title="A storage.">
<polygon fill="white" stroke="black" points="151,-62 151,-81 285,-81 285,-62 151,-62"/>
<text text-anchor="middle" x="218" y="-69" font-family="Helvetica,sans-Serif" font-size="10.00">tetengo/trie/storage.hpp</text>
</a>
</g>
</g>
<!-- Node1&#45;&gt;Node8 -->
<g id="edge7" class="edge">
<title>Node1&#45;&gt;Node8</title>
<path fill="none" stroke="midnightblue" d="M254.8,-123.4C247.62,-113.46 237.96,-100.11 230.34,-89.57"/>
<polygon fill="midnightblue" stroke="midnightblue" points="232.98,-87.25 224.29,-81.19 227.31,-91.35 232.98,-87.25"/>
</g>
<!-- Node10 -->
<g id="node10" class="node">
<title>Node10</title>
<g id="a_node10"><a xlink:href="value__serializer_8hpp.html" target="_top" xlink:title="A value serializer.">
<polygon fill="white" stroke="black" points="505,-56.5 505,-86.5 609,-86.5 609,-56.5 505,-56.5"/>
<text text-anchor="start" x="513" y="-74.5" font-family="Helvetica,sans-Serif" font-size="10.00">tetengo/trie/value</text>
<text text-anchor="middle" x="557" y="-63.5" font-family="Helvetica,sans-Serif" font-size="10.00">_serializer.hpp</text>
</a>
</g>
</g>
<!-- Node1&#45;&gt;Node10 -->
<g id="edge14" class="edge">
<title>Node1&#45;&gt;Node10</title>
<path fill="none" stroke="midnightblue" d="M328,-123.48C377.41,-112.48 445.81,-97.25 494.96,-86.31"/>
<polygon fill="midnightblue" stroke="midnightblue" points="495.84,-89.7 504.84,-84.11 494.32,-82.87 495.84,-89.7"/>
</g>
<!-- Node8&#45;&gt;Node2 -->
<g id="edge8" class="edge">
<title>Node8&#45;&gt;Node2</title>
<path fill="none" stroke="midnightblue" d="M245.68,-61.98C275.91,-52.64 326,-37.06 378.47,-20.13"/>
<polygon fill="midnightblue" stroke="midnightblue" points="379.86,-23.36 388.3,-16.95 377.7,-16.7 379.86,-23.36"/>
</g>
<!-- Node8&#45;&gt;Node3 -->
<g id="edge9" class="edge">
<title>Node8&#45;&gt;Node3</title>
<path fill="none" stroke="midnightblue" d="M255.11,-61.98C304.47,-50.64 391.2,-30.71 440.34,-19.42"/>
<polygon fill="midnightblue" stroke="midnightblue" points="441.26,-22.8 450.22,-17.15 439.69,-15.98 441.26,-22.8"/>
</g>
<!-- Node8&#45;&gt;Node4 -->
<g id="edge10" class="edge">
<title>Node8&#45;&gt;Node4</title>
<path fill="none" stroke="midnightblue" d="M190.35,-61.98C156.05,-51.4 97.54,-33.36 60.11,-21.82"/>
<polygon fill="midnightblue" stroke="midnightblue" points="60.73,-18.35 50.14,-18.75 58.67,-25.04 60.73,-18.35"/>
</g>
<!-- Node8&#45;&gt;Node5 -->
<g id="edge11" class="edge">
<title>Node8&#45;&gt;Node5</title>
<path fill="none" stroke="midnightblue" d="M200.38,-61.98C179.83,-52.03 145.64,-35.49 121.79,-23.96"/>
<polygon fill="midnightblue" stroke="midnightblue" points="123.12,-20.71 112.59,-19.51 120.07,-27.01 123.12,-20.71"/>
</g>
<!-- Node8&#45;&gt;Node6 -->
<g id="edge12" class="edge">
<title>Node8&#45;&gt;Node6</title>
<path fill="none" stroke="midnightblue" d="M210.98,-61.98C203.56,-52.96 191.67,-38.52 182.43,-27.31"/>
<polygon fill="midnightblue" stroke="midnightblue" points="185.07,-25 176.01,-19.51 179.66,-29.45 185.07,-25"/>
</g>
<!-- Node9 -->
<g id="node9" class="node">
<title>Node9</title>
<g id="a_node9"><a xlink:title=" ">
<polygon fill="white" stroke="#bfbfbf" points="216,-0.5 216,-19.5 370,-19.5 370,-0.5 216,-0.5"/>
<text text-anchor="middle" x="293" y="-7.5" font-family="Helvetica,sans-Serif" font-size="10.00">boost/core/noncopyable.hpp</text>
</a>
</g>
</g>
<!-- Node8&#45;&gt;Node9 -->
<g id="edge13" class="edge">
<title>Node8&#45;&gt;Node9</title>
<path fill="none" stroke="midnightblue" d="M228.75,-61.98C240.55,-52.61 259.74,-37.38 274.08,-26.01"/>
<polygon fill="midnightblue" stroke="midnightblue" points="276.62,-28.47 282.27,-19.51 272.26,-22.98 276.62,-28.47"/>
</g>
<!-- Node10&#45;&gt;Node2 -->
<g id="edge15" class="edge">
<title>Node10&#45;&gt;Node2</title>
<path fill="none" stroke="midnightblue" d="M521.22,-56.4C494.23,-45.77 457.79,-31.41 433.17,-21.71"/>
<polygon fill="midnightblue" stroke="midnightblue" points="434.32,-18.4 423.73,-17.99 431.75,-24.91 434.32,-18.4"/>
</g>
<!-- Node10&#45;&gt;Node3 -->
<g id="edge16" class="edge">
<title>Node10&#45;&gt;Node3</title>
<path fill="none" stroke="midnightblue" d="M538.04,-56.4C525.58,-47.13 509.3,-35.03 496.69,-25.65"/>
<polygon fill="midnightblue" stroke="midnightblue" points="498.75,-22.82 488.64,-19.66 494.58,-28.43 498.75,-22.82"/>
</g>
<!-- Node11 -->
<g id="node11" class="node">
<title>Node11</title>
<g id="a_node11"><a xlink:title=" ">
<polygon fill="white" stroke="#bfbfbf" points="523.5,-0.5 523.5,-19.5 588.5,-19.5 588.5,-0.5 523.5,-0.5"/>
<text text-anchor="middle" x="556" y="-7.5" font-family="Helvetica,sans-Serif" font-size="10.00">functional</text>
</a>
</g>
</g>
<!-- Node10&#45;&gt;Node11 -->
<g id="edge17" class="edge">
<title>Node10&#45;&gt;Node11</title>
<path fill="none" stroke="midnightblue" d="M556.76,-56.4C556.63,-48.47 556.46,-38.46 556.32,-29.86"/>
<polygon fill="midnightblue" stroke="midnightblue" points="559.81,-29.6 556.15,-19.66 552.81,-29.72 559.81,-29.6"/>
</g>
<!-- Node12 -->
<g id="node12" class="node">
<title>Node12</title>
<g id="a_node12"><a xlink:title=" ">
<polygon fill="white" stroke="#bfbfbf" points="606.5,-0.5 606.5,-19.5 653.5,-19.5 653.5,-0.5 606.5,-0.5"/>
<text text-anchor="middle" x="630" y="-7.5" font-family="Helvetica,sans-Serif" font-size="10.00">vector</text>
</a>
</g>
</g>
<!-- Node10&#45;&gt;Node12 -->
<g id="edge18" class="edge">
<title>Node10&#45;&gt;Node12</title>
<path fill="none" stroke="midnightblue" d="M574.3,-56.4C585.45,-47.31 599.95,-35.49 611.36,-26.19"/>
<polygon fill="midnightblue" stroke="midnightblue" points="613.84,-28.69 619.38,-19.66 609.42,-23.26 613.84,-28.69"/>
</g>
</g>
</svg>
