<?xml version="1.0" encoding="UTF-8" standalone="no"?>
<!DOCTYPE svg PUBLIC "-//W3C//DTD SVG 1.1//EN"
 "http://www.w3.org/Graphics/SVG/1.1/DTD/svg11.dtd">
<!-- Generated by graphviz version 2.43.0 (0)
 -->
<!-- Title: library/trie/cpp/include/tetengo/trie/mmap_storage.hpp Pages: 1 -->
<svg width="662pt" height="159pt"
 viewBox="0.00 0.00 661.50 159.00" xmlns="http://www.w3.org/2000/svg" xmlns:xlink="http://www.w3.org/1999/xlink">
<g id="graph0" class="graph" transform="scale(1 1) rotate(0) translate(4 155)">
<title>library/trie/cpp/include/tetengo/trie/mmap_storage.hpp</title>
<!-- Node1 -->
<g id="node1" class="node">
<title>Node1</title>
<g id="a_node1"><a xlink:title="An mmap storage.">
<polygon fill="#999999" stroke="#666666" points="352,-151 178,-151 178,-121 352,-121 352,-151"/>
<text text-anchor="start" x="186" y="-139" font-family="Helvetica,sans-Serif" font-size="10.00">library/trie/cpp/include</text>
<text text-anchor="middle" x="265" y="-128" font-family="Helvetica,sans-Serif" font-size="10.00">/tetengo/trie/mmap_storage.hpp</text>
</a>
</g>
</g>
<!-- Node2 -->
<g id="node2" class="node">
<title>Node2</title>
<g id="a_node2"><a xlink:title=" ">
<polygon fill="#e0e0e0" stroke="#999999" points="423.5,-19 388.5,-19 388.5,0 423.5,0 423.5,-19"/>
<text text-anchor="middle" x="406" y="-7" font-family="Helvetica,sans-Serif" font-size="10.00">any</text>
</a>
</g>
</g>
<!-- Node1&#45;&gt;Node2 -->
<g id="edge1" class="edge">
<title>Node1&#45;&gt;Node2</title>
<path fill="none" stroke="#63b8ff" d="M274.89,-120.79C287.18,-103.8 309.44,-75.13 333,-55 347.17,-42.9 364.99,-31.97 379.48,-23.97"/>
<polygon fill="#63b8ff" stroke="#63b8ff" points="381.29,-26.97 388.44,-19.15 377.98,-20.8 381.29,-26.97"/>
</g>
<!-- Node3 -->
<g id="node3" class="node">
<title>Node3</title>
<g id="a_node3"><a xlink:title=" ">
<polygon fill="#e0e0e0" stroke="#999999" points="503.5,-19 450.5,-19 450.5,0 503.5,0 503.5,-19"/>
<text text-anchor="middle" x="477" y="-7" font-family="Helvetica,sans-Serif" font-size="10.00">cstddef</text>
</a>
</g>
</g>
<!-- Node1&#45;&gt;Node3 -->
<g id="edge2" class="edge">
<title>Node1&#45;&gt;Node3</title>
<path fill="none" stroke="#63b8ff" d="M352.12,-121.31C395.8,-112.75 442.64,-100.42 458,-85 472.54,-70.4 476.46,-46.32 477.27,-29.5"/>
<polygon fill="#63b8ff" stroke="#63b8ff" points="480.77,-29.27 477.43,-19.22 473.77,-29.16 480.77,-29.27"/>
</g>
<!-- Node4 -->
<g id="node4" class="node">
<title>Node4</title>
<g id="a_node4"><a xlink:title=" ">
<polygon fill="#e0e0e0" stroke="#999999" points="50,-19 0,-19 0,0 50,0 50,-19"/>
<text text-anchor="middle" x="25" y="-7" font-family="Helvetica,sans-Serif" font-size="10.00">cstdint</text>
</a>
</g>
</g>
<!-- Node1&#45;&gt;Node4 -->
<g id="edge3" class="edge">
<title>Node1&#45;&gt;Node4</title>
<path fill="none" stroke="#63b8ff" d="M198.95,-120.91C169.57,-112.96 135.31,-101.28 107,-85 80.02,-69.48 54.39,-43.82 39.18,-27.04"/>
<polygon fill="#63b8ff" stroke="#63b8ff" points="41.47,-24.34 32.22,-19.17 36.23,-28.98 41.47,-24.34"/>
</g>
<!-- Node5 -->
<g id="node5" class="node">
<title>Node5</title>
<g id="a_node5"><a xlink:title=" ">
<polygon fill="#e0e0e0" stroke="#999999" points="122,-19 68,-19 68,0 122,0 122,-19"/>
<text text-anchor="middle" x="95" y="-7" font-family="Helvetica,sans-Serif" font-size="10.00">istream</text>
</a>
</g>
</g>
<!-- Node1&#45;&gt;Node5 -->
<g id="edge4" class="edge">
<title>Node1&#45;&gt;Node5</title>
<path fill="none" stroke="#63b8ff" d="M200.39,-120.93C177.08,-113.34 151.89,-101.93 133,-85 116.15,-69.9 105.73,-45.57 100.16,-28.85"/>
<polygon fill="#63b8ff" stroke="#63b8ff" points="103.46,-27.67 97.18,-19.13 96.76,-29.72 103.46,-27.67"/>
</g>
<!-- Node6 -->
<g id="node6" class="node">
<title>Node6</title>
<g id="a_node6"><a xlink:title=" ">
<polygon fill="#e0e0e0" stroke="#999999" points="198,-19 140,-19 140,0 198,0 198,-19"/>
<text text-anchor="middle" x="169" y="-7" font-family="Helvetica,sans-Serif" font-size="10.00">memory</text>
</a>
</g>
</g>
<!-- Node1&#45;&gt;Node6 -->
<g id="edge5" class="edge">
<title>Node1&#45;&gt;Node6</title>
<path fill="none" stroke="#63b8ff" d="M191.53,-120.91C172.22,-113.5 153.58,-102.21 142,-85 129.95,-67.09 142.82,-43.14 154.59,-27.29"/>
<polygon fill="#63b8ff" stroke="#63b8ff" points="157.37,-29.41 160.84,-19.4 151.88,-25.06 157.37,-29.41"/>
</g>
<!-- Node7 -->
<g id="node7" class="node">
<title>Node7</title>
<g id="a_node7"><a xlink:title=" ">
<polygon fill="#e0e0e0" stroke="#999999" points="448.5,-85 341.5,-85 341.5,-55 448.5,-55 448.5,-85"/>
<text text-anchor="start" x="349.5" y="-73" font-family="Helvetica,sans-Serif" font-size="10.00">boost/interprocess</text>
<text text-anchor="middle" x="395" y="-62" font-family="Helvetica,sans-Serif" font-size="10.00">/file_mapping.hpp</text>
</a>
</g>
</g>
<!-- Node1&#45;&gt;Node7 -->
<g id="edge6" class="edge">
<title>Node1&#45;&gt;Node7</title>
<path fill="none" stroke="#63b8ff" d="M293.53,-120.95C312.33,-111.7 337.14,-99.49 357.52,-89.45"/>
<polygon fill="#63b8ff" stroke="#63b8ff" points="359.11,-92.57 366.54,-85.01 356.02,-86.29 359.11,-92.57"/>
</g>
<!-- Node8 -->
<g id="node8" class="node">
<title>Node8</title>
<g id="a_node8"><a xlink:href="trie_2cpp_2include_2tetengo_2trie_2storage_8hpp.html" target="_top" xlink:title="A storage.">
<polygon fill="white" stroke="#666666" points="285,-79.5 151,-79.5 151,-60.5 285,-60.5 285,-79.5"/>
<text text-anchor="middle" x="218" y="-67.5" font-family="Helvetica,sans-Serif" font-size="10.00">tetengo/trie/storage.hpp</text>
</a>
</g>
</g>
<!-- Node1&#45;&gt;Node8 -->
<g id="edge7" class="edge">
<title>Node1&#45;&gt;Node8</title>
<path fill="none" stroke="#63b8ff" d="M254.57,-120.8C247.46,-111.11 238,-98.24 230.49,-88.01"/>
<polygon fill="#63b8ff" stroke="#63b8ff" points="233.24,-85.83 224.5,-79.84 227.59,-89.98 233.24,-85.83"/>
</g>
<!-- Node10 -->
<g id="node10" class="node">
<title>Node10</title>
<g id="a_node10"><a xlink:href="value__serializer_8hpp.html" target="_top" xlink:title="A value serializer.">
<polygon fill="white" stroke="#666666" points="609,-85 505,-85 505,-55 609,-55 609,-85"/>
<text text-anchor="start" x="513" y="-73" font-family="Helvetica,sans-Serif" font-size="10.00">tetengo/trie/value</text>
<text text-anchor="middle" x="557" y="-62" font-family="Helvetica,sans-Serif" font-size="10.00">_serializer.hpp</text>
</a>
</g>
</g>
<!-- Node1&#45;&gt;Node10 -->
<g id="edge14" class="edge">
<title>Node1&#45;&gt;Node10</title>
<path fill="none" stroke="#63b8ff" d="M329.08,-120.95C378.4,-110.15 446.15,-95.3 494.95,-84.6"/>
<polygon fill="#63b8ff" stroke="#63b8ff" points="495.74,-88.01 504.76,-82.45 494.24,-81.17 495.74,-88.01"/>
</g>
<!-- Node8&#45;&gt;Node2 -->
<g id="edge8" class="edge">
<title>Node8&#45;&gt;Node2</title>
<path fill="none" stroke="#63b8ff" d="M245.64,-60.45C275.84,-51.1 325.9,-35.59 378.45,-19.16"/>
<polygon fill="#63b8ff" stroke="#63b8ff" points="379.78,-22.41 388.28,-16.09 377.7,-15.73 379.78,-22.41"/>
</g>
<!-- Node8&#45;&gt;Node3 -->
<g id="edge9" class="edge">
<title>Node8&#45;&gt;Node3</title>
<path fill="none" stroke="#63b8ff" d="M255.66,-60.49C305.17,-49.31 391.58,-29.79 440.51,-18.74"/>
<polygon fill="#63b8ff" stroke="#63b8ff" points="441.37,-22.14 450.35,-16.52 439.83,-15.31 441.37,-22.14"/>
</g>
<!-- Node8&#45;&gt;Node4 -->
<g id="edge10" class="edge">
<title>Node8&#45;&gt;Node4</title>
<path fill="none" stroke="#63b8ff" d="M189.94,-60.49C155.53,-50.07 97.22,-32.39 59.95,-21.09"/>
<polygon fill="#63b8ff" stroke="#63b8ff" points="60.61,-17.64 50.03,-18.09 58.58,-24.34 60.61,-17.64"/>
</g>
<!-- Node8&#45;&gt;Node5 -->
<g id="edge11" class="edge">
<title>Node8&#45;&gt;Node5</title>
<path fill="none" stroke="#63b8ff" d="M200.11,-60.49C179.62,-50.75 145.81,-34.66 122.08,-23.38"/>
<polygon fill="#63b8ff" stroke="#63b8ff" points="123.44,-20.15 112.91,-19.02 120.43,-26.47 123.44,-20.15"/>
</g>
<!-- Node8&#45;&gt;Node6 -->
<g id="edge12" class="edge">
<title>Node8&#45;&gt;Node6</title>
<path fill="none" stroke="#63b8ff" d="M210.77,-60.37C203.46,-51.64 191.98,-37.93 182.9,-27.09"/>
<polygon fill="#63b8ff" stroke="#63b8ff" points="185.36,-24.59 176.26,-19.17 180,-29.08 185.36,-24.59"/>
</g>
<!-- Node9 -->
<g id="node9" class="node">
<title>Node9</title>
<g id="a_node9"><a xlink:title=" ">
<polygon fill="#e0e0e0" stroke="#999999" points="370,-19 216,-19 216,0 370,0 370,-19"/>
<text text-anchor="middle" x="293" y="-7" font-family="Helvetica,sans-Serif" font-size="10.00">boost/core/noncopyable.hpp</text>
</a>
</g>
</g>
<!-- Node8&#45;&gt;Node9 -->
<g id="edge13" class="edge">
<title>Node8&#45;&gt;Node9</title>
<path fill="none" stroke="#63b8ff" d="M229.07,-60.37C240.81,-51.21 259.59,-36.56 273.76,-25.51"/>
<polygon fill="#63b8ff" stroke="#63b8ff" points="276.16,-28.08 281.89,-19.17 271.85,-22.56 276.16,-28.08"/>
</g>
<!-- Node10&#45;&gt;Node2 -->
<g id="edge15" class="edge">
<title>Node10&#45;&gt;Node2</title>
<path fill="none" stroke="#63b8ff" d="M520.83,-54.99C493.84,-44.53 457.54,-30.47 433.04,-20.97"/>
<polygon fill="#63b8ff" stroke="#63b8ff" points="434.22,-17.68 423.64,-17.33 431.7,-24.21 434.22,-17.68"/>
</g>
<!-- Node10&#45;&gt;Node3 -->
<g id="edge16" class="edge">
<title>Node10&#45;&gt;Node3</title>
<path fill="none" stroke="#63b8ff" d="M537.63,-54.84C525.43,-45.91 509.69,-34.41 497.31,-25.35"/>
<polygon fill="#63b8ff" stroke="#63b8ff" points="499.13,-22.34 488.99,-19.27 494.99,-27.99 499.13,-22.34"/>
</g>
<!-- Node11 -->
<g id="node11" class="node">
<title>Node11</title>
<g id="a_node11"><a xlink:title=" ">
<polygon fill="#e0e0e0" stroke="#999999" points="588.5,-19 523.5,-19 523.5,0 588.5,0 588.5,-19"/>
<text text-anchor="middle" x="556" y="-7" font-family="Helvetica,sans-Serif" font-size="10.00">functional</text>
</a>
</g>
</g>
<!-- Node10&#45;&gt;Node11 -->
<g id="edge17" class="edge">
<title>Node10&#45;&gt;Node11</title>
<path fill="none" stroke="#63b8ff" d="M556.76,-54.84C556.63,-47.21 556.47,-37.7 556.32,-29.45"/>
<polygon fill="#63b8ff" stroke="#63b8ff" points="559.82,-29.2 556.15,-19.27 552.82,-29.32 559.82,-29.2"/>
</g>
<!-- Node12 -->
<g id="node12" class="node">
<title>Node12</title>
<g id="a_node12"><a xlink:title=" ">
<polygon fill="#e0e0e0" stroke="#999999" points="653.5,-19 606.5,-19 606.5,0 653.5,0 653.5,-19"/>
<text text-anchor="middle" x="630" y="-7" font-family="Helvetica,sans-Serif" font-size="10.00">vector</text>
</a>
</g>
</g>
<!-- Node10&#45;&gt;Node12 -->
<g id="edge18" class="edge">
<title>Node10&#45;&gt;Node12</title>
<path fill="none" stroke="#63b8ff" d="M574.67,-54.84C585.7,-46 599.89,-34.63 611.13,-25.62"/>
<polygon fill="#63b8ff" stroke="#63b8ff" points="613.45,-28.25 619.06,-19.27 609.07,-22.79 613.45,-28.25"/>
</g>
</g>
</svg>
