<?xml version="1.0" encoding="UTF-8" standalone="no"?>
<!DOCTYPE svg PUBLIC "-//W3C//DTD SVG 1.1//EN"
 "http://www.w3.org/Graphics/SVG/1.1/DTD/svg11.dtd">
<!-- Generated by graphviz version 2.43.0 (0)
 -->
<!-- Title: library/lattice/cpp/include/tetengo/lattice/n_best_iterator.hpp Pages: 1 -->
<!--zoomable 341 -->
<svg id="main" version="1.1" xmlns="http://www.w3.org/2000/svg" xmlns:xlink="http://www.w3.org/1999/xlink" xml:space="preserve" onload="init(evt)">
<style type="text/css"><![CDATA[
.edge:hover path { stroke: red; }
.edge:hover polygon { stroke: red; fill: red; }
]]></style>
<script type="text/javascript"><![CDATA[
var edges = document.getElementsByTagName('g');
if (edges && edges.length) {
  for (var i=0;i<edges.length;i++) {
    if (edges[i].id.substr(0,4)=='edge') {
      edges[i].setAttribute('class','edge');
    }
  }
}
]]></script>
        <defs>
                <circle id="rim" cx="0" cy="0" r="7"/>
                <circle id="rim2" cx="0" cy="0" r="3.5"/>
                <g id="zoomPlus">
                        <use xlink:href="#rim" fill="#404040">
                                <set attributeName="fill" to="#808080" begin="zoomplus.mouseover" end="zoomplus.mouseout"/>
                        </use>
                        <path d="M-4,0h8M0,-4v8" fill="none" stroke="white" stroke-width="1.5" pointer-events="none"/>
                </g>
                <g id="zoomMin">
                        <use xlink:href="#rim" fill="#404040">
                                <set attributeName="fill" to="#808080" begin="zoomminus.mouseover" end="zoomminus.mouseout"/>
                        </use>
                        <path d="M-4,0h8" fill="none" stroke="white" stroke-width="1.5" pointer-events="none"/>
                </g>
                <g id="dirArrow">
                        <path fill="none" stroke="white" stroke-width="1.5" d="M0,-3.0v7 M-2.5,-0.5L0,-3.0L2.5,-0.5"/>
                </g>
               <g id="resetDef">
                       <use xlink:href="#rim2" fill="#404040">
                               <set attributeName="fill" to="#808080" begin="reset.mouseover" end="reset.mouseout"/>
                       </use>
               </g>
        </defs>

<script type="text/javascript">
var viewWidth = 957;
var viewHeight = 341;
var sectionId = 'dynsection-0';
</script>
<script xlink:href="svgpan.js"/>
<svg id="graph" class="graph">
<g id="viewport">
<title>library/lattice/cpp/include/tetengo/lattice/n_best_iterator.hpp</title>
<polygon fill="white" stroke="transparent" points="-4,4 -4,-337 953,-337 953,4 -4,4"/>
<!-- Node1 -->
<g id="node1" class="node">
<title>Node1</title>
<g id="a_node1"><a xlink:title="An N&#45;best lattice path iterator.">
<polygon fill="#bfbfbf" stroke="black" points="493,-291.5 493,-332.5 622,-332.5 622,-291.5 493,-291.5"/>
<text text-anchor="start" x="501" y="-320.5" font-family="Helvetica,sans-Serif" font-size="10.00">library/lattice/cpp</text>
<text text-anchor="start" x="501" y="-309.5" font-family="Helvetica,sans-Serif" font-size="10.00">/include/tetengo/lattice</text>
<text text-anchor="middle" x="557.5" y="-298.5" font-family="Helvetica,sans-Serif" font-size="10.00">/n_best_iterator.hpp</text>
</a>
</g>
</g>
<!-- Node2 -->
<g id="node2" class="node">
<title>Node2</title>
<g id="a_node2"><a xlink:title=" ">
<polygon fill="white" stroke="#bfbfbf" points="0,-0.5 0,-19.5 53,-19.5 53,-0.5 0,-0.5"/>
<text text-anchor="middle" x="26.5" y="-7.5" font-family="Helvetica,sans-Serif" font-size="10.00">cstddef</text>
</a>
</g>
</g>
<!-- Node1&#45;&gt;Node2 -->
<g id="edge1" class="edge">
<title>Node1&#45;&gt;Node2</title>
<path fill="none" stroke="midnightblue" d="M492.75,-308.71C349.54,-301.88 18.5,-275.64 18.5,-179 18.5,-179 18.5,-179 18.5,-121 18.5,-88.86 21.94,-51.58 24.31,-29.72"/>
<polygon fill="midnightblue" stroke="midnightblue" points="27.81,-29.87 25.45,-19.54 20.86,-29.09 27.81,-29.87"/>
</g>
<!-- Node3 -->
<g id="node3" class="node">
<title>Node3</title>
<g id="a_node3"><a xlink:title=" ">
<polygon fill="white" stroke="#bfbfbf" points="605,-230 605,-249 670,-249 670,-230 605,-230"/>
<text text-anchor="middle" x="637.5" y="-237" font-family="Helvetica,sans-Serif" font-size="10.00">functional</text>
</a>
</g>
</g>
<!-- Node1&#45;&gt;Node3 -->
<g id="edge2" class="edge">
<title>Node1&#45;&gt;Node3</title>
<path fill="none" stroke="midnightblue" d="M579.78,-291.36C592.43,-280.21 608.04,-266.46 619.84,-256.06"/>
<polygon fill="midnightblue" stroke="midnightblue" points="622.47,-258.41 627.66,-249.17 617.84,-253.16 622.47,-258.41"/>
</g>
<!-- Node4 -->
<g id="node4" class="node">
<title>Node4</title>
<g id="a_node4"><a xlink:title=" ">
<polygon fill="white" stroke="#bfbfbf" points="688,-230 688,-249 741,-249 741,-230 688,-230"/>
<text text-anchor="middle" x="714.5" y="-237" font-family="Helvetica,sans-Serif" font-size="10.00">iterator</text>
</a>
</g>
</g>
<!-- Node1&#45;&gt;Node4 -->
<g id="edge3" class="edge">
<title>Node1&#45;&gt;Node4</title>
<path fill="none" stroke="midnightblue" d="M601.23,-291.36C628.35,-279.19 662.39,-263.9 686.05,-253.28"/>
<polygon fill="midnightblue" stroke="midnightblue" points="687.5,-256.46 695.18,-249.17 684.63,-250.08 687.5,-256.46"/>
</g>
<!-- Node5 -->
<g id="node5" class="node">
<title>Node5</title>
<g id="a_node5"><a xlink:title=" ">
<polygon fill="white" stroke="#bfbfbf" points="319.5,-0.5 319.5,-19.5 377.5,-19.5 377.5,-0.5 319.5,-0.5"/>
<text text-anchor="middle" x="348.5" y="-7.5" font-family="Helvetica,sans-Serif" font-size="10.00">memory</text>
</a>
</g>
</g>
<!-- Node1&#45;&gt;Node5 -->
<g id="edge4" class="edge">
<title>Node1&#45;&gt;Node5</title>
<path fill="none" stroke="midnightblue" d="M552.9,-291.45C547.28,-265.79 538.5,-219.29 538.5,-179 538.5,-179 538.5,-179 538.5,-121 538.5,-85.48 437.77,-43.37 383,-23.09"/>
<polygon fill="midnightblue" stroke="midnightblue" points="383.93,-19.71 373.34,-19.57 381.53,-26.29 383.93,-19.71"/>
</g>
<!-- Node6 -->
<g id="node6" class="node">
<title>Node6</title>
<g id="a_node6"><a xlink:title=" ">
<polygon fill="white" stroke="#bfbfbf" points="759,-230 759,-249 806,-249 806,-230 759,-230"/>
<text text-anchor="middle" x="782.5" y="-237" font-family="Helvetica,sans-Serif" font-size="10.00">queue</text>
</a>
</g>
</g>
<!-- Node1&#45;&gt;Node6 -->
<g id="edge5" class="edge">
<title>Node1&#45;&gt;Node6</title>
<path fill="none" stroke="midnightblue" d="M622.14,-294.73C659.98,-284.59 708.45,-270.54 750.5,-255 752.11,-254.4 753.76,-253.76 755.41,-253.1"/>
<polygon fill="midnightblue" stroke="midnightblue" points="756.94,-256.25 764.75,-249.09 754.18,-249.82 756.94,-256.25"/>
</g>
<!-- Node7 -->
<g id="node7" class="node">
<title>Node7</title>
<g id="a_node7"><a xlink:title=" ">
<polygon fill="white" stroke="#bfbfbf" points="463,-112.5 463,-131.5 510,-131.5 510,-112.5 463,-112.5"/>
<text text-anchor="middle" x="486.5" y="-119.5" font-family="Helvetica,sans-Serif" font-size="10.00">vector</text>
</a>
</g>
</g>
<!-- Node1&#45;&gt;Node7 -->
<g id="edge6" class="edge">
<title>Node1&#45;&gt;Node7</title>
<path fill="none" stroke="midnightblue" d="M544.31,-291.43C537.69,-280.96 529.94,-267.65 524.5,-255 507.75,-216.07 495.94,-167.59 490.29,-141.57"/>
<polygon fill="midnightblue" stroke="midnightblue" points="493.67,-140.66 488.19,-131.6 486.82,-142.1 493.67,-140.66"/>
</g>
<!-- Node8 -->
<g id="node8" class="node">
<title>Node8</title>
<g id="a_node8"><a xlink:title=" ">
<polygon fill="white" stroke="#bfbfbf" points="395.5,-0.5 395.5,-19.5 509.5,-19.5 509.5,-0.5 395.5,-0.5"/>
<text text-anchor="middle" x="452.5" y="-7.5" font-family="Helvetica,sans-Serif" font-size="10.00">boost/operators.hpp</text>
</a>
</g>
</g>
<!-- Node1&#45;&gt;Node8 -->
<g id="edge7" class="edge">
<title>Node1&#45;&gt;Node8</title>
<path fill="none" stroke="midnightblue" d="M562.1,-291.45C567.72,-265.79 576.5,-219.29 576.5,-179 576.5,-179 576.5,-179 576.5,-121 576.5,-90.2 573.51,-78.52 552.5,-56 537.9,-40.35 516.84,-29.77 497.81,-22.82"/>
<polygon fill="midnightblue" stroke="midnightblue" points="498.68,-19.42 488.09,-19.51 496.43,-26.05 498.68,-19.42"/>
</g>
<!-- Node9 -->
<g id="node9" class="node">
<title>Node9</title>
<g id="a_node9"><a xlink:title=" ">
<polygon fill="white" stroke="#bfbfbf" points="824,-224.5 824,-254.5 949,-254.5 949,-224.5 824,-224.5"/>
<text text-anchor="start" x="832" y="-242.5" font-family="Helvetica,sans-Serif" font-size="10.00">boost/stl_interfaces</text>
<text text-anchor="middle" x="886.5" y="-231.5" font-family="Helvetica,sans-Serif" font-size="10.00">/iterator_interface.hpp</text>
</a>
</g>
</g>
<!-- Node1&#45;&gt;Node9 -->
<g id="edge8" class="edge">
<title>Node1&#45;&gt;Node9</title>
<path fill="none" stroke="midnightblue" d="M622.11,-297.16C677.27,-285.33 756.57,-268.34 813.91,-256.05"/>
<polygon fill="midnightblue" stroke="midnightblue" points="814.95,-259.41 823.99,-253.89 813.48,-252.57 814.95,-259.41"/>
</g>
<!-- Node10 -->
<g id="node10" class="node">
<title>Node10</title>
<g id="a_node10"><a xlink:href="node_8hpp.html" target="_top" xlink:title="A node.">
<polygon fill="white" stroke="black" points="242.5,-168.5 242.5,-187.5 378.5,-187.5 378.5,-168.5 242.5,-168.5"/>
<text text-anchor="middle" x="310.5" y="-175.5" font-family="Helvetica,sans-Serif" font-size="10.00">tetengo/lattice/node.hpp</text>
</a>
</g>
</g>
<!-- Node1&#45;&gt;Node10 -->
<g id="edge9" class="edge">
<title>Node1&#45;&gt;Node10</title>
<path fill="none" stroke="midnightblue" d="M492.88,-302.65C433.82,-293.73 352.32,-277.72 329.5,-255 314.54,-240.11 310.74,-215.34 310.06,-198.15"/>
<polygon fill="midnightblue" stroke="midnightblue" points="313.56,-197.64 309.99,-187.67 306.56,-197.69 313.56,-197.64"/>
</g>
<!-- Node17 -->
<g id="node17" class="node">
<title>Node17</title>
<g id="a_node17"><a xlink:href="path_8hpp.html" target="_top" xlink:title="A path.">
<polygon fill="white" stroke="black" points="338.5,-230 338.5,-249 472.5,-249 472.5,-230 338.5,-230"/>
<text text-anchor="middle" x="405.5" y="-237" font-family="Helvetica,sans-Serif" font-size="10.00">tetengo/lattice/path.hpp</text>
</a>
</g>
</g>
<!-- Node1&#45;&gt;Node17 -->
<g id="edge26" class="edge">
<title>Node1&#45;&gt;Node17</title>
<path fill="none" stroke="midnightblue" d="M515.16,-291.36C489.03,-279.24 456.24,-264.03 433.35,-253.42"/>
<polygon fill="midnightblue" stroke="midnightblue" points="434.74,-250.21 424.2,-249.17 431.8,-256.56 434.74,-250.21"/>
</g>
<!-- Node10&#45;&gt;Node2 -->
<g id="edge12" class="edge">
<title>Node10&#45;&gt;Node2</title>
<path fill="none" stroke="midnightblue" d="M254.11,-168.46C221.9,-161.87 181.65,-150.62 149.5,-132 101.73,-104.34 59,-53.81 38.81,-27.66"/>
<polygon fill="midnightblue" stroke="midnightblue" points="41.46,-25.36 32.63,-19.51 35.88,-29.59 41.46,-25.36"/>
</g>
<!-- Node10&#45;&gt;Node7 -->
<g id="edge13" class="edge">
<title>Node10&#45;&gt;Node7</title>
<path fill="none" stroke="midnightblue" d="M338.39,-168.44C369.57,-158.88 420.05,-143.39 453.26,-133.2"/>
<polygon fill="midnightblue" stroke="midnightblue" points="454.43,-136.5 462.97,-130.22 452.38,-129.81 454.43,-136.5"/>
</g>
<!-- Node10&#45;&gt;Node8 -->
<g id="edge14" class="edge">
<title>Node10&#45;&gt;Node8</title>
<path fill="none" stroke="midnightblue" d="M336.88,-168.48C355.74,-161.26 380.67,-149.31 397.5,-132 426.09,-102.6 441.49,-55.71 448.23,-29.78"/>
<polygon fill="midnightblue" stroke="midnightblue" points="451.71,-30.32 450.68,-19.77 444.91,-28.66 451.71,-30.32"/>
</g>
<!-- Node11 -->
<g id="node11" class="node">
<title>Node11</title>
<g id="a_node11"><a xlink:title=" ">
<polygon fill="white" stroke="#bfbfbf" points="380,-56.5 380,-75.5 415,-75.5 415,-56.5 380,-56.5"/>
<text text-anchor="middle" x="397.5" y="-63.5" font-family="Helvetica,sans-Serif" font-size="10.00">any</text>
</a>
</g>
</g>
<!-- Node10&#45;&gt;Node11 -->
<g id="edge10" class="edge">
<title>Node10&#45;&gt;Node11</title>
<path fill="none" stroke="midnightblue" d="M329.92,-168.47C344.95,-160.92 365.22,-148.53 377.5,-132 387.51,-118.52 392.57,-99.97 395.09,-86.13"/>
<polygon fill="midnightblue" stroke="midnightblue" points="398.61,-86.24 396.66,-75.83 391.7,-85.19 398.61,-86.24"/>
</g>
<!-- Node12 -->
<g id="node12" class="node">
<title>Node12</title>
<g id="a_node12"><a xlink:title=" ">
<polygon fill="white" stroke="#bfbfbf" points="71.5,-0.5 71.5,-19.5 123.5,-19.5 123.5,-0.5 71.5,-0.5"/>
<text text-anchor="middle" x="97.5" y="-7.5" font-family="Helvetica,sans-Serif" font-size="10.00">cassert</text>
</a>
</g>
</g>
<!-- Node10&#45;&gt;Node12 -->
<g id="edge11" class="edge">
<title>Node10&#45;&gt;Node12</title>
<path fill="none" stroke="midnightblue" d="M272.22,-168.41C226.77,-156.1 152.25,-128.85 113.5,-76 103.73,-62.67 99.88,-44.1 98.38,-30.22"/>
<polygon fill="midnightblue" stroke="midnightblue" points="101.84,-29.59 97.6,-19.88 94.86,-30.11 101.84,-29.59"/>
</g>
<!-- Node13 -->
<g id="node13" class="node">
<title>Node13</title>
<g id="a_node13"><a xlink:href="entry_8hpp.html" target="_top" xlink:title="An entry.">
<polygon fill="white" stroke="black" points="232.5,-112.5 232.5,-131.5 368.5,-131.5 368.5,-112.5 232.5,-112.5"/>
<text text-anchor="middle" x="300.5" y="-119.5" font-family="Helvetica,sans-Serif" font-size="10.00">tetengo/lattice/entry.hpp</text>
</a>
</g>
</g>
<!-- Node10&#45;&gt;Node13 -->
<g id="edge15" class="edge">
<title>Node10&#45;&gt;Node13</title>
<path fill="none" stroke="midnightblue" d="M308.85,-168.08C307.52,-160.93 305.62,-150.64 303.96,-141.69"/>
<polygon fill="midnightblue" stroke="midnightblue" points="307.38,-140.95 302.12,-131.75 300.5,-142.22 307.38,-140.95"/>
</g>
<!-- Node15 -->
<g id="node15" class="node">
<title>Node15</title>
<g id="a_node15"><a xlink:href="input_8hpp.html" target="_top" xlink:title="An input.">
<polygon fill="white" stroke="black" points="123,-56.5 123,-75.5 260,-75.5 260,-56.5 123,-56.5"/>
<text text-anchor="middle" x="191.5" y="-63.5" font-family="Helvetica,sans-Serif" font-size="10.00">tetengo/lattice/input.hpp</text>
</a>
</g>
</g>
<!-- Node10&#45;&gt;Node15 -->
<g id="edge25" class="edge">
<title>Node10&#45;&gt;Node15</title>
<path fill="none" stroke="midnightblue" d="M284.16,-168.43C265.32,-161.2 240.4,-149.24 223.5,-132 210.59,-118.83 201.97,-99.42 196.96,-85.24"/>
<polygon fill="midnightblue" stroke="midnightblue" points="200.25,-84.04 193.83,-75.61 193.59,-86.2 200.25,-84.04"/>
</g>
<!-- Node13&#45;&gt;Node5 -->
<g id="edge17" class="edge">
<title>Node13&#45;&gt;Node5</title>
<path fill="none" stroke="midnightblue" d="M307.91,-112.26C314.91,-103.58 325.26,-89.63 331.5,-76 338.33,-61.09 342.79,-42.94 345.42,-29.62"/>
<polygon fill="midnightblue" stroke="midnightblue" points="348.87,-30.2 347.21,-19.74 341.98,-28.95 348.87,-30.2"/>
</g>
<!-- Node13&#45;&gt;Node11 -->
<g id="edge16" class="edge">
<title>Node13&#45;&gt;Node11</title>
<path fill="none" stroke="midnightblue" d="M316.08,-112.32C331.5,-103.74 355.31,-90.49 373.21,-80.52"/>
<polygon fill="midnightblue" stroke="midnightblue" points="374.92,-83.58 381.95,-75.65 371.51,-77.46 374.92,-83.58"/>
</g>
<!-- Node14 -->
<g id="node14" class="node">
<title>Node14</title>
<g id="a_node14"><a xlink:title=" ">
<polygon fill="white" stroke="#bfbfbf" points="278,-56.5 278,-75.5 323,-75.5 323,-56.5 278,-56.5"/>
<text text-anchor="middle" x="300.5" y="-63.5" font-family="Helvetica,sans-Serif" font-size="10.00">utility</text>
</a>
</g>
</g>
<!-- Node13&#45;&gt;Node14 -->
<g id="edge18" class="edge">
<title>Node13&#45;&gt;Node14</title>
<path fill="none" stroke="midnightblue" d="M300.5,-112.08C300.5,-105.01 300.5,-94.86 300.5,-85.99"/>
<polygon fill="midnightblue" stroke="midnightblue" points="304,-85.75 300.5,-75.75 297,-85.75 304,-85.75"/>
</g>
<!-- Node13&#45;&gt;Node15 -->
<g id="edge19" class="edge">
<title>Node13&#45;&gt;Node15</title>
<path fill="none" stroke="midnightblue" d="M282.99,-112.32C265.43,-103.62 238.17,-90.12 217.97,-80.11"/>
<polygon fill="midnightblue" stroke="midnightblue" points="219.48,-76.96 208.97,-75.65 216.38,-83.23 219.48,-76.96"/>
</g>
<!-- Node15&#45;&gt;Node2 -->
<g id="edge21" class="edge">
<title>Node15&#45;&gt;Node2</title>
<path fill="none" stroke="midnightblue" d="M165.36,-56.44C137.48,-47.32 93.15,-32.81 62.1,-22.65"/>
<polygon fill="midnightblue" stroke="midnightblue" points="63.12,-19.3 52.52,-19.52 60.94,-25.95 63.12,-19.3"/>
</g>
<!-- Node15&#45;&gt;Node5 -->
<g id="edge22" class="edge">
<title>Node15&#45;&gt;Node5</title>
<path fill="none" stroke="midnightblue" d="M216.38,-56.44C242.79,-47.36 284.72,-32.94 314.24,-22.78"/>
<polygon fill="midnightblue" stroke="midnightblue" points="315.42,-26.08 323.74,-19.52 313.14,-19.46 315.42,-26.08"/>
</g>
<!-- Node15&#45;&gt;Node8 -->
<g id="edge24" class="edge">
<title>Node15&#45;&gt;Node8</title>
<path fill="none" stroke="midnightblue" d="M232.86,-56.44C278.58,-46.98 352.26,-31.74 401.52,-21.55"/>
<polygon fill="midnightblue" stroke="midnightblue" points="402.25,-24.97 411.34,-19.52 400.84,-18.12 402.25,-24.97"/>
</g>
<!-- Node15&#45;&gt;Node12 -->
<g id="edge20" class="edge">
<title>Node15&#45;&gt;Node12</title>
<path fill="none" stroke="midnightblue" d="M176.4,-56.32C161.6,-47.82 138.81,-34.73 121.52,-24.8"/>
<polygon fill="midnightblue" stroke="midnightblue" points="122.98,-21.6 112.57,-19.65 119.49,-27.67 122.98,-21.6"/>
</g>
<!-- Node16 -->
<g id="node16" class="node">
<title>Node16</title>
<g id="a_node16"><a xlink:title=" ">
<polygon fill="white" stroke="#bfbfbf" points="141.5,-0.5 141.5,-19.5 295.5,-19.5 295.5,-0.5 141.5,-0.5"/>
<text text-anchor="middle" x="218.5" y="-7.5" font-family="Helvetica,sans-Serif" font-size="10.00">boost/core/noncopyable.hpp</text>
</a>
</g>
</g>
<!-- Node15&#45;&gt;Node16 -->
<g id="edge23" class="edge">
<title>Node15&#45;&gt;Node16</title>
<path fill="none" stroke="midnightblue" d="M195.96,-56.08C199.65,-48.69 205.02,-37.95 209.59,-28.81"/>
<polygon fill="midnightblue" stroke="midnightblue" points="212.78,-30.26 214.12,-19.75 206.52,-27.13 212.78,-30.26"/>
</g>
<!-- Node17&#45;&gt;Node7 -->
<g id="edge27" class="edge">
<title>Node17&#45;&gt;Node7</title>
<path fill="none" stroke="midnightblue" d="M411.59,-229.82C424.9,-210.84 456.8,-165.35 474.38,-140.29"/>
<polygon fill="midnightblue" stroke="midnightblue" points="477.46,-141.98 480.34,-131.78 471.73,-137.96 477.46,-141.98"/>
</g>
<!-- Node17&#45;&gt;Node10 -->
<g id="edge28" class="edge">
<title>Node17&#45;&gt;Node10</title>
<path fill="none" stroke="midnightblue" d="M391.89,-229.98C376.44,-220.3 351.01,-204.37 332.68,-192.89"/>
<polygon fill="midnightblue" stroke="midnightblue" points="334.42,-189.85 324.09,-187.51 330.7,-195.78 334.42,-189.85"/>
</g>
</g>
</svg>
        <g id="navigator" transform="translate(0 0)" fill="#404254">
                <rect fill="#f2f5e9" fill-opacity="0.5" stroke="#606060" stroke-width=".5" x="0" y="0" width="60" height="60"/>
                <use id="zoomplus" xlink:href="#zoomPlus" x="17" y="9" onmousedown="handleZoom(evt,'in')"/>
                <use id="zoomminus" xlink:href="#zoomMin" x="42" y="9" onmousedown="handleZoom(evt,'out')"/>
                <use id="reset" xlink:href="#resetDef" x="30" y="36" onmousedown="handleReset()"/>
                <g id="arrowUp" xlink:href="#dirArrow" transform="translate(30 24)" onmousedown="handlePan(0,-1)">
                  <use xlink:href="#rim" fill="#404040">
                        <set attributeName="fill" to="#808080" begin="arrowUp.mouseover" end="arrowUp.mouseout"/>
                  </use>
                  <path fill="none" stroke="white" stroke-width="1.5" d="M0,-3.0v7 M-2.5,-0.5L0,-3.0L2.5,-0.5"/>
                </g>
                <g id="arrowRight" xlink:href="#dirArrow" transform="rotate(90) translate(36 -43)" onmousedown="handlePan(1,0)">
                  <use xlink:href="#rim" fill="#404040">
                        <set attributeName="fill" to="#808080" begin="arrowRight.mouseover" end="arrowRight.mouseout"/>
                  </use>
                  <path fill="none" stroke="white" stroke-width="1.5" d="M0,-3.0v7 M-2.5,-0.5L0,-3.0L2.5,-0.5"/>
                </g>
                <g id="arrowDown" xlink:href="#dirArrow" transform="rotate(180) translate(-30 -48)" onmousedown="handlePan(0,1)">
                  <use xlink:href="#rim" fill="#404040">
                        <set attributeName="fill" to="#808080" begin="arrowDown.mouseover" end="arrowDown.mouseout"/>
                  </use>
                  <path fill="none" stroke="white" stroke-width="1.5" d="M0,-3.0v7 M-2.5,-0.5L0,-3.0L2.5,-0.5"/>
                </g>
                <g id="arrowLeft" xlink:href="#dirArrow" transform="rotate(270) translate(-36 17)" onmousedown="handlePan(-1,0)">
                  <use xlink:href="#rim" fill="#404040">
                        <set attributeName="fill" to="#808080" begin="arrowLeft.mouseover" end="arrowLeft.mouseout"/>
                  </use>
                  <path fill="none" stroke="white" stroke-width="1.5" d="M0,-3.0v7 M-2.5,-0.5L0,-3.0L2.5,-0.5"/>
                </g>
        </g>
        <svg viewBox="0 0 15 15" width="100%" height="30px" preserveAspectRatio="xMaxYMin meet">
         <g id="arrow_out" transform="scale(0.3 0.3)">
          <a xlink:href="n__best__iterator_8hpp__incl_org.svg" target="_base">
           <rect id="button" ry="5" rx="5" y="6" x="6" height="38" width="38"
                fill="#f2f5e9" fill-opacity="0.5" stroke="#606060" stroke-width="1.0"/>
           <path id="arrow"
             d="M 11.500037,31.436501 C 11.940474,20.09759 22.043105,11.32322 32.158766,21.979434 L 37.068811,17.246167 C 37.068811,17.246167 37.088388,32 37.088388,32 L 22.160133,31.978069 C 22.160133,31.978069 26.997745,27.140456 26.997745,27.140456 C 18.528582,18.264221 13.291696,25.230495 11.500037,31.436501 z"
             style="fill:#404040;"/>
          </a>
         </g>
        </svg>
</svg>
