<?xml version="1.0" encoding="UTF-8" standalone="no"?>
<!DOCTYPE svg PUBLIC "-//W3C//DTD SVG 1.1//EN"
 "http://www.w3.org/Graphics/SVG/1.1/DTD/svg11.dtd">
<!-- Generated by graphviz version 2.43.0 (0)
 -->
<!-- Title: library/lattice/cpp/include/tetengo/lattice/n_best_iterator.hpp Pages: 1 -->
<svg width="957pt" height="335pt"
 viewBox="0.00 0.00 957.00 335.00" xmlns="http://www.w3.org/2000/svg" xmlns:xlink="http://www.w3.org/1999/xlink">
<g id="graph0" class="graph" transform="scale(1 1) rotate(0) translate(4 331)">
<title>library/lattice/cpp/include/tetengo/lattice/n_best_iterator.hpp</title>
<!-- Node1 -->
<g id="node1" class="node">
<title>Node1</title>
<g id="a_node1"><a xlink:title="An N&#45;best lattice path iterator.">
<polygon fill="#999999" stroke="#666666" points="622,-327 493,-327 493,-286 622,-286 622,-327"/>
<text text-anchor="start" x="501" y="-315" font-family="Helvetica,sans-Serif" font-size="10.00">library/lattice/cpp</text>
<text text-anchor="start" x="501" y="-304" font-family="Helvetica,sans-Serif" font-size="10.00">/include/tetengo/lattice</text>
<text text-anchor="middle" x="557.5" y="-293" font-family="Helvetica,sans-Serif" font-size="10.00">/n_best_iterator.hpp</text>
</a>
</g>
</g>
<!-- Node2 -->
<g id="node2" class="node">
<title>Node2</title>
<g id="a_node2"><a xlink:title=" ">
<polygon fill="#e0e0e0" stroke="#999999" points="53,-19 0,-19 0,0 53,0 53,-19"/>
<text text-anchor="middle" x="26.5" y="-7" font-family="Helvetica,sans-Serif" font-size="10.00">cstddef</text>
</a>
</g>
</g>
<!-- Node1&#45;&gt;Node2 -->
<g id="edge1" class="edge">
<title>Node1&#45;&gt;Node2</title>
<path fill="none" stroke="#63b8ff" d="M492.75,-303.44C349.54,-297.12 18.5,-272.06 18.5,-175.5 18.5,-175.5 18.5,-175.5 18.5,-118.5 18.5,-87.1 21.9,-50.71 24.27,-29.2"/>
<polygon fill="#63b8ff" stroke="#63b8ff" points="27.76,-29.5 25.42,-19.16 20.81,-28.7 27.76,-29.5"/>
</g>
<!-- Node3 -->
<g id="node3" class="node">
<title>Node3</title>
<g id="a_node3"><a xlink:title=" ">
<polygon fill="#e0e0e0" stroke="#999999" points="670,-244.5 605,-244.5 605,-225.5 670,-225.5 670,-244.5"/>
<text text-anchor="middle" x="637.5" y="-232.5" font-family="Helvetica,sans-Serif" font-size="10.00">functional</text>
</a>
</g>
</g>
<!-- Node1&#45;&gt;Node3 -->
<g id="edge2" class="edge">
<title>Node1&#45;&gt;Node3</title>
<path fill="none" stroke="#63b8ff" d="M580.21,-285.77C592.7,-274.92 607.98,-261.65 619.61,-251.54"/>
<polygon fill="#63b8ff" stroke="#63b8ff" points="622.09,-254.02 627.35,-244.82 617.5,-248.74 622.09,-254.02"/>
</g>
<!-- Node4 -->
<g id="node4" class="node">
<title>Node4</title>
<g id="a_node4"><a xlink:title=" ">
<polygon fill="#e0e0e0" stroke="#999999" points="741,-244.5 688,-244.5 688,-225.5 741,-225.5 741,-244.5"/>
<text text-anchor="middle" x="714.5" y="-232.5" font-family="Helvetica,sans-Serif" font-size="10.00">iterator</text>
</a>
</g>
</g>
<!-- Node1&#45;&gt;Node4 -->
<g id="edge3" class="edge">
<title>Node1&#45;&gt;Node4</title>
<path fill="none" stroke="#63b8ff" d="M601.65,-285.96C628.63,-274.01 662.36,-259.08 685.88,-248.67"/>
<polygon fill="#63b8ff" stroke="#63b8ff" points="687.56,-251.75 695.29,-244.5 684.73,-245.35 687.56,-251.75"/>
</g>
<!-- Node5 -->
<g id="node5" class="node">
<title>Node5</title>
<g id="a_node5"><a xlink:title=" ">
<polygon fill="#e0e0e0" stroke="#999999" points="377.5,-19 319.5,-19 319.5,0 377.5,0 377.5,-19"/>
<text text-anchor="middle" x="348.5" y="-7" font-family="Helvetica,sans-Serif" font-size="10.00">memory</text>
</a>
</g>
</g>
<!-- Node1&#45;&gt;Node5 -->
<g id="edge4" class="edge">
<title>Node1&#45;&gt;Node5</title>
<path fill="none" stroke="#63b8ff" d="M552.8,-285.81C547.18,-260.46 538.5,-214.96 538.5,-175.5 538.5,-175.5 538.5,-175.5 538.5,-118.5 538.5,-83.32 438.79,-42.43 383.83,-22.57"/>
<polygon fill="#63b8ff" stroke="#63b8ff" points="384.72,-19.17 374.12,-19.11 382.37,-25.76 384.72,-19.17"/>
</g>
<!-- Node6 -->
<g id="node6" class="node">
<title>Node6</title>
<g id="a_node6"><a xlink:title=" ">
<polygon fill="#e0e0e0" stroke="#999999" points="806,-244.5 759,-244.5 759,-225.5 806,-225.5 806,-244.5"/>
<text text-anchor="middle" x="782.5" y="-232.5" font-family="Helvetica,sans-Serif" font-size="10.00">queue</text>
</a>
</g>
</g>
<!-- Node1&#45;&gt;Node6 -->
<g id="edge5" class="edge">
<title>Node1&#45;&gt;Node6</title>
<path fill="none" stroke="#63b8ff" d="M622.07,-289.23C659.89,-279.13 708.36,-265.2 750.5,-250 751.89,-249.5 753.31,-248.97 754.73,-248.41"/>
<polygon fill="#63b8ff" stroke="#63b8ff" points="756.15,-251.61 764.05,-244.57 753.48,-245.14 756.15,-251.61"/>
</g>
<!-- Node7 -->
<g id="node7" class="node">
<title>Node7</title>
<g id="a_node7"><a xlink:title=" ">
<polygon fill="#e0e0e0" stroke="#999999" points="510,-129 463,-129 463,-110 510,-110 510,-129"/>
<text text-anchor="middle" x="486.5" y="-117" font-family="Helvetica,sans-Serif" font-size="10.00">vector</text>
</a>
</g>
</g>
<!-- Node1&#45;&gt;Node7 -->
<g id="edge6" class="edge">
<title>Node1&#45;&gt;Node7</title>
<path fill="none" stroke="#63b8ff" d="M544.17,-285.85C537.59,-275.51 529.92,-262.43 524.5,-250 507.95,-212.02 496.13,-164.72 490.41,-139.1"/>
<polygon fill="#63b8ff" stroke="#63b8ff" points="493.81,-138.28 488.27,-129.25 486.97,-139.76 493.81,-138.28"/>
</g>
<!-- Node8 -->
<g id="node8" class="node">
<title>Node8</title>
<g id="a_node8"><a xlink:title=" ">
<polygon fill="#e0e0e0" stroke="#999999" points="509.5,-19 395.5,-19 395.5,0 509.5,0 509.5,-19"/>
<text text-anchor="middle" x="452.5" y="-7" font-family="Helvetica,sans-Serif" font-size="10.00">boost/operators.hpp</text>
</a>
</g>
</g>
<!-- Node1&#45;&gt;Node8 -->
<g id="edge7" class="edge">
<title>Node1&#45;&gt;Node8</title>
<path fill="none" stroke="#63b8ff" d="M562.2,-285.81C567.82,-260.46 576.5,-214.96 576.5,-175.5 576.5,-175.5 576.5,-175.5 576.5,-118.5 576.5,-88.33 573.21,-76.94 552.5,-55 537.95,-39.59 517.09,-29.16 498.18,-22.29"/>
<polygon fill="#63b8ff" stroke="#63b8ff" points="499.11,-18.91 488.52,-19.02 496.87,-25.54 499.11,-18.91"/>
</g>
<!-- Node9 -->
<g id="node9" class="node">
<title>Node9</title>
<g id="a_node9"><a xlink:title=" ">
<polygon fill="#e0e0e0" stroke="#999999" points="949,-250 824,-250 824,-220 949,-220 949,-250"/>
<text text-anchor="start" x="832" y="-238" font-family="Helvetica,sans-Serif" font-size="10.00">boost/stl_interfaces</text>
<text text-anchor="middle" x="886.5" y="-227" font-family="Helvetica,sans-Serif" font-size="10.00">/iterator_interface.hpp</text>
</a>
</g>
</g>
<!-- Node1&#45;&gt;Node9 -->
<g id="edge8" class="edge">
<title>Node1&#45;&gt;Node9</title>
<path fill="none" stroke="#63b8ff" d="M622.11,-291.85C677.27,-280.2 756.57,-263.45 813.91,-251.33"/>
<polygon fill="#63b8ff" stroke="#63b8ff" points="814.93,-254.7 823.99,-249.2 813.49,-247.85 814.93,-254.7"/>
</g>
<!-- Node10 -->
<g id="node10" class="node">
<title>Node10</title>
<g id="a_node10"><a xlink:href="node_8hpp.html" target="_top" xlink:title="A node.">
<polygon fill="white" stroke="#666666" points="378.5,-184 242.5,-184 242.5,-165 378.5,-165 378.5,-184"/>
<text text-anchor="middle" x="310.5" y="-172" font-family="Helvetica,sans-Serif" font-size="10.00">tetengo/lattice/node.hpp</text>
</a>
</g>
</g>
<!-- Node1&#45;&gt;Node10 -->
<g id="edge9" class="edge">
<title>Node1&#45;&gt;Node10</title>
<path fill="none" stroke="#63b8ff" d="M492.9,-297.28C433.87,-288.47 352.38,-272.63 329.5,-250 314.85,-235.51 310.96,-211.4 310.18,-194.55"/>
<polygon fill="#63b8ff" stroke="#63b8ff" points="313.68,-194.2 310.04,-184.25 306.68,-194.29 313.68,-194.2"/>
</g>
<!-- Node17 -->
<g id="node17" class="node">
<title>Node17</title>
<g id="a_node17"><a xlink:href="path_8hpp.html" target="_top" xlink:title="A path.">
<polygon fill="white" stroke="#666666" points="472.5,-244.5 338.5,-244.5 338.5,-225.5 472.5,-225.5 472.5,-244.5"/>
<text text-anchor="middle" x="405.5" y="-232.5" font-family="Helvetica,sans-Serif" font-size="10.00">tetengo/lattice/path.hpp</text>
</a>
</g>
</g>
<!-- Node1&#45;&gt;Node17 -->
<g id="edge26" class="edge">
<title>Node1&#45;&gt;Node17</title>
<path fill="none" stroke="#63b8ff" d="M514.76,-285.96C488.63,-274.01 455.98,-259.08 433.21,-248.67"/>
<polygon fill="#63b8ff" stroke="#63b8ff" points="434.65,-245.48 424.1,-244.5 431.74,-251.84 434.65,-245.48"/>
</g>
<!-- Node10&#45;&gt;Node2 -->
<g id="edge12" class="edge">
<title>Node10&#45;&gt;Node2</title>
<path fill="none" stroke="#63b8ff" d="M253.81,-164.96C221.68,-158.42 181.62,-147.31 149.5,-129 102.26,-102.07 59.59,-52.91 39.17,-27.2"/>
<polygon fill="#63b8ff" stroke="#63b8ff" points="41.82,-24.89 32.91,-19.15 36.29,-29.19 41.82,-24.89"/>
</g>
<!-- Node10&#45;&gt;Node7 -->
<g id="edge13" class="edge">
<title>Node10&#45;&gt;Node7</title>
<path fill="none" stroke="#63b8ff" d="M338.78,-164.98C369.95,-155.6 420.06,-140.51 453.13,-130.55"/>
<polygon fill="#63b8ff" stroke="#63b8ff" points="454.24,-133.87 462.81,-127.63 452.22,-127.17 454.24,-133.87"/>
</g>
<!-- Node10&#45;&gt;Node8 -->
<g id="edge14" class="edge">
<title>Node10&#45;&gt;Node8</title>
<path fill="none" stroke="#63b8ff" d="M336.46,-164.96C355.06,-157.77 379.68,-145.94 396.5,-129 425,-100.31 440.92,-54.35 447.99,-28.92"/>
<polygon fill="#63b8ff" stroke="#63b8ff" points="451.41,-29.67 450.56,-19.11 444.64,-27.89 451.41,-29.67"/>
</g>
<!-- Node11 -->
<g id="node11" class="node">
<title>Node11</title>
<g id="a_node11"><a xlink:title=" ">
<polygon fill="#e0e0e0" stroke="#999999" points="415,-74 380,-74 380,-55 415,-55 415,-74"/>
<text text-anchor="middle" x="397.5" y="-62" font-family="Helvetica,sans-Serif" font-size="10.00">any</text>
</a>
</g>
</g>
<!-- Node10&#45;&gt;Node11 -->
<g id="edge10" class="edge">
<title>Node10&#45;&gt;Node11</title>
<path fill="none" stroke="#63b8ff" d="M330.19,-164.94C345.18,-157.48 365.25,-145.29 377.5,-129 387.38,-115.87 392.45,-97.73 395.01,-84.2"/>
<polygon fill="#63b8ff" stroke="#63b8ff" points="398.5,-84.56 396.62,-74.14 391.59,-83.46 398.5,-84.56"/>
</g>
<!-- Node12 -->
<g id="node12" class="node">
<title>Node12</title>
<g id="a_node12"><a xlink:title=" ">
<polygon fill="#e0e0e0" stroke="#999999" points="123.5,-19 71.5,-19 71.5,0 123.5,0 123.5,-19"/>
<text text-anchor="middle" x="97.5" y="-7" font-family="Helvetica,sans-Serif" font-size="10.00">cassert</text>
</a>
</g>
</g>
<!-- Node10&#45;&gt;Node12 -->
<g id="edge11" class="edge">
<title>Node10&#45;&gt;Node12</title>
<path fill="none" stroke="#63b8ff" d="M271.54,-164.92C226.14,-152.78 152.38,-126.02 113.5,-74 103.82,-61.05 99.96,-42.9 98.44,-29.31"/>
<polygon fill="#63b8ff" stroke="#63b8ff" points="101.91,-28.89 97.63,-19.2 94.94,-29.44 101.91,-28.89"/>
</g>
<!-- Node13 -->
<g id="node13" class="node">
<title>Node13</title>
<g id="a_node13"><a xlink:href="entry_8hpp.html" target="_top" xlink:title="An entry.">
<polygon fill="white" stroke="#666666" points="368.5,-129 232.5,-129 232.5,-110 368.5,-110 368.5,-129"/>
<text text-anchor="middle" x="300.5" y="-117" font-family="Helvetica,sans-Serif" font-size="10.00">tetengo/lattice/entry.hpp</text>
</a>
</g>
</g>
<!-- Node10&#45;&gt;Node13 -->
<g id="edge15" class="edge">
<title>Node10&#45;&gt;Node13</title>
<path fill="none" stroke="#63b8ff" d="M308.85,-164.75C307.54,-157.8 305.66,-147.85 304.02,-139.13"/>
<polygon fill="#63b8ff" stroke="#63b8ff" points="307.41,-138.27 302.12,-129.09 300.54,-139.56 307.41,-138.27"/>
</g>
<!-- Node15 -->
<g id="node15" class="node">
<title>Node15</title>
<g id="a_node15"><a xlink:href="input_8hpp.html" target="_top" xlink:title="An input.">
<polygon fill="white" stroke="#666666" points="260,-74 123,-74 123,-55 260,-55 260,-74"/>
<text text-anchor="middle" x="191.5" y="-62" font-family="Helvetica,sans-Serif" font-size="10.00">tetengo/lattice/input.hpp</text>
</a>
</g>
</g>
<!-- Node10&#45;&gt;Node15 -->
<g id="edge25" class="edge">
<title>Node10&#45;&gt;Node15</title>
<path fill="none" stroke="#63b8ff" d="M283.81,-164.9C265.04,-157.74 240.36,-145.97 223.5,-129 211,-116.43 202.46,-97.98 197.36,-84.2"/>
<polygon fill="#63b8ff" stroke="#63b8ff" points="200.54,-82.69 194.01,-74.36 193.92,-84.95 200.54,-82.69"/>
</g>
<!-- Node13&#45;&gt;Node5 -->
<g id="edge17" class="edge">
<title>Node13&#45;&gt;Node5</title>
<path fill="none" stroke="#63b8ff" d="M307.89,-109.86C314.89,-101.28 325.23,-87.49 331.5,-74 338.2,-59.59 342.64,-42.07 345.29,-29.09"/>
<polygon fill="#63b8ff" stroke="#63b8ff" points="348.78,-29.52 347.18,-19.04 341.9,-28.22 348.78,-29.52"/>
</g>
<!-- Node13&#45;&gt;Node11 -->
<g id="edge16" class="edge">
<title>Node13&#45;&gt;Node11</title>
<path fill="none" stroke="#63b8ff" d="M316.08,-109.98C331.27,-101.69 354.6,-88.94 372.4,-79.22"/>
<polygon fill="#63b8ff" stroke="#63b8ff" points="374.53,-82.04 381.63,-74.17 371.18,-75.89 374.53,-82.04"/>
</g>
<!-- Node14 -->
<g id="node14" class="node">
<title>Node14</title>
<g id="a_node14"><a xlink:title=" ">
<polygon fill="#e0e0e0" stroke="#999999" points="323,-74 278,-74 278,-55 323,-55 323,-74"/>
<text text-anchor="middle" x="300.5" y="-62" font-family="Helvetica,sans-Serif" font-size="10.00">utility</text>
</a>
</g>
</g>
<!-- Node13&#45;&gt;Node14 -->
<g id="edge18" class="edge">
<title>Node13&#45;&gt;Node14</title>
<path fill="none" stroke="#63b8ff" d="M300.5,-109.75C300.5,-102.8 300.5,-92.85 300.5,-84.13"/>
<polygon fill="#63b8ff" stroke="#63b8ff" points="304,-84.09 300.5,-74.09 297,-84.09 304,-84.09"/>
</g>
<!-- Node13&#45;&gt;Node15 -->
<g id="edge19" class="edge">
<title>Node13&#45;&gt;Node15</title>
<path fill="none" stroke="#63b8ff" d="M282.99,-109.98C265.53,-101.5 238.49,-88.35 218.33,-78.54"/>
<polygon fill="#63b8ff" stroke="#63b8ff" points="219.86,-75.4 209.33,-74.17 216.79,-81.69 219.86,-75.4"/>
</g>
<!-- Node15&#45;&gt;Node2 -->
<g id="edge21" class="edge">
<title>Node15&#45;&gt;Node2</title>
<path fill="none" stroke="#63b8ff" d="M164.99,-54.98C137.29,-46.09 93.64,-32.07 62.76,-22.15"/>
<polygon fill="#63b8ff" stroke="#63b8ff" points="63.81,-18.81 53.22,-19.08 61.67,-25.47 63.81,-18.81"/>
</g>
<!-- Node15&#45;&gt;Node5 -->
<g id="edge22" class="edge">
<title>Node15&#45;&gt;Node5</title>
<path fill="none" stroke="#63b8ff" d="M216.72,-54.98C242.86,-46.16 283.9,-32.31 313.23,-22.41"/>
<polygon fill="#63b8ff" stroke="#63b8ff" points="314.72,-25.6 323.08,-19.08 312.48,-18.96 314.72,-25.6"/>
</g>
<!-- Node15&#45;&gt;Node8 -->
<g id="edge24" class="edge">
<title>Node15&#45;&gt;Node8</title>
<path fill="none" stroke="#63b8ff" d="M233.43,-54.98C278.77,-45.78 351.11,-31.09 400.15,-21.13"/>
<polygon fill="#63b8ff" stroke="#63b8ff" points="401.13,-24.5 410.24,-19.08 399.74,-17.64 401.13,-24.5"/>
</g>
<!-- Node15&#45;&gt;Node12 -->
<g id="edge20" class="edge">
<title>Node15&#45;&gt;Node12</title>
<path fill="none" stroke="#63b8ff" d="M176.4,-54.98C161.68,-46.69 139.08,-33.94 121.83,-24.22"/>
<polygon fill="#63b8ff" stroke="#63b8ff" points="123.31,-21.03 112.88,-19.17 119.87,-27.13 123.31,-21.03"/>
</g>
<!-- Node16 -->
<g id="node16" class="node">
<title>Node16</title>
<g id="a_node16"><a xlink:title=" ">
<polygon fill="#e0e0e0" stroke="#999999" points="295.5,-19 141.5,-19 141.5,0 295.5,0 295.5,-19"/>
<text text-anchor="middle" x="218.5" y="-7" font-family="Helvetica,sans-Serif" font-size="10.00">boost/core/noncopyable.hpp</text>
</a>
</g>
</g>
<!-- Node15&#45;&gt;Node16 -->
<g id="edge23" class="edge">
<title>Node15&#45;&gt;Node16</title>
<path fill="none" stroke="#63b8ff" d="M195.96,-54.75C199.62,-47.57 204.91,-37.18 209.45,-28.27"/>
<polygon fill="#63b8ff" stroke="#63b8ff" points="212.7,-29.59 214.12,-19.09 206.47,-26.41 212.7,-29.59"/>
</g>
<!-- Node17&#45;&gt;Node7 -->
<g id="edge27" class="edge">
<title>Node17&#45;&gt;Node7</title>
<path fill="none" stroke="#63b8ff" d="M411.59,-225.47C424.9,-206.82 456.8,-162.11 474.38,-137.49"/>
<polygon fill="#63b8ff" stroke="#63b8ff" points="477.38,-139.3 480.34,-129.13 471.68,-135.24 477.38,-139.3"/>
</g>
<!-- Node17&#45;&gt;Node10 -->
<g id="edge28" class="edge">
<title>Node17&#45;&gt;Node10</title>
<path fill="none" stroke="#63b8ff" d="M391.48,-225.37C376.19,-215.95 351.47,-200.73 333.36,-189.58"/>
<polygon fill="#63b8ff" stroke="#63b8ff" points="334.93,-186.43 324.58,-184.17 331.25,-192.39 334.93,-186.43"/>
</g>
</g>
</svg>
