<?xml version="1.0" encoding="UTF-8" standalone="no"?>
<!DOCTYPE svg PUBLIC "-//W3C//DTD SVG 1.1//EN"
 "http://www.w3.org/Graphics/SVG/1.1/DTD/svg11.dtd">
<!-- Generated by graphviz version 2.43.0 (0)
 -->
<!-- Title: library/lattice/c/include/tetengo/lattice/nBestIterator.h Pages: 1 -->
<svg width="847pt" height="386pt"
 viewBox="0.00 0.00 847.27 386.00" xmlns="http://www.w3.org/2000/svg" xmlns:xlink="http://www.w3.org/1999/xlink">
<g id="graph0" class="graph" transform="scale(1 1) rotate(0) translate(4 382)">
<title>library/lattice/c/include/tetengo/lattice/nBestIterator.h</title>
<polygon fill="white" stroke="transparent" points="-4,4 -4,-382 843.27,-382 843.27,4 -4,4"/>
<!-- Node1 -->
<g id="node1" class="node">
<title>Node1</title>
<g id="a_node1"><a xlink:title="An N&#45;best lattice path iterator.">
<polygon fill="#bfbfbf" stroke="black" points="279.27,-347.5 279.27,-377.5 445.27,-377.5 445.27,-347.5 279.27,-347.5"/>
<text text-anchor="start" x="287.27" y="-365.5" font-family="Helvetica,sans-Serif" font-size="10.00">library/lattice/c/include</text>
<text text-anchor="middle" x="362.27" y="-354.5" font-family="Helvetica,sans-Serif" font-size="10.00">/tetengo/lattice/nBestIterator.h</text>
</a>
</g>
</g>
<!-- Node2 -->
<g id="node2" class="node">
<title>Node2</title>
<g id="a_node2"><a xlink:title=" ">
<polygon fill="white" stroke="#bfbfbf" points="693.27,-0.5 693.27,-19.5 755.27,-19.5 755.27,-0.5 693.27,-0.5"/>
<text text-anchor="middle" x="724.27" y="-7.5" font-family="Helvetica,sans-Serif" font-size="10.00">stdbool.h</text>
</a>
</g>
</g>
<!-- Node1&#45;&gt;Node2 -->
<g id="edge1" class="edge">
<title>Node1&#45;&gt;Node2</title>
<path fill="none" stroke="midnightblue" d="M445.35,-357.42C582.02,-348.42 839.27,-320.81 839.27,-240.5 839.27,-240.5 839.27,-240.5 839.27,-121 839.27,-73.9 788.27,-40.75 754.2,-23.86"/>
<polygon fill="midnightblue" stroke="midnightblue" points="755.63,-20.66 745.09,-19.53 752.62,-26.98 755.63,-20.66"/>
</g>
<!-- Node3 -->
<g id="node3" class="node">
<title>Node3</title>
<g id="a_node3"><a xlink:href="constraint_8h.html" target="_top" xlink:title="A constraint.">
<polygon fill="white" stroke="black" points="96.77,-291.5 96.77,-310.5 245.77,-310.5 245.77,-291.5 96.77,-291.5"/>
<text text-anchor="middle" x="171.27" y="-298.5" font-family="Helvetica,sans-Serif" font-size="10.00">tetengo/lattice/constraint.h</text>
</a>
</g>
</g>
<!-- Node1&#45;&gt;Node3 -->
<g id="edge2" class="edge">
<title>Node1&#45;&gt;Node3</title>
<path fill="none" stroke="midnightblue" d="M317,-347.4C283.85,-337.07 239.42,-323.23 208.36,-313.56"/>
<polygon fill="midnightblue" stroke="midnightblue" points="209.37,-310.2 198.78,-310.57 207.29,-316.89 209.37,-310.2"/>
</g>
<!-- Node6 -->
<g id="node6" class="node">
<title>Node6</title>
<g id="a_node6"><a xlink:href="node_8h.html" target="_top" xlink:title="A node.">
<polygon fill="white" stroke="black" points="211.27,-168.5 211.27,-187.5 335.27,-187.5 335.27,-168.5 211.27,-168.5"/>
<text text-anchor="middle" x="273.27" y="-175.5" font-family="Helvetica,sans-Serif" font-size="10.00">tetengo/lattice/node.h</text>
</a>
</g>
</g>
<!-- Node1&#45;&gt;Node6 -->
<g id="edge31" class="edge">
<title>Node1&#45;&gt;Node6</title>
<path fill="none" stroke="midnightblue" d="M350.61,-347.25C335.13,-327.63 307.9,-290.66 292.27,-255 284.09,-236.36 278.98,-213.54 276.15,-197.79"/>
<polygon fill="midnightblue" stroke="midnightblue" points="279.57,-197.03 274.47,-187.74 272.66,-198.18 279.57,-197.03"/>
</g>
<!-- Node10 -->
<g id="node10" class="node">
<title>Node10</title>
<g id="a_node10"><a xlink:href="lattice_8h.html" target="_top" xlink:title="A lattice.">
<polygon fill="white" stroke="black" points="439.77,-291.5 439.77,-310.5 570.77,-310.5 570.77,-291.5 439.77,-291.5"/>
<text text-anchor="middle" x="505.27" y="-298.5" font-family="Helvetica,sans-Serif" font-size="10.00">tetengo/lattice/lattice.h</text>
</a>
</g>
</g>
<!-- Node1&#45;&gt;Node10 -->
<g id="edge18" class="edge">
<title>Node1&#45;&gt;Node10</title>
<path fill="none" stroke="midnightblue" d="M396.15,-347.4C420.15,-337.42 452.04,-324.15 475.14,-314.53"/>
<polygon fill="midnightblue" stroke="midnightblue" points="476.57,-317.73 484.46,-310.66 473.88,-311.27 476.57,-317.73"/>
</g>
<!-- Node13 -->
<g id="node13" class="node">
<title>Node13</title>
<g id="a_node13"><a xlink:href="path_8h.html" target="_top" xlink:title="A path.">
<polygon fill="white" stroke="black" points="301.27,-230 301.27,-249 423.27,-249 423.27,-230 301.27,-230"/>
<text text-anchor="middle" x="362.27" y="-237" font-family="Helvetica,sans-Serif" font-size="10.00">tetengo/lattice/path.h</text>
</a>
</g>
</g>
<!-- Node1&#45;&gt;Node13 -->
<g id="edge32" class="edge">
<title>Node1&#45;&gt;Node13</title>
<path fill="none" stroke="midnightblue" d="M362.27,-347.14C362.27,-325.2 362.27,-283.33 362.27,-259.09"/>
<polygon fill="midnightblue" stroke="midnightblue" points="365.77,-259.05 362.27,-249.05 358.77,-259.05 365.77,-259.05"/>
</g>
<!-- Node3&#45;&gt;Node2 -->
<g id="edge3" class="edge">
<title>Node3&#45;&gt;Node2</title>
<path fill="none" stroke="midnightblue" d="M246.02,-296.42C369.93,-289.96 607.5,-275.12 640.27,-255 716.67,-208.09 721.57,-164.89 733.27,-76 735.31,-60.45 732.55,-42.83 729.57,-29.86"/>
<polygon fill="midnightblue" stroke="midnightblue" points="732.87,-28.65 727,-19.83 726.09,-30.38 732.87,-28.65"/>
</g>
<!-- Node4 -->
<g id="node4" class="node">
<title>Node4</title>
<g id="a_node4"><a xlink:title=" ">
<polygon fill="white" stroke="#bfbfbf" points="193.27,-0.5 193.27,-19.5 249.27,-19.5 249.27,-0.5 193.27,-0.5"/>
<text text-anchor="middle" x="221.27" y="-7.5" font-family="Helvetica,sans-Serif" font-size="10.00">stddef.h</text>
</a>
</g>
</g>
<!-- Node3&#45;&gt;Node4 -->
<g id="edge4" class="edge">
<title>Node3&#45;&gt;Node4</title>
<path fill="none" stroke="midnightblue" d="M96.74,-293.25C69.36,-287.17 40.21,-275.86 20.27,-255 -3.8,-229.84 1.27,-213.82 1.27,-179 1.27,-179 1.27,-179 1.27,-121 1.27,-40.71 119.95,-19.02 182.98,-13.16"/>
<polygon fill="midnightblue" stroke="midnightblue" points="183.28,-16.65 192.96,-12.33 182.7,-9.68 183.28,-16.65"/>
</g>
<!-- Node5 -->
<g id="node5" class="node">
<title>Node5</title>
<g id="a_node5"><a xlink:href="constraintElement_8h.html" target="_top" xlink:title="A constraint element.">
<polygon fill="white" stroke="black" points="29.27,-224.5 29.27,-254.5 169.27,-254.5 169.27,-224.5 29.27,-224.5"/>
<text text-anchor="start" x="37.27" y="-242.5" font-family="Helvetica,sans-Serif" font-size="10.00">tetengo/lattice/constraint</text>
<text text-anchor="middle" x="99.27" y="-231.5" font-family="Helvetica,sans-Serif" font-size="10.00">Element.h</text>
</a>
</g>
</g>
<!-- Node3&#45;&gt;Node5 -->
<g id="edge5" class="edge">
<title>Node3&#45;&gt;Node5</title>
<path fill="none" stroke="midnightblue" d="M160.95,-291.48C151.38,-283.57 136.76,-271.48 124.15,-261.07"/>
<polygon fill="midnightblue" stroke="midnightblue" points="126.17,-258.2 116.23,-254.52 121.71,-263.59 126.17,-258.2"/>
</g>
<!-- Node3&#45;&gt;Node6 -->
<g id="edge17" class="edge">
<title>Node3&#45;&gt;Node6</title>
<path fill="none" stroke="midnightblue" d="M178.6,-291.3C195.51,-271.24 237.45,-221.49 259.39,-195.46"/>
<polygon fill="midnightblue" stroke="midnightblue" points="262.23,-197.52 266,-187.62 256.88,-193.01 262.23,-197.52"/>
</g>
<!-- Node5&#45;&gt;Node4 -->
<g id="edge6" class="edge">
<title>Node5&#45;&gt;Node4</title>
<path fill="none" stroke="midnightblue" d="M97.71,-224.03C94.94,-190.78 92.63,-107.85 131.27,-56 143.92,-39.02 164.77,-28.03 183.21,-21.17"/>
<polygon fill="midnightblue" stroke="midnightblue" points="184.54,-24.41 192.86,-17.85 182.27,-17.79 184.54,-24.41"/>
</g>
<!-- Node5&#45;&gt;Node6 -->
<g id="edge7" class="edge">
<title>Node5&#45;&gt;Node6</title>
<path fill="none" stroke="midnightblue" d="M140.5,-224.4C170.44,-214.16 210.48,-200.47 238.73,-190.81"/>
<polygon fill="midnightblue" stroke="midnightblue" points="239.87,-194.12 248.2,-187.57 237.61,-187.49 239.87,-194.12"/>
</g>
<!-- Node6&#45;&gt;Node2 -->
<g id="edge8" class="edge">
<title>Node6&#45;&gt;Node2</title>
<path fill="none" stroke="midnightblue" d="M276.2,-168.41C284.49,-145.59 310.44,-83.38 355.27,-56 409.47,-22.89 598.46,-14.09 682.93,-11.8"/>
<polygon fill="midnightblue" stroke="midnightblue" points="683.27,-15.29 693.17,-11.53 683.09,-8.29 683.27,-15.29"/>
</g>
<!-- Node6&#45;&gt;Node4 -->
<g id="edge9" class="edge">
<title>Node6&#45;&gt;Node4</title>
<path fill="none" stroke="midnightblue" d="M270.47,-168.08C262.25,-141.83 238.04,-64.55 226.94,-29.12"/>
<polygon fill="midnightblue" stroke="midnightblue" points="230.28,-28.06 223.95,-19.57 223.6,-30.16 230.28,-28.06"/>
</g>
<!-- Node7 -->
<g id="node7" class="node">
<title>Node7</title>
<g id="a_node7"><a xlink:href="entry_8h.html" target="_top" xlink:title="An entry.">
<polygon fill="white" stroke="black" points="377.27,-112.5 377.27,-131.5 501.27,-131.5 501.27,-112.5 377.27,-112.5"/>
<text text-anchor="middle" x="439.27" y="-119.5" font-family="Helvetica,sans-Serif" font-size="10.00">tetengo/lattice/entry.h</text>
</a>
</g>
</g>
<!-- Node6&#45;&gt;Node7 -->
<g id="edge10" class="edge">
<title>Node6&#45;&gt;Node7</title>
<path fill="none" stroke="midnightblue" d="M299.57,-168.44C327.62,-159.32 372.21,-144.81 403.45,-134.65"/>
<polygon fill="midnightblue" stroke="midnightblue" points="404.66,-137.94 413.09,-131.52 402.49,-131.28 404.66,-137.94"/>
</g>
<!-- Node7&#45;&gt;Node4 -->
<g id="edge11" class="edge">
<title>Node7&#45;&gt;Node4</title>
<path fill="none" stroke="midnightblue" d="M422.16,-112.37C384.19,-93.21 292.68,-47.04 247.46,-24.22"/>
<polygon fill="midnightblue" stroke="midnightblue" points="248.8,-20.97 238.29,-19.59 245.64,-27.22 248.8,-20.97"/>
</g>
<!-- Node8 -->
<g id="node8" class="node">
<title>Node8</title>
<g id="a_node8"><a xlink:href="input_8h.html" target="_top" xlink:title="An input.">
<polygon fill="white" stroke="black" points="532.77,-56.5 532.77,-75.5 657.77,-75.5 657.77,-56.5 532.77,-56.5"/>
<text text-anchor="middle" x="595.27" y="-63.5" font-family="Helvetica,sans-Serif" font-size="10.00">tetengo/lattice/input.h</text>
</a>
</g>
</g>
<!-- Node7&#45;&gt;Node8 -->
<g id="edge12" class="edge">
<title>Node7&#45;&gt;Node8</title>
<path fill="none" stroke="midnightblue" d="M463.98,-112.44C490.11,-103.4 531.53,-89.06 560.84,-78.92"/>
<polygon fill="midnightblue" stroke="midnightblue" points="562.36,-82.1 570.66,-75.52 560.07,-75.48 562.36,-82.1"/>
</g>
<!-- Node9 -->
<g id="node9" class="node">
<title>Node9</title>
<g id="a_node9"><a xlink:href="stringView_8h.html" target="_top" xlink:title="A string view.">
<polygon fill="white" stroke="black" points="363.77,-56.5 363.77,-75.5 514.77,-75.5 514.77,-56.5 363.77,-56.5"/>
<text text-anchor="middle" x="439.27" y="-63.5" font-family="Helvetica,sans-Serif" font-size="10.00">tetengo/lattice/stringView.h</text>
</a>
</g>
</g>
<!-- Node7&#45;&gt;Node9 -->
<g id="edge15" class="edge">
<title>Node7&#45;&gt;Node9</title>
<path fill="none" stroke="midnightblue" d="M439.27,-112.08C439.27,-105.01 439.27,-94.86 439.27,-85.99"/>
<polygon fill="midnightblue" stroke="midnightblue" points="442.77,-85.75 439.27,-75.75 435.77,-85.75 442.77,-85.75"/>
</g>
<!-- Node8&#45;&gt;Node2 -->
<g id="edge13" class="edge">
<title>Node8&#45;&gt;Node2</title>
<path fill="none" stroke="midnightblue" d="M615.71,-56.44C636.94,-47.56 670.36,-33.56 694.52,-23.45"/>
<polygon fill="midnightblue" stroke="midnightblue" points="696.05,-26.61 703.92,-19.52 693.35,-20.15 696.05,-26.61"/>
</g>
<!-- Node8&#45;&gt;Node4 -->
<g id="edge14" class="edge">
<title>Node8&#45;&gt;Node4</title>
<path fill="none" stroke="midnightblue" d="M536,-56.44C458.55,-45.26 325.08,-25.99 259.66,-16.54"/>
<polygon fill="midnightblue" stroke="midnightblue" points="259.79,-13.03 249.39,-15.06 258.79,-19.95 259.79,-13.03"/>
</g>
<!-- Node9&#45;&gt;Node4 -->
<g id="edge16" class="edge">
<title>Node9&#45;&gt;Node4</title>
<path fill="none" stroke="midnightblue" d="M404.72,-56.44C365.1,-46.63 300.33,-30.59 259.3,-20.42"/>
<polygon fill="midnightblue" stroke="midnightblue" points="259.96,-16.98 249.41,-17.97 258.27,-23.77 259.96,-16.98"/>
</g>
<!-- Node10&#45;&gt;Node2 -->
<g id="edge19" class="edge">
<title>Node10&#45;&gt;Node2</title>
<path fill="none" stroke="midnightblue" d="M549.58,-291.49C632.15,-274.36 801.27,-232.71 801.27,-179 801.27,-179 801.27,-179 801.27,-121 801.27,-90.05 794.06,-81.33 776.27,-56 768.01,-44.25 756.03,-33.6 745.65,-25.62"/>
<polygon fill="midnightblue" stroke="midnightblue" points="747.55,-22.67 737.42,-19.57 743.41,-28.31 747.55,-22.67"/>
</g>
<!-- Node10&#45;&gt;Node4 -->
<g id="edge20" class="edge">
<title>Node10&#45;&gt;Node4</title>
<path fill="none" stroke="midnightblue" d="M439.68,-298.95C363.53,-293.68 241.68,-271.75 189.27,-188 158.14,-138.27 168.91,-110.64 190.27,-56 194.27,-45.75 201.02,-35.54 207.19,-27.45"/>
<polygon fill="midnightblue" stroke="midnightblue" points="209.97,-29.58 213.51,-19.6 204.52,-25.19 209.97,-29.58"/>
</g>
<!-- Node10&#45;&gt;Node6 -->
<g id="edge22" class="edge">
<title>Node10&#45;&gt;Node6</title>
<path fill="none" stroke="midnightblue" d="M499.33,-291.27C488.12,-275.44 462.23,-241.99 432.27,-224 404.31,-207.22 369.84,-196.47 340.15,-189.7"/>
<polygon fill="midnightblue" stroke="midnightblue" points="340.79,-186.26 330.28,-187.56 339.31,-193.1 340.79,-186.26"/>
</g>
<!-- Node10&#45;&gt;Node8 -->
<g id="edge21" class="edge">
<title>Node10&#45;&gt;Node8</title>
<path fill="none" stroke="midnightblue" d="M571.01,-293.3C596.43,-287.27 623.41,-276 640.27,-255 680.09,-205.4 663.14,-168.68 634.27,-112 628.78,-101.22 620.16,-90.9 612.42,-82.86"/>
<polygon fill="midnightblue" stroke="midnightblue" points="614.69,-80.19 605.12,-75.66 609.78,-85.17 614.69,-80.19"/>
</g>
<!-- Node11 -->
<g id="node11" class="node">
<title>Node11</title>
<g id="a_node11"><a xlink:href="vocabulary_8h.html" target="_top" xlink:title="A vocabulary.">
<polygon fill="white" stroke="black" points="479.27,-230 479.27,-249 631.27,-249 631.27,-230 479.27,-230"/>
<text text-anchor="middle" x="555.27" y="-237" font-family="Helvetica,sans-Serif" font-size="10.00">tetengo/lattice/vocabulary.h</text>
</a>
</g>
</g>
<!-- Node10&#45;&gt;Node11 -->
<g id="edge23" class="edge">
<title>Node10&#45;&gt;Node11</title>
<path fill="none" stroke="midnightblue" d="M512.43,-291.48C520,-282.46 532.14,-268.02 541.56,-256.81"/>
<polygon fill="midnightblue" stroke="midnightblue" points="544.36,-258.92 548.12,-249.01 539,-254.41 544.36,-258.92"/>
</g>
<!-- Node11&#45;&gt;Node2 -->
<g id="edge24" class="edge">
<title>Node11&#45;&gt;Node2</title>
<path fill="none" stroke="midnightblue" d="M577.24,-229.97C610.87,-215.56 673.96,-182.92 700.27,-132 717.41,-98.82 722.33,-54.7 723.73,-29.94"/>
<polygon fill="midnightblue" stroke="midnightblue" points="727.24,-29.89 724.16,-19.75 720.24,-29.59 727.24,-29.89"/>
</g>
<!-- Node11&#45;&gt;Node4 -->
<g id="edge25" class="edge">
<title>Node11&#45;&gt;Node4</title>
<path fill="none" stroke="midnightblue" d="M532.9,-229.93C509.98,-220.78 473.66,-205.26 444.27,-188 360.22,-138.64 273.34,-60.3 237.86,-26.92"/>
<polygon fill="midnightblue" stroke="midnightblue" points="240.01,-24.13 230.34,-19.79 235.19,-29.21 240.01,-24.13"/>
</g>
<!-- Node11&#45;&gt;Node6 -->
<g id="edge30" class="edge">
<title>Node11&#45;&gt;Node6</title>
<path fill="none" stroke="midnightblue" d="M514.86,-229.98C464.4,-219.33 378.05,-201.11 323.41,-189.58"/>
<polygon fill="midnightblue" stroke="midnightblue" points="324.1,-186.15 313.59,-187.51 322.66,-193 324.1,-186.15"/>
</g>
<!-- Node11&#45;&gt;Node7 -->
<g id="edge28" class="edge">
<title>Node11&#45;&gt;Node7</title>
<path fill="none" stroke="midnightblue" d="M526.16,-229.94C504.79,-222.24 476.58,-208.87 459.27,-188 448.32,-174.81 443.36,-155.67 441.11,-141.58"/>
<polygon fill="midnightblue" stroke="midnightblue" points="444.57,-141.04 439.83,-131.56 437.63,-141.93 444.57,-141.04"/>
</g>
<!-- Node11&#45;&gt;Node8 -->
<g id="edge29" class="edge">
<title>Node11&#45;&gt;Node8</title>
<path fill="none" stroke="midnightblue" d="M578.58,-229.91C596.3,-222 619.42,-208.37 630.27,-188 648.59,-153.58 624.4,-108.4 608.04,-84.15"/>
<polygon fill="midnightblue" stroke="midnightblue" points="610.68,-81.82 602.05,-75.68 604.96,-85.86 610.68,-81.82"/>
</g>
<!-- Node12 -->
<g id="node12" class="node">
<title>Node12</title>
<g id="a_node12"><a xlink:href="connection_8h.html" target="_top" xlink:title="A connection.">
<polygon fill="white" stroke="black" points="467.77,-168.5 467.77,-187.5 620.77,-187.5 620.77,-168.5 467.77,-168.5"/>
<text text-anchor="middle" x="544.27" y="-175.5" font-family="Helvetica,sans-Serif" font-size="10.00">tetengo/lattice/connection.h</text>
</a>
</g>
</g>
<!-- Node11&#45;&gt;Node12 -->
<g id="edge26" class="edge">
<title>Node11&#45;&gt;Node12</title>
<path fill="none" stroke="midnightblue" d="M553.69,-229.98C552.14,-221.58 549.72,-208.48 547.72,-197.66"/>
<polygon fill="midnightblue" stroke="midnightblue" points="551.1,-196.71 545.84,-187.51 544.22,-197.98 551.1,-196.71"/>
</g>
<!-- Node12&#45;&gt;Node7 -->
<g id="edge27" class="edge">
<title>Node12&#45;&gt;Node7</title>
<path fill="none" stroke="midnightblue" d="M527.4,-168.32C510.56,-159.66 484.46,-146.24 465.03,-136.25"/>
<polygon fill="midnightblue" stroke="midnightblue" points="466.59,-133.12 456.09,-131.65 463.39,-139.34 466.59,-133.12"/>
</g>
<!-- Node13&#45;&gt;Node2 -->
<g id="edge33" class="edge">
<title>Node13&#45;&gt;Node2</title>
<path fill="none" stroke="midnightblue" d="M372.53,-229.9C389.71,-215.78 425.71,-187.32 459.27,-168 546.86,-117.56 585.81,-135.85 667.27,-76 685.52,-62.59 702.07,-42.39 712.57,-28.08"/>
<polygon fill="midnightblue" stroke="midnightblue" points="715.62,-29.83 718.56,-19.65 709.91,-25.78 715.62,-29.83"/>
</g>
<!-- Node13&#45;&gt;Node4 -->
<g id="edge34" class="edge">
<title>Node13&#45;&gt;Node4</title>
<path fill="none" stroke="midnightblue" d="M301.21,-236.15C266.19,-231.28 224.82,-218.78 202.27,-188 167,-139.88 195.72,-63.69 211.98,-29.13"/>
<polygon fill="midnightblue" stroke="midnightblue" points="215.29,-30.33 216.54,-19.81 209,-27.25 215.29,-30.33"/>
</g>
<!-- Node13&#45;&gt;Node6 -->
<g id="edge35" class="edge">
<title>Node13&#45;&gt;Node6</title>
<path fill="none" stroke="midnightblue" d="M349.51,-229.98C335.24,-220.43 311.87,-204.81 294.76,-193.37"/>
<polygon fill="midnightblue" stroke="midnightblue" points="296.25,-190.16 285.99,-187.51 292.36,-195.98 296.25,-190.16"/>
</g>
</g>
</svg>
