<?xml version="1.0" encoding="UTF-8" standalone="no"?>
<!DOCTYPE svg PUBLIC "-//W3C//DTD SVG 1.1//EN"
 "http://www.w3.org/Graphics/SVG/1.1/DTD/svg11.dtd">
<!-- Generated by graphviz version 2.43.0 (0)
 -->
<!-- Title: library/lattice/c/include/tetengo/lattice/nBestIterator.h Pages: 1 -->
<svg width="847pt" height="379pt"
 viewBox="0.00 0.00 847.18 379.00" xmlns="http://www.w3.org/2000/svg" xmlns:xlink="http://www.w3.org/1999/xlink">
<g id="graph0" class="graph" transform="scale(1 1) rotate(0) translate(4 375)">
<title>library/lattice/c/include/tetengo/lattice/nBestIterator.h</title>
<!-- Node1 -->
<g id="node1" class="node">
<title>Node1</title>
<g id="a_node1"><a xlink:title="An N&#45;best lattice path iterator.">
<polygon fill="#999999" stroke="#666666" points="445.18,-371 279.18,-371 279.18,-341 445.18,-341 445.18,-371"/>
<text text-anchor="start" x="287.18" y="-359" font-family="Helvetica,sans-Serif" font-size="10.00">library/lattice/c/include</text>
<text text-anchor="middle" x="362.18" y="-348" font-family="Helvetica,sans-Serif" font-size="10.00">/tetengo/lattice/nBestIterator.h</text>
</a>
</g>
</g>
<!-- Node2 -->
<g id="node2" class="node">
<title>Node2</title>
<g id="a_node2"><a xlink:title=" ">
<polygon fill="#e0e0e0" stroke="#999999" points="755.18,-19 693.18,-19 693.18,0 755.18,0 755.18,-19"/>
<text text-anchor="middle" x="724.18" y="-7" font-family="Helvetica,sans-Serif" font-size="10.00">stdbool.h</text>
</a>
</g>
</g>
<!-- Node1&#45;&gt;Node2 -->
<g id="edge1" class="edge">
<title>Node1&#45;&gt;Node2</title>
<path fill="none" stroke="#63b8ff" d="M445.27,-351.25C581.93,-342.8 839.18,-316.23 839.18,-236 839.18,-236 839.18,-236 839.18,-118.5 839.18,-72.06 788.73,-39.76 754.66,-23.24"/>
<polygon fill="#63b8ff" stroke="#63b8ff" points="756.08,-20.04 745.54,-19 753.13,-26.39 756.08,-20.04"/>
</g>
<!-- Node3 -->
<g id="node3" class="node">
<title>Node3</title>
<g id="a_node3"><a xlink:href="constraint_8h.html" target="_top" xlink:title="A constraint.">
<polygon fill="white" stroke="#666666" points="245.68,-305 96.68,-305 96.68,-286 245.68,-286 245.68,-305"/>
<text text-anchor="middle" x="171.18" y="-293" font-family="Helvetica,sans-Serif" font-size="10.00">tetengo/lattice/constraint.h</text>
</a>
</g>
</g>
<!-- Node1&#45;&gt;Node3 -->
<g id="edge2" class="edge">
<title>Node1&#45;&gt;Node3</title>
<path fill="none" stroke="#63b8ff" d="M316.43,-340.99C283.61,-330.94 239.91,-317.55 209.05,-308.1"/>
<polygon fill="#63b8ff" stroke="#63b8ff" points="209.69,-304.64 199.11,-305.05 207.64,-311.33 209.69,-304.64"/>
</g>
<!-- Node6 -->
<g id="node6" class="node">
<title>Node6</title>
<g id="a_node6"><a xlink:href="node_8h.html" target="_top" xlink:title="A node.">
<polygon fill="white" stroke="#666666" points="335.18,-184 211.18,-184 211.18,-165 335.18,-165 335.18,-184"/>
<text text-anchor="middle" x="273.18" y="-172" font-family="Helvetica,sans-Serif" font-size="10.00">tetengo/lattice/node.h</text>
</a>
</g>
</g>
<!-- Node1&#45;&gt;Node6 -->
<g id="edge31" class="edge">
<title>Node1&#45;&gt;Node6</title>
<path fill="none" stroke="#63b8ff" d="M350.54,-340.97C335.07,-321.65 307.86,-285.23 292.18,-250 284.05,-231.75 278.93,-209.37 276.08,-193.93"/>
<polygon fill="#63b8ff" stroke="#63b8ff" points="279.53,-193.34 274.4,-184.08 272.63,-194.52 279.53,-193.34"/>
</g>
<!-- Node10 -->
<g id="node10" class="node">
<title>Node10</title>
<g id="a_node10"><a xlink:href="lattice_8h.html" target="_top" xlink:title="A lattice.">
<polygon fill="white" stroke="#666666" points="570.68,-305 439.68,-305 439.68,-286 570.68,-286 570.68,-305"/>
<text text-anchor="middle" x="505.18" y="-293" font-family="Helvetica,sans-Serif" font-size="10.00">tetengo/lattice/lattice.h</text>
</a>
</g>
</g>
<!-- Node1&#45;&gt;Node10 -->
<g id="edge18" class="edge">
<title>Node1&#45;&gt;Node10</title>
<path fill="none" stroke="#63b8ff" d="M396.43,-340.99C420.29,-331.23 451.82,-318.33 474.79,-308.93"/>
<polygon fill="#63b8ff" stroke="#63b8ff" points="476.13,-312.17 484.06,-305.14 473.48,-305.69 476.13,-312.17"/>
</g>
<!-- Node13 -->
<g id="node13" class="node">
<title>Node13</title>
<g id="a_node13"><a xlink:href="path_8h.html" target="_top" xlink:title="A path.">
<polygon fill="white" stroke="#666666" points="423.18,-244.5 301.18,-244.5 301.18,-225.5 423.18,-225.5 423.18,-244.5"/>
<text text-anchor="middle" x="362.18" y="-232.5" font-family="Helvetica,sans-Serif" font-size="10.00">tetengo/lattice/path.h</text>
</a>
</g>
</g>
<!-- Node1&#45;&gt;Node13 -->
<g id="edge32" class="edge">
<title>Node1&#45;&gt;Node13</title>
<path fill="none" stroke="#63b8ff" d="M362.18,-340.88C362.18,-319.51 362.18,-278.89 362.18,-254.96"/>
<polygon fill="#63b8ff" stroke="#63b8ff" points="365.68,-254.71 362.18,-244.71 358.68,-254.71 365.68,-254.71"/>
</g>
<!-- Node3&#45;&gt;Node2 -->
<g id="edge3" class="edge">
<title>Node3&#45;&gt;Node2</title>
<path fill="none" stroke="#63b8ff" d="M245.92,-290.98C369.8,-284.61 607.33,-269.97 640.18,-250 715.77,-204.03 721.44,-161.69 733.18,-74 735.21,-58.81 732.46,-41.59 729.47,-28.92"/>
<polygon fill="#63b8ff" stroke="#63b8ff" points="732.83,-27.91 726.91,-19.12 726.05,-29.68 732.83,-27.91"/>
</g>
<!-- Node4 -->
<g id="node4" class="node">
<title>Node4</title>
<g id="a_node4"><a xlink:title=" ">
<polygon fill="#e0e0e0" stroke="#999999" points="249.18,-19 193.18,-19 193.18,0 249.18,0 249.18,-19"/>
<text text-anchor="middle" x="221.18" y="-7" font-family="Helvetica,sans-Serif" font-size="10.00">stddef.h</text>
</a>
</g>
</g>
<!-- Node3&#45;&gt;Node4 -->
<g id="edge4" class="edge">
<title>Node3&#45;&gt;Node4</title>
<path fill="none" stroke="#63b8ff" d="M96.33,-287.88C69.07,-281.86 40.09,-270.66 20.18,-250 -3.53,-225.4 1.18,-209.67 1.18,-175.5 1.18,-175.5 1.18,-175.5 1.18,-118.5 1.18,-38.5 119.87,-17.75 182.89,-12.38"/>
<polygon fill="#63b8ff" stroke="#63b8ff" points="183.16,-15.87 192.87,-11.62 182.63,-8.89 183.16,-15.87"/>
</g>
<!-- Node5 -->
<g id="node5" class="node">
<title>Node5</title>
<g id="a_node5"><a xlink:href="constraintElement_8h.html" target="_top" xlink:title="A constraint element.">
<polygon fill="white" stroke="#666666" points="169.18,-250 29.18,-250 29.18,-220 169.18,-220 169.18,-250"/>
<text text-anchor="start" x="37.18" y="-238" font-family="Helvetica,sans-Serif" font-size="10.00">tetengo/lattice/constraint</text>
<text text-anchor="middle" x="99.18" y="-227" font-family="Helvetica,sans-Serif" font-size="10.00">Element.h</text>
</a>
</g>
</g>
<!-- Node3&#45;&gt;Node5 -->
<g id="edge5" class="edge">
<title>Node3&#45;&gt;Node5</title>
<path fill="none" stroke="#63b8ff" d="M160.55,-285.87C151.06,-278.15 136.76,-266.54 124.36,-256.46"/>
<polygon fill="#63b8ff" stroke="#63b8ff" points="126.52,-253.7 116.55,-250.11 122.1,-259.14 126.52,-253.7"/>
</g>
<!-- Node3&#45;&gt;Node6 -->
<g id="edge17" class="edge">
<title>Node3&#45;&gt;Node6</title>
<path fill="none" stroke="#63b8ff" d="M178.51,-285.94C195.34,-266.31 236.95,-217.76 258.98,-192.07"/>
<polygon fill="#63b8ff" stroke="#63b8ff" points="261.78,-194.17 265.63,-184.3 256.47,-189.62 261.78,-194.17"/>
</g>
<!-- Node5&#45;&gt;Node4 -->
<g id="edge6" class="edge">
<title>Node5&#45;&gt;Node4</title>
<path fill="none" stroke="#63b8ff" d="M97.7,-219.79C95.08,-187.15 93.07,-105.73 131.18,-55 143.87,-38.11 164.72,-27.23 183.16,-20.47"/>
<polygon fill="#63b8ff" stroke="#63b8ff" points="184.45,-23.73 192.8,-17.21 182.21,-17.09 184.45,-23.73"/>
</g>
<!-- Node5&#45;&gt;Node6 -->
<g id="edge7" class="edge">
<title>Node5&#45;&gt;Node6</title>
<path fill="none" stroke="#63b8ff" d="M140.86,-219.99C170.49,-210.02 209.87,-196.78 237.94,-187.35"/>
<polygon fill="#63b8ff" stroke="#63b8ff" points="239.37,-190.56 247.74,-184.05 237.14,-183.92 239.37,-190.56"/>
</g>
<!-- Node6&#45;&gt;Node2 -->
<g id="edge8" class="edge">
<title>Node6&#45;&gt;Node2</title>
<path fill="none" stroke="#63b8ff" d="M276.29,-164.75C284.84,-142.13 311.05,-81.62 355.18,-55 409.56,-22.2 598.46,-13.53 682.87,-11.28"/>
<polygon fill="#63b8ff" stroke="#63b8ff" points="683.2,-14.77 693.11,-11.02 683.02,-7.77 683.2,-14.77"/>
</g>
<!-- Node6&#45;&gt;Node4 -->
<g id="edge9" class="edge">
<title>Node6&#45;&gt;Node4</title>
<path fill="none" stroke="#63b8ff" d="M270.38,-164.74C262.24,-139.2 238.38,-64.43 227.15,-29.23"/>
<polygon fill="#63b8ff" stroke="#63b8ff" points="230.36,-27.77 223.99,-19.31 223.69,-29.9 230.36,-27.77"/>
</g>
<!-- Node7 -->
<g id="node7" class="node">
<title>Node7</title>
<g id="a_node7"><a xlink:href="entry_8h.html" target="_top" xlink:title="An entry.">
<polygon fill="white" stroke="#666666" points="501.18,-129 377.18,-129 377.18,-110 501.18,-110 501.18,-129"/>
<text text-anchor="middle" x="439.18" y="-117" font-family="Helvetica,sans-Serif" font-size="10.00">tetengo/lattice/entry.h</text>
</a>
</g>
</g>
<!-- Node6&#45;&gt;Node7 -->
<g id="edge10" class="edge">
<title>Node6&#45;&gt;Node7</title>
<path fill="none" stroke="#63b8ff" d="M299.85,-164.98C327.72,-156.09 371.63,-142.07 402.7,-132.15"/>
<polygon fill="#63b8ff" stroke="#63b8ff" points="403.84,-135.46 412.3,-129.08 401.71,-128.79 403.84,-135.46"/>
</g>
<!-- Node7&#45;&gt;Node4 -->
<g id="edge11" class="edge">
<title>Node7&#45;&gt;Node4</title>
<path fill="none" stroke="#63b8ff" d="M421.71,-109.84C383.58,-90.96 292.75,-45.96 247.59,-23.59"/>
<polygon fill="#63b8ff" stroke="#63b8ff" points="248.94,-20.35 238.43,-19.05 245.84,-26.62 248.94,-20.35"/>
</g>
<!-- Node8 -->
<g id="node8" class="node">
<title>Node8</title>
<g id="a_node8"><a xlink:href="input_8h.html" target="_top" xlink:title="An input.">
<polygon fill="white" stroke="#666666" points="657.68,-74 532.68,-74 532.68,-55 657.68,-55 657.68,-74"/>
<text text-anchor="middle" x="595.18" y="-62" font-family="Helvetica,sans-Serif" font-size="10.00">tetengo/lattice/input.h</text>
</a>
</g>
</g>
<!-- Node7&#45;&gt;Node8 -->
<g id="edge12" class="edge">
<title>Node7&#45;&gt;Node8</title>
<path fill="none" stroke="#63b8ff" d="M464.24,-109.98C490.21,-101.16 530.99,-87.31 560.14,-77.41"/>
<polygon fill="#63b8ff" stroke="#63b8ff" points="561.58,-80.61 569.92,-74.08 559.32,-73.99 561.58,-80.61"/>
</g>
<!-- Node9 -->
<g id="node9" class="node">
<title>Node9</title>
<g id="a_node9"><a xlink:href="stringView_8h.html" target="_top" xlink:title="A string view.">
<polygon fill="white" stroke="#666666" points="514.68,-74 363.68,-74 363.68,-55 514.68,-55 514.68,-74"/>
<text text-anchor="middle" x="439.18" y="-62" font-family="Helvetica,sans-Serif" font-size="10.00">tetengo/lattice/stringView.h</text>
</a>
</g>
</g>
<!-- Node7&#45;&gt;Node9 -->
<g id="edge15" class="edge">
<title>Node7&#45;&gt;Node9</title>
<path fill="none" stroke="#63b8ff" d="M439.18,-109.75C439.18,-102.8 439.18,-92.85 439.18,-84.13"/>
<polygon fill="#63b8ff" stroke="#63b8ff" points="442.68,-84.09 439.18,-74.09 435.68,-84.09 442.68,-84.09"/>
</g>
<!-- Node8&#45;&gt;Node2 -->
<g id="edge13" class="edge">
<title>Node8&#45;&gt;Node2</title>
<path fill="none" stroke="#63b8ff" d="M615.9,-54.98C636.94,-46.34 669.73,-32.87 693.72,-23.02"/>
<polygon fill="#63b8ff" stroke="#63b8ff" points="695.16,-26.21 703.08,-19.17 692.5,-19.73 695.16,-26.21"/>
</g>
<!-- Node8&#45;&gt;Node4 -->
<g id="edge14" class="edge">
<title>Node8&#45;&gt;Node4</title>
<path fill="none" stroke="#63b8ff" d="M535.09,-54.98C457.63,-44.01 325.17,-25.24 259.88,-15.98"/>
<polygon fill="#63b8ff" stroke="#63b8ff" points="260.02,-12.47 249.62,-14.53 259.03,-19.4 260.02,-12.47"/>
</g>
<!-- Node9&#45;&gt;Node4 -->
<g id="edge16" class="edge">
<title>Node9&#45;&gt;Node4</title>
<path fill="none" stroke="#63b8ff" d="M404.15,-54.98C364.43,-45.33 299.89,-29.64 259.03,-19.7"/>
<polygon fill="#63b8ff" stroke="#63b8ff" points="259.73,-16.27 249.19,-17.31 258.08,-23.07 259.73,-16.27"/>
</g>
<!-- Node10&#45;&gt;Node2 -->
<g id="edge19" class="edge">
<title>Node10&#45;&gt;Node2</title>
<path fill="none" stroke="#63b8ff" d="M551.1,-285.94C634.24,-269.13 801.18,-228.74 801.18,-175.5 801.18,-175.5 801.18,-175.5 801.18,-118.5 801.18,-88.17 793.78,-79.7 776.18,-55 767.99,-43.51 756.21,-33.1 745.93,-25.25"/>
<polygon fill="#63b8ff" stroke="#63b8ff" points="747.9,-22.35 737.76,-19.28 743.77,-28.01 747.9,-22.35"/>
</g>
<!-- Node10&#45;&gt;Node4 -->
<g id="edge20" class="edge">
<title>Node10&#45;&gt;Node4</title>
<path fill="none" stroke="#63b8ff" d="M439.36,-293.7C363.28,-288.71 241.82,-267.27 189.18,-184 158.54,-135.53 170.03,-108.3 191.18,-55 195.12,-45.06 201.56,-35.08 207.47,-27.11"/>
<polygon fill="#63b8ff" stroke="#63b8ff" points="210.35,-29.09 213.74,-19.06 204.83,-24.79 210.35,-29.09"/>
</g>
<!-- Node10&#45;&gt;Node6 -->
<g id="edge22" class="edge">
<title>Node10&#45;&gt;Node6</title>
<path fill="none" stroke="#63b8ff" d="M499.03,-285.69C487.66,-270.07 461.79,-237.52 432.18,-220 404.25,-203.48 369.93,-192.87 340.33,-186.17"/>
<polygon fill="#63b8ff" stroke="#63b8ff" points="341.01,-182.73 330.49,-184.04 339.53,-189.58 341.01,-182.73"/>
</g>
<!-- Node10&#45;&gt;Node8 -->
<g id="edge21" class="edge">
<title>Node10&#45;&gt;Node8</title>
<path fill="none" stroke="#63b8ff" d="M570.69,-288.24C596.24,-282.35 623.37,-271.16 640.18,-250 678.93,-201.24 662.23,-165.6 634.18,-110 628.76,-99.27 620.15,-89.05 612.4,-81.12"/>
<polygon fill="#63b8ff" stroke="#63b8ff" points="614.69,-78.47 605.08,-74.02 609.82,-83.49 614.69,-78.47"/>
</g>
<!-- Node11 -->
<g id="node11" class="node">
<title>Node11</title>
<g id="a_node11"><a xlink:href="vocabulary_8h.html" target="_top" xlink:title="A vocabulary.">
<polygon fill="white" stroke="#666666" points="631.18,-244.5 479.18,-244.5 479.18,-225.5 631.18,-225.5 631.18,-244.5"/>
<text text-anchor="middle" x="555.18" y="-232.5" font-family="Helvetica,sans-Serif" font-size="10.00">tetengo/lattice/vocabulary.h</text>
</a>
</g>
</g>
<!-- Node10&#45;&gt;Node11 -->
<g id="edge23" class="edge">
<title>Node10&#45;&gt;Node11</title>
<path fill="none" stroke="#63b8ff" d="M512.56,-285.87C520.09,-277.05 531.97,-263.16 541.27,-252.27"/>
<polygon fill="#63b8ff" stroke="#63b8ff" points="543.93,-254.54 547.77,-244.67 538.61,-250 543.93,-254.54"/>
</g>
<!-- Node11&#45;&gt;Node2 -->
<g id="edge24" class="edge">
<title>Node11&#45;&gt;Node2</title>
<path fill="none" stroke="#63b8ff" d="M577.6,-225.39C611.22,-211.13 673.58,-179.1 700.18,-129 717.34,-96.67 722.26,-53.4 723.65,-29.1"/>
<polygon fill="#63b8ff" stroke="#63b8ff" points="727.15,-29.24 724.08,-19.09 720.15,-28.93 727.15,-29.24"/>
</g>
<!-- Node11&#45;&gt;Node4 -->
<g id="edge25" class="edge">
<title>Node11&#45;&gt;Node4</title>
<path fill="none" stroke="#63b8ff" d="M532.83,-225.5C509.94,-216.43 473.63,-201.05 444.18,-184 360.47,-135.53 273.41,-58.79 237.82,-26.09"/>
<polygon fill="#63b8ff" stroke="#63b8ff" points="240,-23.34 230.29,-19.11 235.25,-28.47 240,-23.34"/>
</g>
<!-- Node11&#45;&gt;Node6 -->
<g id="edge30" class="edge">
<title>Node11&#45;&gt;Node6</title>
<path fill="none" stroke="#63b8ff" d="M514.17,-225.49C463.84,-215.05 378.48,-197.35 324.03,-186.05"/>
<polygon fill="#63b8ff" stroke="#63b8ff" points="324.74,-182.62 314.23,-184.02 323.31,-189.48 324.74,-182.62"/>
</g>
<!-- Node11&#45;&gt;Node7 -->
<g id="edge28" class="edge">
<title>Node11&#45;&gt;Node7</title>
<path fill="none" stroke="#63b8ff" d="M525.67,-225.41C504.38,-217.78 476.45,-204.59 459.18,-184 448.62,-171.41 443.62,-153.21 441.26,-139.53"/>
<polygon fill="#63b8ff" stroke="#63b8ff" points="444.68,-138.73 439.84,-129.31 437.75,-139.7 444.68,-138.73"/>
</g>
<!-- Node11&#45;&gt;Node8 -->
<g id="edge29" class="edge">
<title>Node11&#45;&gt;Node8</title>
<path fill="none" stroke="#63b8ff" d="M578.85,-225.4C596.52,-217.57 619.4,-204.14 630.18,-184 648.14,-150.44 624.39,-106.47 608.12,-82.65"/>
<polygon fill="#63b8ff" stroke="#63b8ff" points="610.81,-80.4 602.15,-74.29 605.11,-84.47 610.81,-80.4"/>
</g>
<!-- Node12 -->
<g id="node12" class="node">
<title>Node12</title>
<g id="a_node12"><a xlink:href="connection_8h.html" target="_top" xlink:title="A connection.">
<polygon fill="white" stroke="#666666" points="620.68,-184 467.68,-184 467.68,-165 620.68,-165 620.68,-184"/>
<text text-anchor="middle" x="544.18" y="-172" font-family="Helvetica,sans-Serif" font-size="10.00">tetengo/lattice/connection.h</text>
</a>
</g>
</g>
<!-- Node11&#45;&gt;Node12 -->
<g id="edge26" class="edge">
<title>Node11&#45;&gt;Node12</title>
<path fill="none" stroke="#63b8ff" d="M553.56,-225.37C552.01,-217.16 549.64,-204.54 547.67,-194.05"/>
<polygon fill="#63b8ff" stroke="#63b8ff" points="551.1,-193.35 545.81,-184.17 544.22,-194.64 551.1,-193.35"/>
</g>
<!-- Node12&#45;&gt;Node7 -->
<g id="edge27" class="edge">
<title>Node12&#45;&gt;Node7</title>
<path fill="none" stroke="#63b8ff" d="M527.31,-164.98C510.57,-156.54 484.68,-143.47 465.29,-133.68"/>
<polygon fill="#63b8ff" stroke="#63b8ff" points="466.86,-130.55 456.36,-129.17 463.71,-136.8 466.86,-130.55"/>
</g>
<!-- Node13&#45;&gt;Node2 -->
<g id="edge33" class="edge">
<title>Node13&#45;&gt;Node2</title>
<path fill="none" stroke="#63b8ff" d="M372.75,-225.37C390.07,-211.49 425.91,-183.84 459.18,-165 546.98,-115.27 585.4,-133.11 667.18,-74 685.1,-61.04 701.51,-41.6 712.07,-27.65"/>
<polygon fill="#63b8ff" stroke="#63b8ff" points="715.03,-29.53 718.12,-19.39 709.39,-25.39 715.03,-29.53"/>
</g>
<!-- Node13&#45;&gt;Node4 -->
<g id="edge34" class="edge">
<title>Node13&#45;&gt;Node4</title>
<path fill="none" stroke="#63b8ff" d="M301.14,-231.85C266.13,-227.09 224.76,-214.72 202.18,-184 167.53,-136.87 195.94,-62.17 212.01,-28.27"/>
<polygon fill="#63b8ff" stroke="#63b8ff" points="215.23,-29.66 216.51,-19.14 208.95,-26.56 215.23,-29.66"/>
</g>
<!-- Node13&#45;&gt;Node6 -->
<g id="edge35" class="edge">
<title>Node13&#45;&gt;Node6</title>
<path fill="none" stroke="#63b8ff" d="M349.05,-225.37C334.85,-216.04 311.98,-201.01 295.06,-189.88"/>
<polygon fill="#63b8ff" stroke="#63b8ff" points="296.64,-186.74 286.36,-184.17 292.8,-192.58 296.64,-186.74"/>
</g>
</g>
</svg>
