<?xml version="1.0" encoding="UTF-8" standalone="no"?>
<!DOCTYPE svg PUBLIC "-//W3C//DTD SVG 1.1//EN"
 "http://www.w3.org/Graphics/SVG/1.1/DTD/svg11.dtd">
<!-- Generated by graphviz version 2.43.0 (0)
 -->
<!-- Title: library/lattice/cpp/include/tetengo/lattice/node.hpp Pages: 1 -->
<svg width="596pt" height="214pt"
 viewBox="0.00 0.00 595.50 214.00" xmlns="http://www.w3.org/2000/svg" xmlns:xlink="http://www.w3.org/1999/xlink">
<g id="graph0" class="graph" transform="scale(1 1) rotate(0) translate(4 210)">
<title>library/lattice/cpp/include/tetengo/lattice/node.hpp</title>
<!-- Node1 -->
<g id="node1" class="node">
<title>Node1</title>
<g id="a_node1"><a xlink:title="A node.">
<polygon fill="#999999" stroke="#666666" points="371,-206 242,-206 242,-165 371,-165 371,-206"/>
<text text-anchor="start" x="250" y="-194" font-family="Helvetica,sans-Serif" font-size="10.00">library/lattice/cpp</text>
<text text-anchor="start" x="250" y="-183" font-family="Helvetica,sans-Serif" font-size="10.00">/include/tetengo/lattice</text>
<text text-anchor="middle" x="306.5" y="-172" font-family="Helvetica,sans-Serif" font-size="10.00">/node.hpp</text>
</a>
</g>
</g>
<!-- Node2 -->
<g id="node2" class="node">
<title>Node2</title>
<g id="a_node2"><a xlink:title=" ">
<polygon fill="#e0e0e0" stroke="#999999" points="35,-74 0,-74 0,-55 35,-55 35,-74"/>
<text text-anchor="middle" x="17.5" y="-62" font-family="Helvetica,sans-Serif" font-size="10.00">any</text>
</a>
</g>
</g>
<!-- Node1&#45;&gt;Node2 -->
<g id="edge1" class="edge">
<title>Node1&#45;&gt;Node2</title>
<path fill="none" stroke="#63b8ff" d="M241.98,-178.82C171.89,-171.38 65.97,-155.99 36.5,-129 24.18,-117.72 19.72,-98.81 18.17,-84.55"/>
<polygon fill="#63b8ff" stroke="#63b8ff" points="21.65,-84.08 17.46,-74.35 14.66,-84.57 21.65,-84.08"/>
</g>
<!-- Node3 -->
<g id="node3" class="node">
<title>Node3</title>
<g id="a_node3"><a xlink:title=" ">
<polygon fill="#e0e0e0" stroke="#999999" points="211.5,-19 159.5,-19 159.5,0 211.5,0 211.5,-19"/>
<text text-anchor="middle" x="185.5" y="-7" font-family="Helvetica,sans-Serif" font-size="10.00">cassert</text>
</a>
</g>
</g>
<!-- Node1&#45;&gt;Node3 -->
<g id="edge2" class="edge">
<title>Node1&#45;&gt;Node3</title>
<path fill="none" stroke="#63b8ff" d="M292.29,-164.62C276.57,-142.56 250.54,-105.87 228.5,-74 217.65,-58.31 205.48,-40.3 196.87,-27.48"/>
<polygon fill="#63b8ff" stroke="#63b8ff" points="199.77,-25.52 191.29,-19.16 193.95,-29.42 199.77,-25.52"/>
</g>
<!-- Node4 -->
<g id="node4" class="node">
<title>Node4</title>
<g id="a_node4"><a xlink:title=" ">
<polygon fill="#e0e0e0" stroke="#999999" points="455,-19 402,-19 402,0 455,0 455,-19"/>
<text text-anchor="middle" x="428.5" y="-7" font-family="Helvetica,sans-Serif" font-size="10.00">cstddef</text>
</a>
</g>
</g>
<!-- Node1&#45;&gt;Node4 -->
<g id="edge3" class="edge">
<title>Node1&#45;&gt;Node4</title>
<path fill="none" stroke="#63b8ff" d="M320.36,-164.97C336,-142.92 362.16,-105.94 384.5,-74 395.51,-58.26 407.97,-40.25 416.82,-27.44"/>
<polygon fill="#63b8ff" stroke="#63b8ff" points="419.75,-29.36 422.55,-19.14 413.99,-25.39 419.75,-29.36"/>
</g>
<!-- Node5 -->
<g id="node5" class="node">
<title>Node5</title>
<g id="a_node5"><a xlink:title=" ">
<polygon fill="#e0e0e0" stroke="#999999" points="517,-129 470,-129 470,-110 517,-110 517,-129"/>
<text text-anchor="middle" x="493.5" y="-117" font-family="Helvetica,sans-Serif" font-size="10.00">vector</text>
</a>
</g>
</g>
<!-- Node1&#45;&gt;Node5 -->
<g id="edge4" class="edge">
<title>Node1&#45;&gt;Node5</title>
<path fill="none" stroke="#63b8ff" d="M363.62,-164.95C395.24,-154.13 433.44,-141.06 460.19,-131.9"/>
<polygon fill="#63b8ff" stroke="#63b8ff" points="461.52,-135.14 469.85,-128.59 459.26,-128.52 461.52,-135.14"/>
</g>
<!-- Node6 -->
<g id="node6" class="node">
<title>Node6</title>
<g id="a_node6"><a xlink:title=" ">
<polygon fill="#e0e0e0" stroke="#999999" points="587.5,-19 473.5,-19 473.5,0 587.5,0 587.5,-19"/>
<text text-anchor="middle" x="530.5" y="-7" font-family="Helvetica,sans-Serif" font-size="10.00">boost/operators.hpp</text>
</a>
</g>
</g>
<!-- Node1&#45;&gt;Node6 -->
<g id="edge5" class="edge">
<title>Node1&#45;&gt;Node6</title>
<path fill="none" stroke="#63b8ff" d="M331.76,-164.88C376.96,-129.77 470.71,-56.94 511.19,-25.5"/>
<polygon fill="#63b8ff" stroke="#63b8ff" points="513.45,-28.17 519.2,-19.27 509.16,-22.64 513.45,-28.17"/>
</g>
<!-- Node7 -->
<g id="node7" class="node">
<title>Node7</title>
<g id="a_node7"><a xlink:href="entry_8hpp.html" target="_top" xlink:title="An entry.">
<polygon fill="white" stroke="#666666" points="181.5,-129 45.5,-129 45.5,-110 181.5,-110 181.5,-129"/>
<text text-anchor="middle" x="113.5" y="-117" font-family="Helvetica,sans-Serif" font-size="10.00">tetengo/lattice/entry.hpp</text>
</a>
</g>
</g>
<!-- Node1&#45;&gt;Node7 -->
<g id="edge6" class="edge">
<title>Node1&#45;&gt;Node7</title>
<path fill="none" stroke="#63b8ff" d="M247.54,-164.95C215.26,-154.24 176.33,-141.34 148.77,-132.19"/>
<polygon fill="#63b8ff" stroke="#63b8ff" points="149.75,-128.83 139.16,-129.01 147.55,-135.48 149.75,-128.83"/>
</g>
<!-- Node10 -->
<g id="node10" class="node">
<title>Node10</title>
<g id="a_node10"><a xlink:href="input_8hpp.html" target="_top" xlink:title="An input.">
<polygon fill="white" stroke="#666666" points="375,-74 238,-74 238,-55 375,-55 375,-74"/>
<text text-anchor="middle" x="306.5" y="-62" font-family="Helvetica,sans-Serif" font-size="10.00">tetengo/lattice/input.hpp</text>
</a>
</g>
</g>
<!-- Node1&#45;&gt;Node10 -->
<g id="edge16" class="edge">
<title>Node1&#45;&gt;Node10</title>
<path fill="none" stroke="#63b8ff" d="M306.5,-164.85C306.5,-142.48 306.5,-106.19 306.5,-84.21"/>
<polygon fill="#63b8ff" stroke="#63b8ff" points="310,-84.18 306.5,-74.18 303,-84.18 310,-84.18"/>
</g>
<!-- Node7&#45;&gt;Node2 -->
<g id="edge7" class="edge">
<title>Node7&#45;&gt;Node2</title>
<path fill="none" stroke="#63b8ff" d="M98.08,-109.98C83.05,-101.69 59.96,-88.94 42.34,-79.22"/>
<polygon fill="#63b8ff" stroke="#63b8ff" points="43.65,-75.94 33.2,-74.17 40.27,-82.07 43.65,-75.94"/>
</g>
<!-- Node8 -->
<g id="node8" class="node">
<title>Node8</title>
<g id="a_node8"><a xlink:title=" ">
<polygon fill="#e0e0e0" stroke="#999999" points="141.5,-19 83.5,-19 83.5,0 141.5,0 141.5,-19"/>
<text text-anchor="middle" x="112.5" y="-7" font-family="Helvetica,sans-Serif" font-size="10.00">memory</text>
</a>
</g>
</g>
<!-- Node7&#45;&gt;Node8 -->
<g id="edge8" class="edge">
<title>Node7&#45;&gt;Node8</title>
<path fill="none" stroke="#63b8ff" d="M113.42,-109.66C113.26,-92.17 112.89,-52.8 112.67,-29.27"/>
<polygon fill="#63b8ff" stroke="#63b8ff" points="116.17,-29.13 112.58,-19.16 109.17,-29.19 116.17,-29.13"/>
</g>
<!-- Node9 -->
<g id="node9" class="node">
<title>Node9</title>
<g id="a_node9"><a xlink:title=" ">
<polygon fill="#e0e0e0" stroke="#999999" points="98,-74 53,-74 53,-55 98,-55 98,-74"/>
<text text-anchor="middle" x="75.5" y="-62" font-family="Helvetica,sans-Serif" font-size="10.00">utility</text>
</a>
</g>
</g>
<!-- Node7&#45;&gt;Node9 -->
<g id="edge9" class="edge">
<title>Node7&#45;&gt;Node9</title>
<path fill="none" stroke="#63b8ff" d="M107.23,-109.75C101.91,-102.34 94.14,-91.5 87.62,-82.41"/>
<polygon fill="#63b8ff" stroke="#63b8ff" points="90.33,-80.18 81.66,-74.09 84.64,-84.26 90.33,-80.18"/>
</g>
<!-- Node7&#45;&gt;Node10 -->
<g id="edge10" class="edge">
<title>Node7&#45;&gt;Node10</title>
<path fill="none" stroke="#63b8ff" d="M144.51,-109.98C177.33,-100.97 229.3,-86.7 265.49,-76.76"/>
<polygon fill="#63b8ff" stroke="#63b8ff" points="266.53,-80.11 275.25,-74.08 264.68,-73.36 266.53,-80.11"/>
</g>
<!-- Node10&#45;&gt;Node3 -->
<g id="edge11" class="edge">
<title>Node10&#45;&gt;Node3</title>
<path fill="none" stroke="#63b8ff" d="M287.06,-54.98C267.51,-46.42 237.12,-33.11 214.68,-23.28"/>
<polygon fill="#63b8ff" stroke="#63b8ff" points="215.86,-19.98 205.29,-19.17 213.05,-26.39 215.86,-19.98"/>
</g>
<!-- Node10&#45;&gt;Node4 -->
<g id="edge12" class="edge">
<title>Node10&#45;&gt;Node4</title>
<path fill="none" stroke="#63b8ff" d="M326.1,-54.98C345.82,-46.42 376.45,-33.11 399.08,-23.28"/>
<polygon fill="#63b8ff" stroke="#63b8ff" points="400.76,-26.37 408.54,-19.17 397.98,-19.94 400.76,-26.37"/>
</g>
<!-- Node10&#45;&gt;Node6 -->
<g id="edge15" class="edge">
<title>Node10&#45;&gt;Node6</title>
<path fill="none" stroke="#63b8ff" d="M342.49,-54.98C380.99,-45.87 442.19,-31.4 484.24,-21.45"/>
<polygon fill="#63b8ff" stroke="#63b8ff" points="485.3,-24.79 494.23,-19.08 483.69,-17.98 485.3,-24.79"/>
</g>
<!-- Node10&#45;&gt;Node8 -->
<g id="edge13" class="edge">
<title>Node10&#45;&gt;Node8</title>
<path fill="none" stroke="#63b8ff" d="M275.33,-54.98C241.65,-45.78 187.93,-31.11 151.48,-21.15"/>
<polygon fill="#63b8ff" stroke="#63b8ff" points="152.26,-17.73 141.69,-18.47 150.41,-24.49 152.26,-17.73"/>
</g>
<!-- Node11 -->
<g id="node11" class="node">
<title>Node11</title>
<g id="a_node11"><a xlink:title=" ">
<polygon fill="#e0e0e0" stroke="#999999" points="383.5,-19 229.5,-19 229.5,0 383.5,0 383.5,-19"/>
<text text-anchor="middle" x="306.5" y="-7" font-family="Helvetica,sans-Serif" font-size="10.00">boost/core/noncopyable.hpp</text>
</a>
</g>
</g>
<!-- Node10&#45;&gt;Node11 -->
<g id="edge14" class="edge">
<title>Node10&#45;&gt;Node11</title>
<path fill="none" stroke="#63b8ff" d="M306.5,-54.75C306.5,-47.8 306.5,-37.85 306.5,-29.13"/>
<polygon fill="#63b8ff" stroke="#63b8ff" points="310,-29.09 306.5,-19.09 303,-29.09 310,-29.09"/>
</g>
</g>
</svg>
