<?xml version="1.0" encoding="UTF-8" standalone="no"?>
<!DOCTYPE svg PUBLIC "-//W3C//DTD SVG 1.1//EN"
 "http://www.w3.org/Graphics/SVG/1.1/DTD/svg11.dtd">
<!-- Generated by graphviz version 2.43.0 (0)
 -->
<!-- Title: library/lattice/c/include/tetengo/lattice/node.h Pages: 1 -->
<svg width="369pt" height="207pt"
 viewBox="0.00 0.00 368.59 207.00" xmlns="http://www.w3.org/2000/svg" xmlns:xlink="http://www.w3.org/1999/xlink">
<g id="graph0" class="graph" transform="scale(1 1) rotate(0) translate(4 203)">
<title>library/lattice/c/include/tetengo/lattice/node.h</title>
<polygon fill="white" stroke="transparent" points="-4,4 -4,-203 364.59,-203 364.59,4 -4,4"/>
<!-- Node1 -->
<g id="node1" class="node">
<title>Node1</title>
<g id="a_node1"><a xlink:title="A node.">
<polygon fill="#bfbfbf" stroke="black" points="103,-168.5 103,-198.5 231,-198.5 231,-168.5 103,-168.5"/>
<text text-anchor="start" x="111" y="-186.5" font-family="Helvetica,sans-Serif" font-size="10.00">library/lattice/c/include</text>
<text text-anchor="middle" x="167" y="-175.5" font-family="Helvetica,sans-Serif" font-size="10.00">/tetengo/lattice/node.h</text>
</a>
</g>
</g>
<!-- Node2 -->
<g id="node2" class="node">
<title>Node2</title>
<g id="a_node2"><a xlink:title=" ">
<polygon fill="white" stroke="#bfbfbf" points="0,-0.5 0,-19.5 62,-19.5 62,-0.5 0,-0.5"/>
<text text-anchor="middle" x="31" y="-7.5" font-family="Helvetica,sans-Serif" font-size="10.00">stdbool.h</text>
</a>
</g>
</g>
<!-- Node1&#45;&gt;Node2 -->
<g id="edge1" class="edge">
<title>Node1&#45;&gt;Node2</title>
<path fill="none" stroke="midnightblue" d="M125.18,-168.43C85.91,-152.72 29.5,-123.12 4,-76 -4.59,-60.13 5.71,-40.94 15.97,-27.55"/>
<polygon fill="midnightblue" stroke="midnightblue" points="18.81,-29.6 22.51,-19.67 13.43,-25.13 18.81,-29.6"/>
</g>
<!-- Node3 -->
<g id="node3" class="node">
<title>Node3</title>
<g id="a_node3"><a xlink:title=" ">
<polygon fill="white" stroke="#bfbfbf" points="191,-0.5 191,-19.5 247,-19.5 247,-0.5 191,-0.5"/>
<text text-anchor="middle" x="219" y="-7.5" font-family="Helvetica,sans-Serif" font-size="10.00">stddef.h</text>
</a>
</g>
</g>
<!-- Node1&#45;&gt;Node3 -->
<g id="edge2" class="edge">
<title>Node1&#45;&gt;Node3</title>
<path fill="none" stroke="midnightblue" d="M221.38,-168.38C266.31,-153.52 327.21,-125.27 356,-76 379.45,-35.87 305.4,-20.18 257.18,-14.3"/>
<polygon fill="midnightblue" stroke="midnightblue" points="257.35,-10.8 247.03,-13.16 256.57,-17.76 257.35,-10.8"/>
</g>
<!-- Node4 -->
<g id="node4" class="node">
<title>Node4</title>
<g id="a_node4"><a xlink:href="entry_8h.html" target="_top" xlink:title="An entry.">
<polygon fill="white" stroke="black" points="105,-112.5 105,-131.5 229,-131.5 229,-112.5 105,-112.5"/>
<text text-anchor="middle" x="167" y="-119.5" font-family="Helvetica,sans-Serif" font-size="10.00">tetengo/lattice/entry.h</text>
</a>
</g>
</g>
<!-- Node1&#45;&gt;Node4 -->
<g id="edge3" class="edge">
<title>Node1&#45;&gt;Node4</title>
<path fill="none" stroke="midnightblue" d="M167,-168.4C167,-160.47 167,-150.46 167,-141.86"/>
<polygon fill="midnightblue" stroke="midnightblue" points="170.5,-141.66 167,-131.66 163.5,-141.66 170.5,-141.66"/>
</g>
<!-- Node4&#45;&gt;Node3 -->
<g id="edge4" class="edge">
<title>Node4&#45;&gt;Node3</title>
<path fill="none" stroke="midnightblue" d="M168.55,-112.23C171.04,-99.4 176.63,-74.98 186,-56 190.98,-45.92 198.22,-35.73 204.66,-27.61"/>
<polygon fill="midnightblue" stroke="midnightblue" points="207.51,-29.64 211.17,-19.7 202.11,-25.19 207.51,-29.64"/>
</g>
<!-- Node5 -->
<g id="node5" class="node">
<title>Node5</title>
<g id="a_node5"><a xlink:href="input_8h.html" target="_top" xlink:title="An input.">
<polygon fill="white" stroke="black" points="13.5,-56.5 13.5,-75.5 138.5,-75.5 138.5,-56.5 13.5,-56.5"/>
<text text-anchor="middle" x="76" y="-63.5" font-family="Helvetica,sans-Serif" font-size="10.00">tetengo/lattice/input.h</text>
</a>
</g>
</g>
<!-- Node4&#45;&gt;Node5 -->
<g id="edge5" class="edge">
<title>Node4&#45;&gt;Node5</title>
<path fill="none" stroke="midnightblue" d="M152.38,-112.32C138.05,-103.82 115.99,-90.73 99.25,-80.8"/>
<polygon fill="midnightblue" stroke="midnightblue" points="100.97,-77.75 90.58,-75.65 97.4,-83.77 100.97,-77.75"/>
</g>
<!-- Node6 -->
<g id="node6" class="node">
<title>Node6</title>
<g id="a_node6"><a xlink:href="stringView_8h.html" target="_top" xlink:title="A string view.">
<polygon fill="white" stroke="black" points="195.5,-56.5 195.5,-75.5 346.5,-75.5 346.5,-56.5 195.5,-56.5"/>
<text text-anchor="middle" x="271" y="-63.5" font-family="Helvetica,sans-Serif" font-size="10.00">tetengo/lattice/stringView.h</text>
</a>
</g>
</g>
<!-- Node4&#45;&gt;Node6 -->
<g id="edge8" class="edge">
<title>Node4&#45;&gt;Node6</title>
<path fill="none" stroke="midnightblue" d="M183.71,-112.32C200.31,-103.7 226,-90.36 245.22,-80.39"/>
<polygon fill="midnightblue" stroke="midnightblue" points="247.07,-83.37 254.33,-75.65 243.84,-77.16 247.07,-83.37"/>
</g>
<!-- Node5&#45;&gt;Node2 -->
<g id="edge6" class="edge">
<title>Node5&#45;&gt;Node2</title>
<path fill="none" stroke="midnightblue" d="M68.57,-56.08C62.15,-48.38 52.69,-37.03 44.88,-27.65"/>
<polygon fill="midnightblue" stroke="midnightblue" points="47.38,-25.19 38.29,-19.75 42.01,-29.67 47.38,-25.19"/>
</g>
<!-- Node5&#45;&gt;Node3 -->
<g id="edge7" class="edge">
<title>Node5&#45;&gt;Node3</title>
<path fill="none" stroke="midnightblue" d="M98.66,-56.44C122.4,-47.48 159.91,-33.31 186.74,-23.18"/>
<polygon fill="midnightblue" stroke="midnightblue" points="188.33,-26.32 196.45,-19.52 185.86,-19.77 188.33,-26.32"/>
</g>
<!-- Node6&#45;&gt;Node3 -->
<g id="edge9" class="edge">
<title>Node6&#45;&gt;Node3</title>
<path fill="none" stroke="midnightblue" d="M262.41,-56.08C254.84,-48.22 243.62,-36.57 234.49,-27.08"/>
<polygon fill="midnightblue" stroke="midnightblue" points="236.88,-24.53 227.43,-19.75 231.84,-29.38 236.88,-24.53"/>
</g>
</g>
</svg>
