<?xml version="1.0" encoding="UTF-8" standalone="no"?>
<!DOCTYPE svg PUBLIC "-//W3C//DTD SVG 1.1//EN"
 "http://www.w3.org/Graphics/SVG/1.1/DTD/svg11.dtd">
<!-- Generated by graphviz version 2.43.0 (0)
 -->
<!-- Title: library/lattice/cpp/include/tetengo/lattice/node.hpp Pages: 1 -->
<svg width="596pt" height="218pt"
 viewBox="0.00 0.00 595.50 218.00" xmlns="http://www.w3.org/2000/svg" xmlns:xlink="http://www.w3.org/1999/xlink">
<g id="graph0" class="graph" transform="scale(1 1) rotate(0) translate(4 214)">
<title>library/lattice/cpp/include/tetengo/lattice/node.hpp</title>
<polygon fill="white" stroke="transparent" points="-4,4 -4,-214 591.5,-214 591.5,4 -4,4"/>
<!-- Node1 -->
<g id="node1" class="node">
<title>Node1</title>
<g id="a_node1"><a xlink:title="A node.">
<polygon fill="#bfbfbf" stroke="black" points="242,-168.5 242,-209.5 371,-209.5 371,-168.5 242,-168.5"/>
<text text-anchor="start" x="250" y="-197.5" font-family="Helvetica,sans-Serif" font-size="10.00">library/lattice/cpp</text>
<text text-anchor="start" x="250" y="-186.5" font-family="Helvetica,sans-Serif" font-size="10.00">/include/tetengo/lattice</text>
<text text-anchor="middle" x="306.5" y="-175.5" font-family="Helvetica,sans-Serif" font-size="10.00">/node.hpp</text>
</a>
</g>
</g>
<!-- Node2 -->
<g id="node2" class="node">
<title>Node2</title>
<g id="a_node2"><a xlink:title=" ">
<polygon fill="white" stroke="#bfbfbf" points="0,-56.5 0,-75.5 35,-75.5 35,-56.5 0,-56.5"/>
<text text-anchor="middle" x="17.5" y="-63.5" font-family="Helvetica,sans-Serif" font-size="10.00">any</text>
</a>
</g>
</g>
<!-- Node1&#45;&gt;Node2 -->
<g id="edge1" class="edge">
<title>Node1&#45;&gt;Node2</title>
<path fill="none" stroke="midnightblue" d="M241.94,-182.23C171.82,-174.68 65.87,-159.11 36.5,-132 23.82,-120.3 19.44,-100.65 18,-86.01"/>
<polygon fill="midnightblue" stroke="midnightblue" points="21.47,-85.37 17.38,-75.59 14.48,-85.79 21.47,-85.37"/>
</g>
<!-- Node3 -->
<g id="node3" class="node">
<title>Node3</title>
<g id="a_node3"><a xlink:title=" ">
<polygon fill="white" stroke="#bfbfbf" points="159.5,-0.5 159.5,-19.5 211.5,-19.5 211.5,-0.5 159.5,-0.5"/>
<text text-anchor="middle" x="185.5" y="-7.5" font-family="Helvetica,sans-Serif" font-size="10.00">cassert</text>
</a>
</g>
</g>
<!-- Node1&#45;&gt;Node3 -->
<g id="edge2" class="edge">
<title>Node1&#45;&gt;Node3</title>
<path fill="none" stroke="midnightblue" d="M292.55,-168.27C276.83,-145.98 250.59,-108.54 228.5,-76 217.61,-59.97 205.45,-41.53 196.84,-28.39"/>
<polygon fill="midnightblue" stroke="midnightblue" points="199.68,-26.33 191.28,-19.88 193.82,-30.16 199.68,-26.33"/>
</g>
<!-- Node4 -->
<g id="node4" class="node">
<title>Node4</title>
<g id="a_node4"><a xlink:title=" ">
<polygon fill="white" stroke="#bfbfbf" points="402,-0.5 402,-19.5 455,-19.5 455,-0.5 402,-0.5"/>
<text text-anchor="middle" x="428.5" y="-7.5" font-family="Helvetica,sans-Serif" font-size="10.00">cstddef</text>
</a>
</g>
</g>
<!-- Node1&#45;&gt;Node4 -->
<g id="edge3" class="edge">
<title>Node1&#45;&gt;Node4</title>
<path fill="none" stroke="midnightblue" d="M320.39,-168.23C336.05,-145.89 362.24,-108.43 384.5,-76 395.55,-59.91 408.01,-41.48 416.84,-28.36"/>
<polygon fill="midnightblue" stroke="midnightblue" points="419.88,-30.11 422.56,-19.86 414.07,-26.2 419.88,-30.11"/>
</g>
<!-- Node5 -->
<g id="node5" class="node">
<title>Node5</title>
<g id="a_node5"><a xlink:title=" ">
<polygon fill="white" stroke="#bfbfbf" points="470,-112.5 470,-131.5 517,-131.5 517,-112.5 470,-112.5"/>
<text text-anchor="middle" x="493.5" y="-119.5" font-family="Helvetica,sans-Serif" font-size="10.00">vector</text>
</a>
</g>
</g>
<!-- Node1&#45;&gt;Node5 -->
<g id="edge4" class="edge">
<title>Node1&#45;&gt;Node5</title>
<path fill="none" stroke="midnightblue" d="M362.61,-168.5C394.28,-157.49 432.8,-144.1 459.83,-134.7"/>
<polygon fill="midnightblue" stroke="midnightblue" points="461.29,-137.9 469.58,-131.31 458.99,-131.29 461.29,-137.9"/>
</g>
<!-- Node6 -->
<g id="node6" class="node">
<title>Node6</title>
<g id="a_node6"><a xlink:title=" ">
<polygon fill="white" stroke="#bfbfbf" points="473.5,-0.5 473.5,-19.5 587.5,-19.5 587.5,-0.5 473.5,-0.5"/>
<text text-anchor="middle" x="530.5" y="-7.5" font-family="Helvetica,sans-Serif" font-size="10.00">boost/operators.hpp</text>
</a>
</g>
</g>
<!-- Node1&#45;&gt;Node6 -->
<g id="edge5" class="edge">
<title>Node1&#45;&gt;Node6</title>
<path fill="none" stroke="midnightblue" d="M331.33,-168.38C376.54,-132.66 471.33,-57.75 511.68,-25.87"/>
<polygon fill="midnightblue" stroke="midnightblue" points="513.96,-28.53 519.64,-19.58 509.62,-23.04 513.96,-28.53"/>
</g>
<!-- Node7 -->
<g id="node7" class="node">
<title>Node7</title>
<g id="a_node7"><a xlink:href="entry_8hpp.html" target="_top" xlink:title="An entry.">
<polygon fill="white" stroke="black" points="45.5,-112.5 45.5,-131.5 181.5,-131.5 181.5,-112.5 45.5,-112.5"/>
<text text-anchor="middle" x="113.5" y="-119.5" font-family="Helvetica,sans-Serif" font-size="10.00">tetengo/lattice/entry.hpp</text>
</a>
</g>
</g>
<!-- Node1&#45;&gt;Node7 -->
<g id="edge6" class="edge">
<title>Node1&#45;&gt;Node7</title>
<path fill="none" stroke="midnightblue" d="M248.59,-168.5C216.06,-157.54 176.52,-144.22 148.64,-134.84"/>
<polygon fill="midnightblue" stroke="midnightblue" points="149.53,-131.44 138.94,-131.57 147.3,-138.08 149.53,-131.44"/>
</g>
<!-- Node10 -->
<g id="node10" class="node">
<title>Node10</title>
<g id="a_node10"><a xlink:href="input_8hpp.html" target="_top" xlink:title="An input.">
<polygon fill="white" stroke="black" points="238,-56.5 238,-75.5 375,-75.5 375,-56.5 238,-56.5"/>
<text text-anchor="middle" x="306.5" y="-63.5" font-family="Helvetica,sans-Serif" font-size="10.00">tetengo/lattice/input.hpp</text>
</a>
</g>
</g>
<!-- Node1&#45;&gt;Node10 -->
<g id="edge16" class="edge">
<title>Node1&#45;&gt;Node10</title>
<path fill="none" stroke="midnightblue" d="M306.5,-168.29C306.5,-145.48 306.5,-108.19 306.5,-85.78"/>
<polygon fill="midnightblue" stroke="midnightblue" points="310,-85.57 306.5,-75.57 303,-85.57 310,-85.57"/>
</g>
<!-- Node7&#45;&gt;Node2 -->
<g id="edge7" class="edge">
<title>Node7&#45;&gt;Node2</title>
<path fill="none" stroke="midnightblue" d="M98.08,-112.32C82.96,-103.82 59.68,-90.73 42.03,-80.8"/>
<polygon fill="midnightblue" stroke="midnightblue" points="43.32,-77.51 32.89,-75.65 39.89,-83.61 43.32,-77.51"/>
</g>
<!-- Node8 -->
<g id="node8" class="node">
<title>Node8</title>
<g id="a_node8"><a xlink:title=" ">
<polygon fill="white" stroke="#bfbfbf" points="83.5,-0.5 83.5,-19.5 141.5,-19.5 141.5,-0.5 83.5,-0.5"/>
<text text-anchor="middle" x="112.5" y="-7.5" font-family="Helvetica,sans-Serif" font-size="10.00">memory</text>
</a>
</g>
</g>
<!-- Node7&#45;&gt;Node8 -->
<g id="edge8" class="edge">
<title>Node7&#45;&gt;Node8</title>
<path fill="none" stroke="midnightblue" d="M113.42,-112.37C113.26,-94.62 112.89,-53.67 112.67,-29.6"/>
<polygon fill="midnightblue" stroke="midnightblue" points="116.17,-29.56 112.58,-19.59 109.17,-29.62 116.17,-29.56"/>
</g>
<!-- Node9 -->
<g id="node9" class="node">
<title>Node9</title>
<g id="a_node9"><a xlink:title=" ">
<polygon fill="white" stroke="#bfbfbf" points="53,-56.5 53,-75.5 98,-75.5 98,-56.5 53,-56.5"/>
<text text-anchor="middle" x="75.5" y="-63.5" font-family="Helvetica,sans-Serif" font-size="10.00">utility</text>
</a>
</g>
</g>
<!-- Node7&#45;&gt;Node9 -->
<g id="edge9" class="edge">
<title>Node7&#45;&gt;Node9</title>
<path fill="none" stroke="midnightblue" d="M107.23,-112.08C101.86,-104.46 93.98,-93.26 87.42,-83.94"/>
<polygon fill="midnightblue" stroke="midnightblue" points="90.28,-81.91 81.66,-75.75 84.55,-85.94 90.28,-81.91"/>
</g>
<!-- Node7&#45;&gt;Node10 -->
<g id="edge10" class="edge">
<title>Node7&#45;&gt;Node10</title>
<path fill="none" stroke="midnightblue" d="M144.08,-112.44C177.11,-103.2 229.89,-88.44 266.27,-78.26"/>
<polygon fill="midnightblue" stroke="midnightblue" points="267.37,-81.58 276.06,-75.52 265.49,-74.84 267.37,-81.58"/>
</g>
<!-- Node10&#45;&gt;Node3 -->
<g id="edge11" class="edge">
<title>Node10&#45;&gt;Node3</title>
<path fill="none" stroke="midnightblue" d="M287.33,-56.44C267.59,-47.64 236.61,-33.81 214.01,-23.72"/>
<polygon fill="midnightblue" stroke="midnightblue" points="215.14,-20.4 204.58,-19.52 212.29,-26.79 215.14,-20.4"/>
</g>
<!-- Node10&#45;&gt;Node4 -->
<g id="edge12" class="edge">
<title>Node10&#45;&gt;Node4</title>
<path fill="none" stroke="midnightblue" d="M325.83,-56.44C345.82,-47.6 377.24,-33.69 400.06,-23.59"/>
<polygon fill="midnightblue" stroke="midnightblue" points="401.53,-26.76 409.26,-19.52 398.7,-20.36 401.53,-26.76"/>
</g>
<!-- Node10&#45;&gt;Node6 -->
<g id="edge15" class="edge">
<title>Node10&#45;&gt;Node6</title>
<path fill="none" stroke="midnightblue" d="M341.99,-56.44C380.82,-47.08 443.16,-32.06 485.42,-21.87"/>
<polygon fill="midnightblue" stroke="midnightblue" points="486.27,-25.26 495.17,-19.52 484.63,-18.46 486.27,-25.26"/>
</g>
<!-- Node10&#45;&gt;Node8 -->
<g id="edge13" class="edge">
<title>Node10&#45;&gt;Node8</title>
<path fill="none" stroke="midnightblue" d="M275.76,-56.44C242.07,-47.07 187.94,-32 151.34,-21.81"/>
<polygon fill="midnightblue" stroke="midnightblue" points="152.08,-18.39 141.51,-19.08 150.21,-25.13 152.08,-18.39"/>
</g>
<!-- Node11 -->
<g id="node11" class="node">
<title>Node11</title>
<g id="a_node11"><a xlink:title=" ">
<polygon fill="white" stroke="#bfbfbf" points="229.5,-0.5 229.5,-19.5 383.5,-19.5 383.5,-0.5 229.5,-0.5"/>
<text text-anchor="middle" x="306.5" y="-7.5" font-family="Helvetica,sans-Serif" font-size="10.00">boost/core/noncopyable.hpp</text>
</a>
</g>
</g>
<!-- Node10&#45;&gt;Node11 -->
<g id="edge14" class="edge">
<title>Node10&#45;&gt;Node11</title>
<path fill="none" stroke="midnightblue" d="M306.5,-56.08C306.5,-49.01 306.5,-38.86 306.5,-29.99"/>
<polygon fill="midnightblue" stroke="midnightblue" points="310,-29.75 306.5,-19.75 303,-29.75 310,-29.75"/>
</g>
</g>
</svg>
