<?xml version="1.0" encoding="UTF-8" standalone="no"?>
<!DOCTYPE svg PUBLIC "-//W3C//DTD SVG 1.1//EN"
 "http://www.w3.org/Graphics/SVG/1.1/DTD/svg11.dtd">
<!-- Generated by graphviz version 2.43.0 (0)
 -->
<!-- Title: library/lattice/c/include/tetengo/lattice/node.h Pages: 1 -->
<svg width="554pt" height="240pt"
 viewBox="0.00 0.00 554.49 240.00" xmlns="http://www.w3.org/2000/svg" xmlns:xlink="http://www.w3.org/1999/xlink">
<g id="graph0" class="graph" transform="scale(1 1) rotate(0) translate(4 236)">
<title>library/lattice/c/include/tetengo/lattice/node.h</title>
<polygon fill="white" stroke="transparent" points="-4,4 -4,-236 550.49,-236 550.49,4 -4,4"/>
<!-- Node1 -->
<g id="node1" class="node">
<title>Node1</title>
<g id="a_node1"><a xlink:title="A node.">
<polygon fill="#bfbfbf" stroke="black" points="190.49,-201.5 190.49,-231.5 318.49,-231.5 318.49,-201.5 190.49,-201.5"/>
<text text-anchor="start" x="198.49" y="-219.5" font-family="Helvetica,sans-Serif" font-size="10.00">library/lattice/c/include</text>
<text text-anchor="middle" x="254.49" y="-208.5" font-family="Helvetica,sans-Serif" font-size="10.00">/tetengo/lattice/node.h</text>
</a>
</g>
</g>
<!-- Node2 -->
<g id="node2" class="node">
<title>Node2</title>
<g id="a_node2"><a xlink:href="constraint_8h.html" target="_top" xlink:title="A constraint.">
<polygon fill="white" stroke="black" points="35.49,-67.5 35.49,-97.5 187.49,-97.5 187.49,-67.5 35.49,-67.5"/>
<text text-anchor="start" x="43.49" y="-85.5" font-family="Helvetica,sans-Serif" font-size="10.00">library/lattice/c/include</text>
<text text-anchor="middle" x="111.49" y="-74.5" font-family="Helvetica,sans-Serif" font-size="10.00">/tetengo/lattice/constraint.h</text>
</a>
</g>
</g>
<!-- Node1&#45;&gt;Node2 -->
<g id="edge1" class="edge">
<title>Node1&#45;&gt;Node2</title>
<path fill="none" stroke="midnightblue" d="M180.04,-210.51C115.15,-204.43 28.12,-191.49 6.49,-165 -16.65,-136.67 29.11,-112.18 67.33,-97.63"/>
<polygon fill="midnightblue" stroke="midnightblue" points="179.98,-214.02 190.25,-211.43 180.6,-207.05 179.98,-214.02"/>
</g>
<!-- Node3 -->
<g id="node3" class="node">
<title>Node3</title>
<g id="a_node3"><a xlink:href="nBestIterator_8h.html" target="_top" xlink:title="An N&#45;best lattice path iterator.">
<polygon fill="white" stroke="black" points="199.49,-0.5 199.49,-30.5 365.49,-30.5 365.49,-0.5 199.49,-0.5"/>
<text text-anchor="start" x="207.49" y="-18.5" font-family="Helvetica,sans-Serif" font-size="10.00">library/lattice/c/include</text>
<text text-anchor="middle" x="282.49" y="-7.5" font-family="Helvetica,sans-Serif" font-size="10.00">/tetengo/lattice/nBestIterator.h</text>
</a>
</g>
</g>
<!-- Node1&#45;&gt;Node3 -->
<g id="edge7" class="edge">
<title>Node1&#45;&gt;Node3</title>
<path fill="none" stroke="midnightblue" d="M250.79,-190.98C247.12,-161.15 243.49,-109.49 254.49,-67 257.9,-53.8 265.59,-40.37 272.05,-30.69"/>
<polygon fill="midnightblue" stroke="midnightblue" points="247.37,-191.83 252.16,-201.28 254.31,-190.91 247.37,-191.83"/>
</g>
<!-- Node4 -->
<g id="node4" class="node">
<title>Node4</title>
<g id="a_node4"><a xlink:href="constraintElement_8h.html" target="_top" xlink:title="A constraint element.">
<polygon fill="white" stroke="black" points="15.49,-134.5 15.49,-164.5 207.49,-164.5 207.49,-134.5 15.49,-134.5"/>
<text text-anchor="start" x="23.49" y="-152.5" font-family="Helvetica,sans-Serif" font-size="10.00">library/lattice/c/include</text>
<text text-anchor="middle" x="111.49" y="-141.5" font-family="Helvetica,sans-Serif" font-size="10.00">/tetengo/lattice/constraintElement.h</text>
</a>
</g>
</g>
<!-- Node1&#45;&gt;Node4 -->
<g id="edge3" class="edge">
<title>Node1&#45;&gt;Node4</title>
<path fill="none" stroke="midnightblue" d="M214.07,-197.13C191.35,-186.8 163.43,-174.11 142.45,-164.58"/>
<polygon fill="midnightblue" stroke="midnightblue" points="212.9,-200.44 223.46,-201.4 215.8,-194.07 212.9,-200.44"/>
</g>
<!-- Node5 -->
<g id="node5" class="node">
<title>Node5</title>
<g id="a_node5"><a xlink:href="lattice_8h.html" target="_top" xlink:title="A lattice.">
<polygon fill="white" stroke="black" points="263.49,-67.5 263.49,-97.5 397.49,-97.5 397.49,-67.5 263.49,-67.5"/>
<text text-anchor="start" x="271.49" y="-85.5" font-family="Helvetica,sans-Serif" font-size="10.00">library/lattice/c/include</text>
<text text-anchor="middle" x="330.49" y="-74.5" font-family="Helvetica,sans-Serif" font-size="10.00">/tetengo/lattice/lattice.h</text>
</a>
</g>
</g>
<!-- Node1&#45;&gt;Node5 -->
<g id="edge5" class="edge">
<title>Node1&#45;&gt;Node5</title>
<path fill="none" stroke="midnightblue" d="M263.9,-191.99C270.93,-175.34 281.24,-152.73 292.49,-134 300.28,-121.02 310.71,-107.36 318.67,-97.52"/>
<polygon fill="midnightblue" stroke="midnightblue" points="260.55,-190.92 259.96,-201.5 267.02,-193.6 260.55,-190.92"/>
</g>
<!-- Node6 -->
<g id="node6" class="node">
<title>Node6</title>
<g id="a_node6"><a xlink:href="path_8h.html" target="_top" xlink:title="A path.">
<polygon fill="white" stroke="black" points="418.49,-67.5 418.49,-97.5 546.49,-97.5 546.49,-67.5 418.49,-67.5"/>
<text text-anchor="start" x="426.49" y="-85.5" font-family="Helvetica,sans-Serif" font-size="10.00">library/lattice/c/include</text>
<text text-anchor="middle" x="482.49" y="-74.5" font-family="Helvetica,sans-Serif" font-size="10.00">/tetengo/lattice/path.h</text>
</a>
</g>
</g>
<!-- Node1&#45;&gt;Node6 -->
<g id="edge8" class="edge">
<title>Node1&#45;&gt;Node6</title>
<path fill="none" stroke="midnightblue" d="M328.61,-206.43C381.86,-198.38 447.46,-184.8 466.49,-165 483.87,-146.91 485.01,-115.76 483.96,-97.66"/>
<polygon fill="midnightblue" stroke="midnightblue" points="327.87,-203 318.49,-207.92 328.89,-209.93 327.87,-203"/>
</g>
<!-- Node7 -->
<g id="node7" class="node">
<title>Node7</title>
<g id="a_node7"><a xlink:href="vocabulary_8h.html" target="_top" xlink:title="A vocabulary.">
<polygon fill="white" stroke="black" points="301.99,-134.5 301.99,-164.5 456.99,-164.5 456.99,-134.5 301.99,-134.5"/>
<text text-anchor="start" x="309.99" y="-152.5" font-family="Helvetica,sans-Serif" font-size="10.00">library/lattice/c/include</text>
<text text-anchor="middle" x="379.49" y="-141.5" font-family="Helvetica,sans-Serif" font-size="10.00">/tetengo/lattice/vocabulary.h</text>
</a>
</g>
</g>
<!-- Node1&#45;&gt;Node7 -->
<g id="edge10" class="edge">
<title>Node1&#45;&gt;Node7</title>
<path fill="none" stroke="midnightblue" d="M290.61,-196.71C310.33,-186.46 334.33,-173.98 352.41,-164.58"/>
<polygon fill="midnightblue" stroke="midnightblue" points="288.87,-193.68 281.61,-201.4 292.1,-199.89 288.87,-193.68"/>
</g>
<!-- Node2&#45;&gt;Node3 -->
<g id="edge2" class="edge">
<title>Node2&#45;&gt;Node3</title>
<path fill="none" stroke="midnightblue" d="M158,-63.82C185.49,-53.37 219.81,-40.32 245.45,-30.58"/>
<polygon fill="midnightblue" stroke="midnightblue" points="156.69,-60.57 148.59,-67.4 159.18,-67.11 156.69,-60.57"/>
</g>
<!-- Node4&#45;&gt;Node2 -->
<g id="edge4" class="edge">
<title>Node4&#45;&gt;Node2</title>
<path fill="none" stroke="midnightblue" d="M111.49,-124.11C111.49,-115.15 111.49,-105.32 111.49,-97.58"/>
<polygon fill="midnightblue" stroke="midnightblue" points="107.99,-124.4 111.49,-134.4 114.99,-124.4 107.99,-124.4"/>
</g>
<!-- Node5&#45;&gt;Node3 -->
<g id="edge6" class="edge">
<title>Node5&#45;&gt;Node3</title>
<path fill="none" stroke="midnightblue" d="M313.99,-59.16C306.99,-49.68 299.04,-38.92 292.88,-30.58"/>
<polygon fill="midnightblue" stroke="midnightblue" points="311.31,-61.43 320.07,-67.4 316.94,-57.27 311.31,-61.43"/>
</g>
<!-- Node6&#45;&gt;Node3 -->
<g id="edge9" class="edge">
<title>Node6&#45;&gt;Node3</title>
<path fill="none" stroke="midnightblue" d="M429.34,-64.23C396.99,-53.71 356.18,-40.45 325.8,-30.58"/>
<polygon fill="midnightblue" stroke="midnightblue" points="428.5,-67.63 439.09,-67.4 430.66,-60.98 428.5,-67.63"/>
</g>
<!-- Node7&#45;&gt;Node5 -->
<g id="edge11" class="edge">
<title>Node7&#45;&gt;Node5</title>
<path fill="none" stroke="midnightblue" d="M362.64,-126.16C355.5,-116.68 347.39,-105.92 341.1,-97.58"/>
<polygon fill="midnightblue" stroke="midnightblue" points="360.04,-128.52 368.85,-134.4 365.63,-124.3 360.04,-128.52"/>
</g>
</g>
</svg>
