<?xml version="1.0" encoding="UTF-8" standalone="no"?>
<!DOCTYPE svg PUBLIC "-//W3C//DTD SVG 1.1//EN"
 "http://www.w3.org/Graphics/SVG/1.1/DTD/svg11.dtd">
<!-- Generated by graphviz version 2.43.0 (0)
 -->
<!-- Title: library/lattice/c/include/tetengo/lattice/node.h Pages: 1 -->
<svg width="554pt" height="236pt"
 viewBox="0.00 0.00 554.42 236.00" xmlns="http://www.w3.org/2000/svg" xmlns:xlink="http://www.w3.org/1999/xlink">
<g id="graph0" class="graph" transform="scale(1 1) rotate(0) translate(4 232)">
<title>library/lattice/c/include/tetengo/lattice/node.h</title>
<!-- Node1 -->
<g id="Node000001" class="node">
<title>Node1</title>
<g id="a_Node000001"><a xlink:title="A node.">
<polygon fill="#999999" stroke="#666666" points="318.42,-228 190.42,-228 190.42,-198 318.42,-198 318.42,-228"/>
<text text-anchor="start" x="198.42" y="-216" font-family="Helvetica,sans-Serif" font-size="10.00">library/lattice/c/include</text>
<text text-anchor="middle" x="254.42" y="-205" font-family="Helvetica,sans-Serif" font-size="10.00">/tetengo/lattice/node.h</text>
</a>
</g>
</g>
<!-- Node2 -->
<g id="Node000002" class="node">
<title>Node2</title>
<g id="a_Node000002"><a xlink:href="constraint_8h.html" target="_top" xlink:title="A constraint.">
<polygon fill="white" stroke="#666666" points="187.42,-96 35.42,-96 35.42,-66 187.42,-66 187.42,-96"/>
<text text-anchor="start" x="43.42" y="-84" font-family="Helvetica,sans-Serif" font-size="10.00">library/lattice/c/include</text>
<text text-anchor="middle" x="111.42" y="-73" font-family="Helvetica,sans-Serif" font-size="10.00">/tetengo/lattice/constraint.h</text>
</a>
</g>
</g>
<!-- Node1&#45;&gt;Node2 -->
<g id="edge1_Node000001_Node000002" class="edge">
<title>Node1&#45;&gt;Node2</title>
<g id="a_edge1_Node000001_Node000002"><a xlink:title=" ">
<path fill="none" stroke="#63b8ff" d="M179.98,-207.17C115.1,-201.22 28.07,-188.46 6.42,-162 -16.44,-134.07 28.57,-110.22 66.59,-96.01"/>
<polygon fill="#63b8ff" stroke="#63b8ff" points="179.92,-210.68 190.19,-208.07 180.54,-203.71 179.92,-210.68"/>
</a>
</g>
</g>
<!-- Node3 -->
<g id="Node000003" class="node">
<title>Node3</title>
<g id="a_Node000003"><a xlink:href="nBestIterator_8h.html" target="_top" xlink:title="An N&#45;best lattice path iterator.">
<polygon fill="white" stroke="#666666" points="365.42,-30 199.42,-30 199.42,0 365.42,0 365.42,-30"/>
<text text-anchor="start" x="207.42" y="-18" font-family="Helvetica,sans-Serif" font-size="10.00">library/lattice/c/include</text>
<text text-anchor="middle" x="282.42" y="-7" font-family="Helvetica,sans-Serif" font-size="10.00">/tetengo/lattice/nBestIterator.h</text>
</a>
</g>
</g>
<!-- Node1&#45;&gt;Node3 -->
<g id="edge7_Node000001_Node000003" class="edge">
<title>Node1&#45;&gt;Node3</title>
<g id="a_edge7_Node000001_Node000003"><a xlink:title=" ">
<path fill="none" stroke="#63b8ff" d="M250.7,-187.43C247.08,-158.02 243.58,-107.54 254.42,-66 257.84,-52.91 265.53,-39.61 271.98,-30.03"/>
<polygon fill="#63b8ff" stroke="#63b8ff" points="247.26,-188.15 252.06,-197.6 254.2,-187.23 247.26,-188.15"/>
</a>
</g>
</g>
<!-- Node4 -->
<g id="Node000004" class="node">
<title>Node4</title>
<g id="a_Node000004"><a xlink:href="constraintElement_8h.html" target="_top" xlink:title="A constraint element.">
<polygon fill="white" stroke="#666666" points="207.42,-162 15.42,-162 15.42,-132 207.42,-132 207.42,-162"/>
<text text-anchor="start" x="23.42" y="-150" font-family="Helvetica,sans-Serif" font-size="10.00">library/lattice/c/include</text>
<text text-anchor="middle" x="111.42" y="-139" font-family="Helvetica,sans-Serif" font-size="10.00">/tetengo/lattice/constraintElement.h</text>
</a>
</g>
</g>
<!-- Node1&#45;&gt;Node4 -->
<g id="edge3_Node000001_Node000004" class="edge">
<title>Node1&#45;&gt;Node4</title>
<g id="a_edge3_Node000001_Node000004"><a xlink:title=" ">
<path fill="none" stroke="#63b8ff" d="M213.72,-193.78C191.17,-183.69 163.58,-171.34 142.73,-162.01"/>
<polygon fill="#63b8ff" stroke="#63b8ff" points="212.48,-197.06 223.04,-197.95 215.34,-190.68 212.48,-197.06"/>
</a>
</g>
</g>
<!-- Node5 -->
<g id="Node000005" class="node">
<title>Node5</title>
<g id="a_Node000005"><a xlink:href="lattice_8h.html" target="_top" xlink:title="A lattice.">
<polygon fill="white" stroke="#666666" points="397.42,-96 263.42,-96 263.42,-66 397.42,-66 397.42,-96"/>
<text text-anchor="start" x="271.42" y="-84" font-family="Helvetica,sans-Serif" font-size="10.00">library/lattice/c/include</text>
<text text-anchor="middle" x="330.42" y="-73" font-family="Helvetica,sans-Serif" font-size="10.00">/tetengo/lattice/lattice.h</text>
</a>
</g>
</g>
<!-- Node1&#45;&gt;Node5 -->
<g id="edge5_Node000001_Node000005" class="edge">
<title>Node1&#45;&gt;Node5</title>
<g id="a_edge5_Node000001_Node000005"><a xlink:title=" ">
<path fill="none" stroke="#63b8ff" d="M264,-188.63C271.04,-172.31 281.3,-150.27 292.42,-132 300.13,-119.33 310.37,-106.01 318.28,-96.31"/>
<polygon fill="#63b8ff" stroke="#63b8ff" points="260.72,-187.39 260.04,-197.96 267.17,-190.12 260.72,-187.39"/>
</a>
</g>
</g>
<!-- Node6 -->
<g id="Node000006" class="node">
<title>Node6</title>
<g id="a_Node000006"><a xlink:href="path_8h.html" target="_top" xlink:title="A path.">
<polygon fill="white" stroke="#666666" points="546.42,-96 418.42,-96 418.42,-66 546.42,-66 546.42,-96"/>
<text text-anchor="start" x="426.42" y="-84" font-family="Helvetica,sans-Serif" font-size="10.00">library/lattice/c/include</text>
<text text-anchor="middle" x="482.42" y="-73" font-family="Helvetica,sans-Serif" font-size="10.00">/tetengo/lattice/path.h</text>
</a>
</g>
</g>
<!-- Node1&#45;&gt;Node6 -->
<g id="edge8_Node000001_Node000006" class="edge">
<title>Node1&#45;&gt;Node6</title>
<g id="a_edge8_Node000001_Node000006"><a xlink:title=" ">
<path fill="none" stroke="#63b8ff" d="M328.78,-203.06C381.97,-195.12 447.38,-181.7 466.42,-162 483.45,-144.38 484.77,-114.04 483.84,-96.22"/>
<polygon fill="#63b8ff" stroke="#63b8ff" points="328.06,-199.62 318.67,-204.52 329.06,-206.55 328.06,-199.62"/>
</a>
</g>
</g>
<!-- Node7 -->
<g id="Node000007" class="node">
<title>Node7</title>
<g id="a_Node000007"><a xlink:href="vocabulary_8h.html" target="_top" xlink:title="A vocabulary.">
<polygon fill="white" stroke="#666666" points="456.92,-162 301.92,-162 301.92,-132 456.92,-132 456.92,-162"/>
<text text-anchor="start" x="309.92" y="-150" font-family="Helvetica,sans-Serif" font-size="10.00">library/lattice/c/include</text>
<text text-anchor="middle" x="379.42" y="-139" font-family="Helvetica,sans-Serif" font-size="10.00">/tetengo/lattice/vocabulary.h</text>
</a>
</g>
</g>
<!-- Node1&#45;&gt;Node7 -->
<g id="edge10_Node000001_Node000007" class="edge">
<title>Node1&#45;&gt;Node7</title>
<g id="a_edge10_Node000001_Node000007"><a xlink:title=" ">
<path fill="none" stroke="#63b8ff" d="M290.79,-193.38C310.35,-183.36 334.07,-171.22 352.05,-162.01"/>
<polygon fill="#63b8ff" stroke="#63b8ff" points="289.16,-190.28 281.85,-197.95 292.35,-196.51 289.16,-190.28"/>
</a>
</g>
</g>
<!-- Node2&#45;&gt;Node3 -->
<g id="edge2_Node000002_Node000003" class="edge">
<title>Node2&#45;&gt;Node3</title>
<g id="a_edge2_Node000002_Node000003"><a xlink:title=" ">
<path fill="none" stroke="#63b8ff" d="M158.65,-62.32C185.87,-52.14 219.61,-39.51 244.98,-30.01"/>
<polygon fill="#63b8ff" stroke="#63b8ff" points="157.09,-59.17 148.95,-65.95 159.54,-65.73 157.09,-59.17"/>
</a>
</g>
</g>
<!-- Node4&#45;&gt;Node2 -->
<g id="edge4_Node000004_Node000002" class="edge">
<title>Node4&#45;&gt;Node2</title>
<g id="a_edge4_Node000004_Node000002"><a xlink:title=" ">
<path fill="none" stroke="#63b8ff" d="M111.42,-121.54C111.42,-112.96 111.42,-103.61 111.42,-96.16"/>
<polygon fill="#63b8ff" stroke="#63b8ff" points="107.92,-121.8 111.42,-131.8 114.92,-121.8 107.92,-121.8"/>
</a>
</g>
</g>
<!-- Node5&#45;&gt;Node3 -->
<g id="edge6_Node000005_Node000003" class="edge">
<title>Node5&#45;&gt;Node3</title>
<g id="a_edge6_Node000005_Node000003"><a xlink:title=" ">
<path fill="none" stroke="#63b8ff" d="M313.57,-57.53C306.74,-48.43 299.07,-38.19 293.04,-30.16"/>
<polygon fill="#63b8ff" stroke="#63b8ff" points="310.97,-59.9 319.77,-65.8 316.57,-55.7 310.97,-59.9"/>
</a>
</g>
</g>
<!-- Node6&#45;&gt;Node3 -->
<g id="edge9_Node000006_Node000003" class="edge">
<title>Node6&#45;&gt;Node3</title>
<g id="a_edge9_Node000006_Node000003"><a xlink:title=" ">
<path fill="none" stroke="#63b8ff" d="M428.85,-62.86C396.73,-52.58 356.41,-39.68 326.21,-30.01"/>
<polygon fill="#63b8ff" stroke="#63b8ff" points="427.94,-66.24 438.53,-65.95 430.07,-59.57 427.94,-66.24"/>
</a>
</g>
</g>
<!-- Node7&#45;&gt;Node5 -->
<g id="edge11_Node000007_Node000005" class="edge">
<title>Node7&#45;&gt;Node5</title>
<g id="a_edge11_Node000007_Node000005"><a xlink:title=" ">
<path fill="none" stroke="#63b8ff" d="M362.43,-123.81C355.41,-114.64 347.48,-104.28 341.27,-96.16"/>
<polygon fill="#63b8ff" stroke="#63b8ff" points="359.69,-125.98 368.55,-131.8 365.25,-121.73 359.69,-125.98"/>
</a>
</g>
</g>
</g>
</svg>
