<?xml version="1.0" encoding="UTF-8" standalone="no"?>
<!DOCTYPE svg PUBLIC "-//W3C//DTD SVG 1.1//EN"
 "http://www.w3.org/Graphics/SVG/1.1/DTD/svg11.dtd">
<!-- Generated by graphviz version 2.43.0 (0)
 -->
<!-- Title: library/lattice/cpp/include/tetengo/lattice/node.hpp Pages: 1 -->
<svg width="184pt" height="206pt"
 viewBox="0.00 0.00 184.00 206.00" xmlns="http://www.w3.org/2000/svg" xmlns:xlink="http://www.w3.org/1999/xlink">
<g id="graph0" class="graph" transform="scale(1 1) rotate(0) translate(4 202)">
<title>library/lattice/cpp/include/tetengo/lattice/node.hpp</title>
<polygon fill="white" stroke="transparent" points="-4,4 -4,-202 180,-202 180,4 -4,4"/>
<!-- Node1 -->
<g id="node1" class="node">
<title>Node1</title>
<g id="a_node1"><a xlink:title="A node.">
<polygon fill="#bfbfbf" stroke="black" points="0,-156.5 0,-197.5 129,-197.5 129,-156.5 0,-156.5"/>
<text text-anchor="start" x="8" y="-185.5" font-family="Helvetica,sans-Serif" font-size="10.00">library/lattice/cpp</text>
<text text-anchor="start" x="8" y="-174.5" font-family="Helvetica,sans-Serif" font-size="10.00">/include/tetengo/lattice</text>
<text text-anchor="middle" x="64.5" y="-163.5" font-family="Helvetica,sans-Serif" font-size="10.00">/node.hpp</text>
</a>
</g>
</g>
<!-- Node2 -->
<g id="node2" class="node">
<title>Node2</title>
<g id="a_node2"><a xlink:href="n__best__iterator_8hpp.html" target="_top" xlink:title="An N&#45;best lattice path iterator.">
<polygon fill="white" stroke="black" points="0,-0.5 0,-41.5 129,-41.5 129,-0.5 0,-0.5"/>
<text text-anchor="start" x="8" y="-29.5" font-family="Helvetica,sans-Serif" font-size="10.00">library/lattice/cpp</text>
<text text-anchor="start" x="8" y="-18.5" font-family="Helvetica,sans-Serif" font-size="10.00">/include/tetengo/lattice</text>
<text text-anchor="middle" x="64.5" y="-7.5" font-family="Helvetica,sans-Serif" font-size="10.00">/n_best_iterator.hpp</text>
</a>
</g>
</g>
<!-- Node1&#45;&gt;Node2 -->
<g id="edge1" class="edge">
<title>Node1&#45;&gt;Node2</title>
<path fill="none" stroke="midnightblue" d="M47.6,-147.24C43.46,-138.75 39.61,-129.25 37.5,-120 33.34,-101.8 33.34,-96.2 37.5,-78 40.41,-65.27 46.6,-52.06 52.32,-41.67"/>
<polygon fill="midnightblue" stroke="midnightblue" points="44.6,-149.07 52.32,-156.33 50.82,-145.84 44.6,-149.07"/>
</g>
<!-- Node3 -->
<g id="node3" class="node">
<title>Node3</title>
<g id="a_node3"><a xlink:href="path_8hpp.html" target="_top" xlink:title="A path.">
<polygon fill="white" stroke="black" points="47,-78.5 47,-119.5 176,-119.5 176,-78.5 47,-78.5"/>
<text text-anchor="start" x="55" y="-107.5" font-family="Helvetica,sans-Serif" font-size="10.00">library/lattice/cpp</text>
<text text-anchor="start" x="55" y="-96.5" font-family="Helvetica,sans-Serif" font-size="10.00">/include/tetengo/lattice</text>
<text text-anchor="middle" x="111.5" y="-85.5" font-family="Helvetica,sans-Serif" font-size="10.00">/path.hpp</text>
</a>
</g>
</g>
<!-- Node1&#45;&gt;Node3 -->
<g id="edge2" class="edge">
<title>Node1&#45;&gt;Node3</title>
<path fill="none" stroke="midnightblue" d="M81.97,-147.76C87.78,-138.35 94.12,-128.1 99.44,-119.51"/>
<polygon fill="midnightblue" stroke="midnightblue" points="78.89,-146.08 76.6,-156.43 84.84,-149.76 78.89,-146.08"/>
</g>
<!-- Node3&#45;&gt;Node2 -->
<g id="edge3" class="edge">
<title>Node3&#45;&gt;Node2</title>
<path fill="none" stroke="midnightblue" d="M94.03,-69.76C88.22,-60.35 81.88,-50.1 76.56,-41.51"/>
<polygon fill="midnightblue" stroke="midnightblue" points="91.16,-71.76 99.4,-78.43 97.11,-68.08 91.16,-71.76"/>
</g>
</g>
</svg>
