<?xml version="1.0" encoding="UTF-8" standalone="no"?>
<!DOCTYPE svg PUBLIC "-//W3C//DTD SVG 1.1//EN"
 "http://www.w3.org/Graphics/SVG/1.1/DTD/svg11.dtd">
<!-- Generated by graphviz version 2.43.0 (0)
 -->
<!-- Title: library/lattice/cpp/include/tetengo/lattice/node_constraint_element.hpp Pages: 1 -->
<svg width="231pt" height="170pt"
 viewBox="0.00 0.00 231.00 170.00" xmlns="http://www.w3.org/2000/svg" xmlns:xlink="http://www.w3.org/1999/xlink">
<g id="graph0" class="graph" transform="scale(1 1) rotate(0) translate(4 166)">
<title>library/lattice/cpp/include/tetengo/lattice/node_constraint_element.hpp</title>
<!-- Node1 -->
<g id="node1" class="node">
<title>Node1</title>
<g id="a_node1"><a xlink:title="A node constraint element.">
<polygon fill="#999999" stroke="#666666" points="169,-162 5,-162 5,-121 169,-121 169,-162"/>
<text text-anchor="start" x="13" y="-150" font-family="Helvetica,sans-Serif" font-size="10.00">library/lattice/cpp</text>
<text text-anchor="start" x="13" y="-139" font-family="Helvetica,sans-Serif" font-size="10.00">/include/tetengo/lattice</text>
<text text-anchor="middle" x="87" y="-128" font-family="Helvetica,sans-Serif" font-size="10.00">/node_constraint_element.hpp</text>
</a>
</g>
</g>
<!-- Node2 -->
<g id="node2" class="node">
<title>Node2</title>
<g id="a_node2"><a xlink:title=" ">
<polygon fill="#e0e0e0" stroke="#999999" points="58,-79.5 0,-79.5 0,-60.5 58,-60.5 58,-79.5"/>
<text text-anchor="middle" x="29" y="-67.5" font-family="Helvetica,sans-Serif" font-size="10.00">memory</text>
</a>
</g>
</g>
<!-- Node1&#45;&gt;Node2 -->
<g id="edge1" class="edge">
<title>Node1&#45;&gt;Node2</title>
<path fill="none" stroke="#63b8ff" d="M70.53,-120.77C61.83,-110.34 51.26,-97.68 42.96,-87.73"/>
<polygon fill="#63b8ff" stroke="#63b8ff" points="45.45,-85.25 36.36,-79.82 40.08,-89.74 45.45,-85.25"/>
</g>
<!-- Node3 -->
<g id="node3" class="node">
<title>Node3</title>
<g id="a_node3"><a xlink:href="constraint__element_8hpp.html" target="_top" xlink:title="A constraint element.">
<polygon fill="white" stroke="#666666" points="216,-85 76,-85 76,-55 216,-55 216,-85"/>
<text text-anchor="start" x="84" y="-73" font-family="Helvetica,sans-Serif" font-size="10.00">tetengo/lattice/constraint</text>
<text text-anchor="middle" x="146" y="-62" font-family="Helvetica,sans-Serif" font-size="10.00">_element.hpp</text>
</a>
</g>
</g>
<!-- Node1&#45;&gt;Node3 -->
<g id="edge2" class="edge">
<title>Node1&#45;&gt;Node3</title>
<path fill="none" stroke="#63b8ff" d="M103.75,-120.77C111.16,-112.04 119.89,-101.75 127.49,-92.8"/>
<polygon fill="#63b8ff" stroke="#63b8ff" points="130.28,-94.93 134.08,-85.04 124.94,-90.4 130.28,-94.93"/>
</g>
<!-- Node4 -->
<g id="node4" class="node">
<title>Node4</title>
<g id="a_node4"><a xlink:title=" ">
<polygon fill="#e0e0e0" stroke="#999999" points="223,-19 69,-19 69,0 223,0 223,-19"/>
<text text-anchor="middle" x="146" y="-7" font-family="Helvetica,sans-Serif" font-size="10.00">boost/core/noncopyable.hpp</text>
</a>
</g>
</g>
<!-- Node3&#45;&gt;Node4 -->
<g id="edge3" class="edge">
<title>Node3&#45;&gt;Node4</title>
<path fill="none" stroke="#63b8ff" d="M146,-54.84C146,-47.21 146,-37.7 146,-29.45"/>
<polygon fill="#63b8ff" stroke="#63b8ff" points="149.5,-29.27 146,-19.27 142.5,-29.27 149.5,-29.27"/>
</g>
</g>
</svg>
