<?xml version="1.0" encoding="UTF-8" standalone="no"?>
<!DOCTYPE svg PUBLIC "-//W3C//DTD SVG 1.1//EN"
 "http://www.w3.org/Graphics/SVG/1.1/DTD/svg11.dtd">
<!-- Generated by graphviz version 2.43.0 (0)
 -->
<!-- Title: library/lattice/c/include/tetengo/lattice/path.h Pages: 1 -->
<svg width="428pt" height="263pt"
 viewBox="0.00 0.00 428.17 263.00" xmlns="http://www.w3.org/2000/svg" xmlns:xlink="http://www.w3.org/1999/xlink">
<g id="graph0" class="graph" transform="scale(1 1) rotate(0) translate(4 259)">
<title>library/lattice/c/include/tetengo/lattice/path.h</title>
<polygon fill="white" stroke="transparent" points="-4,4 -4,-259 424.17,-259 424.17,4 -4,4"/>
<!-- Node1 -->
<g id="node1" class="node">
<title>Node1</title>
<g id="a_node1"><a xlink:title="A path.">
<polygon fill="#bfbfbf" stroke="black" points="149,-224.5 149,-254.5 277,-254.5 277,-224.5 149,-224.5"/>
<text text-anchor="start" x="157" y="-242.5" font-family="Helvetica,sans-Serif" font-size="10.00">library/lattice/c/include</text>
<text text-anchor="middle" x="213" y="-231.5" font-family="Helvetica,sans-Serif" font-size="10.00">/tetengo/lattice/path.h</text>
</a>
</g>
</g>
<!-- Node2 -->
<g id="node2" class="node">
<title>Node2</title>
<g id="a_node2"><a xlink:title=" ">
<polygon fill="white" stroke="#bfbfbf" points="0,-0.5 0,-19.5 62,-19.5 62,-0.5 0,-0.5"/>
<text text-anchor="middle" x="31" y="-7.5" font-family="Helvetica,sans-Serif" font-size="10.00">stdbool.h</text>
</a>
</g>
</g>
<!-- Node1&#45;&gt;Node2 -->
<g id="edge1" class="edge">
<title>Node1&#45;&gt;Node2</title>
<path fill="none" stroke="midnightblue" d="M186.44,-224.42C144.61,-200.5 65.16,-147.45 36,-76 30.05,-61.41 29.09,-43.47 29.45,-30.13"/>
<polygon fill="midnightblue" stroke="midnightblue" points="32.97,-29.98 30.02,-19.8 25.98,-29.59 32.97,-29.98"/>
</g>
<!-- Node3 -->
<g id="node3" class="node">
<title>Node3</title>
<g id="a_node3"><a xlink:title=" ">
<polygon fill="white" stroke="#bfbfbf" points="289,-0.5 289,-19.5 345,-19.5 345,-0.5 289,-0.5"/>
<text text-anchor="middle" x="317" y="-7.5" font-family="Helvetica,sans-Serif" font-size="10.00">stddef.h</text>
</a>
</g>
</g>
<!-- Node1&#45;&gt;Node3 -->
<g id="edge2" class="edge">
<title>Node1&#45;&gt;Node3</title>
<path fill="none" stroke="midnightblue" d="M248.47,-224.47C299.09,-202.08 389.04,-152.8 417,-76 420.04,-67.65 421.83,-63.46 417,-56 403.37,-34.93 377.27,-23.62 355.15,-17.62"/>
<polygon fill="midnightblue" stroke="midnightblue" points="355.87,-14.19 345.32,-15.21 354.2,-20.99 355.87,-14.19"/>
</g>
<!-- Node4 -->
<g id="node4" class="node">
<title>Node4</title>
<g id="a_node4"><a xlink:href="node_8h.html" target="_top" xlink:title="A node.">
<polygon fill="white" stroke="black" points="151,-168.5 151,-187.5 275,-187.5 275,-168.5 151,-168.5"/>
<text text-anchor="middle" x="213" y="-175.5" font-family="Helvetica,sans-Serif" font-size="10.00">tetengo/lattice/node.h</text>
</a>
</g>
</g>
<!-- Node1&#45;&gt;Node4 -->
<g id="edge3" class="edge">
<title>Node1&#45;&gt;Node4</title>
<path fill="none" stroke="midnightblue" d="M213,-224.4C213,-216.47 213,-206.46 213,-197.86"/>
<polygon fill="midnightblue" stroke="midnightblue" points="216.5,-197.66 213,-187.66 209.5,-197.66 216.5,-197.66"/>
</g>
<!-- Node4&#45;&gt;Node2 -->
<g id="edge4" class="edge">
<title>Node4&#45;&gt;Node2</title>
<path fill="none" stroke="midnightblue" d="M188.62,-168.42C152.86,-154.59 86.48,-123.96 50,-76 39.78,-62.56 35.05,-43.75 32.86,-29.81"/>
<polygon fill="midnightblue" stroke="midnightblue" points="36.33,-29.36 31.6,-19.88 29.39,-30.25 36.33,-29.36"/>
</g>
<!-- Node4&#45;&gt;Node3 -->
<g id="edge5" class="edge">
<title>Node4&#45;&gt;Node3</title>
<path fill="none" stroke="midnightblue" d="M253.25,-168.41C298.51,-156.35 369.86,-129.61 402,-76 416.55,-51.74 383.71,-33.34 354.71,-22.41"/>
<polygon fill="midnightblue" stroke="midnightblue" points="355.7,-19.05 345.1,-19 353.35,-25.64 355.7,-19.05"/>
</g>
<!-- Node5 -->
<g id="node5" class="node">
<title>Node5</title>
<g id="a_node5"><a xlink:href="entry_8h.html" target="_top" xlink:title="An entry.">
<polygon fill="white" stroke="black" points="151,-112.5 151,-131.5 275,-131.5 275,-112.5 151,-112.5"/>
<text text-anchor="middle" x="213" y="-119.5" font-family="Helvetica,sans-Serif" font-size="10.00">tetengo/lattice/entry.h</text>
</a>
</g>
</g>
<!-- Node4&#45;&gt;Node5 -->
<g id="edge6" class="edge">
<title>Node4&#45;&gt;Node5</title>
<path fill="none" stroke="midnightblue" d="M213,-168.08C213,-161.01 213,-150.86 213,-141.99"/>
<polygon fill="midnightblue" stroke="midnightblue" points="216.5,-141.75 213,-131.75 209.5,-141.75 216.5,-141.75"/>
</g>
<!-- Node5&#45;&gt;Node3 -->
<g id="edge7" class="edge">
<title>Node5&#45;&gt;Node3</title>
<path fill="none" stroke="midnightblue" d="M213.42,-112.45C214.49,-99.01 218.33,-72.76 232,-56 244.17,-41.07 262.64,-30.46 279.25,-23.31"/>
<polygon fill="midnightblue" stroke="midnightblue" points="280.78,-26.46 288.75,-19.49 278.17,-19.97 280.78,-26.46"/>
</g>
<!-- Node6 -->
<g id="node6" class="node">
<title>Node6</title>
<g id="a_node6"><a xlink:href="input_8h.html" target="_top" xlink:title="An input.">
<polygon fill="white" stroke="black" points="59.5,-56.5 59.5,-75.5 184.5,-75.5 184.5,-56.5 59.5,-56.5"/>
<text text-anchor="middle" x="122" y="-63.5" font-family="Helvetica,sans-Serif" font-size="10.00">tetengo/lattice/input.h</text>
</a>
</g>
</g>
<!-- Node5&#45;&gt;Node6 -->
<g id="edge8" class="edge">
<title>Node5&#45;&gt;Node6</title>
<path fill="none" stroke="midnightblue" d="M198.38,-112.32C184.05,-103.82 161.99,-90.73 145.25,-80.8"/>
<polygon fill="midnightblue" stroke="midnightblue" points="146.97,-77.75 136.58,-75.65 143.4,-83.77 146.97,-77.75"/>
</g>
<!-- Node7 -->
<g id="node7" class="node">
<title>Node7</title>
<g id="a_node7"><a xlink:href="stringView_8h.html" target="_top" xlink:title="A string view.">
<polygon fill="white" stroke="black" points="241.5,-56.5 241.5,-75.5 392.5,-75.5 392.5,-56.5 241.5,-56.5"/>
<text text-anchor="middle" x="317" y="-63.5" font-family="Helvetica,sans-Serif" font-size="10.00">tetengo/lattice/stringView.h</text>
</a>
</g>
</g>
<!-- Node5&#45;&gt;Node7 -->
<g id="edge11" class="edge">
<title>Node5&#45;&gt;Node7</title>
<path fill="none" stroke="midnightblue" d="M229.71,-112.32C246.31,-103.7 272,-90.36 291.22,-80.39"/>
<polygon fill="midnightblue" stroke="midnightblue" points="293.07,-83.37 300.33,-75.65 289.84,-77.16 293.07,-83.37"/>
</g>
<!-- Node6&#45;&gt;Node2 -->
<g id="edge9" class="edge">
<title>Node6&#45;&gt;Node2</title>
<path fill="none" stroke="midnightblue" d="M107.38,-56.32C93.05,-47.82 70.99,-34.73 54.25,-24.8"/>
<polygon fill="midnightblue" stroke="midnightblue" points="55.97,-21.75 45.58,-19.65 52.4,-27.77 55.97,-21.75"/>
</g>
<!-- Node6&#45;&gt;Node3 -->
<g id="edge10" class="edge">
<title>Node6&#45;&gt;Node3</title>
<path fill="none" stroke="midnightblue" d="M152.9,-56.44C187.06,-46.98 242.11,-31.74 278.92,-21.55"/>
<polygon fill="midnightblue" stroke="midnightblue" points="280.08,-24.86 288.78,-18.82 278.21,-18.11 280.08,-24.86"/>
</g>
<!-- Node7&#45;&gt;Node3 -->
<g id="edge12" class="edge">
<title>Node7&#45;&gt;Node3</title>
<path fill="none" stroke="midnightblue" d="M317,-56.08C317,-49.01 317,-38.86 317,-29.99"/>
<polygon fill="midnightblue" stroke="midnightblue" points="320.5,-29.75 317,-19.75 313.5,-29.75 320.5,-29.75"/>
</g>
</g>
</svg>
