<?xml version="1.0" encoding="UTF-8" standalone="no"?>
<!DOCTYPE svg PUBLIC "-//W3C//DTD SVG 1.1//EN"
 "http://www.w3.org/Graphics/SVG/1.1/DTD/svg11.dtd">
<!-- Generated by graphviz version 2.43.0 (0)
 -->
<!-- Title: library/lattice/c/include/tetengo/lattice/path.h Pages: 1 -->
<svg width="427pt" height="258pt"
 viewBox="0.00 0.00 426.92 258.00" xmlns="http://www.w3.org/2000/svg" xmlns:xlink="http://www.w3.org/1999/xlink">
<g id="graph0" class="graph" transform="scale(1 1) rotate(0) translate(4 254)">
<title>library/lattice/c/include/tetengo/lattice/path.h</title>
<!-- Node1 -->
<g id="node1" class="node">
<title>Node1</title>
<g id="a_node1"><a xlink:title="A path.">
<polygon fill="#999999" stroke="#666666" points="277,-250 149,-250 149,-220 277,-220 277,-250"/>
<text text-anchor="start" x="157" y="-238" font-family="Helvetica,sans-Serif" font-size="10.00">library/lattice/c/include</text>
<text text-anchor="middle" x="213" y="-227" font-family="Helvetica,sans-Serif" font-size="10.00">/tetengo/lattice/path.h</text>
</a>
</g>
</g>
<!-- Node2 -->
<g id="node2" class="node">
<title>Node2</title>
<g id="a_node2"><a xlink:title=" ">
<polygon fill="#e0e0e0" stroke="#999999" points="62,-19 0,-19 0,0 62,0 62,-19"/>
<text text-anchor="middle" x="31" y="-7" font-family="Helvetica,sans-Serif" font-size="10.00">stdbool.h</text>
</a>
</g>
</g>
<!-- Node1&#45;&gt;Node2 -->
<g id="edge1" class="edge">
<title>Node1&#45;&gt;Node2</title>
<path fill="none" stroke="#63b8ff" d="M186.35,-219.98C144.81,-196.38 66.34,-144.31 37,-74 31.06,-59.77 29.81,-42.24 29.9,-29.2"/>
<polygon fill="#63b8ff" stroke="#63b8ff" points="33.4,-29.22 30.24,-19.1 26.41,-28.98 33.4,-29.22"/>
</g>
<!-- Node3 -->
<g id="node3" class="node">
<title>Node3</title>
<g id="a_node3"><a xlink:title=" ">
<polygon fill="#e0e0e0" stroke="#999999" points="345,-19 289,-19 289,0 345,0 345,-19"/>
<text text-anchor="middle" x="317" y="-7" font-family="Helvetica,sans-Serif" font-size="10.00">stddef.h</text>
</a>
</g>
</g>
<!-- Node1&#45;&gt;Node3 -->
<g id="edge2" class="edge">
<title>Node1&#45;&gt;Node3</title>
<path fill="none" stroke="#63b8ff" d="M249.91,-219.88C300.97,-197.87 389.91,-149.88 417,-74 427.87,-43.55 387.66,-26.55 355.02,-17.96"/>
<polygon fill="#63b8ff" stroke="#63b8ff" points="355.75,-14.54 345.2,-15.56 354.08,-21.34 355.75,-14.54"/>
</g>
<!-- Node4 -->
<g id="node4" class="node">
<title>Node4</title>
<g id="a_node4"><a xlink:href="node_8h.html" target="_top" xlink:title="A node.">
<polygon fill="white" stroke="#666666" points="275,-184 151,-184 151,-165 275,-165 275,-184"/>
<text text-anchor="middle" x="213" y="-172" font-family="Helvetica,sans-Serif" font-size="10.00">tetengo/lattice/node.h</text>
</a>
</g>
</g>
<!-- Node1&#45;&gt;Node4 -->
<g id="edge3" class="edge">
<title>Node1&#45;&gt;Node4</title>
<path fill="none" stroke="#63b8ff" d="M213,-219.84C213,-212.21 213,-202.7 213,-194.45"/>
<polygon fill="#63b8ff" stroke="#63b8ff" points="216.5,-194.27 213,-184.27 209.5,-194.27 216.5,-194.27"/>
</g>
<!-- Node4&#45;&gt;Node2 -->
<g id="edge4" class="edge">
<title>Node4&#45;&gt;Node2</title>
<path fill="none" stroke="#63b8ff" d="M188.07,-164.9C152.22,-151.25 86.44,-121.26 50,-74 40.01,-61.04 35.26,-42.89 33,-29.31"/>
<polygon fill="#63b8ff" stroke="#63b8ff" points="36.44,-28.64 31.64,-19.19 29.51,-29.57 36.44,-28.64"/>
</g>
<!-- Node4&#45;&gt;Node3 -->
<g id="edge5" class="edge">
<title>Node4&#45;&gt;Node3</title>
<path fill="none" stroke="#63b8ff" d="M254.45,-164.9C299.74,-153.05 370.09,-126.86 402,-74 416.5,-49.99 383.67,-32.07 354.69,-21.5"/>
<polygon fill="#63b8ff" stroke="#63b8ff" points="355.68,-18.14 345.08,-18.19 353.4,-24.76 355.68,-18.14"/>
</g>
<!-- Node5 -->
<g id="node5" class="node">
<title>Node5</title>
<g id="a_node5"><a xlink:href="entry_8h.html" target="_top" xlink:title="An entry.">
<polygon fill="white" stroke="#666666" points="275,-129 151,-129 151,-110 275,-110 275,-129"/>
<text text-anchor="middle" x="213" y="-117" font-family="Helvetica,sans-Serif" font-size="10.00">tetengo/lattice/entry.h</text>
</a>
</g>
</g>
<!-- Node4&#45;&gt;Node5 -->
<g id="edge6" class="edge">
<title>Node4&#45;&gt;Node5</title>
<path fill="none" stroke="#63b8ff" d="M213,-164.75C213,-157.8 213,-147.85 213,-139.13"/>
<polygon fill="#63b8ff" stroke="#63b8ff" points="216.5,-139.09 213,-129.09 209.5,-139.09 216.5,-139.09"/>
</g>
<!-- Node5&#45;&gt;Node3 -->
<g id="edge7" class="edge">
<title>Node5&#45;&gt;Node3</title>
<path fill="none" stroke="#63b8ff" d="M213.5,-109.7C214.69,-96.44 218.68,-71.16 232,-55 244.23,-40.18 262.69,-29.68 279.29,-22.61"/>
<polygon fill="#63b8ff" stroke="#63b8ff" points="280.79,-25.79 288.79,-18.84 278.21,-19.28 280.79,-25.79"/>
</g>
<!-- Node6 -->
<g id="node6" class="node">
<title>Node6</title>
<g id="a_node6"><a xlink:href="input_8h.html" target="_top" xlink:title="An input.">
<polygon fill="white" stroke="#666666" points="184.5,-74 59.5,-74 59.5,-55 184.5,-55 184.5,-74"/>
<text text-anchor="middle" x="122" y="-62" font-family="Helvetica,sans-Serif" font-size="10.00">tetengo/lattice/input.h</text>
</a>
</g>
</g>
<!-- Node5&#45;&gt;Node6 -->
<g id="edge8" class="edge">
<title>Node5&#45;&gt;Node6</title>
<path fill="none" stroke="#63b8ff" d="M198.38,-109.98C184.14,-101.69 162.25,-88.94 145.55,-79.22"/>
<polygon fill="#63b8ff" stroke="#63b8ff" points="147.29,-76.18 136.89,-74.17 143.77,-82.23 147.29,-76.18"/>
</g>
<!-- Node7 -->
<g id="node7" class="node">
<title>Node7</title>
<g id="a_node7"><a xlink:href="stringView_8h.html" target="_top" xlink:title="A string view.">
<polygon fill="white" stroke="#666666" points="392.5,-74 241.5,-74 241.5,-55 392.5,-55 392.5,-74"/>
<text text-anchor="middle" x="317" y="-62" font-family="Helvetica,sans-Serif" font-size="10.00">tetengo/lattice/stringView.h</text>
</a>
</g>
</g>
<!-- Node5&#45;&gt;Node7 -->
<g id="edge11" class="edge">
<title>Node5&#45;&gt;Node7</title>
<path fill="none" stroke="#63b8ff" d="M229.71,-109.98C246.21,-101.57 271.7,-88.59 290.88,-78.81"/>
<polygon fill="#63b8ff" stroke="#63b8ff" points="292.67,-81.83 299.99,-74.17 289.49,-75.59 292.67,-81.83"/>
</g>
<!-- Node6&#45;&gt;Node2 -->
<g id="edge9" class="edge">
<title>Node6&#45;&gt;Node2</title>
<path fill="none" stroke="#63b8ff" d="M107.38,-54.98C93.14,-46.69 71.25,-33.94 54.55,-24.22"/>
<polygon fill="#63b8ff" stroke="#63b8ff" points="56.29,-21.18 45.89,-19.17 52.77,-27.23 56.29,-21.18"/>
</g>
<!-- Node6&#45;&gt;Node3 -->
<g id="edge10" class="edge">
<title>Node6&#45;&gt;Node3</title>
<path fill="none" stroke="#63b8ff" d="M153.33,-54.98C187.58,-45.68 242.44,-30.76 279.09,-20.8"/>
<polygon fill="#63b8ff" stroke="#63b8ff" points="280.18,-24.13 288.91,-18.13 278.34,-17.38 280.18,-24.13"/>
</g>
<!-- Node7&#45;&gt;Node3 -->
<g id="edge12" class="edge">
<title>Node7&#45;&gt;Node3</title>
<path fill="none" stroke="#63b8ff" d="M317,-54.75C317,-47.8 317,-37.85 317,-29.13"/>
<polygon fill="#63b8ff" stroke="#63b8ff" points="320.5,-29.09 317,-19.09 313.5,-29.09 320.5,-29.09"/>
</g>
</g>
</svg>
