<?xml version="1.0" encoding="UTF-8" standalone="no"?>
<!DOCTYPE svg PUBLIC "-//W3C//DTD SVG 1.1//EN"
 "http://www.w3.org/Graphics/SVG/1.1/DTD/svg11.dtd">
<!-- Generated by graphviz version 2.43.0 (0)
 -->
<!-- Title: library/lattice/cpp/include/tetengo/lattice/path.hpp Pages: 1 -->
<svg width="559pt" height="274pt"
 viewBox="0.00 0.00 558.50 274.00" xmlns="http://www.w3.org/2000/svg" xmlns:xlink="http://www.w3.org/1999/xlink">
<g id="graph0" class="graph" transform="scale(1 1) rotate(0) translate(4 270)">
<title>library/lattice/cpp/include/tetengo/lattice/path.hpp</title>
<polygon fill="white" stroke="transparent" points="-4,4 -4,-270 554.5,-270 554.5,4 -4,4"/>
<!-- Node1 -->
<g id="node1" class="node">
<title>Node1</title>
<g id="a_node1"><a xlink:title="A path.">
<polygon fill="#bfbfbf" stroke="black" points="81,-224.5 81,-265.5 210,-265.5 210,-224.5 81,-224.5"/>
<text text-anchor="start" x="89" y="-253.5" font-family="Helvetica,sans-Serif" font-size="10.00">library/lattice/cpp</text>
<text text-anchor="start" x="89" y="-242.5" font-family="Helvetica,sans-Serif" font-size="10.00">/include/tetengo/lattice</text>
<text text-anchor="middle" x="145.5" y="-231.5" font-family="Helvetica,sans-Serif" font-size="10.00">/path.hpp</text>
</a>
</g>
</g>
<!-- Node2 -->
<g id="node2" class="node">
<title>Node2</title>
<g id="a_node2"><a xlink:title=" ">
<polygon fill="white" stroke="#bfbfbf" points="0,-112.5 0,-131.5 47,-131.5 47,-112.5 0,-112.5"/>
<text text-anchor="middle" x="23.5" y="-119.5" font-family="Helvetica,sans-Serif" font-size="10.00">vector</text>
</a>
</g>
</g>
<!-- Node1&#45;&gt;Node2 -->
<g id="edge1" class="edge">
<title>Node1&#45;&gt;Node2</title>
<path fill="none" stroke="midnightblue" d="M125.63,-224.29C101.57,-200.43 61.55,-160.74 39.42,-138.79"/>
<polygon fill="midnightblue" stroke="midnightblue" points="41.71,-136.13 32.15,-131.57 36.78,-141.1 41.71,-136.13"/>
</g>
<!-- Node3 -->
<g id="node3" class="node">
<title>Node3</title>
<g id="a_node3"><a xlink:href="node_8hpp.html" target="_top" xlink:title="A node.">
<polygon fill="white" stroke="black" points="151.5,-168.5 151.5,-187.5 287.5,-187.5 287.5,-168.5 151.5,-168.5"/>
<text text-anchor="middle" x="219.5" y="-175.5" font-family="Helvetica,sans-Serif" font-size="10.00">tetengo/lattice/node.hpp</text>
</a>
</g>
</g>
<!-- Node1&#45;&gt;Node3 -->
<g id="edge2" class="edge">
<title>Node1&#45;&gt;Node3</title>
<path fill="none" stroke="midnightblue" d="M167.7,-224.5C178.72,-214.82 191.84,-203.3 202.11,-194.27"/>
<polygon fill="midnightblue" stroke="midnightblue" points="204.45,-196.88 209.65,-187.65 199.83,-191.62 204.45,-196.88"/>
</g>
<!-- Node3&#45;&gt;Node2 -->
<g id="edge6" class="edge">
<title>Node3&#45;&gt;Node2</title>
<path fill="none" stroke="midnightblue" d="M188.44,-168.44C152.53,-158.55 93.64,-142.32 56.8,-132.17"/>
<polygon fill="midnightblue" stroke="midnightblue" points="57.6,-128.76 47.03,-129.48 55.74,-135.51 57.6,-128.76"/>
</g>
<!-- Node4 -->
<g id="node4" class="node">
<title>Node4</title>
<g id="a_node4"><a xlink:title=" ">
<polygon fill="white" stroke="#bfbfbf" points="205,-56.5 205,-75.5 240,-75.5 240,-56.5 205,-56.5"/>
<text text-anchor="middle" x="222.5" y="-63.5" font-family="Helvetica,sans-Serif" font-size="10.00">any</text>
</a>
</g>
</g>
<!-- Node3&#45;&gt;Node4 -->
<g id="edge3" class="edge">
<title>Node3&#45;&gt;Node4</title>
<path fill="none" stroke="midnightblue" d="M227.17,-168.46C234.28,-159.93 244.35,-146.09 248.5,-132 253.42,-115.3 244.69,-96.94 236.05,-84"/>
<polygon fill="midnightblue" stroke="midnightblue" points="238.68,-81.67 229.97,-75.65 233.02,-85.79 238.68,-81.67"/>
</g>
<!-- Node5 -->
<g id="node5" class="node">
<title>Node5</title>
<g id="a_node5"><a xlink:title=" ">
<polygon fill="white" stroke="#bfbfbf" points="498.5,-0.5 498.5,-19.5 550.5,-19.5 550.5,-0.5 498.5,-0.5"/>
<text text-anchor="middle" x="524.5" y="-7.5" font-family="Helvetica,sans-Serif" font-size="10.00">cassert</text>
</a>
</g>
</g>
<!-- Node3&#45;&gt;Node5 -->
<g id="edge4" class="edge">
<title>Node3&#45;&gt;Node5</title>
<path fill="none" stroke="midnightblue" d="M260.94,-168.49C291.26,-161.29 332.8,-149.34 366.5,-132 423.57,-102.63 481.02,-52.16 508.24,-26.69"/>
<polygon fill="midnightblue" stroke="midnightblue" points="510.83,-29.05 515.68,-19.63 506.02,-23.97 510.83,-29.05"/>
</g>
<!-- Node6 -->
<g id="node6" class="node">
<title>Node6</title>
<g id="a_node6"><a xlink:title=" ">
<polygon fill="white" stroke="#bfbfbf" points="47,-0.5 47,-19.5 100,-19.5 100,-0.5 47,-0.5"/>
<text text-anchor="middle" x="73.5" y="-7.5" font-family="Helvetica,sans-Serif" font-size="10.00">cstddef</text>
</a>
</g>
</g>
<!-- Node3&#45;&gt;Node6 -->
<g id="edge5" class="edge">
<title>Node3&#45;&gt;Node6</title>
<path fill="none" stroke="midnightblue" d="M158.86,-168.48C135.5,-162.17 110.59,-151.16 94.5,-132 70.01,-102.84 69.47,-55.49 71.38,-29.51"/>
<polygon fill="midnightblue" stroke="midnightblue" points="74.87,-29.79 72.32,-19.51 67.9,-29.14 74.87,-29.79"/>
</g>
<!-- Node7 -->
<g id="node7" class="node">
<title>Node7</title>
<g id="a_node7"><a xlink:title=" ">
<polygon fill="white" stroke="#bfbfbf" points="366.5,-0.5 366.5,-19.5 480.5,-19.5 480.5,-0.5 366.5,-0.5"/>
<text text-anchor="middle" x="423.5" y="-7.5" font-family="Helvetica,sans-Serif" font-size="10.00">boost/operators.hpp</text>
</a>
</g>
</g>
<!-- Node3&#45;&gt;Node7 -->
<g id="edge7" class="edge">
<title>Node3&#45;&gt;Node7</title>
<path fill="none" stroke="midnightblue" d="M249.88,-168.5C291,-155.42 363.89,-126.46 404.5,-76 415.2,-62.7 419.88,-43.58 421.92,-29.52"/>
<polygon fill="midnightblue" stroke="midnightblue" points="425.4,-29.87 423.06,-19.53 418.45,-29.07 425.4,-29.87"/>
</g>
<!-- Node8 -->
<g id="node8" class="node">
<title>Node8</title>
<g id="a_node8"><a xlink:href="entry_8hpp.html" target="_top" xlink:title="An entry.">
<polygon fill="white" stroke="black" points="103.5,-112.5 103.5,-131.5 239.5,-131.5 239.5,-112.5 103.5,-112.5"/>
<text text-anchor="middle" x="171.5" y="-119.5" font-family="Helvetica,sans-Serif" font-size="10.00">tetengo/lattice/entry.hpp</text>
</a>
</g>
</g>
<!-- Node3&#45;&gt;Node8 -->
<g id="edge8" class="edge">
<title>Node3&#45;&gt;Node8</title>
<path fill="none" stroke="midnightblue" d="M211.57,-168.08C204.65,-160.3 194.43,-148.8 186.05,-139.37"/>
<polygon fill="midnightblue" stroke="midnightblue" points="188.54,-136.9 179.28,-131.75 183.31,-141.55 188.54,-136.9"/>
</g>
<!-- Node11 -->
<g id="node11" class="node">
<title>Node11</title>
<g id="a_node11"><a xlink:href="input_8hpp.html" target="_top" xlink:title="An input.">
<polygon fill="white" stroke="black" points="258,-56.5 258,-75.5 395,-75.5 395,-56.5 258,-56.5"/>
<text text-anchor="middle" x="326.5" y="-63.5" font-family="Helvetica,sans-Serif" font-size="10.00">tetengo/lattice/input.hpp</text>
</a>
</g>
</g>
<!-- Node3&#45;&gt;Node11 -->
<g id="edge18" class="edge">
<title>Node3&#45;&gt;Node11</title>
<path fill="none" stroke="midnightblue" d="M227.95,-168.38C236.81,-159.33 251.15,-144.68 263.5,-132 279.66,-115.4 298.1,-96.37 310.83,-83.21"/>
<polygon fill="midnightblue" stroke="midnightblue" points="313.52,-85.46 317.95,-75.84 308.48,-80.6 313.52,-85.46"/>
</g>
<!-- Node8&#45;&gt;Node4 -->
<g id="edge9" class="edge">
<title>Node8&#45;&gt;Node4</title>
<path fill="none" stroke="midnightblue" d="M179.92,-112.08C187.35,-104.22 198.35,-92.57 207.31,-83.08"/>
<polygon fill="midnightblue" stroke="midnightblue" points="209.91,-85.42 214.24,-75.75 204.82,-80.62 209.91,-85.42"/>
</g>
<!-- Node9 -->
<g id="node9" class="node">
<title>Node9</title>
<g id="a_node9"><a xlink:title=" ">
<polygon fill="white" stroke="#bfbfbf" points="118.5,-0.5 118.5,-19.5 176.5,-19.5 176.5,-0.5 118.5,-0.5"/>
<text text-anchor="middle" x="147.5" y="-7.5" font-family="Helvetica,sans-Serif" font-size="10.00">memory</text>
</a>
</g>
</g>
<!-- Node8&#45;&gt;Node9 -->
<g id="edge10" class="edge">
<title>Node8&#45;&gt;Node9</title>
<path fill="none" stroke="midnightblue" d="M160.51,-112.37C151.05,-104.17 138.06,-90.92 132.5,-76 126.69,-60.44 132.1,-41.91 137.98,-28.62"/>
<polygon fill="midnightblue" stroke="midnightblue" points="141.14,-30.14 142.39,-19.62 134.85,-27.06 141.14,-30.14"/>
</g>
<!-- Node10 -->
<g id="node10" class="node">
<title>Node10</title>
<g id="a_node10"><a xlink:title=" ">
<polygon fill="white" stroke="#bfbfbf" points="142,-56.5 142,-75.5 187,-75.5 187,-56.5 142,-56.5"/>
<text text-anchor="middle" x="164.5" y="-63.5" font-family="Helvetica,sans-Serif" font-size="10.00">utility</text>
</a>
</g>
</g>
<!-- Node8&#45;&gt;Node10 -->
<g id="edge11" class="edge">
<title>Node8&#45;&gt;Node10</title>
<path fill="none" stroke="midnightblue" d="M170.34,-112.08C169.42,-104.93 168.08,-94.64 166.92,-85.69"/>
<polygon fill="midnightblue" stroke="midnightblue" points="170.39,-85.22 165.63,-75.75 163.45,-86.12 170.39,-85.22"/>
</g>
<!-- Node8&#45;&gt;Node11 -->
<g id="edge12" class="edge">
<title>Node8&#45;&gt;Node11</title>
<path fill="none" stroke="midnightblue" d="M196.06,-112.44C222.02,-103.4 263.17,-89.06 292.3,-78.92"/>
<polygon fill="midnightblue" stroke="midnightblue" points="293.76,-82.11 302.05,-75.52 291.46,-75.5 293.76,-82.11"/>
</g>
<!-- Node11&#45;&gt;Node5 -->
<g id="edge13" class="edge">
<title>Node11&#45;&gt;Node5</title>
<path fill="none" stroke="midnightblue" d="M357.87,-56.44C393.36,-46.77 451.04,-31.03 488.38,-20.85"/>
<polygon fill="midnightblue" stroke="midnightblue" points="489.6,-24.14 498.33,-18.14 487.76,-17.39 489.6,-24.14"/>
</g>
<!-- Node11&#45;&gt;Node6 -->
<g id="edge14" class="edge">
<title>Node11&#45;&gt;Node6</title>
<path fill="none" stroke="midnightblue" d="M282.75,-56.47C240.98,-48.2 176.05,-35.04 110.33,-20.12"/>
<polygon fill="midnightblue" stroke="midnightblue" points="110.74,-16.62 100.21,-17.8 109.18,-23.44 110.74,-16.62"/>
</g>
<!-- Node11&#45;&gt;Node7 -->
<g id="edge17" class="edge">
<title>Node11&#45;&gt;Node7</title>
<path fill="none" stroke="midnightblue" d="M342.08,-56.32C357.5,-47.74 381.31,-34.49 399.21,-24.52"/>
<polygon fill="midnightblue" stroke="midnightblue" points="400.92,-27.58 407.95,-19.65 397.51,-21.46 400.92,-27.58"/>
</g>
<!-- Node11&#45;&gt;Node9 -->
<g id="edge15" class="edge">
<title>Node11&#45;&gt;Node9</title>
<path fill="none" stroke="midnightblue" d="M298.14,-56.44C267.76,-47.28 219.39,-32.69 185.68,-22.52"/>
<polygon fill="midnightblue" stroke="midnightblue" points="186.32,-19.05 175.73,-19.52 184.29,-25.76 186.32,-19.05"/>
</g>
<!-- Node12 -->
<g id="node12" class="node">
<title>Node12</title>
<g id="a_node12"><a xlink:title=" ">
<polygon fill="white" stroke="#bfbfbf" points="194.5,-0.5 194.5,-19.5 348.5,-19.5 348.5,-0.5 194.5,-0.5"/>
<text text-anchor="middle" x="271.5" y="-7.5" font-family="Helvetica,sans-Serif" font-size="10.00">boost/core/noncopyable.hpp</text>
</a>
</g>
</g>
<!-- Node11&#45;&gt;Node12 -->
<g id="edge16" class="edge">
<title>Node11&#45;&gt;Node12</title>
<path fill="none" stroke="midnightblue" d="M317.42,-56.08C309.33,-48.14 297.3,-36.34 287.59,-26.8"/>
<polygon fill="midnightblue" stroke="midnightblue" points="290,-24.26 280.41,-19.75 285.1,-29.25 290,-24.26"/>
</g>
</g>
</svg>
