<?xml version="1.0" encoding="UTF-8" standalone="no"?>
<!DOCTYPE svg PUBLIC "-//W3C//DTD SVG 1.1//EN"
 "http://www.w3.org/Graphics/SVG/1.1/DTD/svg11.dtd">
<!-- Generated by graphviz version 2.43.0 (0)
 -->
<!-- Title: library/property/cpp/include/tetengo/property/storage.hpp Pages: 1 -->
<svg width="650pt" height="128pt"
 viewBox="0.00 0.00 650.00 128.00" xmlns="http://www.w3.org/2000/svg" xmlns:xlink="http://www.w3.org/1999/xlink">
<g id="graph0" class="graph" transform="scale(1 1) rotate(0) translate(4 124)">
<title>library/property/cpp/include/tetengo/property/storage.hpp</title>
<polygon fill="white" stroke="transparent" points="-4,4 -4,-124 646,-124 646,4 -4,4"/>
<!-- Node1 -->
<g id="node1" class="node">
<title>Node1</title>
<g id="a_node1"><a xlink:title="A storage.">
<polygon fill="#bfbfbf" stroke="black" points="237,-78.5 237,-119.5 377,-119.5 377,-78.5 237,-78.5"/>
<text text-anchor="start" x="245" y="-107.5" font-family="Helvetica,sans-Serif" font-size="10.00">library/property/cpp</text>
<text text-anchor="start" x="245" y="-96.5" font-family="Helvetica,sans-Serif" font-size="10.00">/include/tetengo/property</text>
<text text-anchor="middle" x="307" y="-85.5" font-family="Helvetica,sans-Serif" font-size="10.00">/storage.hpp</text>
</a>
</g>
</g>
<!-- Node2 -->
<g id="node2" class="node">
<title>Node2</title>
<g id="a_node2"><a xlink:href="file__storage_8hpp.html" target="_top" xlink:title="A file storage.">
<polygon fill="white" stroke="black" points="0,-0.5 0,-41.5 140,-41.5 140,-0.5 0,-0.5"/>
<text text-anchor="start" x="8" y="-29.5" font-family="Helvetica,sans-Serif" font-size="10.00">library/property/cpp</text>
<text text-anchor="start" x="8" y="-18.5" font-family="Helvetica,sans-Serif" font-size="10.00">/include/tetengo/property</text>
<text text-anchor="middle" x="70" y="-7.5" font-family="Helvetica,sans-Serif" font-size="10.00">/file_storage.hpp</text>
</a>
</g>
</g>
<!-- Node1&#45;&gt;Node2 -->
<g id="edge1" class="edge">
<title>Node1&#45;&gt;Node2</title>
<path fill="none" stroke="midnightblue" d="M236.22,-75.3C202.68,-64.55 163,-51.82 130.83,-41.51"/>
<polygon fill="midnightblue" stroke="midnightblue" points="235.38,-78.71 245.97,-78.43 237.51,-72.04 235.38,-78.71"/>
</g>
<!-- Node3 -->
<g id="node3" class="node">
<title>Node3</title>
<g id="a_node3"><a xlink:href="property_2cpp_2include_2tetengo_2property_2memory__storage_8hpp.html" target="_top" xlink:title="A memory storage.">
<polygon fill="white" stroke="black" points="158,-0.5 158,-41.5 298,-41.5 298,-0.5 158,-0.5"/>
<text text-anchor="start" x="166" y="-29.5" font-family="Helvetica,sans-Serif" font-size="10.00">library/property/cpp</text>
<text text-anchor="start" x="166" y="-18.5" font-family="Helvetica,sans-Serif" font-size="10.00">/include/tetengo/property</text>
<text text-anchor="middle" x="228" y="-7.5" font-family="Helvetica,sans-Serif" font-size="10.00">/memory_storage.hpp</text>
</a>
</g>
</g>
<!-- Node1&#45;&gt;Node3 -->
<g id="edge2" class="edge">
<title>Node1&#45;&gt;Node3</title>
<path fill="none" stroke="midnightblue" d="M279.45,-71.49C269.19,-61.63 257.76,-50.63 248.28,-41.51"/>
<polygon fill="midnightblue" stroke="midnightblue" points="277.02,-74.02 286.66,-78.43 281.88,-68.97 277.02,-74.02"/>
</g>
<!-- Node4 -->
<g id="node4" class="node">
<title>Node4</title>
<g id="a_node4"><a xlink:href="storage__proxy_8hpp.html" target="_top" xlink:title="A storage proxy.">
<polygon fill="white" stroke="black" points="316,-0.5 316,-41.5 456,-41.5 456,-0.5 316,-0.5"/>
<text text-anchor="start" x="324" y="-29.5" font-family="Helvetica,sans-Serif" font-size="10.00">library/property/cpp</text>
<text text-anchor="start" x="324" y="-18.5" font-family="Helvetica,sans-Serif" font-size="10.00">/include/tetengo/property</text>
<text text-anchor="middle" x="386" y="-7.5" font-family="Helvetica,sans-Serif" font-size="10.00">/storage_proxy.hpp</text>
</a>
</g>
</g>
<!-- Node1&#45;&gt;Node4 -->
<g id="edge3" class="edge">
<title>Node1&#45;&gt;Node4</title>
<path fill="none" stroke="midnightblue" d="M334.55,-71.49C344.81,-61.63 356.24,-50.63 365.72,-41.51"/>
<polygon fill="midnightblue" stroke="midnightblue" points="332.12,-68.97 327.34,-78.43 336.98,-74.02 332.12,-68.97"/>
</g>
<!-- Node5 -->
<g id="node5" class="node">
<title>Node5</title>
<g id="a_node5"><a xlink:href="windows__registry__storage_8hpp.html" target="_top" xlink:title="A Windows registry storage.">
<polygon fill="white" stroke="black" points="474,-0.5 474,-41.5 642,-41.5 642,-0.5 474,-0.5"/>
<text text-anchor="start" x="482" y="-29.5" font-family="Helvetica,sans-Serif" font-size="10.00">library/property/cpp</text>
<text text-anchor="start" x="482" y="-18.5" font-family="Helvetica,sans-Serif" font-size="10.00">/include/tetengo/property</text>
<text text-anchor="middle" x="558" y="-7.5" font-family="Helvetica,sans-Serif" font-size="10.00">/windows_registry_storage.hpp</text>
</a>
</g>
</g>
<!-- Node1&#45;&gt;Node5 -->
<g id="edge4" class="edge">
<title>Node1&#45;&gt;Node5</title>
<path fill="none" stroke="midnightblue" d="M381.5,-75.44C417.13,-64.66 459.36,-51.87 493.58,-41.51"/>
<polygon fill="midnightblue" stroke="midnightblue" points="380.2,-72.18 371.64,-78.43 382.22,-78.88 380.2,-72.18"/>
</g>
</g>
</svg>
