<?xml version="1.0" encoding="UTF-8" standalone="no"?>
<!DOCTYPE svg PUBLIC "-//W3C//DTD SVG 1.1//EN"
 "http://www.w3.org/Graphics/SVG/1.1/DTD/svg11.dtd">
<!-- Generated by graphviz version 2.43.0 (0)
 -->
<!-- Title: library/property/cpp/include/tetengo/property/property_set.hpp Pages: 1 -->
<svg width="528pt" height="106pt"
 viewBox="0.00 0.00 528.00 106.00" xmlns="http://www.w3.org/2000/svg" xmlns:xlink="http://www.w3.org/1999/xlink">
<g id="graph0" class="graph" transform="scale(1 1) rotate(0) translate(4 102)">
<title>library/property/cpp/include/tetengo/property/property_set.hpp</title>
<polygon fill="white" stroke="transparent" points="-4,4 -4,-102 524,-102 524,4 -4,4"/>
<!-- Node1 -->
<g id="node1" class="node">
<title>Node1</title>
<g id="a_node1"><a xlink:title="A property set.">
<polygon fill="#bfbfbf" stroke="black" points="150,-56.5 150,-97.5 290,-97.5 290,-56.5 150,-56.5"/>
<text text-anchor="start" x="158" y="-85.5" font-family="Helvetica,sans-Serif" font-size="10.00">library/property/cpp</text>
<text text-anchor="start" x="158" y="-74.5" font-family="Helvetica,sans-Serif" font-size="10.00">/include/tetengo/property</text>
<text text-anchor="middle" x="220" y="-63.5" font-family="Helvetica,sans-Serif" font-size="10.00">/property_set.hpp</text>
</a>
</g>
</g>
<!-- Node2 -->
<g id="node2" class="node">
<title>Node2</title>
<g id="a_node2"><a xlink:title=" ">
<polygon fill="white" stroke="#bfbfbf" points="0,-0.5 0,-19.5 50,-19.5 50,-0.5 0,-0.5"/>
<text text-anchor="middle" x="25" y="-7.5" font-family="Helvetica,sans-Serif" font-size="10.00">cstdint</text>
</a>
</g>
</g>
<!-- Node1&#45;&gt;Node2 -->
<g id="edge1" class="edge">
<title>Node1&#45;&gt;Node2</title>
<path fill="none" stroke="midnightblue" d="M161.49,-56.5C128.42,-45.47 88.18,-32.06 60,-22.67"/>
<polygon fill="midnightblue" stroke="midnightblue" points="60.79,-19.24 50.19,-19.4 58.57,-25.88 60.79,-19.24"/>
</g>
<!-- Node3 -->
<g id="node3" class="node">
<title>Node3</title>
<g id="a_node3"><a xlink:title=" ">
<polygon fill="white" stroke="#bfbfbf" points="68,-0.5 68,-19.5 136,-19.5 136,-0.5 68,-0.5"/>
<text text-anchor="middle" x="102" y="-7.5" font-family="Helvetica,sans-Serif" font-size="10.00">filesystem</text>
</a>
</g>
</g>
<!-- Node1&#45;&gt;Node3 -->
<g id="edge2" class="edge">
<title>Node1&#45;&gt;Node3</title>
<path fill="none" stroke="midnightblue" d="M184.6,-56.5C165.98,-46.24 143.62,-33.93 126.86,-24.69"/>
<polygon fill="midnightblue" stroke="midnightblue" points="128.16,-21.41 117.71,-19.65 124.78,-27.54 128.16,-21.41"/>
</g>
<!-- Node4 -->
<g id="node4" class="node">
<title>Node4</title>
<g id="a_node4"><a xlink:title=" ">
<polygon fill="white" stroke="#bfbfbf" points="154,-0.5 154,-19.5 212,-19.5 212,-0.5 154,-0.5"/>
<text text-anchor="middle" x="183" y="-7.5" font-family="Helvetica,sans-Serif" font-size="10.00">memory</text>
</a>
</g>
</g>
<!-- Node1&#45;&gt;Node4 -->
<g id="edge3" class="edge">
<title>Node1&#45;&gt;Node4</title>
<path fill="none" stroke="midnightblue" d="M208.9,-56.5C203.83,-47.59 197.86,-37.11 192.94,-28.46"/>
<polygon fill="midnightblue" stroke="midnightblue" points="195.91,-26.61 187.93,-19.65 189.83,-30.07 195.91,-26.61"/>
</g>
<!-- Node5 -->
<g id="node5" class="node">
<title>Node5</title>
<g id="a_node5"><a xlink:title=" ">
<polygon fill="white" stroke="#bfbfbf" points="230,-0.5 230,-19.5 286,-19.5 286,-0.5 230,-0.5"/>
<text text-anchor="middle" x="258" y="-7.5" font-family="Helvetica,sans-Serif" font-size="10.00">optional</text>
</a>
</g>
</g>
<!-- Node1&#45;&gt;Node5 -->
<g id="edge4" class="edge">
<title>Node1&#45;&gt;Node5</title>
<path fill="none" stroke="midnightblue" d="M231.4,-56.5C236.61,-47.59 242.73,-37.11 247.79,-28.46"/>
<polygon fill="midnightblue" stroke="midnightblue" points="250.92,-30.05 252.94,-19.65 244.87,-26.52 250.92,-30.05"/>
</g>
<!-- Node6 -->
<g id="node6" class="node">
<title>Node6</title>
<g id="a_node6"><a xlink:title=" ">
<polygon fill="white" stroke="#bfbfbf" points="304,-0.5 304,-19.5 348,-19.5 348,-0.5 304,-0.5"/>
<text text-anchor="middle" x="326" y="-7.5" font-family="Helvetica,sans-Serif" font-size="10.00">string</text>
</a>
</g>
</g>
<!-- Node1&#45;&gt;Node6 -->
<g id="edge5" class="edge">
<title>Node1&#45;&gt;Node6</title>
<path fill="none" stroke="midnightblue" d="M251.8,-56.5C268.37,-46.34 288.24,-34.16 303.25,-24.95"/>
<polygon fill="midnightblue" stroke="midnightblue" points="305.19,-27.86 311.89,-19.65 301.54,-21.9 305.19,-27.86"/>
</g>
<!-- Node7 -->
<g id="node7" class="node">
<title>Node7</title>
<g id="a_node7"><a xlink:title=" ">
<polygon fill="white" stroke="#bfbfbf" points="366,-0.5 366,-19.5 520,-19.5 520,-0.5 366,-0.5"/>
<text text-anchor="middle" x="443" y="-7.5" font-family="Helvetica,sans-Serif" font-size="10.00">boost/core/noncopyable.hpp</text>
</a>
</g>
</g>
<!-- Node1&#45;&gt;Node7 -->
<g id="edge6" class="edge">
<title>Node1&#45;&gt;Node7</title>
<path fill="none" stroke="midnightblue" d="M286.91,-56.5C324.99,-45.4 371.39,-31.87 403.66,-22.47"/>
<polygon fill="midnightblue" stroke="midnightblue" points="404.99,-25.73 413.61,-19.57 403.03,-19.01 404.99,-25.73"/>
</g>
</g>
</svg>
