<?xml version="1.0" encoding="UTF-8" standalone="no"?>
<!DOCTYPE svg PUBLIC "-//W3C//DTD SVG 1.1//EN"
 "http://www.w3.org/Graphics/SVG/1.1/DTD/svg11.dtd">
<!-- Generated by graphviz version 2.43.0 (0)
 -->
<!-- Title: library/property/c/include/tetengo/property/propertySet.h Pages: 1 -->
<svg width="261pt" height="159pt"
 viewBox="0.00 0.00 260.50 159.00" xmlns="http://www.w3.org/2000/svg" xmlns:xlink="http://www.w3.org/1999/xlink">
<g id="graph0" class="graph" transform="scale(1 1) rotate(0) translate(4 155)">
<title>library/property/c/include/tetengo/property/propertySet.h</title>
<!-- Node1 -->
<g id="node1" class="node">
<title>Node1</title>
<g id="a_node1"><a xlink:title="A property set.">
<polygon fill="#999999" stroke="#666666" points="224,-151 84,-151 84,-110 224,-110 224,-151"/>
<text text-anchor="start" x="92" y="-139" font-family="Helvetica,sans-Serif" font-size="10.00">library/property/c</text>
<text text-anchor="start" x="92" y="-128" font-family="Helvetica,sans-Serif" font-size="10.00">/include/tetengo/property</text>
<text text-anchor="middle" x="154" y="-117" font-family="Helvetica,sans-Serif" font-size="10.00">/propertySet.h</text>
</a>
</g>
</g>
<!-- Node2 -->
<g id="node2" class="node">
<title>Node2</title>
<g id="a_node2"><a xlink:title=" ">
<polygon fill="#e0e0e0" stroke="#999999" points="62,-19 0,-19 0,0 62,0 62,-19"/>
<text text-anchor="middle" x="31" y="-7" font-family="Helvetica,sans-Serif" font-size="10.00">stdbool.h</text>
</a>
</g>
</g>
<!-- Node1&#45;&gt;Node2 -->
<g id="edge1" class="edge">
<title>Node1&#45;&gt;Node2</title>
<path fill="none" stroke="#63b8ff" d="M83.76,-117.07C59.39,-109.02 34.55,-95.77 20,-74 10.98,-60.51 15.71,-41.92 21.51,-28.35"/>
<polygon fill="#63b8ff" stroke="#63b8ff" points="24.77,-29.64 25.94,-19.11 18.46,-26.61 24.77,-29.64"/>
</g>
<!-- Node3 -->
<g id="node3" class="node">
<title>Node3</title>
<g id="a_node3"><a xlink:title=" ">
<polygon fill="#e0e0e0" stroke="#999999" points="148,-19 92,-19 92,0 148,0 148,-19"/>
<text text-anchor="middle" x="120" y="-7" font-family="Helvetica,sans-Serif" font-size="10.00">stddef.h</text>
</a>
</g>
</g>
<!-- Node1&#45;&gt;Node3 -->
<g id="edge2" class="edge">
<title>Node1&#45;&gt;Node3</title>
<path fill="none" stroke="#63b8ff" d="M172.24,-109.79C184.05,-94.53 195.58,-73.02 186,-55 178.69,-41.25 165.03,-30.99 152.03,-23.8"/>
<polygon fill="#63b8ff" stroke="#63b8ff" points="153.28,-20.51 142.78,-19.11 150.11,-26.75 153.28,-20.51"/>
</g>
<!-- Node4 -->
<g id="node4" class="node">
<title>Node4</title>
<g id="a_node4"><a xlink:title=" ">
<polygon fill="#e0e0e0" stroke="#999999" points="252.5,-19 199.5,-19 199.5,0 252.5,0 252.5,-19"/>
<text text-anchor="middle" x="226" y="-7" font-family="Helvetica,sans-Serif" font-size="10.00">stdint.h</text>
</a>
</g>
</g>
<!-- Node1&#45;&gt;Node4 -->
<g id="edge3" class="edge">
<title>Node1&#45;&gt;Node4</title>
<path fill="none" stroke="#63b8ff" d="M173.35,-109.91C182.59,-99.8 193.29,-86.9 201,-74 209.55,-59.7 216.25,-41.95 220.55,-28.85"/>
<polygon fill="#63b8ff" stroke="#63b8ff" points="223.95,-29.72 223.59,-19.13 217.27,-27.63 223.95,-29.72"/>
</g>
<!-- Node5 -->
<g id="node5" class="node">
<title>Node5</title>
<g id="a_node5"><a xlink:href="property_2c_2include_2tetengo_2property_2storage_8h.html" target="_top" xlink:title="A storage.">
<polygon fill="white" stroke="#666666" points="176.5,-74 29.5,-74 29.5,-55 176.5,-55 176.5,-74"/>
<text text-anchor="middle" x="103" y="-62" font-family="Helvetica,sans-Serif" font-size="10.00">tetengo/property/storage.h</text>
</a>
</g>
</g>
<!-- Node1&#45;&gt;Node5 -->
<g id="edge4" class="edge">
<title>Node1&#45;&gt;Node5</title>
<path fill="none" stroke="#63b8ff" d="M138.42,-109.95C131.38,-101.11 123.14,-90.77 116.38,-82.29"/>
<polygon fill="#63b8ff" stroke="#63b8ff" points="118.95,-79.9 109.98,-74.26 113.48,-84.26 118.95,-79.9"/>
</g>
<!-- Node5&#45;&gt;Node2 -->
<g id="edge5" class="edge">
<title>Node5&#45;&gt;Node2</title>
<path fill="none" stroke="#63b8ff" d="M91.43,-54.98C80.58,-47 64.12,-34.88 51.12,-25.31"/>
<polygon fill="#63b8ff" stroke="#63b8ff" points="52.91,-22.28 42.78,-19.17 48.76,-27.92 52.91,-22.28"/>
</g>
<!-- Node5&#45;&gt;Node3 -->
<g id="edge6" class="edge">
<title>Node5&#45;&gt;Node3</title>
<path fill="none" stroke="#63b8ff" d="M105.81,-54.75C108.06,-47.72 111.3,-37.62 114.12,-28.84"/>
<polygon fill="#63b8ff" stroke="#63b8ff" points="117.52,-29.68 117.25,-19.09 110.86,-27.54 117.52,-29.68"/>
</g>
<!-- Node5&#45;&gt;Node4 -->
<g id="edge7" class="edge">
<title>Node5&#45;&gt;Node4</title>
<path fill="none" stroke="#63b8ff" d="M122.76,-54.98C142.73,-46.38 173.8,-32.99 196.65,-23.15"/>
<polygon fill="#63b8ff" stroke="#63b8ff" points="198.08,-26.34 205.88,-19.17 195.31,-19.91 198.08,-26.34"/>
</g>
</g>
</svg>
