<?xml version="1.0" encoding="UTF-8" standalone="no"?>
<!DOCTYPE svg PUBLIC "-//W3C//DTD SVG 1.1//EN"
 "http://www.w3.org/Graphics/SVG/1.1/DTD/svg11.dtd">
<!-- Generated by graphviz version 2.43.0 (0)
 -->
<!-- Title: library/property/cpp/include/tetengo/property/memory_storage.hpp Pages: 1 -->
<svg width="709pt" height="162pt"
 viewBox="0.00 0.00 709.00 162.00" xmlns="http://www.w3.org/2000/svg" xmlns:xlink="http://www.w3.org/1999/xlink">
<g id="graph0" class="graph" transform="scale(1 1) rotate(0) translate(4 158)">
<title>library/property/cpp/include/tetengo/property/memory_storage.hpp</title>
<polygon fill="white" stroke="transparent" points="-4,4 -4,-158 705,-158 705,4 -4,4"/>
<!-- Node1 -->
<g id="node1" class="node">
<title>Node1</title>
<g id="a_node1"><a xlink:title="A memory storage.">
<polygon fill="#bfbfbf" stroke="black" points="45,-112.5 45,-153.5 185,-153.5 185,-112.5 45,-112.5"/>
<text text-anchor="start" x="53" y="-141.5" font-family="Helvetica,sans-Serif" font-size="10.00">library/property/cpp</text>
<text text-anchor="start" x="53" y="-130.5" font-family="Helvetica,sans-Serif" font-size="10.00">/include/tetengo/property</text>
<text text-anchor="middle" x="115" y="-119.5" font-family="Helvetica,sans-Serif" font-size="10.00">/memory_storage.hpp</text>
</a>
</g>
</g>
<!-- Node2 -->
<g id="node2" class="node">
<title>Node2</title>
<g id="a_node2"><a xlink:title=" ">
<polygon fill="white" stroke="#bfbfbf" points="0,-0.5 0,-19.5 68,-19.5 68,-0.5 0,-0.5"/>
<text text-anchor="middle" x="34" y="-7.5" font-family="Helvetica,sans-Serif" font-size="10.00">filesystem</text>
</a>
</g>
</g>
<!-- Node1&#45;&gt;Node2 -->
<g id="edge1" class="edge">
<title>Node1&#45;&gt;Node2</title>
<path fill="none" stroke="midnightblue" d="M101.81,-112.29C86.12,-88.85 60.19,-50.13 45.36,-27.96"/>
<polygon fill="midnightblue" stroke="midnightblue" points="48.21,-25.94 39.74,-19.57 42.39,-29.83 48.21,-25.94"/>
</g>
<!-- Node3 -->
<g id="node3" class="node">
<title>Node3</title>
<g id="a_node3"><a xlink:title=" ">
<polygon fill="white" stroke="#bfbfbf" points="86,-0.5 86,-19.5 144,-19.5 144,-0.5 86,-0.5"/>
<text text-anchor="middle" x="115" y="-7.5" font-family="Helvetica,sans-Serif" font-size="10.00">memory</text>
</a>
</g>
</g>
<!-- Node1&#45;&gt;Node3 -->
<g id="edge2" class="edge">
<title>Node1&#45;&gt;Node3</title>
<path fill="none" stroke="midnightblue" d="M115,-112.29C115,-89.48 115,-52.19 115,-29.78"/>
<polygon fill="midnightblue" stroke="midnightblue" points="118.5,-29.57 115,-19.57 111.5,-29.57 118.5,-29.57"/>
</g>
<!-- Node4 -->
<g id="node4" class="node">
<title>Node4</title>
<g id="a_node4"><a xlink:href="property_2cpp_2include_2tetengo_2property_2storage_8hpp.html" target="_top" xlink:title="A storage.">
<polygon fill="white" stroke="black" points="178.5,-56.5 178.5,-75.5 337.5,-75.5 337.5,-56.5 178.5,-56.5"/>
<text text-anchor="middle" x="258" y="-63.5" font-family="Helvetica,sans-Serif" font-size="10.00">tetengo/property/storage.hpp</text>
</a>
</g>
</g>
<!-- Node1&#45;&gt;Node4 -->
<g id="edge3" class="edge">
<title>Node1&#45;&gt;Node4</title>
<path fill="none" stroke="midnightblue" d="M157.9,-112.5C181.2,-101.91 209.34,-89.12 229.85,-79.8"/>
<polygon fill="midnightblue" stroke="midnightblue" points="231.31,-82.98 238.96,-75.65 228.41,-76.6 231.31,-82.98"/>
</g>
<!-- Node4&#45;&gt;Node2 -->
<g id="edge5" class="edge">
<title>Node4&#45;&gt;Node2</title>
<path fill="none" stroke="midnightblue" d="M222.51,-56.44C183.33,-47 120.24,-31.79 77.97,-21.6"/>
<polygon fill="midnightblue" stroke="midnightblue" points="78.77,-18.19 68.23,-19.25 77.13,-25 78.77,-18.19"/>
</g>
<!-- Node4&#45;&gt;Node3 -->
<g id="edge6" class="edge">
<title>Node4&#45;&gt;Node3</title>
<path fill="none" stroke="midnightblue" d="M235.34,-56.44C211.6,-47.48 174.09,-33.31 147.26,-23.18"/>
<polygon fill="midnightblue" stroke="midnightblue" points="148.14,-19.77 137.55,-19.52 145.67,-26.32 148.14,-19.77"/>
</g>
<!-- Node5 -->
<g id="node5" class="node">
<title>Node5</title>
<g id="a_node5"><a xlink:title=" ">
<polygon fill="white" stroke="#bfbfbf" points="162,-0.5 162,-19.5 212,-19.5 212,-0.5 162,-0.5"/>
<text text-anchor="middle" x="187" y="-7.5" font-family="Helvetica,sans-Serif" font-size="10.00">cstdint</text>
</a>
</g>
</g>
<!-- Node4&#45;&gt;Node5 -->
<g id="edge4" class="edge">
<title>Node4&#45;&gt;Node5</title>
<path fill="none" stroke="midnightblue" d="M246.59,-56.32C235.89,-48.18 219.66,-35.84 206.84,-26.09"/>
<polygon fill="midnightblue" stroke="midnightblue" points="208.69,-23.1 198.61,-19.83 204.46,-28.67 208.69,-23.1"/>
</g>
<!-- Node6 -->
<g id="node6" class="node">
<title>Node6</title>
<g id="a_node6"><a xlink:title=" ">
<polygon fill="white" stroke="#bfbfbf" points="230,-0.5 230,-19.5 286,-19.5 286,-0.5 230,-0.5"/>
<text text-anchor="middle" x="258" y="-7.5" font-family="Helvetica,sans-Serif" font-size="10.00">optional</text>
</a>
</g>
</g>
<!-- Node4&#45;&gt;Node6 -->
<g id="edge7" class="edge">
<title>Node4&#45;&gt;Node6</title>
<path fill="none" stroke="midnightblue" d="M258,-56.08C258,-49.01 258,-38.86 258,-29.99"/>
<polygon fill="midnightblue" stroke="midnightblue" points="261.5,-29.75 258,-19.75 254.5,-29.75 261.5,-29.75"/>
</g>
<!-- Node7 -->
<g id="node7" class="node">
<title>Node7</title>
<g id="a_node7"><a xlink:title=" ">
<polygon fill="white" stroke="#bfbfbf" points="304,-0.5 304,-19.5 348,-19.5 348,-0.5 304,-0.5"/>
<text text-anchor="middle" x="326" y="-7.5" font-family="Helvetica,sans-Serif" font-size="10.00">string</text>
</a>
</g>
</g>
<!-- Node4&#45;&gt;Node7 -->
<g id="edge8" class="edge">
<title>Node4&#45;&gt;Node7</title>
<path fill="none" stroke="midnightblue" d="M268.93,-56.32C279.17,-48.18 294.72,-35.84 307,-26.09"/>
<polygon fill="midnightblue" stroke="midnightblue" points="309.22,-28.79 314.88,-19.83 304.87,-23.31 309.22,-28.79"/>
</g>
<!-- Node8 -->
<g id="node8" class="node">
<title>Node8</title>
<g id="a_node8"><a xlink:title=" ">
<polygon fill="white" stroke="#bfbfbf" points="366.5,-0.5 366.5,-19.5 459.5,-19.5 459.5,-0.5 366.5,-0.5"/>
<text text-anchor="middle" x="413" y="-7.5" font-family="Helvetica,sans-Serif" font-size="10.00">unordered_map</text>
</a>
</g>
</g>
<!-- Node4&#45;&gt;Node8 -->
<g id="edge9" class="edge">
<title>Node4&#45;&gt;Node8</title>
<path fill="none" stroke="midnightblue" d="M282.56,-56.44C308.52,-47.4 349.67,-33.06 378.8,-22.92"/>
<polygon fill="midnightblue" stroke="midnightblue" points="380.26,-26.11 388.55,-19.52 377.96,-19.5 380.26,-26.11"/>
</g>
<!-- Node9 -->
<g id="node9" class="node">
<title>Node9</title>
<g id="a_node9"><a xlink:title=" ">
<polygon fill="white" stroke="#bfbfbf" points="477.5,-0.5 477.5,-19.5 528.5,-19.5 528.5,-0.5 477.5,-0.5"/>
<text text-anchor="middle" x="503" y="-7.5" font-family="Helvetica,sans-Serif" font-size="10.00">variant</text>
</a>
</g>
</g>
<!-- Node4&#45;&gt;Node9 -->
<g id="edge10" class="edge">
<title>Node4&#45;&gt;Node9</title>
<path fill="none" stroke="midnightblue" d="M300.97,-56.47C341.54,-48.28 404.3,-35.24 467.3,-20.33"/>
<polygon fill="midnightblue" stroke="midnightblue" points="468.5,-23.64 477.41,-17.92 466.87,-16.83 468.5,-23.64"/>
</g>
<!-- Node10 -->
<g id="node10" class="node">
<title>Node10</title>
<g id="a_node10"><a xlink:title=" ">
<polygon fill="white" stroke="#bfbfbf" points="547,-0.5 547,-19.5 701,-19.5 701,-0.5 547,-0.5"/>
<text text-anchor="middle" x="624" y="-7.5" font-family="Helvetica,sans-Serif" font-size="10.00">boost/core/noncopyable.hpp</text>
</a>
</g>
</g>
<!-- Node4&#45;&gt;Node10 -->
<g id="edge11" class="edge">
<title>Node4&#45;&gt;Node10</title>
<path fill="none" stroke="midnightblue" d="M315.99,-56.44C381.31,-46.81 487.34,-31.16 556.37,-20.98"/>
<polygon fill="midnightblue" stroke="midnightblue" points="556.9,-24.44 566.28,-19.52 555.87,-17.51 556.9,-24.44"/>
</g>
</g>
</svg>
