<?xml version="1.0" encoding="UTF-8" standalone="no"?>
<!DOCTYPE svg PUBLIC "-//W3C//DTD SVG 1.1//EN"
 "http://www.w3.org/Graphics/SVG/1.1/DTD/svg11.dtd">
<!-- Generated by graphviz version 2.43.0 (0)
 -->
<!-- Title: library/platform_dependent/cpp/include/tetengo/platform_dependent/propertyX.hpp Pages: 1 -->
<svg width="324pt" height="106pt"
 viewBox="0.00 0.00 324.00 106.00" xmlns="http://www.w3.org/2000/svg" xmlns:xlink="http://www.w3.org/1999/xlink">
<g id="graph0" class="graph" transform="scale(1 1) rotate(0) translate(4 102)">
<title>library/platform_dependent/cpp/include/tetengo/platform_dependent/propertyX.hpp</title>
<polygon fill="white" stroke="transparent" points="-4,4 -4,-102 320,-102 320,4 -4,4"/>
<!-- Node1 -->
<g id="node1" class="node">
<title>Node1</title>
<g id="a_node1"><a xlink:title="A property set file path.">
<polygon fill="#bfbfbf" stroke="black" points="34.5,-56.5 34.5,-97.5 195.5,-97.5 195.5,-56.5 34.5,-56.5"/>
<text text-anchor="start" x="42.5" y="-85.5" font-family="Helvetica,sans-Serif" font-size="10.00">library/platform_dependent</text>
<text text-anchor="start" x="42.5" y="-74.5" font-family="Helvetica,sans-Serif" font-size="10.00">/cpp/include/tetengo/platform</text>
<text text-anchor="middle" x="115" y="-63.5" font-family="Helvetica,sans-Serif" font-size="10.00">_dependent/propertyX.hpp</text>
</a>
</g>
</g>
<!-- Node2 -->
<g id="node2" class="node">
<title>Node2</title>
<g id="a_node2"><a xlink:title=" ">
<polygon fill="white" stroke="#bfbfbf" points="0,-0.5 0,-19.5 68,-19.5 68,-0.5 0,-0.5"/>
<text text-anchor="middle" x="34" y="-7.5" font-family="Helvetica,sans-Serif" font-size="10.00">filesystem</text>
</a>
</g>
</g>
<!-- Node1&#45;&gt;Node2 -->
<g id="edge1" class="edge">
<title>Node1&#45;&gt;Node2</title>
<path fill="none" stroke="midnightblue" d="M90.7,-56.5C78.52,-46.72 64,-35.07 52.7,-26.01"/>
<polygon fill="midnightblue" stroke="midnightblue" points="54.77,-23.18 44.78,-19.65 50.39,-28.64 54.77,-23.18"/>
</g>
<!-- Node3 -->
<g id="node3" class="node">
<title>Node3</title>
<g id="a_node3"><a xlink:title=" ">
<polygon fill="white" stroke="#bfbfbf" points="86,-0.5 86,-19.5 144,-19.5 144,-0.5 86,-0.5"/>
<text text-anchor="middle" x="115" y="-7.5" font-family="Helvetica,sans-Serif" font-size="10.00">memory</text>
</a>
</g>
</g>
<!-- Node1&#45;&gt;Node3 -->
<g id="edge2" class="edge">
<title>Node1&#45;&gt;Node3</title>
<path fill="none" stroke="midnightblue" d="M115,-56.5C115,-48.07 115,-38.24 115,-29.87"/>
<polygon fill="midnightblue" stroke="midnightblue" points="118.5,-29.65 115,-19.65 111.5,-29.65 118.5,-29.65"/>
</g>
<!-- Node4 -->
<g id="node4" class="node">
<title>Node4</title>
<g id="a_node4"><a xlink:title=" ">
<polygon fill="white" stroke="#bfbfbf" points="162,-0.5 162,-19.5 316,-19.5 316,-0.5 162,-0.5"/>
<text text-anchor="middle" x="239" y="-7.5" font-family="Helvetica,sans-Serif" font-size="10.00">boost/core/noncopyable.hpp</text>
</a>
</g>
</g>
<!-- Node1&#45;&gt;Node4 -->
<g id="edge3" class="edge">
<title>Node1&#45;&gt;Node4</title>
<path fill="none" stroke="midnightblue" d="M152.2,-56.5C171.95,-46.15 195.71,-33.69 213.37,-24.43"/>
<polygon fill="midnightblue" stroke="midnightblue" points="215.26,-27.4 222.49,-19.65 212.01,-21.2 215.26,-27.4"/>
</g>
</g>
</svg>
