<?xml version="1.0" encoding="UTF-8" standalone="no"?>
<!DOCTYPE svg PUBLIC "-//W3C//DTD SVG 1.1//EN"
 "http://www.w3.org/Graphics/SVG/1.1/DTD/svg11.dtd">
<!-- Generated by graphviz version 2.43.0 (0)
 -->
<!-- Title: library/property/c/include/tetengo/property/propertySet.h Pages: 1 -->
<svg width="261pt" height="162pt"
 viewBox="0.00 0.00 260.50 162.00" xmlns="http://www.w3.org/2000/svg" xmlns:xlink="http://www.w3.org/1999/xlink">
<g id="graph0" class="graph" transform="scale(1 1) rotate(0) translate(4 158)">
<title>library/property/c/include/tetengo/property/propertySet.h</title>
<polygon fill="white" stroke="transparent" points="-4,4 -4,-158 256.5,-158 256.5,4 -4,4"/>
<!-- Node1 -->
<g id="node1" class="node">
<title>Node1</title>
<g id="a_node1"><a xlink:title="A property set.">
<polygon fill="#bfbfbf" stroke="black" points="84,-112.5 84,-153.5 224,-153.5 224,-112.5 84,-112.5"/>
<text text-anchor="start" x="92" y="-141.5" font-family="Helvetica,sans-Serif" font-size="10.00">library/property/c</text>
<text text-anchor="start" x="92" y="-130.5" font-family="Helvetica,sans-Serif" font-size="10.00">/include/tetengo/property</text>
<text text-anchor="middle" x="154" y="-119.5" font-family="Helvetica,sans-Serif" font-size="10.00">/propertySet.h</text>
</a>
</g>
</g>
<!-- Node2 -->
<g id="node2" class="node">
<title>Node2</title>
<g id="a_node2"><a xlink:title=" ">
<polygon fill="white" stroke="#bfbfbf" points="0,-0.5 0,-19.5 62,-19.5 62,-0.5 0,-0.5"/>
<text text-anchor="middle" x="31" y="-7.5" font-family="Helvetica,sans-Serif" font-size="10.00">stdbool.h</text>
</a>
</g>
</g>
<!-- Node1&#45;&gt;Node2 -->
<g id="edge1" class="edge">
<title>Node1&#45;&gt;Node2</title>
<path fill="none" stroke="midnightblue" d="M83.75,-119.3C59.37,-111.16 34.53,-97.83 20,-76 10.71,-62.05 15.65,-42.79 21.58,-28.86"/>
<polygon fill="midnightblue" stroke="midnightblue" points="24.75,-30.34 25.88,-19.81 18.42,-27.34 24.75,-30.34"/>
</g>
<!-- Node3 -->
<g id="node3" class="node">
<title>Node3</title>
<g id="a_node3"><a xlink:title=" ">
<polygon fill="white" stroke="#bfbfbf" points="92,-0.5 92,-19.5 148,-19.5 148,-0.5 92,-0.5"/>
<text text-anchor="middle" x="120" y="-7.5" font-family="Helvetica,sans-Serif" font-size="10.00">stddef.h</text>
</a>
</g>
</g>
<!-- Node1&#45;&gt;Node3 -->
<g id="edge2" class="edge">
<title>Node1&#45;&gt;Node3</title>
<path fill="none" stroke="midnightblue" d="M172.06,-112.2C183.98,-96.6 195.77,-74.48 186,-56 178.58,-41.95 164.58,-31.47 151.38,-24.17"/>
<polygon fill="midnightblue" stroke="midnightblue" points="152.96,-21.04 142.46,-19.62 149.78,-27.28 152.96,-21.04"/>
</g>
<!-- Node4 -->
<g id="node4" class="node">
<title>Node4</title>
<g id="a_node4"><a xlink:title=" ">
<polygon fill="white" stroke="#bfbfbf" points="199.5,-0.5 199.5,-19.5 252.5,-19.5 252.5,-0.5 199.5,-0.5"/>
<text text-anchor="middle" x="226" y="-7.5" font-family="Helvetica,sans-Serif" font-size="10.00">stdint.h</text>
</a>
</g>
</g>
<!-- Node1&#45;&gt;Node4 -->
<g id="edge3" class="edge">
<title>Node1&#45;&gt;Node4</title>
<path fill="none" stroke="midnightblue" d="M173.15,-112.49C182.45,-102.25 193.26,-89.12 201,-76 209.63,-61.35 216.33,-43.18 220.61,-29.78"/>
<polygon fill="midnightblue" stroke="midnightblue" points="224.07,-30.41 223.62,-19.83 217.37,-28.38 224.07,-30.41"/>
</g>
<!-- Node5 -->
<g id="node5" class="node">
<title>Node5</title>
<g id="a_node5"><a xlink:href="property_2c_2include_2tetengo_2property_2storage_8h.html" target="_top" xlink:title="A storage.">
<polygon fill="white" stroke="black" points="29.5,-56.5 29.5,-75.5 176.5,-75.5 176.5,-56.5 29.5,-56.5"/>
<text text-anchor="middle" x="103" y="-63.5" font-family="Helvetica,sans-Serif" font-size="10.00">tetengo/property/storage.h</text>
</a>
</g>
</g>
<!-- Node1&#45;&gt;Node5 -->
<g id="edge4" class="edge">
<title>Node1&#45;&gt;Node5</title>
<path fill="none" stroke="midnightblue" d="M138.7,-112.5C131.48,-103.3 122.96,-92.44 116.05,-83.63"/>
<polygon fill="midnightblue" stroke="midnightblue" points="118.72,-81.36 109.79,-75.65 113.21,-85.68 118.72,-81.36"/>
</g>
<!-- Node5&#45;&gt;Node2 -->
<g id="edge5" class="edge">
<title>Node5&#45;&gt;Node2</title>
<path fill="none" stroke="midnightblue" d="M91.43,-56.32C80.58,-48.18 64.12,-35.84 51.12,-26.09"/>
<polygon fill="midnightblue" stroke="midnightblue" points="52.88,-23.03 42.78,-19.83 48.68,-28.63 52.88,-23.03"/>
</g>
<!-- Node5&#45;&gt;Node3 -->
<g id="edge6" class="edge">
<title>Node5&#45;&gt;Node3</title>
<path fill="none" stroke="midnightblue" d="M105.81,-56.08C108.08,-48.85 111.37,-38.41 114.21,-29.4"/>
<polygon fill="midnightblue" stroke="midnightblue" points="117.58,-30.34 117.25,-19.75 110.9,-28.24 117.58,-30.34"/>
</g>
<!-- Node5&#45;&gt;Node4 -->
<g id="edge7" class="edge">
<title>Node5&#45;&gt;Node4</title>
<path fill="none" stroke="midnightblue" d="M122.49,-56.44C142.64,-47.6 174.32,-33.69 197.33,-23.59"/>
<polygon fill="midnightblue" stroke="midnightblue" points="198.85,-26.74 206.6,-19.52 196.04,-20.33 198.85,-26.74"/>
</g>
</g>
</svg>
