<?xml version="1.0" encoding="UTF-8" standalone="no"?>
<!DOCTYPE svg PUBLIC "-//W3C//DTD SVG 1.1//EN"
 "http://www.w3.org/Graphics/SVG/1.1/DTD/svg11.dtd">
<!-- Generated by graphviz version 2.43.0 (0)
 -->
<!-- Title: library/json/cpp/include/tetengo/json/reader.hpp Pages: 1 -->
<svg width="551pt" height="115pt"
 viewBox="0.00 0.00 550.50 115.00" xmlns="http://www.w3.org/2000/svg" xmlns:xlink="http://www.w3.org/1999/xlink">
<g id="graph0" class="graph" transform="scale(1 1) rotate(0) translate(4 111)">
<title>library/json/cpp/include/tetengo/json/reader.hpp</title>
<!-- Node1 -->
<g id="node1" class="node">
<title>Node1</title>
<g id="a_node1"><a xlink:title="A reader.">
<polygon fill="#999999" stroke="#666666" points="342.5,-107 207.5,-107 207.5,-77 342.5,-77 342.5,-107"/>
<text text-anchor="start" x="215.5" y="-95" font-family="Helvetica,sans-Serif" font-size="10.00">library/json/cpp/include</text>
<text text-anchor="middle" x="275" y="-84" font-family="Helvetica,sans-Serif" font-size="10.00">/tetengo/json/reader.hpp</text>
</a>
</g>
</g>
<!-- Node2 -->
<g id="node2" class="node">
<title>Node2</title>
<g id="a_node2"><a xlink:href="comment__removing__reader_8hpp.html" target="_top" xlink:title="A comment removing reader.">
<polygon fill="white" stroke="#666666" points="182,-41 0,-41 0,0 182,0 182,-41"/>
<text text-anchor="start" x="8" y="-29" font-family="Helvetica,sans-Serif" font-size="10.00">library/json/cpp/include</text>
<text text-anchor="start" x="8" y="-18" font-family="Helvetica,sans-Serif" font-size="10.00">/tetengo/json/comment_removing</text>
<text text-anchor="middle" x="91" y="-7" font-family="Helvetica,sans-Serif" font-size="10.00">_reader.hpp</text>
</a>
</g>
</g>
<!-- Node1&#45;&gt;Node2 -->
<g id="edge1" class="edge">
<title>Node1&#45;&gt;Node2</title>
<path fill="none" stroke="#63b8ff" d="M228.12,-73.29C202.08,-63.46 169.62,-51.2 142.82,-41.07"/>
<polygon fill="#63b8ff" stroke="#63b8ff" points="227.17,-76.68 237.76,-76.94 229.65,-70.13 227.17,-76.68"/>
</g>
<!-- Node3 -->
<g id="node3" class="node">
<title>Node3</title>
<g id="a_node3"><a xlink:href="line__counting__reader_8hpp.html" target="_top" xlink:title="A line counting reader.">
<polygon fill="white" stroke="#666666" points="349.5,-41 200.5,-41 200.5,0 349.5,0 349.5,-41"/>
<text text-anchor="start" x="208.5" y="-29" font-family="Helvetica,sans-Serif" font-size="10.00">library/json/cpp/include</text>
<text text-anchor="start" x="208.5" y="-18" font-family="Helvetica,sans-Serif" font-size="10.00">/tetengo/json/line_counting</text>
<text text-anchor="middle" x="275" y="-7" font-family="Helvetica,sans-Serif" font-size="10.00">_reader.hpp</text>
</a>
</g>
</g>
<!-- Node1&#45;&gt;Node3 -->
<g id="edge2" class="edge">
<title>Node1&#45;&gt;Node3</title>
<path fill="none" stroke="#63b8ff" d="M275,-66.91C275,-58.47 275,-49.1 275,-41.07"/>
<polygon fill="#63b8ff" stroke="#63b8ff" points="271.5,-66.94 275,-76.94 278.5,-66.94 271.5,-66.94"/>
</g>
<!-- Node4 -->
<g id="node4" class="node">
<title>Node4</title>
<g id="a_node4"><a xlink:href="stream__reader_8hpp.html" target="_top" xlink:title="A stream reader.">
<polygon fill="white" stroke="#666666" points="542.5,-35.5 367.5,-35.5 367.5,-5.5 542.5,-5.5 542.5,-35.5"/>
<text text-anchor="start" x="375.5" y="-23.5" font-family="Helvetica,sans-Serif" font-size="10.00">library/json/cpp/include</text>
<text text-anchor="middle" x="455" y="-12.5" font-family="Helvetica,sans-Serif" font-size="10.00">/tetengo/json/stream_reader.hpp</text>
</a>
</g>
</g>
<!-- Node1&#45;&gt;Node4 -->
<g id="edge3" class="edge">
<title>Node1&#45;&gt;Node4</title>
<path fill="none" stroke="#63b8ff" d="M320.94,-73.26C351.27,-61.55 390.46,-46.42 418.63,-35.54"/>
<polygon fill="#63b8ff" stroke="#63b8ff" points="319.49,-70.07 311.43,-76.94 322.02,-76.6 319.49,-70.07"/>
</g>
</g>
</svg>
