<?xml version="1.0" encoding="UTF-8" standalone="no"?>
<!DOCTYPE svg PUBLIC "-//W3C//DTD SVG 1.1//EN"
 "http://www.w3.org/Graphics/SVG/1.1/DTD/svg11.dtd">
<!-- Generated by graphviz version 2.43.0 (0)
 -->
<!-- Title: library/json/cpp/include/tetengo/json/reader.hpp Pages: 1 -->
<svg width="551pt" height="117pt"
 viewBox="0.00 0.00 550.50 117.00" xmlns="http://www.w3.org/2000/svg" xmlns:xlink="http://www.w3.org/1999/xlink">
<g id="graph0" class="graph" transform="scale(1 1) rotate(0) translate(4 113)">
<title>library/json/cpp/include/tetengo/json/reader.hpp</title>
<polygon fill="white" stroke="transparent" points="-4,4 -4,-113 546.5,-113 546.5,4 -4,4"/>
<!-- Node1 -->
<g id="node1" class="node">
<title>Node1</title>
<g id="a_node1"><a xlink:title="A reader.">
<polygon fill="#bfbfbf" stroke="black" points="207.5,-78.5 207.5,-108.5 342.5,-108.5 342.5,-78.5 207.5,-78.5"/>
<text text-anchor="start" x="215.5" y="-96.5" font-family="Helvetica,sans-Serif" font-size="10.00">library/json/cpp/include</text>
<text text-anchor="middle" x="275" y="-85.5" font-family="Helvetica,sans-Serif" font-size="10.00">/tetengo/json/reader.hpp</text>
</a>
</g>
</g>
<!-- Node2 -->
<g id="node2" class="node">
<title>Node2</title>
<g id="a_node2"><a xlink:href="comment__removing__reader_8hpp.html" target="_top" xlink:title="A comment removing reader.">
<polygon fill="white" stroke="black" points="0,-0.5 0,-41.5 182,-41.5 182,-0.5 0,-0.5"/>
<text text-anchor="start" x="8" y="-29.5" font-family="Helvetica,sans-Serif" font-size="10.00">library/json/cpp/include</text>
<text text-anchor="start" x="8" y="-18.5" font-family="Helvetica,sans-Serif" font-size="10.00">/tetengo/json/comment_removing</text>
<text text-anchor="middle" x="91" y="-7.5" font-family="Helvetica,sans-Serif" font-size="10.00">_reader.hpp</text>
</a>
</g>
</g>
<!-- Node1&#45;&gt;Node2 -->
<g id="edge1" class="edge">
<title>Node1&#45;&gt;Node2</title>
<path fill="none" stroke="midnightblue" d="M228.8,-74.8C202.38,-64.68 169.2,-51.96 142.01,-41.55"/>
<polygon fill="midnightblue" stroke="midnightblue" points="227.62,-78.09 238.21,-78.4 230.12,-71.56 227.62,-78.09"/>
</g>
<!-- Node3 -->
<g id="node3" class="node">
<title>Node3</title>
<g id="a_node3"><a xlink:href="line__counting__reader_8hpp.html" target="_top" xlink:title="A line counting reader.">
<polygon fill="white" stroke="black" points="200.5,-0.5 200.5,-41.5 349.5,-41.5 349.5,-0.5 200.5,-0.5"/>
<text text-anchor="start" x="208.5" y="-29.5" font-family="Helvetica,sans-Serif" font-size="10.00">library/json/cpp/include</text>
<text text-anchor="start" x="208.5" y="-18.5" font-family="Helvetica,sans-Serif" font-size="10.00">/tetengo/json/line_counting</text>
<text text-anchor="middle" x="275" y="-7.5" font-family="Helvetica,sans-Serif" font-size="10.00">_reader.hpp</text>
</a>
</g>
</g>
<!-- Node1&#45;&gt;Node3 -->
<g id="edge2" class="edge">
<title>Node1&#45;&gt;Node3</title>
<path fill="none" stroke="midnightblue" d="M275,-67.98C275,-59.35 275,-49.76 275,-41.59"/>
<polygon fill="midnightblue" stroke="midnightblue" points="271.5,-68.23 275,-78.23 278.5,-68.23 271.5,-68.23"/>
</g>
<!-- Node4 -->
<g id="node4" class="node">
<title>Node4</title>
<g id="a_node4"><a xlink:href="stream__reader_8hpp.html" target="_top" xlink:title="A stream reader.">
<polygon fill="white" stroke="black" points="367.5,-6 367.5,-36 542.5,-36 542.5,-6 367.5,-6"/>
<text text-anchor="start" x="375.5" y="-24" font-family="Helvetica,sans-Serif" font-size="10.00">library/json/cpp/include</text>
<text text-anchor="middle" x="455" y="-13" font-family="Helvetica,sans-Serif" font-size="10.00">/tetengo/json/stream_reader.hpp</text>
</a>
</g>
</g>
<!-- Node1&#45;&gt;Node4 -->
<g id="edge3" class="edge">
<title>Node1&#45;&gt;Node4</title>
<path fill="none" stroke="midnightblue" d="M320.56,-74.65C351.1,-62.69 390.76,-47.16 419.07,-36.07"/>
<polygon fill="midnightblue" stroke="midnightblue" points="319.03,-71.5 310.99,-78.4 321.58,-78.01 319.03,-71.5"/>
</g>
</g>
</svg>
