<?xml version="1.0" encoding="UTF-8" standalone="no"?>
<!DOCTYPE svg PUBLIC "-//W3C//DTD SVG 1.1//EN"
 "http://www.w3.org/Graphics/SVG/1.1/DTD/svg11.dtd">
<!-- Generated by graphviz version 2.43.0 (0)
 -->
<!-- Title: library/property/cpp/include/tetengo/property/storage_proxy.hpp Pages: 1 -->
<svg width="709pt" height="159pt"
 viewBox="0.00 0.00 709.00 159.00" xmlns="http://www.w3.org/2000/svg" xmlns:xlink="http://www.w3.org/1999/xlink">
<g id="graph0" class="graph" transform="scale(1 1) rotate(0) translate(4 155)">
<title>library/property/cpp/include/tetengo/property/storage_proxy.hpp</title>
<!-- Node1 -->
<g id="node1" class="node">
<title>Node1</title>
<g id="a_node1"><a xlink:title="A storage proxy.">
<polygon fill="#999999" stroke="#666666" points="272,-151 132,-151 132,-110 272,-110 272,-151"/>
<text text-anchor="start" x="140" y="-139" font-family="Helvetica,sans-Serif" font-size="10.00">library/property/cpp</text>
<text text-anchor="start" x="140" y="-128" font-family="Helvetica,sans-Serif" font-size="10.00">/include/tetengo/property</text>
<text text-anchor="middle" x="202" y="-117" font-family="Helvetica,sans-Serif" font-size="10.00">/storage_proxy.hpp</text>
</a>
</g>
</g>
<!-- Node2 -->
<g id="node2" class="node">
<title>Node2</title>
<g id="a_node2"><a xlink:title=" ">
<polygon fill="#e0e0e0" stroke="#999999" points="50,-19 0,-19 0,0 50,0 50,-19"/>
<text text-anchor="middle" x="25" y="-7" font-family="Helvetica,sans-Serif" font-size="10.00">cstdint</text>
</a>
</g>
</g>
<!-- Node1&#45;&gt;Node2 -->
<g id="edge1" class="edge">
<title>Node1&#45;&gt;Node2</title>
<path fill="none" stroke="#63b8ff" d="M172.77,-109.85C137.2,-85.94 78,-46.13 46.4,-24.89"/>
<polygon fill="#63b8ff" stroke="#63b8ff" points="48.15,-21.85 37.9,-19.18 44.25,-27.66 48.15,-21.85"/>
</g>
<!-- Node3 -->
<g id="node3" class="node">
<title>Node3</title>
<g id="a_node3"><a xlink:title=" ">
<polygon fill="#e0e0e0" stroke="#999999" points="136,-19 68,-19 68,0 136,0 136,-19"/>
<text text-anchor="middle" x="102" y="-7" font-family="Helvetica,sans-Serif" font-size="10.00">filesystem</text>
</a>
</g>
</g>
<!-- Node1&#45;&gt;Node3 -->
<g id="edge2" class="edge">
<title>Node1&#45;&gt;Node3</title>
<path fill="none" stroke="#63b8ff" d="M185.49,-109.85C166,-86.65 133.94,-48.51 115.74,-26.85"/>
<polygon fill="#63b8ff" stroke="#63b8ff" points="118.4,-24.58 109.29,-19.18 113.04,-29.08 118.4,-24.58"/>
</g>
<!-- Node4 -->
<g id="node4" class="node">
<title>Node4</title>
<g id="a_node4"><a xlink:title=" ">
<polygon fill="#e0e0e0" stroke="#999999" points="212,-19 154,-19 154,0 212,0 212,-19"/>
<text text-anchor="middle" x="183" y="-7" font-family="Helvetica,sans-Serif" font-size="10.00">memory</text>
</a>
</g>
</g>
<!-- Node1&#45;&gt;Node4 -->
<g id="edge3" class="edge">
<title>Node1&#45;&gt;Node4</title>
<path fill="none" stroke="#63b8ff" d="M198.86,-109.85C195.29,-87.48 189.5,-51.19 185.99,-29.21"/>
<polygon fill="#63b8ff" stroke="#63b8ff" points="189.42,-28.5 184.39,-19.18 182.51,-29.6 189.42,-28.5"/>
</g>
<!-- Node5 -->
<g id="node5" class="node">
<title>Node5</title>
<g id="a_node5"><a xlink:title=" ">
<polygon fill="#e0e0e0" stroke="#999999" points="286,-19 230,-19 230,0 286,0 286,-19"/>
<text text-anchor="middle" x="258" y="-7" font-family="Helvetica,sans-Serif" font-size="10.00">optional</text>
</a>
</g>
</g>
<!-- Node1&#45;&gt;Node5 -->
<g id="edge4" class="edge">
<title>Node1&#45;&gt;Node5</title>
<path fill="none" stroke="#63b8ff" d="M211.25,-109.85C221.92,-87.17 239.32,-50.19 249.62,-28.31"/>
<polygon fill="#63b8ff" stroke="#63b8ff" points="252.83,-29.71 253.92,-19.18 246.49,-26.73 252.83,-29.71"/>
</g>
<!-- Node6 -->
<g id="node6" class="node">
<title>Node6</title>
<g id="a_node6"><a xlink:title=" ">
<polygon fill="#e0e0e0" stroke="#999999" points="701,-19 657,-19 657,0 701,0 701,-19"/>
<text text-anchor="middle" x="679" y="-7" font-family="Helvetica,sans-Serif" font-size="10.00">string</text>
</a>
</g>
</g>
<!-- Node1&#45;&gt;Node6 -->
<g id="edge5" class="edge">
<title>Node1&#45;&gt;Node6</title>
<path fill="none" stroke="#63b8ff" d="M272.05,-112.71C357.93,-92 508.18,-55.36 646.71,-19.29"/>
<polygon fill="#63b8ff" stroke="#63b8ff" points="647.87,-22.6 656.67,-16.69 646.11,-15.83 647.87,-22.6"/>
</g>
<!-- Node7 -->
<g id="node7" class="node">
<title>Node7</title>
<g id="a_node7"><a xlink:href="property_2cpp_2include_2tetengo_2property_2storage_8hpp.html" target="_top" xlink:title="A storage.">
<polygon fill="white" stroke="#666666" points="407.5,-74 248.5,-74 248.5,-55 407.5,-55 407.5,-74"/>
<text text-anchor="middle" x="328" y="-62" font-family="Helvetica,sans-Serif" font-size="10.00">tetengo/property/storage.hpp</text>
</a>
</g>
</g>
<!-- Node1&#45;&gt;Node7 -->
<g id="edge6" class="edge">
<title>Node1&#45;&gt;Node7</title>
<path fill="none" stroke="#63b8ff" d="M240.49,-109.95C260.4,-99.84 284.17,-87.76 301.91,-78.75"/>
<polygon fill="#63b8ff" stroke="#63b8ff" points="303.75,-81.74 311.08,-74.09 300.58,-75.5 303.75,-81.74"/>
</g>
<!-- Node7&#45;&gt;Node2 -->
<g id="edge7" class="edge">
<title>Node7&#45;&gt;Node2</title>
<path fill="none" stroke="#63b8ff" d="M267.91,-54.99C215.47,-47.23 137.13,-34.87 60.08,-19.08"/>
<polygon fill="#63b8ff" stroke="#63b8ff" points="60.7,-15.64 50.2,-17.04 59.28,-22.49 60.7,-15.64"/>
</g>
<!-- Node7&#45;&gt;Node3 -->
<g id="edge8" class="edge">
<title>Node7&#45;&gt;Node3</title>
<path fill="none" stroke="#63b8ff" d="M291.69,-54.98C251.95,-45.67 188.26,-30.73 145.79,-20.77"/>
<polygon fill="#63b8ff" stroke="#63b8ff" points="146.54,-17.35 136,-18.47 144.94,-24.16 146.54,-17.35"/>
</g>
<!-- Node7&#45;&gt;Node4 -->
<g id="edge9" class="edge">
<title>Node7&#45;&gt;Node4</title>
<path fill="none" stroke="#63b8ff" d="M304.7,-54.98C280.75,-46.23 243.22,-32.51 216.17,-22.62"/>
<polygon fill="#63b8ff" stroke="#63b8ff" points="217.31,-19.32 206.72,-19.17 214.91,-25.89 217.31,-19.32"/>
</g>
<!-- Node7&#45;&gt;Node5 -->
<g id="edge10" class="edge">
<title>Node7&#45;&gt;Node5</title>
<path fill="none" stroke="#63b8ff" d="M316.75,-54.98C306.2,-47 290.2,-34.88 277.56,-25.31"/>
<polygon fill="#63b8ff" stroke="#63b8ff" points="279.54,-22.42 269.45,-19.17 275.31,-28 279.54,-22.42"/>
</g>
<!-- Node7&#45;&gt;Node6 -->
<g id="edge11" class="edge">
<title>Node7&#45;&gt;Node6</title>
<path fill="none" stroke="#63b8ff" d="M407.72,-55.32C470.35,-48.22 559.89,-36.6 646.71,-19.03"/>
<polygon fill="#63b8ff" stroke="#63b8ff" points="647.64,-22.42 656.73,-16.98 646.23,-15.56 647.64,-22.42"/>
</g>
<!-- Node8 -->
<g id="node8" class="node">
<title>Node8</title>
<g id="a_node8"><a xlink:title=" ">
<polygon fill="#e0e0e0" stroke="#999999" points="397.5,-19 304.5,-19 304.5,0 397.5,0 397.5,-19"/>
<text text-anchor="middle" x="351" y="-7" font-family="Helvetica,sans-Serif" font-size="10.00">unordered_map</text>
</a>
</g>
</g>
<!-- Node7&#45;&gt;Node8 -->
<g id="edge12" class="edge">
<title>Node7&#45;&gt;Node8</title>
<path fill="none" stroke="#63b8ff" d="M331.8,-54.75C334.91,-47.57 339.42,-37.18 343.29,-28.27"/>
<polygon fill="#63b8ff" stroke="#63b8ff" points="346.5,-29.66 347.27,-19.09 340.08,-26.87 346.5,-29.66"/>
</g>
<!-- Node9 -->
<g id="node9" class="node">
<title>Node9</title>
<g id="a_node9"><a xlink:title=" ">
<polygon fill="#e0e0e0" stroke="#999999" points="466.5,-19 415.5,-19 415.5,0 466.5,0 466.5,-19"/>
<text text-anchor="middle" x="441" y="-7" font-family="Helvetica,sans-Serif" font-size="10.00">variant</text>
</a>
</g>
</g>
<!-- Node7&#45;&gt;Node9 -->
<g id="edge13" class="edge">
<title>Node7&#45;&gt;Node9</title>
<path fill="none" stroke="#63b8ff" d="M346.16,-54.98C364.25,-46.5 392.28,-33.35 413.19,-23.54"/>
<polygon fill="#63b8ff" stroke="#63b8ff" points="414.95,-26.59 422.51,-19.17 411.97,-20.25 414.95,-26.59"/>
</g>
<!-- Node10 -->
<g id="node10" class="node">
<title>Node10</title>
<g id="a_node10"><a xlink:title=" ">
<polygon fill="#e0e0e0" stroke="#999999" points="639,-19 485,-19 485,0 639,0 639,-19"/>
<text text-anchor="middle" x="562" y="-7" font-family="Helvetica,sans-Serif" font-size="10.00">boost/core/noncopyable.hpp</text>
</a>
</g>
</g>
<!-- Node7&#45;&gt;Node10 -->
<g id="edge14" class="edge">
<title>Node7&#45;&gt;Node10</title>
<path fill="none" stroke="#63b8ff" d="M365.6,-54.98C405.99,-45.84 470.28,-31.27 514.23,-21.32"/>
<polygon fill="#63b8ff" stroke="#63b8ff" points="515.13,-24.7 524.11,-19.08 513.58,-17.88 515.13,-24.7"/>
</g>
</g>
</svg>
