<?xml version="1.0" encoding="UTF-8" standalone="no"?>
<!DOCTYPE svg PUBLIC "-//W3C//DTD SVG 1.1//EN"
 "http://www.w3.org/Graphics/SVG/1.1/DTD/svg11.dtd">
<!-- Generated by graphviz version 2.43.0 (0)
 -->
<!-- Title: library/property/cpp/include/tetengo/property/storage_proxy.hpp Pages: 1 -->
<svg width="709pt" height="162pt"
 viewBox="0.00 0.00 709.00 162.00" xmlns="http://www.w3.org/2000/svg" xmlns:xlink="http://www.w3.org/1999/xlink">
<g id="graph0" class="graph" transform="scale(1 1) rotate(0) translate(4 158)">
<title>library/property/cpp/include/tetengo/property/storage_proxy.hpp</title>
<polygon fill="white" stroke="transparent" points="-4,4 -4,-158 705,-158 705,4 -4,4"/>
<!-- Node1 -->
<g id="node1" class="node">
<title>Node1</title>
<g id="a_node1"><a xlink:title="A storage proxy.">
<polygon fill="#bfbfbf" stroke="black" points="132,-112.5 132,-153.5 272,-153.5 272,-112.5 132,-112.5"/>
<text text-anchor="start" x="140" y="-141.5" font-family="Helvetica,sans-Serif" font-size="10.00">library/property/cpp</text>
<text text-anchor="start" x="140" y="-130.5" font-family="Helvetica,sans-Serif" font-size="10.00">/include/tetengo/property</text>
<text text-anchor="middle" x="202" y="-119.5" font-family="Helvetica,sans-Serif" font-size="10.00">/storage_proxy.hpp</text>
</a>
</g>
</g>
<!-- Node2 -->
<g id="node2" class="node">
<title>Node2</title>
<g id="a_node2"><a xlink:title=" ">
<polygon fill="white" stroke="#bfbfbf" points="0,-0.5 0,-19.5 50,-19.5 50,-0.5 0,-0.5"/>
<text text-anchor="middle" x="25" y="-7.5" font-family="Helvetica,sans-Serif" font-size="10.00">cstdint</text>
</a>
</g>
</g>
<!-- Node1&#45;&gt;Node2 -->
<g id="edge1" class="edge">
<title>Node1&#45;&gt;Node2</title>
<path fill="none" stroke="midnightblue" d="M173.17,-112.29C137.5,-87.91 77.64,-46.99 46.03,-25.38"/>
<polygon fill="midnightblue" stroke="midnightblue" points="47.77,-22.33 37.54,-19.57 43.82,-28.11 47.77,-22.33"/>
</g>
<!-- Node3 -->
<g id="node3" class="node">
<title>Node3</title>
<g id="a_node3"><a xlink:title=" ">
<polygon fill="white" stroke="#bfbfbf" points="68,-0.5 68,-19.5 136,-19.5 136,-0.5 68,-0.5"/>
<text text-anchor="middle" x="102" y="-7.5" font-family="Helvetica,sans-Serif" font-size="10.00">filesystem</text>
</a>
</g>
</g>
<!-- Node1&#45;&gt;Node3 -->
<g id="edge2" class="edge">
<title>Node1&#45;&gt;Node3</title>
<path fill="none" stroke="midnightblue" d="M185.71,-112.29C166.17,-88.64 133.76,-49.43 115.53,-27.38"/>
<polygon fill="midnightblue" stroke="midnightblue" points="118.16,-25.05 109.09,-19.57 112.76,-29.51 118.16,-25.05"/>
</g>
<!-- Node4 -->
<g id="node4" class="node">
<title>Node4</title>
<g id="a_node4"><a xlink:title=" ">
<polygon fill="white" stroke="#bfbfbf" points="154,-0.5 154,-19.5 212,-19.5 212,-0.5 154,-0.5"/>
<text text-anchor="middle" x="183" y="-7.5" font-family="Helvetica,sans-Serif" font-size="10.00">memory</text>
</a>
</g>
</g>
<!-- Node1&#45;&gt;Node4 -->
<g id="edge3" class="edge">
<title>Node1&#45;&gt;Node4</title>
<path fill="none" stroke="midnightblue" d="M198.91,-112.29C195.31,-89.37 189.41,-51.85 185.9,-29.47"/>
<polygon fill="midnightblue" stroke="midnightblue" points="189.36,-28.91 184.35,-19.57 182.44,-30 189.36,-28.91"/>
</g>
<!-- Node5 -->
<g id="node5" class="node">
<title>Node5</title>
<g id="a_node5"><a xlink:title=" ">
<polygon fill="white" stroke="#bfbfbf" points="230,-0.5 230,-19.5 286,-19.5 286,-0.5 230,-0.5"/>
<text text-anchor="middle" x="258" y="-7.5" font-family="Helvetica,sans-Serif" font-size="10.00">optional</text>
</a>
</g>
</g>
<!-- Node1&#45;&gt;Node5 -->
<g id="edge4" class="edge">
<title>Node1&#45;&gt;Node5</title>
<path fill="none" stroke="midnightblue" d="M211.12,-112.29C221.82,-89.17 239.41,-51.16 249.73,-28.86"/>
<polygon fill="midnightblue" stroke="midnightblue" points="253.01,-30.12 254.03,-19.57 246.66,-27.18 253.01,-30.12"/>
</g>
<!-- Node6 -->
<g id="node6" class="node">
<title>Node6</title>
<g id="a_node6"><a xlink:title=" ">
<polygon fill="white" stroke="#bfbfbf" points="657,-0.5 657,-19.5 701,-19.5 701,-0.5 657,-0.5"/>
<text text-anchor="middle" x="679" y="-7.5" font-family="Helvetica,sans-Serif" font-size="10.00">string</text>
</a>
</g>
</g>
<!-- Node1&#45;&gt;Node6 -->
<g id="edge5" class="edge">
<title>Node1&#45;&gt;Node6</title>
<path fill="none" stroke="midnightblue" d="M272.12,-115.23C358.07,-94.49 508.39,-57.6 646.74,-20.27"/>
<polygon fill="midnightblue" stroke="midnightblue" points="647.94,-23.58 656.68,-17.59 646.11,-16.82 647.94,-23.58"/>
</g>
<!-- Node7 -->
<g id="node7" class="node">
<title>Node7</title>
<g id="a_node7"><a xlink:href="property_2cpp_2include_2tetengo_2property_2storage_8hpp.html" target="_top" xlink:title="A storage.">
<polygon fill="white" stroke="black" points="248.5,-56.5 248.5,-75.5 407.5,-75.5 407.5,-56.5 248.5,-56.5"/>
<text text-anchor="middle" x="328" y="-63.5" font-family="Helvetica,sans-Serif" font-size="10.00">tetengo/property/storage.hpp</text>
</a>
</g>
</g>
<!-- Node1&#45;&gt;Node7 -->
<g id="edge6" class="edge">
<title>Node1&#45;&gt;Node7</title>
<path fill="none" stroke="midnightblue" d="M239.8,-112.5C259.87,-102.15 284.01,-89.69 301.96,-80.43"/>
<polygon fill="midnightblue" stroke="midnightblue" points="303.94,-83.35 311.23,-75.65 300.74,-77.13 303.94,-83.35"/>
</g>
<!-- Node7&#45;&gt;Node2 -->
<g id="edge7" class="edge">
<title>Node7&#45;&gt;Node2</title>
<path fill="none" stroke="midnightblue" d="M267.33,-56.5C214.86,-48.77 136.78,-36.38 60.03,-20.06"/>
<polygon fill="midnightblue" stroke="midnightblue" points="60.7,-16.63 50.19,-17.95 59.23,-23.47 60.7,-16.63"/>
</g>
<!-- Node7&#45;&gt;Node3 -->
<g id="edge8" class="edge">
<title>Node7&#45;&gt;Node3</title>
<path fill="none" stroke="midnightblue" d="M292.19,-56.44C252.55,-46.97 188.64,-31.7 145.99,-21.51"/>
<polygon fill="midnightblue" stroke="midnightblue" points="146.7,-18.08 136.16,-19.16 145.08,-24.89 146.7,-18.08"/>
</g>
<!-- Node7&#45;&gt;Node4 -->
<g id="edge9" class="edge">
<title>Node7&#45;&gt;Node4</title>
<path fill="none" stroke="midnightblue" d="M305.02,-56.44C280.84,-47.44 242.58,-33.19 215.35,-23.05"/>
<polygon fill="midnightblue" stroke="midnightblue" points="216.46,-19.73 205.87,-19.52 214.02,-26.29 216.46,-19.73"/>
</g>
<!-- Node7&#45;&gt;Node5 -->
<g id="edge10" class="edge">
<title>Node7&#45;&gt;Node5</title>
<path fill="none" stroke="midnightblue" d="M316.75,-56.32C306.2,-48.18 290.2,-35.84 277.56,-26.09"/>
<polygon fill="midnightblue" stroke="midnightblue" points="279.51,-23.17 269.45,-19.83 275.23,-28.71 279.51,-23.17"/>
</g>
<!-- Node7&#45;&gt;Node6 -->
<g id="edge11" class="edge">
<title>Node7&#45;&gt;Node6</title>
<path fill="none" stroke="midnightblue" d="M407.79,-56.98C470.45,-49.95 560.01,-38.28 646.73,-20.01"/>
<polygon fill="midnightblue" stroke="midnightblue" points="647.7,-23.39 656.75,-17.87 646.24,-16.54 647.7,-23.39"/>
</g>
<!-- Node8 -->
<g id="node8" class="node">
<title>Node8</title>
<g id="a_node8"><a xlink:title=" ">
<polygon fill="white" stroke="#bfbfbf" points="304.5,-0.5 304.5,-19.5 397.5,-19.5 397.5,-0.5 304.5,-0.5"/>
<text text-anchor="middle" x="351" y="-7.5" font-family="Helvetica,sans-Serif" font-size="10.00">unordered_map</text>
</a>
</g>
</g>
<!-- Node7&#45;&gt;Node8 -->
<g id="edge12" class="edge">
<title>Node7&#45;&gt;Node8</title>
<path fill="none" stroke="midnightblue" d="M331.8,-56.08C334.91,-48.77 339.42,-38.18 343.29,-29.1"/>
<polygon fill="midnightblue" stroke="midnightblue" points="346.57,-30.32 347.27,-19.75 340.13,-27.58 346.57,-30.32"/>
</g>
<!-- Node9 -->
<g id="node9" class="node">
<title>Node9</title>
<g id="a_node9"><a xlink:title=" ">
<polygon fill="white" stroke="#bfbfbf" points="415.5,-0.5 415.5,-19.5 466.5,-19.5 466.5,-0.5 415.5,-0.5"/>
<text text-anchor="middle" x="441" y="-7.5" font-family="Helvetica,sans-Serif" font-size="10.00">variant</text>
</a>
</g>
</g>
<!-- Node7&#45;&gt;Node9 -->
<g id="edge13" class="edge">
<title>Node7&#45;&gt;Node9</title>
<path fill="none" stroke="midnightblue" d="M345.91,-56.44C364.25,-47.68 393.01,-33.94 414.09,-23.86"/>
<polygon fill="midnightblue" stroke="midnightblue" points="415.67,-26.99 423.18,-19.52 412.65,-20.67 415.67,-26.99"/>
</g>
<!-- Node10 -->
<g id="node10" class="node">
<title>Node10</title>
<g id="a_node10"><a xlink:title=" ">
<polygon fill="white" stroke="#bfbfbf" points="485,-0.5 485,-19.5 639,-19.5 639,-0.5 485,-0.5"/>
<text text-anchor="middle" x="562" y="-7.5" font-family="Helvetica,sans-Serif" font-size="10.00">boost/core/noncopyable.hpp</text>
</a>
</g>
</g>
<!-- Node7&#45;&gt;Node10 -->
<g id="edge14" class="edge">
<title>Node7&#45;&gt;Node10</title>
<path fill="none" stroke="midnightblue" d="M365.08,-56.44C405.73,-47.06 471.03,-31.99 515.18,-21.8"/>
<polygon fill="midnightblue" stroke="midnightblue" points="516.14,-25.18 525.1,-19.52 514.56,-18.35 516.14,-25.18"/>
</g>
</g>
</svg>
