<?xml version="1.0" encoding="UTF-8" standalone="no"?>
<!DOCTYPE svg PUBLIC "-//W3C//DTD SVG 1.1//EN"
 "http://www.w3.org/Graphics/SVG/1.1/DTD/svg11.dtd">
<!-- Generated by graphviz version 2.43.0 (0)
 -->
<!-- Title: library/json/cpp/include/tetengo/json/stream_reader.hpp Pages: 1 -->
<svg width="371pt" height="151pt"
 viewBox="0.00 0.00 370.50 151.00" xmlns="http://www.w3.org/2000/svg" xmlns:xlink="http://www.w3.org/1999/xlink">
<g id="graph0" class="graph" transform="scale(1 1) rotate(0) translate(4 147)">
<title>library/json/cpp/include/tetengo/json/stream_reader.hpp</title>
<polygon fill="white" stroke="transparent" points="-4,4 -4,-147 366.5,-147 366.5,4 -4,4"/>
<!-- Node1 -->
<g id="node1" class="node">
<title>Node1</title>
<g id="a_node1"><a xlink:title="A stream reader.">
<polygon fill="#bfbfbf" stroke="black" points="48,-112.5 48,-142.5 223,-142.5 223,-112.5 48,-112.5"/>
<text text-anchor="start" x="56" y="-130.5" font-family="Helvetica,sans-Serif" font-size="10.00">library/json/cpp/include</text>
<text text-anchor="middle" x="135.5" y="-119.5" font-family="Helvetica,sans-Serif" font-size="10.00">/tetengo/json/stream_reader.hpp</text>
</a>
</g>
</g>
<!-- Node2 -->
<g id="node2" class="node">
<title>Node2</title>
<g id="a_node2"><a xlink:title=" ">
<polygon fill="white" stroke="#bfbfbf" points="0,-56.5 0,-75.5 53,-75.5 53,-56.5 0,-56.5"/>
<text text-anchor="middle" x="26.5" y="-63.5" font-family="Helvetica,sans-Serif" font-size="10.00">cstddef</text>
</a>
</g>
</g>
<!-- Node1&#45;&gt;Node2 -->
<g id="edge1" class="edge">
<title>Node1&#45;&gt;Node2</title>
<path fill="none" stroke="midnightblue" d="M109.67,-112.4C92.03,-102.77 68.8,-90.09 51.37,-80.58"/>
<polygon fill="midnightblue" stroke="midnightblue" points="52.81,-77.38 42.36,-75.66 49.46,-83.52 52.81,-77.38"/>
</g>
<!-- Node3 -->
<g id="node3" class="node">
<title>Node3</title>
<g id="a_node3"><a xlink:title=" ">
<polygon fill="white" stroke="#bfbfbf" points="71.5,-56.5 71.5,-75.5 125.5,-75.5 125.5,-56.5 71.5,-56.5"/>
<text text-anchor="middle" x="98.5" y="-63.5" font-family="Helvetica,sans-Serif" font-size="10.00">istream</text>
</a>
</g>
</g>
<!-- Node1&#45;&gt;Node3 -->
<g id="edge2" class="edge">
<title>Node1&#45;&gt;Node3</title>
<path fill="none" stroke="midnightblue" d="M126.73,-112.4C121.52,-104.02 114.87,-93.33 109.33,-84.42"/>
<polygon fill="midnightblue" stroke="midnightblue" points="112.14,-82.3 103.88,-75.66 106.19,-86 112.14,-82.3"/>
</g>
<!-- Node4 -->
<g id="node4" class="node">
<title>Node4</title>
<g id="a_node4"><a xlink:title=" ">
<polygon fill="white" stroke="#bfbfbf" points="143.5,-56.5 143.5,-75.5 201.5,-75.5 201.5,-56.5 143.5,-56.5"/>
<text text-anchor="middle" x="172.5" y="-63.5" font-family="Helvetica,sans-Serif" font-size="10.00">memory</text>
</a>
</g>
</g>
<!-- Node1&#45;&gt;Node4 -->
<g id="edge3" class="edge">
<title>Node1&#45;&gt;Node4</title>
<path fill="none" stroke="midnightblue" d="M144.27,-112.4C149.48,-104.02 156.13,-93.33 161.67,-84.42"/>
<polygon fill="midnightblue" stroke="midnightblue" points="164.81,-86 167.12,-75.66 158.86,-82.3 164.81,-86"/>
</g>
<!-- Node5 -->
<g id="node5" class="node">
<title>Node5</title>
<g id="a_node5"><a xlink:href="reader_8hpp.html" target="_top" xlink:title="A reader.">
<polygon fill="white" stroke="black" points="219.5,-56.5 219.5,-75.5 351.5,-75.5 351.5,-56.5 219.5,-56.5"/>
<text text-anchor="middle" x="285.5" y="-63.5" font-family="Helvetica,sans-Serif" font-size="10.00">tetengo/json/reader.hpp</text>
</a>
</g>
</g>
<!-- Node1&#45;&gt;Node5 -->
<g id="edge4" class="edge">
<title>Node1&#45;&gt;Node5</title>
<path fill="none" stroke="midnightblue" d="M171.05,-112.4C196.33,-102.37 229.97,-89.03 254.23,-79.4"/>
<polygon fill="midnightblue" stroke="midnightblue" points="255.67,-82.6 263.67,-75.66 253.09,-76.09 255.67,-82.6"/>
</g>
<!-- Node6 -->
<g id="node6" class="node">
<title>Node6</title>
<g id="a_node6"><a xlink:title=" ">
<polygon fill="white" stroke="#bfbfbf" points="208.5,-0.5 208.5,-19.5 362.5,-19.5 362.5,-0.5 208.5,-0.5"/>
<text text-anchor="middle" x="285.5" y="-7.5" font-family="Helvetica,sans-Serif" font-size="10.00">boost/core/noncopyable.hpp</text>
</a>
</g>
</g>
<!-- Node5&#45;&gt;Node6 -->
<g id="edge5" class="edge">
<title>Node5&#45;&gt;Node6</title>
<path fill="none" stroke="midnightblue" d="M285.5,-56.08C285.5,-49.01 285.5,-38.86 285.5,-29.99"/>
<polygon fill="midnightblue" stroke="midnightblue" points="289,-29.75 285.5,-19.75 282,-29.75 289,-29.75"/>
</g>
</g>
</svg>
