<?xml version="1.0" encoding="UTF-8" standalone="no"?>
<!DOCTYPE svg PUBLIC "-//W3C//DTD SVG 1.1//EN"
 "http://www.w3.org/Graphics/SVG/1.1/DTD/svg11.dtd">
<!-- Generated by graphviz version 2.43.0 (0)
 -->
<!-- Title: library/lattice/c/include/tetengo/lattice/stringView.h Pages: 1 -->
<svg width="603pt" height="374pt"
 viewBox="0.00 0.00 603.00 374.00" xmlns="http://www.w3.org/2000/svg" xmlns:xlink="http://www.w3.org/1999/xlink">
<g id="graph0" class="graph" transform="scale(1 1) rotate(0) translate(4 370)">
<title>library/lattice/c/include/tetengo/lattice/stringView.h</title>
<polygon fill="white" stroke="transparent" points="-4,4 -4,-370 599,-370 599,4 -4,4"/>
<!-- Node1 -->
<g id="node1" class="node">
<title>Node1</title>
<g id="a_node1"><a xlink:title="A string view.">
<polygon fill="#bfbfbf" stroke="black" points="107,-335.5 107,-365.5 261,-365.5 261,-335.5 107,-335.5"/>
<text text-anchor="start" x="115" y="-353.5" font-family="Helvetica,sans-Serif" font-size="10.00">library/lattice/c/include</text>
<text text-anchor="middle" x="184" y="-342.5" font-family="Helvetica,sans-Serif" font-size="10.00">/tetengo/lattice/stringView.h</text>
</a>
</g>
</g>
<!-- Node2 -->
<g id="node2" class="node">
<title>Node2</title>
<g id="a_node2"><a xlink:href="entry_8h.html" target="_top" xlink:title="An entry.">
<polygon fill="white" stroke="black" points="120,-268.5 120,-298.5 248,-298.5 248,-268.5 120,-268.5"/>
<text text-anchor="start" x="128" y="-286.5" font-family="Helvetica,sans-Serif" font-size="10.00">library/lattice/c/include</text>
<text text-anchor="middle" x="184" y="-275.5" font-family="Helvetica,sans-Serif" font-size="10.00">/tetengo/lattice/entry.h</text>
</a>
</g>
</g>
<!-- Node1&#45;&gt;Node2 -->
<g id="edge1" class="edge">
<title>Node1&#45;&gt;Node2</title>
<path fill="none" stroke="midnightblue" d="M184,-325.11C184,-316.15 184,-306.32 184,-298.58"/>
<polygon fill="midnightblue" stroke="midnightblue" points="180.5,-325.4 184,-335.4 187.5,-325.4 180.5,-325.4"/>
</g>
<!-- Node3 -->
<g id="node3" class="node">
<title>Node3</title>
<g id="a_node3"><a xlink:href="connection_8h.html" target="_top" xlink:title="A connection.">
<polygon fill="white" stroke="black" points="0,-201.5 0,-231.5 156,-231.5 156,-201.5 0,-201.5"/>
<text text-anchor="start" x="8" y="-219.5" font-family="Helvetica,sans-Serif" font-size="10.00">library/lattice/c/include</text>
<text text-anchor="middle" x="78" y="-208.5" font-family="Helvetica,sans-Serif" font-size="10.00">/tetengo/lattice/connection.h</text>
</a>
</g>
</g>
<!-- Node2&#45;&gt;Node3 -->
<g id="edge2" class="edge">
<title>Node2&#45;&gt;Node3</title>
<path fill="none" stroke="midnightblue" d="M152.22,-263.02C135.73,-252.9 115.95,-240.77 100.96,-231.58"/>
<polygon fill="midnightblue" stroke="midnightblue" points="150.65,-266.15 161,-268.4 154.3,-260.18 150.65,-266.15"/>
</g>
<!-- Node4 -->
<g id="node4" class="node">
<title>Node4</title>
<g id="a_node4"><a xlink:href="vocabulary_8h.html" target="_top" xlink:title="A vocabulary.">
<polygon fill="white" stroke="black" points="35.5,-134.5 35.5,-164.5 190.5,-164.5 190.5,-134.5 35.5,-134.5"/>
<text text-anchor="start" x="43.5" y="-152.5" font-family="Helvetica,sans-Serif" font-size="10.00">library/lattice/c/include</text>
<text text-anchor="middle" x="113" y="-141.5" font-family="Helvetica,sans-Serif" font-size="10.00">/tetengo/lattice/vocabulary.h</text>
</a>
</g>
</g>
<!-- Node2&#45;&gt;Node4 -->
<g id="edge16" class="edge">
<title>Node2&#45;&gt;Node4</title>
<path fill="none" stroke="midnightblue" d="M181.97,-258.17C179.72,-241.24 174.97,-218.64 165,-201 156.89,-186.65 143.46,-173.76 132.28,-164.6"/>
<polygon fill="midnightblue" stroke="midnightblue" points="178.52,-258.82 183.12,-268.37 185.48,-258.04 178.52,-258.82"/>
</g>
<!-- Node7 -->
<g id="node7" class="node">
<title>Node7</title>
<g id="a_node7"><a xlink:href="node_8h.html" target="_top" xlink:title="A node.">
<polygon fill="white" stroke="black" points="212,-201.5 212,-231.5 340,-231.5 340,-201.5 212,-201.5"/>
<text text-anchor="start" x="220" y="-219.5" font-family="Helvetica,sans-Serif" font-size="10.00">library/lattice/c/include</text>
<text text-anchor="middle" x="276" y="-208.5" font-family="Helvetica,sans-Serif" font-size="10.00">/tetengo/lattice/node.h</text>
</a>
</g>
</g>
<!-- Node2&#45;&gt;Node7 -->
<g id="edge6" class="edge">
<title>Node2&#45;&gt;Node7</title>
<path fill="none" stroke="midnightblue" d="M212.38,-262.45C226.53,-252.45 243.31,-240.6 256.08,-231.58"/>
<polygon fill="midnightblue" stroke="midnightblue" points="210.11,-259.77 203.96,-268.4 214.15,-265.48 210.11,-259.77"/>
</g>
<!-- Node3&#45;&gt;Node4 -->
<g id="edge3" class="edge">
<title>Node3&#45;&gt;Node4</title>
<path fill="none" stroke="midnightblue" d="M90.34,-192.58C95.37,-183.24 101.02,-172.75 105.42,-164.58"/>
<polygon fill="midnightblue" stroke="midnightblue" points="87.25,-190.93 85.59,-201.4 93.42,-194.25 87.25,-190.93"/>
</g>
<!-- Node5 -->
<g id="node5" class="node">
<title>Node5</title>
<g id="a_node5"><a xlink:href="lattice_8h.html" target="_top" xlink:title="A lattice.">
<polygon fill="white" stroke="black" points="95,-67.5 95,-97.5 229,-97.5 229,-67.5 95,-67.5"/>
<text text-anchor="start" x="103" y="-85.5" font-family="Helvetica,sans-Serif" font-size="10.00">library/lattice/c/include</text>
<text text-anchor="middle" x="162" y="-74.5" font-family="Helvetica,sans-Serif" font-size="10.00">/tetengo/lattice/lattice.h</text>
</a>
</g>
</g>
<!-- Node4&#45;&gt;Node5 -->
<g id="edge4" class="edge">
<title>Node4&#45;&gt;Node5</title>
<path fill="none" stroke="midnightblue" d="M129.84,-126.16C136.99,-116.68 145.1,-105.92 151.39,-97.58"/>
<polygon fill="midnightblue" stroke="midnightblue" points="126.86,-124.3 123.63,-134.4 132.45,-128.52 126.86,-124.3"/>
</g>
<!-- Node6 -->
<g id="node6" class="node">
<title>Node6</title>
<g id="a_node6"><a xlink:href="nBestIterator_8h.html" target="_top" xlink:title="An N&#45;best lattice path iterator.">
<polygon fill="white" stroke="black" points="226,-0.5 226,-30.5 392,-30.5 392,-0.5 226,-0.5"/>
<text text-anchor="start" x="234" y="-18.5" font-family="Helvetica,sans-Serif" font-size="10.00">library/lattice/c/include</text>
<text text-anchor="middle" x="309" y="-7.5" font-family="Helvetica,sans-Serif" font-size="10.00">/tetengo/lattice/nBestIterator.h</text>
</a>
</g>
</g>
<!-- Node5&#45;&gt;Node6 -->
<g id="edge5" class="edge">
<title>Node5&#45;&gt;Node6</title>
<path fill="none" stroke="midnightblue" d="M203.23,-63.27C226.64,-52.92 255.51,-40.15 277.17,-30.58"/>
<polygon fill="midnightblue" stroke="midnightblue" points="201.63,-60.15 193.9,-67.4 204.46,-66.55 201.63,-60.15"/>
</g>
<!-- Node7&#45;&gt;Node4 -->
<g id="edge15" class="edge">
<title>Node7&#45;&gt;Node4</title>
<path fill="none" stroke="midnightblue" d="M231.32,-197.68C205.17,-187.26 172.63,-174.28 148.3,-164.58"/>
<polygon fill="midnightblue" stroke="midnightblue" points="230.05,-200.94 240.63,-201.4 232.64,-194.44 230.05,-200.94"/>
</g>
<!-- Node7&#45;&gt;Node5 -->
<g id="edge11" class="edge">
<title>Node7&#45;&gt;Node5</title>
<path fill="none" stroke="midnightblue" d="M257.04,-193.54C233.47,-166.25 193.94,-120.48 174.11,-97.52"/>
<polygon fill="midnightblue" stroke="midnightblue" points="254.61,-196.09 263.8,-201.37 259.91,-191.52 254.61,-196.09"/>
</g>
<!-- Node7&#45;&gt;Node6 -->
<g id="edge12" class="edge">
<title>Node7&#45;&gt;Node6</title>
<path fill="none" stroke="midnightblue" d="M271.84,-191.23C267.65,-161.32 263.42,-109.25 276,-67 280.01,-53.55 288.86,-40.34 296.39,-30.81"/>
<polygon fill="midnightblue" stroke="midnightblue" points="268.39,-191.83 273.35,-201.19 275.31,-190.78 268.39,-191.83"/>
</g>
<!-- Node8 -->
<g id="node8" class="node">
<title>Node8</title>
<g id="a_node8"><a xlink:href="constraint_8h.html" target="_top" xlink:title="A constraint.">
<polygon fill="white" stroke="black" points="285,-67.5 285,-97.5 437,-97.5 437,-67.5 285,-67.5"/>
<text text-anchor="start" x="293" y="-85.5" font-family="Helvetica,sans-Serif" font-size="10.00">library/lattice/c/include</text>
<text text-anchor="middle" x="361" y="-74.5" font-family="Helvetica,sans-Serif" font-size="10.00">/tetengo/lattice/constraint.h</text>
</a>
</g>
</g>
<!-- Node7&#45;&gt;Node8 -->
<g id="edge7" class="edge">
<title>Node7&#45;&gt;Node8</title>
<path fill="none" stroke="midnightblue" d="M284.82,-191.61C291.57,-174.79 301.79,-152.12 314,-134 322.97,-120.69 335.42,-107.48 345.26,-97.91"/>
<polygon fill="midnightblue" stroke="midnightblue" points="281.44,-190.65 281.08,-201.24 287.96,-193.19 281.44,-190.65"/>
</g>
<!-- Node9 -->
<g id="node9" class="node">
<title>Node9</title>
<g id="a_node9"><a xlink:href="constraintElement_8h.html" target="_top" xlink:title="A constraint element.">
<polygon fill="white" stroke="black" points="323,-134.5 323,-164.5 515,-164.5 515,-134.5 323,-134.5"/>
<text text-anchor="start" x="331" y="-152.5" font-family="Helvetica,sans-Serif" font-size="10.00">library/lattice/c/include</text>
<text text-anchor="middle" x="419" y="-141.5" font-family="Helvetica,sans-Serif" font-size="10.00">/tetengo/lattice/constraintElement.h</text>
</a>
</g>
</g>
<!-- Node7&#45;&gt;Node9 -->
<g id="edge9" class="edge">
<title>Node7&#45;&gt;Node9</title>
<path fill="none" stroke="midnightblue" d="M316.41,-197.13C339.13,-186.8 367.06,-174.11 388.03,-164.58"/>
<polygon fill="midnightblue" stroke="midnightblue" points="314.68,-194.07 307.03,-201.4 317.58,-200.44 314.68,-194.07"/>
</g>
<!-- Node10 -->
<g id="node10" class="node">
<title>Node10</title>
<g id="a_node10"><a xlink:href="path_8h.html" target="_top" xlink:title="A path.">
<polygon fill="white" stroke="black" points="467,-67.5 467,-97.5 595,-97.5 595,-67.5 467,-67.5"/>
<text text-anchor="start" x="475" y="-85.5" font-family="Helvetica,sans-Serif" font-size="10.00">library/lattice/c/include</text>
<text text-anchor="middle" x="531" y="-74.5" font-family="Helvetica,sans-Serif" font-size="10.00">/tetengo/lattice/path.h</text>
</a>
</g>
</g>
<!-- Node7&#45;&gt;Node10 -->
<g id="edge13" class="edge">
<title>Node7&#45;&gt;Node10</title>
<path fill="none" stroke="midnightblue" d="M350.23,-210.05C414.73,-203.65 501.28,-190.5 524,-165 540.44,-146.55 537.76,-115.53 534.37,-97.55"/>
<polygon fill="midnightblue" stroke="midnightblue" points="349.7,-206.58 340.08,-211.02 350.37,-213.55 349.7,-206.58"/>
</g>
<!-- Node8&#45;&gt;Node6 -->
<g id="edge8" class="edge">
<title>Node8&#45;&gt;Node6</title>
<path fill="none" stroke="midnightblue" d="M343.36,-59.45C335.72,-49.9 327,-39 320.26,-30.58"/>
<polygon fill="midnightblue" stroke="midnightblue" points="340.74,-61.77 349.72,-67.4 346.2,-57.4 340.74,-61.77"/>
</g>
<!-- Node9&#45;&gt;Node8 -->
<g id="edge10" class="edge">
<title>Node9&#45;&gt;Node8</title>
<path fill="none" stroke="midnightblue" d="M399.58,-126.74C391,-117.12 381.16,-106.09 373.56,-97.58"/>
<polygon fill="midnightblue" stroke="midnightblue" points="397.15,-129.26 406.41,-134.4 402.37,-124.6 397.15,-129.26"/>
</g>
<!-- Node10&#45;&gt;Node6 -->
<g id="edge14" class="edge">
<title>Node10&#45;&gt;Node6</title>
<path fill="none" stroke="midnightblue" d="M473.21,-64.58C437.15,-54.02 391.28,-40.59 357.19,-30.61"/>
<polygon fill="midnightblue" stroke="midnightblue" points="472.52,-68.02 483.1,-67.48 474.49,-61.31 472.52,-68.02"/>
</g>
</g>
</svg>
