<?xml version="1.0" encoding="UTF-8" standalone="no"?>
<!DOCTYPE svg PUBLIC "-//W3C//DTD SVG 1.1//EN"
 "http://www.w3.org/Graphics/SVG/1.1/DTD/svg11.dtd">
<!-- Generated by graphviz version 2.43.0 (0)
 -->
<!-- Title: library/lattice/cpp/include/tetengo/lattice/string_input.hpp Pages: 1 -->
<svg width="512pt" height="162pt"
 viewBox="0.00 0.00 511.50 162.00" xmlns="http://www.w3.org/2000/svg" xmlns:xlink="http://www.w3.org/1999/xlink">
<g id="graph0" class="graph" transform="scale(1 1) rotate(0) translate(4 158)">
<title>library/lattice/cpp/include/tetengo/lattice/string_input.hpp</title>
<polygon fill="white" stroke="transparent" points="-4,4 -4,-158 507.5,-158 507.5,4 -4,4"/>
<!-- Node1 -->
<g id="node1" class="node">
<title>Node1</title>
<g id="a_node1"><a xlink:title="A string input.">
<polygon fill="#bfbfbf" stroke="black" points="60,-112.5 60,-153.5 189,-153.5 189,-112.5 60,-112.5"/>
<text text-anchor="start" x="68" y="-141.5" font-family="Helvetica,sans-Serif" font-size="10.00">library/lattice/cpp</text>
<text text-anchor="start" x="68" y="-130.5" font-family="Helvetica,sans-Serif" font-size="10.00">/include/tetengo/lattice</text>
<text text-anchor="middle" x="124.5" y="-119.5" font-family="Helvetica,sans-Serif" font-size="10.00">/string_input.hpp</text>
</a>
</g>
</g>
<!-- Node2 -->
<g id="node2" class="node">
<title>Node2</title>
<g id="a_node2"><a xlink:title=" ">
<polygon fill="white" stroke="#bfbfbf" points="0,-0.5 0,-19.5 53,-19.5 53,-0.5 0,-0.5"/>
<text text-anchor="middle" x="26.5" y="-7.5" font-family="Helvetica,sans-Serif" font-size="10.00">cstddef</text>
</a>
</g>
</g>
<!-- Node1&#45;&gt;Node2 -->
<g id="edge1" class="edge">
<title>Node1&#45;&gt;Node2</title>
<path fill="none" stroke="midnightblue" d="M108.54,-112.29C89.38,-88.64 57.63,-49.43 39.76,-27.38"/>
<polygon fill="midnightblue" stroke="midnightblue" points="42.46,-25.14 33.44,-19.57 37.02,-29.55 42.46,-25.14"/>
</g>
<!-- Node3 -->
<g id="node3" class="node">
<title>Node3</title>
<g id="a_node3"><a xlink:title=" ">
<polygon fill="white" stroke="#bfbfbf" points="71.5,-0.5 71.5,-19.5 129.5,-19.5 129.5,-0.5 71.5,-0.5"/>
<text text-anchor="middle" x="100.5" y="-7.5" font-family="Helvetica,sans-Serif" font-size="10.00">memory</text>
</a>
</g>
</g>
<!-- Node1&#45;&gt;Node3 -->
<g id="edge2" class="edge">
<title>Node1&#45;&gt;Node3</title>
<path fill="none" stroke="midnightblue" d="M111.43,-112.44C105.29,-102.09 98.64,-88.87 95.5,-76 91.77,-60.69 93.58,-42.81 96,-29.68"/>
<polygon fill="midnightblue" stroke="midnightblue" points="99.5,-30.06 98.16,-19.55 92.65,-28.6 99.5,-30.06"/>
</g>
<!-- Node4 -->
<g id="node4" class="node">
<title>Node4</title>
<g id="a_node4"><a xlink:title=" ">
<polygon fill="white" stroke="#bfbfbf" points="260.5,-56.5 260.5,-75.5 304.5,-75.5 304.5,-56.5 260.5,-56.5"/>
<text text-anchor="middle" x="282.5" y="-63.5" font-family="Helvetica,sans-Serif" font-size="10.00">string</text>
</a>
</g>
</g>
<!-- Node1&#45;&gt;Node4 -->
<g id="edge3" class="edge">
<title>Node1&#45;&gt;Node4</title>
<path fill="none" stroke="midnightblue" d="M171.91,-112.5C197.88,-101.81 229.3,-88.89 252.01,-79.54"/>
<polygon fill="midnightblue" stroke="midnightblue" points="253.55,-82.69 261.47,-75.65 250.89,-76.22 253.55,-82.69"/>
</g>
<!-- Node5 -->
<g id="node5" class="node">
<title>Node5</title>
<g id="a_node5"><a xlink:href="input_8hpp.html" target="_top" xlink:title="An input.">
<polygon fill="white" stroke="black" points="105,-56.5 105,-75.5 242,-75.5 242,-56.5 105,-56.5"/>
<text text-anchor="middle" x="173.5" y="-63.5" font-family="Helvetica,sans-Serif" font-size="10.00">tetengo/lattice/input.hpp</text>
</a>
</g>
</g>
<!-- Node1&#45;&gt;Node5 -->
<g id="edge4" class="edge">
<title>Node1&#45;&gt;Node5</title>
<path fill="none" stroke="midnightblue" d="M139.2,-112.5C146.06,-103.39 154.15,-92.66 160.75,-83.91"/>
<polygon fill="midnightblue" stroke="midnightblue" points="163.75,-85.74 166.98,-75.65 158.16,-81.53 163.75,-85.74"/>
</g>
<!-- Node5&#45;&gt;Node2 -->
<g id="edge6" class="edge">
<title>Node5&#45;&gt;Node2</title>
<path fill="none" stroke="midnightblue" d="M150.21,-56.44C125.69,-47.44 86.9,-33.19 59.3,-23.05"/>
<polygon fill="midnightblue" stroke="midnightblue" points="60.28,-19.68 49.68,-19.52 57.86,-26.25 60.28,-19.68"/>
</g>
<!-- Node5&#45;&gt;Node3 -->
<g id="edge7" class="edge">
<title>Node5&#45;&gt;Node3</title>
<path fill="none" stroke="midnightblue" d="M161.77,-56.32C150.66,-48.11 133.76,-35.6 120.52,-25.81"/>
<polygon fill="midnightblue" stroke="midnightblue" points="122.56,-22.97 112.44,-19.83 118.4,-28.59 122.56,-22.97"/>
</g>
<!-- Node6 -->
<g id="node6" class="node">
<title>Node6</title>
<g id="a_node6"><a xlink:title=" ">
<polygon fill="white" stroke="#bfbfbf" points="147.5,-0.5 147.5,-19.5 199.5,-19.5 199.5,-0.5 147.5,-0.5"/>
<text text-anchor="middle" x="173.5" y="-7.5" font-family="Helvetica,sans-Serif" font-size="10.00">cassert</text>
</a>
</g>
</g>
<!-- Node5&#45;&gt;Node6 -->
<g id="edge5" class="edge">
<title>Node5&#45;&gt;Node6</title>
<path fill="none" stroke="midnightblue" d="M173.5,-56.08C173.5,-49.01 173.5,-38.86 173.5,-29.99"/>
<polygon fill="midnightblue" stroke="midnightblue" points="177,-29.75 173.5,-19.75 170,-29.75 177,-29.75"/>
</g>
<!-- Node7 -->
<g id="node7" class="node">
<title>Node7</title>
<g id="a_node7"><a xlink:title=" ">
<polygon fill="white" stroke="#bfbfbf" points="217.5,-0.5 217.5,-19.5 371.5,-19.5 371.5,-0.5 217.5,-0.5"/>
<text text-anchor="middle" x="294.5" y="-7.5" font-family="Helvetica,sans-Serif" font-size="10.00">boost/core/noncopyable.hpp</text>
</a>
</g>
</g>
<!-- Node5&#45;&gt;Node7 -->
<g id="edge8" class="edge">
<title>Node5&#45;&gt;Node7</title>
<path fill="none" stroke="midnightblue" d="M192.67,-56.44C212.41,-47.64 243.39,-33.81 265.99,-23.72"/>
<polygon fill="midnightblue" stroke="midnightblue" points="267.71,-26.79 275.42,-19.52 264.86,-20.4 267.71,-26.79"/>
</g>
<!-- Node8 -->
<g id="node8" class="node">
<title>Node8</title>
<g id="a_node8"><a xlink:title=" ">
<polygon fill="white" stroke="#bfbfbf" points="389.5,-0.5 389.5,-19.5 503.5,-19.5 503.5,-0.5 389.5,-0.5"/>
<text text-anchor="middle" x="446.5" y="-7.5" font-family="Helvetica,sans-Serif" font-size="10.00">boost/operators.hpp</text>
</a>
</g>
</g>
<!-- Node5&#45;&gt;Node8 -->
<g id="edge9" class="edge">
<title>Node5&#45;&gt;Node8</title>
<path fill="none" stroke="midnightblue" d="M216.76,-56.44C264.68,-46.96 341.98,-31.67 393.5,-21.48"/>
<polygon fill="midnightblue" stroke="midnightblue" points="394.31,-24.89 403.44,-19.52 392.96,-18.02 394.31,-24.89"/>
</g>
</g>
</svg>
