<?xml version="1.0" encoding="UTF-8" standalone="no"?>
<!DOCTYPE svg PUBLIC "-//W3C//DTD SVG 1.1//EN"
 "http://www.w3.org/Graphics/SVG/1.1/DTD/svg11.dtd">
<!-- Generated by graphviz version 2.43.0 (0)
 -->
<!-- Title: tetengo_lattice_keyEntriesPair_tag Pages: 1 -->
<svg width="336pt" height="106pt"
 viewBox="0.00 0.00 336.00 106.00" xmlns="http://www.w3.org/2000/svg" xmlns:xlink="http://www.w3.org/1999/xlink">
<g id="graph0" class="graph" transform="scale(1 1) rotate(0) translate(4 102)">
<title>tetengo_lattice_keyEntriesPair_tag</title>
<polygon fill="white" stroke="transparent" points="-4,4 -4,-102 332,-102 332,4 -4,4"/>
<!-- Node1 -->
<g id="node1" class="node">
<title>Node1</title>
<g id="a_node1"><a xlink:title="A pair of a key and entries.">
<polygon fill="#bfbfbf" stroke="black" points="97,-0.5 97,-30.5 243,-30.5 243,-0.5 97,-0.5"/>
<text text-anchor="start" x="105" y="-18.5" font-family="Helvetica,sans-Serif" font-size="10.00">tetengo_lattice_keyEntries</text>
<text text-anchor="middle" x="170" y="-7.5" font-family="Helvetica,sans-Serif" font-size="10.00">Pair_tag</text>
</a>
</g>
</g>
<!-- Node2 -->
<g id="node2" class="node">
<title>Node2</title>
<g id="a_node2"><a xlink:href="structtetengo__lattice__stringView__tag.html" target="_top" xlink:title="A string view.">
<polygon fill="white" stroke="black" points="0,-78.5 0,-97.5 168,-97.5 168,-78.5 0,-78.5"/>
<text text-anchor="middle" x="84" y="-85.5" font-family="Helvetica,sans-Serif" font-size="10.00">tetengo_lattice_stringView_tag</text>
</a>
</g>
</g>
<!-- Node2&#45;&gt;Node1 -->
<g id="edge1" class="edge">
<title>Node2&#45;&gt;Node1</title>
<path fill="none" stroke="#9a32cd" stroke-dasharray="5,2" d="M102.56,-71.78C117.48,-59.55 138.29,-42.5 152.83,-30.58"/>
<polygon fill="#9a32cd" stroke="#9a32cd" points="100.06,-69.31 94.55,-78.36 104.5,-74.72 100.06,-69.31"/>
<text text-anchor="middle" x="140.5" y="-52" font-family="Helvetica,sans-Serif" font-size="10.00"> key</text>
</g>
<!-- Node3 -->
<g id="node3" class="node">
<title>Node3</title>
<g id="a_node3"><a xlink:href="structtetengo__lattice__entry__tag.html" target="_top" xlink:title="An entry.">
<polygon fill="white" stroke="black" points="186,-78.5 186,-97.5 328,-97.5 328,-78.5 186,-78.5"/>
<text text-anchor="middle" x="257" y="-85.5" font-family="Helvetica,sans-Serif" font-size="10.00">tetengo_lattice_entry_tag</text>
</a>
</g>
</g>
<!-- Node3&#45;&gt;Node1 -->
<g id="edge2" class="edge">
<title>Node3&#45;&gt;Node1</title>
<path fill="none" stroke="#9a32cd" stroke-dasharray="5,2" d="M238.22,-71.78C223.13,-59.55 202.08,-42.5 187.37,-30.58"/>
<polygon fill="#9a32cd" stroke="#9a32cd" points="236.36,-74.78 246.33,-78.36 240.77,-69.34 236.36,-74.78"/>
<text text-anchor="middle" x="245.5" y="-52" font-family="Helvetica,sans-Serif" font-size="10.00"> p_entries</text>
</g>
</g>
</svg>
