<?xml version="1.0" encoding="UTF-8" standalone="no"?>
<!DOCTYPE svg PUBLIC "-//W3C//DTD SVG 1.1//EN"
 "http://www.w3.org/Graphics/SVG/1.1/DTD/svg11.dtd">
<!-- Generated by graphviz version 2.43.0 (0)
 -->
<!-- Title: tetengo_lattice_keyEntriesPair_tag Pages: 1 -->
<svg width="336pt" height="104pt"
 viewBox="0.00 0.00 336.00 104.00" xmlns="http://www.w3.org/2000/svg" xmlns:xlink="http://www.w3.org/1999/xlink">
<g id="graph0" class="graph" transform="scale(1 1) rotate(0) translate(4 100)">
<title>tetengo_lattice_keyEntriesPair_tag</title>
<!-- Node1 -->
<g id="node1" class="node">
<title>Node1</title>
<g id="a_node1"><a xlink:title="A pair of a key and entries.">
<polygon fill="#999999" stroke="#666666" points="243,-30 97,-30 97,0 243,0 243,-30"/>
<text text-anchor="start" x="105" y="-18" font-family="Helvetica,sans-Serif" font-size="10.00">tetengo_lattice_keyEntries</text>
<text text-anchor="middle" x="170" y="-7" font-family="Helvetica,sans-Serif" font-size="10.00">Pair_tag</text>
</a>
</g>
</g>
<!-- Node2 -->
<g id="node2" class="node">
<title>Node2</title>
<g id="a_node2"><a xlink:href="structtetengo__lattice__stringView__tag.html" target="_top" xlink:title="A string view.">
<polygon fill="white" stroke="#666666" points="168,-96 0,-96 0,-77 168,-77 168,-96"/>
<text text-anchor="middle" x="84" y="-84" font-family="Helvetica,sans-Serif" font-size="10.00">tetengo_lattice_stringView_tag</text>
</a>
</g>
</g>
<!-- Node2&#45;&gt;Node1 -->
<g id="edge1" class="edge">
<title>Node2&#45;&gt;Node1</title>
<path fill="none" stroke="#9a32cd" stroke-dasharray="5,2" d="M102.51,-70.54C117.32,-58.57 137.96,-41.89 152.51,-30.14"/>
<polygon fill="#9a32cd" stroke="#9a32cd" points="100.12,-67.97 94.55,-76.98 104.52,-73.41 100.12,-67.97"/>
<text text-anchor="middle" x="140.5" y="-51" font-family="Helvetica,sans-Serif" font-size="10.00"> key</text>
</g>
<!-- Node3 -->
<g id="node3" class="node">
<title>Node3</title>
<g id="a_node3"><a xlink:href="structtetengo__lattice__entry__tag.html" target="_top" xlink:title="An entry.">
<polygon fill="white" stroke="#666666" points="328,-96 186,-96 186,-77 328,-77 328,-96"/>
<text text-anchor="middle" x="257" y="-84" font-family="Helvetica,sans-Serif" font-size="10.00">tetengo_lattice_entry_tag</text>
</a>
</g>
</g>
<!-- Node3&#45;&gt;Node1 -->
<g id="edge2" class="edge">
<title>Node3&#45;&gt;Node1</title>
<path fill="none" stroke="#9a32cd" stroke-dasharray="5,2" d="M238.28,-70.54C223.29,-58.57 202.41,-41.89 187.7,-30.14"/>
<polygon fill="#9a32cd" stroke="#9a32cd" points="236.33,-73.47 246.33,-76.98 240.7,-68 236.33,-73.47"/>
<text text-anchor="middle" x="245.5" y="-51" font-family="Helvetica,sans-Serif" font-size="10.00"> p_entries</text>
</g>
</g>
</svg>
