<?xml version="1.0" encoding="UTF-8" standalone="no"?>
<!DOCTYPE svg PUBLIC "-//W3C//DTD SVG 1.1//EN"
 "http://www.w3.org/Graphics/SVG/1.1/DTD/svg11.dtd">
<!-- Generated by graphviz version 2.43.0 (0)
 -->
<!-- Title: tetengo_lattice_entriesConnectionCostPair_tag Pages: 1 -->
<svg width="192pt" height="117pt"
 viewBox="0.00 0.00 192.00 117.00" xmlns="http://www.w3.org/2000/svg" xmlns:xlink="http://www.w3.org/1999/xlink">
<g id="graph0" class="graph" transform="scale(1 1) rotate(0) translate(4 113)">
<title>tetengo_lattice_entriesConnectionCostPair_tag</title>
<polygon fill="white" stroke="transparent" points="-4,4 -4,-113 188,-113 188,4 -4,4"/>
<!-- Node1 -->
<g id="node1" class="node">
<title>Node1</title>
<g id="a_node1"><a xlink:title="A pair of entries and a connection cost.">
<polygon fill="#bfbfbf" stroke="black" points="0,-0.5 0,-30.5 184,-30.5 184,-0.5 0,-0.5"/>
<text text-anchor="start" x="8" y="-18.5" font-family="Helvetica,sans-Serif" font-size="10.00">tetengo_lattice_entriesConnection</text>
<text text-anchor="middle" x="92" y="-7.5" font-family="Helvetica,sans-Serif" font-size="10.00">CostPair_tag</text>
</a>
</g>
</g>
<!-- Node2 -->
<g id="node2" class="node">
<title>Node2</title>
<g id="a_node2"><a xlink:href="structtetengo__lattice__entry__tag.html" target="_top" xlink:title="An entry.">
<polygon fill="white" stroke="black" points="21,-89.5 21,-108.5 163,-108.5 163,-89.5 21,-89.5"/>
<text text-anchor="middle" x="92" y="-96.5" font-family="Helvetica,sans-Serif" font-size="10.00">tetengo_lattice_entry_tag</text>
</a>
</g>
</g>
<!-- Node2&#45;&gt;Node1 -->
<g id="edge1" class="edge">
<title>Node2&#45;&gt;Node1</title>
<path fill="none" stroke="#9a32cd" stroke-dasharray="5,2" d="M92,-79.23C92,-64.41 92,-44.05 92,-30.6"/>
<polygon fill="#9a32cd" stroke="#9a32cd" points="88.5,-79.28 92,-89.28 95.5,-79.28 88.5,-79.28"/>
<text text-anchor="middle" x="111" y="-63" font-family="Helvetica,sans-Serif" font-size="10.00"> p_from</text>
<text text-anchor="middle" x="111" y="-52" font-family="Helvetica,sans-Serif" font-size="10.00">p_to</text>
</g>
</g>
</svg>
