<?xml version="1.0" encoding="UTF-8" standalone="no"?>
<!DOCTYPE svg PUBLIC "-//W3C//DTD SVG 1.1//EN"
 "http://www.w3.org/Graphics/SVG/1.1/DTD/svg11.dtd">
<!-- Generated by graphviz version 2.43.0 (0)
 -->
<!-- Title: library/trie/cpp/include/tetengo/trie/memory_storage.hpp Pages: 1 -->
<svg width="503pt" height="148pt"
 viewBox="0.00 0.00 502.50 148.00" xmlns="http://www.w3.org/2000/svg" xmlns:xlink="http://www.w3.org/1999/xlink">
<g id="graph0" class="graph" transform="scale(1 1) rotate(0) translate(4 144)">
<title>library/trie/cpp/include/tetengo/trie/memory_storage.hpp</title>
<!-- Node1 -->
<g id="node1" class="node">
<title>Node1</title>
<g id="a_node1"><a xlink:title="A memory storage.">
<polygon fill="#999999" stroke="#666666" points="288.5,-140 104.5,-140 104.5,-110 288.5,-110 288.5,-140"/>
<text text-anchor="start" x="112.5" y="-128" font-family="Helvetica,sans-Serif" font-size="10.00">library/trie/cpp/include</text>
<text text-anchor="middle" x="196.5" y="-117" font-family="Helvetica,sans-Serif" font-size="10.00">/tetengo/trie/memory_storage.hpp</text>
</a>
</g>
</g>
<!-- Node2 -->
<g id="node2" class="node">
<title>Node2</title>
<g id="a_node2"><a xlink:title=" ">
<polygon fill="#e0e0e0" stroke="#999999" points="35,-19 0,-19 0,0 35,0 35,-19"/>
<text text-anchor="middle" x="17.5" y="-7" font-family="Helvetica,sans-Serif" font-size="10.00">any</text>
</a>
</g>
</g>
<!-- Node1&#45;&gt;Node2 -->
<g id="edge1" class="edge">
<title>Node1&#45;&gt;Node2</title>
<path fill="none" stroke="#63b8ff" d="M174.19,-109.85C139.93,-88.13 74.69,-46.77 40.2,-24.89"/>
<polygon fill="#63b8ff" stroke="#63b8ff" points="41.65,-21.67 31.33,-19.27 37.9,-27.58 41.65,-21.67"/>
</g>
<!-- Node3 -->
<g id="node3" class="node">
<title>Node3</title>
<g id="a_node3"><a xlink:title=" ">
<polygon fill="#e0e0e0" stroke="#999999" points="106,-19 53,-19 53,0 106,0 106,-19"/>
<text text-anchor="middle" x="79.5" y="-7" font-family="Helvetica,sans-Serif" font-size="10.00">cstddef</text>
</a>
</g>
</g>
<!-- Node1&#45;&gt;Node3 -->
<g id="edge2" class="edge">
<title>Node1&#45;&gt;Node3</title>
<path fill="none" stroke="#63b8ff" d="M181.68,-109.63C159.68,-88.28 118.53,-48.36 95.73,-26.25"/>
<polygon fill="#63b8ff" stroke="#63b8ff" points="98.11,-23.68 88.5,-19.23 93.24,-28.7 98.11,-23.68"/>
</g>
<!-- Node4 -->
<g id="node4" class="node">
<title>Node4</title>
<g id="a_node4"><a xlink:title=" ">
<polygon fill="#e0e0e0" stroke="#999999" points="174.5,-19 124.5,-19 124.5,0 174.5,0 174.5,-19"/>
<text text-anchor="middle" x="149.5" y="-7" font-family="Helvetica,sans-Serif" font-size="10.00">cstdint</text>
</a>
</g>
</g>
<!-- Node1&#45;&gt;Node4 -->
<g id="edge3" class="edge">
<title>Node1&#45;&gt;Node4</title>
<path fill="none" stroke="#63b8ff" d="M187.55,-109.98C181.57,-100.18 173.85,-86.64 168.5,-74 162.32,-59.41 157.29,-42.15 153.97,-29.31"/>
<polygon fill="#63b8ff" stroke="#63b8ff" points="157.3,-28.2 151.49,-19.34 150.5,-29.89 157.3,-28.2"/>
</g>
<!-- Node5 -->
<g id="node5" class="node">
<title>Node5</title>
<g id="a_node5"><a xlink:title=" ">
<polygon fill="#e0e0e0" stroke="#999999" points="418.5,-19 364.5,-19 364.5,0 418.5,0 418.5,-19"/>
<text text-anchor="middle" x="391.5" y="-7" font-family="Helvetica,sans-Serif" font-size="10.00">istream</text>
</a>
</g>
</g>
<!-- Node1&#45;&gt;Node5 -->
<g id="edge4" class="edge">
<title>Node1&#45;&gt;Node5</title>
<path fill="none" stroke="#63b8ff" d="M241.91,-109.95C266.2,-101.41 296.06,-89.2 320.5,-74 341.86,-60.71 362.91,-40.79 376.47,-26.81"/>
<polygon fill="#63b8ff" stroke="#63b8ff" points="379.19,-29.03 383.54,-19.37 374.12,-24.21 379.19,-29.03"/>
</g>
<!-- Node6 -->
<g id="node6" class="node">
<title>Node6</title>
<g id="a_node6"><a xlink:title=" ">
<polygon fill="#e0e0e0" stroke="#999999" points="494.5,-19 436.5,-19 436.5,0 494.5,0 494.5,-19"/>
<text text-anchor="middle" x="465.5" y="-7" font-family="Helvetica,sans-Serif" font-size="10.00">memory</text>
</a>
</g>
</g>
<!-- Node1&#45;&gt;Node6 -->
<g id="edge5" class="edge">
<title>Node1&#45;&gt;Node6</title>
<path fill="none" stroke="#63b8ff" d="M246.27,-109.91C276.11,-100.87 314.53,-88.2 347.5,-74 381.68,-59.28 419.21,-38.16 442.57,-24.39"/>
<polygon fill="#63b8ff" stroke="#63b8ff" points="444.57,-27.27 451.37,-19.15 440.99,-21.26 444.57,-27.27"/>
</g>
<!-- Node7 -->
<g id="node7" class="node">
<title>Node7</title>
<g id="a_node7"><a xlink:href="trie_2cpp_2include_2tetengo_2trie_2storage_8hpp.html" target="_top" xlink:title="A storage.">
<polygon fill="white" stroke="#666666" points="311.5,-74 177.5,-74 177.5,-55 311.5,-55 311.5,-74"/>
<text text-anchor="middle" x="244.5" y="-62" font-family="Helvetica,sans-Serif" font-size="10.00">tetengo/trie/storage.hpp</text>
</a>
</g>
</g>
<!-- Node1&#45;&gt;Node7 -->
<g id="edge6" class="edge">
<title>Node1&#45;&gt;Node7</title>
<path fill="none" stroke="#63b8ff" d="M208.12,-109.84C214.94,-101.52 223.61,-90.96 230.77,-82.23"/>
<polygon fill="#63b8ff" stroke="#63b8ff" points="233.67,-84.22 237.31,-74.27 228.26,-79.78 233.67,-84.22"/>
</g>
<!-- Node7&#45;&gt;Node2 -->
<g id="edge7" class="edge">
<title>Node7&#45;&gt;Node2</title>
<path fill="none" stroke="#63b8ff" d="M199.88,-54.93C161.11,-47.19 103.26,-34.94 44.82,-19.16"/>
<polygon fill="#63b8ff" stroke="#63b8ff" points="45.62,-15.76 35.05,-16.5 43.78,-22.51 45.62,-15.76"/>
</g>
<!-- Node7&#45;&gt;Node3 -->
<g id="edge8" class="edge">
<title>Node7&#45;&gt;Node3</title>
<path fill="none" stroke="#63b8ff" d="M217.99,-54.98C190.29,-46.09 146.64,-32.07 115.76,-22.15"/>
<polygon fill="#63b8ff" stroke="#63b8ff" points="116.81,-18.81 106.22,-19.08 114.67,-25.47 116.81,-18.81"/>
</g>
<!-- Node7&#45;&gt;Node4 -->
<g id="edge9" class="edge">
<title>Node7&#45;&gt;Node4</title>
<path fill="none" stroke="#63b8ff" d="M229.24,-54.98C214.37,-46.69 191.52,-33.94 174.08,-24.22"/>
<polygon fill="#63b8ff" stroke="#63b8ff" points="175.48,-20.99 165.04,-19.17 172.07,-27.1 175.48,-20.99"/>
</g>
<!-- Node7&#45;&gt;Node5 -->
<g id="edge10" class="edge">
<title>Node7&#45;&gt;Node5</title>
<path fill="none" stroke="#63b8ff" d="M268.12,-54.98C292.4,-46.23 330.45,-32.51 357.87,-22.62"/>
<polygon fill="#63b8ff" stroke="#63b8ff" points="359.23,-25.85 367.45,-19.17 356.86,-19.27 359.23,-25.85"/>
</g>
<!-- Node7&#45;&gt;Node6 -->
<g id="edge11" class="edge">
<title>Node7&#45;&gt;Node6</title>
<path fill="none" stroke="#63b8ff" d="M280.01,-54.98C320.14,-45.36 385.25,-29.75 426.69,-19.81"/>
<polygon fill="#63b8ff" stroke="#63b8ff" points="427.52,-23.21 436.43,-17.47 425.89,-16.4 427.52,-23.21"/>
</g>
<!-- Node8 -->
<g id="node8" class="node">
<title>Node8</title>
<g id="a_node8"><a xlink:title=" ">
<polygon fill="#e0e0e0" stroke="#999999" points="346.5,-19 192.5,-19 192.5,0 346.5,0 346.5,-19"/>
<text text-anchor="middle" x="269.5" y="-7" font-family="Helvetica,sans-Serif" font-size="10.00">boost/core/noncopyable.hpp</text>
</a>
</g>
</g>
<!-- Node7&#45;&gt;Node8 -->
<g id="edge12" class="edge">
<title>Node7&#45;&gt;Node8</title>
<path fill="none" stroke="#63b8ff" d="M248.63,-54.75C252.01,-47.57 256.92,-37.18 261.12,-28.27"/>
<polygon fill="#63b8ff" stroke="#63b8ff" points="264.35,-29.63 265.45,-19.09 258.02,-26.64 264.35,-29.63"/>
</g>
</g>
</svg>
