<?xml version="1.0" encoding="UTF-8" standalone="no"?>
<!DOCTYPE svg PUBLIC "-//W3C//DTD SVG 1.1//EN"
 "http://www.w3.org/Graphics/SVG/1.1/DTD/svg11.dtd">
<!-- Generated by graphviz version 2.43.0 (0)
 -->
<!-- Title: library/trie/cpp/include/tetengo/trie/trie_iterator.hpp Pages: 1 -->
<svg width="670pt" height="170pt"
 viewBox="0.00 0.00 669.50 170.00" xmlns="http://www.w3.org/2000/svg" xmlns:xlink="http://www.w3.org/1999/xlink">
<g id="graph0" class="graph" transform="scale(1 1) rotate(0) translate(4 166)">
<title>library/trie/cpp/include/tetengo/trie/trie_iterator.hpp</title>
<!-- Node1 -->
<g id="node1" class="node">
<title>Node1</title>
<g id="a_node1"><a xlink:title="A trie iterator.">
<polygon fill="#999999" stroke="#666666" points="188.5,-162 30.5,-162 30.5,-132 188.5,-132 188.5,-162"/>
<text text-anchor="start" x="38.5" y="-150" font-family="Helvetica,sans-Serif" font-size="10.00">library/trie/cpp/include</text>
<text text-anchor="middle" x="109.5" y="-139" font-family="Helvetica,sans-Serif" font-size="10.00">/tetengo/trie/trie_iterator.hpp</text>
</a>
</g>
</g>
<!-- Node2 -->
<g id="node2" class="node">
<title>Node2</title>
<g id="a_node2"><a xlink:title=" ">
<polygon fill="#e0e0e0" stroke="#999999" points="43,-90.5 8,-90.5 8,-71.5 43,-71.5 43,-90.5"/>
<text text-anchor="middle" x="25.5" y="-78.5" font-family="Helvetica,sans-Serif" font-size="10.00">any</text>
</a>
</g>
</g>
<!-- Node1&#45;&gt;Node2 -->
<g id="edge1" class="edge">
<title>Node1&#45;&gt;Node2</title>
<path fill="none" stroke="#63b8ff" d="M90.86,-131.8C77.38,-121.53 59.19,-107.67 45.42,-97.18"/>
<polygon fill="#63b8ff" stroke="#63b8ff" points="47.18,-94.12 37.11,-90.84 42.94,-99.69 47.18,-94.12"/>
</g>
<!-- Node3 -->
<g id="node3" class="node">
<title>Node3</title>
<g id="a_node3"><a xlink:title=" ">
<polygon fill="#e0e0e0" stroke="#999999" points="53,-24.5 0,-24.5 0,-5.5 53,-5.5 53,-24.5"/>
<text text-anchor="middle" x="26.5" y="-12.5" font-family="Helvetica,sans-Serif" font-size="10.00">iterator</text>
</a>
</g>
</g>
<!-- Node1&#45;&gt;Node3 -->
<g id="edge2" class="edge">
<title>Node1&#45;&gt;Node3</title>
<path fill="none" stroke="#63b8ff" d="M100.46,-131.84C85.12,-107.81 54.04,-59.13 37.48,-33.19"/>
<polygon fill="#63b8ff" stroke="#63b8ff" points="40.42,-31.29 32.09,-24.75 34.52,-35.06 40.42,-31.29"/>
</g>
<!-- Node4 -->
<g id="node4" class="node">
<title>Node4</title>
<g id="a_node4"><a xlink:title=" ">
<polygon fill="#e0e0e0" stroke="#999999" points="116,-24.5 71,-24.5 71,-5.5 116,-5.5 116,-24.5"/>
<text text-anchor="middle" x="93.5" y="-12.5" font-family="Helvetica,sans-Serif" font-size="10.00">utility</text>
</a>
</g>
</g>
<!-- Node1&#45;&gt;Node4 -->
<g id="edge3" class="edge">
<title>Node1&#45;&gt;Node4</title>
<path fill="none" stroke="#63b8ff" d="M107.76,-131.84C104.86,-108.34 99.07,-61.26 95.83,-34.93"/>
<polygon fill="#63b8ff" stroke="#63b8ff" points="99.27,-34.25 94.58,-24.75 92.32,-35.1 99.27,-34.25"/>
</g>
<!-- Node5 -->
<g id="node5" class="node">
<title>Node5</title>
<g id="a_node5"><a xlink:title=" ">
<polygon fill="#e0e0e0" stroke="#999999" points="259,-30 134,-30 134,0 259,0 259,-30"/>
<text text-anchor="start" x="142" y="-18" font-family="Helvetica,sans-Serif" font-size="10.00">boost/stl_interfaces</text>
<text text-anchor="middle" x="196.5" y="-7" font-family="Helvetica,sans-Serif" font-size="10.00">/iterator_interface.hpp</text>
</a>
</g>
</g>
<!-- Node1&#45;&gt;Node5 -->
<g id="edge4" class="edge">
<title>Node1&#45;&gt;Node5</title>
<path fill="none" stroke="#63b8ff" d="M118.98,-131.84C134.01,-109.37 163.47,-65.36 181.42,-38.53"/>
<polygon fill="#63b8ff" stroke="#63b8ff" points="184.38,-40.4 187.04,-30.14 178.57,-36.51 184.38,-40.4"/>
</g>
<!-- Node6 -->
<g id="node6" class="node">
<title>Node6</title>
<g id="a_node6"><a xlink:href="double__array__iterator_8hpp.html" target="_top" xlink:title="A double array iterator.">
<polygon fill="white" stroke="#666666" points="384.5,-96 274.5,-96 274.5,-66 384.5,-66 384.5,-96"/>
<text text-anchor="start" x="282.5" y="-84" font-family="Helvetica,sans-Serif" font-size="10.00">tetengo/trie/double</text>
<text text-anchor="middle" x="329.5" y="-73" font-family="Helvetica,sans-Serif" font-size="10.00">_array_iterator.hpp</text>
</a>
</g>
</g>
<!-- Node1&#45;&gt;Node6 -->
<g id="edge5" class="edge">
<title>Node1&#45;&gt;Node6</title>
<path fill="none" stroke="#63b8ff" d="M157.78,-131.95C191.31,-122.2 236.15,-109.16 271.6,-98.84"/>
<polygon fill="#63b8ff" stroke="#63b8ff" points="272.71,-102.17 281.33,-96.01 270.75,-95.44 272.71,-102.17"/>
</g>
<!-- Node6&#45;&gt;Node3 -->
<g id="edge8" class="edge">
<title>Node6&#45;&gt;Node3</title>
<path fill="none" stroke="#63b8ff" d="M274.36,-72.94C219.65,-65.18 133.77,-50.98 61.5,-30 59.57,-29.44 57.59,-28.81 55.62,-28.14"/>
<polygon fill="#63b8ff" stroke="#63b8ff" points="56.48,-24.73 45.88,-24.54 54.05,-31.29 56.48,-24.73"/>
</g>
<!-- Node6&#45;&gt;Node4 -->
<g id="edge12" class="edge">
<title>Node6&#45;&gt;Node4</title>
<path fill="none" stroke="#63b8ff" d="M274.22,-69.15C232.76,-60.36 174.89,-46.72 125.5,-30 124.06,-29.51 122.6,-28.99 121.14,-28.44"/>
<polygon fill="#63b8ff" stroke="#63b8ff" points="122.14,-25.07 111.56,-24.55 119.51,-31.55 122.14,-25.07"/>
</g>
<!-- Node6&#45;&gt;Node5 -->
<g id="edge14" class="edge">
<title>Node6&#45;&gt;Node5</title>
<path fill="none" stroke="#63b8ff" d="M300.31,-65.95C281.08,-56.7 255.7,-44.49 234.84,-34.45"/>
<polygon fill="#63b8ff" stroke="#63b8ff" points="236.15,-31.19 225.62,-30.01 233.11,-37.5 236.15,-31.19"/>
</g>
<!-- Node7 -->
<g id="node7" class="node">
<title>Node7</title>
<g id="a_node7"><a xlink:title=" ">
<polygon fill="#e0e0e0" stroke="#999999" points="519,-24.5 466,-24.5 466,-5.5 519,-5.5 519,-24.5"/>
<text text-anchor="middle" x="492.5" y="-12.5" font-family="Helvetica,sans-Serif" font-size="10.00">cstddef</text>
</a>
</g>
</g>
<!-- Node6&#45;&gt;Node7 -->
<g id="edge6" class="edge">
<title>Node6&#45;&gt;Node7</title>
<path fill="none" stroke="#63b8ff" d="M365.67,-65.96C391.32,-55.98 426.55,-42.23 457.5,-30 458.87,-29.46 460.27,-28.9 461.68,-28.34"/>
<polygon fill="#63b8ff" stroke="#63b8ff" points="463.04,-31.57 471.04,-24.62 460.45,-25.06 463.04,-31.57"/>
</g>
<!-- Node8 -->
<g id="node8" class="node">
<title>Node8</title>
<g id="a_node8"><a xlink:title=" ">
<polygon fill="#e0e0e0" stroke="#999999" points="587.5,-24.5 537.5,-24.5 537.5,-5.5 587.5,-5.5 587.5,-24.5"/>
<text text-anchor="middle" x="562.5" y="-12.5" font-family="Helvetica,sans-Serif" font-size="10.00">cstdint</text>
</a>
</g>
</g>
<!-- Node6&#45;&gt;Node8 -->
<g id="edge7" class="edge">
<title>Node6&#45;&gt;Node8</title>
<path fill="none" stroke="#63b8ff" d="M384.59,-68.41C424.88,-59.39 480.63,-45.78 528.5,-30 530.13,-29.46 531.78,-28.89 533.45,-28.28"/>
<polygon fill="#63b8ff" stroke="#63b8ff" points="534.84,-31.5 542.9,-24.63 532.32,-24.97 534.84,-31.5"/>
</g>
<!-- Node9 -->
<g id="node9" class="node">
<title>Node9</title>
<g id="a_node9"><a xlink:title=" ">
<polygon fill="#e0e0e0" stroke="#999999" points="661.5,-24.5 605.5,-24.5 605.5,-5.5 661.5,-5.5 661.5,-24.5"/>
<text text-anchor="middle" x="633.5" y="-12.5" font-family="Helvetica,sans-Serif" font-size="10.00">optional</text>
</a>
</g>
</g>
<!-- Node6&#45;&gt;Node9 -->
<g id="edge9" class="edge">
<title>Node6&#45;&gt;Node9</title>
<path fill="none" stroke="#63b8ff" d="M384.61,-72.59C439.06,-64.59 524.41,-50.22 596.5,-30 598.79,-29.36 601.13,-28.63 603.48,-27.86"/>
<polygon fill="#63b8ff" stroke="#63b8ff" points="604.71,-31.14 612.97,-24.5 602.38,-24.54 604.71,-31.14"/>
</g>
<!-- Node10 -->
<g id="node10" class="node">
<title>Node10</title>
<g id="a_node10"><a xlink:title=" ">
<polygon fill="#e0e0e0" stroke="#999999" points="320,-24.5 277,-24.5 277,-5.5 320,-5.5 320,-24.5"/>
<text text-anchor="middle" x="298.5" y="-12.5" font-family="Helvetica,sans-Serif" font-size="10.00">stack</text>
</a>
</g>
</g>
<!-- Node6&#45;&gt;Node10 -->
<g id="edge10" class="edge">
<title>Node6&#45;&gt;Node10</title>
<path fill="none" stroke="#63b8ff" d="M322.62,-65.8C318.07,-56.41 312.07,-44.02 307.19,-33.95"/>
<polygon fill="#63b8ff" stroke="#63b8ff" points="310.29,-32.32 302.78,-24.84 303.99,-35.37 310.29,-32.32"/>
</g>
<!-- Node11 -->
<g id="node11" class="node">
<title>Node11</title>
<g id="a_node11"><a xlink:title=" ">
<polygon fill="#e0e0e0" stroke="#999999" points="382.5,-24.5 338.5,-24.5 338.5,-5.5 382.5,-5.5 382.5,-24.5"/>
<text text-anchor="middle" x="360.5" y="-12.5" font-family="Helvetica,sans-Serif" font-size="10.00">string</text>
</a>
</g>
</g>
<!-- Node6&#45;&gt;Node11 -->
<g id="edge11" class="edge">
<title>Node6&#45;&gt;Node11</title>
<path fill="none" stroke="#63b8ff" d="M336.38,-65.8C340.93,-56.41 346.93,-44.02 351.81,-33.95"/>
<polygon fill="#63b8ff" stroke="#63b8ff" points="355.01,-35.37 356.22,-24.84 348.71,-32.32 355.01,-35.37"/>
</g>
<!-- Node12 -->
<g id="node12" class="node">
<title>Node12</title>
<g id="a_node12"><a xlink:title=" ">
<polygon fill="#e0e0e0" stroke="#999999" points="448,-24.5 401,-24.5 401,-5.5 448,-5.5 448,-24.5"/>
<text text-anchor="middle" x="424.5" y="-12.5" font-family="Helvetica,sans-Serif" font-size="10.00">vector</text>
</a>
</g>
</g>
<!-- Node6&#45;&gt;Node12 -->
<g id="edge13" class="edge">
<title>Node6&#45;&gt;Node12</title>
<path fill="none" stroke="#63b8ff" d="M350.58,-65.8C366.21,-55.27 387.43,-40.97 403.13,-30.4"/>
<polygon fill="#63b8ff" stroke="#63b8ff" points="405.31,-33.15 411.65,-24.66 401.4,-27.34 405.31,-33.15"/>
</g>
</g>
</svg>
