<?xml version="1.0" encoding="UTF-8" standalone="no"?>
<!DOCTYPE svg PUBLIC "-//W3C//DTD SVG 1.1//EN"
 "http://www.w3.org/Graphics/SVG/1.1/DTD/svg11.dtd">
<!-- Generated by graphviz version 2.43.0 (0)
 -->
<!-- Title: library/trie/c/include/tetengo/trie/storage.h Pages: 1 -->
<svg width="216pt" height="93pt"
 viewBox="0.00 0.00 215.50 93.00" xmlns="http://www.w3.org/2000/svg" xmlns:xlink="http://www.w3.org/1999/xlink">
<g id="graph0" class="graph" transform="scale(1 1) rotate(0) translate(4 89)">
<title>library/trie/c/include/tetengo/trie/storage.h</title>
<!-- Node1 -->
<g id="node1" class="node">
<title>Node1</title>
<g id="a_node1"><a xlink:title="A storage.">
<polygon fill="#999999" stroke="#666666" points="170.5,-85 45.5,-85 45.5,-55 170.5,-55 170.5,-85"/>
<text text-anchor="start" x="53.5" y="-73" font-family="Helvetica,sans-Serif" font-size="10.00">library/trie/c/include</text>
<text text-anchor="middle" x="108" y="-62" font-family="Helvetica,sans-Serif" font-size="10.00">/tetengo/trie/storage.h</text>
</a>
</g>
</g>
<!-- Node2 -->
<g id="node2" class="node">
<title>Node2</title>
<g id="a_node2"><a xlink:title=" ">
<polygon fill="#e0e0e0" stroke="#999999" points="62,-19 0,-19 0,0 62,0 62,-19"/>
<text text-anchor="middle" x="31" y="-7" font-family="Helvetica,sans-Serif" font-size="10.00">stdbool.h</text>
</a>
</g>
</g>
<!-- Node1&#45;&gt;Node2 -->
<g id="edge1" class="edge">
<title>Node1&#45;&gt;Node2</title>
<path fill="none" stroke="#63b8ff" d="M89.36,-54.84C77.61,-45.91 62.47,-34.41 50.55,-25.35"/>
<polygon fill="#63b8ff" stroke="#63b8ff" points="52.62,-22.53 42.54,-19.27 48.38,-28.1 52.62,-22.53"/>
</g>
<!-- Node3 -->
<g id="node3" class="node">
<title>Node3</title>
<g id="a_node3"><a xlink:title=" ">
<polygon fill="#e0e0e0" stroke="#999999" points="136,-19 80,-19 80,0 136,0 136,-19"/>
<text text-anchor="middle" x="108" y="-7" font-family="Helvetica,sans-Serif" font-size="10.00">stddef.h</text>
</a>
</g>
</g>
<!-- Node1&#45;&gt;Node3 -->
<g id="edge2" class="edge">
<title>Node1&#45;&gt;Node3</title>
<path fill="none" stroke="#63b8ff" d="M108,-54.84C108,-47.21 108,-37.7 108,-29.45"/>
<polygon fill="#63b8ff" stroke="#63b8ff" points="111.5,-29.27 108,-19.27 104.5,-29.27 111.5,-29.27"/>
</g>
<!-- Node4 -->
<g id="node4" class="node">
<title>Node4</title>
<g id="a_node4"><a xlink:title=" ">
<polygon fill="#e0e0e0" stroke="#999999" points="207.5,-19 154.5,-19 154.5,0 207.5,0 207.5,-19"/>
<text text-anchor="middle" x="181" y="-7" font-family="Helvetica,sans-Serif" font-size="10.00">stdint.h</text>
</a>
</g>
</g>
<!-- Node1&#45;&gt;Node4 -->
<g id="edge3" class="edge">
<title>Node1&#45;&gt;Node4</title>
<path fill="none" stroke="#63b8ff" d="M125.67,-54.84C136.7,-46 150.89,-34.63 162.13,-25.62"/>
<polygon fill="#63b8ff" stroke="#63b8ff" points="164.45,-28.25 170.06,-19.27 160.07,-22.79 164.45,-28.25"/>
</g>
</g>
</svg>
