<?xml version="1.0" encoding="UTF-8" standalone="no"?>
<!DOCTYPE svg PUBLIC "-//W3C//DTD SVG 1.1//EN"
 "http://www.w3.org/Graphics/SVG/1.1/DTD/svg11.dtd">
<!-- Generated by graphviz version 2.43.0 (0)
 -->
<!-- Title: library/trie/cpp/include/tetengo/trie/trie_iterator.hpp Pages: 1 -->
<svg width="670pt" height="173pt"
 viewBox="0.00 0.00 669.50 173.00" xmlns="http://www.w3.org/2000/svg" xmlns:xlink="http://www.w3.org/1999/xlink">
<g id="graph0" class="graph" transform="scale(1 1) rotate(0) translate(4 169)">
<title>library/trie/cpp/include/tetengo/trie/trie_iterator.hpp</title>
<polygon fill="white" stroke="transparent" points="-4,4 -4,-169 665.5,-169 665.5,4 -4,4"/>
<!-- Node1 -->
<g id="node1" class="node">
<title>Node1</title>
<g id="a_node1"><a xlink:title="A trie iterator.">
<polygon fill="#bfbfbf" stroke="black" points="30.5,-134.5 30.5,-164.5 188.5,-164.5 188.5,-134.5 30.5,-134.5"/>
<text text-anchor="start" x="38.5" y="-152.5" font-family="Helvetica,sans-Serif" font-size="10.00">library/trie/cpp/include</text>
<text text-anchor="middle" x="109.5" y="-141.5" font-family="Helvetica,sans-Serif" font-size="10.00">/tetengo/trie/trie_iterator.hpp</text>
</a>
</g>
</g>
<!-- Node2 -->
<g id="node2" class="node">
<title>Node2</title>
<g id="a_node2"><a xlink:title=" ">
<polygon fill="white" stroke="#bfbfbf" points="8,-73 8,-92 43,-92 43,-73 8,-73"/>
<text text-anchor="middle" x="25.5" y="-80" font-family="Helvetica,sans-Serif" font-size="10.00">any</text>
</a>
</g>
</g>
<!-- Node1&#45;&gt;Node2 -->
<g id="edge1" class="edge">
<title>Node1&#45;&gt;Node2</title>
<path fill="none" stroke="midnightblue" d="M91.27,-134.4C77.53,-123.76 58.72,-109.2 44.73,-98.38"/>
<polygon fill="midnightblue" stroke="midnightblue" points="46.79,-95.55 36.74,-92.19 42.5,-101.08 46.79,-95.55"/>
</g>
<!-- Node3 -->
<g id="node3" class="node">
<title>Node3</title>
<g id="a_node3"><a xlink:title=" ">
<polygon fill="white" stroke="#bfbfbf" points="0,-6 0,-25 53,-25 53,-6 0,-6"/>
<text text-anchor="middle" x="26.5" y="-13" font-family="Helvetica,sans-Serif" font-size="10.00">iterator</text>
</a>
</g>
</g>
<!-- Node1&#45;&gt;Node3 -->
<g id="edge2" class="edge">
<title>Node1&#45;&gt;Node3</title>
<path fill="none" stroke="midnightblue" d="M100.62,-134.37C85.27,-109.97 53.85,-60 37.28,-33.65"/>
<polygon fill="midnightblue" stroke="midnightblue" points="40.19,-31.7 31.91,-25.1 34.27,-35.43 40.19,-31.7"/>
</g>
<!-- Node4 -->
<g id="node4" class="node">
<title>Node4</title>
<g id="a_node4"><a xlink:title=" ">
<polygon fill="white" stroke="#bfbfbf" points="71,-6 71,-25 116,-25 116,-6 71,-6"/>
<text text-anchor="middle" x="93.5" y="-13" font-family="Helvetica,sans-Serif" font-size="10.00">utility</text>
</a>
</g>
</g>
<!-- Node1&#45;&gt;Node4 -->
<g id="edge3" class="edge">
<title>Node1&#45;&gt;Node4</title>
<path fill="none" stroke="midnightblue" d="M107.79,-134.37C104.88,-110.4 98.98,-61.75 95.75,-35.06"/>
<polygon fill="midnightblue" stroke="midnightblue" points="99.22,-34.6 94.54,-25.1 92.27,-35.45 99.22,-34.6"/>
</g>
<!-- Node5 -->
<g id="node5" class="node">
<title>Node5</title>
<g id="a_node5"><a xlink:title=" ">
<polygon fill="white" stroke="#bfbfbf" points="134,-0.5 134,-30.5 259,-30.5 259,-0.5 134,-0.5"/>
<text text-anchor="start" x="142" y="-18.5" font-family="Helvetica,sans-Serif" font-size="10.00">boost/stl_interfaces</text>
<text text-anchor="middle" x="196.5" y="-7.5" font-family="Helvetica,sans-Serif" font-size="10.00">/iterator_interface.hpp</text>
</a>
</g>
</g>
<!-- Node1&#45;&gt;Node5 -->
<g id="edge4" class="edge">
<title>Node1&#45;&gt;Node5</title>
<path fill="none" stroke="midnightblue" d="M118.81,-134.37C133.85,-111.55 163.64,-66.36 181.64,-39.04"/>
<polygon fill="midnightblue" stroke="midnightblue" points="184.68,-40.8 187.26,-30.52 178.83,-36.95 184.68,-40.8"/>
</g>
<!-- Node6 -->
<g id="node6" class="node">
<title>Node6</title>
<g id="a_node6"><a xlink:href="double__array__iterator_8hpp.html" target="_top" xlink:title="A double array iterator.">
<polygon fill="white" stroke="black" points="274.5,-67.5 274.5,-97.5 384.5,-97.5 384.5,-67.5 274.5,-67.5"/>
<text text-anchor="start" x="282.5" y="-85.5" font-family="Helvetica,sans-Serif" font-size="10.00">tetengo/trie/double</text>
<text text-anchor="middle" x="329.5" y="-74.5" font-family="Helvetica,sans-Serif" font-size="10.00">_array_iterator.hpp</text>
</a>
</g>
</g>
<!-- Node1&#45;&gt;Node6 -->
<g id="edge5" class="edge">
<title>Node1&#45;&gt;Node6</title>
<path fill="none" stroke="midnightblue" d="M156.97,-134.48C190.68,-124.51 236.13,-111.09 271.92,-100.51"/>
<polygon fill="midnightblue" stroke="midnightblue" points="273.14,-103.8 281.74,-97.61 271.16,-97.09 273.14,-103.8"/>
</g>
<!-- Node6&#45;&gt;Node3 -->
<g id="edge8" class="edge">
<title>Node6&#45;&gt;Node3</title>
<path fill="none" stroke="midnightblue" d="M274.3,-74.5C219.56,-66.77 133.65,-52.49 61.5,-31 59.21,-30.32 56.87,-29.54 54.54,-28.7"/>
<polygon fill="midnightblue" stroke="midnightblue" points="55.72,-25.41 45.13,-25.05 53.19,-31.93 55.72,-25.41"/>
</g>
<!-- Node6&#45;&gt;Node4 -->
<g id="edge12" class="edge">
<title>Node6&#45;&gt;Node4</title>
<path fill="none" stroke="midnightblue" d="M274.16,-70.67C232.67,-61.86 174.79,-48.11 125.5,-31 123.84,-30.42 122.14,-29.79 120.44,-29.12"/>
<polygon fill="midnightblue" stroke="midnightblue" points="121.44,-25.75 110.87,-25.07 118.71,-32.19 121.44,-25.75"/>
</g>
<!-- Node6&#45;&gt;Node5 -->
<g id="edge14" class="edge">
<title>Node6&#45;&gt;Node5</title>
<path fill="none" stroke="midnightblue" d="M300.64,-67.4C281.21,-57.9 255.38,-45.28 234.31,-34.98"/>
<polygon fill="midnightblue" stroke="midnightblue" points="235.82,-31.82 225.3,-30.58 232.75,-38.11 235.82,-31.82"/>
</g>
<!-- Node7 -->
<g id="node7" class="node">
<title>Node7</title>
<g id="a_node7"><a xlink:title=" ">
<polygon fill="white" stroke="#bfbfbf" points="466,-6 466,-25 519,-25 519,-6 466,-6"/>
<text text-anchor="middle" x="492.5" y="-13" font-family="Helvetica,sans-Serif" font-size="10.00">cstddef</text>
</a>
</g>
</g>
<!-- Node6&#45;&gt;Node7 -->
<g id="edge6" class="edge">
<title>Node6&#45;&gt;Node7</title>
<path fill="none" stroke="midnightblue" d="M365.7,-67.41C391.37,-57.37 426.6,-43.49 457.5,-31 459.09,-30.36 460.73,-29.69 462.37,-29.02"/>
<polygon fill="midnightblue" stroke="midnightblue" points="463.88,-32.19 471.8,-25.15 461.22,-25.71 463.88,-32.19"/>
</g>
<!-- Node8 -->
<g id="node8" class="node">
<title>Node8</title>
<g id="a_node8"><a xlink:title=" ">
<polygon fill="white" stroke="#bfbfbf" points="537.5,-6 537.5,-25 587.5,-25 587.5,-6 537.5,-6"/>
<text text-anchor="middle" x="562.5" y="-13" font-family="Helvetica,sans-Serif" font-size="10.00">cstdint</text>
</a>
</g>
</g>
<!-- Node6&#45;&gt;Node8 -->
<g id="edge7" class="edge">
<title>Node6&#45;&gt;Node8</title>
<path fill="none" stroke="midnightblue" d="M384.64,-69.92C424.96,-60.87 480.72,-47.14 528.5,-31 530.42,-30.35 532.37,-29.65 534.34,-28.9"/>
<polygon fill="midnightblue" stroke="midnightblue" points="536.03,-31.99 544,-25 533.41,-25.5 536.03,-31.99"/>
</g>
<!-- Node9 -->
<g id="node9" class="node">
<title>Node9</title>
<g id="a_node9"><a xlink:title=" ">
<polygon fill="white" stroke="#bfbfbf" points="605.5,-6 605.5,-25 661.5,-25 661.5,-6 605.5,-6"/>
<text text-anchor="middle" x="633.5" y="-13" font-family="Helvetica,sans-Serif" font-size="10.00">optional</text>
</a>
</g>
</g>
<!-- Node6&#45;&gt;Node9 -->
<g id="edge9" class="edge">
<title>Node6&#45;&gt;Node9</title>
<path fill="none" stroke="midnightblue" d="M384.66,-74.14C439.15,-66.16 524.53,-51.71 596.5,-31 599.08,-30.26 601.74,-29.4 604.38,-28.49"/>
<polygon fill="midnightblue" stroke="midnightblue" points="605.6,-31.77 613.76,-25.02 603.17,-25.21 605.6,-31.77"/>
</g>
<!-- Node10 -->
<g id="node10" class="node">
<title>Node10</title>
<g id="a_node10"><a xlink:title=" ">
<polygon fill="white" stroke="#bfbfbf" points="277,-6 277,-25 320,-25 320,-6 277,-6"/>
<text text-anchor="middle" x="298.5" y="-13" font-family="Helvetica,sans-Serif" font-size="10.00">stack</text>
</a>
</g>
</g>
<!-- Node6&#45;&gt;Node10 -->
<g id="edge10" class="edge">
<title>Node6&#45;&gt;Node10</title>
<path fill="none" stroke="midnightblue" d="M322.77,-67.4C318.18,-57.76 312.05,-44.91 307.1,-34.54"/>
<polygon fill="midnightblue" stroke="midnightblue" points="310.11,-32.71 302.65,-25.19 303.79,-35.73 310.11,-32.71"/>
</g>
<!-- Node11 -->
<g id="node11" class="node">
<title>Node11</title>
<g id="a_node11"><a xlink:title=" ">
<polygon fill="white" stroke="#bfbfbf" points="338.5,-6 338.5,-25 382.5,-25 382.5,-6 338.5,-6"/>
<text text-anchor="middle" x="360.5" y="-13" font-family="Helvetica,sans-Serif" font-size="10.00">string</text>
</a>
</g>
</g>
<!-- Node6&#45;&gt;Node11 -->
<g id="edge11" class="edge">
<title>Node6&#45;&gt;Node11</title>
<path fill="none" stroke="midnightblue" d="M336.23,-67.4C340.82,-57.76 346.95,-44.91 351.9,-34.54"/>
<polygon fill="midnightblue" stroke="midnightblue" points="355.21,-35.73 356.35,-25.19 348.89,-32.71 355.21,-35.73"/>
</g>
<!-- Node12 -->
<g id="node12" class="node">
<title>Node12</title>
<g id="a_node12"><a xlink:title=" ">
<polygon fill="white" stroke="#bfbfbf" points="401,-6 401,-25 448,-25 448,-6 401,-6"/>
<text text-anchor="middle" x="424.5" y="-13" font-family="Helvetica,sans-Serif" font-size="10.00">vector</text>
</a>
</g>
</g>
<!-- Node6&#45;&gt;Node12 -->
<g id="edge13" class="edge">
<title>Node6&#45;&gt;Node12</title>
<path fill="none" stroke="midnightblue" d="M350.11,-67.4C365.9,-56.6 387.59,-41.76 403.47,-30.89"/>
<polygon fill="midnightblue" stroke="midnightblue" points="405.79,-33.54 412.07,-25.01 401.84,-27.77 405.79,-33.54"/>
</g>
</g>
</svg>
