<?xml version="1.0" encoding="UTF-8" standalone="no"?>
<!DOCTYPE svg PUBLIC "-//W3C//DTD SVG 1.1//EN"
 "http://www.w3.org/Graphics/SVG/1.1/DTD/svg11.dtd">
<!-- Generated by graphviz version 2.43.0 (0)
 -->
<!-- Title: library/trie/cpp/include/tetengo/trie/storage.hpp Pages: 1 -->
<svg width="578pt" height="106pt"
 viewBox="0.00 0.00 578.00 106.00" xmlns="http://www.w3.org/2000/svg" xmlns:xlink="http://www.w3.org/1999/xlink">
<g id="graph0" class="graph" transform="scale(1 1) rotate(0) translate(4 102)">
<title>library/trie/cpp/include/tetengo/trie/storage.hpp</title>
<polygon fill="white" stroke="transparent" points="-4,4 -4,-102 574,-102 574,4 -4,4"/>
<!-- Node1 -->
<g id="node1" class="node">
<title>Node1</title>
<g id="a_node1"><a xlink:title="A storage.">
<polygon fill="#bfbfbf" stroke="black" points="220.5,-67.5 220.5,-97.5 357.5,-97.5 357.5,-67.5 220.5,-67.5"/>
<text text-anchor="start" x="228.5" y="-85.5" font-family="Helvetica,sans-Serif" font-size="10.00">library/trie/cpp/include</text>
<text text-anchor="middle" x="289" y="-74.5" font-family="Helvetica,sans-Serif" font-size="10.00">/tetengo/trie/storage.hpp</text>
</a>
</g>
</g>
<!-- Node2 -->
<g id="node2" class="node">
<title>Node2</title>
<g id="a_node2"><a xlink:href="trie_2cpp_2include_2tetengo_2trie_2memory__storage_8hpp.html" target="_top" xlink:title="A memory storage.">
<polygon fill="white" stroke="black" points="0,-0.5 0,-30.5 184,-30.5 184,-0.5 0,-0.5"/>
<text text-anchor="start" x="8" y="-18.5" font-family="Helvetica,sans-Serif" font-size="10.00">library/trie/cpp/include</text>
<text text-anchor="middle" x="92" y="-7.5" font-family="Helvetica,sans-Serif" font-size="10.00">/tetengo/trie/memory_storage.hpp</text>
</a>
</g>
</g>
<!-- Node1&#45;&gt;Node2 -->
<g id="edge1" class="edge">
<title>Node1&#45;&gt;Node2</title>
<path fill="none" stroke="midnightblue" d="M236.65,-64.23C204.78,-53.71 164.59,-40.45 134.66,-30.58"/>
<polygon fill="midnightblue" stroke="midnightblue" points="235.66,-67.59 246.25,-67.4 237.85,-60.94 235.66,-67.59"/>
</g>
<!-- Node3 -->
<g id="node3" class="node">
<title>Node3</title>
<g id="a_node3"><a xlink:href="mmap__storage_8hpp.html" target="_top" xlink:title="An mmap storage.">
<polygon fill="white" stroke="black" points="202,-0.5 202,-30.5 376,-30.5 376,-0.5 202,-0.5"/>
<text text-anchor="start" x="210" y="-18.5" font-family="Helvetica,sans-Serif" font-size="10.00">library/trie/cpp/include</text>
<text text-anchor="middle" x="289" y="-7.5" font-family="Helvetica,sans-Serif" font-size="10.00">/tetengo/trie/mmap_storage.hpp</text>
</a>
</g>
</g>
<!-- Node1&#45;&gt;Node3 -->
<g id="edge2" class="edge">
<title>Node1&#45;&gt;Node3</title>
<path fill="none" stroke="midnightblue" d="M289,-57.11C289,-48.15 289,-38.32 289,-30.58"/>
<polygon fill="midnightblue" stroke="midnightblue" points="285.5,-57.4 289,-67.4 292.5,-57.4 285.5,-57.4"/>
</g>
<!-- Node4 -->
<g id="node4" class="node">
<title>Node4</title>
<g id="a_node4"><a xlink:href="shared__storage_8hpp.html" target="_top" xlink:title="A shared storage.">
<polygon fill="white" stroke="black" points="394,-0.5 394,-30.5 570,-30.5 570,-0.5 394,-0.5"/>
<text text-anchor="start" x="402" y="-18.5" font-family="Helvetica,sans-Serif" font-size="10.00">library/trie/cpp/include</text>
<text text-anchor="middle" x="482" y="-7.5" font-family="Helvetica,sans-Serif" font-size="10.00">/tetengo/trie/shared_storage.hpp</text>
</a>
</g>
</g>
<!-- Node1&#45;&gt;Node4 -->
<g id="edge3" class="edge">
<title>Node1&#45;&gt;Node4</title>
<path fill="none" stroke="midnightblue" d="M340.69,-64.09C371.84,-53.6 411.01,-40.41 440.2,-30.58"/>
<polygon fill="midnightblue" stroke="midnightblue" points="339.24,-60.89 330.88,-67.4 341.47,-67.52 339.24,-60.89"/>
</g>
</g>
</svg>
