<?xml version="1.0" encoding="UTF-8" standalone="no"?>
<!DOCTYPE svg PUBLIC "-//W3C//DTD SVG 1.1//EN"
 "http://www.w3.org/Graphics/SVG/1.1/DTD/svg11.dtd">
<!-- Generated by graphviz version 2.43.0 (0)
 -->
<!-- Title: library/trie/cpp/include/tetengo/trie/memory_storage.hpp Pages: 1 -->
<svg width="503pt" height="151pt"
 viewBox="0.00 0.00 502.50 151.00" xmlns="http://www.w3.org/2000/svg" xmlns:xlink="http://www.w3.org/1999/xlink">
<g id="graph0" class="graph" transform="scale(1 1) rotate(0) translate(4 147)">
<title>library/trie/cpp/include/tetengo/trie/memory_storage.hpp</title>
<polygon fill="white" stroke="transparent" points="-4,4 -4,-147 498.5,-147 498.5,4 -4,4"/>
<!-- Node1 -->
<g id="node1" class="node">
<title>Node1</title>
<g id="a_node1"><a xlink:title="A memory storage.">
<polygon fill="#bfbfbf" stroke="black" points="104.5,-112.5 104.5,-142.5 288.5,-142.5 288.5,-112.5 104.5,-112.5"/>
<text text-anchor="start" x="112.5" y="-130.5" font-family="Helvetica,sans-Serif" font-size="10.00">library/trie/cpp/include</text>
<text text-anchor="middle" x="196.5" y="-119.5" font-family="Helvetica,sans-Serif" font-size="10.00">/tetengo/trie/memory_storage.hpp</text>
</a>
</g>
</g>
<!-- Node2 -->
<g id="node2" class="node">
<title>Node2</title>
<g id="a_node2"><a xlink:title=" ">
<polygon fill="white" stroke="#bfbfbf" points="0,-0.5 0,-19.5 35,-19.5 35,-0.5 0,-0.5"/>
<text text-anchor="middle" x="17.5" y="-7.5" font-family="Helvetica,sans-Serif" font-size="10.00">any</text>
</a>
</g>
</g>
<!-- Node1&#45;&gt;Node2 -->
<g id="edge1" class="edge">
<title>Node1&#45;&gt;Node2</title>
<path fill="none" stroke="midnightblue" d="M174.55,-112.34C140.1,-90.11 73.73,-47.28 39.34,-25.09"/>
<polygon fill="midnightblue" stroke="midnightblue" points="41.24,-22.15 30.94,-19.67 37.44,-28.03 41.24,-22.15"/>
</g>
<!-- Node3 -->
<g id="node3" class="node">
<title>Node3</title>
<g id="a_node3"><a xlink:title=" ">
<polygon fill="white" stroke="#bfbfbf" points="53,-0.5 53,-19.5 106,-19.5 106,-0.5 53,-0.5"/>
<text text-anchor="middle" x="79.5" y="-7.5" font-family="Helvetica,sans-Serif" font-size="10.00">cstddef</text>
</a>
</g>
</g>
<!-- Node1&#45;&gt;Node3 -->
<g id="edge2" class="edge">
<title>Node1&#45;&gt;Node3</title>
<path fill="none" stroke="midnightblue" d="M182.15,-112.34C160.21,-90.68 118.45,-49.45 95.54,-26.83"/>
<polygon fill="midnightblue" stroke="midnightblue" points="97.86,-24.2 88.28,-19.67 92.94,-29.19 97.86,-24.2"/>
</g>
<!-- Node4 -->
<g id="node4" class="node">
<title>Node4</title>
<g id="a_node4"><a xlink:title=" ">
<polygon fill="white" stroke="#bfbfbf" points="124.5,-0.5 124.5,-19.5 174.5,-19.5 174.5,-0.5 124.5,-0.5"/>
<text text-anchor="middle" x="149.5" y="-7.5" font-family="Helvetica,sans-Serif" font-size="10.00">cstdint</text>
</a>
</g>
</g>
<!-- Node1&#45;&gt;Node4 -->
<g id="edge3" class="edge">
<title>Node1&#45;&gt;Node4</title>
<path fill="none" stroke="midnightblue" d="M187.53,-112.34C181.55,-102.44 173.83,-88.77 168.5,-76 162.13,-60.74 157.03,-42.63 153.72,-29.41"/>
<polygon fill="midnightblue" stroke="midnightblue" points="157.11,-28.53 151.37,-19.62 150.3,-30.16 157.11,-28.53"/>
</g>
<!-- Node5 -->
<g id="node5" class="node">
<title>Node5</title>
<g id="a_node5"><a xlink:title=" ">
<polygon fill="white" stroke="#bfbfbf" points="364.5,-0.5 364.5,-19.5 418.5,-19.5 418.5,-0.5 364.5,-0.5"/>
<text text-anchor="middle" x="391.5" y="-7.5" font-family="Helvetica,sans-Serif" font-size="10.00">istream</text>
</a>
</g>
</g>
<!-- Node1&#45;&gt;Node5 -->
<g id="edge4" class="edge">
<title>Node1&#45;&gt;Node5</title>
<path fill="none" stroke="midnightblue" d="M241.68,-112.46C266.05,-103.84 296.04,-91.47 320.5,-76 342.22,-62.26 363.47,-41.56 376.98,-27.23"/>
<polygon fill="midnightblue" stroke="midnightblue" points="379.78,-29.36 383.98,-19.63 374.63,-24.62 379.78,-29.36"/>
</g>
<!-- Node6 -->
<g id="node6" class="node">
<title>Node6</title>
<g id="a_node6"><a xlink:title=" ">
<polygon fill="white" stroke="#bfbfbf" points="436.5,-0.5 436.5,-19.5 494.5,-19.5 494.5,-0.5 436.5,-0.5"/>
<text text-anchor="middle" x="465.5" y="-7.5" font-family="Helvetica,sans-Serif" font-size="10.00">memory</text>
</a>
</g>
</g>
<!-- Node1&#45;&gt;Node6 -->
<g id="edge5" class="edge">
<title>Node1&#45;&gt;Node6</title>
<path fill="none" stroke="midnightblue" d="M245.97,-112.43C275.87,-103.32 314.46,-90.48 347.5,-76 381.95,-60.9 419.69,-39.11 442.99,-25.01"/>
<polygon fill="midnightblue" stroke="midnightblue" points="445.04,-27.85 451.75,-19.65 441.39,-21.88 445.04,-27.85"/>
</g>
<!-- Node7 -->
<g id="node7" class="node">
<title>Node7</title>
<g id="a_node7"><a xlink:href="trie_2cpp_2include_2tetengo_2trie_2storage_8hpp.html" target="_top" xlink:title="A storage.">
<polygon fill="white" stroke="black" points="177.5,-56.5 177.5,-75.5 311.5,-75.5 311.5,-56.5 177.5,-56.5"/>
<text text-anchor="middle" x="244.5" y="-63.5" font-family="Helvetica,sans-Serif" font-size="10.00">tetengo/trie/storage.hpp</text>
</a>
</g>
</g>
<!-- Node1&#45;&gt;Node7 -->
<g id="edge6" class="edge">
<title>Node1&#45;&gt;Node7</title>
<path fill="none" stroke="midnightblue" d="M207.88,-112.4C214.85,-103.75 223.81,-92.64 231.13,-83.58"/>
<polygon fill="midnightblue" stroke="midnightblue" points="233.96,-85.64 237.52,-75.66 228.51,-81.24 233.96,-85.64"/>
</g>
<!-- Node7&#45;&gt;Node2 -->
<g id="edge7" class="edge">
<title>Node7&#45;&gt;Node2</title>
<path fill="none" stroke="midnightblue" d="M199.43,-56.43C160.61,-48.7 102.95,-36.43 44.76,-20.13"/>
<polygon fill="midnightblue" stroke="midnightblue" points="45.61,-16.73 35.04,-17.37 43.7,-23.47 45.61,-16.73"/>
</g>
<!-- Node7&#45;&gt;Node3 -->
<g id="edge8" class="edge">
<title>Node7&#45;&gt;Node3</title>
<path fill="none" stroke="midnightblue" d="M218.36,-56.44C190.48,-47.32 146.15,-32.81 115.1,-22.65"/>
<polygon fill="midnightblue" stroke="midnightblue" points="116.12,-19.3 105.52,-19.52 113.94,-25.95 116.12,-19.3"/>
</g>
<!-- Node7&#45;&gt;Node4 -->
<g id="edge9" class="edge">
<title>Node7&#45;&gt;Node4</title>
<path fill="none" stroke="midnightblue" d="M229.24,-56.32C214.28,-47.82 191.25,-34.73 173.77,-24.8"/>
<polygon fill="midnightblue" stroke="midnightblue" points="175.15,-21.55 164.73,-19.65 171.69,-27.64 175.15,-21.55"/>
</g>
<!-- Node7&#45;&gt;Node5 -->
<g id="edge10" class="edge">
<title>Node7&#45;&gt;Node5</title>
<path fill="none" stroke="midnightblue" d="M267.79,-56.44C292.31,-47.44 331.1,-33.19 358.7,-23.05"/>
<polygon fill="midnightblue" stroke="midnightblue" points="360.14,-26.25 368.32,-19.52 357.72,-19.68 360.14,-26.25"/>
</g>
<!-- Node7&#45;&gt;Node6 -->
<g id="edge11" class="edge">
<title>Node7&#45;&gt;Node6</title>
<path fill="none" stroke="midnightblue" d="M279.52,-56.44C319.55,-46.66 384.89,-30.7 426.51,-20.53"/>
<polygon fill="midnightblue" stroke="midnightblue" points="427.41,-23.91 436.29,-18.14 425.75,-17.11 427.41,-23.91"/>
</g>
<!-- Node8 -->
<g id="node8" class="node">
<title>Node8</title>
<g id="a_node8"><a xlink:title=" ">
<polygon fill="white" stroke="#bfbfbf" points="192.5,-0.5 192.5,-19.5 346.5,-19.5 346.5,-0.5 192.5,-0.5"/>
<text text-anchor="middle" x="269.5" y="-7.5" font-family="Helvetica,sans-Serif" font-size="10.00">boost/core/noncopyable.hpp</text>
</a>
</g>
</g>
<!-- Node7&#45;&gt;Node8 -->
<g id="edge12" class="edge">
<title>Node7&#45;&gt;Node8</title>
<path fill="none" stroke="midnightblue" d="M248.63,-56.08C252.01,-48.77 256.92,-38.18 261.12,-29.1"/>
<polygon fill="midnightblue" stroke="midnightblue" points="264.42,-30.3 265.45,-19.75 258.07,-27.36 264.42,-30.3"/>
</g>
</g>
</svg>
