<?xml version="1.0" encoding="UTF-8" standalone="no"?>
<!DOCTYPE svg PUBLIC "-//W3C//DTD SVG 1.1//EN"
 "http://www.w3.org/Graphics/SVG/1.1/DTD/svg11.dtd">
<!-- Generated by graphviz version 2.43.0 (0)
 -->
<!-- Title: library/trie/cpp/include/tetengo/trie/storage.hpp Pages: 1 -->
<svg width="578pt" height="104pt"
 viewBox="0.00 0.00 578.00 104.00" xmlns="http://www.w3.org/2000/svg" xmlns:xlink="http://www.w3.org/1999/xlink">
<g id="graph0" class="graph" transform="scale(1 1) rotate(0) translate(4 100)">
<title>library/trie/cpp/include/tetengo/trie/storage.hpp</title>
<!-- Node1 -->
<g id="node1" class="node">
<title>Node1</title>
<g id="a_node1"><a xlink:title="A storage.">
<polygon fill="#999999" stroke="#666666" points="357.5,-96 220.5,-96 220.5,-66 357.5,-66 357.5,-96"/>
<text text-anchor="start" x="228.5" y="-84" font-family="Helvetica,sans-Serif" font-size="10.00">library/trie/cpp/include</text>
<text text-anchor="middle" x="289" y="-73" font-family="Helvetica,sans-Serif" font-size="10.00">/tetengo/trie/storage.hpp</text>
</a>
</g>
</g>
<!-- Node2 -->
<g id="node2" class="node">
<title>Node2</title>
<g id="a_node2"><a xlink:href="trie_2cpp_2include_2tetengo_2trie_2memory__storage_8hpp.html" target="_top" xlink:title="A memory storage.">
<polygon fill="white" stroke="#666666" points="184,-30 0,-30 0,0 184,0 184,-30"/>
<text text-anchor="start" x="8" y="-18" font-family="Helvetica,sans-Serif" font-size="10.00">library/trie/cpp/include</text>
<text text-anchor="middle" x="92" y="-7" font-family="Helvetica,sans-Serif" font-size="10.00">/tetengo/trie/memory_storage.hpp</text>
</a>
</g>
</g>
<!-- Node1&#45;&gt;Node2 -->
<g id="edge1" class="edge">
<title>Node1&#45;&gt;Node2</title>
<path fill="none" stroke="#63b8ff" d="M236.23,-62.86C204.6,-52.58 164.88,-39.68 135.13,-30.01"/>
<polygon fill="#63b8ff" stroke="#63b8ff" points="235.18,-66.19 245.77,-65.95 237.34,-59.54 235.18,-66.19"/>
</g>
<!-- Node3 -->
<g id="node3" class="node">
<title>Node3</title>
<g id="a_node3"><a xlink:href="mmap__storage_8hpp.html" target="_top" xlink:title="An mmap storage.">
<polygon fill="white" stroke="#666666" points="376,-30 202,-30 202,0 376,0 376,-30"/>
<text text-anchor="start" x="210" y="-18" font-family="Helvetica,sans-Serif" font-size="10.00">library/trie/cpp/include</text>
<text text-anchor="middle" x="289" y="-7" font-family="Helvetica,sans-Serif" font-size="10.00">/tetengo/trie/mmap_storage.hpp</text>
</a>
</g>
</g>
<!-- Node1&#45;&gt;Node3 -->
<g id="edge2" class="edge">
<title>Node1&#45;&gt;Node3</title>
<path fill="none" stroke="#63b8ff" d="M289,-55.54C289,-46.96 289,-37.61 289,-30.16"/>
<polygon fill="#63b8ff" stroke="#63b8ff" points="285.5,-55.8 289,-65.8 292.5,-55.8 285.5,-55.8"/>
</g>
<!-- Node4 -->
<g id="node4" class="node">
<title>Node4</title>
<g id="a_node4"><a xlink:href="shared__storage_8hpp.html" target="_top" xlink:title="A shared storage.">
<polygon fill="white" stroke="#666666" points="570,-30 394,-30 394,0 570,0 570,-30"/>
<text text-anchor="start" x="402" y="-18" font-family="Helvetica,sans-Serif" font-size="10.00">library/trie/cpp/include</text>
<text text-anchor="middle" x="482" y="-7" font-family="Helvetica,sans-Serif" font-size="10.00">/tetengo/trie/shared_storage.hpp</text>
</a>
</g>
</g>
<!-- Node1&#45;&gt;Node4 -->
<g id="edge3" class="edge">
<title>Node1&#45;&gt;Node4</title>
<path fill="none" stroke="#63b8ff" d="M341.1,-62.72C372.02,-52.47 410.73,-39.63 439.74,-30.01"/>
<polygon fill="#63b8ff" stroke="#63b8ff" points="339.74,-59.49 331.35,-65.95 341.95,-66.13 339.74,-59.49"/>
</g>
</g>
</svg>
