<?xml version="1.0" encoding="UTF-8" standalone="no"?>
<!DOCTYPE svg PUBLIC "-//W3C//DTD SVG 1.1//EN"
 "http://www.w3.org/Graphics/SVG/1.1/DTD/svg11.dtd">
<!-- Generated by graphviz version 2.43.0 (0)
 -->
<!-- Title: library/trie/cpp/include/tetengo/trie/trie.hpp Pages: 1 -->
<svg width="1125pt" height="240pt"
 viewBox="0.00 0.00 1124.50 240.00" xmlns="http://www.w3.org/2000/svg" xmlns:xlink="http://www.w3.org/1999/xlink">
<g id="graph0" class="graph" transform="scale(1 1) rotate(0) translate(4 236)">
<title>library/trie/cpp/include/tetengo/trie/trie.hpp</title>
<polygon fill="white" stroke="transparent" points="-4,4 -4,-236 1120.5,-236 1120.5,4 -4,4"/>
<!-- Node1 -->
<g id="node1" class="node">
<title>Node1</title>
<g id="a_node1"><a xlink:title="A trie.">
<polygon fill="#bfbfbf" stroke="black" points="450,-201.5 450,-231.5 576,-231.5 576,-201.5 450,-201.5"/>
<text text-anchor="start" x="458" y="-219.5" font-family="Helvetica,sans-Serif" font-size="10.00">library/trie/cpp/include</text>
<text text-anchor="middle" x="513" y="-208.5" font-family="Helvetica,sans-Serif" font-size="10.00">/tetengo/trie/trie.hpp</text>
</a>
</g>
</g>
<!-- Node2 -->
<g id="node2" class="node">
<title>Node2</title>
<g id="a_node2"><a xlink:title=" ">
<polygon fill="white" stroke="#bfbfbf" points="0,-140 0,-159 64,-159 64,-140 0,-140"/>
<text text-anchor="middle" x="32" y="-147" font-family="Helvetica,sans-Serif" font-size="10.00">algorithm</text>
</a>
</g>
</g>
<!-- Node1&#45;&gt;Node2 -->
<g id="edge1" class="edge">
<title>Node1&#45;&gt;Node2</title>
<path fill="none" stroke="midnightblue" d="M449.72,-211.93C364.5,-206.26 208.48,-192.88 78,-165 74.06,-164.16 69.97,-163.12 65.94,-161.99"/>
<polygon fill="midnightblue" stroke="midnightblue" points="66.7,-158.57 56.12,-159.05 64.7,-165.27 66.7,-158.57"/>
</g>
<!-- Node3 -->
<g id="node3" class="node">
<title>Node3</title>
<g id="a_node3"><a xlink:title=" ">
<polygon fill="white" stroke="#bfbfbf" points="701.5,-73 701.5,-92 736.5,-92 736.5,-73 701.5,-73"/>
<text text-anchor="middle" x="719" y="-80" font-family="Helvetica,sans-Serif" font-size="10.00">any</text>
</a>
</g>
</g>
<!-- Node1&#45;&gt;Node3 -->
<g id="edge2" class="edge">
<title>Node1&#45;&gt;Node3</title>
<path fill="none" stroke="midnightblue" d="M576.01,-210.87C612.39,-205.15 656.79,-192.56 687,-165 705.04,-148.54 713.04,-120.64 716.5,-102.14"/>
<polygon fill="midnightblue" stroke="midnightblue" points="719.99,-102.45 718.11,-92.03 713.08,-101.35 719.99,-102.45"/>
</g>
<!-- Node4 -->
<g id="node4" class="node">
<title>Node4</title>
<g id="a_node4"><a xlink:title=" ">
<polygon fill="white" stroke="#bfbfbf" points="515.5,-6 515.5,-25 568.5,-25 568.5,-6 515.5,-6"/>
<text text-anchor="middle" x="542" y="-13" font-family="Helvetica,sans-Serif" font-size="10.00">cstddef</text>
</a>
</g>
</g>
<!-- Node1&#45;&gt;Node4 -->
<g id="edge3" class="edge">
<title>Node1&#45;&gt;Node4</title>
<path fill="none" stroke="midnightblue" d="M449.67,-216.26C355.94,-215.87 187.23,-208.9 149,-165 139.95,-154.61 141.1,-145.29 149,-134 242.73,-0.12 344.88,-75.98 502,-31 504.8,-30.2 507.68,-29.3 510.55,-28.36"/>
<polygon fill="midnightblue" stroke="midnightblue" points="511.87,-31.61 520.17,-25.03 509.58,-24.99 511.87,-31.61"/>
</g>
<!-- Node5 -->
<g id="node5" class="node">
<title>Node5</title>
<g id="a_node5"><a xlink:title=" ">
<polygon fill="white" stroke="#bfbfbf" points="158.5,-140 158.5,-159 223.5,-159 223.5,-140 158.5,-140"/>
<text text-anchor="middle" x="191" y="-147" font-family="Helvetica,sans-Serif" font-size="10.00">functional</text>
</a>
</g>
</g>
<!-- Node1&#45;&gt;Node5 -->
<g id="edge4" class="edge">
<title>Node1&#45;&gt;Node5</title>
<path fill="none" stroke="midnightblue" d="M449.86,-207.14C392.49,-198.85 305.79,-184.54 232,-165 229.03,-164.21 225.97,-163.31 222.92,-162.35"/>
<polygon fill="midnightblue" stroke="midnightblue" points="223.95,-159 213.35,-159.14 221.72,-165.64 223.95,-159"/>
</g>
<!-- Node6 -->
<g id="node6" class="node">
<title>Node6</title>
<g id="a_node6"><a xlink:title=" ">
<polygon fill="white" stroke="#bfbfbf" points="241.5,-140 241.5,-159 324.5,-159 324.5,-140 241.5,-140"/>
<text text-anchor="middle" x="283" y="-147" font-family="Helvetica,sans-Serif" font-size="10.00">initializer_list</text>
</a>
</g>
</g>
<!-- Node1&#45;&gt;Node6 -->
<g id="edge5" class="edge">
<title>Node1&#45;&gt;Node6</title>
<path fill="none" stroke="midnightblue" d="M463.38,-201.48C421.43,-189.62 362.11,-172.86 323.12,-161.84"/>
<polygon fill="midnightblue" stroke="midnightblue" points="323.75,-158.38 313.18,-159.03 321.85,-165.12 323.75,-158.38"/>
</g>
<!-- Node7 -->
<g id="node7" class="node">
<title>Node7</title>
<g id="a_node7"><a xlink:title=" ">
<polygon fill="white" stroke="#bfbfbf" points="652.5,-6 652.5,-25 705.5,-25 705.5,-6 652.5,-6"/>
<text text-anchor="middle" x="679" y="-13" font-family="Helvetica,sans-Serif" font-size="10.00">iterator</text>
</a>
</g>
</g>
<!-- Node1&#45;&gt;Node7 -->
<g id="edge6" class="edge">
<title>Node1&#45;&gt;Node7</title>
<path fill="none" stroke="midnightblue" d="M558.25,-201.45C578.06,-193.41 600.32,-181.56 616,-165 651.85,-127.13 668.88,-65.78 675.5,-35.15"/>
<polygon fill="midnightblue" stroke="midnightblue" points="679,-35.52 677.55,-25.02 672.13,-34.13 679,-35.52"/>
</g>
<!-- Node8 -->
<g id="node8" class="node">
<title>Node8</title>
<g id="a_node8"><a xlink:title=" ">
<polygon fill="white" stroke="#bfbfbf" points="381,-140 381,-159 439,-159 439,-140 381,-140"/>
<text text-anchor="middle" x="410" y="-147" font-family="Helvetica,sans-Serif" font-size="10.00">memory</text>
</a>
</g>
</g>
<!-- Node1&#45;&gt;Node8 -->
<g id="edge7" class="edge">
<title>Node1&#45;&gt;Node8</title>
<path fill="none" stroke="midnightblue" d="M490.65,-201.4C473.38,-190.5 449.58,-175.48 432.32,-164.58"/>
<polygon fill="midnightblue" stroke="midnightblue" points="433.81,-161.38 423.48,-159.01 430.07,-167.3 433.81,-161.38"/>
</g>
<!-- Node9 -->
<g id="node9" class="node">
<title>Node9</title>
<g id="a_node9"><a xlink:title=" ">
<polygon fill="white" stroke="#bfbfbf" points="449,-6 449,-25 493,-25 493,-6 449,-6"/>
<text text-anchor="middle" x="471" y="-13" font-family="Helvetica,sans-Serif" font-size="10.00">string</text>
</a>
</g>
</g>
<!-- Node1&#45;&gt;Node9 -->
<g id="edge8" class="edge">
<title>Node1&#45;&gt;Node9</title>
<path fill="none" stroke="midnightblue" d="M449.72,-211.44C348.41,-204.29 159.1,-188 139,-165 110.9,-132.85 166.65,-74.88 178,-67 219.85,-37.93 371.43,-23.66 438.59,-18.65"/>
<polygon fill="midnightblue" stroke="midnightblue" points="438.89,-22.14 448.61,-17.93 438.38,-15.16 438.89,-22.14"/>
</g>
<!-- Node10 -->
<g id="node10" class="node">
<title>Node10</title>
<g id="a_node10"><a xlink:title=" ">
<polygon fill="white" stroke="#bfbfbf" points="342.5,-73 342.5,-92 415.5,-92 415.5,-73 342.5,-73"/>
<text text-anchor="middle" x="379" y="-80" font-family="Helvetica,sans-Serif" font-size="10.00">string_view</text>
</a>
</g>
</g>
<!-- Node1&#45;&gt;Node10 -->
<g id="edge9" class="edge">
<title>Node1&#45;&gt;Node10</title>
<path fill="none" stroke="midnightblue" d="M449.65,-209.17C421,-202.78 389.66,-190.09 372,-165 358.94,-146.45 364.91,-119.31 371.24,-101.53"/>
<polygon fill="midnightblue" stroke="midnightblue" points="374.56,-102.64 374.96,-92.05 368.05,-100.08 374.56,-102.64"/>
</g>
<!-- Node11 -->
<g id="node11" class="node">
<title>Node11</title>
<g id="a_node11"><a xlink:title=" ">
<polygon fill="white" stroke="#bfbfbf" points="537.5,-73 537.5,-92 606.5,-92 606.5,-73 537.5,-73"/>
<text text-anchor="middle" x="572" y="-80" font-family="Helvetica,sans-Serif" font-size="10.00">type_traits</text>
</a>
</g>
</g>
<!-- Node1&#45;&gt;Node11 -->
<g id="edge10" class="edge">
<title>Node1&#45;&gt;Node11</title>
<path fill="none" stroke="midnightblue" d="M540.72,-201.46C554.34,-192.94 569.41,-180.67 577,-165 586.64,-145.12 582.69,-119.24 578.12,-102.03"/>
<polygon fill="midnightblue" stroke="midnightblue" points="581.38,-100.71 575.17,-92.13 574.67,-102.71 581.38,-100.71"/>
</g>
<!-- Node12 -->
<g id="node12" class="node">
<title>Node12</title>
<g id="a_node12"><a xlink:title=" ">
<polygon fill="white" stroke="#bfbfbf" points="1071.5,-6 1071.5,-25 1116.5,-25 1116.5,-6 1071.5,-6"/>
<text text-anchor="middle" x="1094" y="-13" font-family="Helvetica,sans-Serif" font-size="10.00">utility</text>
</a>
</g>
</g>
<!-- Node1&#45;&gt;Node12 -->
<g id="edge11" class="edge">
<title>Node1&#45;&gt;Node12</title>
<path fill="none" stroke="midnightblue" d="M576.06,-214.2C715.33,-210.73 1039.65,-199.04 1075,-165 1110.18,-131.12 1103.95,-66.96 1098.15,-35.23"/>
<polygon fill="midnightblue" stroke="midnightblue" points="1101.52,-34.24 1096.11,-25.13 1094.66,-35.62 1101.52,-34.24"/>
</g>
<!-- Node13 -->
<g id="node13" class="node">
<title>Node13</title>
<g id="a_node13"><a xlink:title=" ">
<polygon fill="white" stroke="#bfbfbf" points="587.5,-6 587.5,-25 634.5,-25 634.5,-6 587.5,-6"/>
<text text-anchor="middle" x="611" y="-13" font-family="Helvetica,sans-Serif" font-size="10.00">vector</text>
</a>
</g>
</g>
<!-- Node1&#45;&gt;Node13 -->
<g id="edge12" class="edge">
<title>Node1&#45;&gt;Node13</title>
<path fill="none" stroke="midnightblue" d="M546.58,-201.41C562.96,-193.01 581.73,-180.86 594,-165 623.43,-126.96 619.16,-66.18 614.56,-35.51"/>
<polygon fill="midnightblue" stroke="midnightblue" points="617.96,-34.62 612.85,-25.34 611.05,-35.78 617.96,-34.62"/>
</g>
<!-- Node14 -->
<g id="node14" class="node">
<title>Node14</title>
<g id="a_node14"><a xlink:title=" ">
<polygon fill="white" stroke="#bfbfbf" points="739,-140 739,-159 893,-159 893,-140 739,-140"/>
<text text-anchor="middle" x="816" y="-147" font-family="Helvetica,sans-Serif" font-size="10.00">boost/core/noncopyable.hpp</text>
</a>
</g>
</g>
<!-- Node1&#45;&gt;Node14 -->
<g id="edge13" class="edge">
<title>Node1&#45;&gt;Node14</title>
<path fill="none" stroke="midnightblue" d="M576.15,-201.95C632.57,-189.85 714.12,-172.35 766.09,-161.21"/>
<polygon fill="midnightblue" stroke="midnightblue" points="767.03,-164.58 776.08,-159.06 765.57,-157.74 767.03,-164.58"/>
</g>
<!-- Node15 -->
<g id="node15" class="node">
<title>Node15</title>
<g id="a_node15"><a xlink:href="default__serializer_8hpp.html" target="_top" xlink:title="A default serializer.">
<polygon fill="white" stroke="black" points="457.5,-134.5 457.5,-164.5 568.5,-164.5 568.5,-134.5 457.5,-134.5"/>
<text text-anchor="start" x="465.5" y="-152.5" font-family="Helvetica,sans-Serif" font-size="10.00">tetengo/trie/default</text>
<text text-anchor="middle" x="513" y="-141.5" font-family="Helvetica,sans-Serif" font-size="10.00">_serializer.hpp</text>
</a>
</g>
</g>
<!-- Node1&#45;&gt;Node15 -->
<g id="edge14" class="edge">
<title>Node1&#45;&gt;Node15</title>
<path fill="none" stroke="midnightblue" d="M513,-201.4C513,-193.64 513,-183.81 513,-174.86"/>
<polygon fill="midnightblue" stroke="midnightblue" points="516.5,-174.58 513,-164.58 509.5,-174.58 516.5,-174.58"/>
</g>
<!-- Node16 -->
<g id="node16" class="node">
<title>Node16</title>
<g id="a_node16"><a xlink:href="trie__iterator_8hpp.html" target="_top" xlink:title="A trie iterator.">
<polygon fill="white" stroke="black" points="911.5,-140 911.5,-159 1066.5,-159 1066.5,-140 911.5,-140"/>
<text text-anchor="middle" x="989" y="-147" font-family="Helvetica,sans-Serif" font-size="10.00">tetengo/trie/trie_iterator.hpp</text>
</a>
</g>
</g>
<!-- Node1&#45;&gt;Node16 -->
<g id="edge19" class="edge">
<title>Node1&#45;&gt;Node16</title>
<path fill="none" stroke="midnightblue" d="M576.09,-208.02C653.12,-198.72 787.31,-182 902,-165 911.01,-163.66 920.53,-162.17 929.84,-160.65"/>
<polygon fill="midnightblue" stroke="midnightblue" points="930.52,-164.09 939.82,-159.01 929.38,-157.18 930.52,-164.09"/>
</g>
<!-- Node15&#45;&gt;Node9 -->
<g id="edge15" class="edge">
<title>Node15&#45;&gt;Node9</title>
<path fill="none" stroke="midnightblue" d="M507.74,-134.42C504.04,-124.33 499.03,-110.39 495,-98 488.03,-76.57 480.84,-51.7 476.16,-35.12"/>
<polygon fill="midnightblue" stroke="midnightblue" points="479.43,-33.8 473.37,-25.11 472.69,-35.69 479.43,-33.8"/>
</g>
<!-- Node15&#45;&gt;Node10 -->
<g id="edge16" class="edge">
<title>Node15&#45;&gt;Node10</title>
<path fill="none" stroke="midnightblue" d="M483.92,-134.4C460.62,-123.09 428.19,-107.36 405.57,-96.39"/>
<polygon fill="midnightblue" stroke="midnightblue" points="407.06,-93.22 396.54,-92.01 404.01,-99.52 407.06,-93.22"/>
</g>
<!-- Node15&#45;&gt;Node11 -->
<g id="edge17" class="edge">
<title>Node15&#45;&gt;Node11</title>
<path fill="none" stroke="midnightblue" d="M525.8,-134.4C535.09,-124.16 547.68,-110.3 557.37,-99.62"/>
<polygon fill="midnightblue" stroke="midnightblue" points="559.98,-101.95 564.11,-92.19 554.8,-97.25 559.98,-101.95"/>
</g>
<!-- Node15&#45;&gt;Node13 -->
<g id="edge18" class="edge">
<title>Node15&#45;&gt;Node13</title>
<path fill="none" stroke="midnightblue" d="M512.25,-134.21C512.04,-116.82 514.05,-87.26 528,-67 535.25,-56.47 563.01,-40.71 584.45,-29.6"/>
<polygon fill="midnightblue" stroke="midnightblue" points="586.15,-32.66 593.47,-25 582.97,-26.43 586.15,-32.66"/>
</g>
<!-- Node16&#45;&gt;Node3 -->
<g id="edge20" class="edge">
<title>Node16&#45;&gt;Node3</title>
<path fill="none" stroke="midnightblue" d="M943.14,-140C884.44,-128.9 786.11,-109.53 751,-98 749.13,-97.39 747.23,-96.7 745.32,-95.96"/>
<polygon fill="midnightblue" stroke="midnightblue" points="746.57,-92.69 736,-92.03 743.85,-99.14 746.57,-92.69"/>
</g>
<!-- Node16&#45;&gt;Node7 -->
<g id="edge21" class="edge">
<title>Node16&#45;&gt;Node7</title>
<path fill="none" stroke="midnightblue" d="M945.06,-139.97C893.67,-129.6 812.05,-111.78 784,-98 764.13,-88.24 762.46,-80.62 745,-67 729.47,-54.89 711.74,-41.34 698.57,-31.32"/>
<polygon fill="midnightblue" stroke="midnightblue" points="700.34,-28.27 690.26,-25.02 696.11,-33.85 700.34,-28.27"/>
</g>
<!-- Node16&#45;&gt;Node12 -->
<g id="edge22" class="edge">
<title>Node16&#45;&gt;Node12</title>
<path fill="none" stroke="midnightblue" d="M995.89,-139.84C1013.1,-118.21 1058.2,-61.51 1080.75,-33.15"/>
<polygon fill="midnightblue" stroke="midnightblue" points="1083.74,-35.03 1087.22,-25.02 1078.26,-30.67 1083.74,-35.03"/>
</g>
<!-- Node17 -->
<g id="node17" class="node">
<title>Node17</title>
<g id="a_node17"><a xlink:title=" ">
<polygon fill="white" stroke="#bfbfbf" points="928.5,-0.5 928.5,-30.5 1053.5,-30.5 1053.5,-0.5 928.5,-0.5"/>
<text text-anchor="start" x="936.5" y="-18.5" font-family="Helvetica,sans-Serif" font-size="10.00">boost/stl_interfaces</text>
<text text-anchor="middle" x="991" y="-7.5" font-family="Helvetica,sans-Serif" font-size="10.00">/iterator_interface.hpp</text>
</a>
</g>
</g>
<!-- Node16&#45;&gt;Node17 -->
<g id="edge23" class="edge">
<title>Node16&#45;&gt;Node17</title>
<path fill="none" stroke="midnightblue" d="M989.13,-139.84C989.43,-120.02 990.18,-70.77 990.63,-40.84"/>
<polygon fill="midnightblue" stroke="midnightblue" points="994.13,-40.84 990.78,-30.78 987.13,-40.73 994.13,-40.84"/>
</g>
<!-- Node18 -->
<g id="node18" class="node">
<title>Node18</title>
<g id="a_node18"><a xlink:href="double__array__iterator_8hpp.html" target="_top" xlink:title="A double array iterator.">
<polygon fill="white" stroke="black" points="793,-67.5 793,-97.5 903,-97.5 903,-67.5 793,-67.5"/>
<text text-anchor="start" x="801" y="-85.5" font-family="Helvetica,sans-Serif" font-size="10.00">tetengo/trie/double</text>
<text text-anchor="middle" x="848" y="-74.5" font-family="Helvetica,sans-Serif" font-size="10.00">_array_iterator.hpp</text>
</a>
</g>
</g>
<!-- Node16&#45;&gt;Node18 -->
<g id="edge24" class="edge">
<title>Node16&#45;&gt;Node18</title>
<path fill="none" stroke="midnightblue" d="M970.28,-139.87C949.3,-130.2 914.7,-114.25 887.65,-101.78"/>
<polygon fill="midnightblue" stroke="midnightblue" points="888.98,-98.54 878.43,-97.53 886.05,-104.89 888.98,-98.54"/>
</g>
<!-- Node18&#45;&gt;Node4 -->
<g id="edge25" class="edge">
<title>Node18&#45;&gt;Node4</title>
<path fill="none" stroke="midnightblue" d="M792.88,-72.52C726.03,-61.39 617.43,-42.5 578,-31 575.57,-30.29 573.07,-29.48 570.58,-28.6"/>
<polygon fill="midnightblue" stroke="midnightblue" points="571.77,-25.31 561.18,-25.04 569.3,-31.86 571.77,-25.31"/>
</g>
<!-- Node18&#45;&gt;Node7 -->
<g id="edge27" class="edge">
<title>Node18&#45;&gt;Node7</title>
<path fill="none" stroke="midnightblue" d="M810.37,-67.44C783.7,-57.42 747.09,-43.55 715,-31 713.16,-30.28 711.28,-29.54 709.38,-28.79"/>
<polygon fill="midnightblue" stroke="midnightblue" points="710.5,-25.46 699.91,-25.01 707.9,-31.96 710.5,-25.46"/>
</g>
<!-- Node18&#45;&gt;Node9 -->
<g id="edge30" class="edge">
<title>Node18&#45;&gt;Node9</title>
<path fill="none" stroke="midnightblue" d="M792.79,-73.71C699.56,-60.5 519.67,-34.78 506,-31 503.56,-30.33 501.06,-29.53 498.58,-28.65"/>
<polygon fill="midnightblue" stroke="midnightblue" points="499.82,-25.38 489.23,-25.05 497.3,-31.91 499.82,-25.38"/>
</g>
<!-- Node18&#45;&gt;Node12 -->
<g id="edge31" class="edge">
<title>Node18&#45;&gt;Node12</title>
<path fill="none" stroke="midnightblue" d="M903.36,-71.5C947.06,-62.88 1009.25,-48.99 1062,-31 1063.67,-30.43 1065.36,-29.81 1067.07,-29.15"/>
<polygon fill="midnightblue" stroke="midnightblue" points="1068.79,-32.22 1076.64,-25.1 1066.07,-25.77 1068.79,-32.22"/>
</g>
<!-- Node18&#45;&gt;Node13 -->
<g id="edge32" class="edge">
<title>Node18&#45;&gt;Node13</title>
<path fill="none" stroke="midnightblue" d="M792.82,-70.79C751.1,-62 692.7,-48.22 643,-31 641.34,-30.42 639.64,-29.79 637.94,-29.13"/>
<polygon fill="midnightblue" stroke="midnightblue" points="638.94,-25.75 628.37,-25.07 636.21,-32.19 638.94,-25.75"/>
</g>
<!-- Node18&#45;&gt;Node17 -->
<g id="edge33" class="edge">
<title>Node18&#45;&gt;Node17</title>
<path fill="none" stroke="midnightblue" d="M879.03,-67.4C900.02,-57.86 927.94,-45.16 950.65,-34.84"/>
<polygon fill="midnightblue" stroke="midnightblue" points="952.38,-37.9 960.03,-30.58 949.48,-31.53 952.38,-37.9"/>
</g>
<!-- Node19 -->
<g id="node19" class="node">
<title>Node19</title>
<g id="a_node19"><a xlink:title=" ">
<polygon fill="white" stroke="#bfbfbf" points="860,-6 860,-25 910,-25 910,-6 860,-6"/>
<text text-anchor="middle" x="885" y="-13" font-family="Helvetica,sans-Serif" font-size="10.00">cstdint</text>
</a>
</g>
</g>
<!-- Node18&#45;&gt;Node19 -->
<g id="edge26" class="edge">
<title>Node18&#45;&gt;Node19</title>
<path fill="none" stroke="midnightblue" d="M856.03,-67.4C861.63,-57.56 869.13,-44.38 875.1,-33.89"/>
<polygon fill="midnightblue" stroke="midnightblue" points="878.15,-35.62 880.05,-25.19 872.06,-32.15 878.15,-35.62"/>
</g>
<!-- Node20 -->
<g id="node20" class="node">
<title>Node20</title>
<g id="a_node20"><a xlink:title=" ">
<polygon fill="white" stroke="#bfbfbf" points="724,-6 724,-25 780,-25 780,-6 724,-6"/>
<text text-anchor="middle" x="752" y="-13" font-family="Helvetica,sans-Serif" font-size="10.00">optional</text>
</a>
</g>
</g>
<!-- Node18&#45;&gt;Node20 -->
<g id="edge28" class="edge">
<title>Node18&#45;&gt;Node20</title>
<path fill="none" stroke="midnightblue" d="M827.17,-67.4C811.22,-56.6 789.3,-41.76 773.25,-30.89"/>
<polygon fill="midnightblue" stroke="midnightblue" points="774.81,-27.72 764.56,-25.01 770.88,-33.51 774.81,-27.72"/>
</g>
<!-- Node21 -->
<g id="node21" class="node">
<title>Node21</title>
<g id="a_node21"><a xlink:title=" ">
<polygon fill="white" stroke="#bfbfbf" points="798.5,-6 798.5,-25 841.5,-25 841.5,-6 798.5,-6"/>
<text text-anchor="middle" x="820" y="-13" font-family="Helvetica,sans-Serif" font-size="10.00">stack</text>
</a>
</g>
</g>
<!-- Node18&#45;&gt;Node21 -->
<g id="edge29" class="edge">
<title>Node18&#45;&gt;Node21</title>
<path fill="none" stroke="midnightblue" d="M841.92,-67.4C837.77,-57.76 832.24,-44.91 827.77,-34.54"/>
<polygon fill="midnightblue" stroke="midnightblue" points="830.92,-32.99 823.75,-25.19 824.49,-35.76 830.92,-32.99"/>
</g>
</g>
</svg>
