<?xml version="1.0" encoding="UTF-8" standalone="no"?>
<!DOCTYPE svg PUBLIC "-//W3C//DTD SVG 1.1//EN"
 "http://www.w3.org/Graphics/SVG/1.1/DTD/svg11.dtd">
<!-- Generated by graphviz version 2.43.0 (0)
 -->
<!-- Title: library/lattice/cpp/include/tetengo/lattice/unordered_map_vocabulary.hpp Pages: 1 -->
<svg width="512pt" height="269pt"
 viewBox="0.00 0.00 511.50 269.00" xmlns="http://www.w3.org/2000/svg" xmlns:xlink="http://www.w3.org/1999/xlink">
<g id="graph0" class="graph" transform="scale(1 1) rotate(0) translate(4 265)">
<title>library/lattice/cpp/include/tetengo/lattice/unordered_map_vocabulary.hpp</title>
<!-- Node1 -->
<g id="node1" class="node">
<title>Node1</title>
<g id="a_node1"><a xlink:title="An unordered map vocabulary.">
<polygon fill="#999999" stroke="#666666" points="311,-261 136,-261 136,-220 311,-220 311,-261"/>
<text text-anchor="start" x="144" y="-249" font-family="Helvetica,sans-Serif" font-size="10.00">library/lattice/cpp</text>
<text text-anchor="start" x="144" y="-238" font-family="Helvetica,sans-Serif" font-size="10.00">/include/tetengo/lattice</text>
<text text-anchor="middle" x="223.5" y="-227" font-family="Helvetica,sans-Serif" font-size="10.00">/unordered_map_vocabulary.hpp</text>
</a>
</g>
</g>
<!-- Node2 -->
<g id="node2" class="node">
<title>Node2</title>
<g id="a_node2"><a xlink:title=" ">
<polygon fill="#e0e0e0" stroke="#999999" points="53,-19 0,-19 0,0 53,0 53,-19"/>
<text text-anchor="middle" x="26.5" y="-7" font-family="Helvetica,sans-Serif" font-size="10.00">cstddef</text>
</a>
</g>
</g>
<!-- Node1&#45;&gt;Node2 -->
<g id="edge1" class="edge">
<title>Node1&#45;&gt;Node2</title>
<path fill="none" stroke="#63b8ff" d="M135.63,-232.26C102.55,-224.95 67.62,-210.86 45.5,-184 8.64,-139.23 16.27,-64.44 22.47,-29.53"/>
<polygon fill="#63b8ff" stroke="#63b8ff" points="25.99,-29.81 24.46,-19.32 19.11,-28.47 25.99,-29.81"/>
</g>
<!-- Node3 -->
<g id="node3" class="node">
<title>Node3</title>
<g id="a_node3"><a xlink:title=" ">
<polygon fill="#e0e0e0" stroke="#999999" points="120,-184 55,-184 55,-165 120,-165 120,-184"/>
<text text-anchor="middle" x="87.5" y="-172" font-family="Helvetica,sans-Serif" font-size="10.00">functional</text>
</a>
</g>
</g>
<!-- Node1&#45;&gt;Node3 -->
<g id="edge2" class="edge">
<title>Node1&#45;&gt;Node3</title>
<path fill="none" stroke="#63b8ff" d="M181.96,-219.95C160.17,-209.7 134.09,-197.43 114.86,-188.38"/>
<polygon fill="#63b8ff" stroke="#63b8ff" points="116.3,-185.18 105.76,-184.09 113.32,-191.52 116.3,-185.18"/>
</g>
<!-- Node4 -->
<g id="node4" class="node">
<title>Node4</title>
<g id="a_node4"><a xlink:title=" ">
<polygon fill="#e0e0e0" stroke="#999999" points="503.5,-19 445.5,-19 445.5,0 503.5,0 503.5,-19"/>
<text text-anchor="middle" x="474.5" y="-7" font-family="Helvetica,sans-Serif" font-size="10.00">memory</text>
</a>
</g>
</g>
<!-- Node1&#45;&gt;Node4 -->
<g id="edge3" class="edge">
<title>Node1&#45;&gt;Node4</title>
<path fill="none" stroke="#63b8ff" d="M311.17,-228.52C371.31,-219.35 444.29,-204.48 467.5,-184 511.55,-145.14 492.6,-64.93 481.03,-28.82"/>
<polygon fill="#63b8ff" stroke="#63b8ff" points="484.28,-27.48 477.76,-19.13 477.64,-29.72 484.28,-27.48"/>
</g>
<!-- Node5 -->
<g id="node5" class="node">
<title>Node5</title>
<g id="a_node5"><a xlink:title=" ">
<polygon fill="#e0e0e0" stroke="#999999" points="220.5,-184 176.5,-184 176.5,-165 220.5,-165 220.5,-184"/>
<text text-anchor="middle" x="198.5" y="-172" font-family="Helvetica,sans-Serif" font-size="10.00">string</text>
</a>
</g>
</g>
<!-- Node1&#45;&gt;Node5 -->
<g id="edge4" class="edge">
<title>Node1&#45;&gt;Node5</title>
<path fill="none" stroke="#63b8ff" d="M215.86,-219.95C212.59,-211.58 208.79,-201.85 205.59,-193.64"/>
<polygon fill="#63b8ff" stroke="#63b8ff" points="208.82,-192.3 201.92,-184.26 202.3,-194.85 208.82,-192.3"/>
</g>
<!-- Node6 -->
<g id="node6" class="node">
<title>Node6</title>
<g id="a_node6"><a xlink:title=" ">
<polygon fill="#e0e0e0" stroke="#999999" points="128,-74 83,-74 83,-55 128,-55 128,-74"/>
<text text-anchor="middle" x="105.5" y="-62" font-family="Helvetica,sans-Serif" font-size="10.00">utility</text>
</a>
</g>
</g>
<!-- Node1&#45;&gt;Node6 -->
<g id="edge5" class="edge">
<title>Node1&#45;&gt;Node6</title>
<path fill="none" stroke="#63b8ff" d="M200.59,-219.83C189.74,-209.8 177.09,-196.99 167.5,-184 143.23,-151.13 123.03,-107.46 112.78,-83.37"/>
<polygon fill="#63b8ff" stroke="#63b8ff" points="115.97,-81.94 108.89,-74.06 109.51,-84.63 115.97,-81.94"/>
</g>
<!-- Node7 -->
<g id="node7" class="node">
<title>Node7</title>
<g id="a_node7"><a xlink:title=" ">
<polygon fill="#e0e0e0" stroke="#999999" points="478,-129 431,-129 431,-110 478,-110 478,-129"/>
<text text-anchor="middle" x="454.5" y="-117" font-family="Helvetica,sans-Serif" font-size="10.00">vector</text>
</a>
</g>
</g>
<!-- Node1&#45;&gt;Node7 -->
<g id="edge6" class="edge">
<title>Node1&#45;&gt;Node7</title>
<path fill="none" stroke="#63b8ff" d="M311.18,-228.63C366.72,-219.82 431.38,-205.32 449.5,-184 459.9,-171.76 460.11,-152.98 458.34,-139.02"/>
<polygon fill="#63b8ff" stroke="#63b8ff" points="461.78,-138.34 456.66,-129.06 454.88,-139.51 461.78,-138.34"/>
</g>
<!-- Node8 -->
<g id="node8" class="node">
<title>Node8</title>
<g id="a_node8"><a xlink:href="entry_8hpp.html" target="_top" xlink:title="An entry.">
<polygon fill="white" stroke="#666666" points="345.5,-129 209.5,-129 209.5,-110 345.5,-110 345.5,-129"/>
<text text-anchor="middle" x="277.5" y="-117" font-family="Helvetica,sans-Serif" font-size="10.00">tetengo/lattice/entry.hpp</text>
</a>
</g>
</g>
<!-- Node1&#45;&gt;Node8 -->
<g id="edge7" class="edge">
<title>Node1&#45;&gt;Node8</title>
<path fill="none" stroke="#63b8ff" d="M232.42,-219.85C242.71,-197.17 259.49,-160.19 269.42,-138.31"/>
<polygon fill="#63b8ff" stroke="#63b8ff" points="272.62,-139.73 273.56,-129.18 266.24,-136.84 272.62,-139.73"/>
</g>
<!-- Node14 -->
<g id="node14" class="node">
<title>Node14</title>
<g id="a_node14"><a xlink:href="vocabulary_8hpp.html" target="_top" xlink:title="A vocabulary.">
<polygon fill="white" stroke="#666666" points="440.5,-184 276.5,-184 276.5,-165 440.5,-165 440.5,-184"/>
<text text-anchor="middle" x="358.5" y="-172" font-family="Helvetica,sans-Serif" font-size="10.00">tetengo/lattice/vocabulary.hpp</text>
</a>
</g>
</g>
<!-- Node1&#45;&gt;Node14 -->
<g id="edge17" class="edge">
<title>Node1&#45;&gt;Node14</title>
<path fill="none" stroke="#63b8ff" d="M264.74,-219.95C286.36,-209.7 312.25,-197.43 331.34,-188.38"/>
<polygon fill="#63b8ff" stroke="#63b8ff" points="332.84,-191.54 340.38,-184.09 329.84,-185.21 332.84,-191.54"/>
</g>
<!-- Node8&#45;&gt;Node4 -->
<g id="edge9" class="edge">
<title>Node8&#45;&gt;Node4</title>
<path fill="none" stroke="#63b8ff" d="M293.29,-109.84C327.59,-91.04 409.14,-46.33 450.11,-23.87"/>
<polygon fill="#63b8ff" stroke="#63b8ff" points="451.82,-26.92 458.91,-19.05 448.46,-20.79 451.82,-26.92"/>
</g>
<!-- Node8&#45;&gt;Node6 -->
<g id="edge10" class="edge">
<title>Node8&#45;&gt;Node6</title>
<path fill="none" stroke="#63b8ff" d="M249.87,-109.98C219.36,-100.58 170.31,-85.47 137.98,-75.51"/>
<polygon fill="#63b8ff" stroke="#63b8ff" points="138.71,-72.07 128.12,-72.47 136.65,-78.76 138.71,-72.07"/>
</g>
<!-- Node9 -->
<g id="node9" class="node">
<title>Node9</title>
<g id="a_node9"><a xlink:title=" ">
<polygon fill="#e0e0e0" stroke="#999999" points="336,-74 301,-74 301,-55 336,-55 336,-74"/>
<text text-anchor="middle" x="318.5" y="-62" font-family="Helvetica,sans-Serif" font-size="10.00">any</text>
</a>
</g>
</g>
<!-- Node8&#45;&gt;Node9 -->
<g id="edge8" class="edge">
<title>Node8&#45;&gt;Node9</title>
<path fill="none" stroke="#63b8ff" d="M284.27,-109.75C290.06,-102.26 298.56,-91.28 305.64,-82.13"/>
<polygon fill="#63b8ff" stroke="#63b8ff" points="308.51,-84.14 311.86,-74.09 302.97,-79.86 308.51,-84.14"/>
</g>
<!-- Node10 -->
<g id="node10" class="node">
<title>Node10</title>
<g id="a_node10"><a xlink:href="input_8hpp.html" target="_top" xlink:title="An input.">
<polygon fill="white" stroke="#666666" points="283,-74 146,-74 146,-55 283,-55 283,-74"/>
<text text-anchor="middle" x="214.5" y="-62" font-family="Helvetica,sans-Serif" font-size="10.00">tetengo/lattice/input.hpp</text>
</a>
</g>
</g>
<!-- Node8&#45;&gt;Node10 -->
<g id="edge11" class="edge">
<title>Node8&#45;&gt;Node10</title>
<path fill="none" stroke="#63b8ff" d="M267.38,-109.98C258.06,-102.15 244.03,-90.34 232.76,-80.86"/>
<polygon fill="#63b8ff" stroke="#63b8ff" points="234.71,-77.93 224.81,-74.17 230.21,-83.29 234.71,-77.93"/>
</g>
<!-- Node10&#45;&gt;Node2 -->
<g id="edge13" class="edge">
<title>Node10&#45;&gt;Node2</title>
<path fill="none" stroke="#63b8ff" d="M184.29,-54.98C151.32,-45.69 98.53,-30.81 63.2,-20.85"/>
<polygon fill="#63b8ff" stroke="#63b8ff" points="63.86,-17.39 53.28,-18.05 61.96,-24.13 63.86,-17.39"/>
</g>
<!-- Node10&#45;&gt;Node4 -->
<g id="edge14" class="edge">
<title>Node10&#45;&gt;Node4</title>
<path fill="none" stroke="#63b8ff" d="M258.79,-54.92C301.53,-46.58 368.34,-33.36 435.55,-19.16"/>
<polygon fill="#63b8ff" stroke="#63b8ff" points="436.41,-22.56 445.47,-17.06 434.96,-15.71 436.41,-22.56"/>
</g>
<!-- Node11 -->
<g id="node11" class="node">
<title>Node11</title>
<g id="a_node11"><a xlink:title=" ">
<polygon fill="#e0e0e0" stroke="#999999" points="255.5,-19 203.5,-19 203.5,0 255.5,0 255.5,-19"/>
<text text-anchor="middle" x="229.5" y="-7" font-family="Helvetica,sans-Serif" font-size="10.00">cassert</text>
</a>
</g>
</g>
<!-- Node10&#45;&gt;Node11 -->
<g id="edge12" class="edge">
<title>Node10&#45;&gt;Node11</title>
<path fill="none" stroke="#63b8ff" d="M216.98,-54.75C218.96,-47.72 221.82,-37.62 224.31,-28.84"/>
<polygon fill="#63b8ff" stroke="#63b8ff" points="227.71,-29.66 227.07,-19.09 220.98,-27.76 227.71,-29.66"/>
</g>
<!-- Node12 -->
<g id="node12" class="node">
<title>Node12</title>
<g id="a_node12"><a xlink:title=" ">
<polygon fill="#e0e0e0" stroke="#999999" points="427.5,-19 273.5,-19 273.5,0 427.5,0 427.5,-19"/>
<text text-anchor="middle" x="350.5" y="-7" font-family="Helvetica,sans-Serif" font-size="10.00">boost/core/noncopyable.hpp</text>
</a>
</g>
</g>
<!-- Node10&#45;&gt;Node12 -->
<g id="edge15" class="edge">
<title>Node10&#45;&gt;Node12</title>
<path fill="none" stroke="#63b8ff" d="M236.35,-54.98C258.62,-46.3 293.4,-32.75 318.72,-22.88"/>
<polygon fill="#63b8ff" stroke="#63b8ff" points="320.21,-26.06 328.25,-19.17 317.66,-19.54 320.21,-26.06"/>
</g>
<!-- Node13 -->
<g id="node13" class="node">
<title>Node13</title>
<g id="a_node13"><a xlink:title=" ">
<polygon fill="#e0e0e0" stroke="#999999" points="185.5,-19 71.5,-19 71.5,0 185.5,0 185.5,-19"/>
<text text-anchor="middle" x="128.5" y="-7" font-family="Helvetica,sans-Serif" font-size="10.00">boost/operators.hpp</text>
</a>
</g>
</g>
<!-- Node10&#45;&gt;Node13 -->
<g id="edge16" class="edge">
<title>Node10&#45;&gt;Node13</title>
<path fill="none" stroke="#63b8ff" d="M200.68,-54.98C187.35,-46.77 166.92,-34.18 151.19,-24.49"/>
<polygon fill="#63b8ff" stroke="#63b8ff" points="152.92,-21.44 142.57,-19.17 149.25,-27.4 152.92,-21.44"/>
</g>
<!-- Node14&#45;&gt;Node7 -->
<g id="edge18" class="edge">
<title>Node14&#45;&gt;Node7</title>
<path fill="none" stroke="#63b8ff" d="M373.92,-164.98C388.95,-156.69 412.04,-143.94 429.66,-134.22"/>
<polygon fill="#63b8ff" stroke="#63b8ff" points="431.73,-137.07 438.8,-129.17 428.35,-130.94 431.73,-137.07"/>
</g>
<!-- Node14&#45;&gt;Node8 -->
<g id="edge20" class="edge">
<title>Node14&#45;&gt;Node8</title>
<path fill="none" stroke="#63b8ff" d="M345.49,-164.98C333.04,-156.84 314.04,-144.41 299.29,-134.76"/>
<polygon fill="#63b8ff" stroke="#63b8ff" points="301.04,-131.72 290.75,-129.17 297.2,-137.57 301.04,-131.72"/>
</g>
<!-- Node14&#45;&gt;Node12 -->
<g id="edge19" class="edge">
<title>Node14&#45;&gt;Node12</title>
<path fill="none" stroke="#63b8ff" d="M358.07,-164.74C356.82,-139.31 353.18,-65.08 351.44,-29.69"/>
<polygon fill="#63b8ff" stroke="#63b8ff" points="354.92,-29.12 350.93,-19.31 347.93,-29.47 354.92,-29.12"/>
</g>
</g>
</svg>
