<?xml version="1.0" encoding="UTF-8" standalone="no"?>
<!DOCTYPE svg PUBLIC "-//W3C//DTD SVG 1.1//EN"
 "http://www.w3.org/Graphics/SVG/1.1/DTD/svg11.dtd">
<!-- Generated by graphviz version 2.43.0 (0)
 -->
<!-- Title: library/lattice/cpp/include/tetengo/lattice/unordered_map_vocabulary.hpp Pages: 1 -->
<svg width="512pt" height="274pt"
 viewBox="0.00 0.00 511.50 274.00" xmlns="http://www.w3.org/2000/svg" xmlns:xlink="http://www.w3.org/1999/xlink">
<g id="graph0" class="graph" transform="scale(1 1) rotate(0) translate(4 270)">
<title>library/lattice/cpp/include/tetengo/lattice/unordered_map_vocabulary.hpp</title>
<polygon fill="white" stroke="transparent" points="-4,4 -4,-270 507.5,-270 507.5,4 -4,4"/>
<!-- Node1 -->
<g id="node1" class="node">
<title>Node1</title>
<g id="a_node1"><a xlink:title="An unordered map vocabulary.">
<polygon fill="#bfbfbf" stroke="black" points="136,-224.5 136,-265.5 311,-265.5 311,-224.5 136,-224.5"/>
<text text-anchor="start" x="144" y="-253.5" font-family="Helvetica,sans-Serif" font-size="10.00">library/lattice/cpp</text>
<text text-anchor="start" x="144" y="-242.5" font-family="Helvetica,sans-Serif" font-size="10.00">/include/tetengo/lattice</text>
<text text-anchor="middle" x="223.5" y="-231.5" font-family="Helvetica,sans-Serif" font-size="10.00">/unordered_map_vocabulary.hpp</text>
</a>
</g>
</g>
<!-- Node2 -->
<g id="node2" class="node">
<title>Node2</title>
<g id="a_node2"><a xlink:title=" ">
<polygon fill="white" stroke="#bfbfbf" points="0,-0.5 0,-19.5 53,-19.5 53,-0.5 0,-0.5"/>
<text text-anchor="middle" x="26.5" y="-7.5" font-family="Helvetica,sans-Serif" font-size="10.00">cstddef</text>
</a>
</g>
</g>
<!-- Node1&#45;&gt;Node2 -->
<g id="edge1" class="edge">
<title>Node1&#45;&gt;Node2</title>
<path fill="none" stroke="midnightblue" d="M135.58,-236.52C102.5,-229.13 67.57,-214.94 45.5,-188 7.67,-141.84 16.1,-64.61 22.53,-29.44"/>
<polygon fill="midnightblue" stroke="midnightblue" points="25.97,-30.09 24.48,-19.6 19.1,-28.73 25.97,-30.09"/>
</g>
<!-- Node3 -->
<g id="node3" class="node">
<title>Node3</title>
<g id="a_node3"><a xlink:title=" ">
<polygon fill="white" stroke="#bfbfbf" points="55,-168.5 55,-187.5 120,-187.5 120,-168.5 55,-168.5"/>
<text text-anchor="middle" x="87.5" y="-175.5" font-family="Helvetica,sans-Serif" font-size="10.00">functional</text>
</a>
</g>
</g>
<!-- Node1&#45;&gt;Node3 -->
<g id="edge2" class="edge">
<title>Node1&#45;&gt;Node3</title>
<path fill="none" stroke="midnightblue" d="M182.7,-224.5C160.74,-214.01 134.26,-201.35 114.81,-192.05"/>
<polygon fill="midnightblue" stroke="midnightblue" points="116.14,-188.81 105.6,-187.65 113.12,-195.12 116.14,-188.81"/>
</g>
<!-- Node4 -->
<g id="node4" class="node">
<title>Node4</title>
<g id="a_node4"><a xlink:title=" ">
<polygon fill="white" stroke="#bfbfbf" points="445.5,-0.5 445.5,-19.5 503.5,-19.5 503.5,-0.5 445.5,-0.5"/>
<text text-anchor="middle" x="474.5" y="-7.5" font-family="Helvetica,sans-Serif" font-size="10.00">memory</text>
</a>
</g>
</g>
<!-- Node1&#45;&gt;Node4 -->
<g id="edge3" class="edge">
<title>Node1&#45;&gt;Node4</title>
<path fill="none" stroke="midnightblue" d="M311.21,-232.87C371.37,-223.6 444.36,-208.57 467.5,-188 512.28,-148.19 492.95,-66.45 481.16,-29.66"/>
<polygon fill="midnightblue" stroke="midnightblue" points="484.34,-28.14 477.82,-19.79 477.71,-30.38 484.34,-28.14"/>
</g>
<!-- Node5 -->
<g id="node5" class="node">
<title>Node5</title>
<g id="a_node5"><a xlink:title=" ">
<polygon fill="white" stroke="#bfbfbf" points="176.5,-168.5 176.5,-187.5 220.5,-187.5 220.5,-168.5 176.5,-168.5"/>
<text text-anchor="middle" x="198.5" y="-175.5" font-family="Helvetica,sans-Serif" font-size="10.00">string</text>
</a>
</g>
</g>
<!-- Node1&#45;&gt;Node5 -->
<g id="edge4" class="edge">
<title>Node1&#45;&gt;Node5</title>
<path fill="none" stroke="midnightblue" d="M216,-224.5C212.65,-215.78 208.72,-205.56 205.43,-197.02"/>
<polygon fill="midnightblue" stroke="midnightblue" points="208.68,-195.73 201.83,-187.65 202.15,-198.24 208.68,-195.73"/>
</g>
<!-- Node6 -->
<g id="node6" class="node">
<title>Node6</title>
<g id="a_node6"><a xlink:title=" ">
<polygon fill="white" stroke="#bfbfbf" points="83,-56.5 83,-75.5 128,-75.5 128,-56.5 83,-56.5"/>
<text text-anchor="middle" x="105.5" y="-63.5" font-family="Helvetica,sans-Serif" font-size="10.00">utility</text>
</a>
</g>
</g>
<!-- Node1&#45;&gt;Node6 -->
<g id="edge5" class="edge">
<title>Node1&#45;&gt;Node6</title>
<path fill="none" stroke="midnightblue" d="M200.83,-224.42C189.91,-214.26 177.13,-201.23 167.5,-188 143.05,-154.43 122.92,-109.84 112.72,-85.24"/>
<polygon fill="midnightblue" stroke="midnightblue" points="115.87,-83.69 108.87,-75.74 109.38,-86.32 115.87,-83.69"/>
</g>
<!-- Node7 -->
<g id="node7" class="node">
<title>Node7</title>
<g id="a_node7"><a xlink:title=" ">
<polygon fill="white" stroke="#bfbfbf" points="431,-112.5 431,-131.5 478,-131.5 478,-112.5 431,-112.5"/>
<text text-anchor="middle" x="454.5" y="-119.5" font-family="Helvetica,sans-Serif" font-size="10.00">vector</text>
</a>
</g>
</g>
<!-- Node1&#45;&gt;Node7 -->
<g id="edge6" class="edge">
<title>Node1&#45;&gt;Node7</title>
<path fill="none" stroke="midnightblue" d="M311.2,-232.94C366.75,-224.01 431.42,-209.37 449.5,-188 460.12,-175.46 460.3,-156.23 458.47,-141.94"/>
<polygon fill="midnightblue" stroke="midnightblue" points="461.86,-141.03 456.73,-131.76 454.96,-142.21 461.86,-141.03"/>
</g>
<!-- Node8 -->
<g id="node8" class="node">
<title>Node8</title>
<g id="a_node8"><a xlink:href="entry_8hpp.html" target="_top" xlink:title="An entry.">
<polygon fill="white" stroke="black" points="209.5,-112.5 209.5,-131.5 345.5,-131.5 345.5,-112.5 209.5,-112.5"/>
<text text-anchor="middle" x="277.5" y="-119.5" font-family="Helvetica,sans-Serif" font-size="10.00">tetengo/lattice/entry.hpp</text>
</a>
</g>
</g>
<!-- Node1&#45;&gt;Node8 -->
<g id="edge7" class="edge">
<title>Node1&#45;&gt;Node8</title>
<path fill="none" stroke="midnightblue" d="M232.3,-224.29C242.62,-201.17 259.58,-163.16 269.53,-140.86"/>
<polygon fill="midnightblue" stroke="midnightblue" points="272.79,-142.13 273.67,-131.57 266.4,-139.28 272.79,-142.13"/>
</g>
<!-- Node14 -->
<g id="node14" class="node">
<title>Node14</title>
<g id="a_node14"><a xlink:href="vocabulary_8hpp.html" target="_top" xlink:title="A vocabulary.">
<polygon fill="white" stroke="black" points="276.5,-168.5 276.5,-187.5 440.5,-187.5 440.5,-168.5 276.5,-168.5"/>
<text text-anchor="middle" x="358.5" y="-175.5" font-family="Helvetica,sans-Serif" font-size="10.00">tetengo/lattice/vocabulary.hpp</text>
</a>
</g>
</g>
<!-- Node1&#45;&gt;Node14 -->
<g id="edge17" class="edge">
<title>Node1&#45;&gt;Node14</title>
<path fill="none" stroke="midnightblue" d="M264,-224.5C285.8,-214.01 312.08,-201.35 331.39,-192.05"/>
<polygon fill="midnightblue" stroke="midnightblue" points="333.04,-195.14 340.53,-187.65 330,-188.84 333.04,-195.14"/>
</g>
<!-- Node8&#45;&gt;Node4 -->
<g id="edge9" class="edge">
<title>Node8&#45;&gt;Node4</title>
<path fill="none" stroke="midnightblue" d="M292.96,-112.37C327.12,-93.29 409.27,-47.42 450.31,-24.51"/>
<polygon fill="midnightblue" stroke="midnightblue" points="452.09,-27.52 459.11,-19.59 448.68,-21.41 452.09,-27.52"/>
</g>
<!-- Node8&#45;&gt;Node6 -->
<g id="edge10" class="edge">
<title>Node8&#45;&gt;Node6</title>
<path fill="none" stroke="midnightblue" d="M250.25,-112.44C219.82,-102.89 170.59,-87.44 138.14,-77.25"/>
<polygon fill="midnightblue" stroke="midnightblue" points="138.82,-73.79 128.23,-74.14 136.72,-80.47 138.82,-73.79"/>
</g>
<!-- Node9 -->
<g id="node9" class="node">
<title>Node9</title>
<g id="a_node9"><a xlink:title=" ">
<polygon fill="white" stroke="#bfbfbf" points="301,-56.5 301,-75.5 336,-75.5 336,-56.5 301,-56.5"/>
<text text-anchor="middle" x="318.5" y="-63.5" font-family="Helvetica,sans-Serif" font-size="10.00">any</text>
</a>
</g>
</g>
<!-- Node8&#45;&gt;Node9 -->
<g id="edge8" class="edge">
<title>Node8&#45;&gt;Node9</title>
<path fill="none" stroke="midnightblue" d="M284.27,-112.08C290.06,-104.46 298.56,-93.26 305.64,-83.94"/>
<polygon fill="midnightblue" stroke="midnightblue" points="308.6,-85.83 311.86,-75.75 303.02,-81.6 308.6,-85.83"/>
</g>
<!-- Node10 -->
<g id="node10" class="node">
<title>Node10</title>
<g id="a_node10"><a xlink:href="input_8hpp.html" target="_top" xlink:title="An input.">
<polygon fill="white" stroke="black" points="146,-56.5 146,-75.5 283,-75.5 283,-56.5 146,-56.5"/>
<text text-anchor="middle" x="214.5" y="-63.5" font-family="Helvetica,sans-Serif" font-size="10.00">tetengo/lattice/input.hpp</text>
</a>
</g>
</g>
<!-- Node8&#45;&gt;Node10 -->
<g id="edge11" class="edge">
<title>Node8&#45;&gt;Node10</title>
<path fill="none" stroke="midnightblue" d="M267.38,-112.32C257.97,-104.26 243.76,-92.08 232.43,-82.37"/>
<polygon fill="midnightblue" stroke="midnightblue" points="234.68,-79.68 224.81,-75.83 230.12,-85 234.68,-79.68"/>
</g>
<!-- Node10&#45;&gt;Node2 -->
<g id="edge13" class="edge">
<title>Node10&#45;&gt;Node2</title>
<path fill="none" stroke="midnightblue" d="M184.71,-56.44C151.73,-46.97 98.54,-31.69 63.06,-21.5"/>
<polygon fill="midnightblue" stroke="midnightblue" points="63.69,-18.04 53.11,-18.64 61.76,-24.77 63.69,-18.04"/>
</g>
<!-- Node10&#45;&gt;Node4 -->
<g id="edge14" class="edge">
<title>Node10&#45;&gt;Node4</title>
<path fill="none" stroke="midnightblue" d="M258.82,-56.46C301.59,-48.12 368.41,-34.82 435.57,-20.15"/>
<polygon fill="midnightblue" stroke="midnightblue" points="436.46,-23.54 445.48,-17.98 434.96,-16.7 436.46,-23.54"/>
</g>
<!-- Node11 -->
<g id="node11" class="node">
<title>Node11</title>
<g id="a_node11"><a xlink:title=" ">
<polygon fill="white" stroke="#bfbfbf" points="203.5,-0.5 203.5,-19.5 255.5,-19.5 255.5,-0.5 203.5,-0.5"/>
<text text-anchor="middle" x="229.5" y="-7.5" font-family="Helvetica,sans-Serif" font-size="10.00">cassert</text>
</a>
</g>
</g>
<!-- Node10&#45;&gt;Node11 -->
<g id="edge12" class="edge">
<title>Node10&#45;&gt;Node11</title>
<path fill="none" stroke="midnightblue" d="M216.98,-56.08C218.99,-48.85 221.89,-38.41 224.39,-29.4"/>
<polygon fill="midnightblue" stroke="midnightblue" points="227.76,-30.32 227.07,-19.75 221.02,-28.45 227.76,-30.32"/>
</g>
<!-- Node12 -->
<g id="node12" class="node">
<title>Node12</title>
<g id="a_node12"><a xlink:title=" ">
<polygon fill="white" stroke="#bfbfbf" points="273.5,-0.5 273.5,-19.5 427.5,-19.5 427.5,-0.5 273.5,-0.5"/>
<text text-anchor="middle" x="350.5" y="-7.5" font-family="Helvetica,sans-Serif" font-size="10.00">boost/core/noncopyable.hpp</text>
</a>
</g>
</g>
<!-- Node10&#45;&gt;Node12 -->
<g id="edge15" class="edge">
<title>Node10&#45;&gt;Node12</title>
<path fill="none" stroke="midnightblue" d="M236.05,-56.44C258.53,-47.52 293.99,-33.44 319.48,-23.32"/>
<polygon fill="midnightblue" stroke="midnightblue" points="321.05,-26.46 329.05,-19.52 318.47,-19.95 321.05,-26.46"/>
</g>
<!-- Node13 -->
<g id="node13" class="node">
<title>Node13</title>
<g id="a_node13"><a xlink:title=" ">
<polygon fill="white" stroke="#bfbfbf" points="71.5,-0.5 71.5,-19.5 185.5,-19.5 185.5,-0.5 71.5,-0.5"/>
<text text-anchor="middle" x="128.5" y="-7.5" font-family="Helvetica,sans-Serif" font-size="10.00">boost/operators.hpp</text>
</a>
</g>
</g>
<!-- Node10&#45;&gt;Node13 -->
<g id="edge16" class="edge">
<title>Node10&#45;&gt;Node13</title>
<path fill="none" stroke="midnightblue" d="M200.68,-56.32C187.27,-47.9 166.68,-34.97 150.91,-25.07"/>
<polygon fill="midnightblue" stroke="midnightblue" points="152.61,-22.01 142.28,-19.65 148.89,-27.94 152.61,-22.01"/>
</g>
<!-- Node14&#45;&gt;Node7 -->
<g id="edge18" class="edge">
<title>Node14&#45;&gt;Node7</title>
<path fill="none" stroke="midnightblue" d="M373.92,-168.32C389.04,-159.82 412.32,-146.73 429.97,-136.8"/>
<polygon fill="midnightblue" stroke="midnightblue" points="432.11,-139.61 439.11,-131.65 428.68,-133.51 432.11,-139.61"/>
</g>
<!-- Node14&#45;&gt;Node8 -->
<g id="edge20" class="edge">
<title>Node14&#45;&gt;Node8</title>
<path fill="none" stroke="midnightblue" d="M345.49,-168.32C332.97,-159.98 313.82,-147.21 299.03,-137.35"/>
<polygon fill="midnightblue" stroke="midnightblue" points="300.74,-134.29 290.48,-131.65 296.86,-140.11 300.74,-134.29"/>
</g>
<!-- Node14&#45;&gt;Node12 -->
<g id="edge19" class="edge">
<title>Node14&#45;&gt;Node12</title>
<path fill="none" stroke="midnightblue" d="M358.07,-168.08C356.81,-141.95 353.11,-65.21 351.4,-29.58"/>
<polygon fill="midnightblue" stroke="midnightblue" points="354.89,-29.39 350.91,-19.57 347.9,-29.73 354.89,-29.39"/>
</g>
</g>
</svg>
