<?xml version="1.0" encoding="UTF-8" standalone="no"?>
<!DOCTYPE svg PUBLIC "-//W3C//DTD SVG 1.1//EN"
 "http://www.w3.org/Graphics/SVG/1.1/DTD/svg11.dtd">
<!-- Generated by graphviz version 2.43.0 (0)
 -->
<!-- Title: library/text/cpp/include/tetengo/text/encoding/utf8.hpp Pages: 1 -->
<svg width="330pt" height="104pt"
 viewBox="0.00 0.00 330.00 104.00" xmlns="http://www.w3.org/2000/svg" xmlns:xlink="http://www.w3.org/1999/xlink">
<g id="graph0" class="graph" transform="scale(1 1) rotate(0) translate(4 100)">
<title>library/text/cpp/include/tetengo/text/encoding/utf8.hpp</title>
<!-- Node1 -->
<g id="node1" class="node">
<title>Node1</title>
<g id="a_node1"><a xlink:title="A UTF&#45;8 encoding.">
<polygon fill="#999999" stroke="#666666" points="177.5,-96 48.5,-96 48.5,-55 177.5,-55 177.5,-96"/>
<text text-anchor="start" x="56.5" y="-84" font-family="Helvetica,sans-Serif" font-size="10.00">library/text/cpp/include</text>
<text text-anchor="start" x="56.5" y="-73" font-family="Helvetica,sans-Serif" font-size="10.00">/tetengo/text/encoding</text>
<text text-anchor="middle" x="113" y="-62" font-family="Helvetica,sans-Serif" font-size="10.00">/utf8.hpp</text>
</a>
</g>
</g>
<!-- Node2 -->
<g id="node2" class="node">
<title>Node2</title>
<g id="a_node2"><a xlink:title=" ">
<polygon fill="#e0e0e0" stroke="#999999" points="58,-19 0,-19 0,0 58,0 58,-19"/>
<text text-anchor="middle" x="29" y="-7" font-family="Helvetica,sans-Serif" font-size="10.00">memory</text>
</a>
</g>
</g>
<!-- Node1&#45;&gt;Node2 -->
<g id="edge1" class="edge">
<title>Node1&#45;&gt;Node2</title>
<path fill="none" stroke="#63b8ff" d="M87.34,-54.95C74.88,-45.46 60.15,-34.24 48.61,-25.44"/>
<polygon fill="#63b8ff" stroke="#63b8ff" points="50.57,-22.54 40.5,-19.26 46.33,-28.11 50.57,-22.54"/>
</g>
<!-- Node3 -->
<g id="node3" class="node">
<title>Node3</title>
<g id="a_node3"><a xlink:title=" ">
<polygon fill="#e0e0e0" stroke="#999999" points="149.5,-19 76.5,-19 76.5,0 149.5,0 149.5,-19"/>
<text text-anchor="middle" x="113" y="-7" font-family="Helvetica,sans-Serif" font-size="10.00">string_view</text>
</a>
</g>
</g>
<!-- Node1&#45;&gt;Node3 -->
<g id="edge2" class="edge">
<title>Node1&#45;&gt;Node3</title>
<path fill="none" stroke="#63b8ff" d="M113,-54.95C113,-46.85 113,-37.5 113,-29.47"/>
<polygon fill="#63b8ff" stroke="#63b8ff" points="116.5,-29.26 113,-19.26 109.5,-29.26 116.5,-29.26"/>
</g>
<!-- Node4 -->
<g id="node4" class="node">
<title>Node4</title>
<g id="a_node4"><a xlink:title=" ">
<polygon fill="#e0e0e0" stroke="#999999" points="322,-19 168,-19 168,0 322,0 322,-19"/>
<text text-anchor="middle" x="245" y="-7" font-family="Helvetica,sans-Serif" font-size="10.00">boost/core/noncopyable.hpp</text>
</a>
</g>
</g>
<!-- Node1&#45;&gt;Node4 -->
<g id="edge3" class="edge">
<title>Node1&#45;&gt;Node4</title>
<path fill="none" stroke="#63b8ff" d="M153.32,-54.95C174.37,-44.75 199.54,-32.54 218.18,-23.5"/>
<polygon fill="#63b8ff" stroke="#63b8ff" points="219.81,-26.6 227.28,-19.09 216.75,-20.31 219.81,-26.6"/>
</g>
</g>
</svg>
