<?xml version="1.0" encoding="UTF-8" standalone="no"?>
<!DOCTYPE svg PUBLIC "-//W3C//DTD SVG 1.1//EN"
 "http://www.w3.org/Graphics/SVG/1.1/DTD/svg11.dtd">
<!-- Generated by graphviz version 2.43.0 (0)
 -->
<!-- Title: library/trie/cpp/include/tetengo/trie/value_serializer.hpp Pages: 1 -->
<svg width="262pt" height="95pt"
 viewBox="0.00 0.00 262.00 95.00" xmlns="http://www.w3.org/2000/svg" xmlns:xlink="http://www.w3.org/1999/xlink">
<g id="graph0" class="graph" transform="scale(1 1) rotate(0) translate(4 91)">
<title>library/trie/cpp/include/tetengo/trie/value_serializer.hpp</title>
<polygon fill="white" stroke="transparent" points="-4,4 -4,-91 258,-91 258,4 -4,4"/>
<!-- Node1 -->
<g id="node1" class="node">
<title>Node1</title>
<g id="a_node1"><a xlink:title="A value serializer.">
<polygon fill="#bfbfbf" stroke="black" points="29,-56.5 29,-86.5 206,-86.5 206,-56.5 29,-56.5"/>
<text text-anchor="start" x="37" y="-74.5" font-family="Helvetica,sans-Serif" font-size="10.00">library/trie/cpp/include</text>
<text text-anchor="middle" x="117.5" y="-63.5" font-family="Helvetica,sans-Serif" font-size="10.00">/tetengo/trie/value_serializer.hpp</text>
</a>
</g>
</g>
<!-- Node2 -->
<g id="node2" class="node">
<title>Node2</title>
<g id="a_node2"><a xlink:title=" ">
<polygon fill="white" stroke="#bfbfbf" points="0,-0.5 0,-19.5 35,-19.5 35,-0.5 0,-0.5"/>
<text text-anchor="middle" x="17.5" y="-7.5" font-family="Helvetica,sans-Serif" font-size="10.00">any</text>
</a>
</g>
</g>
<!-- Node1&#45;&gt;Node2 -->
<g id="edge1" class="edge">
<title>Node1&#45;&gt;Node2</title>
<path fill="none" stroke="midnightblue" d="M93.8,-56.4C77.77,-46.86 56.7,-34.32 40.76,-24.84"/>
<polygon fill="midnightblue" stroke="midnightblue" points="42.43,-21.76 32.05,-19.66 38.86,-27.78 42.43,-21.76"/>
</g>
<!-- Node3 -->
<g id="node3" class="node">
<title>Node3</title>
<g id="a_node3"><a xlink:title=" ">
<polygon fill="white" stroke="#bfbfbf" points="53,-0.5 53,-19.5 106,-19.5 106,-0.5 53,-0.5"/>
<text text-anchor="middle" x="79.5" y="-7.5" font-family="Helvetica,sans-Serif" font-size="10.00">cstddef</text>
</a>
</g>
</g>
<!-- Node1&#45;&gt;Node3 -->
<g id="edge2" class="edge">
<title>Node1&#45;&gt;Node3</title>
<path fill="none" stroke="midnightblue" d="M108.49,-56.4C103.09,-47.93 96.17,-37.1 90.45,-28.14"/>
<polygon fill="midnightblue" stroke="midnightblue" points="93.36,-26.2 85.03,-19.66 87.46,-29.97 93.36,-26.2"/>
</g>
<!-- Node4 -->
<g id="node4" class="node">
<title>Node4</title>
<g id="a_node4"><a xlink:title=" ">
<polygon fill="white" stroke="#bfbfbf" points="124,-0.5 124,-19.5 189,-19.5 189,-0.5 124,-0.5"/>
<text text-anchor="middle" x="156.5" y="-7.5" font-family="Helvetica,sans-Serif" font-size="10.00">functional</text>
</a>
</g>
</g>
<!-- Node1&#45;&gt;Node4 -->
<g id="edge3" class="edge">
<title>Node1&#45;&gt;Node4</title>
<path fill="none" stroke="midnightblue" d="M126.74,-56.4C132.29,-47.93 139.39,-37.1 145.27,-28.14"/>
<polygon fill="midnightblue" stroke="midnightblue" points="148.27,-29.94 150.83,-19.66 142.42,-26.1 148.27,-29.94"/>
</g>
<!-- Node5 -->
<g id="node5" class="node">
<title>Node5</title>
<g id="a_node5"><a xlink:title=" ">
<polygon fill="white" stroke="#bfbfbf" points="207,-0.5 207,-19.5 254,-19.5 254,-0.5 207,-0.5"/>
<text text-anchor="middle" x="230.5" y="-7.5" font-family="Helvetica,sans-Serif" font-size="10.00">vector</text>
</a>
</g>
</g>
<!-- Node1&#45;&gt;Node5 -->
<g id="edge4" class="edge">
<title>Node1&#45;&gt;Node5</title>
<path fill="none" stroke="midnightblue" d="M144.28,-56.4C162.56,-46.77 186.65,-34.09 204.71,-24.58"/>
<polygon fill="midnightblue" stroke="midnightblue" points="206.84,-27.41 214.06,-19.66 203.58,-21.22 206.84,-27.41"/>
</g>
</g>
</svg>
