<?xml version="1.0" encoding="UTF-8" standalone="no"?>
<!DOCTYPE svg PUBLIC "-//W3C//DTD SVG 1.1//EN"
 "http://www.w3.org/Graphics/SVG/1.1/DTD/svg11.dtd">
<!-- Generated by graphviz version 2.43.0 (0)
 -->
<!-- Title: library/lattice/c/include/tetengo/lattice/vocabulary.h Pages: 1 -->
<svg width="451pt" height="263pt"
 viewBox="0.00 0.00 451.26 263.00" xmlns="http://www.w3.org/2000/svg" xmlns:xlink="http://www.w3.org/1999/xlink">
<g id="graph0" class="graph" transform="scale(1 1) rotate(0) translate(4 259)">
<title>library/lattice/c/include/tetengo/lattice/vocabulary.h</title>
<polygon fill="white" stroke="transparent" points="-4,4 -4,-259 447.26,-259 447.26,4 -4,4"/>
<!-- Node1 -->
<g id="node1" class="node">
<title>Node1</title>
<g id="a_node1"><a xlink:title="A vocabulary.">
<polygon fill="#bfbfbf" stroke="black" points="152.76,-224.5 152.76,-254.5 307.76,-254.5 307.76,-224.5 152.76,-224.5"/>
<text text-anchor="start" x="160.76" y="-242.5" font-family="Helvetica,sans-Serif" font-size="10.00">library/lattice/c/include</text>
<text text-anchor="middle" x="230.26" y="-231.5" font-family="Helvetica,sans-Serif" font-size="10.00">/tetengo/lattice/vocabulary.h</text>
</a>
</g>
</g>
<!-- Node2 -->
<g id="node2" class="node">
<title>Node2</title>
<g id="a_node2"><a xlink:title=" ">
<polygon fill="white" stroke="#bfbfbf" points="381.26,-0.5 381.26,-19.5 443.26,-19.5 443.26,-0.5 381.26,-0.5"/>
<text text-anchor="middle" x="412.26" y="-7.5" font-family="Helvetica,sans-Serif" font-size="10.00">stdbool.h</text>
</a>
</g>
</g>
<!-- Node1&#45;&gt;Node2 -->
<g id="edge1" class="edge">
<title>Node1&#45;&gt;Node2</title>
<path fill="none" stroke="midnightblue" d="M307.84,-233.61C340.53,-227.43 376.06,-214.5 398.26,-188 436.48,-142.37 425,-64.87 417.06,-29.54"/>
<polygon fill="midnightblue" stroke="midnightblue" points="420.42,-28.55 414.67,-19.65 413.61,-30.19 420.42,-28.55"/>
</g>
<!-- Node3 -->
<g id="node3" class="node">
<title>Node3</title>
<g id="a_node3"><a xlink:title=" ">
<polygon fill="white" stroke="#bfbfbf" points="164.26,-0.5 164.26,-19.5 220.26,-19.5 220.26,-0.5 164.26,-0.5"/>
<text text-anchor="middle" x="192.26" y="-7.5" font-family="Helvetica,sans-Serif" font-size="10.00">stddef.h</text>
</a>
</g>
</g>
<!-- Node1&#45;&gt;Node3 -->
<g id="edge2" class="edge">
<title>Node1&#45;&gt;Node3</title>
<path fill="none" stroke="midnightblue" d="M152.66,-229.67C120.53,-222.7 84.68,-210.25 58.26,-188 15.84,-152.28 15.81,-130.02 3.26,-76 1.25,-67.34 -2.25,-62.98 3.26,-56 21.7,-32.65 104.51,-20.11 154.19,-14.57"/>
<polygon fill="midnightblue" stroke="midnightblue" points="154.69,-18.04 164.26,-13.49 153.94,-11.08 154.69,-18.04"/>
</g>
<!-- Node4 -->
<g id="node4" class="node">
<title>Node4</title>
<g id="a_node4"><a xlink:href="connection_8h.html" target="_top" xlink:title="A connection.">
<polygon fill="white" stroke="black" points="75.76,-168.5 75.76,-187.5 228.76,-187.5 228.76,-168.5 75.76,-168.5"/>
<text text-anchor="middle" x="152.26" y="-175.5" font-family="Helvetica,sans-Serif" font-size="10.00">tetengo/lattice/connection.h</text>
</a>
</g>
</g>
<!-- Node1&#45;&gt;Node4 -->
<g id="edge3" class="edge">
<title>Node1&#45;&gt;Node4</title>
<path fill="none" stroke="midnightblue" d="M211.77,-224.4C199.74,-215.22 184.06,-203.26 171.81,-193.92"/>
<polygon fill="midnightblue" stroke="midnightblue" points="173.68,-190.94 163.61,-187.66 169.44,-196.51 173.68,-190.94"/>
</g>
<!-- Node5 -->
<g id="node5" class="node">
<title>Node5</title>
<g id="a_node5"><a xlink:href="entry_8h.html" target="_top" xlink:title="An entry.">
<polygon fill="white" stroke="black" points="78.26,-112.5 78.26,-131.5 202.26,-131.5 202.26,-112.5 78.26,-112.5"/>
<text text-anchor="middle" x="140.26" y="-119.5" font-family="Helvetica,sans-Serif" font-size="10.00">tetengo/lattice/entry.h</text>
</a>
</g>
</g>
<!-- Node1&#45;&gt;Node5 -->
<g id="edge11" class="edge">
<title>Node1&#45;&gt;Node5</title>
<path fill="none" stroke="midnightblue" d="M152.63,-234.18C120.55,-228.09 86.25,-215.08 66.26,-188 50.61,-166.81 80.6,-147.58 106.97,-135.63"/>
<polygon fill="midnightblue" stroke="midnightblue" points="108.62,-138.73 116.42,-131.56 105.85,-132.29 108.62,-138.73"/>
</g>
<!-- Node6 -->
<g id="node6" class="node">
<title>Node6</title>
<g id="a_node6"><a xlink:href="input_8h.html" target="_top" xlink:title="An input.">
<polygon fill="white" stroke="black" points="258.76,-56.5 258.76,-75.5 383.76,-75.5 383.76,-56.5 258.76,-56.5"/>
<text text-anchor="middle" x="321.26" y="-63.5" font-family="Helvetica,sans-Serif" font-size="10.00">tetengo/lattice/input.h</text>
</a>
</g>
</g>
<!-- Node1&#45;&gt;Node6 -->
<g id="edge12" class="edge">
<title>Node1&#45;&gt;Node6</title>
<path fill="none" stroke="midnightblue" d="M308.08,-230.88C335.43,-224.02 363.5,-211.32 380.26,-188 405.11,-153.4 364.66,-106.73 339.3,-82.72"/>
<polygon fill="midnightblue" stroke="midnightblue" points="341.44,-79.93 331.7,-75.76 336.72,-85.1 341.44,-79.93"/>
</g>
<!-- Node8 -->
<g id="node8" class="node">
<title>Node8</title>
<g id="a_node8"><a xlink:href="node_8h.html" target="_top" xlink:title="A node.">
<polygon fill="white" stroke="black" points="247.26,-168.5 247.26,-187.5 371.26,-187.5 371.26,-168.5 247.26,-168.5"/>
<text text-anchor="middle" x="309.26" y="-175.5" font-family="Helvetica,sans-Serif" font-size="10.00">tetengo/lattice/node.h</text>
</a>
</g>
</g>
<!-- Node1&#45;&gt;Node8 -->
<g id="edge13" class="edge">
<title>Node1&#45;&gt;Node8</title>
<path fill="none" stroke="midnightblue" d="M248.98,-224.4C261.17,-215.22 277.05,-203.26 289.45,-193.92"/>
<polygon fill="midnightblue" stroke="midnightblue" points="291.88,-196.47 297.76,-187.66 287.67,-190.88 291.88,-196.47"/>
</g>
<!-- Node4&#45;&gt;Node5 -->
<g id="edge4" class="edge">
<title>Node4&#45;&gt;Node5</title>
<path fill="none" stroke="midnightblue" d="M150.28,-168.08C148.69,-160.93 146.4,-150.64 144.41,-141.69"/>
<polygon fill="midnightblue" stroke="midnightblue" points="147.79,-140.75 142.2,-131.75 140.96,-142.27 147.79,-140.75"/>
</g>
<!-- Node5&#45;&gt;Node3 -->
<g id="edge5" class="edge">
<title>Node5&#45;&gt;Node3</title>
<path fill="none" stroke="midnightblue" d="M147.79,-112.24C154.94,-103.54 165.56,-89.58 172.26,-76 179.6,-61.11 184.91,-42.97 188.21,-29.63"/>
<polygon fill="midnightblue" stroke="midnightblue" points="191.65,-30.28 190.5,-19.75 184.83,-28.7 191.65,-30.28"/>
</g>
<!-- Node5&#45;&gt;Node6 -->
<g id="edge6" class="edge">
<title>Node5&#45;&gt;Node6</title>
<path fill="none" stroke="midnightblue" d="M168.94,-112.44C199.78,-103.24 248.99,-88.56 283.09,-78.39"/>
<polygon fill="midnightblue" stroke="midnightblue" points="284.13,-81.73 292.71,-75.52 282.13,-75.02 284.13,-81.73"/>
</g>
<!-- Node7 -->
<g id="node7" class="node">
<title>Node7</title>
<g id="a_node7"><a xlink:href="stringView_8h.html" target="_top" xlink:title="A string view.">
<polygon fill="white" stroke="black" points="12.76,-56.5 12.76,-75.5 163.76,-75.5 163.76,-56.5 12.76,-56.5"/>
<text text-anchor="middle" x="88.26" y="-63.5" font-family="Helvetica,sans-Serif" font-size="10.00">tetengo/lattice/stringView.h</text>
</a>
</g>
</g>
<!-- Node5&#45;&gt;Node7 -->
<g id="edge9" class="edge">
<title>Node5&#45;&gt;Node7</title>
<path fill="none" stroke="midnightblue" d="M131.67,-112.08C124.1,-104.22 112.88,-92.57 103.74,-83.08"/>
<polygon fill="midnightblue" stroke="midnightblue" points="106.14,-80.53 96.68,-75.75 101.1,-85.38 106.14,-80.53"/>
</g>
<!-- Node6&#45;&gt;Node2 -->
<g id="edge7" class="edge">
<title>Node6&#45;&gt;Node2</title>
<path fill="none" stroke="midnightblue" d="M335.88,-56.32C350.21,-47.82 372.27,-34.73 389.01,-24.8"/>
<polygon fill="midnightblue" stroke="midnightblue" points="390.86,-27.77 397.67,-19.65 387.29,-21.75 390.86,-27.77"/>
</g>
<!-- Node6&#45;&gt;Node3 -->
<g id="edge8" class="edge">
<title>Node6&#45;&gt;Node3</title>
<path fill="none" stroke="midnightblue" d="M300.82,-56.44C279.59,-47.56 246.16,-33.56 222,-23.45"/>
<polygon fill="midnightblue" stroke="midnightblue" points="223.18,-20.15 212.6,-19.52 220.48,-26.61 223.18,-20.15"/>
</g>
<!-- Node7&#45;&gt;Node3 -->
<g id="edge10" class="edge">
<title>Node7&#45;&gt;Node3</title>
<path fill="none" stroke="midnightblue" d="M104.97,-56.32C121.57,-47.7 147.26,-34.36 166.48,-24.39"/>
<polygon fill="midnightblue" stroke="midnightblue" points="168.33,-27.37 175.59,-19.65 165.1,-21.16 168.33,-27.37"/>
</g>
<!-- Node8&#45;&gt;Node2 -->
<g id="edge14" class="edge">
<title>Node8&#45;&gt;Node2</title>
<path fill="none" stroke="midnightblue" d="M318.36,-168.42C335.25,-152 371.63,-114.38 392.26,-76 400.12,-61.38 405.38,-43.2 408.52,-29.8"/>
<polygon fill="midnightblue" stroke="midnightblue" points="411.98,-30.35 410.68,-19.84 405.14,-28.87 411.98,-30.35"/>
</g>
<!-- Node8&#45;&gt;Node3 -->
<g id="edge15" class="edge">
<title>Node8&#45;&gt;Node3</title>
<path fill="none" stroke="midnightblue" d="M302.97,-168.08C284.23,-141.49 228.58,-62.54 204.07,-27.76"/>
<polygon fill="midnightblue" stroke="midnightblue" points="206.92,-25.73 198.3,-19.57 201.2,-29.76 206.92,-25.73"/>
</g>
<!-- Node8&#45;&gt;Node5 -->
<g id="edge16" class="edge">
<title>Node8&#45;&gt;Node5</title>
<path fill="none" stroke="midnightblue" d="M282.48,-168.44C253.92,-159.32 208.53,-144.81 176.72,-134.65"/>
<polygon fill="midnightblue" stroke="midnightblue" points="177.5,-131.23 166.91,-131.52 175.37,-137.89 177.5,-131.23"/>
</g>
</g>
</svg>
