<?xml version="1.0" encoding="UTF-8" standalone="no"?>
<!DOCTYPE svg PUBLIC "-//W3C//DTD SVG 1.1//EN"
 "http://www.w3.org/Graphics/SVG/1.1/DTD/svg11.dtd">
<!-- Generated by graphviz version 2.43.0 (0)
 -->
<!-- Title: library/lattice/cpp/include/tetengo/lattice/vocabulary.hpp Pages: 1 -->
<svg width="512pt" height="218pt"
 viewBox="0.00 0.00 512.00 218.00" xmlns="http://www.w3.org/2000/svg" xmlns:xlink="http://www.w3.org/1999/xlink">
<g id="graph0" class="graph" transform="scale(1 1) rotate(0) translate(4 214)">
<title>library/lattice/cpp/include/tetengo/lattice/vocabulary.hpp</title>
<polygon fill="white" stroke="transparent" points="-4,4 -4,-214 508,-214 508,4 -4,4"/>
<!-- Node1 -->
<g id="node1" class="node">
<title>Node1</title>
<g id="a_node1"><a xlink:title="A vocabulary.">
<polygon fill="#bfbfbf" stroke="black" points="56.5,-168.5 56.5,-209.5 185.5,-209.5 185.5,-168.5 56.5,-168.5"/>
<text text-anchor="start" x="64.5" y="-197.5" font-family="Helvetica,sans-Serif" font-size="10.00">library/lattice/cpp</text>
<text text-anchor="start" x="64.5" y="-186.5" font-family="Helvetica,sans-Serif" font-size="10.00">/include/tetengo/lattice</text>
<text text-anchor="middle" x="121" y="-175.5" font-family="Helvetica,sans-Serif" font-size="10.00">/vocabulary.hpp</text>
</a>
</g>
</g>
<!-- Node2 -->
<g id="node2" class="node">
<title>Node2</title>
<g id="a_node2"><a xlink:title=" ">
<polygon fill="white" stroke="#bfbfbf" points="45.5,-112.5 45.5,-131.5 92.5,-131.5 92.5,-112.5 45.5,-112.5"/>
<text text-anchor="middle" x="69" y="-119.5" font-family="Helvetica,sans-Serif" font-size="10.00">vector</text>
</a>
</g>
</g>
<!-- Node1&#45;&gt;Node2 -->
<g id="edge1" class="edge">
<title>Node1&#45;&gt;Node2</title>
<path fill="none" stroke="midnightblue" d="M105.4,-168.5C98.04,-159.3 89.35,-148.44 82.31,-139.63"/>
<polygon fill="midnightblue" stroke="midnightblue" points="84.9,-137.27 75.92,-131.65 79.44,-141.65 84.9,-137.27"/>
</g>
<!-- Node3 -->
<g id="node3" class="node">
<title>Node3</title>
<g id="a_node3"><a xlink:title=" ">
<polygon fill="white" stroke="#bfbfbf" points="0,-0.5 0,-19.5 154,-19.5 154,-0.5 0,-0.5"/>
<text text-anchor="middle" x="77" y="-7.5" font-family="Helvetica,sans-Serif" font-size="10.00">boost/core/noncopyable.hpp</text>
</a>
</g>
</g>
<!-- Node1&#45;&gt;Node3 -->
<g id="edge2" class="edge">
<title>Node1&#45;&gt;Node3</title>
<path fill="none" stroke="midnightblue" d="M116.12,-168.38C107.56,-133.93 89.94,-63.04 81.58,-29.44"/>
<polygon fill="midnightblue" stroke="midnightblue" points="84.94,-28.44 79.13,-19.58 78.15,-30.13 84.94,-28.44"/>
</g>
<!-- Node4 -->
<g id="node4" class="node">
<title>Node4</title>
<g id="a_node4"><a xlink:href="entry_8hpp.html" target="_top" xlink:title="An entry.">
<polygon fill="white" stroke="black" points="298,-112.5 298,-131.5 434,-131.5 434,-112.5 298,-112.5"/>
<text text-anchor="middle" x="366" y="-119.5" font-family="Helvetica,sans-Serif" font-size="10.00">tetengo/lattice/entry.hpp</text>
</a>
</g>
</g>
<!-- Node1&#45;&gt;Node4 -->
<g id="edge3" class="edge">
<title>Node1&#45;&gt;Node4</title>
<path fill="none" stroke="midnightblue" d="M185.69,-170.84C229.55,-159.2 286.23,-144.16 324.23,-134.08"/>
<polygon fill="midnightblue" stroke="midnightblue" points="325.18,-137.45 333.95,-131.5 323.39,-130.68 325.18,-137.45"/>
</g>
<!-- Node5 -->
<g id="node5" class="node">
<title>Node5</title>
<g id="a_node5"><a xlink:title=" ">
<polygon fill="white" stroke="#bfbfbf" points="348.5,-56.5 348.5,-75.5 383.5,-75.5 383.5,-56.5 348.5,-56.5"/>
<text text-anchor="middle" x="366" y="-63.5" font-family="Helvetica,sans-Serif" font-size="10.00">any</text>
</a>
</g>
</g>
<!-- Node4&#45;&gt;Node5 -->
<g id="edge4" class="edge">
<title>Node4&#45;&gt;Node5</title>
<path fill="none" stroke="midnightblue" d="M366,-112.08C366,-105.01 366,-94.86 366,-85.99"/>
<polygon fill="midnightblue" stroke="midnightblue" points="369.5,-85.75 366,-75.75 362.5,-85.75 369.5,-85.75"/>
</g>
<!-- Node6 -->
<g id="node6" class="node">
<title>Node6</title>
<g id="a_node6"><a xlink:title=" ">
<polygon fill="white" stroke="#bfbfbf" points="446,-0.5 446,-19.5 504,-19.5 504,-0.5 446,-0.5"/>
<text text-anchor="middle" x="475" y="-7.5" font-family="Helvetica,sans-Serif" font-size="10.00">memory</text>
</a>
</g>
</g>
<!-- Node4&#45;&gt;Node6 -->
<g id="edge5" class="edge">
<title>Node4&#45;&gt;Node6</title>
<path fill="none" stroke="midnightblue" d="M397.18,-112.48C416.68,-105.63 440.88,-94.1 456,-76 466.94,-62.9 471.58,-43.75 473.55,-29.63"/>
<polygon fill="midnightblue" stroke="midnightblue" points="477.04,-29.91 474.63,-19.59 470.08,-29.16 477.04,-29.91"/>
</g>
<!-- Node7 -->
<g id="node7" class="node">
<title>Node7</title>
<g id="a_node7"><a xlink:title=" ">
<polygon fill="white" stroke="#bfbfbf" points="401.5,-56.5 401.5,-75.5 446.5,-75.5 446.5,-56.5 401.5,-56.5"/>
<text text-anchor="middle" x="424" y="-63.5" font-family="Helvetica,sans-Serif" font-size="10.00">utility</text>
</a>
</g>
</g>
<!-- Node4&#45;&gt;Node7 -->
<g id="edge6" class="edge">
<title>Node4&#45;&gt;Node7</title>
<path fill="none" stroke="midnightblue" d="M375.32,-112.32C383.89,-104.34 396.81,-92.31 407.19,-82.65"/>
<polygon fill="midnightblue" stroke="midnightblue" points="409.58,-85.21 414.51,-75.83 404.81,-80.09 409.58,-85.21"/>
</g>
<!-- Node8 -->
<g id="node8" class="node">
<title>Node8</title>
<g id="a_node8"><a xlink:href="input_8hpp.html" target="_top" xlink:title="An input.">
<polygon fill="white" stroke="black" points="193.5,-56.5 193.5,-75.5 330.5,-75.5 330.5,-56.5 193.5,-56.5"/>
<text text-anchor="middle" x="262" y="-63.5" font-family="Helvetica,sans-Serif" font-size="10.00">tetengo/lattice/input.hpp</text>
</a>
</g>
</g>
<!-- Node4&#45;&gt;Node8 -->
<g id="edge7" class="edge">
<title>Node4&#45;&gt;Node8</title>
<path fill="none" stroke="midnightblue" d="M349.29,-112.32C332.69,-103.7 307,-90.36 287.78,-80.39"/>
<polygon fill="midnightblue" stroke="midnightblue" points="289.16,-77.16 278.67,-75.65 285.93,-83.37 289.16,-77.16"/>
</g>
<!-- Node8&#45;&gt;Node3 -->
<g id="edge11" class="edge">
<title>Node8&#45;&gt;Node3</title>
<path fill="none" stroke="midnightblue" d="M232.69,-56.44C201.16,-47.24 150.87,-32.56 116.01,-22.39"/>
<polygon fill="midnightblue" stroke="midnightblue" points="116.76,-18.96 106.18,-19.52 114.8,-25.68 116.76,-18.96"/>
</g>
<!-- Node8&#45;&gt;Node6 -->
<g id="edge10" class="edge">
<title>Node8&#45;&gt;Node6</title>
<path fill="none" stroke="midnightblue" d="M295.75,-56.44C333.92,-46.77 395.98,-31.03 436.15,-20.85"/>
<polygon fill="midnightblue" stroke="midnightblue" points="437.02,-24.24 445.86,-18.39 435.3,-17.45 437.02,-24.24"/>
</g>
<!-- Node9 -->
<g id="node9" class="node">
<title>Node9</title>
<g id="a_node9"><a xlink:title=" ">
<polygon fill="white" stroke="#bfbfbf" points="376,-0.5 376,-19.5 428,-19.5 428,-0.5 376,-0.5"/>
<text text-anchor="middle" x="402" y="-7.5" font-family="Helvetica,sans-Serif" font-size="10.00">cassert</text>
</a>
</g>
</g>
<!-- Node8&#45;&gt;Node9 -->
<g id="edge8" class="edge">
<title>Node8&#45;&gt;Node9</title>
<path fill="none" stroke="midnightblue" d="M284.18,-56.44C307.43,-47.48 344.15,-33.31 370.42,-23.18"/>
<polygon fill="midnightblue" stroke="midnightblue" points="371.85,-26.38 379.92,-19.52 369.33,-19.85 371.85,-26.38"/>
</g>
<!-- Node10 -->
<g id="node10" class="node">
<title>Node10</title>
<g id="a_node10"><a xlink:title=" ">
<polygon fill="white" stroke="#bfbfbf" points="172.5,-0.5 172.5,-19.5 225.5,-19.5 225.5,-0.5 172.5,-0.5"/>
<text text-anchor="middle" x="199" y="-7.5" font-family="Helvetica,sans-Serif" font-size="10.00">cstddef</text>
</a>
</g>
</g>
<!-- Node8&#45;&gt;Node10 -->
<g id="edge9" class="edge">
<title>Node8&#45;&gt;Node10</title>
<path fill="none" stroke="midnightblue" d="M251.88,-56.32C242.47,-48.26 228.26,-36.08 216.93,-26.37"/>
<polygon fill="midnightblue" stroke="midnightblue" points="219.18,-23.68 209.31,-19.83 214.62,-29 219.18,-23.68"/>
</g>
<!-- Node11 -->
<g id="node11" class="node">
<title>Node11</title>
<g id="a_node11"><a xlink:title=" ">
<polygon fill="white" stroke="#bfbfbf" points="244,-0.5 244,-19.5 358,-19.5 358,-0.5 244,-0.5"/>
<text text-anchor="middle" x="301" y="-7.5" font-family="Helvetica,sans-Serif" font-size="10.00">boost/operators.hpp</text>
</a>
</g>
</g>
<!-- Node8&#45;&gt;Node11 -->
<g id="edge12" class="edge">
<title>Node8&#45;&gt;Node11</title>
<path fill="none" stroke="midnightblue" d="M268.44,-56.08C273.95,-48.46 282.03,-37.26 288.76,-27.94"/>
<polygon fill="midnightblue" stroke="midnightblue" points="291.66,-29.91 294.68,-19.75 285.99,-25.81 291.66,-29.91"/>
</g>
</g>
</svg>
