<?xml version="1.0" encoding="UTF-8" standalone="no"?>
<!DOCTYPE svg PUBLIC "-//W3C//DTD SVG 1.1//EN"
 "http://www.w3.org/Graphics/SVG/1.1/DTD/svg11.dtd">
<!-- Generated by graphviz version 2.43.0 (0)
 -->
<!-- Title: library/lattice/cpp/include/tetengo/lattice/wildcard_constraint_element.hpp Pages: 1 -->
<svg width="303pt" height="170pt"
 viewBox="0.00 0.00 302.50 170.00" xmlns="http://www.w3.org/2000/svg" xmlns:xlink="http://www.w3.org/1999/xlink">
<g id="graph0" class="graph" transform="scale(1 1) rotate(0) translate(4 166)">
<title>library/lattice/cpp/include/tetengo/lattice/wildcard_constraint_element.hpp</title>
<!-- Node1 -->
<g id="node1" class="node">
<title>Node1</title>
<g id="a_node1"><a xlink:title="A wildcard constraint element.">
<polygon fill="#999999" stroke="#666666" points="191.5,-162 9.5,-162 9.5,-121 191.5,-121 191.5,-162"/>
<text text-anchor="start" x="17.5" y="-150" font-family="Helvetica,sans-Serif" font-size="10.00">library/lattice/cpp</text>
<text text-anchor="start" x="17.5" y="-139" font-family="Helvetica,sans-Serif" font-size="10.00">/include/tetengo/lattice</text>
<text text-anchor="middle" x="100.5" y="-128" font-family="Helvetica,sans-Serif" font-size="10.00">/wildcard_constraint_element.hpp</text>
</a>
</g>
</g>
<!-- Node2 -->
<g id="node2" class="node">
<title>Node2</title>
<g id="a_node2"><a xlink:title=" ">
<polygon fill="#e0e0e0" stroke="#999999" points="53,-79.5 0,-79.5 0,-60.5 53,-60.5 53,-79.5"/>
<text text-anchor="middle" x="26.5" y="-67.5" font-family="Helvetica,sans-Serif" font-size="10.00">cstddef</text>
</a>
</g>
</g>
<!-- Node1&#45;&gt;Node2 -->
<g id="edge1" class="edge">
<title>Node1&#45;&gt;Node2</title>
<path fill="none" stroke="#63b8ff" d="M79.49,-120.77C68.05,-110.02 54.08,-96.91 43.36,-86.84"/>
<polygon fill="#63b8ff" stroke="#63b8ff" points="45.58,-84.11 35.89,-79.82 40.78,-89.22 45.58,-84.11"/>
</g>
<!-- Node3 -->
<g id="node3" class="node">
<title>Node3</title>
<g id="a_node3"><a xlink:title=" ">
<polygon fill="#e0e0e0" stroke="#999999" points="129.5,-79.5 71.5,-79.5 71.5,-60.5 129.5,-60.5 129.5,-79.5"/>
<text text-anchor="middle" x="100.5" y="-67.5" font-family="Helvetica,sans-Serif" font-size="10.00">memory</text>
</a>
</g>
</g>
<!-- Node1&#45;&gt;Node3 -->
<g id="edge2" class="edge">
<title>Node1&#45;&gt;Node3</title>
<path fill="none" stroke="#63b8ff" d="M100.5,-120.77C100.5,-111.08 100.5,-99.46 100.5,-89.88"/>
<polygon fill="#63b8ff" stroke="#63b8ff" points="104,-89.82 100.5,-79.82 97,-89.82 104,-89.82"/>
</g>
<!-- Node4 -->
<g id="node4" class="node">
<title>Node4</title>
<g id="a_node4"><a xlink:href="constraint__element_8hpp.html" target="_top" xlink:title="A constraint element.">
<polygon fill="white" stroke="#666666" points="287.5,-85 147.5,-85 147.5,-55 287.5,-55 287.5,-85"/>
<text text-anchor="start" x="155.5" y="-73" font-family="Helvetica,sans-Serif" font-size="10.00">tetengo/lattice/constraint</text>
<text text-anchor="middle" x="217.5" y="-62" font-family="Helvetica,sans-Serif" font-size="10.00">_element.hpp</text>
</a>
</g>
</g>
<!-- Node1&#45;&gt;Node4 -->
<g id="edge3" class="edge">
<title>Node1&#45;&gt;Node4</title>
<path fill="none" stroke="#63b8ff" d="M133.4,-120.96C149.45,-111.42 168.7,-99.99 184.72,-90.47"/>
<polygon fill="#63b8ff" stroke="#63b8ff" points="186.93,-93.23 193.74,-85.11 183.36,-87.21 186.93,-93.23"/>
</g>
<!-- Node5 -->
<g id="node5" class="node">
<title>Node5</title>
<g id="a_node5"><a xlink:title=" ">
<polygon fill="#e0e0e0" stroke="#999999" points="294.5,-19 140.5,-19 140.5,0 294.5,0 294.5,-19"/>
<text text-anchor="middle" x="217.5" y="-7" font-family="Helvetica,sans-Serif" font-size="10.00">boost/core/noncopyable.hpp</text>
</a>
</g>
</g>
<!-- Node4&#45;&gt;Node5 -->
<g id="edge4" class="edge">
<title>Node4&#45;&gt;Node5</title>
<path fill="none" stroke="#63b8ff" d="M217.5,-54.84C217.5,-47.21 217.5,-37.7 217.5,-29.45"/>
<polygon fill="#63b8ff" stroke="#63b8ff" points="221,-29.27 217.5,-19.27 214,-29.27 221,-29.27"/>
</g>
</g>
</svg>
