<?xml version="1.0" encoding="UTF-8" standalone="no"?>
<!DOCTYPE svg PUBLIC "-//W3C//DTD SVG 1.1//EN"
 "http://www.w3.org/Graphics/SVG/1.1/DTD/svg11.dtd">
<!-- Generated by graphviz version 2.43.0 (0)
 -->
<!-- Title: library/lattice/cpp/include/tetengo/lattice/wildcard_constraint_element.hpp Pages: 1 -->
<svg width="303pt" height="173pt"
 viewBox="0.00 0.00 302.50 173.00" xmlns="http://www.w3.org/2000/svg" xmlns:xlink="http://www.w3.org/1999/xlink">
<g id="graph0" class="graph" transform="scale(1 1) rotate(0) translate(4 169)">
<title>library/lattice/cpp/include/tetengo/lattice/wildcard_constraint_element.hpp</title>
<polygon fill="white" stroke="transparent" points="-4,4 -4,-169 298.5,-169 298.5,4 -4,4"/>
<!-- Node1 -->
<g id="node1" class="node">
<title>Node1</title>
<g id="a_node1"><a xlink:title="A wildcard constraint element.">
<polygon fill="#bfbfbf" stroke="black" points="9.5,-123.5 9.5,-164.5 191.5,-164.5 191.5,-123.5 9.5,-123.5"/>
<text text-anchor="start" x="17.5" y="-152.5" font-family="Helvetica,sans-Serif" font-size="10.00">library/lattice/cpp</text>
<text text-anchor="start" x="17.5" y="-141.5" font-family="Helvetica,sans-Serif" font-size="10.00">/include/tetengo/lattice</text>
<text text-anchor="middle" x="100.5" y="-130.5" font-family="Helvetica,sans-Serif" font-size="10.00">/wildcard_constraint_element.hpp</text>
</a>
</g>
</g>
<!-- Node2 -->
<g id="node2" class="node">
<title>Node2</title>
<g id="a_node2"><a xlink:title=" ">
<polygon fill="white" stroke="#bfbfbf" points="0,-62 0,-81 53,-81 53,-62 0,-62"/>
<text text-anchor="middle" x="26.5" y="-69" font-family="Helvetica,sans-Serif" font-size="10.00">cstddef</text>
</a>
</g>
</g>
<!-- Node1&#45;&gt;Node2 -->
<g id="edge1" class="edge">
<title>Node1&#45;&gt;Node2</title>
<path fill="none" stroke="midnightblue" d="M79.89,-123.36C68.3,-112.32 54.03,-98.72 43.15,-88.37"/>
<polygon fill="midnightblue" stroke="midnightblue" points="45.26,-85.54 35.6,-81.17 40.43,-90.61 45.26,-85.54"/>
</g>
<!-- Node3 -->
<g id="node3" class="node">
<title>Node3</title>
<g id="a_node3"><a xlink:title=" ">
<polygon fill="white" stroke="#bfbfbf" points="71.5,-62 71.5,-81 129.5,-81 129.5,-62 71.5,-62"/>
<text text-anchor="middle" x="100.5" y="-69" font-family="Helvetica,sans-Serif" font-size="10.00">memory</text>
</a>
</g>
</g>
<!-- Node1&#45;&gt;Node3 -->
<g id="edge2" class="edge">
<title>Node1&#45;&gt;Node3</title>
<path fill="none" stroke="midnightblue" d="M100.5,-123.36C100.5,-113.3 100.5,-101.1 100.5,-91.18"/>
<polygon fill="midnightblue" stroke="midnightblue" points="104,-91.17 100.5,-81.17 97,-91.17 104,-91.17"/>
</g>
<!-- Node4 -->
<g id="node4" class="node">
<title>Node4</title>
<g id="a_node4"><a xlink:href="constraint__element_8hpp.html" target="_top" xlink:title="A constraint element.">
<polygon fill="white" stroke="black" points="147.5,-56.5 147.5,-86.5 287.5,-86.5 287.5,-56.5 147.5,-56.5"/>
<text text-anchor="start" x="155.5" y="-74.5" font-family="Helvetica,sans-Serif" font-size="10.00">tetengo/lattice/constraint</text>
<text text-anchor="middle" x="217.5" y="-63.5" font-family="Helvetica,sans-Serif" font-size="10.00">_element.hpp</text>
</a>
</g>
</g>
<!-- Node1&#45;&gt;Node4 -->
<g id="edge3" class="edge">
<title>Node1&#45;&gt;Node4</title>
<path fill="none" stroke="midnightblue" d="M133.09,-123.36C149.41,-113.53 169.09,-101.67 185.35,-91.87"/>
<polygon fill="midnightblue" stroke="midnightblue" points="187.22,-94.83 193.98,-86.67 183.61,-88.83 187.22,-94.83"/>
</g>
<!-- Node5 -->
<g id="node5" class="node">
<title>Node5</title>
<g id="a_node5"><a xlink:title=" ">
<polygon fill="white" stroke="#bfbfbf" points="140.5,-0.5 140.5,-19.5 294.5,-19.5 294.5,-0.5 140.5,-0.5"/>
<text text-anchor="middle" x="217.5" y="-7.5" font-family="Helvetica,sans-Serif" font-size="10.00">boost/core/noncopyable.hpp</text>
</a>
</g>
</g>
<!-- Node4&#45;&gt;Node5 -->
<g id="edge4" class="edge">
<title>Node4&#45;&gt;Node5</title>
<path fill="none" stroke="midnightblue" d="M217.5,-56.4C217.5,-48.47 217.5,-38.46 217.5,-29.86"/>
<polygon fill="midnightblue" stroke="midnightblue" points="221,-29.66 217.5,-19.66 214,-29.66 221,-29.66"/>
</g>
</g>
</svg>
