<?xml version="1.0" encoding="UTF-8" standalone="no"?>
<!DOCTYPE svg PUBLIC "-//W3C//DTD SVG 1.1//EN"
 "http://www.w3.org/Graphics/SVG/1.1/DTD/svg11.dtd">
<!-- Generated by graphviz version 2.43.0 (0)
 -->
<!-- Title: library/platform_dependent/cpp/include/tetengo/platform_dependent/windows_X.hpp Pages: 1 -->
<svg width="685pt" height="104pt"
 viewBox="0.00 0.00 685.00 104.00" xmlns="http://www.w3.org/2000/svg" xmlns:xlink="http://www.w3.org/1999/xlink">
<g id="graph0" class="graph" transform="scale(1 1) rotate(0) translate(4 100)">
<title>library/platform_dependent/cpp/include/tetengo/platform_dependent/windows_X.hpp</title>
<!-- Node1 -->
<g id="Node000001" class="node">
<title>Node1</title>
<g id="a_Node000001"><a xlink:title="A Windows registry access.">
<polygon fill="#999999" stroke="#666666" points="372.5,-96 211.5,-96 211.5,-55 372.5,-55 372.5,-96"/>
<text text-anchor="start" x="219.5" y="-84" font-family="Helvetica,sans-Serif" font-size="10.00">library/platform_dependent</text>
<text text-anchor="start" x="219.5" y="-73" font-family="Helvetica,sans-Serif" font-size="10.00">/cpp/include/tetengo/platform</text>
<text text-anchor="middle" x="292" y="-62" font-family="Helvetica,sans-Serif" font-size="10.00">_dependent/windows_X.hpp</text>
</a>
</g>
</g>
<!-- Node2 -->
<g id="Node000002" class="node">
<title>Node2</title>
<g id="a_Node000002"><a xlink:title=" ">
<polygon fill="#e0e0e0" stroke="#999999" points="50,-19 0,-19 0,0 50,0 50,-19"/>
<text text-anchor="middle" x="25" y="-7" font-family="Helvetica,sans-Serif" font-size="10.00">cstdint</text>
</a>
</g>
</g>
<!-- Node1&#45;&gt;Node2 -->
<g id="edge1_Node000001_Node000002" class="edge">
<title>Node1&#45;&gt;Node2</title>
<g id="a_edge1_Node000001_Node000002"><a xlink:title=" ">
<path fill="none" stroke="#63b8ff" d="M211.34,-55.52C169,-45.5 116,-32.88 60.3,-19.3"/>
<polygon fill="#63b8ff" stroke="#63b8ff" points="60.79,-15.82 50.24,-16.84 59.13,-22.62 60.79,-15.82"/>
</a>
</g>
</g>
<!-- Node3 -->
<g id="Node000003" class="node">
<title>Node3</title>
<g id="a_Node000003"><a xlink:title=" ">
<polygon fill="#e0e0e0" stroke="#999999" points="136,-19 68,-19 68,0 136,0 136,-19"/>
<text text-anchor="middle" x="102" y="-7" font-family="Helvetica,sans-Serif" font-size="10.00">filesystem</text>
</a>
</g>
</g>
<!-- Node1&#45;&gt;Node3 -->
<g id="edge2_Node000001_Node000003" class="edge">
<title>Node1&#45;&gt;Node3</title>
<g id="a_edge2_Node000001_Node000003"><a xlink:title=" ">
<path fill="none" stroke="#63b8ff" d="M233.96,-54.95C202.32,-44.29 164.19,-31.45 137.08,-22.31"/>
<polygon fill="#63b8ff" stroke="#63b8ff" points="137.85,-18.88 127.26,-19.01 135.62,-25.52 137.85,-18.88"/>
</a>
</g>
</g>
<!-- Node4 -->
<g id="Node000004" class="node">
<title>Node4</title>
<g id="a_Node000004"><a xlink:title=" ">
<polygon fill="#e0e0e0" stroke="#999999" points="212,-19 154,-19 154,0 212,0 212,-19"/>
<text text-anchor="middle" x="183" y="-7" font-family="Helvetica,sans-Serif" font-size="10.00">memory</text>
</a>
</g>
</g>
<!-- Node1&#45;&gt;Node4 -->
<g id="edge3_Node000001_Node000004" class="edge">
<title>Node1&#45;&gt;Node4</title>
<g id="a_edge3_Node000001_Node000004"><a xlink:title=" ">
<path fill="none" stroke="#63b8ff" d="M258.7,-54.95C241.8,-45.03 221.68,-33.21 206.43,-24.25"/>
<polygon fill="#63b8ff" stroke="#63b8ff" points="208.03,-21.14 197.63,-19.09 204.48,-27.17 208.03,-21.14"/>
</a>
</g>
</g>
<!-- Node5 -->
<g id="Node000005" class="node">
<title>Node5</title>
<g id="a_Node000005"><a xlink:title=" ">
<polygon fill="#e0e0e0" stroke="#999999" points="286,-19 230,-19 230,0 286,0 286,-19"/>
<text text-anchor="middle" x="258" y="-7" font-family="Helvetica,sans-Serif" font-size="10.00">optional</text>
</a>
</g>
</g>
<!-- Node1&#45;&gt;Node5 -->
<g id="edge4_Node000001_Node000005" class="edge">
<title>Node1&#45;&gt;Node5</title>
<g id="a_edge4_Node000001_Node000005"><a xlink:title=" ">
<path fill="none" stroke="#63b8ff" d="M281.61,-54.95C277.07,-46.39 271.77,-36.42 267.35,-28.1"/>
<polygon fill="#63b8ff" stroke="#63b8ff" points="270.44,-26.45 262.65,-19.26 264.25,-29.73 270.44,-26.45"/>
</a>
</g>
</g>
<!-- Node6 -->
<g id="Node000006" class="node">
<title>Node6</title>
<g id="a_Node000006"><a xlink:title=" ">
<polygon fill="#e0e0e0" stroke="#999999" points="348,-19 304,-19 304,0 348,0 348,-19"/>
<text text-anchor="middle" x="326" y="-7" font-family="Helvetica,sans-Serif" font-size="10.00">string</text>
</a>
</g>
</g>
<!-- Node1&#45;&gt;Node6 -->
<g id="edge5_Node000001_Node000006" class="edge">
<title>Node1&#45;&gt;Node6</title>
<g id="a_edge5_Node000001_Node000006"><a xlink:title=" ">
<path fill="none" stroke="#63b8ff" d="M302.39,-54.95C306.93,-46.39 312.23,-36.42 316.65,-28.1"/>
<polygon fill="#63b8ff" stroke="#63b8ff" points="319.75,-29.73 321.35,-19.26 313.56,-26.45 319.75,-29.73"/>
</a>
</g>
</g>
<!-- Node7 -->
<g id="Node000007" class="node">
<title>Node7</title>
<g id="a_Node000007"><a xlink:title=" ">
<polygon fill="#e0e0e0" stroke="#999999" points="439.5,-19 366.5,-19 366.5,0 439.5,0 439.5,-19"/>
<text text-anchor="middle" x="403" y="-7" font-family="Helvetica,sans-Serif" font-size="10.00">string_view</text>
</a>
</g>
</g>
<!-- Node1&#45;&gt;Node7 -->
<g id="edge6_Node000001_Node000007" class="edge">
<title>Node1&#45;&gt;Node7</title>
<g id="a_edge6_Node000001_Node000007"><a xlink:title=" ">
<path fill="none" stroke="#63b8ff" d="M325.91,-54.95C343.12,-45.03 363.61,-33.21 379.14,-24.25"/>
<polygon fill="#63b8ff" stroke="#63b8ff" points="381.18,-27.12 388.1,-19.09 377.69,-21.05 381.18,-27.12"/>
</a>
</g>
</g>
<!-- Node8 -->
<g id="Node000008" class="node">
<title>Node8</title>
<g id="a_Node000008"><a xlink:title=" ">
<polygon fill="#e0e0e0" stroke="#999999" points="504.5,-19 457.5,-19 457.5,0 504.5,0 504.5,-19"/>
<text text-anchor="middle" x="481" y="-7" font-family="Helvetica,sans-Serif" font-size="10.00">vector</text>
</a>
</g>
</g>
<!-- Node1&#45;&gt;Node8 -->
<g id="edge7_Node000001_Node000008" class="edge">
<title>Node1&#45;&gt;Node8</title>
<g id="a_edge7_Node000001_Node000008"><a xlink:title=" ">
<path fill="none" stroke="#63b8ff" d="M349.73,-54.95C381.69,-44.13 420.3,-31.06 447.34,-21.9"/>
<polygon fill="#63b8ff" stroke="#63b8ff" points="448.75,-25.12 457.1,-18.59 446.5,-18.49 448.75,-25.12"/>
</a>
</g>
</g>
<!-- Node9 -->
<g id="Node000009" class="node">
<title>Node9</title>
<g id="a_Node000009"><a xlink:title=" ">
<polygon fill="#e0e0e0" stroke="#999999" points="677,-19 523,-19 523,0 677,0 677,-19"/>
<text text-anchor="middle" x="600" y="-7" font-family="Helvetica,sans-Serif" font-size="10.00">boost/core/noncopyable.hpp</text>
</a>
</g>
</g>
<!-- Node1&#45;&gt;Node9 -->
<g id="edge8_Node000001_Node000009" class="edge">
<title>Node1&#45;&gt;Node9</title>
<g id="a_edge8_Node000001_Node000009"><a xlink:title=" ">
<path fill="none" stroke="#63b8ff" d="M372.52,-57.77C428.43,-46.15 501.22,-31.03 549.22,-21.05"/>
<polygon fill="#63b8ff" stroke="#63b8ff" points="549.99,-24.47 559.07,-19 548.57,-17.61 549.99,-24.47"/>
</a>
</g>
</g>
</g>
</svg>
