<?xml version="1.0" encoding="UTF-8" standalone="no"?>
<!-- Created with Inkscape (http://www.inkscape.org/) -->

<svg
   xmlns:dc="http://purl.org/dc/elements/1.1/"
   xmlns:cc="http://creativecommons.org/ns#"
   xmlns:rdf="http://www.w3.org/1999/02/22-rdf-syntax-ns#"
   xmlns:svg="http://www.w3.org/2000/svg"
   xmlns="http://www.w3.org/2000/svg"
   xmlns:xlink="http://www.w3.org/1999/xlink"
   xmlns:sodipodi="http://sodipodi.sourceforge.net/DTD/sodipodi-0.dtd"
   xmlns:inkscape="http://www.inkscape.org/namespaces/inkscape"
   width="1000"
   height="1000"
   viewBox="0 0 264.58333 264.58332"
   version="1.1"
   id="svg8"
   inkscape:version="0.92.4 (5da689c313, 2019-01-14)"
   sodipodi:docname="back.svg">
  <defs
     id="defs2">
    <linearGradient
       inkscape:collect="always"
       id="linearGradient6155">
      <stop
         style="stop-color:#e04040;stop-opacity:1;"
         offset="0"
         id="stop6151" />
      <stop
         style="stop-color:#ff6061;stop-opacity:1"
         offset="1"
         id="stop6153" />
    </linearGradient>
    <inkscape:perspective
       sodipodi:type="inkscape:persp3d"
       inkscape:vp_x="0 : 132.29166 : 1"
       inkscape:vp_y="0 : 1000 : 0"
       inkscape:vp_z="264.58333 : 132.29166 : 1"
       inkscape:persp3d-origin="132.29166 : 88.19444 : 1"
       id="perspective3791" />
    <linearGradient
       inkscape:collect="always"
       xlink:href="#linearGradient6155"
       id="linearGradient6139"
       x1="190.5"
       y1="270.54172"
       x2="-21.166666"
       y2="58.875046"
       gradientUnits="userSpaceOnUse"
       gradientTransform="matrix(0.89999996,0,0,0.89999996,8.3655845,11.28028)" />
    <linearGradient
       inkscape:collect="always"
       xlink:href="#linearGradient6155"
       id="linearGradient6181"
       x1="248.70834"
       y1="127.66669"
       x2="195.79167"
       y2="74.750023"
       gradientUnits="userSpaceOnUse"
       gradientTransform="translate(-42.333373,-37.041632)" />
    <linearGradient
       inkscape:collect="always"
       xlink:href="#linearGradient6155"
       id="linearGradient6181-7"
       x1="248.70834"
       y1="127.66669"
       x2="195.79167"
       y2="74.750023"
       gradientUnits="userSpaceOnUse"
       gradientTransform="translate(-4.4963282e-5,21.166703)" />
    <linearGradient
       inkscape:collect="always"
       xlink:href="#linearGradient6155"
       id="linearGradient6181-7-6"
       x1="248.70834"
       y1="127.66669"
       x2="195.79167"
       y2="74.750023"
       gradientUnits="userSpaceOnUse"
       gradientTransform="translate(-5.2917345,95.250055)" />
  </defs>
  <sodipodi:namedview
     id="base"
     pagecolor="#ffffff"
     bordercolor="#666666"
     borderopacity="1.0"
     inkscape:pageopacity="0.0"
     inkscape:pageshadow="2"
     inkscape:zoom="1.4142136"
     inkscape:cx="815.51168"
     inkscape:cy="497.434"
     inkscape:document-units="mm"
     inkscape:current-layer="layer1"
     showgrid="true"
     units="px"
     showguides="false"
     objecttolerance="50"
     guidetolerance="50"
     inkscape:pagecheckerboard="false"
     inkscape:window-width="3840"
     inkscape:window-height="2035"
     inkscape:window-x="-13"
     inkscape:window-y="-13"
     inkscape:window-maximized="1"
     inkscape:snap-bbox="true"
     inkscape:bbox-paths="true"
     inkscape:snap-to-guides="false"
     inkscape:snap-others="false"
     inkscape:object-nodes="true"
     inkscape:snap-nodes="true"
     inkscape:snap-global="true"
     inkscape:bbox-nodes="true"
     inkscape:snap-bbox-edge-midpoints="true"
     inkscape:snap-bbox-midpoints="true"
     inkscape:object-paths="true"
     inkscape:snap-intersection-paths="true"
     inkscape:snap-smooth-nodes="true"
     inkscape:snap-midpoints="false">
    <inkscape:grid
       type="xygrid"
       id="grid3713"
       spacingx="5.2916665"
       spacingy="5.2916665"
       dotted="false"
       units="px"
       empspacing="4" />
  </sodipodi:namedview>
  <metadata
     id="metadata5">
    <rdf:RDF>
      <cc:Work
         rdf:about="">
        <dc:format>image/svg+xml</dc:format>
        <dc:type
           rdf:resource="http://purl.org/dc/dcmitype/StillImage" />
        <dc:title></dc:title>
      </cc:Work>
    </rdf:RDF>
  </metadata>
  <g
     inkscape:label="レイヤー 1"
     inkscape:groupmode="layer"
     id="layer1"
     transform="translate(0,-32.416705)">
    <circle
       style="fill:url(#linearGradient6139);fill-opacity:1;fill-rule:nonzero;stroke-width:0.89999998"
       id="path3845"
       cx="84.666664"
       cy="159.4167"
       r="95.250008" />
    <circle
       style="fill:url(#linearGradient6181);fill-opacity:1;fill-rule:nonzero;stroke-width:0.26458332"
       id="path6165"
       cx="179.91666"
       cy="64.16671"
       r="26.458332" />
    <circle
       style="fill:url(#linearGradient6181-7);fill-opacity:1;fill-rule:nonzero;stroke-width:0.26458332"
       id="path6165-5"
       cx="222.24998"
       cy="122.37505"
       r="26.458334" />
    <circle
       style="fill:url(#linearGradient6181-7-6);fill-opacity:1;fill-rule:nonzero;stroke-width:0.26458332"
       id="path6165-5-6"
       cx="216.95833"
       cy="196.45837"
       r="26.458334" />
    <g
       aria-label="tetengo."
       style="font-style:normal;font-variant:normal;font-weight:normal;font-stretch:normal;font-size:33.86666489px;line-height:1.25;font-family:'Century Gothic';-inkscape-font-specification:'Century Gothic, Normal';font-variant-ligatures:normal;font-variant-caps:normal;font-variant-numeric:normal;font-feature-settings:normal;text-align:start;letter-spacing:0px;word-spacing:0px;writing-mode:lr-tb;text-anchor:start;fill:#000000;fill-opacity:1;stroke:none;stroke-width:0.77496284"
       id="text6255">
      <path
         d="m 24.548371,126.35619 h 1.74873 v 5.01055 h 2.75332 v 1.48828 h -2.75332 v 12.00547 h -1.74873 v -12.00547 h -2.368848 v -1.48828 h 2.368848 z"
         style="font-style:normal;font-variant:normal;font-weight:normal;font-stretch:normal;font-size:25.39999962px;font-family:'Century Gothic';-inkscape-font-specification:'Century Gothic, Normal';font-variant-ligatures:normal;font-variant-caps:normal;font-variant-numeric:normal;font-feature-settings:normal;text-align:start;writing-mode:lr-tb;text-anchor:start;fill:#ffffff;fill-opacity:1;stroke-width:0.77496284"
         id="path6299" />
      <path
         d="m 43.027863,140.38324 1.463476,0.76895 q -0.719335,1.41387 -1.661914,2.28203 -0.942578,0.86816 -2.1208,1.32705 -1.178223,0.44648 -2.666504,0.44648 -3.299024,0 -5.159375,-2.158 -1.860352,-2.17041 -1.860352,-4.89893 0,-2.56728 1.575098,-4.57646 1.996777,-2.55489 5.34541,-2.55489 3.447852,0 5.506641,2.6169 1.463476,1.84795 1.488281,4.61367 H 32.808332 q 0.04961,2.35645 1.500683,3.86953 1.451075,1.50068 3.584278,1.50068 1.029394,0 1.996777,-0.35966 0.979785,-0.35967 1.661914,-0.95498 0.682129,-0.59532 1.475879,-1.92237 z m 0,-3.63388 q -0.347266,-1.38907 -1.016992,-2.22002 -0.657324,-0.83096 -1.748731,-1.33946 -1.091406,-0.50849 -2.294433,-0.50849 -1.984375,0 -3.410645,1.27744 -1.041797,0.93017 -1.575097,2.79053 z"
         style="font-style:normal;font-variant:normal;font-weight:normal;font-stretch:normal;font-size:25.39999962px;font-family:'Century Gothic';-inkscape-font-specification:'Century Gothic, Normal';font-variant-ligatures:normal;font-variant-caps:normal;font-variant-numeric:normal;font-feature-settings:normal;text-align:start;writing-mode:lr-tb;text-anchor:start;fill:#ffffff;fill-opacity:1;stroke-width:0.77496284"
         id="path6301" />
      <path
         d="m 49.700325,126.35619 h 1.748731 v 5.01055 h 2.75332 v 1.48828 h -2.75332 v 12.00547 h -1.748731 v -12.00547 h -2.368847 v -1.48828 h 2.368847 z"
         style="font-style:normal;font-variant:normal;font-weight:normal;font-stretch:normal;font-size:25.39999962px;font-family:'Century Gothic';-inkscape-font-specification:'Century Gothic, Normal';font-variant-ligatures:normal;font-variant-caps:normal;font-variant-numeric:normal;font-feature-settings:normal;text-align:start;writing-mode:lr-tb;text-anchor:start;fill:#ffffff;fill-opacity:1;stroke-width:0.77496284"
         id="path6303" />
      <path
         d="m 68.179817,140.38324 1.463476,0.76895 q -0.719336,1.41387 -1.661914,2.28203 -0.942578,0.86816 -2.120801,1.32705 -1.178222,0.44648 -2.666503,0.44648 -3.299024,0 -5.159375,-2.158 -1.860352,-2.17041 -1.860352,-4.89893 0,-2.56728 1.575098,-4.57646 1.996777,-2.55489 5.34541,-2.55489 3.447851,0 5.50664,2.6169 1.463477,1.84795 1.488282,4.61367 H 57.960286 q 0.04961,2.35645 1.500683,3.86953 1.451074,1.50068 3.584277,1.50068 1.029395,0 1.996778,-0.35966 0.979785,-0.35967 1.661914,-0.95498 0.682129,-0.59532 1.475879,-1.92237 z m 0,-3.63388 q -0.347266,-1.38907 -1.016993,-2.22002 -0.657324,-0.83096 -1.74873,-1.33946 -1.091406,-0.50849 -2.294434,-0.50849 -1.984375,0 -3.410644,1.27744 -1.041797,0.93017 -1.575098,2.79053 z"
         style="font-style:normal;font-variant:normal;font-weight:normal;font-stretch:normal;font-size:25.39999962px;font-family:'Century Gothic';-inkscape-font-specification:'Century Gothic, Normal';font-variant-ligatures:normal;font-variant-caps:normal;font-variant-numeric:normal;font-feature-settings:normal;text-align:start;writing-mode:lr-tb;text-anchor:start;fill:#ffffff;fill-opacity:1;stroke-width:0.77496284"
         id="path6305" />
      <path
         d="m 73.339194,131.36674 h 1.736328 v 2.41846 q 1.041797,-1.38907 2.306836,-2.0712 1.265039,-0.69453 2.75332,-0.69453 1.513086,0 2.678907,0.76895 1.178222,0.76894 1.736328,2.07119 0.558105,1.30225 0.558105,4.05557 v 6.94531 h -1.723926 v -6.43682 q 0,-2.33164 -0.198437,-3.11299 -0.310059,-1.33945 -1.16582,-2.00918 -0.855762,-0.68212 -2.232422,-0.68212 -1.575098,0 -2.827735,1.04179 -1.240234,1.0418 -1.637109,2.57969 -0.248047,1.00459 -0.248047,3.67109 v 4.94854 h -1.736328 z"
         style="font-style:normal;font-variant:normal;font-weight:normal;font-stretch:normal;font-size:25.39999962px;font-family:'Century Gothic';-inkscape-font-specification:'Century Gothic, Normal';font-variant-ligatures:normal;font-variant-caps:normal;font-variant-numeric:normal;font-feature-settings:normal;text-align:start;writing-mode:lr-tb;text-anchor:start;fill:#ffffff;fill-opacity:1;stroke-width:0.77496284"
         id="path6307" />
      <path
         d="m 100.43831,131.36674 h 1.74873 v 10.75283 q 0,2.84014 -0.49609,4.15479 -0.68213,1.86035 -2.368852,2.86494 -1.686719,1.00459 -4.055566,1.00459 -1.736328,0 -3.125391,-0.4961 -1.37666,-0.48369 -2.244824,-1.31464 -0.868164,-0.81856 -1.599902,-2.40606 h 1.885156 q 0.768945,1.33945 1.984375,1.98438 1.215429,0.64492 3.013769,0.64492 1.773535,0 2.988965,-0.66973 1.227832,-0.65732 1.74873,-1.66191 0.5209,-1.00459 0.5209,-3.23701 v -0.69454 q -0.979786,1.24024 -2.393653,1.90996 -1.413868,0.65733 -3.001368,0.65733 -1.860351,0 -3.49746,-0.91777 -1.63711,-0.93018 -2.530079,-2.49288 -0.892968,-1.56269 -0.892968,-3.43544 0,-1.87276 0.930176,-3.48506 0.930175,-1.62471 2.567285,-2.56729 1.649511,-0.94258 3.472656,-0.94258 1.513086,0 2.815332,0.63252 1.314648,0.62012 2.530079,2.05879 z m -5.122169,1.32705 q -1.475879,0 -2.740918,0.71934 -1.265039,0.70693 -1.984375,1.97197 -0.719336,1.25264 -0.719336,2.71611 0,2.22002 1.488281,3.6711 1.488282,1.45107 3.857129,1.45107 2.393653,0 3.844727,-1.43867 1.463481,-1.43867 1.463481,-3.78272 0,-1.52549 -0.669731,-2.71611 -0.669727,-1.20303 -1.897559,-1.89756 -1.227832,-0.69453 -2.641699,-0.69453 z"
         style="font-style:normal;font-variant:normal;font-weight:normal;font-stretch:normal;font-size:25.39999962px;font-family:'Century Gothic';-inkscape-font-specification:'Century Gothic, Normal';font-variant-ligatures:normal;font-variant-caps:normal;font-variant-numeric:normal;font-feature-settings:normal;text-align:start;writing-mode:lr-tb;text-anchor:start;fill:#ffffff;fill-opacity:1;stroke-width:0.77496284"
         id="path6309" />
      <path
         d="m 112.31975,131.01947 q 3.11299,0 5.15938,2.25723 1.86035,2.05879 1.86035,4.87412 0,2.82774 -1.97197,4.94854 -1.95957,2.10839 -5.04776,2.10839 -3.10058,0 -5.07255,-2.10839 -1.95957,-2.1208 -1.95957,-4.94854 0,-2.80293 1.86035,-4.86172 2.04638,-2.26963 5.17177,-2.26963 z m 0,1.69912 q -2.158,0 -3.7083,1.59991 -1.55029,1.5999 -1.55029,3.86953 0,1.46347 0.70693,2.72851 0.70694,1.26504 1.90997,1.95957 1.20302,0.68213 2.64169,0.68213 1.43868,0 2.6417,-0.68213 1.20303,-0.69453 1.90996,-1.95957 0.70694,-1.26504 0.70694,-2.72851 0,-2.26963 -1.5627,-3.86953 -1.55029,-1.59991 -3.6959,-1.59991 z"
         style="font-style:normal;font-variant:normal;font-weight:normal;font-stretch:normal;font-size:25.39999962px;font-family:'Century Gothic';-inkscape-font-specification:'Century Gothic, Normal';font-variant-ligatures:normal;font-variant-caps:normal;font-variant-numeric:normal;font-feature-settings:normal;text-align:start;writing-mode:lr-tb;text-anchor:start;fill:#ffffff;fill-opacity:1;stroke-width:0.77496284"
         id="path6311" />
      <path
         d="m 124.46165,142.13197 q 0.63252,0 1.079,0.44649 0.44649,0.44648 0.44649,1.0914 0,0.63252 -0.44649,1.09141 -0.44648,0.44648 -1.079,0.44648 -0.63252,0 -1.07901,-0.44648 -0.44648,-0.45889 -0.44648,-1.09141 0,-0.64492 0.44648,-1.0914 0.44649,-0.44649 1.07901,-0.44649 z"
         style="font-style:normal;font-variant:normal;font-weight:normal;font-stretch:normal;font-size:25.39999962px;font-family:'Century Gothic';-inkscape-font-specification:'Century Gothic, Normal';font-variant-ligatures:normal;font-variant-caps:normal;font-variant-numeric:normal;font-feature-settings:normal;text-align:start;writing-mode:lr-tb;text-anchor:start;fill:#ffffff;fill-opacity:1;stroke-width:0.77496284"
         id="path6313" />
    </g>
  </g>
</svg>
